<?xml version="1.0" encoding="UTF-8"?>
<svg width="128px" height="128px" viewBox="0 0 128 128" version="1.1" xmlns="http://www.w3.org/2000/svg" xmlns:xlink="http://www.w3.org/1999/xlink">
    <title>cornell_seal_simple_black</title>
    <g id="Page-1" stroke="none" stroke-width="1" fill="none" fill-rule="evenodd">
        <g id="cornell_seal_simple_black" fill="#000000" fill-rule="nonzero">
            <path d="M48.966443,98.0402685 C56.2684564,103.731544 63.4630872,106.845638 63.7852349,106.95302 L64.3221477,107.167785 L64.8590604,106.95302 C65.1812081,106.845638 72.2684564,103.731544 79.5704698,98.0402685 C89.3422819,90.4161074 94.4966443,81.7181208 94.4966443,72.8053691 L94.4966443,32.4295302 L33.9328859,32.4295302 L33.9328859,72.1610738 C33.9328859,81.2885906 39.0872483,90.3087248 48.966443,98.0402685 Z M62.8187919,85.5838926 C62.4966443,85.4765101 62.1744966,85.3691275 61.7449664,85.3691275 C61.7449664,85.3691275 61.7449664,85.3691275 61.6375839,85.3691275 C60.1342282,85.3691275 59.0604027,85.4765101 57.8791946,85.5838926 C56.6979866,85.6912752 55.5167785,85.7986577 53.7986577,85.7986577 C53.0469799,85.7986577 52.295302,85.7986577 51.7583893,85.7986577 L51.7583893,66.8993289 C51.8657718,66.8993289 51.9731544,66.8993289 51.9731544,66.8993289 C52.7248322,66.8993289 53.5838926,66.8993289 54.7651007,66.8993289 C55.7315436,66.8993289 56.8053691,66.7919463 57.9865772,66.6845638 C58.6308725,66.5771812 59.3825503,66.5771812 60.1342282,66.4697987 C61.4228188,66.3624161 62.4966443,66.5771812 62.4966443,66.5771812 C62.6040268,66.5771812 62.7114094,66.6845638 62.8187919,66.6845638 C62.8187919,66.5771812 62.8187919,85.5838926 62.8187919,85.5838926 Z M91.5973154,72.8053691 C91.5973154,89.3422819 71.3020134,100.510067 65.2885906,103.516779 L65.2885906,88.4832215 C65.3959732,88.3758389 65.5033557,88.2684564 65.6107383,88.1610738 C65.9328859,87.8389262 66.147651,87.6241611 66.6845638,87.6241611 C68.0805369,87.6241611 69.1543624,87.7315436 70.3355705,87.8389262 C71.5167785,87.9463087 72.6979866,88.0536913 74.5234899,88.0536913 C76.3489933,88.0536913 77.7449664,88.0536913 77.7449664,88.0536913 L78.7114094,88.0536913 L78.7114094,82.4697987 L81.0738255,82.4697987 L81.0738255,79.4630872 L78.7114094,79.4630872 L78.7114094,73.9865772 L81.0738255,73.9865772 L81.0738255,70.9798658 L78.7114094,70.9798658 L78.7114094,64.8590604 L77.6375839,64.8590604 C77.2080537,64.8590604 76.7785235,64.8590604 76.2416107,64.8590604 C75.4899329,64.8590604 74.6308725,64.8590604 73.557047,64.8590604 C72.6979866,64.8590604 71.7315436,64.7516779 70.5503356,64.6442953 C69.9060403,64.5369128 69.1543624,64.5369128 68.4026846,64.4295302 C66.7919463,64.2147651 65.3959732,64.5369128 65.2885906,64.5369128 C65.2885906,64.5369128 65.2885906,64.5369128 65.1812081,64.5369128 L65.1812081,58.6308725 L91.4899329,58.6308725 L91.5973154,72.8053691 Z M65.2885906,85.6912752 L65.2885906,66.6845638 C65.3959732,66.5771812 65.6107383,66.5771812 65.8255034,66.4697987 C65.8255034,66.4697987 67.0067114,66.2550336 68.295302,66.3624161 C69.0469799,66.4697987 69.7986577,66.4697987 70.442953,66.5771812 C71.6241611,66.6845638 72.6979866,66.7919463 73.6644295,66.7919463 C74.6308725,66.7919463 75.3825503,66.7919463 76.1342282,66.7919463 C76.3489933,66.7919463 76.5637584,66.7919463 76.6711409,66.7919463 L76.6711409,85.7986577 C76.1342282,85.7986577 75.3825503,85.7986577 74.6308725,85.7986577 C72.9127517,85.7986577 71.7315436,85.6912752 70.5503356,85.5838926 C69.3691275,85.4765101 68.295302,85.3691275 66.7919463,85.3691275 C66.147651,85.4765101 65.7181208,85.5838926 65.2885906,85.6912752 Z M36.8322148,35.3288591 L91.5973154,35.3288591 L91.5973154,55.8389262 L36.8322148,55.8389262 L36.8322148,35.3288591 Z M36.8322148,58.6308725 L62.9261745,58.6308725 L62.9261745,64.3221477 C62.4966443,64.2147651 61.3154362,64.1073826 60.0268456,64.2147651 C59.2751678,64.3221477 58.5234899,64.3221477 57.8791946,64.4295302 C56.6979866,64.5369128 55.7315436,64.6442953 54.8724832,64.6442953 C53.7986577,64.6442953 52.9395973,64.6442953 52.1879195,64.6442953 C51.6510067,64.6442953 51.2214765,64.6442953 50.7919463,64.6442953 L49.7181208,64.6442953 L49.7181208,70.1208054 L47.1409396,70.1208054 L47.1409396,73.1275168 L49.7181208,73.1275168 L49.7181208,78.6040268 L47.1409396,78.6040268 L47.1409396,81.6107383 L49.7181208,81.6107383 L49.7181208,87.7315436 L50.6845638,87.7315436 C50.7919463,87.7315436 52.1879195,87.8389262 53.9060403,87.7315436 C55.7315436,87.7315436 57.0201342,87.6241611 58.0939597,87.5167785 C59.2751678,87.409396 60.2416107,87.3020134 61.6375839,87.3020134 C62.1744966,87.3020134 62.3892617,87.5167785 62.6040268,87.8389262 C62.6040268,87.8389262 62.7114094,87.9463087 62.7114094,87.9463087 L62.7114094,103.087248 C56.590604,100.295302 36.8322148,89.2348993 36.8322148,72.1610738 L36.8322148,58.6308725 Z" id="Shape"></path>
            <path d="M59.704698,37.3691275 L44.3489933,37.3691275 L44.3489933,38.442953 C44.3489933,41.7718121 44.3489933,47.4630872 44.3489933,47.6778523 C44.4563758,48.8590604 45.2080537,49.9328859 46.7114094,50.8993289 C48.5369128,52.1879195 51.3288591,53.7986577 51.4362416,53.7986577 L51.9731544,54.1208054 L52.5100671,53.7986577 C52.6174497,53.6912752 55.6241611,52.0805369 57.4496644,50.8993289 C59.5973154,49.5033557 59.704698,48.1073826 59.704698,47.6778523 C59.704698,47.4630872 59.704698,42.5234899 59.704698,38.442953 L59.704698,37.3691275 L59.704698,37.3691275 Z M46.4966443,39.5167785 L57.4496644,39.5167785 C57.4496644,40.3758389 57.4496644,41.3422819 57.4496644,42.3087248 L46.4966443,42.3087248 C46.4966443,41.3422819 46.4966443,40.3758389 46.4966443,39.5167785 Z M57.557047,47.5704698 C57.557047,48.1073826 56.8053691,48.6442953 56.2684564,49.0738255 C54.9798658,49.9328859 52.9395973,51.114094 51.9731544,51.6510067 C51.114094,51.114094 49.1812081,50.0402685 47.8926174,49.0738255 C47.033557,48.5369128 46.4966443,47.8926174 46.4966443,47.4630872 C46.4966443,47.3557047 46.4966443,46.0671141 46.4966443,44.3489933 L57.4496644,44.3489933 C57.557047,46.0671141 57.557047,47.3557047 57.557047,47.5704698 Z" id="Shape"></path>
            <path d="M85.6912752,36.9395973 L70.1208054,36.9395973 L70.1208054,38.0134228 C70.1208054,42.2013423 70.1208054,47.2483221 70.1208054,47.5704698 C70.2281879,48.7516779 70.9798658,49.8255034 72.4832215,50.7919463 C74.4161074,52.0805369 77.2080537,53.6912752 77.3154362,53.7986577 L77.852349,54.1208054 L78.3892617,53.7986577 C78.4966443,53.6912752 81.6107383,52.0805369 83.4362416,50.7919463 C85.6912752,49.2885906 85.6912752,48 85.6912752,47.5704698 C85.6912752,47.3557047 85.6912752,42.3087248 85.6912752,38.1208054 L85.6912752,36.9395973 Z M83.5436242,47.3557047 C83.5436242,47.8926174 82.7919463,48.5369128 82.2550336,48.8590604 C80.8590604,49.7181208 78.8187919,50.8993289 77.852349,51.4362416 C76.885906,50.8993289 75.0604027,49.7181208 73.6644295,48.8590604 C73.2348993,48.5369128 72.2684564,47.8926174 72.2684564,47.2483221 C72.2684564,47.1409396 72.2684564,47.033557 72.2684564,46.7114094 L77.6375839,42.8456376 L83.5436242,46.8187919 C83.5436242,47.1409396 83.5436242,47.3557047 83.5436242,47.3557047 Z M77.6375839,40.1610738 L72.2684564,44.0268456 C72.2684564,42.5234899 72.2684564,40.590604 72.2684564,38.9798658 L83.6510067,38.9798658 C83.6510067,40.6979866 83.6510067,42.5234899 83.6510067,44.1342282 L77.6375839,40.1610738 Z" id="Shape"></path>
            <path d="M68.0805369,70.9798658 L69.1543624,71.0872483 C69.7986577,71.1946309 70.442953,71.1946309 70.9798658,71.1946309 L74.0939597,71.3020134 L74.0939597,69.1543624 L70.9798658,69.0469799 C70.5503356,69.0469799 70.0134228,68.9395973 69.3691275,68.9395973 L68.295302,68.8322148 C67.9731544,68.8322148 67.7583893,68.8322148 67.5436242,68.8322148 L67.6510067,70.9798658 C67.7583893,70.8724832 67.9731544,70.8724832 68.0805369,70.9798658 Z" id="Path"></path>
            <path d="M70.9798658,74.9530201 C70.5503356,74.9530201 70.0134228,74.8456376 69.3691275,74.8456376 C69.0469799,74.8456376 68.6174497,74.738255 68.295302,74.738255 C67.9731544,74.738255 67.7583893,74.738255 67.5436242,74.738255 L67.5436242,76.885906 C67.6510067,76.885906 67.8657718,76.885906 68.0805369,76.885906 C68.5100671,76.885906 68.8322148,76.9932886 69.1543624,76.9932886 C69.7986577,77.1006711 70.3355705,77.1006711 70.8724832,77.1006711 C71.5167785,77.1006711 72.4832215,77.1006711 73.2348993,77.1006711 L74.0939597,77.1006711 L74.0939597,74.9530201 L73.2348993,74.9530201 C72.590604,75.0604027 71.6241611,74.9530201 70.9798658,74.9530201 Z" id="Path"></path>
            <path d="M70.9798658,80.966443 C70.5503356,80.966443 70.0134228,80.8590604 69.3691275,80.8590604 C69.0469799,80.8590604 68.6174497,80.7516779 68.295302,80.7516779 C67.9731544,80.7516779 67.7583893,80.7516779 67.5436242,80.7516779 L67.6510067,82.8993289 C67.7583893,82.8993289 67.9731544,82.8993289 68.1879195,82.8993289 C68.6174497,82.8993289 68.9395973,83.0067114 69.261745,83.0067114 C69.9060403,83.114094 70.5503356,83.114094 70.9798658,83.114094 L71.8389262,83.114094 C72.6979866,83.114094 73.7718121,83.114094 74.0939597,83.2214765 L74.0939597,81.0738255 C73.7718121,81.0738255 72.6979866,81.0738255 71.8389262,80.966443 L70.9798658,80.966443 Z" id="Path"></path>
            <path d="M57.4496644,71.1946309 C57.9865772,71.1946309 58.5234899,71.0872483 59.2751678,71.0872483 C59.5973154,71.0872483 59.9194631,70.9798658 60.3489933,70.9798658 C60.5637584,70.9798658 60.6711409,70.9798658 60.885906,70.9798658 L60.885906,68.8322148 C60.6711409,68.8322148 60.4563758,68.8322148 60.1342282,68.8322148 C59.704698,68.8322148 59.3825503,68.9395973 59.0604027,68.9395973 C58.4161074,69.0469799 57.8791946,69.0469799 57.4496644,69.0469799 L54.3355705,69.1543624 L54.3355705,71.3020134 L57.4496644,71.1946309 Z" id="Path"></path>
            <path d="M59.0604027,74.8456376 C58.4161074,74.9530201 57.8791946,74.9530201 57.4496644,74.9530201 L54.3355705,75.0604027 L54.3355705,77.2080537 L57.4496644,77.1006711 C57.9865772,77.1006711 58.5234899,76.9932886 59.2751678,76.9932886 L60.2416107,76.885906 C60.4563758,76.885906 60.5637584,76.885906 60.6711409,76.885906 L60.7785235,74.738255 C60.5637584,74.738255 60.3489933,74.738255 60.0268456,74.738255 L59.0604027,74.8456376 Z" id="Path"></path>
            <path d="M59.0604027,80.7516779 C58.4161074,80.8590604 57.8791946,80.8590604 57.3422819,80.8590604 C56.3758389,80.8590604 54.7651007,80.966443 54.3355705,80.966443 L54.3355705,83.114094 C54.7651007,83.114094 56.3758389,83.0067114 57.4496644,83.0067114 C57.9865772,83.0067114 58.5234899,82.8993289 59.2751678,82.8993289 L60.3489933,82.7919463 C60.4563758,82.7919463 60.6711409,82.7919463 60.7785235,82.7919463 L60.7785235,80.6442953 C60.5637584,80.6442953 60.3489933,80.6442953 60.0268456,80.6442953 L59.0604027,80.7516779 Z" id="Path"></path>
            <path d="M9.66442953,64.3221477 C12.3489933,64.3221477 13.9597315,62.6040268 14.1744966,59.5973154 C14.1744966,59.0604027 14.1744966,58.3087248 14.0671141,57.557047 L14.0671141,57.3422819 L11.8120805,57.3422819 L12.0268456,57.7718121 C12.1342282,58.0939597 12.2416107,58.8456376 12.2416107,59.4899329 C12.1342282,60.9932886 10.9530201,61.9597315 9.34228188,61.852349 C7.62416107,61.7449664 6.65771812,60.6711409 6.65771812,59.1677852 C6.65771812,58.6308725 6.76510067,58.0939597 7.19463087,57.557047 L7.51677852,57.1275168 L5.36912752,56.8053691 L5.26174497,57.0201342 C4.93959732,57.6644295 4.83221477,58.4161074 4.72483221,59.0604027 C4.51006711,62.1744966 6.22818792,64.2147651 9.34228188,64.3221477 C9.44966443,64.3221477 9.55704698,64.3221477 9.66442953,64.3221477 Z" id="Path"></path>
            <path d="M10.0939597,53.7986577 C10.738255,54.0134228 11.2751678,54.0134228 11.8120805,54.0134228 C13.852349,54.0134228 15.3557047,52.8322148 16,50.7919463 C16.3221477,49.5033557 16.2147651,48.4295302 15.6778523,47.3557047 C15.033557,46.2818792 13.9597315,45.5302013 12.5637584,45.1006711 C12.0268456,44.885906 11.3825503,44.885906 10.9530201,44.885906 C8.91275168,44.885906 7.40939597,46.0671141 6.76510067,48.1073826 C5.90604027,50.7919463 7.19463087,52.9395973 10.0939597,53.7986577 Z M8.59060403,48.7516779 C8.91275168,47.5704698 9.87919463,47.3557047 10.6308725,47.3557047 C10.9530201,47.3557047 11.3825503,47.4630872 11.8120805,47.5704698 C12.7785235,47.8926174 13.5302013,48.3221477 13.852349,48.966443 C14.0671141,49.3959732 14.1744966,49.8255034 13.9597315,50.3624161 C13.6375839,51.5436242 12.6711409,51.7583893 11.9194631,51.7583893 C11.4899329,51.7583893 11.1677852,51.6510067 10.738255,51.5436242 C9.44966443,51.114094 8.16107383,50.147651 8.59060403,48.7516779 Z" id="Shape"></path>
            <path d="M19.3288591,41.7718121 L16.2147651,40.0536913 L16.3221477,39.8389262 C16.6442953,39.3020134 16.8590604,39.3020134 17.2885906,39.409396 L20.4026846,39.8389262 L21.5838926,37.5838926 L17.5033557,37.1543624 C17.1812081,37.1543624 16.966443,37.1543624 16.7516779,37.1543624 C16.7516779,36.295302 16.3221477,35.4362416 15.4630872,35.0067114 C15.033557,34.7919463 14.6040268,34.6845638 14.1744966,34.6845638 C12.6711409,34.6845638 11.9194631,36.1879195 11.1677852,37.5838926 L10.0939597,39.6241611 L18.2550336,44.0268456 L19.3288591,41.7718121 Z M14.4966443,38.8724832 L14.3892617,39.0872483 L12.885906,38.3355705 L12.9932886,38.1208054 C13.3154362,37.4765101 13.7449664,36.8322148 14.3892617,37.1543624 C14.6040268,37.261745 14.7114094,37.3691275 14.8187919,37.5838926 C14.9261745,38.0134228 14.7114094,38.5503356 14.4966443,38.8724832 Z" id="Shape"></path>
            <polygon id="Path" points="24.3758389 33.6107383 20.1879195 30.1744966 26.2013423 31.5704698 27.8120805 29.5302013 20.7248322 23.6241611 19.2214765 25.3422819 23.5167785 28.885906 17.5033557 27.4899329 15.7852349 29.5302013 22.9798658 35.4362416"></polygon>
            <polygon id="Path" points="34.7919463 23.6241611 33.5033557 22.1208054 30.9261745 24.1610738 29.7449664 22.7651007 32.1073826 20.8322148 30.8187919 19.3288591 28.4563758 21.261745 27.5973154 20.0805369 30.1744966 18.0402685 28.885906 16.4295302 24.4832215 19.9731544 30.2818792 27.1677852"></polygon>
            <polygon id="Path" points="42.4161074 19.0067114 41.4496644 17.2885906 38.5503356 18.8993289 35.0067114 12.5637584 32.966443 13.7449664 37.4765101 21.7986577"></polygon>
            <polygon id="Path" points="50.2550336 16 49.5033557 14.1744966 46.4966443 15.2483221 44.0268456 8.48322148 41.7718121 9.23489933 44.885906 17.9328859"></polygon>
            <path d="M59.5973154,14.4966443 C59.8120805,14.4966443 59.9194631,14.4966443 60.1342282,14.4966443 C61.4228188,14.3892617 62.3892617,13.9597315 62.9261745,13.3154362 C63.4630872,12.6711409 63.6778523,11.704698 63.5704698,10.6308725 L63.1409396,4.83221477 L60.7785235,4.93959732 L61.2080537,10.2013423 C61.3154362,12.0268456 60.5637584,12.3489933 59.9194631,12.4563758 C59.8120805,12.4563758 59.8120805,12.4563758 59.704698,12.4563758 C59.1677852,12.4563758 58.4161074,12.2416107 58.2013423,10.4161074 L57.7718121,5.15436242 L55.409396,5.36912752 L55.8389262,11.1677852 C56.2684564,13.3154362 57.4496644,14.4966443 59.5973154,14.4966443 Z" id="Path"></path>
            <polygon id="Path" points="70.2281879 9.02013423 72.1610738 14.7114094 74.8456376 15.1409396 76.0268456 5.90604027 73.7718121 5.58389262 73.0201342 11.0604027 71.0872483 5.26174497 68.5100671 4.93959732 67.2214765 14.0671141 69.4765101 14.3892617"></polygon>
            <polygon id="Path" points="83.0067114 7.94630872 80.7516779 7.19463087 77.9597315 16 80.2147651 16.7516779"></polygon>
            <polygon id="Path" points="94.6040268 13.1006711 92.5637584 12.0268456 88.0536913 16.6442953 89.0201342 10.3087248 86.7651007 9.12751678 85.3691275 18.8993289 87.7315436 19.9731544"></polygon>
            <polygon id="Path" points="96.966443 26.4161074 98.147651 24.8053691 95.5704698 22.7651007 96.6442953 21.3691275 99.0067114 23.1946309 100.295302 21.5838926 97.9328859 19.7583893 98.7919463 18.5771812 101.369128 20.6174497 102.657718 19.0067114 98.147651 15.5704698 92.4563758 22.8724832"></polygon>
            <path d="M100.832215,30.2818792 L103.516779,27.9194631 L103.624161,28.1342282 C103.946309,28.5637584 103.946309,28.6711409 103.731544,29.2080537 L102.228188,32 L103.946309,33.9328859 L105.771812,30.2818792 C105.879195,30.1744966 105.986577,29.852349 105.986577,29.5302013 C106.738255,29.852349 107.704698,29.7449664 108.456376,29.1006711 C110.496644,27.3825503 108.885906,25.557047 107.704698,24.1610738 L106.201342,22.442953 L99.2214765,28.5637584 L100.832215,30.2818792 Z M106.308725,25.4496644 L106.416107,25.6644295 C106.738255,26.0939597 107.060403,26.5234899 107.060403,26.8456376 C107.060403,27.0604027 106.95302,27.1677852 106.738255,27.2751678 C106.630872,27.4899329 106.416107,27.4899329 106.308725,27.4899329 C105.879195,27.4899329 105.449664,27.0604027 105.234899,26.738255 L105.127517,26.5234899 L106.308725,25.4496644 Z" id="Shape"></path>
            <path d="M109.422819,37.6912752 C108.993289,38.0134228 108.348993,37.4765101 108.134228,37.0469799 C107.812081,36.5100671 107.704698,35.9731544 107.704698,35.2214765 L107.704698,34.6845638 L105.557047,35.6510067 L105.66443,36.0805369 C105.879195,36.8322148 105.986577,37.261745 106.416107,38.0134228 C107.167785,39.3020134 108.134228,39.9463087 109.208054,39.9463087 C109.744966,39.9463087 110.174497,39.8389262 110.711409,39.5167785 C112.322148,38.5503356 112.107383,37.0469799 111.892617,35.8657718 C111.785235,35.114094 111.677852,34.5771812 112,34.3624161 C112.214765,34.2550336 112.322148,34.2550336 112.42953,34.2550336 C112.85906,34.2550336 113.181208,34.6845638 113.288591,34.7919463 C113.610738,35.2214765 113.718121,35.7583893 113.825503,36.295302 L113.932886,36.7248322 L115.865772,35.8657718 L115.865772,35.6510067 C115.758389,35.0067114 115.436242,34.3624161 115.006711,33.6107383 C114.040268,31.8926174 112.322148,31.3557047 110.818792,32.3221477 C109.208054,33.2885906 109.422819,34.7919463 109.637584,35.8657718 C109.744966,36.9395973 109.852349,37.4765101 109.422819,37.6912752 Z" id="Path"></path>
            <polygon id="Rectangle" transform="translate(114.365219, 43.277928) rotate(-22.191894) translate(-114.365219, -43.277928) " points="109.747889 42.0967501 118.982549 42.0967501 118.982549 44.4591049 109.747889 44.4591049"></polygon>
            <polygon id="Path" points="119.087248 49.1812081 112.107383 50.8993289 112.644295 53.1543624 119.731544 51.4362416 120.268456 53.7986577 122.201342 53.3691275 120.483221 46.2818792 118.550336 46.8187919"></polygon>
            <polygon id="Path" points="113.718121 60.3489933 113.825503 62.7114094 117.47651 62.4966443 123.275168 65.5033557 123.167785 62.9261745 119.731544 61.3154362 122.95302 59.2751678 122.738255 56.4832215 117.369128 60.2416107"></polygon>
            <polygon id="Path" points="11.4899329 81.6107383 13.4228188 81.0738255 12.6711409 78.2818792 14.0671141 77.852349 14.9261745 80.8590604 16.8590604 80.2147651 15.3557047 75.0604027 6.44295302 77.6375839 7.08724832 79.8926174 10.738255 78.8187919"></polygon>
            <path d="M19.7583893,89.3422819 C20.0805369,88.2684564 19.9731544,87.0872483 19.4362416,85.9060403 C18.5771812,84.1879195 17.2885906,83.3288591 15.5704698,83.3288591 C14.8187919,83.3288591 13.9597315,83.5436242 13.1006711,83.9731544 C11.704698,84.6174497 10.8456376,85.5838926 10.4161074,86.7651007 C10.0939597,87.8389262 10.2013423,89.0201342 10.738255,90.2013423 C11.5973154,91.8120805 12.885906,92.7785235 14.6040268,92.7785235 C15.3557047,92.7785235 16.2147651,92.5637584 17.0738255,92.1342282 C18.4697987,91.3825503 19.4362416,90.5234899 19.7583893,89.3422819 Z M16.1073826,89.8791946 C15.5704698,90.2013423 14.9261745,90.3087248 14.3892617,90.3087248 C13.5302013,90.3087248 12.9932886,89.9865772 12.6711409,89.2348993 C12.4563758,88.6979866 12.3489933,88.2684564 12.5637584,87.8389262 C12.7785235,87.1946309 13.4228188,86.5503356 14.2818792,86.1208054 C14.8187919,85.9060403 15.3557047,85.6912752 15.8926174,85.6912752 C16.7516779,85.6912752 17.2885906,86.0134228 17.6107383,86.7651007 C17.8255034,87.3020134 17.9328859,87.7315436 17.7181208,88.1610738 C17.5033557,88.8053691 16.966443,89.4496644 16.1073826,89.8791946 Z" id="Shape"></path>
            <path d="M26.2013423,96.5369128 L22.0134228,99.8657718 C20.9395973,100.724832 20.0805369,100.832215 19.4362416,100.080537 C19.2214765,99.7583893 19.114094,99.4362416 19.114094,99.114094 C19.2214765,98.6845638 19.5436242,98.147651 20.1879195,97.6107383 L24.3758389,94.2818792 L22.8724832,92.4563758 L18.2550336,96.1073826 C17.2885906,96.8590604 16.7516779,97.7181208 16.7516779,98.6845638 C16.7516779,99.5436242 17.0738255,100.402685 17.8255034,101.369128 C18.6845638,102.550336 19.6510067,103.087248 20.7248322,103.087248 C21.4765101,103.087248 22.2281879,102.765101 22.9798658,102.120805 L27.5973154,98.3624161 L26.2013423,96.5369128 Z" id="Path"></path>
            <polygon id="Path" points="34.0402685 104.053691 30.6040268 108.348993 31.8926174 102.33557 29.852349 100.61745 23.9463087 107.812081 25.7718121 109.315436 29.2080537 105.020134 27.9194631 111.033557 29.9597315 112.751678 35.8657718 105.557047"></polygon>
            <path d="M40.9127517,108.456376 L38.5503356,107.275168 L34.3624161,115.543624 L36.7248322,116.724832 C37.9060403,117.261745 38.8724832,117.583893 39.8389262,117.583893 C41.4496644,117.583893 42.738255,116.724832 43.5973154,115.006711 C44.9932886,112.214765 44.0268456,110.067114 40.9127517,108.456376 Z M41.3422819,113.932886 C40.9127517,114.899329 40.0536913,115.436242 39.0872483,115.436242 C38.6577181,115.436242 38.3355705,115.328859 37.9060403,115.114094 L37.3691275,114.791946 L39.7315436,110.067114 L40.2684564,110.389262 C40.9127517,110.711409 41.3422819,111.248322 41.557047,111.785235 C41.7718121,112.536913 41.6644295,113.181208 41.3422819,113.932886 Z" id="Shape"></path>
            <polygon id="Path" points="46.0671141 120.697987 51.5436242 122.201342 52.0805369 120.268456 48.8590604 119.409396 49.2885906 117.691275 52.295302 118.442953 52.8322148 116.510067 49.8255034 115.758389 50.147651 114.255034 53.4765101 115.114094 53.9060403 113.181208 48.4295302 111.785235"></polygon>
            <path d="M59.704698,113.932886 L57.0201342,113.825503 L56.4832215,123.060403 L59.1677852,123.167785 C59.3825503,123.167785 59.5973154,123.167785 59.8120805,123.167785 C62.9261745,123.167785 64.5369128,121.66443 64.7516779,118.765101 C64.8590604,117.369128 64.5369128,116.187919 63.7852349,115.328859 C62.9261745,114.577181 61.6375839,114.040268 59.704698,113.932886 Z M59.5973154,121.234899 L58.9530201,121.234899 L59.2751678,115.973154 L59.9194631,115.973154 C61.2080537,116.080537 62.3892617,117.04698 62.2818792,118.765101 C62.1744966,120.483221 60.885906,121.234899 59.5973154,121.234899 Z" id="Shape"></path>
            <path d="M72.9127517,113.181208 L71.3020134,122.95302 L73.7718121,122.416107 L74.0939597,120.375839 L77.1006711,119.731544 L78.2818792,121.557047 L80.8590604,121.020134 L75.3825503,112.751678 L72.9127517,113.181208 Z M74.4161074,118.33557 L74.738255,115.865772 L76.0268456,117.90604 L74.4161074,118.33557 Z" id="Shape"></path>
            <polygon id="Path" points="81.7181208 118.013423 82.5771812 120.268456 84.7248322 119.409396 83.9731544 117.261745"></polygon>
            <path d="M86.2281879,108.671141 L83.8657718,109.959732 L88.2684564,118.120805 L90.6308725,116.832215 C93.7449664,115.114094 94.4966443,112.966443 93.1006711,110.281879 C91.704698,107.489933 89.3422819,106.95302 86.2281879,108.671141 Z M89.9865772,114.899329 L89.4496644,115.221477 L86.9798658,110.604027 L87.5167785,110.281879 C87.8389262,110.067114 88.2684564,109.959732 88.6979866,109.959732 C89.6644295,109.959732 90.4161074,110.496644 90.9530201,111.355705 C91.8120805,112.85906 91.0604027,114.255034 89.9865772,114.899329 Z" id="Shape"></path>
            <polygon id="Path" points="94.9261745 111.57047 96.2147651 113.503356 98.147651 112.107383 96.8590604 110.174497"></polygon>
            <polygon id="Path" points="98.5771812 99.6510067 98.147651 103.302013 100.187919 103.624161 100.402685 102.120805 104.805369 106.52349 106.52349 104.912752 99.9731544 98.2550336"></polygon>
            <path d="M111.14094,94.8187919 C110.389262,94.2818792 109.530201,94.1744966 108.563758,94.4966443 C108.563758,93.6375839 108.134228,92.7785235 107.489933,92.3489933 C106.308725,91.4899329 104.805369,92.0268456 103.624161,93.5302013 C102.550336,95.033557 102.657718,96.5369128 103.946309,97.5033557 C104.590604,97.9328859 105.449664,98.0402685 106.201342,97.8255034 C106.09396,98.7919463 106.416107,99.5436242 107.167785,100.080537 C107.704698,100.510067 108.241611,100.61745 108.778523,100.61745 C109.744966,100.61745 110.604027,100.080537 111.463087,99.0067114 C112.107383,98.147651 112.42953,97.2885906 112.322148,96.4295302 C112.214765,95.8926174 111.785235,95.3557047 111.14094,94.8187919 Z M106.738255,95.4630872 C106.416107,95.6778523 106.09396,95.8926174 105.771812,95.8926174 C105.66443,95.8926174 105.449664,95.8926174 105.342282,95.7852349 C104.912752,95.4630872 105.127517,94.9261745 105.342282,94.6040268 C105.449664,94.3892617 105.66443,94.2818792 105.879195,94.2818792 C105.986577,94.2818792 106.201342,94.3892617 106.416107,94.4966443 C106.738255,94.7114094 106.845638,95.1409396 106.738255,95.4630872 Z M109.959732,98.0402685 C109.637584,98.4697987 109.100671,98.5771812 108.671141,98.2550336 C108.348993,97.9328859 108.134228,97.6107383 108.241611,96.966443 C108.885906,96.5369128 109.422819,96.4295302 109.852349,96.7516779 C110.067114,96.8590604 110.174497,97.0738255 110.174497,97.2885906 C110.174497,97.5033557 110.067114,97.8255034 109.959732,98.0402685 Z" id="Shape"></path>
            <path d="M115.328859,85.7986577 C113.718121,85.0469799 112.214765,85.4765101 111.463087,86.9798658 C111.248322,87.409396 111.14094,87.8389262 111.248322,88.2684564 C110.711409,87.8389262 110.174497,87.0872483 110.604027,86.1208054 C110.818792,85.6912752 111.14094,85.3691275 111.463087,85.0469799 L111.785235,84.8322148 L110.067114,83.6510067 L109.852349,83.8657718 C109.422819,84.295302 108.993289,84.8322148 108.671141,85.4765101 C108.241611,86.442953 108.134228,87.3020134 108.456376,88.1610738 C108.993289,89.6644295 110.496644,90.738255 111.677852,91.2751678 C112.751678,91.8120805 113.610738,92.0268456 114.362416,92.0268456 C115.543624,92.0268456 116.402685,91.4899329 117.04698,90.3087248 C117.90604,88.3758389 117.261745,86.7651007 115.328859,85.7986577 Z M115.328859,89.2348993 C115.221477,89.557047 114.899329,89.6644295 114.577181,89.6644295 C114.362416,89.6644295 114.040268,89.557047 113.825503,89.4496644 C113.395973,89.2348993 113.073826,88.9127517 112.966443,88.6979866 C112.85906,88.4832215 112.966443,88.3758389 112.966443,88.1610738 C113.073826,87.8389262 113.288591,87.7315436 113.718121,87.7315436 C113.932886,87.7315436 114.255034,87.8389262 114.577181,87.9463087 C115.006711,88.1610738 115.221477,88.3758389 115.328859,88.6979866 C115.436242,88.9127517 115.328859,89.1275168 115.328859,89.2348993 Z" id="Shape"></path>
            <path d="M118.657718,76.3489933 C116.832215,75.8120805 115.328859,76.6711409 114.791946,78.3892617 C114.791946,78.6040268 114.684564,78.7114094 114.684564,78.8187919 L113.610738,78.4966443 L114.577181,75.2751678 L112.751678,74.738255 L111.14094,80.1073826 L116.295302,81.7181208 L116.295302,81.2885906 C116.295302,80.7516779 116.402685,80.3221477 116.510067,79.7852349 C116.61745,79.3557047 117.154362,78.2818792 118.120805,78.4966443 C119.194631,78.8187919 118.979866,80 118.872483,80.3221477 C118.657718,80.966443 118.33557,81.3959732 118.013423,81.8255034 L117.691275,82.147651 L119.838926,82.8993289 L119.946309,82.6845638 C120.268456,82.0402685 120.590604,81.2885906 120.805369,80.7516779 C121.127517,79.6778523 121.127517,78.7114094 120.697987,77.852349 C120.268456,77.2080537 119.516779,76.6711409 118.657718,76.3489933 Z" id="Path"></path>
            <path d="M17.1812081,64 C17.1812081,89.7718121 38.1208054,110.818792 63.8926174,110.818792 C89.6644295,110.818792 110.604027,89.8791946 110.604027,64 C110.604027,38.2281879 89.6644295,17.2881815 63.8926174,17.2881815 C38.2281879,17.1812081 17.1812081,38.2281879 17.1812081,64 Z M64,18.7919463 C88.9127517,18.7919463 109.100671,39.0872483 109.100671,63.8926174 C109.100671,88.8053691 88.8053691,108.993289 64,108.993289 C39.0872483,108.993289 18.8989047,88.6979866 18.8989047,63.8926174 C18.7919463,39.0872483 39.0872483,18.7919463 64,18.7919463 Z" id="Shape"></path>
            <path d="M64,0 C28.6711409,0 0,28.6711409 0,64 C0,99.2214765 28.6711409,128 64,128 C99.2214765,128 128,99.3288591 128,64 C127.892617,28.6711409 99.2214765,0 64,0 Z M64,126.281879 C29.6375839,126.281879 1.71812081,98.3624161 1.71812081,64 C1.71812081,29.6375839 29.6375839,1.71812081 64,1.71812081 C98.3624161,1.71812081 126.281879,29.6375839 126.281879,64 C126.281879,98.3624161 98.3624161,126.281879 64,126.281879 Z" id="Shape"></path>
        </g>
    </g>
</svg>