<?xml version="1.0" encoding="UTF-8"?>
<svg width="164px" height="164px" viewBox="0 0 164 164" version="1.1" xmlns="http://www.w3.org/2000/svg" xmlns:xlink="http://www.w3.org/1999/xlink">
    <title>cornell_seal_simple_web_white</title>
    <g id="Page-1" stroke="none" stroke-width="1" fill="none" fill-rule="evenodd">
        <g id="cornell_seal_simple_web_white" fill="#FFFFFF" fill-rule="nonzero">
            <g id="Group">
                <g transform="translate(6.2884, 6.495)">
                    <path d="M6.3269935,76.1294745 C9.76187545,76.1294745 11.8228046,73.9436405 12.0726142,70.0715918 C12.0726142,69.3846154 12.0726142,68.4478294 11.9477094,67.448591 L11.9477094,67.1987814 L9.07489906,67.1987814 L9.32470865,67.760853 C9.44961345,68.1980198 9.57451825,69.1348058 9.57451825,69.946687 C9.44961345,71.8827113 7.95075587,73.1317593 5.8898267,72.9444021 C3.70399274,72.8194973 2.45494475,71.4455446 2.45494475,69.5095202 C2.45494475,68.8225438 2.57984955,68.1355674 3.14192114,67.448591 L3.57908794,66.8865194 L0.831182378,66.4493526 L0.70627758,66.6991622 C0.269110787,67.5110434 0.144205989,68.5102818 0.0193011903,69.322163 C-0.230508406,73.3191165 1.95532556,75.9421173 5.9522791,76.0670221 C6.0147315,76.1294745 6.1396363,76.1294745 6.3269935,76.1294745 Z" id="Path"></path>
                    <path d="M6.82661269,62.7022087 C7.63849388,62.9520183 8.32547027,62.9520183 9.01244666,62.9520183 C11.6354474,62.9520183 13.5714718,61.4531607 14.383353,58.8301599 C14.8205198,57.2063976 14.6331626,55.8324448 13.9461862,54.458492 C13.134305,53.0845392 11.7603522,52.1477532 9.94923265,51.5856816 C9.26225626,51.335872 8.45037507,51.335872 7.88830348,51.335872 C5.26530271,51.335872 3.32927834,52.8347296 2.51739715,55.4577304 C1.51815877,58.8301599 3.14192114,61.5780655 6.82661269,62.7022087 Z M4.95304072,56.2071592 C5.39020751,54.7083016 6.57680309,54.3960396 7.57604148,54.3960396 C8.01320827,54.3960396 8.51282747,54.5209444 9.07489906,54.6458492 C10.323947,55.083016 11.260733,55.5826352 11.6978998,56.4569688 C11.9477094,57.0190404 12.1350666,57.581112 11.8228046,58.2680883 C11.3856378,59.7669459 10.1990422,60.0792079 9.19980386,60.0792079 C8.63773226,60.0792079 8.26301787,59.9543031 7.70094628,59.8293983 C6.0147315,59.2673267 4.39096913,58.0182788 4.95304072,56.2071592 Z" id="Shape"></path>
                    <path d="M18.6925685,47.2764661 L14.695615,45.0906321 L14.8205198,44.8408225 C15.2576866,44.1538462 15.5074962,44.1538462 16.0695678,44.278751 L20.0665213,44.8408225 L21.5653789,41.9680122 L16.3193774,41.4059406 C15.8822106,41.4059406 15.632401,41.4059406 15.3825914,41.4059406 C15.3825914,40.2817974 14.8205198,39.2201066 13.758829,38.658035 C13.1967574,38.4082254 12.6346858,38.2208682 12.1350666,38.2208682 C10.1990422,38.2208682 9.26225626,40.1568926 8.26301787,41.9055598 L6.82661269,44.5285605 L17.2561633,50.1492765 L18.6925685,47.2764661 Z M12.509781,43.5917746 L12.3848762,43.8415842 L10.4488518,42.9047982 L10.5737566,42.6549886 C11.0109234,41.8431074 11.5105426,41.0312262 12.3848762,41.4059406 C12.6346858,41.5308454 12.822043,41.6557502 12.9469478,41.9680122 C13.0094002,42.4676314 12.7595906,43.1546078 12.509781,43.5917746 Z" id="Shape"></path>
                    <polygon id="Path" points="25.1251656 36.8469155 19.7542593 32.4752475 27.4359044 34.2239147 29.4968336 31.6009139 20.4412357 24.0441736 18.5052113 26.29246 24.0010224 30.7890327 16.3193774 29.0403656 14.1335434 31.6009139 23.314046 39.1576542"></polygon>
                    <polygon id="Path" points="38.4275266 24.0441736 36.8037643 22.1706017 33.4937871 24.73115 31.9949295 22.9824829 34.9926447 20.4843869 33.3688823 18.5483625 30.3711671 21.0464585 29.247024 19.5476009 32.5570011 16.9246002 30.8707863 14.863671 25.2500704 19.4226961 32.6819059 28.6031988"></polygon>
                    <polygon id="Path" points="48.2325533 18.1736481 46.9835053 15.9878142 43.2363614 18.0487433 38.7397886 9.92993145 36.1167879 11.428789 41.8624086 21.7334349"></polygon>
                    <polygon id="Path" points="58.2249371 14.3015994 57.2881512 11.9908606 53.4161024 13.3648134 50.2934825 4.68392993 47.3582197 5.68316832 51.3551732 16.7996954"></polygon>
                    <path d="M70.2157978,12.365575 C70.4656074,12.365575 70.6529646,12.365575 70.9027742,12.365575 C72.5265365,12.2406702 73.7755845,11.6785986 74.4625609,10.8667174 C75.1495373,10.0548363 75.3993469,8.80578827 75.2744421,7.43183549 L74.7123705,-3.32813239e-15 L71.7146553,0.124904798 L72.2767269,6.8697639 C72.4016317,9.18050267 71.4648457,9.61766946 70.6529646,9.74257426 C70.5280598,9.74257426 70.5280598,9.74257426 70.403155,9.74257426 C69.7161786,9.74257426 68.7793926,9.49276466 68.4671306,7.1195735 L67.905059,0.374714395 L64.9073438,0.624523991 L65.4694154,8.05635948 C65.9065822,10.8667174 67.4678922,12.365575 70.2157978,12.365575 Z" id="Path"></path>
                    <polygon id="Path" points="83.7679684 5.37090632 86.2660643 12.677837 89.7009463 13.2399086 91.1998039 1.37395278 88.3269935 0.999238385 87.3902075 7.99390708 84.8921115 0.562071592 81.5821344 0.187357197 79.958372 11.8659558 82.8311824 12.2406702"></polygon>
                    <polygon id="Path" points="100.130497 3.99695354 97.2576866 3.06016756 93.6978998 14.3015994 96.5707102 15.3008378"></polygon>
                    <polygon id="Path" points="114.994168 10.6169078 112.371167 9.24295506 106.625546 15.1134806 107.812142 7.0571211 104.939332 5.49581112 103.190664 18.0487433 106.18838 19.4226961"></polygon>
                    <polygon id="Path" points="117.991883 27.6664128 119.490741 25.6054836 116.243216 22.9824829 117.617169 21.1713633 120.614884 23.5445545 122.238646 21.4836253 119.240931 19.1104341 120.365074 17.6115765 123.612599 20.2345773 125.298814 18.1736481 119.490741 13.7395278 112.246262 23.1073877"></polygon>
                    <path d="M122.925623,32.6001523 L126.360505,29.6024372 L126.485409,29.8522468 C126.922576,30.4143184 126.922576,30.5392232 126.610314,31.2261995 L124.67429,34.7859863 L126.860124,37.2840823 L129.170863,32.6001523 C129.295767,32.4752475 129.420672,32.0380807 129.420672,31.6633663 C130.357458,32.1005331 131.606506,31.9131759 132.605744,31.1012947 C135.228745,28.9154608 133.167816,26.5422696 131.668958,24.7936024 L129.732934,22.6077685 L120.802241,30.4143184 L122.925623,32.6001523 Z M129.982744,26.4173648 L130.107648,26.6671744 C130.544815,27.229246 130.91953,27.7913176 130.91953,28.166032 C130.91953,28.4158416 130.794625,28.6031988 130.482363,28.7281036 C130.357458,28.9779132 130.045196,28.9779132 129.920291,28.9779132 C129.35822,28.9779132 128.796148,28.4158416 128.546339,28.0411272 L128.421434,27.7913176 L129.982744,26.4173648 Z" id="Shape"></path>
                    <path d="M133.917245,42.092917 C133.355173,42.5300838 132.543292,41.8431074 132.293482,41.2810358 C131.856316,40.5940594 131.731411,39.907083 131.731411,38.970297 L131.731411,38.2833206 L128.983505,39.5323686 L129.10841,40.0944402 C129.35822,41.0312262 129.545577,41.5932978 130.045196,42.5925362 C130.981982,44.2162986 132.23103,45.0906321 133.604983,45.0906321 C134.291959,45.0906321 134.854031,44.9657273 135.541007,44.5285605 C137.601936,43.2795126 137.352127,41.3434882 137.039865,39.8446306 C136.91496,38.9078446 136.790055,38.2208682 137.16477,37.9086062 C137.414579,37.7837014 137.601936,37.7837014 137.726841,37.7837014 C138.288913,37.7837014 138.663627,38.345773 138.850984,38.4706778 C139.288151,39.0327494 139.413056,39.7197258 139.537961,40.4067022 L139.662866,40.9687738 L142.160962,39.8446306 L142.160962,39.594821 C142.036057,38.7829398 141.59889,37.9710586 141.036818,36.9718203 C139.78777,34.7859863 137.601936,34.0990099 135.665912,35.3480579 C133.604983,36.5971059 133.854792,38.5331302 134.167054,39.907083 C134.354412,41.0936786 134.479316,41.780655 133.917245,42.092917 Z" id="Path"></path>
                    <polygon id="Rectangle" transform="translate(140.2523, 49.211) rotate(-22.1919) translate(-140.2523, -49.211)" points="134.35074 47.7122198 146.153937 47.7122198 146.153937 50.7098571 134.35074 50.7098571"></polygon>
                    <polygon id="Path" points="146.28282 56.7692308 137.352127 58.9550647 138.039103 61.8278751 147.157153 59.6420411 147.84413 62.7022087 150.279773 62.1401371 148.093939 53.0845392 145.595843 53.7715156"></polygon>
                    <polygon id="Path" points="139.288151 70.5087586 139.413056 73.5689261 144.096986 73.2566641 151.528821 77.1287129 151.341464 73.8187357 146.969796 71.7578065 151.091655 69.1348058 150.841845 65.575019 143.972081 70.3838538"></polygon>
                    <polygon id="Path" points="8.63773226 98.2376238 11.1358282 97.5506474 10.1365898 93.9908606 11.9477094 93.428789 13.0094002 97.3008378 15.5074962 96.4889566 13.5714718 89.8690023 2.20513516 93.1789794 3.01701635 96.0517898 7.70094628 94.677837"></polygon>
                    <path d="M19.1921877,108.167555 C19.6293545,106.793602 19.4419973,105.294745 18.7550209,103.795887 C17.6308777,101.610053 16.0071154,100.48591 13.8212814,100.48591 C12.8844954,100.48591 11.7603522,100.73572 10.636209,101.297791 C8.82508946,102.109673 7.76339868,103.35872 7.20132709,104.857578 C6.76416029,106.231531 6.95151749,107.730388 7.63849388,109.229246 C8.76263706,111.290175 10.3863994,112.539223 12.5722334,112.539223 C13.5090194,112.539223 14.6331626,112.289414 15.7573058,111.727342 C17.5684253,110.790556 18.8174733,109.666413 19.1921877,108.167555 Z M14.5707102,108.854532 C13.8837338,109.291698 13.0718526,109.416603 12.3848762,109.416603 C11.260733,109.416603 10.5737566,108.979436 10.1990422,108.04265 C9.94923265,107.355674 9.76187545,106.793602 10.0741374,106.231531 C10.323947,105.41965 11.1982806,104.607768 12.2599714,104.045697 C12.9469478,103.795887 13.6339242,103.483625 14.3209006,103.483625 C15.4450438,103.483625 16.1320202,103.920792 16.5067345,104.857578 C16.7565441,105.544554 16.9439013,106.106626 16.6316393,106.668698 C16.3193774,107.480579 15.632401,108.29246 14.5707102,108.854532 Z" id="Shape"></path>
                    <path d="M27.4359044,117.348058 L22.0649981,121.594821 C20.6910453,122.718964 19.5669021,122.843869 18.7550209,121.844631 C18.5052113,121.407464 18.3178541,121.032749 18.3178541,120.595583 C18.4427589,120.033511 18.8799257,119.346535 19.6918069,118.659558 L25.0627132,114.412795 L23.1266889,112.102056 L17.1937109,116.785986 C15.944663,117.722772 15.2576866,118.846915 15.2576866,120.095963 C15.2576866,121.220107 15.6948534,122.281797 16.6316393,123.530845 C17.7557825,125.029703 18.9423781,125.716679 20.3163309,125.716679 C21.2531169,125.716679 22.2523553,125.279513 23.1891413,124.467631 L29.1221192,119.658797 L27.4359044,117.348058 Z" id="Path"></path>
                    <polygon id="Path" points="37.4907406 126.965727 33.1190727 132.461538 34.7428351 124.779893 32.1198343 122.594059 24.563094 131.774562 26.9362852 133.710586 31.3079531 128.214775 29.6841908 135.89642 32.2447391 138.082254 39.8014794 128.901752"></polygon>
                    <path d="M46.2965289,132.586443 L43.2988138,131.087586 L37.9279074,141.642041 L40.9256226,143.140899 C42.4244802,143.827875 43.6735282,144.265042 44.9225761,144.265042 C46.9835053,144.265042 48.6072677,143.140899 49.7314109,140.955065 C51.480078,137.395278 50.2934825,134.647372 46.2965289,132.586443 Z M46.8586005,139.643564 C46.2965289,140.892612 45.2348381,141.579589 43.9857901,141.579589 C43.4237186,141.579589 43.0490042,141.454684 42.4869326,141.142422 L41.7999562,140.705255 L44.7976713,134.647372 L45.4846477,135.084539 C46.2965289,135.521706 46.8586005,136.208682 47.1084101,136.895659 C47.3582197,137.832445 47.2333149,138.644326 46.8586005,139.643564 Z" id="Shape"></path>
                    <polygon id="Path" points="52.8540308 148.261995 59.9111519 150.19802 60.5981283 147.699924 56.47627 146.638233 56.9758892 144.452399 60.8479379 145.389185 61.5349143 142.891089 57.6628655 141.954303 58.1000323 140.018279 62.3467955 141.142422 62.9088671 138.644326 55.9141984 136.895659"></polygon>
                    <path d="M70.3407026,139.643564 L66.9058206,139.51866 L66.2188442,151.322163 L69.6537262,151.447068 C69.9035358,151.447068 70.2157978,151.447068 70.4656074,151.447068 C74.4625609,151.447068 76.5234901,149.511043 76.7732997,145.826352 C76.8982045,144.015232 76.5234901,142.516375 75.5242517,141.454684 C74.4625609,140.455446 72.7763461,139.768469 70.3407026,139.643564 Z M70.2157978,148.948972 L69.4039166,148.948972 L69.8410834,142.204113 L70.6529646,142.204113 C72.2767269,142.329018 73.8380369,143.578065 73.6506797,145.763899 C73.4633225,148.012186 71.8395601,148.948972 70.2157978,148.948972 Z" id="Shape"></path>
                    <path d="M87.2028503,138.644326 L85.1419211,151.134806 L88.3269935,150.447829 L88.7641603,147.824829 L92.636209,147.012947 L94.1350666,149.323686 L97.4450438,148.63671 L90.4503751,138.082254 L87.2028503,138.644326 Z M89.1388747,145.26428 L89.5760415,142.079208 L91.1998039,144.702209 L89.1388747,145.26428 Z" id="Shape"></path>
                    <polygon id="Path" points="98.5067345 144.827113 99.5684253 147.699924 102.316331 146.638233 101.379545 143.890327"></polygon>
                    <path d="M104.252355,132.898705 L101.25464,134.522468 L106.875356,144.952018 L109.873071,143.328256 C113.870025,141.142422 114.806811,138.394516 113.058144,134.959634 C111.247024,131.399848 108.249309,130.712871 104.252355,132.898705 Z M109.06119,140.83016 L108.374214,141.267327 L105.189141,135.334349 L105.876118,134.897182 C106.313284,134.647372 106.812904,134.460015 107.374975,134.460015 C108.624023,134.460015 109.560809,135.146992 110.247786,136.271135 C111.434381,138.269612 110.435143,140.018279 109.06119,140.83016 Z" id="Shape"></path>
                    <polygon id="Path" points="115.368882 136.583397 117.055097 139.081493 119.490741 137.270373 117.866978 134.83473"></polygon>
                    <polygon id="Path" points="120.052812 121.345011 119.490741 126.028941 122.113741 126.403656 122.426003 124.530084 128.046719 130.1508 130.232553 128.089871 121.863932 119.533892"></polygon>
                    <path d="M136.165531,115.162224 C135.228745,114.475248 134.104602,114.350343 132.855554,114.725057 C132.855554,113.600914 132.293482,112.539223 131.481601,111.977152 C129.982744,110.853008 128.046719,111.539985 126.547862,113.476009 C125.173909,115.412034 125.298814,117.348058 126.985029,118.534653 C127.79691,119.096725 128.921053,119.22163 129.857839,118.97182 C129.732934,120.220868 130.107648,121.157654 131.106887,121.844631 C131.793863,122.406702 132.48084,122.531607 133.167816,122.531607 C134.416864,122.531607 135.478555,121.844631 136.602698,120.470678 C137.414579,119.346535 137.851746,118.284844 137.726841,117.160701 C137.539484,116.536177 136.977412,115.8492 136.165531,115.162224 Z M130.482363,115.974105 C130.045196,116.223915 129.670482,116.536177 129.233315,116.536177 C129.10841,116.536177 128.796148,116.536177 128.671243,116.411272 C128.109172,115.974105 128.421434,115.287129 128.671243,114.912414 C128.796148,114.662605 129.10841,114.475248 129.35822,114.475248 C129.483124,114.475248 129.795386,114.600152 130.045196,114.725057 C130.482363,115.037319 130.66972,115.599391 130.482363,115.974105 Z M134.604221,119.284082 C134.167054,119.846154 133.480078,119.971059 132.980459,119.533892 C132.543292,119.096725 132.293482,118.722011 132.418387,117.910129 C133.230268,117.348058 133.917245,117.223153 134.479316,117.66032 C134.729126,117.785225 134.916483,118.097487 134.916483,118.347296 C134.916483,118.597106 134.791578,119.034273 134.604221,119.284082 Z" id="Shape"></path>
                    <path d="M141.473985,103.60853 C139.413056,102.671744 137.477032,103.171363 136.540246,105.107388 C136.290436,105.669459 136.103079,106.231531 136.290436,106.73115 C135.60346,106.169078 134.916483,105.232292 135.478555,103.983244 C135.728364,103.421173 136.165531,103.046458 136.602698,102.609292 L137.039865,102.359482 L134.854031,100.860625 L134.604221,101.110434 C134.04215,101.672506 133.480078,102.359482 133.105364,103.171363 C132.543292,104.420411 132.418387,105.482102 132.855554,106.606245 C133.54253,108.54227 135.478555,109.916222 136.977412,110.603199 C138.351365,111.290175 139.475508,111.539985 140.412294,111.539985 C141.911152,111.539985 143.035295,110.853008 143.847176,109.354151 C144.783962,106.918507 143.972081,104.857578 141.473985,103.60853 Z M141.473985,108.04265 C141.34908,108.479817 140.911914,108.604722 140.537199,108.604722 C140.28739,108.604722 139.850223,108.479817 139.600413,108.354912 C139.038342,108.105103 138.663627,107.667936 138.47627,107.418126 C138.351365,107.168317 138.47627,106.98096 138.47627,106.73115 C138.601175,106.293983 138.913437,106.169078 139.413056,106.169078 C139.662866,106.169078 140.100032,106.293983 140.537199,106.418888 C141.099271,106.668698 141.34908,106.98096 141.473985,107.355674 C141.661342,107.605484 141.473985,107.855293 141.473985,108.04265 Z" id="Shape"></path>
                    <path d="M145.783201,91.5552171 C143.472462,90.8682407 141.536438,91.9923839 140.849461,94.1782178 C140.849461,94.4280274 140.724556,94.6153846 140.724556,94.7402894 L139.350604,94.3031226 L140.599652,90.1812643 L138.288913,89.4942879 L136.227984,96.3640518 L142.847938,98.424981 L142.847938,97.8629094 C142.847938,97.175933 142.972843,96.6138614 143.097747,95.926885 C143.222652,95.3648134 143.909629,93.9908606 145.158677,94.3031226 C146.532629,94.7402894 146.28282,96.239147 146.095463,96.6138614 C145.845653,97.4257426 145.408486,97.9878142 144.971319,98.5498858 L144.534153,98.9870526 L147.282058,99.9238385 L147.406963,99.6740289 C147.84413,98.8621478 148.218844,97.8629094 148.531106,97.175933 C148.968273,95.8019802 148.968273,94.5529322 148.406201,93.4912414 C147.84413,92.6169078 146.844891,91.9299315 145.783201,91.5552171 Z" id="Path"></path>
                </g>
                <path d="M65.1378522,69.322163 L64.5757807,69.009901 C61.2033511,67.1987814 55.5826352,63.8888043 55.5826352,61.3907083 L55.5826352,48.3381569 L75.0677837,48.3381569 L75.0677837,61.5156131 C75.0677837,63.7014471 69.946687,66.824067 65.6999238,69.009901 L65.1378522,69.322163 Z M57.9558264,56.7692308 L57.9558264,61.3907083 C58.2056359,62.2025895 61.4531607,64.5757807 65.1378522,66.5742574 C68.9474486,64.5757807 72.2574257,62.2650419 72.6945925,61.3907083 L72.6945925,56.7692308 L57.9558264,56.7692308 Z M57.9558264,54.3960396 L72.6945925,54.3960396 L72.6945925,50.7113481 L57.9558264,50.7113481 L57.9558264,54.3960396 Z" id="Shape"></path>
                <path d="M82,164 C36.7844631,164 0,127.215537 0,82 C0,36.7844631 36.7844631,0 82,0 C127.215537,0 164,36.7844631 164,82 C164,127.215537 127.215537,164 82,164 Z M82,2.37319117 C38.0959634,2.37319117 2.37319117,38.0959634 2.37319117,82 C2.37319117,125.904037 38.0959634,161.626809 82,161.626809 C125.904037,161.626809 161.626809,125.904037 161.626809,82 C161.626809,38.0959634 125.904037,2.37319117 82,2.37319117 Z" id="Shape"></path>
                <path d="M82,141.891851 C48.9626809,141.891851 22.1081493,115.037319 22.1081493,82 C22.1081493,48.9626809 48.9626809,22.1081493 82,22.1081493 C115.037319,22.1081493 141.891851,48.9626809 141.891851,82 C141.891851,115.037319 115.037319,141.891851 82,141.891851 Z M82,24.4813404 C50.2741813,24.4813404 24.4813404,50.2741813 24.4813404,82 C24.4813404,113.725819 50.2741813,139.51866 82,139.51866 C113.725819,139.51866 139.51866,113.725819 139.51866,82 C139.51866,50.2741813 113.725819,24.4813404 82,24.4813404 Z" id="Shape"></path>
                <path d="M98.737243,69.322163 L98.1751714,69.009901 C94.7402894,67.1987814 88.9946687,63.8888043 88.9946687,61.3907083 L88.9946687,48.3381569 L108.479817,48.3381569 L108.479817,61.5156131 C108.479817,63.2642803 105.357197,65.7623762 99.2993145,69.009901 L98.737243,69.322163 Z M91.3678599,61.3282559 C91.6801219,62.2025895 94.990099,64.5757807 98.737243,66.5742574 C102.421935,64.5757807 105.669459,62.2650419 106.106626,61.3907083 L106.106626,59.7669459 L98.737243,54.9581112 L91.3678599,59.7669459 L91.3678599,61.3282559 L91.3678599,61.3282559 Z M98.737243,52.0853008 L106.106626,56.8941356 L106.106626,50.7113481 L91.4303123,50.7113481 L91.4303123,56.8941356 L98.737243,52.0853008 Z" id="Shape"></path>
                <polygon id="Rectangle" transform="translate(73.6338, 89.9972) rotate(-2.6077) translate(-73.6338, -89.9972)" points="69.5118376 88.6232263 77.7558474 88.6232263 77.7558474 91.3712296 69.5118376 91.3712296"></polygon>
                <polygon id="Rectangle" transform="translate(73.6331, 97.5532) rotate(-2.5952) translate(-73.6331, -97.5532)" points="69.5111662 96.1792272 77.7550941 96.1792272 77.7550941 98.9272031 69.5111662 98.9272031"></polygon>
                <polygon id="Rectangle" transform="translate(73.6331, 105.1101) rotate(-2.5952) translate(-73.6331, -105.1101)" points="69.5111572 103.736155 77.7550851 103.736155 77.7550851 106.484131 69.5111572 106.484131"></polygon>
                <rect id="Rectangle" x="60.2041127" y="90.0563595" width="4.49657273" height="3.80959634"></rect>
                <rect id="Rectangle" x="60.2041127" y="100.923077" width="4.49657273" height="3.80959634"></rect>
                <path d="M80.8758568,112.851485 C80.8134044,112.789033 79.2520944,111.66489 78.2528561,111.789794 C73.3191165,112.601676 65.3252094,112.414318 64.950495,112.414318 L63.7638995,112.414318 L63.7638995,82.8118812 L65.0753998,82.936786 C65.1378522,82.936786 71.3830922,83.6237624 77.0038081,82.624524 C78.9398324,82.1249048 80.9383092,82.624524 81.9375476,82.9992384 C82.936786,82.6869764 85.12262,82.1249048 87.1210967,82.624524 C92.7418126,83.6237624 98.9870526,82.936786 99.049505,82.936786 L100.361005,82.8118812 L100.361005,112.414318 L99.1744097,112.414318 C98.7996954,112.414318 90.6184311,112.601676 85.6846915,111.789794 C84.6230008,111.602437 83.3115004,112.601676 82.936786,112.851485 L81.9375476,113.538462 L80.8758568,112.851485 Z M78.7524752,109.354151 C80.126428,109.291698 81.1256664,109.978675 81.8750952,110.478294 C82.7494288,109.916222 84.498096,109.104341 86.1843107,109.416603 C89.8065499,110.041127 95.5521706,110.041127 98.0502666,110.041127 L98.0502666,85.4348819 C95.8019802,85.6222391 91.1805027,85.8095963 86.7463823,84.9977152 L86.6214775,84.9977152 C84.810358,84.498096 82.4996192,85.3099772 82.4996192,85.3099772 L81.9375476,85.4348819 L81.8126428,85.4348819 C81.8126428,85.4348819 79.5643564,84.498096 77.7532369,84.9977152 L77.6283321,84.9977152 C73.1942117,85.8095963 68.5727342,85.6222391 66.3244478,85.4348819 L66.3244478,110.041127 C68.7600914,110.041127 74.5057121,110.041127 78.1904037,109.416603 C78.5026657,109.354151 78.5026657,109.354151 78.7524752,109.354151 Z" id="Shape"></path>
                <polygon id="Rectangle" transform="translate(90.5214, 97.5486) rotate(-87.3995) translate(-90.5214, -97.5486)" points="89.1474077 93.4266101 91.8953952 93.4266101 91.8953952 101.670573 89.1474077 101.670573"></polygon>
                <polygon id="Rectangle" transform="translate(90.5187, 105.1018) rotate(-87.3995) translate(-90.5187, -105.1018)" points="89.1446598 100.979859 91.8926473 100.979859 91.8926473 109.223821 89.1446598 109.223821"></polygon>
                <rect id="Rectangle" x="99.5491241" y="90.0563595" width="4.37166794" height="3.80959634"></rect>
                <rect id="Rectangle" x="99.5491241" y="100.923077" width="4.37166794" height="3.80959634"></rect>
                <polygon id="Rectangle" transform="translate(90.5189, 90.114) rotate(-87.831) translate(-90.5189, -90.114)" points="89.1448762 85.9921195 91.892827 85.9921195 91.892827 94.2359718 89.1448762 94.2359718"></polygon>
            </g>
            <path d="M81.8750952,136.645849 L81.375476,136.458492 C81.0007616,136.271135 72.0700685,132.274181 62.9520183,125.21706 C50.7113481,115.724296 44.0913938,105.357197 43.9040366,95.1150038 C44.3412034,73.2566641 43.966489,44.1538462 43.966489,43.8415842 L43.966489,42.6549886 L120.158416,42.6549886 L120.158416,43.8415842 C120.158416,44.1538462 120.095963,73.6313785 120.095963,95.1150038 C120.095963,105.357197 113.538462,115.724296 101.110434,125.21706 C91.8674791,132.274181 82.7494288,136.333587 82.3747144,136.458492 L81.8750952,136.645849 Z M83.0616908,74.7555217 L83.0616908,133.398324 C90.1812643,129.90099 117.597867,115.099772 117.597867,94.990099 C117.597867,88.6199543 117.597867,81.5003808 117.597867,74.6930693 L83.0616908,74.7555217 L83.0616908,74.7555217 Z M46.5270373,74.7555217 C46.5270373,81.5628332 46.4645849,88.6199543 46.3396801,95.0525514 C46.5894897,106.918507 56.332064,116.973343 64.4508759,123.218583 C71.0708302,128.33968 77.6907845,131.899467 80.6884996,133.398324 L80.6884996,74.7555217 C80.6884996,74.7555217 46.5270373,74.7555217 46.5270373,74.7555217 Z M46.5270373,72.3823305 L117.66032,72.3823305 C117.66032,59.8293983 117.722772,48.5879665 117.722772,44.9657273 L46.3396801,44.9657273 C46.4021325,48.5879665 46.5270373,59.7669459 46.5270373,72.3823305 Z" id="Shape"></path>
        </g>
    </g>
</svg>