<?xml version="1.0" encoding="UTF-8"?>
<svg width="64px" height="64px" viewBox="0 0 64 64" version="1.1" xmlns="http://www.w3.org/2000/svg" xmlns:xlink="http://www.w3.org/1999/xlink">
    <title>cornell_seal_simple_black</title>
    <g id="Page-1" stroke="none" stroke-width="1" fill="none" fill-rule="evenodd">
        <g id="cornell_seal_simple_black" fill="#000000" fill-rule="nonzero">
            <path d="M24.4832215,49.0201342 C28.1342282,51.8657718 31.7315436,53.4228188 31.8926174,53.4765101 L32.1610738,53.5838926 L32.4295302,53.4765101 C32.590604,53.4228188 36.1342282,51.8657718 39.7852349,49.0201342 C44.6711409,45.2080537 47.2483221,40.8590604 47.2483221,36.4026846 L47.2483221,16.2147651 L16.966443,16.2147651 L16.966443,36.0805369 C16.966443,40.6442953 19.5436242,45.1543624 24.4832215,49.0201342 Z M31.409396,42.7919463 C31.2483221,42.738255 31.0872483,42.6845638 30.8724832,42.6845638 C30.8724832,42.6845638 30.8724832,42.6845638 30.8187919,42.6845638 C30.0671141,42.6845638 29.5302013,42.738255 28.9395973,42.7919463 C28.3489933,42.8456376 27.7583893,42.8993289 26.8993289,42.8993289 C26.5234899,42.8993289 26.147651,42.8993289 25.8791946,42.8993289 L25.8791946,33.4496644 C25.9328859,33.4496644 25.9865772,33.4496644 25.9865772,33.4496644 C26.3624161,33.4496644 26.7919463,33.4496644 27.3825503,33.4496644 C27.8657718,33.4496644 28.4026846,33.3959732 28.9932886,33.3422819 C29.3154362,33.2885906 29.6912752,33.2885906 30.0671141,33.2348993 C30.7114094,33.1812081 31.2483221,33.2885906 31.2483221,33.2885906 C31.3020134,33.2885906 31.3557047,33.3422819 31.409396,33.3422819 C31.409396,33.2885906 31.409396,42.7919463 31.409396,42.7919463 Z M45.7986577,36.4026846 C45.7986577,44.6711409 35.6510067,50.2550336 32.6442953,51.7583893 L32.6442953,44.2416107 C32.6979866,44.1879195 32.7516779,44.1342282 32.8053691,44.0805369 C32.966443,43.9194631 33.0738255,43.8120805 33.3422819,43.8120805 C34.0402685,43.8120805 34.5771812,43.8657718 35.1677852,43.9194631 C35.7583893,43.9731544 36.3489933,44.0268456 37.261745,44.0268456 C38.1744966,44.0268456 38.8724832,44.0268456 38.8724832,44.0268456 L39.3557047,44.0268456 L39.3557047,41.2348993 L40.5369128,41.2348993 L40.5369128,39.7315436 L39.3557047,39.7315436 L39.3557047,36.9932886 L40.5369128,36.9932886 L40.5369128,35.4899329 L39.3557047,35.4899329 L39.3557047,32.4295302 L38.8187919,32.4295302 C38.6040268,32.4295302 38.3892617,32.4295302 38.1208054,32.4295302 C37.7449664,32.4295302 37.3154362,32.4295302 36.7785235,32.4295302 C36.3489933,32.4295302 35.8657718,32.3758389 35.2751678,32.3221477 C34.9530201,32.2684564 34.5771812,32.2684564 34.2013423,32.2147651 C33.3959732,32.1073826 32.6979866,32.2684564 32.6442953,32.2684564 C32.6442953,32.2684564 32.6442953,32.2684564 32.590604,32.2684564 L32.590604,29.3154362 L45.7449664,29.3154362 L45.7986577,36.4026846 Z M32.6442953,42.8456376 L32.6442953,33.3422819 C32.6979866,33.2885906 32.8053691,33.2885906 32.9127517,33.2348993 C32.9127517,33.2348993 33.5033557,33.1275168 34.147651,33.1812081 C34.5234899,33.2348993 34.8993289,33.2348993 35.2214765,33.2885906 C35.8120805,33.3422819 36.3489933,33.3959732 36.8322148,33.3959732 C37.3154362,33.3959732 37.6912752,33.3959732 38.0671141,33.3959732 C38.1744966,33.3959732 38.2818792,33.3959732 38.3355705,33.3959732 L38.3355705,42.8993289 C38.0671141,42.8993289 37.6912752,42.8993289 37.3154362,42.8993289 C36.4563758,42.8993289 35.8657718,42.8456376 35.2751678,42.7919463 C34.6845638,42.738255 34.147651,42.6845638 33.3959732,42.6845638 C33.0738255,42.738255 32.8590604,42.7919463 32.6442953,42.8456376 Z M18.4161074,17.6644295 L45.7986577,17.6644295 L45.7986577,27.9194631 L18.4161074,27.9194631 L18.4161074,17.6644295 Z M18.4161074,29.3154362 L31.4630872,29.3154362 L31.4630872,32.1610738 C31.2483221,32.1073826 30.6577181,32.0536913 30.0134228,32.1073826 C29.6375839,32.1610738 29.261745,32.1610738 28.9395973,32.2147651 C28.3489933,32.2684564 27.8657718,32.3221477 27.4362416,32.3221477 C26.8993289,32.3221477 26.4697987,32.3221477 26.0939597,32.3221477 C25.8255034,32.3221477 25.6107383,32.3221477 25.3959732,32.3221477 L24.8590604,32.3221477 L24.8590604,35.0604027 L23.5704698,35.0604027 L23.5704698,36.5637584 L24.8590604,36.5637584 L24.8590604,39.3020134 L23.5704698,39.3020134 L23.5704698,40.8053691 L24.8590604,40.8053691 L24.8590604,43.8657718 L25.3422819,43.8657718 C25.3959732,43.8657718 26.0939597,43.9194631 26.9530201,43.8657718 C27.8657718,43.8657718 28.5100671,43.8120805 29.0469799,43.7583893 C29.6375839,43.704698 30.1208054,43.6510067 30.8187919,43.6510067 C31.0872483,43.6510067 31.1946309,43.7583893 31.3020134,43.9194631 C31.3020134,43.9194631 31.3557047,43.9731544 31.3557047,43.9731544 L31.3557047,51.5436242 C28.295302,50.147651 18.4161074,44.6174497 18.4161074,36.0805369 L18.4161074,29.3154362 Z" id="Shape"></path>
            <path d="M29.852349,18.6845638 L22.1744966,18.6845638 L22.1744966,19.2214765 C22.1744966,20.885906 22.1744966,23.7315436 22.1744966,23.8389262 C22.2281879,24.4295302 22.6040268,24.966443 23.3557047,25.4496644 C24.2684564,26.0939597 25.6644295,26.8993289 25.7181208,26.8993289 L25.9865772,27.0604027 L26.2550336,26.8993289 C26.3087248,26.8456376 27.8120805,26.0402685 28.7248322,25.4496644 C29.7986577,24.7516779 29.852349,24.0536913 29.852349,23.8389262 C29.852349,23.7315436 29.852349,21.261745 29.852349,19.2214765 L29.852349,18.6845638 L29.852349,18.6845638 Z M23.2483221,19.7583893 L28.7248322,19.7583893 C28.7248322,20.1879195 28.7248322,20.6711409 28.7248322,21.1543624 L23.2483221,21.1543624 C23.2483221,20.6711409 23.2483221,20.1879195 23.2483221,19.7583893 Z M28.7785235,23.7852349 C28.7785235,24.0536913 28.4026846,24.3221477 28.1342282,24.5369128 C27.4899329,24.966443 26.4697987,25.557047 25.9865772,25.8255034 C25.557047,25.557047 24.590604,25.0201342 23.9463087,24.5369128 C23.5167785,24.2684564 23.2483221,23.9463087 23.2483221,23.7315436 C23.2483221,23.6778523 23.2483221,23.033557 23.2483221,22.1744966 L28.7248322,22.1744966 C28.7785235,23.033557 28.7785235,23.6778523 28.7785235,23.7852349 Z" id="Shape"></path>
            <path d="M42.8456376,18.4697987 L35.0604027,18.4697987 L35.0604027,19.0067114 C35.0604027,21.1006711 35.0604027,23.6241611 35.0604027,23.7852349 C35.114094,24.3758389 35.4899329,24.9127517 36.2416107,25.3959732 C37.2080537,26.0402685 38.6040268,26.8456376 38.6577181,26.8993289 L38.9261745,27.0604027 L39.1946309,26.8993289 C39.2483221,26.8456376 40.8053691,26.0402685 41.7181208,25.3959732 C42.8456376,24.6442953 42.8456376,24 42.8456376,23.7852349 C42.8456376,23.6778523 42.8456376,21.1543624 42.8456376,19.0604027 L42.8456376,18.4697987 Z M41.7718121,23.6778523 C41.7718121,23.9463087 41.3959732,24.2684564 41.1275168,24.4295302 C40.4295302,24.8590604 39.409396,25.4496644 38.9261745,25.7181208 C38.442953,25.4496644 37.5302013,24.8590604 36.8322148,24.4295302 C36.6174497,24.2684564 36.1342282,23.9463087 36.1342282,23.6241611 C36.1342282,23.5704698 36.1342282,23.5167785 36.1342282,23.3557047 L38.8187919,21.4228188 L41.7718121,23.409396 C41.7718121,23.5704698 41.7718121,23.6778523 41.7718121,23.6778523 Z M38.8187919,20.0805369 L36.1342282,22.0134228 C36.1342282,21.261745 36.1342282,20.295302 36.1342282,19.4899329 L41.8255034,19.4899329 C41.8255034,20.3489933 41.8255034,21.261745 41.8255034,22.0671141 L38.8187919,20.0805369 Z" id="Shape"></path>
            <path d="M34.0402685,35.4899329 L34.5771812,35.5436242 C34.8993289,35.5973154 35.2214765,35.5973154 35.4899329,35.5973154 L37.0469799,35.6510067 L37.0469799,34.5771812 L35.4899329,34.5234899 C35.2751678,34.5234899 35.0067114,34.4697987 34.6845638,34.4697987 L34.147651,34.4161074 C33.9865772,34.4161074 33.8791946,34.4161074 33.7718121,34.4161074 L33.8255034,35.4899329 C33.8791946,35.4362416 33.9865772,35.4362416 34.0402685,35.4899329 Z" id="Path"></path>
            <path d="M35.4899329,37.4765101 C35.2751678,37.4765101 35.0067114,37.4228188 34.6845638,37.4228188 C34.5234899,37.4228188 34.3087248,37.3691275 34.147651,37.3691275 C33.9865772,37.3691275 33.8791946,37.3691275 33.7718121,37.3691275 L33.7718121,38.442953 C33.8255034,38.442953 33.9328859,38.442953 34.0402685,38.442953 C34.2550336,38.442953 34.4161074,38.4966443 34.5771812,38.4966443 C34.8993289,38.5503356 35.1677852,38.5503356 35.4362416,38.5503356 C35.7583893,38.5503356 36.2416107,38.5503356 36.6174497,38.5503356 L37.0469799,38.5503356 L37.0469799,37.4765101 L36.6174497,37.4765101 C36.295302,37.5302013 35.8120805,37.4765101 35.4899329,37.4765101 Z" id="Path"></path>
            <path d="M35.4899329,40.4832215 C35.2751678,40.4832215 35.0067114,40.4295302 34.6845638,40.4295302 C34.5234899,40.4295302 34.3087248,40.3758389 34.147651,40.3758389 C33.9865772,40.3758389 33.8791946,40.3758389 33.7718121,40.3758389 L33.8255034,41.4496644 C33.8791946,41.4496644 33.9865772,41.4496644 34.0939597,41.4496644 C34.3087248,41.4496644 34.4697987,41.5033557 34.6308725,41.5033557 C34.9530201,41.557047 35.2751678,41.557047 35.4899329,41.557047 L35.9194631,41.557047 C36.3489933,41.557047 36.885906,41.557047 37.0469799,41.6107383 L37.0469799,40.5369128 C36.885906,40.5369128 36.3489933,40.5369128 35.9194631,40.4832215 L35.4899329,40.4832215 Z" id="Path"></path>
            <path d="M28.7248322,35.5973154 C28.9932886,35.5973154 29.261745,35.5436242 29.6375839,35.5436242 C29.7986577,35.5436242 29.9597315,35.4899329 30.1744966,35.4899329 C30.2818792,35.4899329 30.3355705,35.4899329 30.442953,35.4899329 L30.442953,34.4161074 C30.3355705,34.4161074 30.2281879,34.4161074 30.0671141,34.4161074 C29.852349,34.4161074 29.6912752,34.4697987 29.5302013,34.4697987 C29.2080537,34.5234899 28.9395973,34.5234899 28.7248322,34.5234899 L27.1677852,34.5771812 L27.1677852,35.6510067 L28.7248322,35.5973154 Z" id="Path"></path>
            <path d="M29.5302013,37.4228188 C29.2080537,37.4765101 28.9395973,37.4765101 28.7248322,37.4765101 L27.1677852,37.5302013 L27.1677852,38.6040268 L28.7248322,38.5503356 C28.9932886,38.5503356 29.261745,38.4966443 29.6375839,38.4966443 L30.1208054,38.442953 C30.2281879,38.442953 30.2818792,38.442953 30.3355705,38.442953 L30.3892617,37.3691275 C30.2818792,37.3691275 30.1744966,37.3691275 30.0134228,37.3691275 L29.5302013,37.4228188 Z" id="Path"></path>
            <path d="M29.5302013,40.3758389 C29.2080537,40.4295302 28.9395973,40.4295302 28.6711409,40.4295302 C28.1879195,40.4295302 27.3825503,40.4832215 27.1677852,40.4832215 L27.1677852,41.557047 C27.3825503,41.557047 28.1879195,41.5033557 28.7248322,41.5033557 C28.9932886,41.5033557 29.261745,41.4496644 29.6375839,41.4496644 L30.1744966,41.3959732 C30.2281879,41.3959732 30.3355705,41.3959732 30.3892617,41.3959732 L30.3892617,40.3221477 C30.2818792,40.3221477 30.1744966,40.3221477 30.0134228,40.3221477 L29.5302013,40.3758389 Z" id="Path"></path>
            <path d="M4.83221477,32.1610738 C6.17449664,32.1610738 6.97986577,31.3020134 7.08724832,29.7986577 C7.08724832,29.5302013 7.08724832,29.1543624 7.03355705,28.7785235 L7.03355705,28.6711409 L5.90604027,28.6711409 L6.01342282,28.885906 C6.06711409,29.0469799 6.12080537,29.4228188 6.12080537,29.7449664 C6.06711409,30.4966443 5.47651007,30.9798658 4.67114094,30.9261745 C3.81208054,30.8724832 3.32885906,30.3355705 3.32885906,29.5838926 C3.32885906,29.3154362 3.38255034,29.0469799 3.59731544,28.7785235 L3.75838926,28.5637584 L2.68456376,28.4026846 L2.63087248,28.5100671 C2.46979866,28.8322148 2.41610738,29.2080537 2.36241611,29.5302013 C2.25503356,31.0872483 3.11409396,32.1073826 4.67114094,32.1610738 C4.72483221,32.1610738 4.77852349,32.1610738 4.83221477,32.1610738 Z" id="Path"></path>
            <path d="M5.04697987,26.8993289 C5.36912752,27.0067114 5.63758389,27.0067114 5.90604027,27.0067114 C6.9261745,27.0067114 7.67785235,26.4161074 8,25.3959732 C8.16107383,24.7516779 8.10738255,24.2147651 7.83892617,23.6778523 C7.51677852,23.1409396 6.97986577,22.7651007 6.28187919,22.5503356 C6.01342282,22.442953 5.69127517,22.442953 5.47651007,22.442953 C4.45637584,22.442953 3.70469799,23.033557 3.38255034,24.0536913 C2.95302013,25.3959732 3.59731544,26.4697987 5.04697987,26.8993289 Z M4.29530201,24.3758389 C4.45637584,23.7852349 4.93959732,23.6778523 5.31543624,23.6778523 C5.47651007,23.6778523 5.69127517,23.7315436 5.90604027,23.7852349 C6.38926174,23.9463087 6.76510067,24.1610738 6.9261745,24.4832215 C7.03355705,24.6979866 7.08724832,24.9127517 6.97986577,25.1812081 C6.81879195,25.7718121 6.33557047,25.8791946 5.95973154,25.8791946 C5.74496644,25.8791946 5.58389262,25.8255034 5.36912752,25.7718121 C4.72483221,25.557047 4.08053691,25.0738255 4.29530201,24.3758389 Z" id="Shape"></path>
            <path d="M9.66442953,20.885906 L8.10738255,20.0268456 L8.16107383,19.9194631 C8.32214765,19.6510067 8.4295302,19.6510067 8.6442953,19.704698 L10.2013423,19.9194631 L10.7919463,18.7919463 L8.75167785,18.5771812 C8.59060403,18.5771812 8.48322148,18.5771812 8.37583893,18.5771812 C8.37583893,18.147651 8.16107383,17.7181208 7.73154362,17.5033557 C7.51677852,17.3959732 7.30201342,17.3422819 7.08724832,17.3422819 C6.33557047,17.3422819 5.95973154,18.0939597 5.58389262,18.7919463 L5.04697987,19.8120805 L9.12751678,22.0134228 L9.66442953,20.885906 Z M7.24832215,19.4362416 L7.19463087,19.5436242 L6.44295302,19.1677852 L6.4966443,19.0604027 C6.65771812,18.738255 6.87248322,18.4161074 7.19463087,18.5771812 C7.30201342,18.6308725 7.3557047,18.6845638 7.40939597,18.7919463 C7.46308725,19.0067114 7.3557047,19.2751678 7.24832215,19.4362416 Z" id="Shape"></path>
            <polygon id="Path" points="12.1879195 16.8053691 10.0939597 15.0872483 13.1006711 15.7852349 13.9060403 14.7651007 10.3624161 11.8120805 9.61073826 12.6711409 11.7583893 14.442953 8.75167785 13.7449664 7.89261745 14.7651007 11.4899329 17.7181208"></polygon>
            <polygon id="Path" points="17.3959732 11.8120805 16.7516779 11.0604027 15.4630872 12.0805369 14.8724832 11.3825503 16.0536913 10.4161074 15.409396 9.66442953 14.2281879 10.6308725 13.7986577 10.0402685 15.0872483 9.02013423 14.442953 8.2147651 12.2416107 9.98657718 15.1409396 13.5838926"></polygon>
            <polygon id="Path" points="21.2080537 9.5033557 20.7248322 8.6442953 19.2751678 9.44966443 17.5033557 6.28187919 16.4832215 6.87248322 18.738255 10.8993289"></polygon>
            <polygon id="Path" points="25.1275168 8 24.7516779 7.08724832 23.2483221 7.62416107 22.0134228 4.24161074 20.885906 4.61744966 22.442953 8.96644295"></polygon>
            <path d="M29.7986577,7.24832215 C29.9060403,7.24832215 29.9597315,7.24832215 30.0671141,7.24832215 C30.7114094,7.19463087 31.1946309,6.97986577 31.4630872,6.65771812 C31.7315436,6.33557047 31.8389262,5.85234899 31.7852349,5.31543624 L31.5704698,2.41610738 L30.3892617,2.46979866 L30.6040268,5.10067114 C30.6577181,6.01342282 30.2818792,6.17449664 29.9597315,6.22818792 C29.9060403,6.22818792 29.9060403,6.22818792 29.852349,6.22818792 C29.5838926,6.22818792 29.2080537,6.12080537 29.1006711,5.20805369 L28.885906,2.57718121 L27.704698,2.68456376 L27.9194631,5.58389262 C28.1342282,6.65771812 28.7248322,7.24832215 29.7986577,7.24832215 Z" id="Path"></path>
            <polygon id="Path" points="35.114094 4.51006711 36.0805369 7.3557047 37.4228188 7.5704698 38.0134228 2.95302013 36.885906 2.79194631 36.5100671 5.53020134 35.5436242 2.63087248 34.2550336 2.46979866 33.6107383 7.03355705 34.738255 7.19463087"></polygon>
            <polygon id="Path" points="41.5033557 3.97315436 40.3758389 3.59731544 38.9798658 8 40.1073826 8.37583893"></polygon>
            <polygon id="Path" points="47.3020134 6.55033557 46.2818792 6.01342282 44.0268456 8.32214765 44.5100671 5.15436242 43.3825503 4.56375839 42.6845638 9.44966443 43.8657718 9.98657718"></polygon>
            <polygon id="Path" points="48.4832215 13.2080537 49.0738255 12.4026846 47.7852349 11.3825503 48.3221477 10.6845638 49.5033557 11.5973154 50.147651 10.7919463 48.966443 9.87919463 49.3959732 9.2885906 50.6845638 10.3087248 51.3288591 9.5033557 49.0738255 7.7852349 46.2281879 11.4362416"></polygon>
            <path d="M50.4161074,15.1409396 L51.7583893,13.9597315 L51.8120805,14.0671141 C51.9731544,14.2818792 51.9731544,14.3355705 51.8657718,14.6040268 L51.114094,16 L51.9731544,16.966443 L52.885906,15.1409396 C52.9395973,15.0872483 52.9932886,14.9261745 52.9932886,14.7651007 C53.3691275,14.9261745 53.852349,14.8724832 54.2281879,14.5503356 C55.2483221,13.6912752 54.442953,12.7785235 53.852349,12.0805369 L53.1006711,11.2214765 L49.6107383,14.2818792 L50.4161074,15.1409396 Z M53.1543624,12.7248322 L53.2080537,12.8322148 C53.3691275,13.0469799 53.5302013,13.261745 53.5302013,13.4228188 C53.5302013,13.5302013 53.4765101,13.5838926 53.3691275,13.6375839 C53.3154362,13.7449664 53.2080537,13.7449664 53.1543624,13.7449664 C52.9395973,13.7449664 52.7248322,13.5302013 52.6174497,13.3691275 L52.5637584,13.261745 L53.1543624,12.7248322 Z" id="Shape"></path>
            <path d="M54.7114094,18.8456376 C54.4966443,19.0067114 54.1744966,18.738255 54.0671141,18.5234899 C53.9060403,18.2550336 53.852349,17.9865772 53.852349,17.6107383 L53.852349,17.3422819 L52.7785235,17.8255034 L52.8322148,18.0402685 C52.9395973,18.4161074 52.9932886,18.6308725 53.2080537,19.0067114 C53.5838926,19.6510067 54.0671141,19.9731544 54.6040268,19.9731544 C54.8724832,19.9731544 55.0872483,19.9194631 55.3557047,19.7583893 C56.1610738,19.2751678 56.0536913,18.5234899 55.9463087,17.9328859 C55.8926174,17.557047 55.8389262,17.2885906 56,17.1812081 C56.1073826,17.1275168 56.1610738,17.1275168 56.2147651,17.1275168 C56.4295302,17.1275168 56.590604,17.3422819 56.6442953,17.3959732 C56.8053691,17.6107383 56.8590604,17.8791946 56.9127517,18.147651 L56.966443,18.3624161 L57.9328859,17.9328859 L57.9328859,17.8255034 C57.8791946,17.5033557 57.7181208,17.1812081 57.5033557,16.8053691 C57.0201342,15.9463087 56.1610738,15.6778523 55.409396,16.1610738 C54.6040268,16.6442953 54.7114094,17.3959732 54.8187919,17.9328859 C54.8724832,18.4697987 54.9261745,18.738255 54.7114094,18.8456376 Z" id="Path"></path>
            <polygon id="Rectangle" transform="translate(57.182609, 21.638964) rotate(-22.191894) translate(-57.182609, -21.638964) " points="54.8739445 21.0483751 59.4912743 21.0483751 59.4912743 22.2295525 54.8739445 22.2295525"></polygon>
            <polygon id="Path" points="59.5436242 24.590604 56.0536913 25.4496644 56.3221477 26.5771812 59.8657718 25.7181208 60.1342282 26.8993289 61.1006711 26.6845638 60.2416107 23.1409396 59.2751678 23.409396"></polygon>
            <polygon id="Path" points="56.8590604 30.1744966 56.9127517 31.3557047 58.738255 31.2483221 61.6375839 32.7516779 61.5838926 31.4630872 59.8657718 30.6577181 61.4765101 29.6375839 61.3691275 28.2416107 58.6845638 30.1208054"></polygon>
            <polygon id="Path" points="5.74496644 40.8053691 6.7114094 40.5369128 6.33557047 39.1409396 7.03355705 38.9261745 7.46308725 40.4295302 8.4295302 40.1073826 7.67785235 37.5302013 3.22147651 38.8187919 3.54362416 39.9463087 5.36912752 39.409396"></polygon>
            <path d="M9.87919463,44.6711409 C10.0402685,44.1342282 9.98657718,43.5436242 9.71812081,42.9530201 C9.2885906,42.0939597 8.6442953,41.6644295 7.7852349,41.6644295 C7.40939597,41.6644295 6.97986577,41.7718121 6.55033557,41.9865772 C5.85234899,42.3087248 5.42281879,42.7919463 5.20805369,43.3825503 C5.04697987,43.9194631 5.10067114,44.5100671 5.36912752,45.1006711 C5.79865772,45.9060403 6.44295302,46.3892617 7.30201342,46.3892617 C7.67785235,46.3892617 8.10738255,46.2818792 8.53691275,46.0671141 C9.23489933,45.6912752 9.71812081,45.261745 9.87919463,44.6711409 Z M8.05369128,44.9395973 C7.7852349,45.1006711 7.46308725,45.1543624 7.19463087,45.1543624 C6.76510067,45.1543624 6.4966443,44.9932886 6.33557047,44.6174497 C6.22818792,44.3489933 6.17449664,44.1342282 6.28187919,43.9194631 C6.38926174,43.5973154 6.7114094,43.2751678 7.1409396,43.0604027 C7.40939597,42.9530201 7.67785235,42.8456376 7.94630872,42.8456376 C8.37583893,42.8456376 8.6442953,43.0067114 8.80536913,43.3825503 C8.91275168,43.6510067 8.96644295,43.8657718 8.8590604,44.0805369 C8.75167785,44.4026846 8.48322148,44.7248322 8.05369128,44.9395973 Z" id="Shape"></path>
            <path d="M13.1006711,48.2684564 L11.0067114,49.9328859 C10.4697987,50.3624161 10.0402685,50.4161074 9.71812081,50.0402685 C9.61073826,49.8791946 9.55704698,49.7181208 9.55704698,49.557047 C9.61073826,49.3422819 9.77181208,49.0738255 10.0939597,48.8053691 L12.1879195,47.1409396 L11.4362416,46.2281879 L9.12751678,48.0536913 C8.6442953,48.4295302 8.37583893,48.8590604 8.37583893,49.3422819 C8.37583893,49.7718121 8.53691275,50.2013423 8.91275168,50.6845638 C9.34228188,51.2751678 9.82550336,51.5436242 10.3624161,51.5436242 C10.738255,51.5436242 11.114094,51.3825503 11.4899329,51.0604027 L13.7986577,49.1812081 L13.1006711,48.2684564 Z" id="Path"></path>
            <polygon id="Path" points="17.0201342 52.0268456 15.3020134 54.1744966 15.9463087 51.1677852 14.9261745 50.3087248 11.9731544 53.9060403 12.885906 54.6577181 14.6040268 52.5100671 13.9597315 55.5167785 14.9798658 56.3758389 17.9328859 52.7785235"></polygon>
            <path d="M20.4563758,54.2281879 L19.2751678,53.6375839 L17.1812081,57.7718121 L18.3624161,58.3624161 C18.9530201,58.6308725 19.4362416,58.7919463 19.9194631,58.7919463 C20.7248322,58.7919463 21.3691275,58.3624161 21.7986577,57.5033557 C22.4966443,56.1073826 22.0134228,55.033557 20.4563758,54.2281879 Z M20.6711409,56.966443 C20.4563758,57.4496644 20.0268456,57.7181208 19.5436242,57.7181208 C19.3288591,57.7181208 19.1677852,57.6644295 18.9530201,57.557047 L18.6845638,57.3959732 L19.8657718,55.033557 L20.1342282,55.1946309 C20.4563758,55.3557047 20.6711409,55.6241611 20.7785235,55.8926174 C20.885906,56.2684564 20.8322148,56.590604 20.6711409,56.966443 Z" id="Shape"></path>
            <polygon id="Path" points="23.033557 60.3489933 25.7718121 61.1006711 26.0402685 60.1342282 24.4295302 59.704698 24.6442953 58.8456376 26.147651 59.2214765 26.4161074 58.2550336 24.9127517 57.8791946 25.0738255 57.1275168 26.738255 57.557047 26.9530201 56.590604 24.2147651 55.8926174"></polygon>
            <path d="M29.852349,56.966443 L28.5100671,56.9127517 L28.2416107,61.5302013 L29.5838926,61.5838926 C29.6912752,61.5838926 29.7986577,61.5838926 29.9060403,61.5838926 C31.4630872,61.5838926 32.2684564,60.8322148 32.3758389,59.3825503 C32.4295302,58.6845638 32.2684564,58.0939597 31.8926174,57.6644295 C31.4630872,57.2885906 30.8187919,57.0201342 29.852349,56.966443 Z M29.7986577,60.6174497 L29.4765101,60.6174497 L29.6375839,57.9865772 L29.9597315,57.9865772 C30.6040268,58.0402685 31.1946309,58.5234899 31.1409396,59.3825503 C31.0872483,60.2416107 30.442953,60.6174497 29.7986577,60.6174497 Z" id="Shape"></path>
            <path d="M36.4563758,56.590604 L35.6510067,61.4765101 L36.885906,61.2080537 L37.0469799,60.1879195 L38.5503356,59.8657718 L39.1409396,60.7785235 L40.4295302,60.5100671 L37.6912752,56.3758389 L36.4563758,56.590604 Z M37.2080537,59.1677852 L37.3691275,57.9328859 L38.0134228,58.9530201 L37.2080537,59.1677852 Z" id="Shape"></path>
            <polygon id="Path" points="40.8590604 59.0067114 41.2885906 60.1342282 42.3624161 59.704698 41.9865772 58.6308725"></polygon>
            <path d="M43.114094,54.3355705 L41.9328859,54.9798658 L44.1342282,59.0604027 L45.3154362,58.4161074 C46.8724832,57.557047 47.2483221,56.4832215 46.5503356,55.1409396 C45.852349,53.7449664 44.6711409,53.4765101 43.114094,54.3355705 Z M44.9932886,57.4496644 L44.7248322,57.6107383 L43.4899329,55.3020134 L43.7583893,55.1409396 C43.9194631,55.033557 44.1342282,54.9798658 44.3489933,54.9798658 C44.8322148,54.9798658 45.2080537,55.2483221 45.4765101,55.6778523 C45.9060403,56.4295302 45.5302013,57.1275168 44.9932886,57.4496644 Z" id="Shape"></path>
            <polygon id="Path" points="47.4630872 55.7852349 48.1073826 56.7516779 49.0738255 56.0536913 48.4295302 55.0872483"></polygon>
            <polygon id="Path" points="49.2885906 49.8255034 49.0738255 51.6510067 50.0939597 51.8120805 50.2013423 51.0604027 52.4026846 53.261745 53.261745 52.4563758 49.9865772 49.1275168"></polygon>
            <path d="M55.5704698,47.409396 C55.1946309,47.1409396 54.7651007,47.0872483 54.2818792,47.2483221 C54.2818792,46.8187919 54.0671141,46.3892617 53.7449664,46.1744966 C53.1543624,45.7449664 52.4026846,46.0134228 51.8120805,46.7651007 C51.2751678,47.5167785 51.3288591,48.2684564 51.9731544,48.7516779 C52.295302,48.966443 52.7248322,49.0201342 53.1006711,48.9127517 C53.0469799,49.3959732 53.2080537,49.7718121 53.5838926,50.0402685 C53.852349,50.2550336 54.1208054,50.3087248 54.3892617,50.3087248 C54.8724832,50.3087248 55.3020134,50.0402685 55.7315436,49.5033557 C56.0536913,49.0738255 56.2147651,48.6442953 56.1610738,48.2147651 C56.1073826,47.9463087 55.8926174,47.6778523 55.5704698,47.409396 Z M53.3691275,47.7315436 C53.2080537,47.8389262 53.0469799,47.9463087 52.885906,47.9463087 C52.8322148,47.9463087 52.7248322,47.9463087 52.6711409,47.8926174 C52.4563758,47.7315436 52.5637584,47.4630872 52.6711409,47.3020134 C52.7248322,47.1946309 52.8322148,47.1409396 52.9395973,47.1409396 C52.9932886,47.1409396 53.1006711,47.1946309 53.2080537,47.2483221 C53.3691275,47.3557047 53.4228188,47.5704698 53.3691275,47.7315436 Z M54.9798658,49.0201342 C54.8187919,49.2348993 54.5503356,49.2885906 54.3355705,49.1275168 C54.1744966,48.966443 54.0671141,48.8053691 54.1208054,48.4832215 C54.442953,48.2684564 54.7114094,48.2147651 54.9261745,48.3758389 C55.033557,48.4295302 55.0872483,48.5369128 55.0872483,48.6442953 C55.0872483,48.7516779 55.033557,48.9127517 54.9798658,49.0201342 Z" id="Shape"></path>
            <path d="M57.6644295,42.8993289 C56.8590604,42.5234899 56.1073826,42.738255 55.7315436,43.4899329 C55.6241611,43.704698 55.5704698,43.9194631 55.6241611,44.1342282 C55.3557047,43.9194631 55.0872483,43.5436242 55.3020134,43.0604027 C55.409396,42.8456376 55.5704698,42.6845638 55.7315436,42.5234899 L55.8926174,42.4161074 L55.033557,41.8255034 L54.9261745,41.9328859 C54.7114094,42.147651 54.4966443,42.4161074 54.3355705,42.738255 C54.1208054,43.2214765 54.0671141,43.6510067 54.2281879,44.0805369 C54.4966443,44.8322148 55.2483221,45.3691275 55.8389262,45.6375839 C56.3758389,45.9060403 56.8053691,46.0134228 57.1812081,46.0134228 C57.7718121,46.0134228 58.2013423,45.7449664 58.5234899,45.1543624 C58.9530201,44.1879195 58.6308725,43.3825503 57.6644295,42.8993289 Z M57.6644295,44.6174497 C57.6107383,44.7785235 57.4496644,44.8322148 57.2885906,44.8322148 C57.1812081,44.8322148 57.0201342,44.7785235 56.9127517,44.7248322 C56.6979866,44.6174497 56.5369128,44.4563758 56.4832215,44.3489933 C56.4295302,44.2416107 56.4832215,44.1879195 56.4832215,44.0805369 C56.5369128,43.9194631 56.6442953,43.8657718 56.8590604,43.8657718 C56.966443,43.8657718 57.1275168,43.9194631 57.2885906,43.9731544 C57.5033557,44.0805369 57.6107383,44.1879195 57.6644295,44.3489933 C57.7181208,44.4563758 57.6644295,44.5637584 57.6644295,44.6174497 Z" id="Shape"></path>
            <path d="M59.3288591,38.1744966 C58.4161074,37.9060403 57.6644295,38.3355705 57.3959732,39.1946309 C57.3959732,39.3020134 57.3422819,39.3557047 57.3422819,39.409396 L56.8053691,39.2483221 L57.2885906,37.6375839 L56.3758389,37.3691275 L55.5704698,40.0536913 L58.147651,40.8590604 L58.147651,40.6442953 C58.147651,40.3758389 58.2013423,40.1610738 58.2550336,39.8926174 C58.3087248,39.6778523 58.5771812,39.1409396 59.0604027,39.2483221 C59.5973154,39.409396 59.4899329,40 59.4362416,40.1610738 C59.3288591,40.4832215 59.1677852,40.6979866 59.0067114,40.9127517 L58.8456376,41.0738255 L59.9194631,41.4496644 L59.9731544,41.3422819 C60.1342282,41.0201342 60.295302,40.6442953 60.4026846,40.3758389 C60.5637584,39.8389262 60.5637584,39.3557047 60.3489933,38.9261745 C60.1342282,38.6040268 59.7583893,38.3355705 59.3288591,38.1744966 Z" id="Path"></path>
            <path d="M8.59060403,32 C8.59060403,44.885906 19.0604027,55.409396 31.9463087,55.409396 C44.8322148,55.409396 55.3020134,44.9395973 55.3020134,32 C55.3020134,19.114094 44.8322148,8.64409076 31.9463087,8.64409076 C19.114094,8.59060403 8.59060403,19.114094 8.59060403,32 Z M32,9.39597315 C44.4563758,9.39597315 54.5503356,19.5436242 54.5503356,31.9463087 C54.5503356,44.4026846 44.4026846,54.4966443 32,54.4966443 C19.5436242,54.4966443 9.44945235,44.3489933 9.44945235,31.9463087 C9.39597315,19.5436242 19.5436242,9.39597315 32,9.39597315 Z" id="Shape"></path>
            <path d="M32,0 C14.3355705,0 0,14.3355705 0,32 C0,49.6107383 14.3355705,64 32,64 C49.6107383,64 64,49.6644295 64,32 C63.9463087,14.3355705 49.6107383,0 32,0 Z M32,63.1409396 C14.8187919,63.1409396 0.859060403,49.1812081 0.859060403,32 C0.859060403,14.8187919 14.8187919,0.859060403 32,0.859060403 C49.1812081,0.859060403 63.1409396,14.8187919 63.1409396,32 C63.1409396,49.1812081 49.1812081,63.1409396 32,63.1409396 Z" id="Shape"></path>
        </g>
    </g>
</svg>