<?xml version="1.0" encoding="utf-8"?>
<svg xmlns="http://www.w3.org/2000/svg" xmlns:xlink="http://www.w3.org/1999/xlink" width="600" height="400" viewBox="0 0 2400 1600">
<defs>
  <clipPath id="clip050">
    <rect x="0" y="0" width="2400" height="1600"/>
  </clipPath>
</defs>
<path clip-path="url(#clip050)" d="M0 1600 L2400 1600 L2400 0 L0 0  Z" fill="#ffffff" fill-rule="evenodd" fill-opacity="1"/>
<defs>
  <clipPath id="clip051">
    <rect x="480" y="0" width="1681" height="1600"/>
  </clipPath>
</defs>
<path clip-path="url(#clip050)" d="M175.445 1423.18 L2352.76 1423.18 L2352.76 47.2441 L175.445 47.2441  Z" fill="#eee9e9" fill-rule="evenodd" fill-opacity="1"/>
<defs>
  <clipPath id="clip052">
    <rect x="175" y="47" width="2178" height="1377"/>
  </clipPath>
</defs>
<polyline clip-path="url(#clip052)" style="stroke:#000000; stroke-linecap:round; stroke-linejoin:round; stroke-width:2; stroke-opacity:0.1; fill:none" points="228.785,1423.18 228.785,47.2441 "/>
<polyline clip-path="url(#clip052)" style="stroke:#000000; stroke-linecap:round; stroke-linejoin:round; stroke-width:2; stroke-opacity:0.1; fill:none" points="642.911,1423.18 642.911,47.2441 "/>
<polyline clip-path="url(#clip052)" style="stroke:#000000; stroke-linecap:round; stroke-linejoin:round; stroke-width:2; stroke-opacity:0.1; fill:none" points="1057.04,1423.18 1057.04,47.2441 "/>
<polyline clip-path="url(#clip052)" style="stroke:#000000; stroke-linecap:round; stroke-linejoin:round; stroke-width:2; stroke-opacity:0.1; fill:none" points="1471.16,1423.18 1471.16,47.2441 "/>
<polyline clip-path="url(#clip052)" style="stroke:#000000; stroke-linecap:round; stroke-linejoin:round; stroke-width:2; stroke-opacity:0.1; fill:none" points="1885.29,1423.18 1885.29,47.2441 "/>
<polyline clip-path="url(#clip052)" style="stroke:#000000; stroke-linecap:round; stroke-linejoin:round; stroke-width:2; stroke-opacity:0.1; fill:none" points="2299.42,1423.18 2299.42,47.2441 "/>
<polyline clip-path="url(#clip050)" style="stroke:#000000; stroke-linecap:round; stroke-linejoin:round; stroke-width:4; stroke-opacity:1; fill:none" points="175.445,1423.18 2352.76,1423.18 "/>
<polyline clip-path="url(#clip050)" style="stroke:#000000; stroke-linecap:round; stroke-linejoin:round; stroke-width:4; stroke-opacity:1; fill:none" points="175.445,47.2441 2352.76,47.2441 "/>
<polyline clip-path="url(#clip050)" style="stroke:#000000; stroke-linecap:round; stroke-linejoin:round; stroke-width:4; stroke-opacity:1; fill:none" points="228.785,1423.18 228.785,1404.28 "/>
<polyline clip-path="url(#clip050)" style="stroke:#000000; stroke-linecap:round; stroke-linejoin:round; stroke-width:4; stroke-opacity:1; fill:none" points="642.911,1423.18 642.911,1404.28 "/>
<polyline clip-path="url(#clip050)" style="stroke:#000000; stroke-linecap:round; stroke-linejoin:round; stroke-width:4; stroke-opacity:1; fill:none" points="1057.04,1423.18 1057.04,1404.28 "/>
<polyline clip-path="url(#clip050)" style="stroke:#000000; stroke-linecap:round; stroke-linejoin:round; stroke-width:4; stroke-opacity:1; fill:none" points="1471.16,1423.18 1471.16,1404.28 "/>
<polyline clip-path="url(#clip050)" style="stroke:#000000; stroke-linecap:round; stroke-linejoin:round; stroke-width:4; stroke-opacity:1; fill:none" points="1885.29,1423.18 1885.29,1404.28 "/>
<polyline clip-path="url(#clip050)" style="stroke:#000000; stroke-linecap:round; stroke-linejoin:round; stroke-width:4; stroke-opacity:1; fill:none" points="2299.42,1423.18 2299.42,1404.28 "/>
<path clip-path="url(#clip050)" d="M228.785 1454.1 Q225.174 1454.1 223.345 1457.66 Q221.539 1461.2 221.539 1468.33 Q221.539 1475.44 223.345 1479.01 Q225.174 1482.55 228.785 1482.55 Q232.419 1482.55 234.224 1479.01 Q236.053 1475.44 236.053 1468.33 Q236.053 1461.2 234.224 1457.66 Q232.419 1454.1 228.785 1454.1 M228.785 1450.39 Q234.595 1450.39 237.65 1455 Q240.729 1459.58 240.729 1468.33 Q240.729 1477.06 237.65 1481.67 Q234.595 1486.25 228.785 1486.25 Q222.975 1486.25 219.896 1481.67 Q216.84 1477.06 216.84 1468.33 Q216.84 1459.58 219.896 1455 Q222.975 1450.39 228.785 1450.39 Z" fill="#000000" fill-rule="nonzero" fill-opacity="1" /><path clip-path="url(#clip050)" d="M617.61 1451.02 L635.967 1451.02 L635.967 1454.96 L621.893 1454.96 L621.893 1463.43 Q622.911 1463.08 623.93 1462.92 Q624.948 1462.73 625.967 1462.73 Q631.754 1462.73 635.133 1465.9 Q638.513 1469.08 638.513 1474.49 Q638.513 1480.07 635.041 1483.17 Q631.568 1486.25 625.249 1486.25 Q623.073 1486.25 620.805 1485.88 Q618.559 1485.51 616.152 1484.77 L616.152 1480.07 Q618.235 1481.2 620.457 1481.76 Q622.68 1482.32 625.156 1482.32 Q629.161 1482.32 631.499 1480.21 Q633.837 1478.1 633.837 1474.49 Q633.837 1470.88 631.499 1468.77 Q629.161 1466.67 625.156 1466.67 Q623.282 1466.67 621.407 1467.08 Q619.555 1467.5 617.61 1468.38 L617.61 1451.02 Z" fill="#000000" fill-rule="nonzero" fill-opacity="1" /><path clip-path="url(#clip050)" d="M657.726 1454.1 Q654.115 1454.1 652.286 1457.66 Q650.48 1461.2 650.48 1468.33 Q650.48 1475.44 652.286 1479.01 Q654.115 1482.55 657.726 1482.55 Q661.36 1482.55 663.166 1479.01 Q664.994 1475.44 664.994 1468.33 Q664.994 1461.2 663.166 1457.66 Q661.36 1454.1 657.726 1454.1 M657.726 1450.39 Q663.536 1450.39 666.591 1455 Q669.67 1459.58 669.67 1468.33 Q669.67 1477.06 666.591 1481.67 Q663.536 1486.25 657.726 1486.25 Q651.916 1486.25 648.837 1481.67 Q645.781 1477.06 645.781 1468.33 Q645.781 1459.58 648.837 1455 Q651.916 1450.39 657.726 1450.39 Z" fill="#000000" fill-rule="nonzero" fill-opacity="1" /><path clip-path="url(#clip050)" d="M1016.64 1481.64 L1024.28 1481.64 L1024.28 1455.28 L1015.97 1456.95 L1015.97 1452.69 L1024.24 1451.02 L1028.91 1451.02 L1028.91 1481.64 L1036.55 1481.64 L1036.55 1485.58 L1016.64 1485.58 L1016.64 1481.64 Z" fill="#000000" fill-rule="nonzero" fill-opacity="1" /><path clip-path="url(#clip050)" d="M1056 1454.1 Q1052.38 1454.1 1050.56 1457.66 Q1048.75 1461.2 1048.75 1468.33 Q1048.75 1475.44 1050.56 1479.01 Q1052.38 1482.55 1056 1482.55 Q1059.63 1482.55 1061.44 1479.01 Q1063.26 1475.44 1063.26 1468.33 Q1063.26 1461.2 1061.44 1457.66 Q1059.63 1454.1 1056 1454.1 M1056 1450.39 Q1061.81 1450.39 1064.86 1455 Q1067.94 1459.58 1067.94 1468.33 Q1067.94 1477.06 1064.86 1481.67 Q1061.81 1486.25 1056 1486.25 Q1050.19 1486.25 1047.11 1481.67 Q1044.05 1477.06 1044.05 1468.33 Q1044.05 1459.58 1047.11 1455 Q1050.19 1450.39 1056 1450.39 Z" fill="#000000" fill-rule="nonzero" fill-opacity="1" /><path clip-path="url(#clip050)" d="M1086.16 1454.1 Q1082.55 1454.1 1080.72 1457.66 Q1078.91 1461.2 1078.91 1468.33 Q1078.91 1475.44 1080.72 1479.01 Q1082.55 1482.55 1086.16 1482.55 Q1089.79 1482.55 1091.6 1479.01 Q1093.43 1475.44 1093.43 1468.33 Q1093.43 1461.2 1091.6 1457.66 Q1089.79 1454.1 1086.16 1454.1 M1086.16 1450.39 Q1091.97 1450.39 1095.02 1455 Q1098.1 1459.58 1098.1 1468.33 Q1098.1 1477.06 1095.02 1481.67 Q1091.97 1486.25 1086.16 1486.25 Q1080.35 1486.25 1077.27 1481.67 Q1074.21 1477.06 1074.21 1468.33 Q1074.21 1459.58 1077.27 1455 Q1080.35 1450.39 1086.16 1450.39 Z" fill="#000000" fill-rule="nonzero" fill-opacity="1" /><path clip-path="url(#clip050)" d="M1430.77 1481.64 L1438.41 1481.64 L1438.41 1455.28 L1430.1 1456.95 L1430.1 1452.69 L1438.36 1451.02 L1443.04 1451.02 L1443.04 1481.64 L1450.68 1481.64 L1450.68 1485.58 L1430.77 1485.58 L1430.77 1481.64 Z" fill="#000000" fill-rule="nonzero" fill-opacity="1" /><path clip-path="url(#clip050)" d="M1460.17 1451.02 L1478.52 1451.02 L1478.52 1454.96 L1464.45 1454.96 L1464.45 1463.43 Q1465.47 1463.08 1466.49 1462.92 Q1467.51 1462.73 1468.52 1462.73 Q1474.31 1462.73 1477.69 1465.9 Q1481.07 1469.08 1481.07 1474.49 Q1481.07 1480.07 1477.6 1483.17 Q1474.13 1486.25 1467.81 1486.25 Q1465.63 1486.25 1463.36 1485.88 Q1461.12 1485.51 1458.71 1484.77 L1458.71 1480.07 Q1460.79 1481.2 1463.02 1481.76 Q1465.24 1482.32 1467.71 1482.32 Q1471.72 1482.32 1474.06 1480.21 Q1476.4 1478.1 1476.4 1474.49 Q1476.4 1470.88 1474.06 1468.77 Q1471.72 1466.67 1467.71 1466.67 Q1465.84 1466.67 1463.96 1467.08 Q1462.11 1467.5 1460.17 1468.38 L1460.17 1451.02 Z" fill="#000000" fill-rule="nonzero" fill-opacity="1" /><path clip-path="url(#clip050)" d="M1500.28 1454.1 Q1496.67 1454.1 1494.84 1457.66 Q1493.04 1461.2 1493.04 1468.33 Q1493.04 1475.44 1494.84 1479.01 Q1496.67 1482.55 1500.28 1482.55 Q1503.92 1482.55 1505.72 1479.01 Q1507.55 1475.44 1507.55 1468.33 Q1507.55 1461.2 1505.72 1457.66 Q1503.92 1454.1 1500.28 1454.1 M1500.28 1450.39 Q1506.09 1450.39 1509.15 1455 Q1512.23 1459.58 1512.23 1468.33 Q1512.23 1477.06 1509.15 1481.67 Q1506.09 1486.25 1500.28 1486.25 Q1494.47 1486.25 1491.4 1481.67 Q1488.34 1477.06 1488.34 1468.33 Q1488.34 1459.58 1491.4 1455 Q1494.47 1450.39 1500.28 1450.39 Z" fill="#000000" fill-rule="nonzero" fill-opacity="1" /><path clip-path="url(#clip050)" d="M1848.98 1481.64 L1865.3 1481.64 L1865.3 1485.58 L1843.36 1485.58 L1843.36 1481.64 Q1846.02 1478.89 1850.6 1474.26 Q1855.21 1469.61 1856.39 1468.27 Q1858.64 1465.74 1859.51 1464.01 Q1860.42 1462.25 1860.42 1460.56 Q1860.42 1457.8 1858.47 1456.07 Q1856.55 1454.33 1853.45 1454.33 Q1851.25 1454.33 1848.8 1455.09 Q1846.37 1455.86 1843.59 1457.41 L1843.59 1452.69 Q1846.41 1451.55 1848.87 1450.97 Q1851.32 1450.39 1853.36 1450.39 Q1858.73 1450.39 1861.92 1453.08 Q1865.12 1455.77 1865.12 1460.26 Q1865.12 1462.39 1864.31 1464.31 Q1863.52 1466.2 1861.41 1468.8 Q1860.83 1469.47 1857.73 1472.69 Q1854.63 1475.88 1848.98 1481.64 Z" fill="#000000" fill-rule="nonzero" fill-opacity="1" /><path clip-path="url(#clip050)" d="M1885.12 1454.1 Q1881.51 1454.1 1879.68 1457.66 Q1877.87 1461.2 1877.87 1468.33 Q1877.87 1475.44 1879.68 1479.01 Q1881.51 1482.55 1885.12 1482.55 Q1888.75 1482.55 1890.56 1479.01 Q1892.38 1475.44 1892.38 1468.33 Q1892.38 1461.2 1890.56 1457.66 Q1888.75 1454.1 1885.12 1454.1 M1885.12 1450.39 Q1890.93 1450.39 1893.98 1455 Q1897.06 1459.58 1897.06 1468.33 Q1897.06 1477.06 1893.98 1481.67 Q1890.93 1486.25 1885.12 1486.25 Q1879.31 1486.25 1876.23 1481.67 Q1873.17 1477.06 1873.17 1468.33 Q1873.17 1459.58 1876.23 1455 Q1879.31 1450.39 1885.12 1450.39 Z" fill="#000000" fill-rule="nonzero" fill-opacity="1" /><path clip-path="url(#clip050)" d="M1915.28 1454.1 Q1911.67 1454.1 1909.84 1457.66 Q1908.03 1461.2 1908.03 1468.33 Q1908.03 1475.44 1909.84 1479.01 Q1911.67 1482.55 1915.28 1482.55 Q1918.91 1482.55 1920.72 1479.01 Q1922.55 1475.44 1922.55 1468.33 Q1922.55 1461.2 1920.72 1457.66 Q1918.91 1454.1 1915.28 1454.1 M1915.28 1450.39 Q1921.09 1450.39 1924.14 1455 Q1927.22 1459.58 1927.22 1468.33 Q1927.22 1477.06 1924.14 1481.67 Q1921.09 1486.25 1915.28 1486.25 Q1909.47 1486.25 1906.39 1481.67 Q1903.33 1477.06 1903.33 1468.33 Q1903.33 1459.58 1906.39 1455 Q1909.47 1450.39 1915.28 1450.39 Z" fill="#000000" fill-rule="nonzero" fill-opacity="1" /><path clip-path="url(#clip050)" d="M2263.11 1481.64 L2279.43 1481.64 L2279.43 1485.58 L2257.48 1485.58 L2257.48 1481.64 Q2260.15 1478.89 2264.73 1474.26 Q2269.34 1469.61 2270.52 1468.27 Q2272.76 1465.74 2273.64 1464.01 Q2274.54 1462.25 2274.54 1460.56 Q2274.54 1457.8 2272.6 1456.07 Q2270.68 1454.33 2267.58 1454.33 Q2265.38 1454.33 2262.92 1455.09 Q2260.49 1455.86 2257.72 1457.41 L2257.72 1452.69 Q2260.54 1451.55 2262.99 1450.97 Q2265.45 1450.39 2267.48 1450.39 Q2272.85 1450.39 2276.05 1453.08 Q2279.24 1455.77 2279.24 1460.26 Q2279.24 1462.39 2278.43 1464.31 Q2277.65 1466.2 2275.54 1468.8 Q2274.96 1469.47 2271.86 1472.69 Q2268.76 1475.88 2263.11 1481.64 Z" fill="#000000" fill-rule="nonzero" fill-opacity="1" /><path clip-path="url(#clip050)" d="M2289.29 1451.02 L2307.65 1451.02 L2307.65 1454.96 L2293.57 1454.96 L2293.57 1463.43 Q2294.59 1463.08 2295.61 1462.92 Q2296.63 1462.73 2297.65 1462.73 Q2303.43 1462.73 2306.81 1465.9 Q2310.19 1469.08 2310.19 1474.49 Q2310.19 1480.07 2306.72 1483.17 Q2303.25 1486.25 2296.93 1486.25 Q2294.75 1486.25 2292.48 1485.88 Q2290.24 1485.51 2287.83 1484.77 L2287.83 1480.07 Q2289.91 1481.2 2292.14 1481.76 Q2294.36 1482.32 2296.84 1482.32 Q2300.84 1482.32 2303.18 1480.21 Q2305.52 1478.1 2305.52 1474.49 Q2305.52 1470.88 2303.18 1468.77 Q2300.84 1466.67 2296.84 1466.67 Q2294.96 1466.67 2293.09 1467.08 Q2291.23 1467.5 2289.29 1468.38 L2289.29 1451.02 Z" fill="#000000" fill-rule="nonzero" fill-opacity="1" /><path clip-path="url(#clip050)" d="M2329.4 1454.1 Q2325.79 1454.1 2323.96 1457.66 Q2322.16 1461.2 2322.16 1468.33 Q2322.16 1475.44 2323.96 1479.01 Q2325.79 1482.55 2329.4 1482.55 Q2333.04 1482.55 2334.84 1479.01 Q2336.67 1475.44 2336.67 1468.33 Q2336.67 1461.2 2334.84 1457.66 Q2333.04 1454.1 2329.4 1454.1 M2329.4 1450.39 Q2335.21 1450.39 2338.27 1455 Q2341.35 1459.58 2341.35 1468.33 Q2341.35 1477.06 2338.27 1481.67 Q2335.21 1486.25 2329.4 1486.25 Q2323.59 1486.25 2320.52 1481.67 Q2317.46 1477.06 2317.46 1468.33 Q2317.46 1459.58 2320.52 1455 Q2323.59 1450.39 2329.4 1450.39 Z" fill="#000000" fill-rule="nonzero" fill-opacity="1" /><path clip-path="url(#clip050)" d="M975.654 1520.52 L1015.85 1520.52 L1015.85 1525.93 L998.985 1525.93 L998.985 1568.04 L992.524 1568.04 L992.524 1525.93 L975.654 1525.93 L975.654 1520.52 Z" fill="#000000" fill-rule="nonzero" fill-opacity="1" /><path clip-path="url(#clip050)" d="M1032.88 1537.87 Q1031.9 1537.3 1030.72 1537.04 Q1029.57 1536.76 1028.17 1536.76 Q1023.21 1536.76 1020.53 1540 Q1017.89 1543.22 1017.89 1549.27 L1017.89 1568.04 L1012 1568.04 L1012 1532.4 L1017.89 1532.4 L1017.89 1537.93 Q1019.74 1534.69 1022.7 1533.13 Q1025.66 1531.54 1029.89 1531.54 Q1030.5 1531.54 1031.23 1531.63 Q1031.96 1531.7 1032.85 1531.85 L1032.88 1537.87 Z" fill="#000000" fill-rule="nonzero" fill-opacity="1" /><path clip-path="url(#clip050)" d="M1055.23 1550.12 Q1048.13 1550.12 1045.39 1551.75 Q1042.65 1553.37 1042.65 1557.29 Q1042.65 1560.4 1044.69 1562.25 Q1046.76 1564.07 1050.29 1564.07 Q1055.16 1564.07 1058.09 1560.63 Q1061.05 1557.16 1061.05 1551.43 L1061.05 1550.12 L1055.23 1550.12 M1066.91 1547.71 L1066.91 1568.04 L1061.05 1568.04 L1061.05 1562.63 Q1059.05 1565.88 1056.05 1567.44 Q1053.06 1568.97 1048.73 1568.97 Q1043.26 1568.97 1040.01 1565.91 Q1036.8 1562.82 1036.8 1557.67 Q1036.8 1551.65 1040.81 1548.6 Q1044.85 1545.54 1052.84 1545.54 L1061.05 1545.54 L1061.05 1544.97 Q1061.05 1540.93 1058.38 1538.73 Q1055.74 1536.5 1050.93 1536.5 Q1047.87 1536.5 1044.98 1537.23 Q1042.08 1537.97 1039.41 1539.43 L1039.41 1534.02 Q1042.62 1532.78 1045.65 1532.17 Q1048.67 1531.54 1051.53 1531.54 Q1059.27 1531.54 1063.09 1535.55 Q1066.91 1539.56 1066.91 1547.71 Z" fill="#000000" fill-rule="nonzero" fill-opacity="1" /><path clip-path="url(#clip050)" d="M1102.43 1537.81 L1102.43 1518.52 L1108.28 1518.52 L1108.28 1568.04 L1102.43 1568.04 L1102.43 1562.7 Q1100.58 1565.88 1097.75 1567.44 Q1094.95 1568.97 1091 1568.97 Q1084.54 1568.97 1080.47 1563.81 Q1076.42 1558.65 1076.42 1550.25 Q1076.42 1541.85 1080.47 1536.69 Q1084.54 1531.54 1091 1531.54 Q1094.95 1531.54 1097.75 1533.1 Q1100.58 1534.62 1102.43 1537.81 M1082.47 1550.25 Q1082.47 1556.71 1085.11 1560.4 Q1087.79 1564.07 1092.43 1564.07 Q1097.08 1564.07 1099.75 1560.4 Q1102.43 1556.71 1102.43 1550.25 Q1102.43 1543.79 1099.75 1540.13 Q1097.08 1536.44 1092.43 1536.44 Q1087.79 1536.44 1085.11 1540.13 Q1082.47 1543.79 1082.47 1550.25 Z" fill="#000000" fill-rule="nonzero" fill-opacity="1" /><path clip-path="url(#clip050)" d="M1120.35 1532.4 L1126.2 1532.4 L1126.2 1568.04 L1120.35 1568.04 L1120.35 1532.4 M1120.35 1518.52 L1126.2 1518.52 L1126.2 1525.93 L1120.35 1525.93 L1120.35 1518.52 Z" fill="#000000" fill-rule="nonzero" fill-opacity="1" /><path clip-path="url(#clip050)" d="M1168.09 1546.53 L1168.09 1568.04 L1162.23 1568.04 L1162.23 1546.72 Q1162.23 1541.66 1160.26 1539.14 Q1158.29 1536.63 1154.34 1536.63 Q1149.6 1536.63 1146.86 1539.65 Q1144.12 1542.68 1144.12 1547.9 L1144.12 1568.04 L1138.23 1568.04 L1138.23 1532.4 L1144.12 1532.4 L1144.12 1537.93 Q1146.22 1534.72 1149.06 1533.13 Q1151.92 1531.54 1155.64 1531.54 Q1161.79 1531.54 1164.94 1535.36 Q1168.09 1539.14 1168.09 1546.53 Z" fill="#000000" fill-rule="nonzero" fill-opacity="1" /><path clip-path="url(#clip050)" d="M1203.23 1549.81 Q1203.23 1543.44 1200.59 1539.94 Q1197.98 1536.44 1193.23 1536.44 Q1188.52 1536.44 1185.88 1539.94 Q1183.27 1543.44 1183.27 1549.81 Q1183.27 1556.14 1185.88 1559.64 Q1188.52 1563.14 1193.23 1563.14 Q1197.98 1563.14 1200.59 1559.64 Q1203.23 1556.14 1203.23 1549.81 M1209.08 1563.62 Q1209.08 1572.72 1205.04 1577.15 Q1201 1581.6 1192.66 1581.6 Q1189.57 1581.6 1186.84 1581.13 Q1184.1 1580.68 1181.52 1579.72 L1181.52 1574.03 Q1184.1 1575.43 1186.61 1576.1 Q1189.13 1576.76 1191.74 1576.76 Q1197.5 1576.76 1200.36 1573.74 Q1203.23 1570.75 1203.23 1564.67 L1203.23 1561.77 Q1201.41 1564.92 1198.58 1566.48 Q1195.75 1568.04 1191.8 1568.04 Q1185.25 1568.04 1181.23 1563.05 Q1177.22 1558.05 1177.22 1549.81 Q1177.22 1541.53 1181.23 1536.53 Q1185.25 1531.54 1191.8 1531.54 Q1195.75 1531.54 1198.58 1533.1 Q1201.41 1534.66 1203.23 1537.81 L1203.23 1532.4 L1209.08 1532.4 L1209.08 1563.62 Z" fill="#000000" fill-rule="nonzero" fill-opacity="1" /><path clip-path="url(#clip050)" d="M1265.33 1537.81 L1265.33 1518.52 L1271.18 1518.52 L1271.18 1568.04 L1265.33 1568.04 L1265.33 1562.7 Q1263.48 1565.88 1260.65 1567.44 Q1257.85 1568.97 1253.9 1568.97 Q1247.44 1568.97 1243.36 1563.81 Q1239.32 1558.65 1239.32 1550.25 Q1239.32 1541.85 1243.36 1536.69 Q1247.44 1531.54 1253.9 1531.54 Q1257.85 1531.54 1260.65 1533.1 Q1263.48 1534.62 1265.33 1537.81 M1245.37 1550.25 Q1245.37 1556.71 1248.01 1560.4 Q1250.68 1564.07 1255.33 1564.07 Q1259.98 1564.07 1262.65 1560.4 Q1265.33 1556.71 1265.33 1550.25 Q1265.33 1543.79 1262.65 1540.13 Q1259.98 1536.44 1255.33 1536.44 Q1250.68 1536.44 1248.01 1540.13 Q1245.37 1543.79 1245.37 1550.25 Z" fill="#000000" fill-rule="nonzero" fill-opacity="1" /><path clip-path="url(#clip050)" d="M1299.45 1550.12 Q1292.35 1550.12 1289.61 1551.75 Q1286.87 1553.37 1286.87 1557.29 Q1286.87 1560.4 1288.91 1562.25 Q1290.98 1564.07 1294.51 1564.07 Q1299.38 1564.07 1302.31 1560.63 Q1305.27 1557.16 1305.27 1551.43 L1305.27 1550.12 L1299.45 1550.12 M1311.13 1547.71 L1311.13 1568.04 L1305.27 1568.04 L1305.27 1562.63 Q1303.27 1565.88 1300.27 1567.44 Q1297.28 1568.97 1292.95 1568.97 Q1287.48 1568.97 1284.23 1565.91 Q1281.02 1562.82 1281.02 1557.67 Q1281.02 1551.65 1285.03 1548.6 Q1289.07 1545.54 1297.06 1545.54 L1305.27 1545.54 L1305.27 1544.97 Q1305.27 1540.93 1302.6 1538.73 Q1299.96 1536.5 1295.15 1536.5 Q1292.09 1536.5 1289.2 1537.23 Q1286.3 1537.97 1283.63 1539.43 L1283.63 1534.02 Q1286.84 1532.78 1289.87 1532.17 Q1292.89 1531.54 1295.75 1531.54 Q1303.49 1531.54 1307.31 1535.55 Q1311.13 1539.56 1311.13 1547.71 Z" fill="#000000" fill-rule="nonzero" fill-opacity="1" /><path clip-path="url(#clip050)" d="M1338.02 1571.35 Q1335.54 1577.72 1333.18 1579.66 Q1330.83 1581.6 1326.88 1581.6 L1322.2 1581.6 L1322.2 1576.7 L1325.64 1576.7 Q1328.06 1576.7 1329.4 1575.56 Q1330.73 1574.41 1332.36 1570.14 L1333.41 1567.47 L1318.99 1532.4 L1325.2 1532.4 L1336.34 1560.28 L1347.48 1532.4 L1353.68 1532.4 L1338.02 1571.35 Z" fill="#000000" fill-rule="nonzero" fill-opacity="1" /><path clip-path="url(#clip050)" d="M1382.49 1532.4 L1388.34 1532.4 L1388.34 1568.04 L1382.49 1568.04 L1382.49 1532.4 M1382.49 1518.52 L1388.34 1518.52 L1388.34 1525.93 L1382.49 1525.93 L1382.49 1518.52 Z" fill="#000000" fill-rule="nonzero" fill-opacity="1" /><path clip-path="url(#clip050)" d="M1430.23 1546.53 L1430.23 1568.04 L1424.37 1568.04 L1424.37 1546.72 Q1424.37 1541.66 1422.4 1539.14 Q1420.43 1536.63 1416.48 1536.63 Q1411.74 1536.63 1409 1539.65 Q1406.26 1542.68 1406.26 1547.9 L1406.26 1568.04 L1400.37 1568.04 L1400.37 1532.4 L1406.26 1532.4 L1406.26 1537.93 Q1408.36 1534.72 1411.2 1533.13 Q1414.06 1531.54 1417.78 1531.54 Q1423.93 1531.54 1427.08 1535.36 Q1430.23 1539.14 1430.23 1546.53 Z" fill="#000000" fill-rule="nonzero" fill-opacity="1" /><path clip-path="url(#clip050)" d="M1465.37 1537.81 L1465.37 1518.52 L1471.22 1518.52 L1471.22 1568.04 L1465.37 1568.04 L1465.37 1562.7 Q1463.52 1565.88 1460.69 1567.44 Q1457.89 1568.97 1453.94 1568.97 Q1447.48 1568.97 1443.41 1563.81 Q1439.36 1558.65 1439.36 1550.25 Q1439.36 1541.85 1443.41 1536.69 Q1447.48 1531.54 1453.94 1531.54 Q1457.89 1531.54 1460.69 1533.1 Q1463.52 1534.62 1465.37 1537.81 M1445.41 1550.25 Q1445.41 1556.71 1448.05 1560.4 Q1450.73 1564.07 1455.37 1564.07 Q1460.02 1564.07 1462.69 1560.4 Q1465.37 1556.71 1465.37 1550.25 Q1465.37 1543.79 1462.69 1540.13 Q1460.02 1536.44 1455.37 1536.44 Q1450.73 1536.44 1448.05 1540.13 Q1445.41 1543.79 1445.41 1550.25 Z" fill="#000000" fill-rule="nonzero" fill-opacity="1" /><path clip-path="url(#clip050)" d="M1513.78 1548.76 L1513.78 1551.62 L1486.85 1551.62 Q1487.23 1557.67 1490.48 1560.85 Q1493.76 1564 1499.58 1564 Q1502.96 1564 1506.11 1563.17 Q1509.29 1562.35 1512.41 1560.69 L1512.41 1566.23 Q1509.26 1567.57 1505.95 1568.27 Q1502.64 1568.97 1499.23 1568.97 Q1490.7 1568.97 1485.71 1564 Q1480.74 1559.04 1480.74 1550.57 Q1480.74 1541.82 1485.45 1536.69 Q1490.19 1531.54 1498.22 1531.54 Q1505.41 1531.54 1509.58 1536.18 Q1513.78 1540.8 1513.78 1548.76 M1507.92 1547.04 Q1507.86 1542.23 1505.22 1539.37 Q1502.61 1536.5 1498.28 1536.5 Q1493.38 1536.5 1490.42 1539.27 Q1487.49 1542.04 1487.04 1547.07 L1507.92 1547.04 Z" fill="#000000" fill-rule="nonzero" fill-opacity="1" /><path clip-path="url(#clip050)" d="M1551.88 1532.4 L1538.99 1549.74 L1552.55 1568.04 L1545.64 1568.04 L1535.26 1554.04 L1524.89 1568.04 L1517.98 1568.04 L1531.83 1549.39 L1519.16 1532.4 L1526.07 1532.4 L1535.52 1545.1 L1544.97 1532.4 L1551.88 1532.4 Z" fill="#000000" fill-rule="nonzero" fill-opacity="1" /><polyline clip-path="url(#clip052)" style="stroke:#000000; stroke-linecap:round; stroke-linejoin:round; stroke-width:2; stroke-opacity:0.1; fill:none" points="175.445,1390.74 2352.76,1390.74 "/>
<polyline clip-path="url(#clip052)" style="stroke:#000000; stroke-linecap:round; stroke-linejoin:round; stroke-width:2; stroke-opacity:0.1; fill:none" points="175.445,1065.42 2352.76,1065.42 "/>
<polyline clip-path="url(#clip052)" style="stroke:#000000; stroke-linecap:round; stroke-linejoin:round; stroke-width:2; stroke-opacity:0.1; fill:none" points="175.445,740.092 2352.76,740.092 "/>
<polyline clip-path="url(#clip052)" style="stroke:#000000; stroke-linecap:round; stroke-linejoin:round; stroke-width:2; stroke-opacity:0.1; fill:none" points="175.445,414.765 2352.76,414.765 "/>
<polyline clip-path="url(#clip052)" style="stroke:#000000; stroke-linecap:round; stroke-linejoin:round; stroke-width:2; stroke-opacity:0.1; fill:none" points="175.445,89.4389 2352.76,89.4389 "/>
<polyline clip-path="url(#clip050)" style="stroke:#000000; stroke-linecap:round; stroke-linejoin:round; stroke-width:4; stroke-opacity:1; fill:none" points="175.445,1423.18 175.445,47.2441 "/>
<polyline clip-path="url(#clip050)" style="stroke:#000000; stroke-linecap:round; stroke-linejoin:round; stroke-width:4; stroke-opacity:1; fill:none" points="2352.76,1423.18 2352.76,47.2441 "/>
<polyline clip-path="url(#clip050)" style="stroke:#000000; stroke-linecap:round; stroke-linejoin:round; stroke-width:4; stroke-opacity:1; fill:none" points="175.445,1390.74 194.343,1390.74 "/>
<polyline clip-path="url(#clip050)" style="stroke:#000000; stroke-linecap:round; stroke-linejoin:round; stroke-width:4; stroke-opacity:1; fill:none" points="175.445,1065.42 194.343,1065.42 "/>
<polyline clip-path="url(#clip050)" style="stroke:#000000; stroke-linecap:round; stroke-linejoin:round; stroke-width:4; stroke-opacity:1; fill:none" points="175.445,740.092 194.343,740.092 "/>
<polyline clip-path="url(#clip050)" style="stroke:#000000; stroke-linecap:round; stroke-linejoin:round; stroke-width:4; stroke-opacity:1; fill:none" points="175.445,414.765 194.343,414.765 "/>
<polyline clip-path="url(#clip050)" style="stroke:#000000; stroke-linecap:round; stroke-linejoin:round; stroke-width:4; stroke-opacity:1; fill:none" points="175.445,89.4389 194.343,89.4389 "/>
<path clip-path="url(#clip050)" d="M127.501 1376.54 Q123.89 1376.54 122.061 1380.11 Q120.255 1383.65 120.255 1390.78 Q120.255 1397.89 122.061 1401.45 Q123.89 1404.99 127.501 1404.99 Q131.135 1404.99 132.941 1401.45 Q134.769 1397.89 134.769 1390.78 Q134.769 1383.65 132.941 1380.11 Q131.135 1376.54 127.501 1376.54 M127.501 1372.84 Q133.311 1372.84 136.367 1377.45 Q139.445 1382.03 139.445 1390.78 Q139.445 1399.51 136.367 1404.11 Q133.311 1408.7 127.501 1408.7 Q121.691 1408.7 118.612 1404.11 Q115.556 1399.51 115.556 1390.78 Q115.556 1382.03 118.612 1377.45 Q121.691 1372.84 127.501 1372.84 Z" fill="#000000" fill-rule="nonzero" fill-opacity="1" /><path clip-path="url(#clip050)" d="M119.538 1078.76 L127.177 1078.76 L127.177 1052.4 L118.867 1054.06 L118.867 1049.8 L127.13 1048.14 L131.806 1048.14 L131.806 1078.76 L139.445 1078.76 L139.445 1082.7 L119.538 1082.7 L119.538 1078.76 Z" fill="#000000" fill-rule="nonzero" fill-opacity="1" /><path clip-path="url(#clip050)" d="M123.126 753.437 L139.445 753.437 L139.445 757.372 L117.501 757.372 L117.501 753.437 Q120.163 750.682 124.746 746.052 Q129.353 741.4 130.533 740.057 Q132.779 737.534 133.658 735.798 Q134.561 734.039 134.561 732.349 Q134.561 729.594 132.617 727.858 Q130.695 726.122 127.593 726.122 Q125.394 726.122 122.941 726.886 Q120.51 727.65 117.732 729.201 L117.732 724.479 Q120.556 723.344 123.01 722.766 Q125.464 722.187 127.501 722.187 Q132.871 722.187 136.066 724.872 Q139.26 727.557 139.26 732.048 Q139.26 734.178 138.45 736.099 Q137.663 737.997 135.556 740.59 Q134.978 741.261 131.876 744.478 Q128.774 747.673 123.126 753.437 Z" fill="#000000" fill-rule="nonzero" fill-opacity="1" /><path clip-path="url(#clip050)" d="M132.316 413.411 Q135.672 414.129 137.547 416.397 Q139.445 418.666 139.445 421.999 Q139.445 427.115 135.927 429.916 Q132.408 432.717 125.927 432.717 Q123.751 432.717 121.436 432.277 Q119.144 431.86 116.691 431.004 L116.691 426.49 Q118.635 427.624 120.95 428.203 Q123.265 428.782 125.788 428.782 Q130.186 428.782 132.478 427.045 Q134.792 425.309 134.792 421.999 Q134.792 418.944 132.64 417.231 Q130.51 415.495 126.691 415.495 L122.663 415.495 L122.663 411.652 L126.876 411.652 Q130.325 411.652 132.154 410.286 Q133.982 408.897 133.982 406.305 Q133.982 403.643 132.084 402.231 Q130.209 400.796 126.691 400.796 Q124.769 400.796 122.57 401.212 Q120.371 401.629 117.732 402.509 L117.732 398.342 Q120.394 397.601 122.709 397.231 Q125.047 396.86 127.107 396.86 Q132.431 396.86 135.533 399.291 Q138.635 401.698 138.635 405.819 Q138.635 408.689 136.992 410.68 Q135.348 412.647 132.316 413.411 Z" fill="#000000" fill-rule="nonzero" fill-opacity="1" /><path clip-path="url(#clip050)" d="M129.862 76.233 L118.056 94.682 L129.862 94.682 L129.862 76.233 M128.635 72.1589 L134.515 72.1589 L134.515 94.682 L139.445 94.682 L139.445 98.5708 L134.515 98.5708 L134.515 106.719 L129.862 106.719 L129.862 98.5708 L114.26 98.5708 L114.26 94.057 L128.635 72.1589 Z" fill="#000000" fill-rule="nonzero" fill-opacity="1" /><path clip-path="url(#clip050)" d="M41.3104 1308 L58.7206 1308 L58.7206 1297.69 Q58.7206 1292.5 56.5881 1290.02 Q54.4238 1287.5 49.9996 1287.5 Q45.5436 1287.5 43.4429 1290.02 Q41.3104 1292.5 41.3104 1297.69 L41.3104 1308 M21.7677 1308 L36.0905 1308 L36.0905 1298.48 Q36.0905 1293.77 34.34 1291.48 Q32.5576 1289.16 28.9291 1289.16 Q25.3325 1289.16 23.5501 1291.48 Q21.7677 1293.77 21.7677 1298.48 L21.7677 1308 M16.4842 1314.43 L16.4842 1298 Q16.4842 1290.65 19.5397 1286.67 Q22.5952 1282.69 28.2289 1282.69 Q32.5894 1282.69 35.1675 1284.73 Q37.7456 1286.77 38.3822 1290.72 Q39.4007 1285.97 42.6472 1283.36 Q45.8619 1280.72 50.6998 1280.72 Q57.0655 1280.72 60.5348 1285.05 Q64.0042 1289.38 64.0042 1297.37 L64.0042 1314.43 L16.4842 1314.43 Z" fill="#000000" fill-rule="nonzero" fill-opacity="1" /><path clip-path="url(#clip050)" d="M46.0847 1253.76 Q46.0847 1260.86 47.7079 1263.6 Q49.3312 1266.33 53.2461 1266.33 Q56.3653 1266.33 58.2114 1264.3 Q60.0256 1262.23 60.0256 1258.7 Q60.0256 1253.83 56.5881 1250.9 Q53.1188 1247.94 47.3897 1247.94 L46.0847 1247.94 L46.0847 1253.76 M43.6657 1242.08 L64.0042 1242.08 L64.0042 1247.94 L58.5933 1247.94 Q61.8398 1249.94 63.3994 1252.93 Q64.9272 1255.93 64.9272 1260.26 Q64.9272 1265.73 61.8716 1268.98 Q58.7843 1272.19 53.6281 1272.19 Q47.6125 1272.19 44.5569 1268.18 Q41.5014 1264.14 41.5014 1256.15 L41.5014 1247.94 L40.9285 1247.94 Q36.8862 1247.94 34.6901 1250.61 Q32.4621 1253.25 32.4621 1258.06 Q32.4621 1261.11 33.1941 1264.01 Q33.9262 1266.91 35.3903 1269.58 L29.9795 1269.58 Q28.7381 1266.37 28.1334 1263.34 Q27.4968 1260.32 27.4968 1257.45 Q27.4968 1249.72 31.5072 1245.9 Q35.5176 1242.08 43.6657 1242.08 Z" fill="#000000" fill-rule="nonzero" fill-opacity="1" /><path clip-path="url(#clip050)" d="M42.4881 1200.39 L64.0042 1200.39 L64.0042 1206.24 L42.679 1206.24 Q37.6183 1206.24 35.1038 1208.22 Q32.5894 1210.19 32.5894 1214.14 Q32.5894 1218.88 35.6131 1221.62 Q38.6368 1224.35 43.8567 1224.35 L64.0042 1224.35 L64.0042 1230.24 L28.3562 1230.24 L28.3562 1224.35 L33.8944 1224.35 Q30.6797 1222.25 29.0883 1219.42 Q27.4968 1216.55 27.4968 1212.83 Q27.4968 1206.69 31.3163 1203.54 Q35.1038 1200.39 42.4881 1200.39 Z" fill="#000000" fill-rule="nonzero" fill-opacity="1" /><path clip-path="url(#clip050)" d="M14.479 1188.93 L14.479 1183.04 L43.7294 1183.04 L28.3562 1165.57 L28.3562 1158.09 L45.0344 1176.99 L64.0042 1157.29 L64.0042 1164.93 L46.5939 1183.04 L64.0042 1183.04 L64.0042 1188.93 L14.479 1188.93 Z" fill="#000000" fill-rule="nonzero" fill-opacity="1" /><path clip-path="url(#clip050)" d="M33.7671 1106.78 L14.479 1106.78 L14.479 1100.92 L64.0042 1100.92 L64.0042 1106.78 L58.657 1106.78 Q61.8398 1108.62 63.3994 1111.46 Q64.9272 1114.26 64.9272 1118.2 Q64.9272 1124.67 59.771 1128.74 Q54.6147 1132.78 46.212 1132.78 Q37.8093 1132.78 32.6531 1128.74 Q27.4968 1124.67 27.4968 1118.2 Q27.4968 1114.26 29.0564 1111.46 Q30.5842 1108.62 33.7671 1106.78 M46.212 1126.73 Q52.6732 1126.73 56.3653 1124.09 Q60.0256 1121.42 60.0256 1116.77 Q60.0256 1112.13 56.3653 1109.45 Q52.6732 1106.78 46.212 1106.78 Q39.7508 1106.78 36.0905 1109.45 Q32.3984 1112.13 32.3984 1116.77 Q32.3984 1121.42 36.0905 1124.09 Q39.7508 1126.73 46.212 1126.73 Z" fill="#000000" fill-rule="nonzero" fill-opacity="1" /><path clip-path="url(#clip050)" d="M28.3562 1088.86 L28.3562 1083 L64.0042 1083 L64.0042 1088.86 L28.3562 1088.86 M14.479 1088.86 L14.479 1083 L21.895 1083 L21.895 1088.86 L14.479 1088.86 Z" fill="#000000" fill-rule="nonzero" fill-opacity="1" /><path clip-path="url(#clip050)" d="M29.4065 1048.02 L34.9447 1048.02 Q33.6716 1050.51 33.035 1053.18 Q32.3984 1055.85 32.3984 1058.72 Q32.3984 1063.08 33.7352 1065.27 Q35.072 1067.44 37.7456 1067.44 Q39.7826 1067.44 40.9603 1065.88 Q42.1061 1064.32 43.1565 1059.61 L43.6021 1057.6 Q44.9389 1051.36 47.3897 1048.75 Q49.8086 1046.11 54.1691 1046.11 Q59.1344 1046.11 62.0308 1050.06 Q64.9272 1053.97 64.9272 1060.85 Q64.9272 1063.71 64.3543 1066.83 Q63.8132 1069.92 62.6992 1073.36 L56.6518 1073.36 Q58.3387 1070.11 59.198 1066.96 Q60.0256 1063.81 60.0256 1060.72 Q60.0256 1056.58 58.6251 1054.36 Q57.1929 1052.13 54.6147 1052.13 Q52.2276 1052.13 50.9545 1053.75 Q49.6813 1055.34 48.5037 1060.79 L48.0262 1062.82 Q46.8804 1068.27 44.5251 1070.68 Q42.138 1073.1 38.0002 1073.1 Q32.9713 1073.1 30.2341 1069.54 Q27.4968 1065.97 27.4968 1059.42 Q27.4968 1056.17 27.9743 1053.31 Q28.4517 1050.44 29.4065 1048.02 Z" fill="#000000" fill-rule="nonzero" fill-opacity="1" /><path clip-path="url(#clip050)" d="M29.7248 1011.13 L35.1993 1011.13 Q33.8307 1013.62 33.1623 1016.13 Q32.4621 1018.61 32.4621 1021.16 Q32.4621 1026.86 36.0905 1030.01 Q39.6872 1033.16 46.212 1033.16 Q52.7369 1033.16 56.3653 1030.01 Q59.9619 1026.86 59.9619 1021.16 Q59.9619 1018.61 59.2935 1016.13 Q58.5933 1013.62 57.2247 1011.13 L62.6355 1011.13 Q63.7814 1013.58 64.3543 1016.23 Q64.9272 1018.84 64.9272 1021.8 Q64.9272 1029.85 59.8664 1034.59 Q54.8057 1039.33 46.212 1039.33 Q37.491 1039.33 32.4939 1034.56 Q27.4968 1029.75 27.4968 1021.41 Q27.4968 1018.71 28.0697 1016.13 Q28.6108 1013.55 29.7248 1011.13 Z" fill="#000000" fill-rule="nonzero" fill-opacity="1" /><path clip-path="url(#clip050)" d="M32.4621 987.135 Q32.4621 991.845 36.1542 994.583 Q39.8145 997.32 46.212 997.32 Q52.6095 997.32 56.3017 994.615 Q59.9619 991.877 59.9619 987.135 Q59.9619 982.456 56.2698 979.719 Q52.5777 976.982 46.212 976.982 Q39.8781 976.982 36.186 979.719 Q32.4621 982.456 32.4621 987.135 M27.4968 987.135 Q27.4968 979.496 32.4621 975.135 Q37.4273 970.775 46.212 970.775 Q54.9649 970.775 59.9619 975.135 Q64.9272 979.496 64.9272 987.135 Q64.9272 994.805 59.9619 999.166 Q54.9649 1003.49 46.212 1003.49 Q37.4273 1003.49 32.4621 999.166 Q27.4968 994.805 27.4968 987.135 Z" fill="#000000" fill-rule="nonzero" fill-opacity="1" /><path clip-path="url(#clip050)" d="M49.9359 961.672 L28.3562 961.672 L28.3562 955.816 L49.7131 955.816 Q54.7739 955.816 57.3202 953.842 Q59.8346 951.869 59.8346 947.922 Q59.8346 943.18 56.8109 940.442 Q53.7872 937.673 48.5673 937.673 L28.3562 937.673 L28.3562 931.817 L64.0042 931.817 L64.0042 937.673 L58.5296 937.673 Q61.7762 939.806 63.3676 942.639 Q64.9272 945.439 64.9272 949.163 Q64.9272 955.306 61.1078 958.489 Q57.2883 961.672 49.9359 961.672 M27.4968 946.935 L27.4968 946.935 Z" fill="#000000" fill-rule="nonzero" fill-opacity="1" /><path clip-path="url(#clip050)" d="M42.4881 890.121 L64.0042 890.121 L64.0042 895.978 L42.679 895.978 Q37.6183 895.978 35.1038 897.951 Q32.5894 899.925 32.5894 903.871 Q32.5894 908.614 35.6131 911.351 Q38.6368 914.088 43.8567 914.088 L64.0042 914.088 L64.0042 919.977 L28.3562 919.977 L28.3562 914.088 L33.8944 914.088 Q30.6797 911.988 29.0883 909.155 Q27.4968 906.29 27.4968 902.566 Q27.4968 896.423 31.3163 893.272 Q35.1038 890.121 42.4881 890.121 Z" fill="#000000" fill-rule="nonzero" fill-opacity="1" /><path clip-path="url(#clip050)" d="M18.2347 872.648 L28.3562 872.648 L28.3562 860.585 L32.9077 860.585 L32.9077 872.648 L52.2594 872.648 Q56.6199 872.648 57.8613 871.47 Q59.1026 870.26 59.1026 866.6 L59.1026 860.585 L64.0042 860.585 L64.0042 866.6 Q64.0042 873.38 61.4897 875.958 Q58.9434 878.536 52.2594 878.536 L32.9077 878.536 L32.9077 882.833 L28.3562 882.833 L28.3562 878.536 L18.2347 878.536 L18.2347 872.648 Z" fill="#000000" fill-rule="nonzero" fill-opacity="1" /><path clip-path="url(#clip050)" d="M33.8307 811.505 Q33.2578 812.492 33.0032 813.669 Q32.7167 814.815 32.7167 816.216 Q32.7167 821.181 35.9632 823.854 Q39.1779 826.496 45.2253 826.496 L64.0042 826.496 L64.0042 832.384 L28.3562 832.384 L28.3562 826.496 L33.8944 826.496 Q30.6479 824.65 29.0883 821.69 Q27.4968 818.73 27.4968 814.497 Q27.4968 813.892 27.5923 813.16 Q27.656 812.428 27.8151 811.537 L33.8307 811.505 Z" fill="#000000" fill-rule="nonzero" fill-opacity="1" /><path clip-path="url(#clip050)" d="M46.0847 789.161 Q46.0847 796.259 47.7079 798.996 Q49.3312 801.734 53.2461 801.734 Q56.3653 801.734 58.2114 799.697 Q60.0256 797.628 60.0256 794.095 Q60.0256 789.225 56.5881 786.297 Q53.1188 783.337 47.3897 783.337 L46.0847 783.337 L46.0847 789.161 M43.6657 777.48 L64.0042 777.48 L64.0042 783.337 L58.5933 783.337 Q61.8398 785.342 63.3994 788.334 Q64.9272 791.326 64.9272 795.654 Q64.9272 801.129 61.8716 804.375 Q58.7843 807.59 53.6281 807.59 Q47.6125 807.59 44.5569 803.58 Q41.5014 799.537 41.5014 791.548 L41.5014 783.337 L40.9285 783.337 Q36.8862 783.337 34.6901 786.01 Q32.4621 788.652 32.4621 793.458 Q32.4621 796.514 33.1941 799.41 Q33.9262 802.307 35.3903 804.98 L29.9795 804.98 Q28.7381 801.765 28.1334 798.742 Q27.4968 795.718 27.4968 792.853 Q27.4968 785.119 31.5072 781.3 Q35.5176 777.48 43.6657 777.48 Z" fill="#000000" fill-rule="nonzero" fill-opacity="1" /><path clip-path="url(#clip050)" d="M18.2347 759.624 L28.3562 759.624 L28.3562 747.561 L32.9077 747.561 L32.9077 759.624 L52.2594 759.624 Q56.6199 759.624 57.8613 758.447 Q59.1026 757.237 59.1026 753.577 L59.1026 747.561 L64.0042 747.561 L64.0042 753.577 Q64.0042 760.357 61.4897 762.935 Q58.9434 765.513 52.2594 765.513 L32.9077 765.513 L32.9077 769.81 L28.3562 769.81 L28.3562 765.513 L18.2347 765.513 L18.2347 759.624 Z" fill="#000000" fill-rule="nonzero" fill-opacity="1" /><path clip-path="url(#clip050)" d="M44.7161 709.367 L47.5806 709.367 L47.5806 736.294 Q53.6281 735.912 56.8109 732.666 Q59.9619 729.387 59.9619 723.563 Q59.9619 720.189 59.1344 717.038 Q58.3069 713.855 56.6518 710.736 L62.1899 710.736 Q63.5267 713.887 64.227 717.197 Q64.9272 720.507 64.9272 723.913 Q64.9272 732.443 59.9619 737.44 Q54.9967 742.405 46.5303 742.405 Q37.7774 742.405 32.6531 737.695 Q27.4968 732.952 27.4968 724.931 Q27.4968 717.738 32.1438 713.569 Q36.7589 709.367 44.7161 709.367 M42.9973 715.224 Q38.1912 715.287 35.3266 717.929 Q32.4621 720.539 32.4621 724.868 Q32.4621 729.769 35.2312 732.729 Q38.0002 735.658 43.0292 736.103 L42.9973 715.224 Z" fill="#000000" fill-rule="nonzero" fill-opacity="1" /><path clip-path="url(#clip050)" d="M14.5426 664.966 Q21.8632 669.231 29.0246 671.3 Q36.186 673.369 43.5384 673.369 Q50.8908 673.369 58.1159 671.3 Q65.3091 669.2 72.5979 664.966 L72.5979 670.059 Q65.1182 674.833 57.8931 677.22 Q50.668 679.576 43.5384 679.576 Q36.4406 679.576 29.2474 677.22 Q22.0542 674.865 14.5426 670.059 L14.5426 664.966 Z" fill="#000000" fill-rule="nonzero" fill-opacity="1" /><path clip-path="url(#clip050)" d="M43.0928 612.354 Q43.0928 615.123 45.4481 616.714 Q47.8034 618.274 52.0048 618.274 Q56.1425 618.274 58.5296 616.714 Q60.885 615.123 60.885 612.354 Q60.885 609.648 58.5296 608.089 Q56.1425 606.497 52.0048 606.497 Q47.8353 606.497 45.48 608.089 Q43.0928 609.648 43.0928 612.354 M39.0506 612.354 Q39.0506 607.325 42.5517 604.365 Q46.0529 601.405 52.0048 601.405 Q57.9567 601.405 61.4579 604.397 Q64.9272 607.357 64.9272 612.354 Q64.9272 617.446 61.4579 620.406 Q57.9567 623.367 52.0048 623.367 Q46.021 623.367 42.5517 620.406 Q39.0506 617.415 39.0506 612.354 M19.667 645.201 Q19.667 647.938 22.0542 649.53 Q24.4095 651.089 28.5472 651.089 Q32.7485 651.089 35.1038 649.53 Q37.4592 647.97 37.4592 645.201 Q37.4592 642.432 35.1038 640.872 Q32.7485 639.281 28.5472 639.281 Q24.4413 639.281 22.0542 640.872 Q19.667 642.464 19.667 645.201 M15.6248 616.46 L15.6248 611.367 L64.9272 641.095 L64.9272 646.188 L15.6248 616.46 M15.6248 645.201 Q15.6248 640.172 19.1259 637.18 Q22.5952 634.188 28.5472 634.188 Q34.5628 634.188 38.0321 637.18 Q41.5014 640.14 41.5014 645.201 Q41.5014 650.262 38.0321 653.222 Q34.5309 656.15 28.5472 656.15 Q22.6271 656.15 19.1259 653.19 Q15.6248 650.23 15.6248 645.201 Z" fill="#000000" fill-rule="nonzero" fill-opacity="1" /><path clip-path="url(#clip050)" d="M14.5426 592.588 L14.5426 587.496 Q22.0542 582.721 29.2474 580.366 Q36.4406 577.979 43.5384 577.979 Q50.668 577.979 57.8931 580.366 Q65.1182 582.721 72.5979 587.496 L72.5979 592.588 Q65.3091 588.355 58.1159 586.286 Q50.8908 584.186 43.5384 584.186 Q36.186 584.186 29.0246 586.286 Q21.8632 588.355 14.5426 592.588 Z" fill="#000000" fill-rule="nonzero" fill-opacity="1" /><path clip-path="url(#clip050)" d="M22.086 527.022 L47.4533 543.254 L47.4533 527.022 L22.086 527.022 M16.4842 528.708 L16.4842 520.624 L47.4533 520.624 L47.4533 513.845 L52.8005 513.845 L52.8005 520.624 L64.0042 520.624 L64.0042 527.022 L52.8005 527.022 L52.8005 548.474 L46.5939 548.474 L16.4842 528.708 Z" fill="#000000" fill-rule="nonzero" fill-opacity="1" /><path clip-path="url(#clip050)" d="M43.5384 507.001 L43.5384 489.846 L48.7583 489.846 L48.7583 507.001 L43.5384 507.001 Z" fill="#000000" fill-rule="nonzero" fill-opacity="1" /><path clip-path="url(#clip050)" d="M28.3562 483.926 L28.3562 478.069 L56.1743 470.749 L28.3562 463.46 L28.3562 456.553 L56.1743 449.233 L28.3562 441.944 L28.3562 436.087 L64.0042 445.413 L64.0042 452.32 L34.7856 459.991 L64.0042 467.693 L64.0042 474.6 L28.3562 483.926 Z" fill="#000000" fill-rule="nonzero" fill-opacity="1" /><path clip-path="url(#clip050)" d="M44.7161 396.716 L47.5806 396.716 L47.5806 423.642 Q53.6281 423.261 56.8109 420.014 Q59.9619 416.736 59.9619 410.911 Q59.9619 407.537 59.1344 404.386 Q58.3069 401.203 56.6518 398.084 L62.1899 398.084 Q63.5267 401.235 64.227 404.545 Q64.9272 407.856 64.9272 411.261 Q64.9272 419.791 59.9619 424.788 Q54.9967 429.754 46.5303 429.754 Q37.7774 429.754 32.6531 425.043 Q27.4968 420.3 27.4968 412.28 Q27.4968 405.086 32.1438 400.917 Q36.7589 396.716 44.7161 396.716 M42.9973 402.572 Q38.1912 402.636 35.3266 405.277 Q32.4621 407.887 32.4621 412.216 Q32.4621 417.118 35.2312 420.078 Q38.0002 423.006 43.0292 423.451 L42.9973 402.572 Z" fill="#000000" fill-rule="nonzero" fill-opacity="1" /><path clip-path="url(#clip050)" d="M44.7161 356.612 L47.5806 356.612 L47.5806 383.539 Q53.6281 383.157 56.8109 379.91 Q59.9619 376.632 59.9619 370.807 Q59.9619 367.433 59.1344 364.282 Q58.3069 361.099 56.6518 357.98 L62.1899 357.98 Q63.5267 361.131 64.227 364.441 Q64.9272 367.752 64.9272 371.157 Q64.9272 379.687 59.9619 384.684 Q54.9967 389.65 46.5303 389.65 Q37.7774 389.65 32.6531 384.939 Q27.4968 380.197 27.4968 372.176 Q27.4968 364.982 32.1438 360.813 Q36.7589 356.612 44.7161 356.612 M42.9973 362.468 Q38.1912 362.532 35.3266 365.173 Q32.4621 367.783 32.4621 372.112 Q32.4621 377.014 35.2312 379.974 Q38.0002 382.902 43.0292 383.348 L42.9973 362.468 Z" fill="#000000" fill-rule="nonzero" fill-opacity="1" /><path clip-path="url(#clip050)" d="M14.479 347.222 L14.479 341.334 L43.7294 341.334 L28.3562 323.86 L28.3562 316.38 L45.0344 335.286 L64.0042 315.585 L64.0042 323.223 L46.5939 341.334 L64.0042 341.334 L64.0042 347.222 L14.479 347.222 Z" fill="#000000" fill-rule="nonzero" fill-opacity="1" /><path clip-path="url(#clip050)" d="M18.2347 282.738 L28.3562 282.738 L28.3562 270.675 L32.9077 270.675 L32.9077 282.738 L52.2594 282.738 Q56.6199 282.738 57.8613 281.56 Q59.1026 280.35 59.1026 276.69 L59.1026 270.675 L64.0042 270.675 L64.0042 276.69 Q64.0042 283.47 61.4897 286.048 Q58.9434 288.626 52.2594 288.626 L32.9077 288.626 L32.9077 292.923 L28.3562 292.923 L28.3562 288.626 L18.2347 288.626 L18.2347 282.738 Z" fill="#000000" fill-rule="nonzero" fill-opacity="1" /><path clip-path="url(#clip050)" d="M43.5384 265.932 L43.5384 248.776 L48.7583 248.776 L48.7583 265.932 L43.5384 265.932 Z" fill="#000000" fill-rule="nonzero" fill-opacity="1" /><path clip-path="url(#clip050)" d="M46.212 213.861 Q39.7508 213.861 36.0905 216.534 Q32.3984 219.176 32.3984 223.823 Q32.3984 228.47 36.0905 231.143 Q39.7508 233.785 46.212 233.785 Q52.6732 233.785 56.3653 231.143 Q60.0256 228.47 60.0256 223.823 Q60.0256 219.176 56.3653 216.534 Q52.6732 213.861 46.212 213.861 M33.7671 233.785 Q30.5842 231.939 29.0564 229.138 Q27.4968 226.306 27.4968 222.391 Q27.4968 215.898 32.6531 211.855 Q37.8093 207.781 46.212 207.781 Q54.6147 207.781 59.771 211.855 Q64.9272 215.898 64.9272 222.391 Q64.9272 226.306 63.3994 229.138 Q61.8398 231.939 58.657 233.785 L64.0042 233.785 L64.0042 239.674 L14.479 239.674 L14.479 233.785 L33.7671 233.785 Z" fill="#000000" fill-rule="nonzero" fill-opacity="1" /><path clip-path="url(#clip050)" d="M28.3562 198.074 L28.3562 192.217 L64.0042 192.217 L64.0042 198.074 L28.3562 198.074 M14.479 198.074 L14.479 192.217 L21.895 192.217 L21.895 198.074 L14.479 198.074 Z" fill="#000000" fill-rule="nonzero" fill-opacity="1" /><path clip-path="url(#clip050)" d="M14.479 179.963 L14.479 174.107 L64.0042 174.107 L64.0042 179.963 L14.479 179.963 Z" fill="#000000" fill-rule="nonzero" fill-opacity="1" /><path clip-path="url(#clip050)" d="M14.479 161.853 L14.479 155.996 L64.0042 155.996 L64.0042 161.853 L14.479 161.853 Z" fill="#000000" fill-rule="nonzero" fill-opacity="1" /><polyline clip-path="url(#clip052)" style="stroke:#009af9; stroke-linecap:round; stroke-linejoin:round; stroke-width:12; stroke-opacity:1; fill:none" points="237.067,1374.48 245.35,1371.23 253.632,1374.48 261.915,1377.73 270.197,1374.48 278.48,1374.48 286.762,1377.73 295.045,1377.73 303.327,1374.48 311.61,1374.48 319.892,1374.48 328.175,1374.48 336.458,1374.48 344.74,1374.48 353.023,1374.48 361.305,1374.48 369.588,1374.48 377.87,1377.73 386.153,1377.73 394.435,1380.99 402.718,1377.73 411,1377.73 419.283,1380.99 427.565,1374.48 435.848,1380.99 444.13,1380.99 452.413,1380.99 460.695,1374.48 468.978,1380.99 477.26,1380.99 485.543,1384.24 493.826,1380.99 502.108,1371.23 510.391,1380.99 518.673,1380.99 526.956,1384.24 535.238,1374.48 543.521,1380.99 551.803,1371.23 560.086,1358.21 568.368,1351.71 576.651,1328.93 584.933,1341.95 593.216,1335.44 601.498,1341.95 609.781,1335.44 618.063,1328.93 626.346,1335.44 634.629,1319.17 642.911,1322.43 651.194,1315.92 659.476,1325.68 667.759,1328.93 676.041,1322.43 684.324,1325.68 692.606,1345.2 700.889,1338.69 709.171,1335.44 717.454,1332.19 725.736,1335.44 734.019,1348.45 742.301,1335.44 750.584,1341.95 758.866,1335.44 767.149,1335.44 775.431,1328.93 783.714,1322.43 791.997,1325.68 800.279,1322.43 808.562,1328.93 816.844,1315.92 825.127,1270.37 833.409,1270.37 841.692,1276.88 849.974,1283.39 858.257,1228.08 866.539,1241.09 874.822,1263.87 883.104,1273.63 891.387,1276.88 899.669,1270.37 907.952,1270.37 916.234,1267.12 924.517,1247.6 932.799,1244.35 941.082,1231.33 949.365,1234.59 957.647,1231.33 965.93,1211.82 974.212,1208.56 982.495,1195.55 990.777,1176.03 999.06,1189.04 1007.34,1202.06 1015.62,1228.08 1023.91,1179.28 1032.19,1189.04 1040.47,1221.58 1048.75,1224.83 1057.04,1221.58 1065.32,1163.02 1073.6,1169.52 1081.88,1159.76 1090.17,1146.75 1098.45,1117.47 1106.73,1110.96 1115.02,1107.71 1123.3,1114.22 1131.58,1110.96 1139.86,1052.41 1148.15,1036.14 1156.43,1029.63 1164.71,1016.62 1172.99,1013.37 1181.28,1006.86 1189.56,1023.13 1197.84,1052.41 1206.12,1091.44 1214.41,1029.63 1222.69,1006.86 1230.97,1023.13 1239.25,1042.65 1247.54,1045.9 1255.82,980.833 1264.1,980.833 1272.38,977.58 1280.67,971.074 1288.95,892.995 1297.23,886.489 1305.51,892.995 1313.8,879.982 1322.08,844.196 1330.36,753.105 1338.64,756.358 1346.93,769.371 1355.21,782.384 1363.49,792.144 1371.77,701.053 1380.06,701.053 1388.34,707.559 1396.62,701.053 1404.9,710.812 1413.19,691.293 1421.47,688.04 1429.75,691.293 1438.03,691.293 1446.32,694.546 1454.6,701.053 1462.88,694.546 1471.16,694.546 1479.45,694.546 1487.73,691.293 1496.01,684.786 1504.29,688.04 1512.58,681.533 1520.86,688.04 1529.14,704.306 1537.42,688.04 1545.71,688.04 1553.99,681.533 1562.27,684.786 1570.55,684.786 1578.84,629.481 1587.12,639.241 1595.4,626.228 1603.68,635.987 1611.97,645.747 1620.25,590.442 1628.53,603.455 1636.81,629.481 1645.1,681.533 1653.38,577.429 1661.66,577.429 1669.94,564.416 1678.23,593.695 1686.51,600.201 1694.79,518.87 1703.07,544.896 1711.36,567.669 1719.64,587.188 1727.92,590.442 1736.2,528.63 1744.49,548.149 1752.77,531.883 1761.05,544.896 1769.33,577.429 1777.62,518.87 1785.9,512.363 1794.18,496.097 1802.46,489.59 1810.75,499.35 1819.03,434.285 1827.31,440.792 1835.59,440.792 1843.88,444.045 1852.16,339.94 1860.44,356.207 1868.73,362.713 1877.01,388.739 1885.29,372.473 1893.57,271.622 1901.86,278.128 1910.14,278.128 1918.42,284.635 1926.7,297.648 1934.99,216.316 1943.27,219.57 1951.55,229.329 1959.83,232.583 1968.12,242.342 1976.4,209.81 1984.68,219.57 1992.96,206.556 2001.25,248.849 2009.53,258.609 2017.81,226.076 2026.09,226.076 2034.38,213.063 2042.66,206.556 2050.94,154.504 2059.22,157.757 2067.51,147.998 2075.79,151.251 2084.07,99.1987 2092.35,86.1857 2100.64,102.452 2108.92,115.465 2117.2,118.718 2125.48,131.731 2133.77,170.771 2142.05,170.771 2150.33,193.543 2158.61,219.57 2166.9,216.316 2175.18,200.05 2183.46,193.543 2191.74,183.784 2200.03,177.277 2208.31,157.757 2216.59,161.011 2224.87,164.264 2233.16,190.29 2241.44,200.05 2249.72,203.303 2258,203.303 2266.29,213.063 2274.57,229.329 2282.85,128.478 2291.13,105.705 "/>
<path clip-path="url(#clip050)" d="M248.022 196.789 L1117.16 196.789 L1117.16 93.1086 L248.022 93.1086  Z" fill="#eee9e9" fill-rule="evenodd" fill-opacity="1"/>
<polyline clip-path="url(#clip050)" style="stroke:#000000; stroke-linecap:round; stroke-linejoin:round; stroke-width:4; stroke-opacity:0; fill:none" points="248.022,196.789 1117.16,196.789 1117.16,93.1086 248.022,93.1086 248.022,196.789 "/>
<polyline clip-path="url(#clip050)" style="stroke:#009af9; stroke-linecap:round; stroke-linejoin:round; stroke-width:12; stroke-opacity:1; fill:none" points="272.215,144.949 417.369,144.949 "/>
<path clip-path="url(#clip050)" d="M457.163 131.743 L445.357 150.192 L457.163 150.192 L457.163 131.743 M455.936 127.669 L461.815 127.669 L461.815 150.192 L466.746 150.192 L466.746 154.081 L461.815 154.081 L461.815 162.229 L457.163 162.229 L457.163 154.081 L441.561 154.081 L441.561 149.567 L455.936 127.669 Z" fill="#000000" fill-rule="nonzero" fill-opacity="1" /><path clip-path="url(#clip050)" d="M471.723 147.344 L484.2 147.344 L484.2 151.141 L471.723 151.141 L471.723 147.344 Z" fill="#000000" fill-rule="nonzero" fill-opacity="1" /><path clip-path="url(#clip050)" d="M488.505 136.303 L492.764 136.303 L498.088 156.534 L503.389 136.303 L508.412 136.303 L513.736 156.534 L519.037 136.303 L523.297 136.303 L516.514 162.229 L511.491 162.229 L505.912 140.979 L500.311 162.229 L495.288 162.229 L488.505 136.303 Z" fill="#000000" fill-rule="nonzero" fill-opacity="1" /><path clip-path="url(#clip050)" d="M551.931 148.201 L551.931 150.284 L532.348 150.284 Q532.625 154.682 534.986 156.997 Q537.371 159.289 541.607 159.289 Q544.06 159.289 546.352 158.687 Q548.667 158.085 550.935 156.881 L550.935 160.909 Q548.644 161.881 546.236 162.391 Q543.829 162.9 541.352 162.9 Q535.148 162.9 531.514 159.289 Q527.903 155.678 527.903 149.52 Q527.903 143.155 531.329 139.428 Q534.778 135.678 540.611 135.678 Q545.843 135.678 548.875 139.057 Q551.931 142.414 551.931 148.201 M547.672 146.951 Q547.625 143.456 545.704 141.372 Q543.806 139.289 540.658 139.289 Q537.093 139.289 534.94 141.303 Q532.81 143.317 532.486 146.974 L547.672 146.951 Z" fill="#000000" fill-rule="nonzero" fill-opacity="1" /><path clip-path="url(#clip050)" d="M581.097 148.201 L581.097 150.284 L561.514 150.284 Q561.792 154.682 564.153 156.997 Q566.537 159.289 570.773 159.289 Q573.227 159.289 575.519 158.687 Q577.833 158.085 580.102 156.881 L580.102 160.909 Q577.81 161.881 575.403 162.391 Q572.995 162.9 570.519 162.9 Q564.315 162.9 560.681 159.289 Q557.07 155.678 557.07 149.52 Q557.07 143.155 560.496 139.428 Q563.945 135.678 569.778 135.678 Q575.009 135.678 578.042 139.057 Q581.097 142.414 581.097 148.201 M576.838 146.951 Q576.792 143.456 574.87 141.372 Q572.972 139.289 569.824 139.289 Q566.259 139.289 564.107 141.303 Q561.977 143.317 561.653 146.974 L576.838 146.951 Z" fill="#000000" fill-rule="nonzero" fill-opacity="1" /><path clip-path="url(#clip050)" d="M587.926 126.21 L592.208 126.21 L592.208 147.483 L604.917 136.303 L610.356 136.303 L596.606 148.432 L610.935 162.229 L605.38 162.229 L592.208 149.567 L592.208 162.229 L587.926 162.229 L587.926 126.21 Z" fill="#000000" fill-rule="nonzero" fill-opacity="1" /><path clip-path="url(#clip050)" d="M635.472 145.724 L635.472 158.386 L642.972 158.386 Q646.745 158.386 648.551 156.835 Q650.379 155.261 650.379 152.043 Q650.379 148.803 648.551 147.275 Q646.745 145.724 642.972 145.724 L635.472 145.724 M635.472 131.511 L635.472 141.928 L642.393 141.928 Q645.819 141.928 647.486 140.655 Q649.176 139.358 649.176 136.719 Q649.176 134.104 647.486 132.807 Q645.819 131.511 642.393 131.511 L635.472 131.511 M630.796 127.669 L642.74 127.669 Q648.088 127.669 650.981 129.891 Q653.875 132.113 653.875 136.21 Q653.875 139.382 652.393 141.257 Q650.912 143.131 648.041 143.594 Q651.49 144.335 653.389 146.696 Q655.31 149.034 655.31 152.553 Q655.31 157.182 652.162 159.705 Q649.014 162.229 643.203 162.229 L630.796 162.229 L630.796 127.669 Z" fill="#000000" fill-rule="nonzero" fill-opacity="1" /><path clip-path="url(#clip050)" d="M674.916 149.196 Q669.754 149.196 667.763 150.377 Q665.773 151.557 665.773 154.405 Q665.773 156.673 667.254 158.016 Q668.759 159.335 671.328 159.335 Q674.87 159.335 677 156.835 Q679.152 154.312 679.152 150.145 L679.152 149.196 L674.916 149.196 M683.412 147.437 L683.412 162.229 L679.152 162.229 L679.152 158.293 Q677.694 160.655 675.518 161.789 Q673.342 162.9 670.194 162.9 Q666.213 162.9 663.851 160.678 Q661.513 158.432 661.513 154.682 Q661.513 150.307 664.43 148.085 Q667.37 145.863 673.18 145.863 L679.152 145.863 L679.152 145.446 Q679.152 142.507 677.208 140.909 Q675.287 139.289 671.791 139.289 Q669.569 139.289 667.463 139.821 Q665.356 140.354 663.412 141.419 L663.412 137.483 Q665.75 136.581 667.949 136.141 Q670.148 135.678 672.231 135.678 Q677.856 135.678 680.634 138.594 Q683.412 141.511 683.412 147.437 Z" fill="#000000" fill-rule="nonzero" fill-opacity="1" /><path clip-path="url(#clip050)" d="M713.735 146.581 L713.735 162.229 L709.476 162.229 L709.476 146.719 Q709.476 143.039 708.041 141.21 Q706.606 139.382 703.735 139.382 Q700.286 139.382 698.296 141.581 Q696.305 143.78 696.305 147.576 L696.305 162.229 L692.023 162.229 L692.023 136.303 L696.305 136.303 L696.305 140.331 Q697.833 137.993 699.893 136.835 Q701.976 135.678 704.685 135.678 Q709.152 135.678 711.444 138.456 Q713.735 141.21 713.735 146.581 Z" fill="#000000" fill-rule="nonzero" fill-opacity="1" /><path clip-path="url(#clip050)" d="M722.069 126.21 L726.351 126.21 L726.351 147.483 L739.059 136.303 L744.499 136.303 L730.749 148.432 L745.078 162.229 L739.522 162.229 L726.351 149.567 L726.351 162.229 L722.069 162.229 L722.069 126.21 Z" fill="#000000" fill-rule="nonzero" fill-opacity="1" /><path clip-path="url(#clip050)" d="M781.814 140.238 L781.814 126.21 L786.073 126.21 L786.073 162.229 L781.814 162.229 L781.814 158.34 Q780.471 160.655 778.411 161.789 Q776.374 162.9 773.504 162.9 Q768.805 162.9 765.842 159.15 Q762.902 155.4 762.902 149.289 Q762.902 143.178 765.842 139.428 Q768.805 135.678 773.504 135.678 Q776.374 135.678 778.411 136.812 Q780.471 137.923 781.814 140.238 M767.3 149.289 Q767.3 153.988 769.221 156.673 Q771.166 159.335 774.545 159.335 Q777.925 159.335 779.869 156.673 Q781.814 153.988 781.814 149.289 Q781.814 144.59 779.869 141.928 Q777.925 139.243 774.545 139.243 Q771.166 139.243 769.221 141.928 Q767.3 144.59 767.3 149.289 Z" fill="#000000" fill-rule="nonzero" fill-opacity="1" /><path clip-path="url(#clip050)" d="M794.846 136.303 L799.105 136.303 L799.105 162.229 L794.846 162.229 L794.846 136.303 M794.846 126.21 L799.105 126.21 L799.105 131.604 L794.846 131.604 L794.846 126.21 Z" fill="#000000" fill-rule="nonzero" fill-opacity="1" /><path clip-path="url(#clip050)" d="M824.545 137.067 L824.545 141.094 Q822.739 140.169 820.795 139.706 Q818.851 139.243 816.767 139.243 Q813.596 139.243 811.999 140.215 Q810.425 141.187 810.425 143.131 Q810.425 144.613 811.559 145.469 Q812.693 146.303 816.119 147.067 L817.577 147.391 Q822.114 148.363 824.013 150.145 Q825.934 151.905 825.934 155.076 Q825.934 158.687 823.064 160.793 Q820.216 162.9 815.216 162.9 Q813.133 162.9 810.865 162.483 Q808.619 162.09 806.119 161.28 L806.119 156.881 Q808.48 158.108 810.772 158.733 Q813.064 159.335 815.309 159.335 Q818.318 159.335 819.939 158.317 Q821.559 157.275 821.559 155.4 Q821.559 153.664 820.378 152.738 Q819.221 151.812 815.263 150.956 L813.781 150.608 Q809.823 149.775 808.064 148.062 Q806.304 146.326 806.304 143.317 Q806.304 139.659 808.897 137.669 Q811.49 135.678 816.258 135.678 Q818.619 135.678 820.702 136.025 Q822.786 136.372 824.545 137.067 Z" fill="#000000" fill-rule="nonzero" fill-opacity="1" /><path clip-path="url(#clip050)" d="M851.374 137.298 L851.374 141.28 Q849.568 140.284 847.739 139.798 Q845.934 139.289 844.082 139.289 Q839.938 139.289 837.647 141.928 Q835.355 144.544 835.355 149.289 Q835.355 154.034 837.647 156.673 Q839.938 159.289 844.082 159.289 Q845.934 159.289 847.739 158.803 Q849.568 158.293 851.374 157.298 L851.374 161.233 Q849.591 162.067 847.67 162.483 Q845.772 162.9 843.619 162.9 Q837.763 162.9 834.313 159.219 Q830.864 155.539 830.864 149.289 Q830.864 142.946 834.337 139.312 Q837.832 135.678 843.897 135.678 Q845.864 135.678 847.739 136.095 Q849.614 136.488 851.374 137.298 Z" fill="#000000" fill-rule="nonzero" fill-opacity="1" /><path clip-path="url(#clip050)" d="M868.827 139.289 Q865.401 139.289 863.411 141.974 Q861.42 144.636 861.42 149.289 Q861.42 153.942 863.387 156.627 Q865.378 159.289 868.827 159.289 Q872.23 159.289 874.221 156.604 Q876.211 153.918 876.211 149.289 Q876.211 144.682 874.221 141.997 Q872.23 139.289 868.827 139.289 M868.827 135.678 Q874.383 135.678 877.554 139.289 Q880.725 142.9 880.725 149.289 Q880.725 155.655 877.554 159.289 Q874.383 162.9 868.827 162.9 Q863.249 162.9 860.077 159.289 Q856.929 155.655 856.929 149.289 Q856.929 142.9 860.077 139.289 Q863.249 135.678 868.827 135.678 Z" fill="#000000" fill-rule="nonzero" fill-opacity="1" /><path clip-path="url(#clip050)" d="M887.346 151.997 L887.346 136.303 L891.605 136.303 L891.605 151.835 Q891.605 155.516 893.04 157.368 Q894.475 159.196 897.346 159.196 Q900.795 159.196 902.785 156.997 Q904.799 154.798 904.799 151.002 L904.799 136.303 L909.058 136.303 L909.058 162.229 L904.799 162.229 L904.799 158.247 Q903.248 160.608 901.188 161.766 Q899.151 162.9 896.443 162.9 Q891.975 162.9 889.66 160.122 Q887.346 157.344 887.346 151.997 M898.063 135.678 L898.063 135.678 Z" fill="#000000" fill-rule="nonzero" fill-opacity="1" /><path clip-path="url(#clip050)" d="M939.382 146.581 L939.382 162.229 L935.123 162.229 L935.123 146.719 Q935.123 143.039 933.688 141.21 Q932.253 139.382 929.382 139.382 Q925.933 139.382 923.943 141.581 Q921.952 143.78 921.952 147.576 L921.952 162.229 L917.67 162.229 L917.67 136.303 L921.952 136.303 L921.952 140.331 Q923.48 137.993 925.54 136.835 Q927.623 135.678 930.331 135.678 Q934.799 135.678 937.091 138.456 Q939.382 141.21 939.382 146.581 Z" fill="#000000" fill-rule="nonzero" fill-opacity="1" /><path clip-path="url(#clip050)" d="M952.091 128.942 L952.091 136.303 L960.864 136.303 L960.864 139.613 L952.091 139.613 L952.091 153.687 Q952.091 156.858 952.947 157.761 Q953.827 158.664 956.489 158.664 L960.864 158.664 L960.864 162.229 L956.489 162.229 Q951.558 162.229 949.683 160.4 Q947.808 158.548 947.808 153.687 L947.808 139.613 L944.683 139.613 L944.683 136.303 L947.808 136.303 L947.808 128.942 L952.091 128.942 Z" fill="#000000" fill-rule="nonzero" fill-opacity="1" /><path clip-path="url(#clip050)" d="M986.165 158.293 L1002.48 158.293 L1002.48 162.229 L980.54 162.229 L980.54 158.293 Q983.202 155.539 987.785 150.909 Q992.391 146.256 993.572 144.914 Q995.817 142.391 996.697 140.655 Q997.6 138.895 997.6 137.206 Q997.6 134.451 995.655 132.715 Q993.734 130.979 990.632 130.979 Q988.433 130.979 985.979 131.743 Q983.549 132.507 980.771 134.057 L980.771 129.335 Q983.595 128.201 986.049 127.622 Q988.502 127.044 990.539 127.044 Q995.91 127.044 999.104 129.729 Q1002.3 132.414 1002.3 136.905 Q1002.3 139.034 1001.49 140.956 Q1000.7 142.854 998.595 145.446 Q998.016 146.118 994.914 149.335 Q991.813 152.53 986.165 158.293 Z" fill="#000000" fill-rule="nonzero" fill-opacity="1" /><path clip-path="url(#clip050)" d="M1022.3 130.747 Q1018.69 130.747 1016.86 134.312 Q1015.05 137.854 1015.05 144.983 Q1015.05 152.09 1016.86 155.655 Q1018.69 159.196 1022.3 159.196 Q1025.93 159.196 1027.74 155.655 Q1029.57 152.09 1029.57 144.983 Q1029.57 137.854 1027.74 134.312 Q1025.93 130.747 1022.3 130.747 M1022.3 127.044 Q1028.11 127.044 1031.16 131.65 Q1034.24 136.233 1034.24 144.983 Q1034.24 153.71 1031.16 158.317 Q1028.11 162.9 1022.3 162.9 Q1016.49 162.9 1013.41 158.317 Q1010.35 153.71 1010.35 144.983 Q1010.35 136.233 1013.41 131.65 Q1016.49 127.044 1022.3 127.044 Z" fill="#000000" fill-rule="nonzero" fill-opacity="1" /><path clip-path="url(#clip050)" d="M1046.49 158.293 L1062.81 158.293 L1062.81 162.229 L1040.86 162.229 L1040.86 158.293 Q1043.53 155.539 1048.11 150.909 Q1052.72 146.256 1053.9 144.914 Q1056.14 142.391 1057.02 140.655 Q1057.92 138.895 1057.92 137.206 Q1057.92 134.451 1055.98 132.715 Q1054.06 130.979 1050.96 130.979 Q1048.76 130.979 1046.3 131.743 Q1043.87 132.507 1041.09 134.057 L1041.09 129.335 Q1043.92 128.201 1046.37 127.622 Q1048.83 127.044 1050.86 127.044 Q1056.23 127.044 1059.43 129.729 Q1062.62 132.414 1062.62 136.905 Q1062.62 139.034 1061.81 140.956 Q1061.03 142.854 1058.92 145.446 Q1058.34 146.118 1055.24 149.335 Q1052.14 152.53 1046.49 158.293 Z" fill="#000000" fill-rule="nonzero" fill-opacity="1" /><path clip-path="url(#clip050)" d="M1076.65 158.293 L1092.97 158.293 L1092.97 162.229 L1071.03 162.229 L1071.03 158.293 Q1073.69 155.539 1078.27 150.909 Q1082.88 146.256 1084.06 144.914 Q1086.3 142.391 1087.18 140.655 Q1088.09 138.895 1088.09 137.206 Q1088.09 134.451 1086.14 132.715 Q1084.22 130.979 1081.12 130.979 Q1078.92 130.979 1076.46 131.743 Q1074.03 132.507 1071.26 134.057 L1071.26 129.335 Q1074.08 128.201 1076.53 127.622 Q1078.99 127.044 1081.03 127.044 Q1086.4 127.044 1089.59 129.729 Q1092.78 132.414 1092.78 136.905 Q1092.78 139.034 1091.97 140.956 Q1091.19 142.854 1089.08 145.446 Q1088.5 146.118 1085.4 149.335 Q1082.3 152.53 1076.65 158.293 Z" fill="#000000" fill-rule="nonzero" fill-opacity="1" /></svg>
