<?xml version="1.0" encoding="utf-8"?>
<svg xmlns="http://www.w3.org/2000/svg" xmlns:xlink="http://www.w3.org/1999/xlink" width="600" height="400" viewBox="0 0 2400 1600">
<defs>
  <clipPath id="clip900">
    <rect x="0" y="0" width="2400" height="1600"/>
  </clipPath>
</defs>
<path clip-path="url(#clip900)" d="M0 1600 L2400 1600 L2400 0 L0 0  Z" fill="#ffffff" fill-rule="evenodd" fill-opacity="1"/>
<defs>
  <clipPath id="clip901">
    <rect x="480" y="0" width="1681" height="1600"/>
  </clipPath>
</defs>
<path clip-path="url(#clip900)" d="M262.551 1423.18 L2352.76 1423.18 L2352.76 47.2441 L262.551 47.2441  Z" fill="#eee9e9" fill-rule="evenodd" fill-opacity="1"/>
<defs>
  <clipPath id="clip902">
    <rect x="262" y="47" width="2091" height="1377"/>
  </clipPath>
</defs>
<polyline clip-path="url(#clip902)" style="stroke:#000000; stroke-linecap:round; stroke-linejoin:round; stroke-width:2; stroke-opacity:0.1; fill:none" points="313.757,1423.18 313.757,47.2441 "/>
<polyline clip-path="url(#clip902)" style="stroke:#000000; stroke-linecap:round; stroke-linejoin:round; stroke-width:2; stroke-opacity:0.1; fill:none" points="711.315,1423.18 711.315,47.2441 "/>
<polyline clip-path="url(#clip902)" style="stroke:#000000; stroke-linecap:round; stroke-linejoin:round; stroke-width:2; stroke-opacity:0.1; fill:none" points="1108.87,1423.18 1108.87,47.2441 "/>
<polyline clip-path="url(#clip902)" style="stroke:#000000; stroke-linecap:round; stroke-linejoin:round; stroke-width:2; stroke-opacity:0.1; fill:none" points="1506.43,1423.18 1506.43,47.2441 "/>
<polyline clip-path="url(#clip902)" style="stroke:#000000; stroke-linecap:round; stroke-linejoin:round; stroke-width:2; stroke-opacity:0.1; fill:none" points="1903.99,1423.18 1903.99,47.2441 "/>
<polyline clip-path="url(#clip902)" style="stroke:#000000; stroke-linecap:round; stroke-linejoin:round; stroke-width:2; stroke-opacity:0.1; fill:none" points="2301.55,1423.18 2301.55,47.2441 "/>
<polyline clip-path="url(#clip900)" style="stroke:#000000; stroke-linecap:round; stroke-linejoin:round; stroke-width:4; stroke-opacity:1; fill:none" points="262.551,1423.18 2352.76,1423.18 "/>
<polyline clip-path="url(#clip900)" style="stroke:#000000; stroke-linecap:round; stroke-linejoin:round; stroke-width:4; stroke-opacity:1; fill:none" points="262.551,47.2441 2352.76,47.2441 "/>
<polyline clip-path="url(#clip900)" style="stroke:#000000; stroke-linecap:round; stroke-linejoin:round; stroke-width:4; stroke-opacity:1; fill:none" points="313.757,1423.18 313.757,1404.28 "/>
<polyline clip-path="url(#clip900)" style="stroke:#000000; stroke-linecap:round; stroke-linejoin:round; stroke-width:4; stroke-opacity:1; fill:none" points="711.315,1423.18 711.315,1404.28 "/>
<polyline clip-path="url(#clip900)" style="stroke:#000000; stroke-linecap:round; stroke-linejoin:round; stroke-width:4; stroke-opacity:1; fill:none" points="1108.87,1423.18 1108.87,1404.28 "/>
<polyline clip-path="url(#clip900)" style="stroke:#000000; stroke-linecap:round; stroke-linejoin:round; stroke-width:4; stroke-opacity:1; fill:none" points="1506.43,1423.18 1506.43,1404.28 "/>
<polyline clip-path="url(#clip900)" style="stroke:#000000; stroke-linecap:round; stroke-linejoin:round; stroke-width:4; stroke-opacity:1; fill:none" points="1903.99,1423.18 1903.99,1404.28 "/>
<polyline clip-path="url(#clip900)" style="stroke:#000000; stroke-linecap:round; stroke-linejoin:round; stroke-width:4; stroke-opacity:1; fill:none" points="2301.55,1423.18 2301.55,1404.28 "/>
<path clip-path="url(#clip900)" d="M313.757 1454.1 Q310.146 1454.1 308.317 1457.66 Q306.511 1461.2 306.511 1468.33 Q306.511 1475.44 308.317 1479.01 Q310.146 1482.55 313.757 1482.55 Q317.391 1482.55 319.197 1479.01 Q321.025 1475.44 321.025 1468.33 Q321.025 1461.2 319.197 1457.66 Q317.391 1454.1 313.757 1454.1 M313.757 1450.39 Q319.567 1450.39 322.622 1455 Q325.701 1459.58 325.701 1468.33 Q325.701 1477.06 322.622 1481.67 Q319.567 1486.25 313.757 1486.25 Q307.947 1486.25 304.868 1481.67 Q301.812 1477.06 301.812 1468.33 Q301.812 1459.58 304.868 1455 Q307.947 1450.39 313.757 1450.39 Z" fill="#000000" fill-rule="nonzero" fill-opacity="1" /><path clip-path="url(#clip900)" d="M686.015 1451.02 L704.371 1451.02 L704.371 1454.96 L690.297 1454.96 L690.297 1463.43 Q691.316 1463.08 692.334 1462.92 Q693.353 1462.73 694.371 1462.73 Q700.158 1462.73 703.538 1465.9 Q706.917 1469.08 706.917 1474.49 Q706.917 1480.07 703.445 1483.17 Q699.973 1486.25 693.654 1486.25 Q691.478 1486.25 689.209 1485.88 Q686.964 1485.51 684.556 1484.77 L684.556 1480.07 Q686.64 1481.2 688.862 1481.76 Q691.084 1482.32 693.561 1482.32 Q697.566 1482.32 699.904 1480.21 Q702.241 1478.1 702.241 1474.49 Q702.241 1470.88 699.904 1468.77 Q697.566 1466.67 693.561 1466.67 Q691.686 1466.67 689.811 1467.08 Q687.959 1467.5 686.015 1468.38 L686.015 1451.02 Z" fill="#000000" fill-rule="nonzero" fill-opacity="1" /><path clip-path="url(#clip900)" d="M726.13 1454.1 Q722.519 1454.1 720.69 1457.66 Q718.885 1461.2 718.885 1468.33 Q718.885 1475.44 720.69 1479.01 Q722.519 1482.55 726.13 1482.55 Q729.764 1482.55 731.57 1479.01 Q733.399 1475.44 733.399 1468.33 Q733.399 1461.2 731.57 1457.66 Q729.764 1454.1 726.13 1454.1 M726.13 1450.39 Q731.94 1450.39 734.996 1455 Q738.075 1459.58 738.075 1468.33 Q738.075 1477.06 734.996 1481.67 Q731.94 1486.25 726.13 1486.25 Q720.32 1486.25 717.241 1481.67 Q714.186 1477.06 714.186 1468.33 Q714.186 1459.58 717.241 1455 Q720.32 1450.39 726.13 1450.39 Z" fill="#000000" fill-rule="nonzero" fill-opacity="1" /><path clip-path="url(#clip900)" d="M1068.48 1481.64 L1076.12 1481.64 L1076.12 1455.28 L1067.81 1456.95 L1067.81 1452.69 L1076.07 1451.02 L1080.75 1451.02 L1080.75 1481.64 L1088.39 1481.64 L1088.39 1485.58 L1068.48 1485.58 L1068.48 1481.64 Z" fill="#000000" fill-rule="nonzero" fill-opacity="1" /><path clip-path="url(#clip900)" d="M1107.83 1454.1 Q1104.22 1454.1 1102.39 1457.66 Q1100.59 1461.2 1100.59 1468.33 Q1100.59 1475.44 1102.39 1479.01 Q1104.22 1482.55 1107.83 1482.55 Q1111.47 1482.55 1113.27 1479.01 Q1115.1 1475.44 1115.1 1468.33 Q1115.1 1461.2 1113.27 1457.66 Q1111.47 1454.1 1107.83 1454.1 M1107.83 1450.39 Q1113.64 1450.39 1116.7 1455 Q1119.78 1459.58 1119.78 1468.33 Q1119.78 1477.06 1116.7 1481.67 Q1113.64 1486.25 1107.83 1486.25 Q1102.02 1486.25 1098.94 1481.67 Q1095.89 1477.06 1095.89 1468.33 Q1095.89 1459.58 1098.94 1455 Q1102.02 1450.39 1107.83 1450.39 Z" fill="#000000" fill-rule="nonzero" fill-opacity="1" /><path clip-path="url(#clip900)" d="M1137.99 1454.1 Q1134.38 1454.1 1132.55 1457.66 Q1130.75 1461.2 1130.75 1468.33 Q1130.75 1475.44 1132.55 1479.01 Q1134.38 1482.55 1137.99 1482.55 Q1141.63 1482.55 1143.43 1479.01 Q1145.26 1475.44 1145.26 1468.33 Q1145.26 1461.2 1143.43 1457.66 Q1141.63 1454.1 1137.99 1454.1 M1137.99 1450.39 Q1143.8 1450.39 1146.86 1455 Q1149.94 1459.58 1149.94 1468.33 Q1149.94 1477.06 1146.86 1481.67 Q1143.8 1486.25 1137.99 1486.25 Q1132.18 1486.25 1129.11 1481.67 Q1126.05 1477.06 1126.05 1468.33 Q1126.05 1459.58 1129.11 1455 Q1132.18 1450.39 1137.99 1450.39 Z" fill="#000000" fill-rule="nonzero" fill-opacity="1" /><path clip-path="url(#clip900)" d="M1466.04 1481.64 L1473.68 1481.64 L1473.68 1455.28 L1465.37 1456.95 L1465.37 1452.69 L1473.63 1451.02 L1478.31 1451.02 L1478.31 1481.64 L1485.95 1481.64 L1485.95 1485.58 L1466.04 1485.58 L1466.04 1481.64 Z" fill="#000000" fill-rule="nonzero" fill-opacity="1" /><path clip-path="url(#clip900)" d="M1495.44 1451.02 L1513.79 1451.02 L1513.79 1454.96 L1499.72 1454.96 L1499.72 1463.43 Q1500.74 1463.08 1501.76 1462.92 Q1502.78 1462.73 1503.79 1462.73 Q1509.58 1462.73 1512.96 1465.9 Q1516.34 1469.08 1516.34 1474.49 Q1516.34 1480.07 1512.87 1483.17 Q1509.4 1486.25 1503.08 1486.25 Q1500.9 1486.25 1498.63 1485.88 Q1496.39 1485.51 1493.98 1484.77 L1493.98 1480.07 Q1496.06 1481.2 1498.28 1481.76 Q1500.51 1482.32 1502.98 1482.32 Q1506.99 1482.32 1509.33 1480.21 Q1511.66 1478.1 1511.66 1474.49 Q1511.66 1470.88 1509.33 1468.77 Q1506.99 1466.67 1502.98 1466.67 Q1501.11 1466.67 1499.23 1467.08 Q1497.38 1467.5 1495.44 1468.38 L1495.44 1451.02 Z" fill="#000000" fill-rule="nonzero" fill-opacity="1" /><path clip-path="url(#clip900)" d="M1535.55 1454.1 Q1531.94 1454.1 1530.11 1457.66 Q1528.31 1461.2 1528.31 1468.33 Q1528.31 1475.44 1530.11 1479.01 Q1531.94 1482.55 1535.55 1482.55 Q1539.19 1482.55 1540.99 1479.01 Q1542.82 1475.44 1542.82 1468.33 Q1542.82 1461.2 1540.99 1457.66 Q1539.19 1454.1 1535.55 1454.1 M1535.55 1450.39 Q1541.36 1450.39 1544.42 1455 Q1547.5 1459.58 1547.5 1468.33 Q1547.5 1477.06 1544.42 1481.67 Q1541.36 1486.25 1535.55 1486.25 Q1529.74 1486.25 1526.66 1481.67 Q1523.61 1477.06 1523.61 1468.33 Q1523.61 1459.58 1526.66 1455 Q1529.74 1450.39 1535.55 1450.39 Z" fill="#000000" fill-rule="nonzero" fill-opacity="1" /><path clip-path="url(#clip900)" d="M1867.68 1481.64 L1884 1481.64 L1884 1485.58 L1862.06 1485.58 L1862.06 1481.64 Q1864.72 1478.89 1869.3 1474.26 Q1873.91 1469.61 1875.09 1468.27 Q1877.34 1465.74 1878.22 1464.01 Q1879.12 1462.25 1879.12 1460.56 Q1879.12 1457.8 1877.17 1456.07 Q1875.25 1454.33 1872.15 1454.33 Q1869.95 1454.33 1867.5 1455.09 Q1865.07 1455.86 1862.29 1457.41 L1862.29 1452.69 Q1865.11 1451.55 1867.57 1450.97 Q1870.02 1450.39 1872.06 1450.39 Q1877.43 1450.39 1880.62 1453.08 Q1883.82 1455.77 1883.82 1460.26 Q1883.82 1462.39 1883.01 1464.31 Q1882.22 1466.2 1880.11 1468.8 Q1879.54 1469.47 1876.43 1472.69 Q1873.33 1475.88 1867.68 1481.64 Z" fill="#000000" fill-rule="nonzero" fill-opacity="1" /><path clip-path="url(#clip900)" d="M1903.82 1454.1 Q1900.21 1454.1 1898.38 1457.66 Q1896.57 1461.2 1896.57 1468.33 Q1896.57 1475.44 1898.38 1479.01 Q1900.21 1482.55 1903.82 1482.55 Q1907.45 1482.55 1909.26 1479.01 Q1911.09 1475.44 1911.09 1468.33 Q1911.09 1461.2 1909.26 1457.66 Q1907.45 1454.1 1903.82 1454.1 M1903.82 1450.39 Q1909.63 1450.39 1912.68 1455 Q1915.76 1459.58 1915.76 1468.33 Q1915.76 1477.06 1912.68 1481.67 Q1909.63 1486.25 1903.82 1486.25 Q1898.01 1486.25 1894.93 1481.67 Q1891.87 1477.06 1891.87 1468.33 Q1891.87 1459.58 1894.93 1455 Q1898.01 1450.39 1903.82 1450.39 Z" fill="#000000" fill-rule="nonzero" fill-opacity="1" /><path clip-path="url(#clip900)" d="M1933.98 1454.1 Q1930.37 1454.1 1928.54 1457.66 Q1926.73 1461.2 1926.73 1468.33 Q1926.73 1475.44 1928.54 1479.01 Q1930.37 1482.55 1933.98 1482.55 Q1937.61 1482.55 1939.42 1479.01 Q1941.25 1475.44 1941.25 1468.33 Q1941.25 1461.2 1939.42 1457.66 Q1937.61 1454.1 1933.98 1454.1 M1933.98 1450.39 Q1939.79 1450.39 1942.85 1455 Q1945.92 1459.58 1945.92 1468.33 Q1945.92 1477.06 1942.85 1481.67 Q1939.79 1486.25 1933.98 1486.25 Q1928.17 1486.25 1925.09 1481.67 Q1922.04 1477.06 1922.04 1468.33 Q1922.04 1459.58 1925.09 1455 Q1928.17 1450.39 1933.98 1450.39 Z" fill="#000000" fill-rule="nonzero" fill-opacity="1" /><path clip-path="url(#clip900)" d="M2265.24 1481.64 L2281.56 1481.64 L2281.56 1485.58 L2259.62 1485.58 L2259.62 1481.64 Q2262.28 1478.89 2266.86 1474.26 Q2271.47 1469.61 2272.65 1468.27 Q2274.9 1465.74 2275.78 1464.01 Q2276.68 1462.25 2276.68 1460.56 Q2276.68 1457.8 2274.73 1456.07 Q2272.81 1454.33 2269.71 1454.33 Q2267.51 1454.33 2265.06 1455.09 Q2262.63 1455.86 2259.85 1457.41 L2259.85 1452.69 Q2262.67 1451.55 2265.13 1450.97 Q2267.58 1450.39 2269.62 1450.39 Q2274.99 1450.39 2278.18 1453.08 Q2281.38 1455.77 2281.38 1460.26 Q2281.38 1462.39 2280.57 1464.31 Q2279.78 1466.2 2277.67 1468.8 Q2277.09 1469.47 2273.99 1472.69 Q2270.89 1475.88 2265.24 1481.64 Z" fill="#000000" fill-rule="nonzero" fill-opacity="1" /><path clip-path="url(#clip900)" d="M2291.42 1451.02 L2309.78 1451.02 L2309.78 1454.96 L2295.71 1454.96 L2295.71 1463.43 Q2296.72 1463.08 2297.74 1462.92 Q2298.76 1462.73 2299.78 1462.73 Q2305.57 1462.73 2308.95 1465.9 Q2312.33 1469.08 2312.33 1474.49 Q2312.33 1480.07 2308.85 1483.17 Q2305.38 1486.25 2299.06 1486.25 Q2296.89 1486.25 2294.62 1485.88 Q2292.37 1485.51 2289.96 1484.77 L2289.96 1480.07 Q2292.05 1481.2 2294.27 1481.76 Q2296.49 1482.32 2298.97 1482.32 Q2302.97 1482.32 2305.31 1480.21 Q2307.65 1478.1 2307.65 1474.49 Q2307.65 1470.88 2305.31 1468.77 Q2302.97 1466.67 2298.97 1466.67 Q2297.09 1466.67 2295.22 1467.08 Q2293.37 1467.5 2291.42 1468.38 L2291.42 1451.02 Z" fill="#000000" fill-rule="nonzero" fill-opacity="1" /><path clip-path="url(#clip900)" d="M2331.54 1454.1 Q2327.93 1454.1 2326.1 1457.66 Q2324.29 1461.2 2324.29 1468.33 Q2324.29 1475.44 2326.1 1479.01 Q2327.93 1482.55 2331.54 1482.55 Q2335.17 1482.55 2336.98 1479.01 Q2338.81 1475.44 2338.81 1468.33 Q2338.81 1461.2 2336.98 1457.66 Q2335.17 1454.1 2331.54 1454.1 M2331.54 1450.39 Q2337.35 1450.39 2340.4 1455 Q2343.48 1459.58 2343.48 1468.33 Q2343.48 1477.06 2340.4 1481.67 Q2337.35 1486.25 2331.54 1486.25 Q2325.73 1486.25 2322.65 1481.67 Q2319.59 1477.06 2319.59 1468.33 Q2319.59 1459.58 2322.65 1455 Q2325.73 1450.39 2331.54 1450.39 Z" fill="#000000" fill-rule="nonzero" fill-opacity="1" /><path clip-path="url(#clip900)" d="M939 1520.52 L979.199 1520.52 L979.199 1525.93 L962.33 1525.93 L962.33 1568.04 L955.869 1568.04 L955.869 1525.93 L939 1525.93 L939 1520.52 Z" fill="#000000" fill-rule="nonzero" fill-opacity="1" /><path clip-path="url(#clip900)" d="M996.227 1537.87 Q995.241 1537.3 994.063 1537.04 Q992.917 1536.76 991.517 1536.76 Q986.551 1536.76 983.878 1540 Q981.236 1543.22 981.236 1549.27 L981.236 1568.04 L975.348 1568.04 L975.348 1532.4 L981.236 1532.4 L981.236 1537.93 Q983.082 1534.69 986.042 1533.13 Q989.002 1531.54 993.235 1531.54 Q993.84 1531.54 994.572 1531.63 Q995.304 1531.7 996.195 1531.85 L996.227 1537.87 Z" fill="#000000" fill-rule="nonzero" fill-opacity="1" /><path clip-path="url(#clip900)" d="M1018.57 1550.12 Q1011.47 1550.12 1008.74 1551.75 Q1006 1553.37 1006 1557.29 Q1006 1560.4 1008.04 1562.25 Q1010.1 1564.07 1013.64 1564.07 Q1018.51 1564.07 1021.44 1560.63 Q1024.4 1557.16 1024.4 1551.43 L1024.4 1550.12 L1018.57 1550.12 M1030.25 1547.71 L1030.25 1568.04 L1024.4 1568.04 L1024.4 1562.63 Q1022.39 1565.88 1019.4 1567.44 Q1016.41 1568.97 1012.08 1568.97 Q1006.6 1568.97 1003.36 1565.91 Q1000.14 1562.82 1000.14 1557.67 Q1000.14 1551.65 1004.15 1548.6 Q1008.19 1545.54 1016.18 1545.54 L1024.4 1545.54 L1024.4 1544.97 Q1024.4 1540.93 1021.72 1538.73 Q1019.08 1536.5 1014.27 1536.5 Q1011.22 1536.5 1008.32 1537.23 Q1005.43 1537.97 1002.75 1539.43 L1002.75 1534.02 Q1005.97 1532.78 1008.99 1532.17 Q1012.01 1531.54 1014.88 1531.54 Q1022.61 1531.54 1026.43 1535.55 Q1030.25 1539.56 1030.25 1547.71 Z" fill="#000000" fill-rule="nonzero" fill-opacity="1" /><path clip-path="url(#clip900)" d="M1065.77 1537.81 L1065.77 1518.52 L1071.63 1518.52 L1071.63 1568.04 L1065.77 1568.04 L1065.77 1562.7 Q1063.93 1565.88 1061.09 1567.44 Q1058.29 1568.97 1054.35 1568.97 Q1047.88 1568.97 1043.81 1563.81 Q1039.77 1558.65 1039.77 1550.25 Q1039.77 1541.85 1043.81 1536.69 Q1047.88 1531.54 1054.35 1531.54 Q1058.29 1531.54 1061.09 1533.1 Q1063.93 1534.62 1065.77 1537.81 M1045.82 1550.25 Q1045.82 1556.71 1048.46 1560.4 Q1051.13 1564.07 1055.78 1564.07 Q1060.43 1564.07 1063.1 1560.4 Q1065.77 1556.71 1065.77 1550.25 Q1065.77 1543.79 1063.1 1540.13 Q1060.43 1536.44 1055.78 1536.44 Q1051.13 1536.44 1048.46 1540.13 Q1045.82 1543.79 1045.82 1550.25 Z" fill="#000000" fill-rule="nonzero" fill-opacity="1" /><path clip-path="url(#clip900)" d="M1083.69 1532.4 L1089.55 1532.4 L1089.55 1568.04 L1083.69 1568.04 L1083.69 1532.4 M1083.69 1518.52 L1089.55 1518.52 L1089.55 1525.93 L1083.69 1525.93 L1083.69 1518.52 Z" fill="#000000" fill-rule="nonzero" fill-opacity="1" /><path clip-path="url(#clip900)" d="M1131.43 1546.53 L1131.43 1568.04 L1125.58 1568.04 L1125.58 1546.72 Q1125.58 1541.66 1123.61 1539.14 Q1121.63 1536.63 1117.68 1536.63 Q1112.94 1536.63 1110.21 1539.65 Q1107.47 1542.68 1107.47 1547.9 L1107.47 1568.04 L1101.58 1568.04 L1101.58 1532.4 L1107.47 1532.4 L1107.47 1537.93 Q1109.57 1534.72 1112.4 1533.13 Q1115.27 1531.54 1118.99 1531.54 Q1125.13 1531.54 1128.28 1535.36 Q1131.43 1539.14 1131.43 1546.53 Z" fill="#000000" fill-rule="nonzero" fill-opacity="1" /><path clip-path="url(#clip900)" d="M1166.57 1549.81 Q1166.57 1543.44 1163.93 1539.94 Q1161.32 1536.44 1156.58 1536.44 Q1151.87 1536.44 1149.23 1539.94 Q1146.62 1543.44 1146.62 1549.81 Q1146.62 1556.14 1149.23 1559.64 Q1151.87 1563.14 1156.58 1563.14 Q1161.32 1563.14 1163.93 1559.64 Q1166.57 1556.14 1166.57 1549.81 M1172.43 1563.62 Q1172.43 1572.72 1168.39 1577.15 Q1164.35 1581.6 1156.01 1581.6 Q1152.92 1581.6 1150.18 1581.13 Q1147.44 1580.68 1144.87 1579.72 L1144.87 1574.03 Q1147.44 1575.43 1149.96 1576.1 Q1152.47 1576.76 1155.08 1576.76 Q1160.84 1576.76 1163.71 1573.74 Q1166.57 1570.75 1166.57 1564.67 L1166.57 1561.77 Q1164.76 1564.92 1161.93 1566.48 Q1159.09 1568.04 1155.15 1568.04 Q1148.59 1568.04 1144.58 1563.05 Q1140.57 1558.05 1140.57 1549.81 Q1140.57 1541.53 1144.58 1536.53 Q1148.59 1531.54 1155.15 1531.54 Q1159.09 1531.54 1161.93 1533.1 Q1164.76 1534.66 1166.57 1537.81 L1166.57 1532.4 L1172.43 1532.4 L1172.43 1563.62 Z" fill="#000000" fill-rule="nonzero" fill-opacity="1" /><path clip-path="url(#clip900)" d="M1228.67 1537.81 L1228.67 1518.52 L1234.53 1518.52 L1234.53 1568.04 L1228.67 1568.04 L1228.67 1562.7 Q1226.83 1565.88 1223.99 1567.44 Q1221.19 1568.97 1217.24 1568.97 Q1210.78 1568.97 1206.71 1563.81 Q1202.67 1558.65 1202.67 1550.25 Q1202.67 1541.85 1206.71 1536.69 Q1210.78 1531.54 1217.24 1531.54 Q1221.19 1531.54 1223.99 1533.1 Q1226.83 1534.62 1228.67 1537.81 M1208.71 1550.25 Q1208.71 1556.71 1211.36 1560.4 Q1214.03 1564.07 1218.68 1564.07 Q1223.32 1564.07 1226 1560.4 Q1228.67 1556.71 1228.67 1550.25 Q1228.67 1543.79 1226 1540.13 Q1223.32 1536.44 1218.68 1536.44 Q1214.03 1536.44 1211.36 1540.13 Q1208.71 1543.79 1208.71 1550.25 Z" fill="#000000" fill-rule="nonzero" fill-opacity="1" /><path clip-path="url(#clip900)" d="M1262.79 1550.12 Q1255.69 1550.12 1252.96 1551.75 Q1250.22 1553.37 1250.22 1557.29 Q1250.22 1560.4 1252.26 1562.25 Q1254.32 1564.07 1257.86 1564.07 Q1262.73 1564.07 1265.66 1560.63 Q1268.62 1557.16 1268.62 1551.43 L1268.62 1550.12 L1262.79 1550.12 M1274.47 1547.71 L1274.47 1568.04 L1268.62 1568.04 L1268.62 1562.63 Q1266.61 1565.88 1263.62 1567.44 Q1260.63 1568.97 1256.3 1568.97 Q1250.82 1568.97 1247.58 1565.91 Q1244.36 1562.82 1244.36 1557.67 Q1244.36 1551.65 1248.37 1548.6 Q1252.42 1545.54 1260.4 1545.54 L1268.62 1545.54 L1268.62 1544.97 Q1268.62 1540.93 1265.94 1538.73 Q1263.3 1536.5 1258.49 1536.5 Q1255.44 1536.5 1252.54 1537.23 Q1249.65 1537.97 1246.97 1539.43 L1246.97 1534.02 Q1250.19 1532.78 1253.21 1532.17 Q1256.23 1531.54 1259.1 1531.54 Q1266.83 1531.54 1270.65 1535.55 Q1274.47 1539.56 1274.47 1547.71 Z" fill="#000000" fill-rule="nonzero" fill-opacity="1" /><path clip-path="url(#clip900)" d="M1301.37 1571.35 Q1298.88 1577.72 1296.53 1579.66 Q1294.17 1581.6 1290.23 1581.6 L1285.55 1581.6 L1285.55 1576.7 L1288.99 1576.7 Q1291.41 1576.7 1292.74 1575.56 Q1294.08 1574.41 1295.7 1570.14 L1296.75 1567.47 L1282.33 1532.4 L1288.54 1532.4 L1299.68 1560.28 L1310.82 1532.4 L1317.03 1532.4 L1301.37 1571.35 Z" fill="#000000" fill-rule="nonzero" fill-opacity="1" /><path clip-path="url(#clip900)" d="M1345.83 1532.4 L1351.69 1532.4 L1351.69 1568.04 L1345.83 1568.04 L1345.83 1532.4 M1345.83 1518.52 L1351.69 1518.52 L1351.69 1525.93 L1345.83 1525.93 L1345.83 1518.52 Z" fill="#000000" fill-rule="nonzero" fill-opacity="1" /><path clip-path="url(#clip900)" d="M1393.57 1546.53 L1393.57 1568.04 L1387.72 1568.04 L1387.72 1546.72 Q1387.72 1541.66 1385.74 1539.14 Q1383.77 1536.63 1379.82 1536.63 Q1375.08 1536.63 1372.35 1539.65 Q1369.61 1542.68 1369.61 1547.9 L1369.61 1568.04 L1363.72 1568.04 L1363.72 1532.4 L1369.61 1532.4 L1369.61 1537.93 Q1371.71 1534.72 1374.54 1533.13 Q1377.41 1531.54 1381.13 1531.54 Q1387.27 1531.54 1390.42 1535.36 Q1393.57 1539.14 1393.57 1546.53 Z" fill="#000000" fill-rule="nonzero" fill-opacity="1" /><path clip-path="url(#clip900)" d="M1428.71 1537.81 L1428.71 1518.52 L1434.57 1518.52 L1434.57 1568.04 L1428.71 1568.04 L1428.71 1562.7 Q1426.87 1565.88 1424.03 1567.44 Q1421.23 1568.97 1417.29 1568.97 Q1410.83 1568.97 1406.75 1563.81 Q1402.71 1558.65 1402.71 1550.25 Q1402.71 1541.85 1406.75 1536.69 Q1410.83 1531.54 1417.29 1531.54 Q1421.23 1531.54 1424.03 1533.1 Q1426.87 1534.62 1428.71 1537.81 M1408.76 1550.25 Q1408.76 1556.71 1411.4 1560.4 Q1414.07 1564.07 1418.72 1564.07 Q1423.37 1564.07 1426.04 1560.4 Q1428.71 1556.71 1428.71 1550.25 Q1428.71 1543.79 1426.04 1540.13 Q1423.37 1536.44 1418.72 1536.44 Q1414.07 1536.44 1411.4 1540.13 Q1408.76 1543.79 1408.76 1550.25 Z" fill="#000000" fill-rule="nonzero" fill-opacity="1" /><path clip-path="url(#clip900)" d="M1477.12 1548.76 L1477.12 1551.62 L1450.2 1551.62 Q1450.58 1557.67 1453.83 1560.85 Q1457.1 1564 1462.93 1564 Q1466.3 1564 1469.45 1563.17 Q1472.64 1562.35 1475.76 1560.69 L1475.76 1566.23 Q1472.6 1567.57 1469.29 1568.27 Q1465.98 1568.97 1462.58 1568.97 Q1454.05 1568.97 1449.05 1564 Q1444.09 1559.04 1444.09 1550.57 Q1444.09 1541.82 1448.8 1536.69 Q1453.54 1531.54 1461.56 1531.54 Q1468.75 1531.54 1472.92 1536.18 Q1477.12 1540.8 1477.12 1548.76 M1471.27 1547.04 Q1471.2 1542.23 1468.56 1539.37 Q1465.95 1536.5 1461.62 1536.5 Q1456.72 1536.5 1453.76 1539.27 Q1450.83 1542.04 1450.39 1547.07 L1471.27 1547.04 Z" fill="#000000" fill-rule="nonzero" fill-opacity="1" /><path clip-path="url(#clip900)" d="M1515.22 1532.4 L1502.33 1549.74 L1515.89 1568.04 L1508.98 1568.04 L1498.61 1554.04 L1488.23 1568.04 L1481.33 1568.04 L1495.17 1549.39 L1482.5 1532.4 L1489.41 1532.4 L1498.86 1545.1 L1508.32 1532.4 L1515.22 1532.4 Z" fill="#000000" fill-rule="nonzero" fill-opacity="1" /><path clip-path="url(#clip900)" d="M1558.96 1518.58 Q1554.69 1525.9 1552.62 1533.06 Q1550.55 1540.23 1550.55 1547.58 Q1550.55 1554.93 1552.62 1562.16 Q1554.72 1569.35 1558.96 1576.64 L1553.86 1576.64 Q1549.09 1569.16 1546.7 1561.93 Q1544.35 1554.71 1544.35 1547.58 Q1544.35 1540.48 1546.7 1533.29 Q1549.06 1526.09 1553.86 1518.58 L1558.96 1518.58 Z" fill="#000000" fill-rule="nonzero" fill-opacity="1" /><path clip-path="url(#clip900)" d="M1586.46 1526.86 L1577.73 1550.51 L1595.21 1550.51 L1586.46 1526.86 M1582.83 1520.52 L1590.12 1520.52 L1608.23 1568.04 L1601.54 1568.04 L1597.21 1555.85 L1575.79 1555.85 L1571.46 1568.04 L1564.68 1568.04 L1582.83 1520.52 Z" fill="#000000" fill-rule="nonzero" fill-opacity="1" /><path clip-path="url(#clip900)" d="M1614.43 1520.52 L1620.89 1520.52 L1620.89 1549.39 Q1620.89 1557.03 1623.66 1560.4 Q1626.43 1563.75 1632.64 1563.75 Q1638.81 1563.75 1641.58 1560.4 Q1644.35 1557.03 1644.35 1549.39 L1644.35 1520.52 L1650.81 1520.52 L1650.81 1550.19 Q1650.81 1559.48 1646.2 1564.22 Q1641.61 1568.97 1632.64 1568.97 Q1623.63 1568.97 1619.02 1564.22 Q1614.43 1559.48 1614.43 1550.19 L1614.43 1520.52 Z" fill="#000000" fill-rule="nonzero" fill-opacity="1" /><path clip-path="url(#clip900)" d="M1661.7 1518.58 L1666.79 1518.58 Q1671.57 1526.09 1673.92 1533.29 Q1676.31 1540.48 1676.31 1547.58 Q1676.31 1554.71 1673.92 1561.93 Q1671.57 1569.16 1666.79 1576.64 L1661.7 1576.64 Q1665.93 1569.35 1668 1562.16 Q1670.1 1554.93 1670.1 1547.58 Q1670.1 1540.23 1668 1533.06 Q1665.93 1525.9 1661.7 1518.58 Z" fill="#000000" fill-rule="nonzero" fill-opacity="1" /><polyline clip-path="url(#clip902)" style="stroke:#000000; stroke-linecap:round; stroke-linejoin:round; stroke-width:2; stroke-opacity:0.1; fill:none" points="262.551,1407.19 2352.76,1407.19 "/>
<polyline clip-path="url(#clip902)" style="stroke:#000000; stroke-linecap:round; stroke-linejoin:round; stroke-width:2; stroke-opacity:0.1; fill:none" points="262.551,1076.11 2352.76,1076.11 "/>
<polyline clip-path="url(#clip902)" style="stroke:#000000; stroke-linecap:round; stroke-linejoin:round; stroke-width:2; stroke-opacity:0.1; fill:none" points="262.551,745.035 2352.76,745.035 "/>
<polyline clip-path="url(#clip902)" style="stroke:#000000; stroke-linecap:round; stroke-linejoin:round; stroke-width:2; stroke-opacity:0.1; fill:none" points="262.551,413.955 2352.76,413.955 "/>
<polyline clip-path="url(#clip902)" style="stroke:#000000; stroke-linecap:round; stroke-linejoin:round; stroke-width:2; stroke-opacity:0.1; fill:none" points="262.551,82.875 2352.76,82.875 "/>
<polyline clip-path="url(#clip900)" style="stroke:#000000; stroke-linecap:round; stroke-linejoin:round; stroke-width:4; stroke-opacity:1; fill:none" points="262.551,1423.18 262.551,47.2441 "/>
<polyline clip-path="url(#clip900)" style="stroke:#000000; stroke-linecap:round; stroke-linejoin:round; stroke-width:4; stroke-opacity:1; fill:none" points="2352.76,1423.18 2352.76,47.2441 "/>
<polyline clip-path="url(#clip900)" style="stroke:#000000; stroke-linecap:round; stroke-linejoin:round; stroke-width:4; stroke-opacity:1; fill:none" points="262.551,1407.19 281.449,1407.19 "/>
<polyline clip-path="url(#clip900)" style="stroke:#000000; stroke-linecap:round; stroke-linejoin:round; stroke-width:4; stroke-opacity:1; fill:none" points="262.551,1076.11 281.449,1076.11 "/>
<polyline clip-path="url(#clip900)" style="stroke:#000000; stroke-linecap:round; stroke-linejoin:round; stroke-width:4; stroke-opacity:1; fill:none" points="262.551,745.035 281.449,745.035 "/>
<polyline clip-path="url(#clip900)" style="stroke:#000000; stroke-linecap:round; stroke-linejoin:round; stroke-width:4; stroke-opacity:1; fill:none" points="262.551,413.955 281.449,413.955 "/>
<polyline clip-path="url(#clip900)" style="stroke:#000000; stroke-linecap:round; stroke-linejoin:round; stroke-width:4; stroke-opacity:1; fill:none" points="262.551,82.875 281.449,82.875 "/>
<path clip-path="url(#clip900)" d="M144.422 1423.76 L144.422 1419.5 Q146.181 1420.33 147.987 1420.77 Q149.792 1421.21 151.528 1421.21 Q156.158 1421.21 158.589 1418.11 Q161.042 1414.98 161.39 1408.64 Q160.047 1410.63 157.987 1411.7 Q155.927 1412.76 153.427 1412.76 Q148.241 1412.76 145.209 1409.64 Q142.2 1406.49 142.2 1401.05 Q142.2 1395.72 145.348 1392.51 Q148.496 1389.29 153.728 1389.29 Q159.723 1389.29 162.871 1393.9 Q166.042 1398.48 166.042 1407.23 Q166.042 1415.4 162.153 1420.28 Q158.288 1425.15 151.737 1425.15 Q149.978 1425.15 148.172 1424.8 Q146.366 1424.45 144.422 1423.76 M153.728 1409.1 Q156.876 1409.1 158.704 1406.95 Q160.556 1404.8 160.556 1401.05 Q160.556 1397.32 158.704 1395.17 Q156.876 1392.99 153.728 1392.99 Q150.579 1392.99 148.728 1395.17 Q146.899 1397.32 146.899 1401.05 Q146.899 1404.8 148.728 1406.95 Q150.579 1409.1 153.728 1409.1 Z" fill="#000000" fill-rule="nonzero" fill-opacity="1" /><path clip-path="url(#clip900)" d="M185.024 1405.33 Q181.876 1405.33 180.024 1407.48 Q178.195 1409.64 178.195 1413.39 Q178.195 1417.11 180.024 1419.29 Q181.876 1421.44 185.024 1421.44 Q188.172 1421.44 190 1419.29 Q191.852 1417.11 191.852 1413.39 Q191.852 1409.64 190 1407.48 Q188.172 1405.33 185.024 1405.33 M194.306 1390.68 L194.306 1394.94 Q192.547 1394.1 190.741 1393.66 Q188.959 1393.22 187.2 1393.22 Q182.57 1393.22 180.116 1396.35 Q177.686 1399.47 177.339 1405.79 Q178.704 1403.78 180.764 1402.72 Q182.825 1401.63 185.301 1401.63 Q190.51 1401.63 193.519 1404.8 Q196.551 1407.95 196.551 1413.39 Q196.551 1418.71 193.403 1421.93 Q190.255 1425.15 185.024 1425.15 Q179.028 1425.15 175.857 1420.56 Q172.686 1415.96 172.686 1407.23 Q172.686 1399.03 176.575 1394.17 Q180.464 1389.29 187.014 1389.29 Q188.774 1389.29 190.556 1389.64 Q192.362 1389.98 194.306 1390.68 Z" fill="#000000" fill-rule="nonzero" fill-opacity="1" /><path clip-path="url(#clip900)" d="M214.607 1392.99 Q210.996 1392.99 209.167 1396.56 Q207.362 1400.1 207.362 1407.23 Q207.362 1414.34 209.167 1417.9 Q210.996 1421.44 214.607 1421.44 Q218.241 1421.44 220.047 1417.9 Q221.875 1414.34 221.875 1407.23 Q221.875 1400.1 220.047 1396.56 Q218.241 1392.99 214.607 1392.99 M214.607 1389.29 Q220.417 1389.29 223.473 1393.9 Q226.551 1398.48 226.551 1407.23 Q226.551 1415.96 223.473 1420.56 Q220.417 1425.15 214.607 1425.15 Q208.797 1425.15 205.718 1420.56 Q202.662 1415.96 202.662 1407.23 Q202.662 1398.48 205.718 1393.9 Q208.797 1389.29 214.607 1389.29 Z" fill="#000000" fill-rule="nonzero" fill-opacity="1" /><path clip-path="url(#clip900)" d="M144.422 1092.68 L144.422 1088.42 Q146.181 1089.25 147.987 1089.69 Q149.792 1090.13 151.528 1090.13 Q156.158 1090.13 158.589 1087.03 Q161.042 1083.9 161.39 1077.56 Q160.047 1079.55 157.987 1080.62 Q155.927 1081.68 153.427 1081.68 Q148.241 1081.68 145.209 1078.56 Q142.2 1075.41 142.2 1069.97 Q142.2 1064.64 145.348 1061.43 Q148.496 1058.21 153.728 1058.21 Q159.723 1058.21 162.871 1062.82 Q166.042 1067.4 166.042 1076.15 Q166.042 1084.32 162.153 1089.2 Q158.288 1094.07 151.737 1094.07 Q149.978 1094.07 148.172 1093.72 Q146.366 1093.37 144.422 1092.68 M153.728 1078.02 Q156.876 1078.02 158.704 1075.87 Q160.556 1073.72 160.556 1069.97 Q160.556 1066.24 158.704 1064.09 Q156.876 1061.91 153.728 1061.91 Q150.579 1061.91 148.728 1064.09 Q146.899 1066.24 146.899 1069.97 Q146.899 1073.72 148.728 1075.87 Q150.579 1078.02 153.728 1078.02 Z" fill="#000000" fill-rule="nonzero" fill-opacity="1" /><path clip-path="url(#clip900)" d="M173.264 1058.83 L195.487 1058.83 L195.487 1060.83 L182.94 1093.39 L178.056 1093.39 L189.862 1062.77 L173.264 1062.77 L173.264 1058.83 Z" fill="#000000" fill-rule="nonzero" fill-opacity="1" /><path clip-path="url(#clip900)" d="M214.607 1061.91 Q210.996 1061.91 209.167 1065.48 Q207.362 1069.02 207.362 1076.15 Q207.362 1083.26 209.167 1086.82 Q210.996 1090.36 214.607 1090.36 Q218.241 1090.36 220.047 1086.82 Q221.875 1083.26 221.875 1076.15 Q221.875 1069.02 220.047 1065.48 Q218.241 1061.91 214.607 1061.91 M214.607 1058.21 Q220.417 1058.21 223.473 1062.82 Q226.551 1067.4 226.551 1076.15 Q226.551 1084.88 223.473 1089.48 Q220.417 1094.07 214.607 1094.07 Q208.797 1094.07 205.718 1089.48 Q202.662 1084.88 202.662 1076.15 Q202.662 1067.4 205.718 1062.82 Q208.797 1058.21 214.607 1058.21 Z" fill="#000000" fill-rule="nonzero" fill-opacity="1" /><path clip-path="url(#clip900)" d="M144.422 761.597 L144.422 757.338 Q146.181 758.171 147.987 758.611 Q149.792 759.051 151.528 759.051 Q156.158 759.051 158.589 755.949 Q161.042 752.824 161.39 746.481 Q160.047 748.472 157.987 749.537 Q155.927 750.602 153.427 750.602 Q148.241 750.602 145.209 747.477 Q142.2 744.329 142.2 738.889 Q142.2 733.565 145.348 730.347 Q148.496 727.13 153.728 727.13 Q159.723 727.13 162.871 731.736 Q166.042 736.319 166.042 745.069 Q166.042 753.241 162.153 758.125 Q158.288 762.986 151.737 762.986 Q149.978 762.986 148.172 762.639 Q146.366 762.291 144.422 761.597 M153.728 746.944 Q156.876 746.944 158.704 744.792 Q160.556 742.639 160.556 738.889 Q160.556 735.162 158.704 733.009 Q156.876 730.833 153.728 730.833 Q150.579 730.833 148.728 733.009 Q146.899 735.162 146.899 738.889 Q146.899 742.639 148.728 744.792 Q150.579 746.944 153.728 746.944 Z" fill="#000000" fill-rule="nonzero" fill-opacity="1" /><path clip-path="url(#clip900)" d="M184.445 745.903 Q181.112 745.903 179.19 747.685 Q177.292 749.467 177.292 752.592 Q177.292 755.717 179.19 757.5 Q181.112 759.282 184.445 759.282 Q187.778 759.282 189.7 757.5 Q191.621 755.694 191.621 752.592 Q191.621 749.467 189.7 747.685 Q187.801 745.903 184.445 745.903 M179.769 743.912 Q176.76 743.171 175.07 741.111 Q173.403 739.051 173.403 736.088 Q173.403 731.944 176.343 729.537 Q179.306 727.13 184.445 727.13 Q189.607 727.13 192.547 729.537 Q195.487 731.944 195.487 736.088 Q195.487 739.051 193.797 741.111 Q192.13 743.171 189.144 743.912 Q192.524 744.699 194.399 746.991 Q196.297 749.282 196.297 752.592 Q196.297 757.616 193.218 760.301 Q190.163 762.986 184.445 762.986 Q178.727 762.986 175.649 760.301 Q172.593 757.616 172.593 752.592 Q172.593 749.282 174.491 746.991 Q176.389 744.699 179.769 743.912 M178.056 736.528 Q178.056 739.213 179.723 740.718 Q181.413 742.222 184.445 742.222 Q187.454 742.222 189.144 740.718 Q190.857 739.213 190.857 736.528 Q190.857 733.843 189.144 732.338 Q187.454 730.833 184.445 730.833 Q181.413 730.833 179.723 732.338 Q178.056 733.843 178.056 736.528 Z" fill="#000000" fill-rule="nonzero" fill-opacity="1" /><path clip-path="url(#clip900)" d="M214.607 730.833 Q210.996 730.833 209.167 734.398 Q207.362 737.94 207.362 745.069 Q207.362 752.176 209.167 755.741 Q210.996 759.282 214.607 759.282 Q218.241 759.282 220.047 755.741 Q221.875 752.176 221.875 745.069 Q221.875 737.94 220.047 734.398 Q218.241 730.833 214.607 730.833 M214.607 727.13 Q220.417 727.13 223.473 731.736 Q226.551 736.319 226.551 745.069 Q226.551 753.796 223.473 758.403 Q220.417 762.986 214.607 762.986 Q208.797 762.986 205.718 758.403 Q202.662 753.796 202.662 745.069 Q202.662 736.319 205.718 731.736 Q208.797 727.13 214.607 727.13 Z" fill="#000000" fill-rule="nonzero" fill-opacity="1" /><path clip-path="url(#clip900)" d="M144.422 430.517 L144.422 426.258 Q146.181 427.091 147.987 427.531 Q149.792 427.971 151.528 427.971 Q156.158 427.971 158.589 424.869 Q161.042 421.744 161.39 415.402 Q160.047 417.392 157.987 418.457 Q155.927 419.522 153.427 419.522 Q148.241 419.522 145.209 416.397 Q142.2 413.249 142.2 407.809 Q142.2 402.485 145.348 399.267 Q148.496 396.05 153.728 396.05 Q159.723 396.05 162.871 400.656 Q166.042 405.24 166.042 413.99 Q166.042 422.161 162.153 427.045 Q158.288 431.906 151.737 431.906 Q149.978 431.906 148.172 431.559 Q146.366 431.212 144.422 430.517 M153.728 415.865 Q156.876 415.865 158.704 413.712 Q160.556 411.559 160.556 407.809 Q160.556 404.082 158.704 401.929 Q156.876 399.754 153.728 399.754 Q150.579 399.754 148.728 401.929 Q146.899 404.082 146.899 407.809 Q146.899 411.559 148.728 413.712 Q150.579 415.865 153.728 415.865 Z" fill="#000000" fill-rule="nonzero" fill-opacity="1" /><path clip-path="url(#clip900)" d="M174.584 430.517 L174.584 426.258 Q176.343 427.091 178.149 427.531 Q179.954 427.971 181.69 427.971 Q186.32 427.971 188.75 424.869 Q191.204 421.744 191.551 415.402 Q190.209 417.392 188.149 418.457 Q186.088 419.522 183.588 419.522 Q178.403 419.522 175.371 416.397 Q172.362 413.249 172.362 407.809 Q172.362 402.485 175.51 399.267 Q178.658 396.05 183.889 396.05 Q189.885 396.05 193.033 400.656 Q196.204 405.24 196.204 413.99 Q196.204 422.161 192.315 427.045 Q188.45 431.906 181.899 431.906 Q180.139 431.906 178.334 431.559 Q176.528 431.212 174.584 430.517 M183.889 415.865 Q187.038 415.865 188.866 413.712 Q190.718 411.559 190.718 407.809 Q190.718 404.082 188.866 401.929 Q187.038 399.754 183.889 399.754 Q180.741 399.754 178.889 401.929 Q177.061 404.082 177.061 407.809 Q177.061 411.559 178.889 413.712 Q180.741 415.865 183.889 415.865 Z" fill="#000000" fill-rule="nonzero" fill-opacity="1" /><path clip-path="url(#clip900)" d="M214.607 399.754 Q210.996 399.754 209.167 403.318 Q207.362 406.86 207.362 413.99 Q207.362 421.096 209.167 424.661 Q210.996 428.202 214.607 428.202 Q218.241 428.202 220.047 424.661 Q221.875 421.096 221.875 413.99 Q221.875 406.86 220.047 403.318 Q218.241 399.754 214.607 399.754 M214.607 396.05 Q220.417 396.05 223.473 400.656 Q226.551 405.24 226.551 413.99 Q226.551 422.716 223.473 427.323 Q220.417 431.906 214.607 431.906 Q208.797 431.906 205.718 427.323 Q202.662 422.716 202.662 413.99 Q202.662 405.24 205.718 400.656 Q208.797 396.05 214.607 396.05 Z" fill="#000000" fill-rule="nonzero" fill-opacity="1" /><path clip-path="url(#clip900)" d="M114.931 96.2199 L122.57 96.2199 L122.57 69.8543 L114.26 71.5209 L114.26 67.2617 L122.524 65.595 L127.2 65.595 L127.2 96.2199 L134.839 96.2199 L134.839 100.155 L114.931 100.155 L114.931 96.2199 Z" fill="#000000" fill-rule="nonzero" fill-opacity="1" /><path clip-path="url(#clip900)" d="M154.283 68.6737 Q150.672 68.6737 148.843 72.2385 Q147.038 75.7802 147.038 82.9098 Q147.038 90.0162 148.843 93.581 Q150.672 97.1226 154.283 97.1226 Q157.917 97.1226 159.723 93.581 Q161.552 90.0162 161.552 82.9098 Q161.552 75.7802 159.723 72.2385 Q157.917 68.6737 154.283 68.6737 M154.283 64.97 Q160.093 64.97 163.149 69.5765 Q166.227 74.1598 166.227 82.9098 Q166.227 91.6366 163.149 96.243 Q160.093 100.826 154.283 100.826 Q148.473 100.826 145.394 96.243 Q142.339 91.6366 142.339 82.9098 Q142.339 74.1598 145.394 69.5765 Q148.473 64.97 154.283 64.97 Z" fill="#000000" fill-rule="nonzero" fill-opacity="1" /><path clip-path="url(#clip900)" d="M184.445 68.6737 Q180.834 68.6737 179.005 72.2385 Q177.2 75.7802 177.2 82.9098 Q177.2 90.0162 179.005 93.581 Q180.834 97.1226 184.445 97.1226 Q188.079 97.1226 189.885 93.581 Q191.713 90.0162 191.713 82.9098 Q191.713 75.7802 189.885 72.2385 Q188.079 68.6737 184.445 68.6737 M184.445 64.97 Q190.255 64.97 193.311 69.5765 Q196.389 74.1598 196.389 82.9098 Q196.389 91.6366 193.311 96.243 Q190.255 100.826 184.445 100.826 Q178.635 100.826 175.556 96.243 Q172.501 91.6366 172.501 82.9098 Q172.501 74.1598 175.556 69.5765 Q178.635 64.97 184.445 64.97 Z" fill="#000000" fill-rule="nonzero" fill-opacity="1" /><path clip-path="url(#clip900)" d="M214.607 68.6737 Q210.996 68.6737 209.167 72.2385 Q207.362 75.7802 207.362 82.9098 Q207.362 90.0162 209.167 93.581 Q210.996 97.1226 214.607 97.1226 Q218.241 97.1226 220.047 93.581 Q221.875 90.0162 221.875 82.9098 Q221.875 75.7802 220.047 72.2385 Q218.241 68.6737 214.607 68.6737 M214.607 64.97 Q220.417 64.97 223.473 69.5765 Q226.551 74.1598 226.551 82.9098 Q226.551 91.6366 223.473 96.243 Q220.417 100.826 214.607 100.826 Q208.797 100.826 205.718 96.243 Q202.662 91.6366 202.662 82.9098 Q202.662 74.1598 205.718 69.5765 Q208.797 64.97 214.607 64.97 Z" fill="#000000" fill-rule="nonzero" fill-opacity="1" /><path clip-path="url(#clip900)" d="M21.7677 907.723 L39.6235 907.723 L39.6235 899.638 Q39.6235 895.15 37.3 892.7 Q34.9765 890.249 30.6797 890.249 Q26.4147 890.249 24.0912 892.7 Q21.7677 895.15 21.7677 899.638 L21.7677 907.723 M16.4842 914.152 L16.4842 899.638 Q16.4842 891.649 20.1126 887.575 Q23.7092 883.469 30.6797 883.469 Q37.7138 883.469 41.3104 887.575 Q44.907 891.649 44.907 899.638 L44.907 907.723 L64.0042 907.723 L64.0042 914.152 L16.4842 914.152 Z" fill="#000000" fill-rule="nonzero" fill-opacity="1" /><path clip-path="url(#clip900)" d="M33.8307 855.587 Q33.2578 856.574 33.0032 857.752 Q32.7167 858.898 32.7167 860.298 Q32.7167 865.263 35.9632 867.937 Q39.1779 870.579 45.2253 870.579 L64.0042 870.579 L64.0042 876.467 L28.3562 876.467 L28.3562 870.579 L33.8944 870.579 Q30.6479 868.733 29.0883 865.773 Q27.4968 862.813 27.4968 858.579 Q27.4968 857.975 27.5923 857.243 Q27.656 856.511 27.8151 855.619 L33.8307 855.587 Z" fill="#000000" fill-rule="nonzero" fill-opacity="1" /><path clip-path="url(#clip900)" d="M28.3562 849.445 L28.3562 843.588 L64.0042 843.588 L64.0042 849.445 L28.3562 849.445 M14.479 849.445 L14.479 843.588 L21.895 843.588 L21.895 849.445 L14.479 849.445 Z" fill="#000000" fill-rule="nonzero" fill-opacity="1" /><path clip-path="url(#clip900)" d="M29.7248 805.68 L35.1993 805.68 Q33.8307 808.163 33.1623 810.677 Q32.4621 813.16 32.4621 815.706 Q32.4621 821.404 36.0905 824.555 Q39.6872 827.706 46.212 827.706 Q52.7369 827.706 56.3653 824.555 Q59.9619 821.404 59.9619 815.706 Q59.9619 813.16 59.2935 810.677 Q58.5933 808.163 57.2247 805.68 L62.6355 805.68 Q63.7814 808.131 64.3543 810.773 Q64.9272 813.383 64.9272 816.343 Q64.9272 824.396 59.8664 829.138 Q54.8057 833.88 46.212 833.88 Q37.491 833.88 32.4939 829.106 Q27.4968 824.3 27.4968 815.961 Q27.4968 813.256 28.0697 810.677 Q28.6108 808.099 29.7248 805.68 Z" fill="#000000" fill-rule="nonzero" fill-opacity="1" /><path clip-path="url(#clip900)" d="M44.7161 765.003 L47.5806 765.003 L47.5806 791.93 Q53.6281 791.548 56.8109 788.302 Q59.9619 785.024 59.9619 779.199 Q59.9619 775.825 59.1344 772.674 Q58.3069 769.491 56.6518 766.372 L62.1899 766.372 Q63.5267 769.523 64.227 772.833 Q64.9272 776.143 64.9272 779.549 Q64.9272 788.079 59.9619 793.076 Q54.9967 798.041 46.5303 798.041 Q37.7774 798.041 32.6531 793.331 Q27.4968 788.588 27.4968 780.568 Q27.4968 773.374 32.1438 769.205 Q36.7589 765.003 44.7161 765.003 M42.9973 770.86 Q38.1912 770.924 35.3266 773.565 Q32.4621 776.175 32.4621 780.504 Q32.4621 785.406 35.2312 788.366 Q38.0002 791.294 43.0292 791.739 L42.9973 770.86 Z" fill="#000000" fill-rule="nonzero" fill-opacity="1" /><path clip-path="url(#clip900)" d="M14.5426 720.603 Q21.8632 724.868 29.0246 726.937 Q36.186 729.005 43.5384 729.005 Q50.8908 729.005 58.1159 726.937 Q65.3091 724.836 72.5979 720.603 L72.5979 725.695 Q65.1182 730.47 57.8931 732.857 Q50.668 735.212 43.5384 735.212 Q36.4406 735.212 29.2474 732.857 Q22.0542 730.501 14.5426 725.695 L14.5426 720.603 Z" fill="#000000" fill-rule="nonzero" fill-opacity="1" /><path clip-path="url(#clip900)" d="M16.4842 709.717 L16.4842 703.256 L45.3526 703.256 Q52.9915 703.256 56.3653 700.487 Q59.7073 697.718 59.7073 691.511 Q59.7073 685.337 56.3653 682.568 Q52.9915 679.798 45.3526 679.798 L16.4842 679.798 L16.4842 673.337 L46.1484 673.337 Q55.4423 673.337 60.1847 677.952 Q64.9272 682.536 64.9272 691.511 Q64.9272 700.519 60.1847 705.134 Q55.4423 709.717 46.1484 709.717 L16.4842 709.717 Z" fill="#000000" fill-rule="nonzero" fill-opacity="1" /><path clip-path="url(#clip900)" d="M18.0438 632.788 L24.314 632.788 Q22.5634 636.448 21.704 639.695 Q20.8447 642.941 20.8447 645.965 Q20.8447 651.216 22.8817 654.081 Q24.9187 656.914 28.6745 656.914 Q31.8255 656.914 33.4488 655.036 Q35.0402 653.126 36.0269 647.843 L36.8226 643.96 Q38.1912 636.766 41.6605 633.361 Q45.098 629.923 50.8908 629.923 Q57.7976 629.923 61.3624 634.57 Q64.9272 639.185 64.9272 648.129 Q64.9272 651.503 64.1633 655.322 Q63.3994 659.11 61.9035 663.184 L55.2831 663.184 Q57.4793 659.269 58.5933 655.513 Q59.7073 651.758 59.7073 648.129 Q59.7073 642.623 57.543 639.631 Q55.3786 636.639 51.3682 636.639 Q47.8671 636.639 45.8937 638.803 Q43.9204 640.936 42.9337 645.837 L42.1698 649.752 Q40.7375 656.946 37.682 660.16 Q34.6264 663.375 29.1837 663.375 Q22.8817 663.375 19.2532 658.951 Q15.6248 654.495 15.6248 646.697 Q15.6248 643.355 16.2295 639.886 Q16.8343 636.416 18.0438 632.788 Z" fill="#000000" fill-rule="nonzero" fill-opacity="1" /><path clip-path="url(#clip900)" d="M21.7677 613.468 L58.7206 613.468 L58.7206 605.702 Q58.7206 595.867 54.2646 591.315 Q49.8086 586.732 40.1964 586.732 Q30.6479 586.732 26.2237 591.315 Q21.7677 595.867 21.7677 605.702 L21.7677 613.468 M16.4842 619.897 L16.4842 606.688 Q16.4842 592.875 22.2451 586.414 Q27.9743 579.952 40.1964 579.952 Q52.4822 579.952 58.2432 586.445 Q64.0042 592.938 64.0042 606.688 L64.0042 619.897 L16.4842 619.897 Z" fill="#000000" fill-rule="nonzero" fill-opacity="1" /><path clip-path="url(#clip900)" d="M14.5426 570.881 L14.5426 565.789 Q22.0542 561.014 29.2474 558.659 Q36.4406 556.272 43.5384 556.272 Q50.668 556.272 57.8931 558.659 Q65.1182 561.014 72.5979 565.789 L72.5979 570.881 Q65.3091 566.648 58.1159 564.579 Q50.8908 562.479 43.5384 562.479 Q36.186 562.479 29.0246 564.579 Q21.8632 566.648 14.5426 570.881 Z" fill="#000000" fill-rule="nonzero" fill-opacity="1" /><polyline clip-path="url(#clip902)" style="stroke:#00bfff; stroke-linecap:round; stroke-linejoin:round; stroke-width:12; stroke-opacity:1; fill:none" points="321.708,91.151 329.659,92.8059 337.61,91.151 345.561,89.496 353.513,91.151 361.464,91.151 369.415,89.496 377.366,89.496 385.317,91.151 393.269,91.151 401.22,91.151 409.171,91.151 417.122,91.151 425.073,91.151 433.024,91.151 440.976,91.151 448.927,91.151 456.878,89.496 464.829,89.496 472.78,87.8409 480.731,89.496 488.683,89.496 496.634,87.8409 504.585,91.151 512.536,87.8409 520.487,87.8409 528.438,87.8409 536.39,91.151 544.341,87.8409 552.292,87.8409 560.243,86.1857 568.194,87.8409 576.146,92.8059 584.097,87.8409 592.048,87.8409 599.999,86.1857 607.95,91.151 615.901,87.8409 623.853,92.8059 631.804,99.4249 639.755,102.734 647.706,114.313 655.657,107.697 663.608,111.005 671.56,107.697 679.511,111.005 687.462,114.313 695.413,111.005 703.364,119.274 711.315,117.62 719.267,120.927 727.218,115.966 735.169,114.313 743.12,117.62 751.071,115.966 759.023,106.043 766.974,109.351 774.925,111.005 782.876,112.659 790.827,111.005 798.778,104.388 806.73,111.005 814.681,107.697 822.632,111.005 830.583,111.005 838.534,114.313 846.485,117.62 854.437,115.966 862.388,117.62 870.339,114.313 878.29,120.927 886.241,144.068 894.193,144.068 902.144,140.763 910.095,137.458 918.046,165.542 925.997,158.936 933.948,147.373 941.9,142.416 949.851,140.763 957.802,144.068 965.753,144.068 973.704,145.72 981.655,155.633 989.607,157.284 997.558,163.89 1005.51,162.239 1013.46,163.89 1021.41,173.797 1029.36,175.448 1037.31,182.05 1045.26,191.951 1053.22,185.351 1061.17,178.749 1069.12,165.542 1077.07,190.301 1085.02,185.351 1092.97,168.844 1100.92,167.193 1108.87,168.844 1116.83,198.55 1124.78,195.251 1132.73,200.2 1140.68,206.797 1148.63,221.637 1156.58,224.934 1164.53,226.582 1172.48,223.285 1180.43,224.934 1188.39,254.59 1196.34,262.823 1204.29,266.115 1212.24,272.7 1220.19,274.346 1228.14,277.637 1236.09,269.408 1244.04,254.59 1252,234.822 1259.95,266.115 1267.9,277.637 1275.85,269.408 1283.8,259.53 1291.75,257.883 1299.7,290.8 1307.65,290.8 1315.6,292.445 1323.56,295.734 1331.51,335.185 1339.46,338.47 1347.41,335.185 1355.36,341.755 1363.31,359.817 1371.26,405.749 1379.21,404.109 1387.17,397.551 1395.12,390.992 1403.07,386.072 1411.02,431.966 1418.97,431.966 1426.92,428.69 1434.87,431.966 1442.82,427.052 1450.77,436.88 1458.73,438.517 1466.68,436.88 1474.63,436.88 1482.58,435.242 1490.53,431.966 1498.48,435.242 1506.43,435.242 1514.38,435.242 1522.34,436.88 1530.29,440.155 1538.24,438.517 1546.19,441.792 1554.14,438.517 1562.09,430.328 1570.04,438.517 1577.99,438.517 1585.94,441.792 1593.9,440.155 1601.85,440.155 1609.8,467.981 1617.75,463.072 1625.7,469.617 1633.65,464.709 1641.6,459.799 1649.55,487.609 1657.51,481.068 1665.46,467.981 1673.41,441.792 1681.36,494.149 1689.31,494.149 1697.26,500.688 1705.21,485.974 1713.16,482.703 1721.11,523.563 1729.07,510.493 1737.02,499.053 1744.97,489.244 1752.92,487.609 1760.87,518.662 1768.82,508.859 1776.77,517.029 1784.72,510.493 1792.68,494.149 1800.63,523.563 1808.58,526.829 1816.53,534.994 1824.48,538.26 1832.43,533.361 1840.38,566.003 1848.33,562.74 1856.28,562.74 1864.24,561.109 1872.19,613.274 1880.14,605.129 1888.09,601.87 1896.04,588.832 1903.99,596.982 1911.94,647.463 1919.89,644.208 1927.85,644.208 1935.8,640.954 1943.75,634.443 1951.7,675.113 1959.65,673.487 1967.6,668.609 1975.55,666.983 1983.5,662.104 1991.45,678.364 1999.41,673.487 2007.36,679.99 2015.31,658.851 2023.26,653.971 2031.21,670.235 2039.16,670.235 2047.11,676.739 2055.06,679.99 2063.02,705.988 2070.97,704.364 2078.92,709.237 2086.87,707.613 2094.82,733.589 2102.77,740.08 2110.72,731.966 2118.67,725.473 2126.62,723.85 2134.58,717.356 2142.53,697.866 2150.48,697.866 2158.43,686.492 2166.38,673.487 2174.33,675.113 2182.28,683.241 2190.23,686.492 2198.19,691.367 2206.14,694.617 2214.09,704.364 2222.04,702.74 2229.99,701.115 2237.94,688.117 2245.89,683.241 2253.84,681.616 2261.79,681.616 2269.75,676.739 2277.7,668.609 2285.65,718.98 2293.6,730.343 "/>
<polyline clip-path="url(#clip902)" style="stroke:#000080; stroke-linecap:round; stroke-linejoin:round; stroke-width:12; stroke-opacity:1; fill:none" points="321.708,99.4249 329.659,102.734 337.61,99.4249 345.561,96.1156 353.513,99.4249 361.464,99.4249 369.415,96.1156 377.366,96.1156 385.317,99.4249 393.269,99.4249 401.22,99.4249 409.171,99.4249 417.122,99.4249 425.073,99.4249 433.024,99.4249 440.976,99.4249 448.927,99.4249 456.878,96.1156 464.829,96.1156 472.78,92.8059 480.731,96.1156 488.683,96.1156 496.634,92.8059 504.585,99.4249 512.536,92.8059 520.487,92.8059 528.438,92.8059 536.39,99.4249 544.341,92.8059 552.292,92.8059 560.243,89.496 568.194,92.8059 576.146,102.734 584.097,92.8059 592.048,92.8059 599.999,89.496 607.95,99.4249 615.901,92.8059 623.853,102.734 631.804,115.966 639.755,122.581 647.706,145.72 655.657,132.5 663.608,139.111 671.56,132.5 679.511,139.111 687.462,145.72 695.413,139.111 703.364,155.633 711.315,152.329 719.267,158.936 727.218,149.025 735.169,145.72 743.12,152.329 751.071,149.025 759.023,129.194 766.974,135.805 774.925,139.111 782.876,142.416 790.827,139.111 798.778,125.887 806.73,139.111 814.681,132.5 822.632,139.111 830.583,139.111 838.534,145.72 846.485,152.329 854.437,149.025 862.388,152.329 870.339,145.72 878.29,158.936 886.241,205.148 894.193,205.148 902.144,198.55 910.095,191.951 918.046,248.002 925.997,234.822 933.948,211.745 941.9,201.849 949.851,198.55 957.802,205.148 965.753,205.148 973.704,208.447 981.655,228.23 989.607,231.526 997.558,244.707 1005.51,241.413 1013.46,244.707 1021.41,264.469 1029.36,267.762 1037.31,280.928 1045.26,300.668 1053.22,287.509 1061.17,274.346 1069.12,248.002 1077.07,297.379 1085.02,287.509 1092.97,254.59 1100.92,251.296 1108.87,254.59 1116.83,313.822 1124.78,307.246 1132.73,317.109 1140.68,330.256 1148.63,359.817 1156.58,366.383 1164.53,369.665 1172.48,363.1 1180.43,366.383 1188.39,425.414 1196.34,441.792 1204.29,448.342 1212.24,461.436 1220.19,464.709 1228.14,471.253 1236.09,454.889 1244.04,425.414 1252,386.072 1259.95,448.342 1267.9,471.253 1275.85,454.889 1283.8,435.242 1291.75,431.966 1299.7,497.418 1307.65,497.418 1315.6,500.688 1323.56,507.225 1331.51,585.572 1339.46,592.092 1347.41,585.572 1355.36,598.611 1363.31,634.443 1371.26,725.473 1379.21,722.227 1387.17,709.237 1395.12,696.241 1403.07,686.492 1411.02,777.376 1418.97,777.376 1426.92,770.893 1434.87,777.376 1442.82,767.651 1450.77,787.099 1458.73,790.339 1466.68,787.099 1474.63,787.099 1482.58,783.859 1490.53,777.376 1498.48,783.859 1506.43,783.859 1514.38,783.859 1522.34,787.099 1530.29,793.579 1538.24,790.339 1546.19,796.819 1554.14,790.339 1562.09,774.135 1570.04,790.339 1577.99,790.339 1585.94,796.819 1593.9,793.579 1601.85,793.579 1609.8,848.608 1617.75,838.904 1625.7,851.842 1633.65,842.139 1641.6,832.433 1649.55,887.395 1657.51,874.471 1665.46,848.608 1673.41,796.819 1681.36,900.314 1689.31,900.314 1697.26,913.228 1705.21,884.165 1713.16,877.703 1721.11,958.385 1729.07,932.588 1737.02,910 1744.97,890.625 1752.92,887.395 1760.87,948.713 1768.82,929.362 1776.77,945.489 1784.72,932.588 1792.68,900.314 1800.63,958.385 1808.58,964.83 1816.53,980.939 1824.48,987.381 1832.43,977.718 1840.38,1042.08 1848.33,1035.65 1856.28,1035.65 1864.24,1032.43 1872.19,1135.18 1880.14,1119.14 1888.09,1112.73 1896.04,1087.06 1903.99,1103.1 1911.94,1202.42 1919.89,1196.02 1927.85,1196.02 1935.8,1189.62 1943.75,1176.82 1951.7,1256.76 1959.65,1253.56 1967.6,1243.98 1975.55,1240.79 1983.5,1231.2 1991.45,1263.14 1999.41,1253.56 2007.36,1266.34 2015.31,1224.81 2023.26,1215.22 2031.21,1247.18 2039.16,1247.18 2047.11,1259.95 2055.06,1266.34 2063.02,1317.37 2070.97,1314.19 2078.92,1323.75 2086.87,1320.56 2094.82,1371.51 2102.77,1384.24 2110.72,1368.33 2118.67,1355.6 2126.62,1352.42 2134.58,1339.68 2142.53,1301.43 2150.48,1301.43 2158.43,1279.1 2166.38,1253.56 2174.33,1256.76 2182.28,1272.72 2190.23,1279.1 2198.19,1288.68 2206.14,1295.05 2214.09,1314.19 2222.04,1311 2229.99,1307.81 2237.94,1282.29 2245.89,1272.72 2253.84,1269.53 2261.79,1269.53 2269.75,1259.95 2277.7,1243.98 2285.65,1342.86 2293.6,1365.15 "/>
<path clip-path="url(#clip900)" d="M332.225 1377.32 L1550.8 1377.32 L1550.8 1221.8 L332.225 1221.8  Z" fill="#eee9e9" fill-rule="evenodd" fill-opacity="1"/>
<polyline clip-path="url(#clip900)" style="stroke:#000000; stroke-linecap:round; stroke-linejoin:round; stroke-width:4; stroke-opacity:0; fill:none" points="332.225,1377.32 1550.8,1377.32 1550.8,1221.8 332.225,1221.8 332.225,1377.32 "/>
<polyline clip-path="url(#clip900)" style="stroke:#00bfff; stroke-linecap:round; stroke-linejoin:round; stroke-width:12; stroke-opacity:1; fill:none" points="355.449,1273.64 494.796,1273.64 "/>
<path clip-path="url(#clip900)" d="M518.021 1256.36 L547.257 1256.36 L547.257 1260.29 L534.988 1260.29 L534.988 1290.92 L530.289 1290.92 L530.289 1260.29 L518.021 1260.29 L518.021 1256.36 Z" fill="#000000" fill-rule="nonzero" fill-opacity="1" /><path clip-path="url(#clip900)" d="M567.21 1269.39 L596.886 1269.39 L596.886 1273.28 L567.21 1273.28 L567.21 1269.39 M567.21 1278.83 L596.886 1278.83 L596.886 1282.77 L567.21 1282.77 L567.21 1278.83 Z" fill="#000000" fill-rule="nonzero" fill-opacity="1" /><path clip-path="url(#clip900)" d="M626.076 1286.98 L642.395 1286.98 L642.395 1290.92 L620.451 1290.92 L620.451 1286.98 Q623.113 1284.23 627.696 1279.6 Q632.302 1274.94 633.483 1273.6 Q635.728 1271.08 636.608 1269.34 Q637.511 1267.58 637.511 1265.89 Q637.511 1263.14 635.566 1261.4 Q633.645 1259.67 630.543 1259.67 Q628.344 1259.67 625.89 1260.43 Q623.46 1261.19 620.682 1262.74 L620.682 1258.02 Q623.506 1256.89 625.96 1256.31 Q628.414 1255.73 630.451 1255.73 Q635.821 1255.73 639.015 1258.42 Q642.21 1261.1 642.21 1265.59 Q642.21 1267.72 641.4 1269.64 Q640.613 1271.54 638.506 1274.13 Q637.927 1274.8 634.826 1278.02 Q631.724 1281.22 626.076 1286.98 Z" fill="#000000" fill-rule="nonzero" fill-opacity="1" /><path clip-path="url(#clip900)" d="M662.788 1271.77 Q659.64 1271.77 657.788 1273.92 Q655.96 1276.08 655.96 1279.83 Q655.96 1283.55 657.788 1285.73 Q659.64 1287.88 662.788 1287.88 Q665.937 1287.88 667.765 1285.73 Q669.617 1283.55 669.617 1279.83 Q669.617 1276.08 667.765 1273.92 Q665.937 1271.77 662.788 1271.77 M672.071 1257.12 L672.071 1261.38 Q670.312 1260.55 668.506 1260.11 Q666.724 1259.67 664.964 1259.67 Q660.335 1259.67 657.881 1262.79 Q655.451 1265.92 655.103 1272.23 Q656.469 1270.22 658.529 1269.16 Q660.589 1268.07 663.066 1268.07 Q668.275 1268.07 671.284 1271.24 Q674.316 1274.39 674.316 1279.83 Q674.316 1285.15 671.168 1288.37 Q668.02 1291.59 662.788 1291.59 Q656.793 1291.59 653.622 1287 Q650.451 1282.4 650.451 1273.67 Q650.451 1265.48 654.339 1260.61 Q658.228 1255.73 664.779 1255.73 Q666.538 1255.73 668.321 1256.08 Q670.126 1256.42 672.071 1257.12 Z" fill="#000000" fill-rule="nonzero" fill-opacity="1" /><path clip-path="url(#clip900)" d="M694.362 1264.99 L698.622 1264.99 L703.946 1285.22 L709.247 1264.99 L714.27 1264.99 L719.594 1285.22 L724.895 1264.99 L729.154 1264.99 L722.371 1290.92 L717.348 1290.92 L711.77 1269.67 L706.168 1290.92 L701.145 1290.92 L694.362 1264.99 Z" fill="#000000" fill-rule="nonzero" fill-opacity="1" /><path clip-path="url(#clip900)" d="M757.788 1276.89 L757.788 1278.97 L738.205 1278.97 Q738.482 1283.37 740.844 1285.68 Q743.228 1287.98 747.464 1287.98 Q749.918 1287.98 752.209 1287.37 Q754.524 1286.77 756.793 1285.57 L756.793 1289.6 Q754.501 1290.57 752.094 1291.08 Q749.686 1291.59 747.209 1291.59 Q741.006 1291.59 737.371 1287.98 Q733.76 1284.36 733.76 1278.21 Q733.76 1271.84 737.186 1268.11 Q740.635 1264.36 746.469 1264.36 Q751.7 1264.36 754.732 1267.74 Q757.788 1271.1 757.788 1276.89 M753.529 1275.64 Q753.482 1272.14 751.561 1270.06 Q749.663 1267.98 746.515 1267.98 Q742.95 1267.98 740.797 1269.99 Q738.668 1272 738.344 1275.66 L753.529 1275.64 Z" fill="#000000" fill-rule="nonzero" fill-opacity="1" /><path clip-path="url(#clip900)" d="M786.954 1276.89 L786.954 1278.97 L767.371 1278.97 Q767.649 1283.37 770.01 1285.68 Q772.394 1287.98 776.63 1287.98 Q779.084 1287.98 781.376 1287.37 Q783.691 1286.77 785.959 1285.57 L785.959 1289.6 Q783.667 1290.57 781.26 1291.08 Q778.853 1291.59 776.376 1291.59 Q770.172 1291.59 766.538 1287.98 Q762.927 1284.36 762.927 1278.21 Q762.927 1271.84 766.353 1268.11 Q769.802 1264.36 775.635 1264.36 Q780.866 1264.36 783.899 1267.74 Q786.954 1271.1 786.954 1276.89 M782.695 1275.64 Q782.649 1272.14 780.728 1270.06 Q778.829 1267.98 775.681 1267.98 Q772.117 1267.98 769.964 1269.99 Q767.834 1272 767.51 1275.66 L782.695 1275.64 Z" fill="#000000" fill-rule="nonzero" fill-opacity="1" /><path clip-path="url(#clip900)" d="M793.783 1254.9 L798.065 1254.9 L798.065 1276.17 L810.774 1264.99 L816.214 1264.99 L802.464 1277.12 L816.792 1290.92 L811.237 1290.92 L798.065 1278.25 L798.065 1290.92 L793.783 1290.92 L793.783 1254.9 Z" fill="#000000" fill-rule="nonzero" fill-opacity="1" /><path clip-path="url(#clip900)" d="M845.565 1290.92 L832.371 1256.36 L837.255 1256.36 L848.204 1285.45 L859.176 1256.36 L864.037 1256.36 L850.866 1290.92 L845.565 1290.92 Z" fill="#000000" fill-rule="nonzero" fill-opacity="1" /><path clip-path="url(#clip900)" d="M873.76 1260.2 L873.76 1273.18 L879.639 1273.18 Q882.903 1273.18 884.685 1271.49 Q886.468 1269.8 886.468 1266.68 Q886.468 1263.58 884.685 1261.89 Q882.903 1260.2 879.639 1260.2 L873.76 1260.2 M869.084 1256.36 L879.639 1256.36 Q885.449 1256.36 888.412 1258.99 Q891.398 1261.61 891.398 1266.68 Q891.398 1271.8 888.412 1274.41 Q885.449 1277.03 879.639 1277.03 L873.76 1277.03 L873.76 1290.92 L869.084 1290.92 L869.084 1256.36 Z" fill="#000000" fill-rule="nonzero" fill-opacity="1" /><path clip-path="url(#clip900)" d="M913.111 1269.39 L942.787 1269.39 L942.787 1273.28 L913.111 1273.28 L913.111 1269.39 M913.111 1278.83 L942.787 1278.83 L942.787 1282.77 L913.111 1282.77 L913.111 1278.83 Z" fill="#000000" fill-rule="nonzero" fill-opacity="1" /><path clip-path="url(#clip900)" d="M968.759 1286.98 L976.398 1286.98 L976.398 1260.61 L968.088 1262.28 L968.088 1258.02 L976.352 1256.36 L981.027 1256.36 L981.027 1286.98 L988.666 1286.98 L988.666 1290.92 L968.759 1290.92 L968.759 1286.98 Z" fill="#000000" fill-rule="nonzero" fill-opacity="1" /><path clip-path="url(#clip900)" d="M1008.11 1259.43 Q1004.5 1259.43 1002.67 1263 Q1000.87 1266.54 1000.87 1273.67 Q1000.87 1280.78 1002.67 1284.34 Q1004.5 1287.88 1008.11 1287.88 Q1011.74 1287.88 1013.55 1284.34 Q1015.38 1280.78 1015.38 1273.67 Q1015.38 1266.54 1013.55 1263 Q1011.74 1259.43 1008.11 1259.43 M1008.11 1255.73 Q1013.92 1255.73 1016.98 1260.34 Q1020.06 1264.92 1020.06 1273.67 Q1020.06 1282.4 1016.98 1287 Q1013.92 1291.59 1008.11 1291.59 Q1002.3 1291.59 999.222 1287 Q996.166 1282.4 996.166 1273.67 Q996.166 1264.92 999.222 1260.34 Q1002.3 1255.73 1008.11 1255.73 Z" fill="#000000" fill-rule="nonzero" fill-opacity="1" /><path clip-path="url(#clip900)" d="M1038.27 1259.43 Q1034.66 1259.43 1032.83 1263 Q1031.03 1266.54 1031.03 1273.67 Q1031.03 1280.78 1032.83 1284.34 Q1034.66 1287.88 1038.27 1287.88 Q1041.91 1287.88 1043.71 1284.34 Q1045.54 1280.78 1045.54 1273.67 Q1045.54 1266.54 1043.71 1263 Q1041.91 1259.43 1038.27 1259.43 M1038.27 1255.73 Q1044.08 1255.73 1047.14 1260.34 Q1050.22 1264.92 1050.22 1273.67 Q1050.22 1282.4 1047.14 1287 Q1044.08 1291.59 1038.27 1291.59 Q1032.46 1291.59 1029.38 1287 Q1026.33 1282.4 1026.33 1273.67 Q1026.33 1264.92 1029.38 1260.34 Q1032.46 1255.73 1038.27 1255.73 Z" fill="#000000" fill-rule="nonzero" fill-opacity="1" /><path clip-path="url(#clip900)" d="M1068.43 1259.43 Q1064.82 1259.43 1062.99 1263 Q1061.19 1266.54 1061.19 1273.67 Q1061.19 1280.78 1062.99 1284.34 Q1064.82 1287.88 1068.43 1287.88 Q1072.07 1287.88 1073.87 1284.34 Q1075.7 1280.78 1075.7 1273.67 Q1075.7 1266.54 1073.87 1263 Q1072.07 1259.43 1068.43 1259.43 M1068.43 1255.73 Q1074.24 1255.73 1077.3 1260.34 Q1080.38 1264.92 1080.38 1273.67 Q1080.38 1282.4 1077.3 1287 Q1074.24 1291.59 1068.43 1291.59 Q1062.62 1291.59 1059.55 1287 Q1056.49 1282.4 1056.49 1273.67 Q1056.49 1264.92 1059.55 1260.34 Q1062.62 1255.73 1068.43 1255.73 Z" fill="#000000" fill-rule="nonzero" fill-opacity="1" /><path clip-path="url(#clip900)" d="M1102.72 1256.36 L1107.42 1256.36 L1107.42 1277.35 Q1107.42 1282.91 1109.43 1285.36 Q1111.44 1287.79 1115.96 1287.79 Q1120.45 1287.79 1122.46 1285.36 Q1124.48 1282.91 1124.48 1277.35 L1124.48 1256.36 L1129.17 1256.36 L1129.17 1277.93 Q1129.17 1284.69 1125.82 1288.14 Q1122.49 1291.59 1115.96 1291.59 Q1109.41 1291.59 1106.05 1288.14 Q1102.72 1284.69 1102.72 1277.93 L1102.72 1256.36 Z" fill="#000000" fill-rule="nonzero" fill-opacity="1" /><path clip-path="url(#clip900)" d="M1158.67 1257.49 L1158.67 1262.05 Q1156 1260.78 1153.64 1260.15 Q1151.28 1259.53 1149.08 1259.53 Q1145.26 1259.53 1143.18 1261.01 Q1141.12 1262.49 1141.12 1265.22 Q1141.12 1267.51 1142.48 1268.69 Q1143.87 1269.85 1147.72 1270.57 L1150.54 1271.15 Q1155.77 1272.14 1158.25 1274.67 Q1160.75 1277.17 1160.75 1281.38 Q1160.75 1286.4 1157.37 1288.99 Q1154.01 1291.59 1147.51 1291.59 Q1145.05 1291.59 1142.28 1291.03 Q1139.52 1290.48 1136.56 1289.39 L1136.56 1284.57 Q1139.41 1286.17 1142.14 1286.98 Q1144.87 1287.79 1147.51 1287.79 Q1151.51 1287.79 1153.69 1286.22 Q1155.86 1284.64 1155.86 1281.73 Q1155.86 1279.18 1154.29 1277.74 Q1152.74 1276.31 1149.17 1275.59 L1146.33 1275.04 Q1141.1 1273.99 1138.76 1271.77 Q1136.42 1269.55 1136.42 1265.59 Q1136.42 1261.01 1139.64 1258.37 Q1142.88 1255.73 1148.55 1255.73 Q1150.98 1255.73 1153.5 1256.17 Q1156.03 1256.61 1158.67 1257.49 Z" fill="#000000" fill-rule="nonzero" fill-opacity="1" /><path clip-path="url(#clip900)" d="M1172.72 1260.2 L1172.72 1287.07 L1178.36 1287.07 Q1185.52 1287.07 1188.83 1283.83 Q1192.16 1280.59 1192.16 1273.6 Q1192.16 1266.66 1188.83 1263.44 Q1185.52 1260.2 1178.36 1260.2 L1172.72 1260.2 M1168.04 1256.36 L1177.65 1256.36 Q1187.69 1256.36 1192.39 1260.55 Q1197.09 1264.71 1197.09 1273.6 Q1197.09 1282.54 1192.37 1286.73 Q1187.65 1290.92 1177.65 1290.92 L1168.04 1290.92 L1168.04 1256.36 Z" fill="#000000" fill-rule="nonzero" fill-opacity="1" /><path clip-path="url(#clip900)" d="M1217.62 1256.36 L1244.78 1256.36 L1244.78 1259.92 L1222.92 1286.98 L1245.31 1286.98 L1245.31 1290.92 L1217.09 1290.92 L1217.09 1287.35 L1238.94 1260.29 L1217.62 1260.29 L1217.62 1256.36 Z" fill="#000000" fill-rule="nonzero" fill-opacity="1" /><path clip-path="url(#clip900)" d="M1277.97 1259.02 L1277.97 1263.95 Q1275.61 1261.75 1272.92 1260.66 Q1270.26 1259.57 1267.25 1259.57 Q1261.33 1259.57 1258.18 1263.21 Q1255.03 1266.82 1255.03 1273.67 Q1255.03 1280.5 1258.18 1284.13 Q1261.33 1287.74 1267.25 1287.74 Q1270.26 1287.74 1272.92 1286.66 Q1275.61 1285.57 1277.97 1283.37 L1277.97 1288.25 Q1275.52 1289.92 1272.76 1290.75 Q1270.03 1291.59 1266.98 1291.59 Q1259.13 1291.59 1254.61 1286.79 Q1250.1 1281.98 1250.1 1273.67 Q1250.1 1265.34 1254.61 1260.55 Q1259.13 1255.73 1266.98 1255.73 Q1270.08 1255.73 1272.81 1256.56 Q1275.56 1257.37 1277.97 1259.02 Z" fill="#000000" fill-rule="nonzero" fill-opacity="1" /><path clip-path="url(#clip900)" d="M1295.47 1256.36 L1324.71 1256.36 L1324.71 1260.29 L1312.44 1260.29 L1312.44 1290.92 L1307.74 1290.92 L1307.74 1260.29 L1295.47 1260.29 L1295.47 1256.36 Z" fill="#000000" fill-rule="nonzero" fill-opacity="1" /><path clip-path="url(#clip900)" d="M1333.9 1274.41 L1333.9 1287.07 L1341.4 1287.07 Q1345.17 1287.07 1346.97 1285.52 Q1348.8 1283.95 1348.8 1280.73 Q1348.8 1277.49 1346.97 1275.96 Q1345.17 1274.41 1341.4 1274.41 L1333.9 1274.41 M1333.9 1260.2 L1333.9 1270.61 L1340.82 1270.61 Q1344.24 1270.61 1345.91 1269.34 Q1347.6 1268.05 1347.6 1265.41 Q1347.6 1262.79 1345.91 1261.49 Q1344.24 1260.2 1340.82 1260.2 L1333.9 1260.2 M1329.22 1256.36 L1341.16 1256.36 Q1346.51 1256.36 1349.41 1258.58 Q1352.3 1260.8 1352.3 1264.9 Q1352.3 1268.07 1350.82 1269.94 Q1349.34 1271.82 1346.47 1272.28 Q1349.91 1273.02 1351.81 1275.38 Q1353.73 1277.72 1353.73 1281.24 Q1353.73 1285.87 1350.59 1288.39 Q1347.44 1290.92 1341.63 1290.92 L1329.22 1290.92 L1329.22 1256.36 Z" fill="#000000" fill-rule="nonzero" fill-opacity="1" /><path clip-path="url(#clip900)" d="M1361.56 1264.99 L1365.82 1264.99 L1365.82 1290.92 L1361.56 1290.92 L1361.56 1264.99 M1361.56 1254.9 L1365.82 1254.9 L1365.82 1260.29 L1361.56 1260.29 L1361.56 1254.9 Z" fill="#000000" fill-rule="nonzero" fill-opacity="1" /><path clip-path="url(#clip900)" d="M1374.73 1254.9 L1378.99 1254.9 L1378.99 1290.92 L1374.73 1290.92 L1374.73 1254.9 Z" fill="#000000" fill-rule="nonzero" fill-opacity="1" /><path clip-path="url(#clip900)" d="M1387.9 1254.9 L1392.16 1254.9 L1392.16 1290.92 L1387.9 1290.92 L1387.9 1254.9 Z" fill="#000000" fill-rule="nonzero" fill-opacity="1" /><path clip-path="url(#clip900)" d="M1420.77 1286.98 L1437.09 1286.98 L1437.09 1290.92 L1415.15 1290.92 L1415.15 1286.98 Q1417.81 1284.23 1422.39 1279.6 Q1427 1274.94 1428.18 1273.6 Q1430.42 1271.08 1431.3 1269.34 Q1432.21 1267.58 1432.21 1265.89 Q1432.21 1263.14 1430.26 1261.4 Q1428.34 1259.67 1425.24 1259.67 Q1423.04 1259.67 1420.59 1260.43 Q1418.15 1261.19 1415.38 1262.74 L1415.38 1258.02 Q1418.2 1256.89 1420.65 1256.31 Q1423.11 1255.73 1425.15 1255.73 Q1430.52 1255.73 1433.71 1258.42 Q1436.9 1261.1 1436.9 1265.59 Q1436.9 1267.72 1436.09 1269.64 Q1435.31 1271.54 1433.2 1274.13 Q1432.62 1274.8 1429.52 1278.02 Q1426.42 1281.22 1420.77 1286.98 Z" fill="#000000" fill-rule="nonzero" fill-opacity="1" /><path clip-path="url(#clip900)" d="M1456.9 1259.43 Q1453.29 1259.43 1451.46 1263 Q1449.66 1266.54 1449.66 1273.67 Q1449.66 1280.78 1451.46 1284.34 Q1453.29 1287.88 1456.9 1287.88 Q1460.54 1287.88 1462.34 1284.34 Q1464.17 1280.78 1464.17 1273.67 Q1464.17 1266.54 1462.34 1263 Q1460.54 1259.43 1456.9 1259.43 M1456.9 1255.73 Q1462.71 1255.73 1465.77 1260.34 Q1468.85 1264.92 1468.85 1273.67 Q1468.85 1282.4 1465.77 1287 Q1462.71 1291.59 1456.9 1291.59 Q1451.09 1291.59 1448.02 1287 Q1444.96 1282.4 1444.96 1273.67 Q1444.96 1264.92 1448.02 1260.34 Q1451.09 1255.73 1456.9 1255.73 Z" fill="#000000" fill-rule="nonzero" fill-opacity="1" /><path clip-path="url(#clip900)" d="M1481.09 1286.98 L1497.41 1286.98 L1497.41 1290.92 L1475.47 1290.92 L1475.47 1286.98 Q1478.13 1284.23 1482.71 1279.6 Q1487.32 1274.94 1488.5 1273.6 Q1490.75 1271.08 1491.63 1269.34 Q1492.53 1267.58 1492.53 1265.89 Q1492.53 1263.14 1490.58 1261.4 Q1488.66 1259.67 1485.56 1259.67 Q1483.36 1259.67 1480.91 1260.43 Q1478.48 1261.19 1475.7 1262.74 L1475.7 1258.02 Q1478.52 1256.89 1480.98 1256.31 Q1483.43 1255.73 1485.47 1255.73 Q1490.84 1255.73 1494.03 1258.42 Q1497.23 1261.1 1497.23 1265.59 Q1497.23 1267.72 1496.42 1269.64 Q1495.63 1271.54 1493.52 1274.13 Q1492.95 1274.8 1489.84 1278.02 Q1486.74 1281.22 1481.09 1286.98 Z" fill="#000000" fill-rule="nonzero" fill-opacity="1" /><path clip-path="url(#clip900)" d="M1511.26 1286.98 L1527.58 1286.98 L1527.58 1290.92 L1505.63 1290.92 L1505.63 1286.98 Q1508.29 1284.23 1512.88 1279.6 Q1517.48 1274.94 1518.66 1273.6 Q1520.91 1271.08 1521.79 1269.34 Q1522.69 1267.58 1522.69 1265.89 Q1522.69 1263.14 1520.75 1261.4 Q1518.83 1259.67 1515.72 1259.67 Q1513.52 1259.67 1511.07 1260.43 Q1508.64 1261.19 1505.86 1262.74 L1505.86 1258.02 Q1508.69 1256.89 1511.14 1256.31 Q1513.59 1255.73 1515.63 1255.73 Q1521 1255.73 1524.2 1258.42 Q1527.39 1261.1 1527.39 1265.59 Q1527.39 1267.72 1526.58 1269.64 Q1525.79 1271.54 1523.69 1274.13 Q1523.11 1274.8 1520.01 1278.02 Q1516.9 1281.22 1511.26 1286.98 Z" fill="#000000" fill-rule="nonzero" fill-opacity="1" /><polyline clip-path="url(#clip900)" style="stroke:#000080; stroke-linecap:round; stroke-linejoin:round; stroke-width:12; stroke-opacity:1; fill:none" points="355.449,1325.48 494.796,1325.48 "/>
<path clip-path="url(#clip900)" d="M518.021 1308.2 L547.257 1308.2 L547.257 1312.13 L534.988 1312.13 L534.988 1342.76 L530.289 1342.76 L530.289 1312.13 L518.021 1312.13 L518.021 1308.2 Z" fill="#000000" fill-rule="nonzero" fill-opacity="1" /><path clip-path="url(#clip900)" d="M552.141 1321.23 L581.817 1321.23 L581.817 1325.12 L552.141 1325.12 L552.141 1321.23 M552.141 1330.67 L581.817 1330.67 L581.817 1334.61 L552.141 1334.61 L552.141 1330.67 Z" fill="#000000" fill-rule="nonzero" fill-opacity="1" /><path clip-path="url(#clip900)" d="M607.025 1308.2 L625.381 1308.2 L625.381 1312.13 L611.307 1312.13 L611.307 1320.6 Q612.326 1320.26 613.344 1320.09 Q614.363 1319.91 615.381 1319.91 Q621.168 1319.91 624.548 1323.08 Q627.928 1326.25 627.928 1331.67 Q627.928 1337.25 624.455 1340.35 Q620.983 1343.43 614.664 1343.43 Q612.488 1343.43 610.219 1343.06 Q607.974 1342.69 605.567 1341.95 L605.567 1337.25 Q607.65 1338.38 609.872 1338.94 Q612.094 1339.49 614.571 1339.49 Q618.576 1339.49 620.914 1337.38 Q623.252 1335.28 623.252 1331.67 Q623.252 1328.06 620.914 1325.95 Q618.576 1323.84 614.571 1323.84 Q612.696 1323.84 610.821 1324.26 Q608.969 1324.68 607.025 1325.56 L607.025 1308.2 Z" fill="#000000" fill-rule="nonzero" fill-opacity="1" /><path clip-path="url(#clip900)" d="M641.168 1338.82 L657.488 1338.82 L657.488 1342.76 L635.543 1342.76 L635.543 1338.82 Q638.205 1336.07 642.789 1331.44 Q647.395 1326.78 648.576 1325.44 Q650.821 1322.92 651.701 1321.18 Q652.603 1319.42 652.603 1317.73 Q652.603 1314.98 650.659 1313.24 Q648.738 1311.51 645.636 1311.51 Q643.437 1311.51 640.983 1312.27 Q638.552 1313.03 635.775 1314.58 L635.775 1309.86 Q638.599 1308.73 641.052 1308.15 Q643.506 1307.57 645.543 1307.57 Q650.913 1307.57 654.108 1310.26 Q657.302 1312.94 657.302 1317.43 Q657.302 1319.56 656.492 1321.48 Q655.705 1323.38 653.599 1325.97 Q653.02 1326.64 649.918 1329.86 Q646.816 1333.06 641.168 1338.82 Z" fill="#000000" fill-rule="nonzero" fill-opacity="1" /><path clip-path="url(#clip900)" d="M679.293 1316.83 L683.552 1316.83 L688.876 1337.06 L694.177 1316.83 L699.2 1316.83 L704.524 1337.06 L709.825 1316.83 L714.084 1316.83 L707.302 1342.76 L702.279 1342.76 L696.7 1321.51 L691.098 1342.76 L686.075 1342.76 L679.293 1316.83 Z" fill="#000000" fill-rule="nonzero" fill-opacity="1" /><path clip-path="url(#clip900)" d="M742.719 1328.73 L742.719 1330.81 L723.135 1330.81 Q723.413 1335.21 725.774 1337.52 Q728.158 1339.82 732.395 1339.82 Q734.848 1339.82 737.14 1339.21 Q739.455 1338.61 741.723 1337.41 L741.723 1341.44 Q739.432 1342.41 737.024 1342.92 Q734.617 1343.43 732.14 1343.43 Q725.936 1343.43 722.302 1339.82 Q718.691 1336.2 718.691 1330.05 Q718.691 1323.68 722.117 1319.95 Q725.566 1316.2 731.399 1316.2 Q736.631 1316.2 739.663 1319.58 Q742.719 1322.94 742.719 1328.73 M738.459 1327.48 Q738.413 1323.98 736.492 1321.9 Q734.594 1319.82 731.445 1319.82 Q727.881 1319.82 725.728 1321.83 Q723.598 1323.84 723.274 1327.5 L738.459 1327.48 Z" fill="#000000" fill-rule="nonzero" fill-opacity="1" /><path clip-path="url(#clip900)" d="M771.885 1328.73 L771.885 1330.81 L752.302 1330.81 Q752.58 1335.21 754.941 1337.52 Q757.325 1339.82 761.561 1339.82 Q764.015 1339.82 766.306 1339.21 Q768.621 1338.61 770.89 1337.41 L770.89 1341.44 Q768.598 1342.41 766.191 1342.92 Q763.783 1343.43 761.306 1343.43 Q755.103 1343.43 751.469 1339.82 Q747.857 1336.2 747.857 1330.05 Q747.857 1323.68 751.283 1319.95 Q754.732 1316.2 760.566 1316.2 Q765.797 1316.2 768.83 1319.58 Q771.885 1322.94 771.885 1328.73 M767.626 1327.48 Q767.58 1323.98 765.658 1321.9 Q763.76 1319.82 760.612 1319.82 Q757.047 1319.82 754.894 1321.83 Q752.765 1323.84 752.441 1327.5 L767.626 1327.48 Z" fill="#000000" fill-rule="nonzero" fill-opacity="1" /><path clip-path="url(#clip900)" d="M778.714 1306.74 L782.996 1306.74 L782.996 1328.01 L795.704 1316.83 L801.144 1316.83 L787.394 1328.96 L801.723 1342.76 L796.167 1342.76 L782.996 1330.09 L782.996 1342.76 L778.714 1342.76 L778.714 1306.74 Z" fill="#000000" fill-rule="nonzero" fill-opacity="1" /><path clip-path="url(#clip900)" d="M830.496 1342.76 L817.301 1308.2 L822.186 1308.2 L833.135 1337.29 L844.107 1308.2 L848.968 1308.2 L835.797 1342.76 L830.496 1342.76 Z" fill="#000000" fill-rule="nonzero" fill-opacity="1" /><path clip-path="url(#clip900)" d="M858.69 1312.04 L858.69 1325.02 L864.57 1325.02 Q867.834 1325.02 869.616 1323.33 Q871.398 1321.64 871.398 1318.52 Q871.398 1315.42 869.616 1313.73 Q867.834 1312.04 864.57 1312.04 L858.69 1312.04 M854.014 1308.2 L864.57 1308.2 Q870.38 1308.2 873.343 1310.83 Q876.329 1313.45 876.329 1318.52 Q876.329 1323.64 873.343 1326.25 Q870.38 1328.87 864.57 1328.87 L858.69 1328.87 L858.69 1342.76 L854.014 1342.76 L854.014 1308.2 Z" fill="#000000" fill-rule="nonzero" fill-opacity="1" /><path clip-path="url(#clip900)" d="M898.042 1321.23 L927.718 1321.23 L927.718 1325.12 L898.042 1325.12 L898.042 1321.23 M898.042 1330.67 L927.718 1330.67 L927.718 1334.61 L898.042 1334.61 L898.042 1330.67 Z" fill="#000000" fill-rule="nonzero" fill-opacity="1" /><path clip-path="url(#clip900)" d="M953.69 1338.82 L961.328 1338.82 L961.328 1312.45 L953.018 1314.12 L953.018 1309.86 L961.282 1308.2 L965.958 1308.2 L965.958 1338.82 L973.597 1338.82 L973.597 1342.76 L953.69 1342.76 L953.69 1338.82 Z" fill="#000000" fill-rule="nonzero" fill-opacity="1" /><path clip-path="url(#clip900)" d="M993.041 1311.27 Q989.43 1311.27 987.602 1314.84 Q985.796 1318.38 985.796 1325.51 Q985.796 1332.62 987.602 1336.18 Q989.43 1339.72 993.041 1339.72 Q996.676 1339.72 998.481 1336.18 Q1000.31 1332.62 1000.31 1325.51 Q1000.31 1318.38 998.481 1314.84 Q996.676 1311.27 993.041 1311.27 M993.041 1307.57 Q998.851 1307.57 1001.91 1312.18 Q1004.99 1316.76 1004.99 1325.51 Q1004.99 1334.24 1001.91 1338.84 Q998.851 1343.43 993.041 1343.43 Q987.231 1343.43 984.152 1338.84 Q981.097 1334.24 981.097 1325.51 Q981.097 1316.76 984.152 1312.18 Q987.231 1307.57 993.041 1307.57 Z" fill="#000000" fill-rule="nonzero" fill-opacity="1" /><path clip-path="url(#clip900)" d="M1023.2 1311.27 Q1019.59 1311.27 1017.76 1314.84 Q1015.96 1318.38 1015.96 1325.51 Q1015.96 1332.62 1017.76 1336.18 Q1019.59 1339.72 1023.2 1339.72 Q1026.84 1339.72 1028.64 1336.18 Q1030.47 1332.62 1030.47 1325.51 Q1030.47 1318.38 1028.64 1314.84 Q1026.84 1311.27 1023.2 1311.27 M1023.2 1307.57 Q1029.01 1307.57 1032.07 1312.18 Q1035.15 1316.76 1035.15 1325.51 Q1035.15 1334.24 1032.07 1338.84 Q1029.01 1343.43 1023.2 1343.43 Q1017.39 1343.43 1014.31 1338.84 Q1011.26 1334.24 1011.26 1325.51 Q1011.26 1316.76 1014.31 1312.18 Q1017.39 1307.57 1023.2 1307.57 Z" fill="#000000" fill-rule="nonzero" fill-opacity="1" /><path clip-path="url(#clip900)" d="M1053.37 1311.27 Q1049.75 1311.27 1047.93 1314.84 Q1046.12 1318.38 1046.12 1325.51 Q1046.12 1332.62 1047.93 1336.18 Q1049.75 1339.72 1053.37 1339.72 Q1057 1339.72 1058.8 1336.18 Q1060.63 1332.62 1060.63 1325.51 Q1060.63 1318.38 1058.8 1314.84 Q1057 1311.27 1053.37 1311.27 M1053.37 1307.57 Q1059.18 1307.57 1062.23 1312.18 Q1065.31 1316.76 1065.31 1325.51 Q1065.31 1334.24 1062.23 1338.84 Q1059.18 1343.43 1053.37 1343.43 Q1047.55 1343.43 1044.48 1338.84 Q1041.42 1334.24 1041.42 1325.51 Q1041.42 1316.76 1044.48 1312.18 Q1047.55 1307.57 1053.37 1307.57 Z" fill="#000000" fill-rule="nonzero" fill-opacity="1" /><path clip-path="url(#clip900)" d="M1087.65 1308.2 L1092.35 1308.2 L1092.35 1329.19 Q1092.35 1334.75 1094.36 1337.2 Q1096.37 1339.63 1100.89 1339.63 Q1105.38 1339.63 1107.39 1337.2 Q1109.41 1334.75 1109.41 1329.19 L1109.41 1308.2 L1114.11 1308.2 L1114.11 1329.77 Q1114.11 1336.53 1110.75 1339.98 Q1107.42 1343.43 1100.89 1343.43 Q1094.34 1343.43 1090.98 1339.98 Q1087.65 1336.53 1087.65 1329.77 L1087.65 1308.2 Z" fill="#000000" fill-rule="nonzero" fill-opacity="1" /><path clip-path="url(#clip900)" d="M1143.6 1309.33 L1143.6 1313.89 Q1140.93 1312.62 1138.57 1311.99 Q1136.21 1311.37 1134.01 1311.37 Q1130.19 1311.37 1128.11 1312.85 Q1126.05 1314.33 1126.05 1317.06 Q1126.05 1319.35 1127.42 1320.53 Q1128.8 1321.69 1132.65 1322.41 L1135.47 1322.99 Q1140.7 1323.98 1143.18 1326.51 Q1145.68 1329.01 1145.68 1333.22 Q1145.68 1338.24 1142.3 1340.83 Q1138.94 1343.43 1132.44 1343.43 Q1129.98 1343.43 1127.21 1342.87 Q1124.45 1342.32 1121.49 1341.23 L1121.49 1336.41 Q1124.34 1338.01 1127.07 1338.82 Q1129.8 1339.63 1132.44 1339.63 Q1136.44 1339.63 1138.62 1338.06 Q1140.8 1336.48 1140.8 1333.57 Q1140.8 1331.02 1139.22 1329.58 Q1137.67 1328.15 1134.11 1327.43 L1131.26 1326.88 Q1126.03 1325.83 1123.69 1323.61 Q1121.35 1321.39 1121.35 1317.43 Q1121.35 1312.85 1124.57 1310.21 Q1127.81 1307.57 1133.48 1307.57 Q1135.91 1307.57 1138.43 1308.01 Q1140.96 1308.45 1143.6 1309.33 Z" fill="#000000" fill-rule="nonzero" fill-opacity="1" /><path clip-path="url(#clip900)" d="M1157.65 1312.04 L1157.65 1338.91 L1163.3 1338.91 Q1170.45 1338.91 1173.76 1335.67 Q1177.09 1332.43 1177.09 1325.44 Q1177.09 1318.5 1173.76 1315.28 Q1170.45 1312.04 1163.3 1312.04 L1157.65 1312.04 M1152.97 1308.2 L1162.58 1308.2 Q1172.62 1308.2 1177.32 1312.39 Q1182.02 1316.55 1182.02 1325.44 Q1182.02 1334.38 1177.3 1338.57 Q1172.58 1342.76 1162.58 1342.76 L1152.97 1342.76 L1152.97 1308.2 Z" fill="#000000" fill-rule="nonzero" fill-opacity="1" /><path clip-path="url(#clip900)" d="M1202.55 1308.2 L1229.71 1308.2 L1229.71 1311.76 L1207.85 1338.82 L1230.24 1338.82 L1230.24 1342.76 L1202.02 1342.76 L1202.02 1339.19 L1223.87 1312.13 L1202.55 1312.13 L1202.55 1308.2 Z" fill="#000000" fill-rule="nonzero" fill-opacity="1" /><path clip-path="url(#clip900)" d="M1262.9 1310.86 L1262.9 1315.79 Q1260.54 1313.59 1257.85 1312.5 Q1255.19 1311.41 1252.18 1311.41 Q1246.26 1311.41 1243.11 1315.05 Q1239.96 1318.66 1239.96 1325.51 Q1239.96 1332.34 1243.11 1335.97 Q1246.26 1339.58 1252.18 1339.58 Q1255.19 1339.58 1257.85 1338.5 Q1260.54 1337.41 1262.9 1335.21 L1262.9 1340.09 Q1260.45 1341.76 1257.69 1342.59 Q1254.96 1343.43 1251.91 1343.43 Q1244.06 1343.43 1239.54 1338.63 Q1235.03 1333.82 1235.03 1325.51 Q1235.03 1317.18 1239.54 1312.39 Q1244.06 1307.57 1251.91 1307.57 Q1255.01 1307.57 1257.74 1308.4 Q1260.49 1309.21 1262.9 1310.86 Z" fill="#000000" fill-rule="nonzero" fill-opacity="1" /><path clip-path="url(#clip900)" d="M1280.4 1308.2 L1309.64 1308.2 L1309.64 1312.13 L1297.37 1312.13 L1297.37 1342.76 L1292.67 1342.76 L1292.67 1312.13 L1280.4 1312.13 L1280.4 1308.2 Z" fill="#000000" fill-rule="nonzero" fill-opacity="1" /><path clip-path="url(#clip900)" d="M1318.83 1326.25 L1318.83 1338.91 L1326.33 1338.91 Q1330.1 1338.91 1331.91 1337.36 Q1333.73 1335.79 1333.73 1332.57 Q1333.73 1329.33 1331.91 1327.8 Q1330.1 1326.25 1326.33 1326.25 L1318.83 1326.25 M1318.83 1312.04 L1318.83 1322.45 L1325.75 1322.45 Q1329.17 1322.45 1330.84 1321.18 Q1332.53 1319.89 1332.53 1317.25 Q1332.53 1314.63 1330.84 1313.33 Q1329.17 1312.04 1325.75 1312.04 L1318.83 1312.04 M1314.15 1308.2 L1326.1 1308.2 Q1331.44 1308.2 1334.34 1310.42 Q1337.23 1312.64 1337.23 1316.74 Q1337.23 1319.91 1335.75 1321.78 Q1334.27 1323.66 1331.4 1324.12 Q1334.85 1324.86 1336.74 1327.22 Q1338.66 1329.56 1338.66 1333.08 Q1338.66 1337.71 1335.52 1340.23 Q1332.37 1342.76 1326.56 1342.76 L1314.15 1342.76 L1314.15 1308.2 Z" fill="#000000" fill-rule="nonzero" fill-opacity="1" /><path clip-path="url(#clip900)" d="M1346.49 1316.83 L1350.75 1316.83 L1350.75 1342.76 L1346.49 1342.76 L1346.49 1316.83 M1346.49 1306.74 L1350.75 1306.74 L1350.75 1312.13 L1346.49 1312.13 L1346.49 1306.74 Z" fill="#000000" fill-rule="nonzero" fill-opacity="1" /><path clip-path="url(#clip900)" d="M1359.66 1306.74 L1363.92 1306.74 L1363.92 1342.76 L1359.66 1342.76 L1359.66 1306.74 Z" fill="#000000" fill-rule="nonzero" fill-opacity="1" /><path clip-path="url(#clip900)" d="M1372.83 1306.74 L1377.09 1306.74 L1377.09 1342.76 L1372.83 1342.76 L1372.83 1306.74 Z" fill="#000000" fill-rule="nonzero" fill-opacity="1" /><path clip-path="url(#clip900)" d="M1405.7 1338.82 L1422.02 1338.82 L1422.02 1342.76 L1400.08 1342.76 L1400.08 1338.82 Q1402.74 1336.07 1407.32 1331.44 Q1411.93 1326.78 1413.11 1325.44 Q1415.35 1322.92 1416.23 1321.18 Q1417.14 1319.42 1417.14 1317.73 Q1417.14 1314.98 1415.19 1313.24 Q1413.27 1311.51 1410.17 1311.51 Q1407.97 1311.51 1405.52 1312.27 Q1403.09 1313.03 1400.31 1314.58 L1400.31 1309.86 Q1403.13 1308.73 1405.59 1308.15 Q1408.04 1307.57 1410.08 1307.57 Q1415.45 1307.57 1418.64 1310.26 Q1421.84 1312.94 1421.84 1317.43 Q1421.84 1319.56 1421.03 1321.48 Q1420.24 1323.38 1418.13 1325.97 Q1417.55 1326.64 1414.45 1329.86 Q1411.35 1333.06 1405.7 1338.82 Z" fill="#000000" fill-rule="nonzero" fill-opacity="1" /><path clip-path="url(#clip900)" d="M1441.84 1311.27 Q1438.22 1311.27 1436.4 1314.84 Q1434.59 1318.38 1434.59 1325.51 Q1434.59 1332.62 1436.4 1336.18 Q1438.22 1339.72 1441.84 1339.72 Q1445.47 1339.72 1447.27 1336.18 Q1449.1 1332.62 1449.1 1325.51 Q1449.1 1318.38 1447.27 1314.84 Q1445.47 1311.27 1441.84 1311.27 M1441.84 1307.57 Q1447.65 1307.57 1450.7 1312.18 Q1453.78 1316.76 1453.78 1325.51 Q1453.78 1334.24 1450.7 1338.84 Q1447.65 1343.43 1441.84 1343.43 Q1436.03 1343.43 1432.95 1338.84 Q1429.89 1334.24 1429.89 1325.51 Q1429.89 1316.76 1432.95 1312.18 Q1436.03 1307.57 1441.84 1307.57 Z" fill="#000000" fill-rule="nonzero" fill-opacity="1" /><path clip-path="url(#clip900)" d="M1466.02 1338.82 L1482.34 1338.82 L1482.34 1342.76 L1460.4 1342.76 L1460.4 1338.82 Q1463.06 1336.07 1467.65 1331.44 Q1472.25 1326.78 1473.43 1325.44 Q1475.68 1322.92 1476.56 1321.18 Q1477.46 1319.42 1477.46 1317.73 Q1477.46 1314.98 1475.52 1313.24 Q1473.59 1311.51 1470.49 1311.51 Q1468.29 1311.51 1465.84 1312.27 Q1463.41 1313.03 1460.63 1314.58 L1460.63 1309.86 Q1463.46 1308.73 1465.91 1308.15 Q1468.36 1307.57 1470.4 1307.57 Q1475.77 1307.57 1478.96 1310.26 Q1482.16 1312.94 1482.16 1317.43 Q1482.16 1319.56 1481.35 1321.48 Q1480.56 1323.38 1478.46 1325.97 Q1477.88 1326.64 1474.77 1329.86 Q1471.67 1333.06 1466.02 1338.82 Z" fill="#000000" fill-rule="nonzero" fill-opacity="1" /><path clip-path="url(#clip900)" d="M1496.19 1338.82 L1512.51 1338.82 L1512.51 1342.76 L1490.56 1342.76 L1490.56 1338.82 Q1493.22 1336.07 1497.81 1331.44 Q1502.41 1326.78 1503.59 1325.44 Q1505.84 1322.92 1506.72 1321.18 Q1507.62 1319.42 1507.62 1317.73 Q1507.62 1314.98 1505.68 1313.24 Q1503.76 1311.51 1500.65 1311.51 Q1498.46 1311.51 1496 1312.27 Q1493.57 1313.03 1490.79 1314.58 L1490.79 1309.86 Q1493.62 1308.73 1496.07 1308.15 Q1498.52 1307.57 1500.56 1307.57 Q1505.93 1307.57 1509.13 1310.26 Q1512.32 1312.94 1512.32 1317.43 Q1512.32 1319.56 1511.51 1321.48 Q1510.72 1323.38 1508.62 1325.97 Q1508.04 1326.64 1504.94 1329.86 Q1501.83 1333.06 1496.19 1338.82 Z" fill="#000000" fill-rule="nonzero" fill-opacity="1" /></svg>
