<?xml version="1.0" encoding="utf-8"?>
<svg xmlns="http://www.w3.org/2000/svg" xmlns:xlink="http://www.w3.org/1999/xlink" width="600" height="400" viewBox="0 0 2400 1600">
<defs>
  <clipPath id="clip840">
    <rect x="0" y="0" width="2400" height="1600"/>
  </clipPath>
</defs>
<path clip-path="url(#clip840)" d="M0 1600 L2400 1600 L2400 0 L0 0  Z" fill="#ffffff" fill-rule="evenodd" fill-opacity="1"/>
<defs>
  <clipPath id="clip841">
    <rect x="480" y="0" width="1681" height="1600"/>
  </clipPath>
</defs>
<path clip-path="url(#clip840)" d="M235.283 1423.18 L2352.76 1423.18 L2352.76 47.2441 L235.283 47.2441  Z" fill="#eee9e9" fill-rule="evenodd" fill-opacity="1"/>
<defs>
  <clipPath id="clip842">
    <rect x="235" y="47" width="2118" height="1377"/>
  </clipPath>
</defs>
<polyline clip-path="url(#clip842)" style="stroke:#000000; stroke-linecap:round; stroke-linejoin:round; stroke-width:2; stroke-opacity:0.1; fill:none" points="295.211,1423.18 295.211,47.2441 "/>
<polyline clip-path="url(#clip842)" style="stroke:#000000; stroke-linecap:round; stroke-linejoin:round; stroke-width:2; stroke-opacity:0.1; fill:none" points="711.381,1423.18 711.381,47.2441 "/>
<polyline clip-path="url(#clip842)" style="stroke:#000000; stroke-linecap:round; stroke-linejoin:round; stroke-width:2; stroke-opacity:0.1; fill:none" points="1127.55,1423.18 1127.55,47.2441 "/>
<polyline clip-path="url(#clip842)" style="stroke:#000000; stroke-linecap:round; stroke-linejoin:round; stroke-width:2; stroke-opacity:0.1; fill:none" points="1543.72,1423.18 1543.72,47.2441 "/>
<polyline clip-path="url(#clip842)" style="stroke:#000000; stroke-linecap:round; stroke-linejoin:round; stroke-width:2; stroke-opacity:0.1; fill:none" points="1959.89,1423.18 1959.89,47.2441 "/>
<polyline clip-path="url(#clip840)" style="stroke:#000000; stroke-linecap:round; stroke-linejoin:round; stroke-width:4; stroke-opacity:1; fill:none" points="235.283,1423.18 2352.76,1423.18 "/>
<polyline clip-path="url(#clip840)" style="stroke:#000000; stroke-linecap:round; stroke-linejoin:round; stroke-width:4; stroke-opacity:1; fill:none" points="235.283,47.2441 2352.76,47.2441 "/>
<polyline clip-path="url(#clip840)" style="stroke:#000000; stroke-linecap:round; stroke-linejoin:round; stroke-width:4; stroke-opacity:1; fill:none" points="295.211,1423.18 295.211,1404.28 "/>
<polyline clip-path="url(#clip840)" style="stroke:#000000; stroke-linecap:round; stroke-linejoin:round; stroke-width:4; stroke-opacity:1; fill:none" points="711.381,1423.18 711.381,1404.28 "/>
<polyline clip-path="url(#clip840)" style="stroke:#000000; stroke-linecap:round; stroke-linejoin:round; stroke-width:4; stroke-opacity:1; fill:none" points="1127.55,1423.18 1127.55,1404.28 "/>
<polyline clip-path="url(#clip840)" style="stroke:#000000; stroke-linecap:round; stroke-linejoin:round; stroke-width:4; stroke-opacity:1; fill:none" points="1543.72,1423.18 1543.72,1404.28 "/>
<polyline clip-path="url(#clip840)" style="stroke:#000000; stroke-linecap:round; stroke-linejoin:round; stroke-width:4; stroke-opacity:1; fill:none" points="1959.89,1423.18 1959.89,1404.28 "/>
<path clip-path="url(#clip840)" d="M295.211 1454.1 Q291.6 1454.1 289.772 1457.66 Q287.966 1461.2 287.966 1468.33 Q287.966 1475.44 289.772 1479.01 Q291.6 1482.55 295.211 1482.55 Q298.846 1482.55 300.651 1479.01 Q302.48 1475.44 302.48 1468.33 Q302.48 1461.2 300.651 1457.66 Q298.846 1454.1 295.211 1454.1 M295.211 1450.39 Q301.021 1450.39 304.077 1455 Q307.156 1459.58 307.156 1468.33 Q307.156 1477.06 304.077 1481.67 Q301.021 1486.25 295.211 1486.25 Q289.401 1486.25 286.322 1481.67 Q283.267 1477.06 283.267 1468.33 Q283.267 1459.58 286.322 1455 Q289.401 1450.39 295.211 1450.39 Z" fill="#000000" fill-rule="nonzero" fill-opacity="1" /><path clip-path="url(#clip840)" d="M701.659 1451.02 L720.016 1451.02 L720.016 1454.96 L705.942 1454.96 L705.942 1463.43 Q706.96 1463.08 707.979 1462.92 Q708.997 1462.73 710.016 1462.73 Q715.803 1462.73 719.182 1465.9 Q722.562 1469.08 722.562 1474.49 Q722.562 1480.07 719.09 1483.17 Q715.617 1486.25 709.298 1486.25 Q707.122 1486.25 704.854 1485.88 Q702.608 1485.51 700.201 1484.77 L700.201 1480.07 Q702.284 1481.2 704.506 1481.76 Q706.729 1482.32 709.205 1482.32 Q713.21 1482.32 715.548 1480.21 Q717.886 1478.1 717.886 1474.49 Q717.886 1470.88 715.548 1468.77 Q713.21 1466.67 709.205 1466.67 Q707.33 1466.67 705.455 1467.08 Q703.604 1467.5 701.659 1468.38 L701.659 1451.02 Z" fill="#000000" fill-rule="nonzero" fill-opacity="1" /><path clip-path="url(#clip840)" d="M1102.24 1481.64 L1109.88 1481.64 L1109.88 1455.28 L1101.57 1456.95 L1101.57 1452.69 L1109.83 1451.02 L1114.51 1451.02 L1114.51 1481.64 L1122.15 1481.64 L1122.15 1485.58 L1102.24 1485.58 L1102.24 1481.64 Z" fill="#000000" fill-rule="nonzero" fill-opacity="1" /><path clip-path="url(#clip840)" d="M1141.59 1454.1 Q1137.98 1454.1 1136.15 1457.66 Q1134.35 1461.2 1134.35 1468.33 Q1134.35 1475.44 1136.15 1479.01 Q1137.98 1482.55 1141.59 1482.55 Q1145.22 1482.55 1147.03 1479.01 Q1148.86 1475.44 1148.86 1468.33 Q1148.86 1461.2 1147.03 1457.66 Q1145.22 1454.1 1141.59 1454.1 M1141.59 1450.39 Q1147.4 1450.39 1150.46 1455 Q1153.54 1459.58 1153.54 1468.33 Q1153.54 1477.06 1150.46 1481.67 Q1147.4 1486.25 1141.59 1486.25 Q1135.78 1486.25 1132.7 1481.67 Q1129.65 1477.06 1129.65 1468.33 Q1129.65 1459.58 1132.7 1455 Q1135.78 1450.39 1141.59 1450.39 Z" fill="#000000" fill-rule="nonzero" fill-opacity="1" /><path clip-path="url(#clip840)" d="M1518.91 1481.64 L1526.55 1481.64 L1526.55 1455.28 L1518.24 1456.95 L1518.24 1452.69 L1526.5 1451.02 L1531.18 1451.02 L1531.18 1481.64 L1538.81 1481.64 L1538.81 1485.58 L1518.91 1485.58 L1518.91 1481.64 Z" fill="#000000" fill-rule="nonzero" fill-opacity="1" /><path clip-path="url(#clip840)" d="M1548.3 1451.02 L1566.66 1451.02 L1566.66 1454.96 L1552.59 1454.96 L1552.59 1463.43 Q1553.61 1463.08 1554.62 1462.92 Q1555.64 1462.73 1556.66 1462.73 Q1562.45 1462.73 1565.83 1465.9 Q1569.21 1469.08 1569.21 1474.49 Q1569.21 1480.07 1565.74 1483.17 Q1562.26 1486.25 1555.94 1486.25 Q1553.77 1486.25 1551.5 1485.88 Q1549.25 1485.51 1546.85 1484.77 L1546.85 1480.07 Q1548.93 1481.2 1551.15 1481.76 Q1553.37 1482.32 1555.85 1482.32 Q1559.86 1482.32 1562.19 1480.21 Q1564.53 1478.1 1564.53 1474.49 Q1564.53 1470.88 1562.19 1468.77 Q1559.86 1466.67 1555.85 1466.67 Q1553.98 1466.67 1552.1 1467.08 Q1550.25 1467.5 1548.3 1468.38 L1548.3 1451.02 Z" fill="#000000" fill-rule="nonzero" fill-opacity="1" /><path clip-path="url(#clip840)" d="M1938.66 1481.64 L1954.98 1481.64 L1954.98 1485.58 L1933.04 1485.58 L1933.04 1481.64 Q1935.7 1478.89 1940.29 1474.26 Q1944.89 1469.61 1946.07 1468.27 Q1948.32 1465.74 1949.2 1464.01 Q1950.1 1462.25 1950.1 1460.56 Q1950.1 1457.8 1948.16 1456.07 Q1946.23 1454.33 1943.13 1454.33 Q1940.93 1454.33 1938.48 1455.09 Q1936.05 1455.86 1933.27 1457.41 L1933.27 1452.69 Q1936.1 1451.55 1938.55 1450.97 Q1941 1450.39 1943.04 1450.39 Q1948.41 1450.39 1951.6 1453.08 Q1954.8 1455.77 1954.8 1460.26 Q1954.8 1462.39 1953.99 1464.31 Q1953.2 1466.2 1951.1 1468.8 Q1950.52 1469.47 1947.41 1472.69 Q1944.31 1475.88 1938.66 1481.64 Z" fill="#000000" fill-rule="nonzero" fill-opacity="1" /><path clip-path="url(#clip840)" d="M1974.8 1454.1 Q1971.19 1454.1 1969.36 1457.66 Q1967.55 1461.2 1967.55 1468.33 Q1967.55 1475.44 1969.36 1479.01 Q1971.19 1482.55 1974.8 1482.55 Q1978.43 1482.55 1980.24 1479.01 Q1982.07 1475.44 1982.07 1468.33 Q1982.07 1461.2 1980.24 1457.66 Q1978.43 1454.1 1974.8 1454.1 M1974.8 1450.39 Q1980.61 1450.39 1983.66 1455 Q1986.74 1459.58 1986.74 1468.33 Q1986.74 1477.06 1983.66 1481.67 Q1980.61 1486.25 1974.8 1486.25 Q1968.99 1486.25 1965.91 1481.67 Q1962.85 1477.06 1962.85 1468.33 Q1962.85 1459.58 1965.91 1455 Q1968.99 1450.39 1974.8 1450.39 Z" fill="#000000" fill-rule="nonzero" fill-opacity="1" /><path clip-path="url(#clip840)" d="M1173.77 1525.81 L1173.77 1543.66 L1181.86 1543.66 Q1186.34 1543.66 1188.79 1541.34 Q1191.25 1539.02 1191.25 1534.72 Q1191.25 1530.45 1188.79 1528.13 Q1186.34 1525.81 1181.86 1525.81 L1173.77 1525.81 M1167.34 1520.52 L1181.86 1520.52 Q1189.84 1520.52 1193.92 1524.15 Q1198.02 1527.75 1198.02 1534.72 Q1198.02 1541.75 1193.92 1545.35 Q1189.84 1548.95 1181.86 1548.95 L1173.77 1548.95 L1173.77 1568.04 L1167.34 1568.04 L1167.34 1520.52 Z" fill="#000000" fill-rule="nonzero" fill-opacity="1" /><path clip-path="url(#clip840)" d="M1234.56 1548.76 L1234.56 1551.62 L1207.64 1551.62 Q1208.02 1557.67 1211.27 1560.85 Q1214.54 1564 1220.37 1564 Q1223.74 1564 1226.89 1563.17 Q1230.08 1562.35 1233.2 1560.69 L1233.2 1566.23 Q1230.04 1567.57 1226.73 1568.27 Q1223.42 1568.97 1220.02 1568.97 Q1211.49 1568.97 1206.49 1564 Q1201.53 1559.04 1201.53 1550.57 Q1201.53 1541.82 1206.24 1536.69 Q1210.98 1531.54 1219 1531.54 Q1226.19 1531.54 1230.36 1536.18 Q1234.56 1540.8 1234.56 1548.76 M1228.71 1547.04 Q1228.64 1542.23 1226 1539.37 Q1223.39 1536.5 1219.06 1536.5 Q1214.16 1536.5 1211.2 1539.27 Q1208.27 1542.04 1207.83 1547.07 L1228.71 1547.04 Z" fill="#000000" fill-rule="nonzero" fill-opacity="1" /><path clip-path="url(#clip840)" d="M1264.83 1537.87 Q1263.85 1537.3 1262.67 1537.04 Q1261.52 1536.76 1260.12 1536.76 Q1255.16 1536.76 1252.48 1540 Q1249.84 1543.22 1249.84 1549.27 L1249.84 1568.04 L1243.95 1568.04 L1243.95 1532.4 L1249.84 1532.4 L1249.84 1537.93 Q1251.69 1534.69 1254.65 1533.13 Q1257.61 1531.54 1261.84 1531.54 Q1262.45 1531.54 1263.18 1531.63 Q1263.91 1531.7 1264.8 1531.85 L1264.83 1537.87 Z" fill="#000000" fill-rule="nonzero" fill-opacity="1" /><path clip-path="url(#clip840)" d="M1270.98 1532.4 L1276.83 1532.4 L1276.83 1568.04 L1270.98 1568.04 L1270.98 1532.4 M1270.98 1518.52 L1276.83 1518.52 L1276.83 1525.93 L1270.98 1525.93 L1270.98 1518.52 Z" fill="#000000" fill-rule="nonzero" fill-opacity="1" /><path clip-path="url(#clip840)" d="M1302.9 1536.5 Q1298.19 1536.5 1295.45 1540.19 Q1292.71 1543.85 1292.71 1550.25 Q1292.71 1556.65 1295.42 1560.34 Q1298.16 1564 1302.9 1564 Q1307.58 1564 1310.32 1560.31 Q1313.05 1556.62 1313.05 1550.25 Q1313.05 1543.92 1310.32 1540.23 Q1307.58 1536.5 1302.9 1536.5 M1302.9 1531.54 Q1310.54 1531.54 1314.9 1536.5 Q1319.26 1541.47 1319.26 1550.25 Q1319.26 1559 1314.9 1564 Q1310.54 1568.97 1302.9 1568.97 Q1295.23 1568.97 1290.87 1564 Q1286.54 1559 1286.54 1550.25 Q1286.54 1541.47 1290.87 1536.5 Q1295.23 1531.54 1302.9 1531.54 Z" fill="#000000" fill-rule="nonzero" fill-opacity="1" /><path clip-path="url(#clip840)" d="M1352.42 1537.81 L1352.42 1518.52 L1358.28 1518.52 L1358.28 1568.04 L1352.42 1568.04 L1352.42 1562.7 Q1350.58 1565.88 1347.75 1567.44 Q1344.95 1568.97 1341 1568.97 Q1334.54 1568.97 1330.46 1563.81 Q1326.42 1558.65 1326.42 1550.25 Q1326.42 1541.85 1330.46 1536.69 Q1334.54 1531.54 1341 1531.54 Q1344.95 1531.54 1347.75 1533.1 Q1350.58 1534.62 1352.42 1537.81 M1332.47 1550.25 Q1332.47 1556.71 1335.11 1560.4 Q1337.78 1564.07 1342.43 1564.07 Q1347.08 1564.07 1349.75 1560.4 Q1352.42 1556.71 1352.42 1550.25 Q1352.42 1543.79 1349.75 1540.13 Q1347.08 1536.44 1342.43 1536.44 Q1337.78 1536.44 1335.11 1540.13 Q1332.47 1543.79 1332.47 1550.25 Z" fill="#000000" fill-rule="nonzero" fill-opacity="1" /><path clip-path="url(#clip840)" d="M1420.7 1546.53 L1420.7 1568.04 L1414.84 1568.04 L1414.84 1546.72 Q1414.84 1541.66 1412.87 1539.14 Q1410.89 1536.63 1406.95 1536.63 Q1402.2 1536.63 1399.47 1539.65 Q1396.73 1542.68 1396.73 1547.9 L1396.73 1568.04 L1390.84 1568.04 L1390.84 1532.4 L1396.73 1532.4 L1396.73 1537.93 Q1398.83 1534.72 1401.66 1533.13 Q1404.53 1531.54 1408.25 1531.54 Q1414.39 1531.54 1417.55 1535.36 Q1420.7 1539.14 1420.7 1546.53 Z" fill="#000000" fill-rule="nonzero" fill-opacity="1" /><polyline clip-path="url(#clip842)" style="stroke:#000000; stroke-linecap:round; stroke-linejoin:round; stroke-width:2; stroke-opacity:0.1; fill:none" points="235.283,1384.24 2352.76,1384.24 "/>
<polyline clip-path="url(#clip842)" style="stroke:#000000; stroke-linecap:round; stroke-linejoin:round; stroke-width:2; stroke-opacity:0.1; fill:none" points="235.283,951.554 2352.76,951.554 "/>
<polyline clip-path="url(#clip842)" style="stroke:#000000; stroke-linecap:round; stroke-linejoin:round; stroke-width:2; stroke-opacity:0.1; fill:none" points="235.283,518.87 2352.76,518.87 "/>
<polyline clip-path="url(#clip842)" style="stroke:#000000; stroke-linecap:round; stroke-linejoin:round; stroke-width:2; stroke-opacity:0.1; fill:none" points="235.283,86.1857 2352.76,86.1857 "/>
<polyline clip-path="url(#clip840)" style="stroke:#000000; stroke-linecap:round; stroke-linejoin:round; stroke-width:4; stroke-opacity:1; fill:none" points="235.283,1423.18 235.283,47.2441 "/>
<polyline clip-path="url(#clip840)" style="stroke:#000000; stroke-linecap:round; stroke-linejoin:round; stroke-width:4; stroke-opacity:1; fill:none" points="2352.76,1423.18 2352.76,47.2441 "/>
<polyline clip-path="url(#clip840)" style="stroke:#000000; stroke-linecap:round; stroke-linejoin:round; stroke-width:4; stroke-opacity:1; fill:none" points="235.283,1384.24 254.18,1384.24 "/>
<polyline clip-path="url(#clip840)" style="stroke:#000000; stroke-linecap:round; stroke-linejoin:round; stroke-width:4; stroke-opacity:1; fill:none" points="235.283,951.554 254.18,951.554 "/>
<polyline clip-path="url(#clip840)" style="stroke:#000000; stroke-linecap:round; stroke-linejoin:round; stroke-width:4; stroke-opacity:1; fill:none" points="235.283,518.87 254.18,518.87 "/>
<polyline clip-path="url(#clip840)" style="stroke:#000000; stroke-linecap:round; stroke-linejoin:round; stroke-width:4; stroke-opacity:1; fill:none" points="235.283,86.1857 254.18,86.1857 "/>
<path clip-path="url(#clip840)" d="M117.825 1397.58 L125.464 1397.58 L125.464 1371.22 L117.154 1372.88 L117.154 1368.62 L125.418 1366.96 L130.093 1366.96 L130.093 1397.58 L137.732 1397.58 L137.732 1401.52 L117.825 1401.52 L117.825 1397.58 Z" fill="#000000" fill-rule="nonzero" fill-opacity="1" /><path clip-path="url(#clip840)" d="M157.177 1370.04 Q153.566 1370.04 151.737 1373.6 Q149.931 1377.14 149.931 1384.27 Q149.931 1391.38 151.737 1394.94 Q153.566 1398.49 157.177 1398.49 Q160.811 1398.49 162.616 1394.94 Q164.445 1391.38 164.445 1384.27 Q164.445 1377.14 162.616 1373.6 Q160.811 1370.04 157.177 1370.04 M157.177 1366.33 Q162.987 1366.33 166.042 1370.94 Q169.121 1375.52 169.121 1384.27 Q169.121 1393 166.042 1397.61 Q162.987 1402.19 157.177 1402.19 Q151.366 1402.19 148.288 1397.61 Q145.232 1393 145.232 1384.27 Q145.232 1375.52 148.288 1370.94 Q151.366 1366.33 157.177 1366.33 Z" fill="#000000" fill-rule="nonzero" fill-opacity="1" /><path clip-path="url(#clip840)" d="M187.338 1370.04 Q183.727 1370.04 181.899 1373.6 Q180.093 1377.14 180.093 1384.27 Q180.093 1391.38 181.899 1394.94 Q183.727 1398.49 187.338 1398.49 Q190.973 1398.49 192.778 1394.94 Q194.607 1391.38 194.607 1384.27 Q194.607 1377.14 192.778 1373.6 Q190.973 1370.04 187.338 1370.04 M187.338 1366.33 Q193.149 1366.33 196.204 1370.94 Q199.283 1375.52 199.283 1384.27 Q199.283 1393 196.204 1397.61 Q193.149 1402.19 187.338 1402.19 Q181.528 1402.19 178.45 1397.61 Q175.394 1393 175.394 1384.27 Q175.394 1375.52 178.45 1370.94 Q181.528 1366.33 187.338 1366.33 Z" fill="#000000" fill-rule="nonzero" fill-opacity="1" /><path clip-path="url(#clip840)" d="M121.043 964.899 L137.362 964.899 L137.362 968.834 L115.418 968.834 L115.418 964.899 Q118.08 962.144 122.663 957.515 Q127.269 952.862 128.45 951.519 Q130.695 948.996 131.575 947.26 Q132.478 945.501 132.478 943.811 Q132.478 941.056 130.533 939.32 Q128.612 937.584 125.51 937.584 Q123.311 937.584 120.857 938.348 Q118.427 939.112 115.649 940.663 L115.649 935.941 Q118.473 934.806 120.927 934.228 Q123.38 933.649 125.418 933.649 Q130.788 933.649 133.982 936.334 Q137.177 939.019 137.177 943.51 Q137.177 945.64 136.367 947.561 Q135.579 949.459 133.473 952.052 Q132.894 952.723 129.792 955.941 Q126.691 959.135 121.043 964.899 Z" fill="#000000" fill-rule="nonzero" fill-opacity="1" /><path clip-path="url(#clip840)" d="M157.177 937.353 Q153.566 937.353 151.737 940.918 Q149.931 944.459 149.931 951.589 Q149.931 958.695 151.737 962.26 Q153.566 965.802 157.177 965.802 Q160.811 965.802 162.616 962.26 Q164.445 958.695 164.445 951.589 Q164.445 944.459 162.616 940.918 Q160.811 937.353 157.177 937.353 M157.177 933.649 Q162.987 933.649 166.042 938.256 Q169.121 942.839 169.121 951.589 Q169.121 960.316 166.042 964.922 Q162.987 969.505 157.177 969.505 Q151.366 969.505 148.288 964.922 Q145.232 960.316 145.232 951.589 Q145.232 942.839 148.288 938.256 Q151.366 933.649 157.177 933.649 Z" fill="#000000" fill-rule="nonzero" fill-opacity="1" /><path clip-path="url(#clip840)" d="M187.338 937.353 Q183.727 937.353 181.899 940.918 Q180.093 944.459 180.093 951.589 Q180.093 958.695 181.899 962.26 Q183.727 965.802 187.338 965.802 Q190.973 965.802 192.778 962.26 Q194.607 958.695 194.607 951.589 Q194.607 944.459 192.778 940.918 Q190.973 937.353 187.338 937.353 M187.338 933.649 Q193.149 933.649 196.204 938.256 Q199.283 942.839 199.283 951.589 Q199.283 960.316 196.204 964.922 Q193.149 969.505 187.338 969.505 Q181.528 969.505 178.45 964.922 Q175.394 960.316 175.394 951.589 Q175.394 942.839 178.45 938.256 Q181.528 933.649 187.338 933.649 Z" fill="#000000" fill-rule="nonzero" fill-opacity="1" /><path clip-path="url(#clip840)" d="M131.181 517.516 Q134.538 518.233 136.413 520.502 Q138.311 522.77 138.311 526.104 Q138.311 531.219 134.792 534.02 Q131.274 536.821 124.793 536.821 Q122.617 536.821 120.302 536.381 Q118.01 535.965 115.556 535.108 L115.556 530.594 Q117.501 531.729 119.816 532.307 Q122.13 532.886 124.654 532.886 Q129.052 532.886 131.343 531.15 Q133.658 529.414 133.658 526.104 Q133.658 523.048 131.505 521.335 Q129.376 519.599 125.556 519.599 L121.529 519.599 L121.529 515.756 L125.742 515.756 Q129.191 515.756 131.019 514.391 Q132.848 513.002 132.848 510.409 Q132.848 507.747 130.95 506.335 Q129.075 504.9 125.556 504.9 Q123.635 504.9 121.436 505.317 Q119.237 505.733 116.598 506.613 L116.598 502.446 Q119.26 501.706 121.575 501.335 Q123.913 500.965 125.973 500.965 Q131.297 500.965 134.399 503.395 Q137.501 505.803 137.501 509.923 Q137.501 512.794 135.857 514.784 Q134.214 516.752 131.181 517.516 Z" fill="#000000" fill-rule="nonzero" fill-opacity="1" /><path clip-path="url(#clip840)" d="M157.177 504.669 Q153.566 504.669 151.737 508.233 Q149.931 511.775 149.931 518.905 Q149.931 526.011 151.737 529.576 Q153.566 533.117 157.177 533.117 Q160.811 533.117 162.616 529.576 Q164.445 526.011 164.445 518.905 Q164.445 511.775 162.616 508.233 Q160.811 504.669 157.177 504.669 M157.177 500.965 Q162.987 500.965 166.042 505.571 Q169.121 510.155 169.121 518.905 Q169.121 527.631 166.042 532.238 Q162.987 536.821 157.177 536.821 Q151.366 536.821 148.288 532.238 Q145.232 527.631 145.232 518.905 Q145.232 510.155 148.288 505.571 Q151.366 500.965 157.177 500.965 Z" fill="#000000" fill-rule="nonzero" fill-opacity="1" /><path clip-path="url(#clip840)" d="M187.338 504.669 Q183.727 504.669 181.899 508.233 Q180.093 511.775 180.093 518.905 Q180.093 526.011 181.899 529.576 Q183.727 533.117 187.338 533.117 Q190.973 533.117 192.778 529.576 Q194.607 526.011 194.607 518.905 Q194.607 511.775 192.778 508.233 Q190.973 504.669 187.338 504.669 M187.338 500.965 Q193.149 500.965 196.204 505.571 Q199.283 510.155 199.283 518.905 Q199.283 527.631 196.204 532.238 Q193.149 536.821 187.338 536.821 Q181.528 536.821 178.45 532.238 Q175.394 527.631 175.394 518.905 Q175.394 510.155 178.45 505.571 Q181.528 500.965 187.338 500.965 Z" fill="#000000" fill-rule="nonzero" fill-opacity="1" /><path clip-path="url(#clip840)" d="M129.862 72.9797 L118.056 91.4287 L129.862 91.4287 L129.862 72.9797 M128.635 68.9057 L134.515 68.9057 L134.515 91.4287 L139.445 91.4287 L139.445 95.3176 L134.515 95.3176 L134.515 103.466 L129.862 103.466 L129.862 95.3176 L114.26 95.3176 L114.26 90.8037 L128.635 68.9057 Z" fill="#000000" fill-rule="nonzero" fill-opacity="1" /><path clip-path="url(#clip840)" d="M157.177 71.9844 Q153.566 71.9844 151.737 75.5492 Q149.931 79.0908 149.931 86.2204 Q149.931 93.3268 151.737 96.8916 Q153.566 100.433 157.177 100.433 Q160.811 100.433 162.616 96.8916 Q164.445 93.3268 164.445 86.2204 Q164.445 79.0908 162.616 75.5492 Q160.811 71.9844 157.177 71.9844 M157.177 68.2807 Q162.987 68.2807 166.042 72.8871 Q169.121 77.4704 169.121 86.2204 Q169.121 94.9472 166.042 99.5537 Q162.987 104.137 157.177 104.137 Q151.366 104.137 148.288 99.5537 Q145.232 94.9472 145.232 86.2204 Q145.232 77.4704 148.288 72.8871 Q151.366 68.2807 157.177 68.2807 Z" fill="#000000" fill-rule="nonzero" fill-opacity="1" /><path clip-path="url(#clip840)" d="M187.338 71.9844 Q183.727 71.9844 181.899 75.5492 Q180.093 79.0908 180.093 86.2204 Q180.093 93.3268 181.899 96.8916 Q183.727 100.433 187.338 100.433 Q190.973 100.433 192.778 96.8916 Q194.607 93.3268 194.607 86.2204 Q194.607 79.0908 192.778 75.5492 Q190.973 71.9844 187.338 71.9844 M187.338 68.2807 Q193.149 68.2807 196.204 72.8871 Q199.283 77.4704 199.283 86.2204 Q199.283 94.9472 196.204 99.5537 Q193.149 104.137 187.338 104.137 Q181.528 104.137 178.45 99.5537 Q175.394 94.9472 175.394 86.2204 Q175.394 77.4704 178.45 72.8871 Q181.528 68.2807 187.338 68.2807 Z" fill="#000000" fill-rule="nonzero" fill-opacity="1" /><path clip-path="url(#clip840)" d="M22.818 998.084 L46.4666 1006.8 L46.4666 989.331 L22.818 998.084 M16.4842 1001.71 L16.4842 994.424 L64.0042 976.313 L64.0042 982.997 L51.8138 987.326 L51.8138 1008.75 L64.0042 1013.08 L64.0042 1019.85 L16.4842 1001.71 Z" fill="#000000" fill-rule="nonzero" fill-opacity="1" /><path clip-path="url(#clip840)" d="M35.1993 941.875 Q31.2526 939.678 29.3747 936.623 Q27.4968 933.567 27.4968 929.43 Q27.4968 923.86 31.4117 920.836 Q35.2948 917.812 42.4881 917.812 L64.0042 917.812 L64.0042 923.701 L42.679 923.701 Q37.5546 923.701 35.072 925.515 Q32.5894 927.329 32.5894 931.053 Q32.5894 935.604 35.6131 938.246 Q38.6368 940.888 43.8567 940.888 L64.0042 940.888 L64.0042 946.776 L42.679 946.776 Q37.5228 946.776 35.072 948.59 Q32.5894 950.405 32.5894 954.192 Q32.5894 958.68 35.6449 961.322 Q38.6686 963.964 43.8567 963.964 L64.0042 963.964 L64.0042 969.852 L28.3562 969.852 L28.3562 963.964 L33.8944 963.964 Q30.616 961.958 29.0564 959.158 Q27.4968 956.357 27.4968 952.505 Q27.4968 948.622 29.4702 945.917 Q31.4436 943.18 35.1993 941.875 Z" fill="#000000" fill-rule="nonzero" fill-opacity="1" /><path clip-path="url(#clip840)" d="M32.4621 892.318 Q32.4621 897.028 36.1542 899.765 Q39.8145 902.503 46.212 902.503 Q52.6095 902.503 56.3017 899.797 Q59.9619 897.06 59.9619 892.318 Q59.9619 887.639 56.2698 884.902 Q52.5777 882.164 46.212 882.164 Q39.8781 882.164 36.186 884.902 Q32.4621 887.639 32.4621 892.318 M27.4968 892.318 Q27.4968 884.679 32.4621 880.318 Q37.4273 875.958 46.212 875.958 Q54.9649 875.958 59.9619 880.318 Q64.9272 884.679 64.9272 892.318 Q64.9272 899.988 59.9619 904.349 Q54.9649 908.677 46.212 908.677 Q37.4273 908.677 32.4621 904.349 Q27.4968 899.988 27.4968 892.318 Z" fill="#000000" fill-rule="nonzero" fill-opacity="1" /><path clip-path="url(#clip840)" d="M49.9359 866.855 L28.3562 866.855 L28.3562 860.998 L49.7131 860.998 Q54.7739 860.998 57.3202 859.025 Q59.8346 857.052 59.8346 853.105 Q59.8346 848.362 56.8109 845.625 Q53.7872 842.856 48.5673 842.856 L28.3562 842.856 L28.3562 837 L64.0042 837 L64.0042 842.856 L58.5296 842.856 Q61.7762 844.989 63.3676 847.821 Q64.9272 850.622 64.9272 854.346 Q64.9272 860.489 61.1078 863.672 Q57.2883 866.855 49.9359 866.855 M27.4968 852.118 L27.4968 852.118 Z" fill="#000000" fill-rule="nonzero" fill-opacity="1" /><path clip-path="url(#clip840)" d="M42.4881 795.304 L64.0042 795.304 L64.0042 801.161 L42.679 801.161 Q37.6183 801.161 35.1038 803.134 Q32.5894 805.107 32.5894 809.054 Q32.5894 813.797 35.6131 816.534 Q38.6368 819.271 43.8567 819.271 L64.0042 819.271 L64.0042 825.159 L28.3562 825.159 L28.3562 819.271 L33.8944 819.271 Q30.6797 817.17 29.0883 814.338 Q27.4968 811.473 27.4968 807.749 Q27.4968 801.606 31.3163 798.455 Q35.1038 795.304 42.4881 795.304 Z" fill="#000000" fill-rule="nonzero" fill-opacity="1" /><path clip-path="url(#clip840)" d="M18.2347 777.83 L28.3562 777.83 L28.3562 765.767 L32.9077 765.767 L32.9077 777.83 L52.2594 777.83 Q56.6199 777.83 57.8613 776.653 Q59.1026 775.443 59.1026 771.783 L59.1026 765.767 L64.0042 765.767 L64.0042 771.783 Q64.0042 778.562 61.4897 781.141 Q58.9434 783.719 52.2594 783.719 L32.9077 783.719 L32.9077 788.016 L28.3562 788.016 L28.3562 783.719 L18.2347 783.719 L18.2347 777.83 Z" fill="#000000" fill-rule="nonzero" fill-opacity="1" /><path clip-path="url(#clip840)" d="M22.818 721.207 L46.4666 729.928 L46.4666 712.455 L22.818 721.207 M16.4842 724.836 L16.4842 717.547 L64.0042 699.437 L64.0042 706.121 L51.8138 710.449 L51.8138 731.87 L64.0042 736.199 L64.0042 742.978 L16.4842 724.836 Z" fill="#000000" fill-rule="nonzero" fill-opacity="1" /><path clip-path="url(#clip840)" d="M14.5426 678.684 Q21.8632 682.95 29.0246 685.018 Q36.186 687.087 43.5384 687.087 Q50.8908 687.087 58.1159 685.018 Q65.3091 682.918 72.5979 678.684 L72.5979 683.777 Q65.1182 688.551 57.8931 690.938 Q50.668 693.294 43.5384 693.294 Q36.4406 693.294 29.2474 690.938 Q22.0542 688.583 14.5426 683.777 L14.5426 678.684 Z" fill="#000000" fill-rule="nonzero" fill-opacity="1" /><path clip-path="url(#clip840)" d="M42.4881 637.689 L64.0042 637.689 L64.0042 643.546 L42.679 643.546 Q37.6183 643.546 35.1038 645.519 Q32.5894 647.493 32.5894 651.439 Q32.5894 656.182 35.6131 658.919 Q38.6368 661.656 43.8567 661.656 L64.0042 661.656 L64.0042 667.545 L28.3562 667.545 L28.3562 661.656 L33.8944 661.656 Q30.6797 659.556 29.0883 656.723 Q27.4968 653.858 27.4968 650.134 Q27.4968 643.991 31.3163 640.84 Q35.1038 637.689 42.4881 637.689 Z" fill="#000000" fill-rule="nonzero" fill-opacity="1" /><path clip-path="url(#clip840)" d="M14.5426 626.931 L14.5426 621.839 Q22.0542 617.064 29.2474 614.709 Q36.4406 612.322 43.5384 612.322 Q50.668 612.322 57.8931 614.709 Q65.1182 617.064 72.5979 621.839 L72.5979 626.931 Q65.3091 622.698 58.1159 620.629 Q50.8908 618.529 43.5384 618.529 Q36.186 618.529 29.0246 620.629 Q21.8632 622.698 14.5426 626.931 Z" fill="#000000" fill-rule="nonzero" fill-opacity="1" /><path clip-path="url(#clip840)" d="M16.4842 580.334 L16.4842 573.873 L45.3526 573.873 Q52.9915 573.873 56.3653 571.104 Q59.7073 568.335 59.7073 562.128 Q59.7073 555.954 56.3653 553.185 Q52.9915 550.416 45.3526 550.416 L16.4842 550.416 L16.4842 543.954 L46.1484 543.954 Q55.4423 543.954 60.1847 548.569 Q64.9272 553.153 64.9272 562.128 Q64.9272 571.136 60.1847 575.751 Q55.4423 580.334 46.1484 580.334 L16.4842 580.334 Z" fill="#000000" fill-rule="nonzero" fill-opacity="1" /><path clip-path="url(#clip840)" d="M18.0438 503.405 L24.314 503.405 Q22.5634 507.065 21.704 510.312 Q20.8447 513.558 20.8447 516.582 Q20.8447 521.833 22.8817 524.698 Q24.9187 527.531 28.6745 527.531 Q31.8255 527.531 33.4488 525.653 Q35.0402 523.743 36.0269 518.46 L36.8226 514.577 Q38.1912 507.383 41.6605 503.978 Q45.098 500.54 50.8908 500.54 Q57.7976 500.54 61.3624 505.187 Q64.9272 509.802 64.9272 518.746 Q64.9272 522.12 64.1633 525.939 Q63.3994 529.727 61.9035 533.801 L55.2831 533.801 Q57.4793 529.886 58.5933 526.13 Q59.7073 522.375 59.7073 518.746 Q59.7073 513.24 57.543 510.248 Q55.3786 507.256 51.3682 507.256 Q47.8671 507.256 45.8937 509.42 Q43.9204 511.553 42.9337 516.454 L42.1698 520.369 Q40.7375 527.563 37.682 530.777 Q34.6264 533.992 29.1837 533.992 Q22.8817 533.992 19.2532 529.568 Q15.6248 525.112 15.6248 517.314 Q15.6248 513.972 16.2295 510.503 Q16.8343 507.033 18.0438 503.405 Z" fill="#000000" fill-rule="nonzero" fill-opacity="1" /><path clip-path="url(#clip840)" d="M21.7677 484.085 L58.7206 484.085 L58.7206 476.319 Q58.7206 466.484 54.2646 461.932 Q49.8086 457.349 40.1964 457.349 Q30.6479 457.349 26.2237 461.932 Q21.7677 466.484 21.7677 476.319 L21.7677 484.085 M16.4842 490.514 L16.4842 477.305 Q16.4842 463.492 22.2451 457.031 Q27.9743 450.569 40.1964 450.569 Q52.4822 450.569 58.2432 457.062 Q64.0042 463.555 64.0042 477.305 L64.0042 490.514 L16.4842 490.514 Z" fill="#000000" fill-rule="nonzero" fill-opacity="1" /><polyline clip-path="url(#clip842)" style="stroke:#ee7733; stroke-linecap:round; stroke-linejoin:round; stroke-width:12; stroke-opacity:1; fill:none" points="295.211,1384.24 378.445,1362.6 461.679,1340.97 544.913,1319.34 628.147,1297.7 711.381,1276.07 794.615,1254.43 877.849,1232.8 961.083,1211.16 1044.32,1189.53 1127.55,1167.9 1210.79,1146.26 1294.02,1124.63 1377.25,1102.99 1460.49,1081.36 1543.72,1059.73 1626.96,1038.09 1710.19,1016.46 1793.42,994.822 1876.66,973.188 1959.89,951.554 2043.13,929.92 2126.36,908.286 2209.59,886.651 2292.83,865.017 "/>
<polyline clip-path="url(#clip842)" style="stroke:#0077bb; stroke-linecap:round; stroke-linejoin:round; stroke-width:12; stroke-opacity:1; fill:none" points="295.211,1384.24 378.445,1362.6 461.679,1339.89 544.913,1316.04 628.147,1290.99 711.381,1264.7 794.615,1237.08 877.849,1208.09 961.083,1177.65 1044.32,1145.69 1127.55,1112.13 1210.79,1076.89 1294.02,1039.88 1377.25,1001.03 1460.49,960.237 1543.72,917.403 1626.96,872.427 1710.19,825.202 1793.42,775.616 1876.66,723.551 1959.89,668.882 2043.13,611.48 2126.36,551.208 2209.59,487.923 2292.83,421.473 "/>
<polyline clip-path="url(#clip842)" style="stroke:#a3a3a3; stroke-linecap:round; stroke-linejoin:round; stroke-width:8; stroke-opacity:1; fill:none" stroke-dasharray="32, 20" points="1959.89,1384.24 1959.89,1371.13 1959.89,1358.01 1959.89,1344.9 1959.89,1331.79 1959.89,1318.68 1959.89,1305.57 1959.89,1292.46 1959.89,1279.35 1959.89,1266.23 1959.89,1253.12 1959.89,1240.01 1959.89,1226.9 1959.89,1213.79 1959.89,1200.68 1959.89,1187.56 1959.89,1174.45 1959.89,1161.34 1959.89,1148.23 1959.89,1135.12 1959.89,1122.01 1959.89,1108.89 1959.89,1095.78 1959.89,1082.67 1959.89,1069.56 1959.89,1056.45 1959.89,1043.34 1959.89,1030.22 1959.89,1017.11 1959.89,1004 1959.89,990.889 1959.89,977.777 1959.89,964.666 1959.89,951.554 1959.89,938.442 1959.89,925.331 1959.89,912.219 1959.89,899.107 1959.89,885.996 1959.89,872.884 1959.89,859.773 1959.89,846.661 1959.89,833.549 1959.89,820.438 1959.89,807.326 1959.89,794.214 1959.89,781.103 1959.89,767.991 1959.89,754.879 1959.89,741.768 1959.89,728.656 1959.89,715.545 1959.89,702.433 1959.89,689.321 1959.89,676.21 1959.89,663.098 1959.89,649.986 1959.89,636.875 1959.89,623.763 1959.89,610.651 1959.89,597.54 1959.89,584.428 1959.89,571.316 1959.89,558.205 1959.89,545.093 1959.89,531.982 1959.89,518.87 1959.89,505.758 1959.89,492.647 1959.89,479.535 1959.89,466.423 1959.89,453.312 1959.89,440.2 1959.89,427.088 1959.89,413.977 1959.89,400.865 1959.89,387.753 1959.89,374.642 1959.89,361.53 1959.89,348.419 1959.89,335.307 1959.89,322.195 1959.89,309.084 1959.89,295.972 1959.89,282.86 1959.89,269.749 1959.89,256.637 1959.89,243.525 1959.89,230.414 1959.89,217.302 1959.89,204.19 1959.89,191.079 1959.89,177.967 1959.89,164.856 1959.89,151.744 1959.89,138.632 1959.89,125.521 1959.89,112.409 1959.89,99.2973 1959.89,86.1857 "/>
<circle clip-path="url(#clip842)" cx="1959.89" cy="951.554" r="18" fill="#ffffff" fill-rule="evenodd" fill-opacity="1" stroke="#ee7733" stroke-opacity="1" stroke-width="3.2"/>
<circle clip-path="url(#clip842)" cx="1959.89" cy="668.882" r="18" fill="#ffffff" fill-rule="evenodd" fill-opacity="1" stroke="#0077bb" stroke-opacity="1" stroke-width="3.2"/>
<path clip-path="url(#clip840)" d="M305.865 352.309 L1252.45 352.309 L1252.45 93.1086 L305.865 93.1086  Z" fill="#eee9e9" fill-rule="evenodd" fill-opacity="1"/>
<polyline clip-path="url(#clip840)" style="stroke:#000000; stroke-linecap:round; stroke-linejoin:round; stroke-width:4; stroke-opacity:0; fill:none" points="305.865,352.309 1252.45,352.309 1252.45,93.1086 305.865,93.1086 305.865,352.309 "/>
<polyline clip-path="url(#clip840)" style="stroke:#ee7733; stroke-linecap:round; stroke-linejoin:round; stroke-width:12; stroke-opacity:1; fill:none" points="329.393,144.949 470.558,144.949 "/>
<path clip-path="url(#clip840)" d="M516.33 128.803 L516.33 133.363 Q513.668 132.09 511.307 131.465 Q508.946 130.84 506.747 130.84 Q502.928 130.84 500.844 132.321 Q498.784 133.803 498.784 136.534 Q498.784 138.826 500.15 140.007 Q501.539 141.164 505.381 141.882 L508.205 142.46 Q513.437 143.456 515.914 145.979 Q518.414 148.479 518.414 152.692 Q518.414 157.715 515.034 160.307 Q511.678 162.9 505.173 162.9 Q502.719 162.9 499.942 162.344 Q497.187 161.789 494.224 160.701 L494.224 155.886 Q497.071 157.483 499.803 158.293 Q502.534 159.104 505.173 159.104 Q509.178 159.104 511.354 157.53 Q513.529 155.956 513.529 153.039 Q513.529 150.493 511.955 149.057 Q510.404 147.622 506.84 146.905 L503.992 146.349 Q498.761 145.307 496.423 143.085 Q494.085 140.863 494.085 136.905 Q494.085 132.321 497.303 129.682 Q500.543 127.044 506.215 127.044 Q508.645 127.044 511.168 127.483 Q513.691 127.923 516.33 128.803 Z" fill="#000000" fill-rule="nonzero" fill-opacity="1" /><path clip-path="url(#clip840)" d="M525.52 136.303 L529.779 136.303 L529.779 162.229 L525.52 162.229 L525.52 136.303 M525.52 126.21 L529.779 126.21 L529.779 131.604 L525.52 131.604 L525.52 126.21 Z" fill="#000000" fill-rule="nonzero" fill-opacity="1" /><path clip-path="url(#clip840)" d="M558.876 141.28 Q560.474 138.409 562.696 137.044 Q564.918 135.678 567.927 135.678 Q571.978 135.678 574.177 138.525 Q576.376 141.349 576.376 146.581 L576.376 162.229 L572.094 162.229 L572.094 146.719 Q572.094 142.993 570.775 141.187 Q569.455 139.382 566.747 139.382 Q563.437 139.382 561.515 141.581 Q559.594 143.78 559.594 147.576 L559.594 162.229 L555.312 162.229 L555.312 146.719 Q555.312 142.969 553.992 141.187 Q552.673 139.382 549.918 139.382 Q546.654 139.382 544.733 141.604 Q542.812 143.803 542.812 147.576 L542.812 162.229 L538.529 162.229 L538.529 136.303 L542.812 136.303 L542.812 140.331 Q544.27 137.946 546.307 136.812 Q548.344 135.678 551.145 135.678 Q553.969 135.678 555.937 137.113 Q557.927 138.548 558.876 141.28 Z" fill="#000000" fill-rule="nonzero" fill-opacity="1" /><path clip-path="url(#clip840)" d="M588.992 158.34 L588.992 172.09 L584.71 172.09 L584.71 136.303 L588.992 136.303 L588.992 140.238 Q590.335 137.923 592.372 136.812 Q594.432 135.678 597.279 135.678 Q602.001 135.678 604.941 139.428 Q607.904 143.178 607.904 149.289 Q607.904 155.4 604.941 159.15 Q602.001 162.9 597.279 162.9 Q594.432 162.9 592.372 161.789 Q590.335 160.655 588.992 158.34 M603.483 149.289 Q603.483 144.59 601.538 141.928 Q599.617 139.243 596.237 139.243 Q592.858 139.243 590.913 141.928 Q588.992 144.59 588.992 149.289 Q588.992 153.988 590.913 156.673 Q592.858 159.335 596.237 159.335 Q599.617 159.335 601.538 156.673 Q603.483 153.988 603.483 149.289 Z" fill="#000000" fill-rule="nonzero" fill-opacity="1" /><path clip-path="url(#clip840)" d="M614.964 126.21 L619.223 126.21 L619.223 162.229 L614.964 162.229 L614.964 126.21 Z" fill="#000000" fill-rule="nonzero" fill-opacity="1" /><path clip-path="url(#clip840)" d="M650.311 148.201 L650.311 150.284 L630.728 150.284 Q631.006 154.682 633.367 156.997 Q635.751 159.289 639.987 159.289 Q642.441 159.289 644.732 158.687 Q647.047 158.085 649.316 156.881 L649.316 160.909 Q647.024 161.881 644.617 162.391 Q642.209 162.9 639.732 162.9 Q633.529 162.9 629.895 159.289 Q626.283 155.678 626.283 149.52 Q626.283 143.155 629.709 139.428 Q633.158 135.678 638.992 135.678 Q644.223 135.678 647.256 139.057 Q650.311 142.414 650.311 148.201 M646.052 146.951 Q646.006 143.456 644.084 141.372 Q642.186 139.289 639.038 139.289 Q635.473 139.289 633.32 141.303 Q631.191 143.317 630.867 146.974 L646.052 146.951 Z" fill="#000000" fill-rule="nonzero" fill-opacity="1" /><path clip-path="url(#clip840)" d="M687.394 140.284 Q686.677 139.868 685.82 139.682 Q684.987 139.474 683.968 139.474 Q680.357 139.474 678.413 141.835 Q676.492 144.173 676.492 148.571 L676.492 162.229 L672.209 162.229 L672.209 136.303 L676.492 136.303 L676.492 140.331 Q677.834 137.969 679.987 136.835 Q682.14 135.678 685.218 135.678 Q685.658 135.678 686.191 135.747 Q686.723 135.794 687.371 135.909 L687.394 140.284 Z" fill="#000000" fill-rule="nonzero" fill-opacity="1" /><path clip-path="url(#clip840)" d="M707.487 140.701 L737.163 140.701 L737.163 144.59 L707.487 144.59 L707.487 140.701 M707.487 150.145 L737.163 150.145 L737.163 154.081 L707.487 154.081 L707.487 150.145 Z" fill="#000000" fill-rule="nonzero" fill-opacity="1" /><path clip-path="url(#clip840)" d="M772.324 130.747 Q768.713 130.747 766.885 134.312 Q765.079 137.854 765.079 144.983 Q765.079 152.09 766.885 155.655 Q768.713 159.196 772.324 159.196 Q775.959 159.196 777.764 155.655 Q779.593 152.09 779.593 144.983 Q779.593 137.854 777.764 134.312 Q775.959 130.747 772.324 130.747 M772.324 127.044 Q778.135 127.044 781.19 131.65 Q784.269 136.233 784.269 144.983 Q784.269 153.71 781.19 158.317 Q778.135 162.9 772.324 162.9 Q766.514 162.9 763.436 158.317 Q760.38 153.71 760.38 144.983 Q760.38 136.233 763.436 131.65 Q766.514 127.044 772.324 127.044 Z" fill="#000000" fill-rule="nonzero" fill-opacity="1" /><path clip-path="url(#clip840)" d="M792.486 156.349 L797.371 156.349 L797.371 162.229 L792.486 162.229 L792.486 156.349 Z" fill="#000000" fill-rule="nonzero" fill-opacity="1" /><path clip-path="url(#clip840)" d="M817.556 130.747 Q813.945 130.747 812.116 134.312 Q810.31 137.854 810.31 144.983 Q810.31 152.09 812.116 155.655 Q813.945 159.196 817.556 159.196 Q821.19 159.196 822.995 155.655 Q824.824 152.09 824.824 144.983 Q824.824 137.854 822.995 134.312 Q821.19 130.747 817.556 130.747 M817.556 127.044 Q823.366 127.044 826.421 131.65 Q829.5 136.233 829.5 144.983 Q829.5 153.71 826.421 158.317 Q823.366 162.9 817.556 162.9 Q811.745 162.9 808.667 158.317 Q805.611 153.71 805.611 144.983 Q805.611 136.233 808.667 131.65 Q811.745 127.044 817.556 127.044 Z" fill="#000000" fill-rule="nonzero" fill-opacity="1" /><path clip-path="url(#clip840)" d="M837.764 127.669 L856.12 127.669 L856.12 131.604 L842.046 131.604 L842.046 140.076 Q843.065 139.729 844.083 139.567 Q845.102 139.382 846.12 139.382 Q851.907 139.382 855.287 142.553 Q858.666 145.724 858.666 151.141 Q858.666 156.719 855.194 159.821 Q851.722 162.9 845.403 162.9 Q843.227 162.9 840.958 162.53 Q838.713 162.159 836.306 161.418 L836.306 156.719 Q838.389 157.854 840.611 158.409 Q842.833 158.965 845.31 158.965 Q849.315 158.965 851.653 156.858 Q853.991 154.752 853.991 151.141 Q853.991 147.53 851.653 145.423 Q849.315 143.317 845.31 143.317 Q843.435 143.317 841.56 143.733 Q839.708 144.15 837.764 145.03 L837.764 127.669 Z" fill="#000000" fill-rule="nonzero" fill-opacity="1" /><polyline clip-path="url(#clip840)" style="stroke:#0077bb; stroke-linecap:round; stroke-linejoin:round; stroke-width:12; stroke-opacity:1; fill:none" points="329.393,196.789 470.558,196.789 "/>
<path clip-path="url(#clip840)" d="M521.955 182.171 L521.955 187.101 Q519.594 184.902 516.909 183.814 Q514.247 182.726 511.238 182.726 Q505.312 182.726 502.164 186.36 Q499.016 189.972 499.016 196.823 Q499.016 203.652 502.164 207.286 Q505.312 210.897 511.238 210.897 Q514.247 210.897 516.909 209.809 Q519.594 208.721 521.955 206.522 L521.955 211.407 Q519.502 213.073 516.747 213.907 Q514.016 214.74 510.96 214.74 Q503.113 214.74 498.599 209.948 Q494.085 205.133 494.085 196.823 Q494.085 188.49 498.599 183.698 Q503.113 178.884 510.96 178.884 Q514.062 178.884 516.793 179.717 Q519.548 180.527 521.955 182.171 Z" fill="#000000" fill-rule="nonzero" fill-opacity="1" /><path clip-path="url(#clip840)" d="M539.039 191.129 Q535.613 191.129 533.622 193.814 Q531.631 196.476 531.631 201.129 Q531.631 205.782 533.599 208.467 Q535.59 211.129 539.039 211.129 Q542.441 211.129 544.432 208.444 Q546.423 205.758 546.423 201.129 Q546.423 196.522 544.432 193.837 Q542.441 191.129 539.039 191.129 M539.039 187.518 Q544.594 187.518 547.765 191.129 Q550.937 194.74 550.937 201.129 Q550.937 207.495 547.765 211.129 Q544.594 214.74 539.039 214.74 Q533.46 214.74 530.289 211.129 Q527.14 207.495 527.14 201.129 Q527.14 194.74 530.289 191.129 Q533.46 187.518 539.039 187.518 Z" fill="#000000" fill-rule="nonzero" fill-opacity="1" /><path clip-path="url(#clip840)" d="M578.182 193.12 Q579.779 190.249 582.001 188.884 Q584.224 187.518 587.233 187.518 Q591.284 187.518 593.483 190.365 Q595.682 193.189 595.682 198.421 L595.682 214.069 L591.399 214.069 L591.399 198.559 Q591.399 194.833 590.08 193.027 Q588.761 191.222 586.052 191.222 Q582.742 191.222 580.821 193.421 Q578.899 195.62 578.899 199.416 L578.899 214.069 L574.617 214.069 L574.617 198.559 Q574.617 194.809 573.298 193.027 Q571.978 191.222 569.224 191.222 Q565.96 191.222 564.038 193.444 Q562.117 195.643 562.117 199.416 L562.117 214.069 L557.835 214.069 L557.835 188.143 L562.117 188.143 L562.117 192.171 Q563.575 189.786 565.613 188.652 Q567.65 187.518 570.45 187.518 Q573.275 187.518 575.242 188.953 Q577.233 190.388 578.182 193.12 Z" fill="#000000" fill-rule="nonzero" fill-opacity="1" /><path clip-path="url(#clip840)" d="M608.297 210.18 L608.297 223.93 L604.015 223.93 L604.015 188.143 L608.297 188.143 L608.297 192.078 Q609.64 189.763 611.677 188.652 Q613.737 187.518 616.584 187.518 Q621.307 187.518 624.246 191.268 Q627.209 195.018 627.209 201.129 Q627.209 207.24 624.246 210.99 Q621.307 214.74 616.584 214.74 Q613.737 214.74 611.677 213.629 Q609.64 212.495 608.297 210.18 M622.788 201.129 Q622.788 196.43 620.844 193.768 Q618.922 191.083 615.543 191.083 Q612.163 191.083 610.219 193.768 Q608.297 196.43 608.297 201.129 Q608.297 205.828 610.219 208.513 Q612.163 211.175 615.543 211.175 Q618.922 211.175 620.844 208.513 Q622.788 205.828 622.788 201.129 Z" fill="#000000" fill-rule="nonzero" fill-opacity="1" /><path clip-path="url(#clip840)" d="M644.316 191.129 Q640.89 191.129 638.899 193.814 Q636.908 196.476 636.908 201.129 Q636.908 205.782 638.876 208.467 Q640.867 211.129 644.316 211.129 Q647.719 211.129 649.709 208.444 Q651.7 205.758 651.7 201.129 Q651.7 196.522 649.709 193.837 Q647.719 191.129 644.316 191.129 M644.316 187.518 Q649.871 187.518 653.043 191.129 Q656.214 194.74 656.214 201.129 Q656.214 207.495 653.043 211.129 Q649.871 214.74 644.316 214.74 Q638.737 214.74 635.566 211.129 Q632.418 207.495 632.418 201.129 Q632.418 194.74 635.566 191.129 Q638.737 187.518 644.316 187.518 Z" fill="#000000" fill-rule="nonzero" fill-opacity="1" /><path clip-path="url(#clip840)" d="M662.834 203.837 L662.834 188.143 L667.093 188.143 L667.093 203.675 Q667.093 207.356 668.529 209.208 Q669.964 211.036 672.834 211.036 Q676.283 211.036 678.274 208.837 Q680.288 206.638 680.288 202.842 L680.288 188.143 L684.547 188.143 L684.547 214.069 L680.288 214.069 L680.288 210.087 Q678.737 212.448 676.677 213.606 Q674.64 214.74 671.931 214.74 Q667.464 214.74 665.149 211.962 Q662.834 209.184 662.834 203.837 M673.552 187.518 L673.552 187.518 Z" fill="#000000" fill-rule="nonzero" fill-opacity="1" /><path clip-path="url(#clip840)" d="M714.871 198.421 L714.871 214.069 L710.612 214.069 L710.612 198.559 Q710.612 194.879 709.177 193.05 Q707.741 191.222 704.871 191.222 Q701.422 191.222 699.431 193.421 Q697.441 195.62 697.441 199.416 L697.441 214.069 L693.158 214.069 L693.158 188.143 L697.441 188.143 L697.441 192.171 Q698.968 189.833 701.028 188.675 Q703.112 187.518 705.82 187.518 Q710.288 187.518 712.579 190.296 Q714.871 193.05 714.871 198.421 Z" fill="#000000" fill-rule="nonzero" fill-opacity="1" /><path clip-path="url(#clip840)" d="M740.426 192.078 L740.426 178.05 L744.686 178.05 L744.686 214.069 L740.426 214.069 L740.426 210.18 Q739.084 212.495 737.024 213.629 Q734.987 214.74 732.116 214.74 Q727.417 214.74 724.454 210.99 Q721.514 207.24 721.514 201.129 Q721.514 195.018 724.454 191.268 Q727.417 187.518 732.116 187.518 Q734.987 187.518 737.024 188.652 Q739.084 189.763 740.426 192.078 M725.913 201.129 Q725.913 205.828 727.834 208.513 Q729.778 211.175 733.158 211.175 Q736.538 211.175 738.482 208.513 Q740.426 205.828 740.426 201.129 Q740.426 196.43 738.482 193.768 Q736.538 191.083 733.158 191.083 Q729.778 191.083 727.834 193.768 Q725.913 196.43 725.913 201.129 Z" fill="#000000" fill-rule="nonzero" fill-opacity="1" /><path clip-path="url(#clip840)" d="M783.551 192.124 Q782.834 191.708 781.977 191.522 Q781.144 191.314 780.125 191.314 Q776.514 191.314 774.57 193.675 Q772.648 196.013 772.648 200.411 L772.648 214.069 L768.366 214.069 L768.366 188.143 L772.648 188.143 L772.648 192.171 Q773.991 189.809 776.144 188.675 Q778.297 187.518 781.375 187.518 Q781.815 187.518 782.347 187.587 Q782.88 187.634 783.528 187.749 L783.551 192.124 Z" fill="#000000" fill-rule="nonzero" fill-opacity="1" /><path clip-path="url(#clip840)" d="M803.644 192.541 L833.319 192.541 L833.319 196.43 L803.644 196.43 L803.644 192.541 M803.644 201.985 L833.319 201.985 L833.319 205.921 L803.644 205.921 L803.644 201.985 Z" fill="#000000" fill-rule="nonzero" fill-opacity="1" /><path clip-path="url(#clip840)" d="M868.481 182.587 Q864.87 182.587 863.041 186.152 Q861.236 189.694 861.236 196.823 Q861.236 203.93 863.041 207.495 Q864.87 211.036 868.481 211.036 Q872.115 211.036 873.921 207.495 Q875.75 203.93 875.75 196.823 Q875.75 189.694 873.921 186.152 Q872.115 182.587 868.481 182.587 M868.481 178.884 Q874.291 178.884 877.347 183.49 Q880.426 188.073 880.426 196.823 Q880.426 205.55 877.347 210.157 Q874.291 214.74 868.481 214.74 Q862.671 214.74 859.592 210.157 Q856.537 205.55 856.537 196.823 Q856.537 188.073 859.592 183.49 Q862.671 178.884 868.481 178.884 Z" fill="#000000" fill-rule="nonzero" fill-opacity="1" /><path clip-path="url(#clip840)" d="M888.643 208.189 L893.527 208.189 L893.527 214.069 L888.643 214.069 L888.643 208.189 Z" fill="#000000" fill-rule="nonzero" fill-opacity="1" /><path clip-path="url(#clip840)" d="M913.712 182.587 Q910.101 182.587 908.273 186.152 Q906.467 189.694 906.467 196.823 Q906.467 203.93 908.273 207.495 Q910.101 211.036 913.712 211.036 Q917.347 211.036 919.152 207.495 Q920.981 203.93 920.981 196.823 Q920.981 189.694 919.152 186.152 Q917.347 182.587 913.712 182.587 M913.712 178.884 Q919.523 178.884 922.578 183.49 Q925.657 188.073 925.657 196.823 Q925.657 205.55 922.578 210.157 Q919.523 214.74 913.712 214.74 Q907.902 214.74 904.824 210.157 Q901.768 205.55 901.768 196.823 Q901.768 188.073 904.824 183.49 Q907.902 178.884 913.712 178.884 Z" fill="#000000" fill-rule="nonzero" fill-opacity="1" /><path clip-path="url(#clip840)" d="M933.921 179.509 L952.277 179.509 L952.277 183.444 L938.203 183.444 L938.203 191.916 Q939.222 191.569 940.24 191.407 Q941.259 191.222 942.277 191.222 Q948.064 191.222 951.444 194.393 Q954.823 197.564 954.823 202.981 Q954.823 208.559 951.351 211.661 Q947.879 214.74 941.56 214.74 Q939.384 214.74 937.115 214.37 Q934.87 213.999 932.462 213.258 L932.462 208.559 Q934.546 209.694 936.768 210.249 Q938.99 210.805 941.467 210.805 Q945.472 210.805 947.81 208.698 Q950.147 206.592 950.147 202.981 Q950.147 199.37 947.81 197.263 Q945.472 195.157 941.467 195.157 Q939.592 195.157 937.717 195.573 Q935.865 195.99 933.921 196.87 L933.921 179.509 Z" fill="#000000" fill-rule="nonzero" fill-opacity="1" /><circle clip-path="url(#clip840)" cx="399.975" cy="248.629" r="20.9455" fill="#ffffff" fill-rule="evenodd" fill-opacity="1" stroke="#ee7733" stroke-opacity="1" stroke-width="3.72364"/>
<path clip-path="url(#clip840)" d="M516.33 232.483 L516.33 237.043 Q513.668 235.77 511.307 235.145 Q508.946 234.52 506.747 234.52 Q502.928 234.52 500.844 236.001 Q498.784 237.483 498.784 240.214 Q498.784 242.506 500.15 243.687 Q501.539 244.844 505.381 245.562 L508.205 246.14 Q513.437 247.136 515.914 249.659 Q518.414 252.159 518.414 256.372 Q518.414 261.395 515.034 263.987 Q511.678 266.58 505.173 266.58 Q502.719 266.58 499.942 266.024 Q497.187 265.469 494.224 264.381 L494.224 259.566 Q497.071 261.163 499.803 261.973 Q502.534 262.784 505.173 262.784 Q509.178 262.784 511.354 261.21 Q513.529 259.636 513.529 256.719 Q513.529 254.173 511.955 252.737 Q510.404 251.302 506.84 250.585 L503.992 250.029 Q498.761 248.987 496.423 246.765 Q494.085 244.543 494.085 240.585 Q494.085 236.001 497.303 233.362 Q500.543 230.724 506.215 230.724 Q508.645 230.724 511.168 231.163 Q513.691 231.603 516.33 232.483 Z" fill="#000000" fill-rule="nonzero" fill-opacity="1" /><path clip-path="url(#clip840)" d="M525.52 239.983 L529.779 239.983 L529.779 265.909 L525.52 265.909 L525.52 239.983 M525.52 229.89 L529.779 229.89 L529.779 235.284 L525.52 235.284 L525.52 229.89 Z" fill="#000000" fill-rule="nonzero" fill-opacity="1" /><path clip-path="url(#clip840)" d="M558.876 244.96 Q560.474 242.089 562.696 240.724 Q564.918 239.358 567.927 239.358 Q571.978 239.358 574.177 242.205 Q576.376 245.029 576.376 250.261 L576.376 265.909 L572.094 265.909 L572.094 250.399 Q572.094 246.673 570.775 244.867 Q569.455 243.062 566.747 243.062 Q563.437 243.062 561.515 245.261 Q559.594 247.46 559.594 251.256 L559.594 265.909 L555.312 265.909 L555.312 250.399 Q555.312 246.649 553.992 244.867 Q552.673 243.062 549.918 243.062 Q546.654 243.062 544.733 245.284 Q542.812 247.483 542.812 251.256 L542.812 265.909 L538.529 265.909 L538.529 239.983 L542.812 239.983 L542.812 244.011 Q544.27 241.626 546.307 240.492 Q548.344 239.358 551.145 239.358 Q553.969 239.358 555.937 240.793 Q557.927 242.228 558.876 244.96 Z" fill="#000000" fill-rule="nonzero" fill-opacity="1" /><path clip-path="url(#clip840)" d="M588.992 262.02 L588.992 275.77 L584.71 275.77 L584.71 239.983 L588.992 239.983 L588.992 243.918 Q590.335 241.603 592.372 240.492 Q594.432 239.358 597.279 239.358 Q602.001 239.358 604.941 243.108 Q607.904 246.858 607.904 252.969 Q607.904 259.08 604.941 262.83 Q602.001 266.58 597.279 266.58 Q594.432 266.58 592.372 265.469 Q590.335 264.335 588.992 262.02 M603.483 252.969 Q603.483 248.27 601.538 245.608 Q599.617 242.923 596.237 242.923 Q592.858 242.923 590.913 245.608 Q588.992 248.27 588.992 252.969 Q588.992 257.668 590.913 260.353 Q592.858 263.015 596.237 263.015 Q599.617 263.015 601.538 260.353 Q603.483 257.668 603.483 252.969 Z" fill="#000000" fill-rule="nonzero" fill-opacity="1" /><path clip-path="url(#clip840)" d="M614.964 229.89 L619.223 229.89 L619.223 265.909 L614.964 265.909 L614.964 229.89 Z" fill="#000000" fill-rule="nonzero" fill-opacity="1" /><path clip-path="url(#clip840)" d="M650.311 251.881 L650.311 253.964 L630.728 253.964 Q631.006 258.362 633.367 260.677 Q635.751 262.969 639.987 262.969 Q642.441 262.969 644.732 262.367 Q647.047 261.765 649.316 260.561 L649.316 264.589 Q647.024 265.561 644.617 266.071 Q642.209 266.58 639.732 266.58 Q633.529 266.58 629.895 262.969 Q626.283 259.358 626.283 253.2 Q626.283 246.835 629.709 243.108 Q633.158 239.358 638.992 239.358 Q644.223 239.358 647.256 242.737 Q650.311 246.094 650.311 251.881 M646.052 250.631 Q646.006 247.136 644.084 245.052 Q642.186 242.969 639.038 242.969 Q635.473 242.969 633.32 244.983 Q631.191 246.997 630.867 250.654 L646.052 250.631 Z" fill="#000000" fill-rule="nonzero" fill-opacity="1" /><path clip-path="url(#clip840)" d="M658.39 260.029 L663.274 260.029 L663.274 265.909 L658.39 265.909 L658.39 260.029 M658.39 241.395 L663.274 241.395 L663.274 247.274 L658.39 247.274 L658.39 241.395 Z" fill="#000000" fill-rule="nonzero" fill-opacity="1" /><path clip-path="url(#clip840)" d="M700.079 235.955 L693.737 253.154 L706.445 253.154 L700.079 235.955 M697.441 231.349 L702.741 231.349 L715.913 265.909 L711.052 265.909 L707.903 257.043 L692.325 257.043 L689.177 265.909 L684.246 265.909 L697.441 231.349 Z" fill="#000000" fill-rule="nonzero" fill-opacity="1" /><path clip-path="url(#clip840)" d="M731.005 229.937 Q727.903 235.261 726.399 240.469 Q724.894 245.677 724.894 251.024 Q724.894 256.372 726.399 261.626 Q727.926 266.858 731.005 272.159 L727.301 272.159 Q723.829 266.719 722.093 261.464 Q720.38 256.21 720.38 251.024 Q720.38 245.862 722.093 240.631 Q723.806 235.4 727.301 229.937 L731.005 229.937 Z" fill="#000000" fill-rule="nonzero" fill-opacity="1" /><path clip-path="url(#clip840)" d="M743.899 261.973 L760.218 261.973 L760.218 265.909 L738.274 265.909 L738.274 261.973 Q740.936 259.219 745.519 254.589 Q750.125 249.936 751.306 248.594 Q753.551 246.071 754.431 244.335 Q755.334 242.575 755.334 240.886 Q755.334 238.131 753.389 236.395 Q751.468 234.659 748.366 234.659 Q746.167 234.659 743.713 235.423 Q741.283 236.187 738.505 237.737 L738.505 233.015 Q741.329 231.881 743.783 231.302 Q746.237 230.724 748.274 230.724 Q753.644 230.724 756.838 233.409 Q760.033 236.094 760.033 240.585 Q760.033 242.714 759.223 244.636 Q758.436 246.534 756.329 249.126 Q755.75 249.798 752.649 253.015 Q749.547 256.21 743.899 261.973 Z" fill="#000000" fill-rule="nonzero" fill-opacity="1" /><path clip-path="url(#clip840)" d="M780.033 234.427 Q776.422 234.427 774.593 237.992 Q772.787 241.534 772.787 248.663 Q772.787 255.77 774.593 259.335 Q776.422 262.876 780.033 262.876 Q783.667 262.876 785.472 259.335 Q787.301 255.77 787.301 248.663 Q787.301 241.534 785.472 237.992 Q783.667 234.427 780.033 234.427 M780.033 230.724 Q785.843 230.724 788.898 235.33 Q791.977 239.913 791.977 248.663 Q791.977 257.39 788.898 261.997 Q785.843 266.58 780.033 266.58 Q774.223 266.58 771.144 261.997 Q768.088 257.39 768.088 248.663 Q768.088 239.913 771.144 235.33 Q774.223 230.724 780.033 230.724 Z" fill="#000000" fill-rule="nonzero" fill-opacity="1" /><path clip-path="url(#clip840)" d="M798.921 229.937 L802.625 229.937 Q806.097 235.4 807.81 240.631 Q809.546 245.862 809.546 251.024 Q809.546 256.21 807.81 261.464 Q806.097 266.719 802.625 272.159 L798.921 272.159 Q802 266.858 803.505 261.626 Q805.033 256.372 805.033 251.024 Q805.033 245.677 803.505 240.469 Q802 235.261 798.921 229.937 Z" fill="#000000" fill-rule="nonzero" fill-opacity="1" /><path clip-path="url(#clip840)" d="M833.713 244.381 L863.389 244.381 L863.389 248.27 L833.713 248.27 L833.713 244.381 M833.713 253.825 L863.389 253.825 L863.389 257.761 L833.713 257.761 L833.713 253.825 Z" fill="#000000" fill-rule="nonzero" fill-opacity="1" /><path clip-path="url(#clip840)" d="M892.578 261.973 L908.898 261.973 L908.898 265.909 L886.953 265.909 L886.953 261.973 Q889.615 259.219 894.199 254.589 Q898.805 249.936 899.986 248.594 Q902.231 246.071 903.111 244.335 Q904.013 242.575 904.013 240.886 Q904.013 238.131 902.069 236.395 Q900.148 234.659 897.046 234.659 Q894.847 234.659 892.393 235.423 Q889.963 236.187 887.185 237.737 L887.185 233.015 Q890.009 231.881 892.463 231.302 Q894.916 230.724 896.953 230.724 Q902.324 230.724 905.518 233.409 Q908.713 236.094 908.713 240.585 Q908.713 242.714 907.902 244.636 Q907.115 246.534 905.009 249.126 Q904.43 249.798 901.328 253.015 Q898.226 256.21 892.578 261.973 Z" fill="#000000" fill-rule="nonzero" fill-opacity="1" /><path clip-path="url(#clip840)" d="M928.712 234.427 Q925.101 234.427 923.273 237.992 Q921.467 241.534 921.467 248.663 Q921.467 255.77 923.273 259.335 Q925.101 262.876 928.712 262.876 Q932.347 262.876 934.152 259.335 Q935.981 255.77 935.981 248.663 Q935.981 241.534 934.152 237.992 Q932.347 234.427 928.712 234.427 M928.712 230.724 Q934.523 230.724 937.578 235.33 Q940.657 239.913 940.657 248.663 Q940.657 257.39 937.578 261.997 Q934.523 266.58 928.712 266.58 Q922.902 266.58 919.824 261.997 Q916.768 257.39 916.768 248.663 Q916.768 239.913 919.824 235.33 Q922.902 230.724 928.712 230.724 Z" fill="#000000" fill-rule="nonzero" fill-opacity="1" /><path clip-path="url(#clip840)" d="M958.874 234.427 Q955.263 234.427 953.435 237.992 Q951.629 241.534 951.629 248.663 Q951.629 255.77 953.435 259.335 Q955.263 262.876 958.874 262.876 Q962.509 262.876 964.314 259.335 Q966.143 255.77 966.143 248.663 Q966.143 241.534 964.314 237.992 Q962.509 234.427 958.874 234.427 M958.874 230.724 Q964.684 230.724 967.74 235.33 Q970.819 239.913 970.819 248.663 Q970.819 257.39 967.74 261.997 Q964.684 266.58 958.874 266.58 Q953.064 266.58 949.985 261.997 Q946.93 257.39 946.93 248.663 Q946.93 239.913 949.985 235.33 Q953.064 230.724 958.874 230.724 Z" fill="#000000" fill-rule="nonzero" fill-opacity="1" /><path clip-path="url(#clip840)" d="M979.036 260.029 L983.92 260.029 L983.92 265.909 L979.036 265.909 L979.036 260.029 Z" fill="#000000" fill-rule="nonzero" fill-opacity="1" /><path clip-path="url(#clip840)" d="M1004.11 234.427 Q1000.49 234.427 998.666 237.992 Q996.86 241.534 996.86 248.663 Q996.86 255.77 998.666 259.335 Q1000.49 262.876 1004.11 262.876 Q1007.74 262.876 1009.55 259.335 Q1011.37 255.77 1011.37 248.663 Q1011.37 241.534 1009.55 237.992 Q1007.74 234.427 1004.11 234.427 M1004.11 230.724 Q1009.92 230.724 1012.97 235.33 Q1016.05 239.913 1016.05 248.663 Q1016.05 257.39 1012.97 261.997 Q1009.92 266.58 1004.11 266.58 Q998.295 266.58 995.217 261.997 Q992.161 257.39 992.161 248.663 Q992.161 239.913 995.217 235.33 Q998.295 230.724 1004.11 230.724 Z" fill="#000000" fill-rule="nonzero" fill-opacity="1" /><path clip-path="url(#clip840)" d="M1038.39 231.349 L1043.09 231.349 L1043.09 252.344 Q1043.09 257.899 1045.1 260.353 Q1047.11 262.784 1051.63 262.784 Q1056.12 262.784 1058.13 260.353 Q1060.15 257.899 1060.15 252.344 L1060.15 231.349 L1064.85 231.349 L1064.85 252.923 Q1064.85 259.682 1061.49 263.131 Q1058.16 266.58 1051.63 266.58 Q1045.08 266.58 1041.72 263.131 Q1038.39 259.682 1038.39 252.923 L1038.39 231.349 Z" fill="#000000" fill-rule="nonzero" fill-opacity="1" /><path clip-path="url(#clip840)" d="M1094.34 232.483 L1094.34 237.043 Q1091.67 235.77 1089.31 235.145 Q1086.95 234.52 1084.75 234.52 Q1080.93 234.52 1078.85 236.001 Q1076.79 237.483 1076.79 240.214 Q1076.79 242.506 1078.16 243.687 Q1079.54 244.844 1083.39 245.562 L1086.21 246.14 Q1091.44 247.136 1093.92 249.659 Q1096.42 252.159 1096.42 256.372 Q1096.42 261.395 1093.04 263.987 Q1089.68 266.58 1083.18 266.58 Q1080.73 266.58 1077.95 266.024 Q1075.19 265.469 1072.23 264.381 L1072.23 259.566 Q1075.08 261.163 1077.81 261.973 Q1080.54 262.784 1083.18 262.784 Q1087.18 262.784 1089.36 261.21 Q1091.54 259.636 1091.54 256.719 Q1091.54 254.173 1089.96 252.737 Q1088.41 251.302 1084.85 250.585 L1082 250.029 Q1076.77 248.987 1074.43 246.765 Q1072.09 244.543 1072.09 240.585 Q1072.09 236.001 1075.31 233.362 Q1078.55 230.724 1084.22 230.724 Q1086.65 230.724 1089.17 231.163 Q1091.7 231.603 1094.34 232.483 Z" fill="#000000" fill-rule="nonzero" fill-opacity="1" /><path clip-path="url(#clip840)" d="M1108.39 235.191 L1108.39 262.066 L1114.04 262.066 Q1121.19 262.066 1124.5 258.825 Q1127.83 255.585 1127.83 248.594 Q1127.83 241.649 1124.5 238.432 Q1121.19 235.191 1114.04 235.191 L1108.39 235.191 M1103.71 231.349 L1113.32 231.349 Q1123.36 231.349 1128.06 235.538 Q1132.76 239.705 1132.76 248.594 Q1132.76 257.529 1128.04 261.719 Q1123.32 265.909 1113.32 265.909 L1103.71 265.909 L1103.71 231.349 Z" fill="#000000" fill-rule="nonzero" fill-opacity="1" /><circle clip-path="url(#clip840)" cx="399.975" cy="300.469" r="20.9455" fill="#ffffff" fill-rule="evenodd" fill-opacity="1" stroke="#0077bb" stroke-opacity="1" stroke-width="3.72364"/>
<path clip-path="url(#clip840)" d="M521.955 285.851 L521.955 290.781 Q519.594 288.582 516.909 287.494 Q514.247 286.406 511.238 286.406 Q505.312 286.406 502.164 290.04 Q499.016 293.652 499.016 300.503 Q499.016 307.332 502.164 310.966 Q505.312 314.577 511.238 314.577 Q514.247 314.577 516.909 313.489 Q519.594 312.401 521.955 310.202 L521.955 315.087 Q519.502 316.753 516.747 317.587 Q514.016 318.42 510.96 318.42 Q503.113 318.42 498.599 313.628 Q494.085 308.813 494.085 300.503 Q494.085 292.17 498.599 287.378 Q503.113 282.564 510.96 282.564 Q514.062 282.564 516.793 283.397 Q519.548 284.207 521.955 285.851 Z" fill="#000000" fill-rule="nonzero" fill-opacity="1" /><path clip-path="url(#clip840)" d="M539.039 294.809 Q535.613 294.809 533.622 297.494 Q531.631 300.156 531.631 304.809 Q531.631 309.462 533.599 312.147 Q535.59 314.809 539.039 314.809 Q542.441 314.809 544.432 312.124 Q546.423 309.438 546.423 304.809 Q546.423 300.202 544.432 297.517 Q542.441 294.809 539.039 294.809 M539.039 291.198 Q544.594 291.198 547.765 294.809 Q550.937 298.42 550.937 304.809 Q550.937 311.175 547.765 314.809 Q544.594 318.42 539.039 318.42 Q533.46 318.42 530.289 314.809 Q527.14 311.175 527.14 304.809 Q527.14 298.42 530.289 294.809 Q533.46 291.198 539.039 291.198 Z" fill="#000000" fill-rule="nonzero" fill-opacity="1" /><path clip-path="url(#clip840)" d="M578.182 296.8 Q579.779 293.929 582.001 292.564 Q584.224 291.198 587.233 291.198 Q591.284 291.198 593.483 294.045 Q595.682 296.869 595.682 302.101 L595.682 317.749 L591.399 317.749 L591.399 302.239 Q591.399 298.513 590.08 296.707 Q588.761 294.902 586.052 294.902 Q582.742 294.902 580.821 297.101 Q578.899 299.3 578.899 303.096 L578.899 317.749 L574.617 317.749 L574.617 302.239 Q574.617 298.489 573.298 296.707 Q571.978 294.902 569.224 294.902 Q565.96 294.902 564.038 297.124 Q562.117 299.323 562.117 303.096 L562.117 317.749 L557.835 317.749 L557.835 291.823 L562.117 291.823 L562.117 295.851 Q563.575 293.466 565.613 292.332 Q567.65 291.198 570.45 291.198 Q573.275 291.198 575.242 292.633 Q577.233 294.068 578.182 296.8 Z" fill="#000000" fill-rule="nonzero" fill-opacity="1" /><path clip-path="url(#clip840)" d="M608.297 313.86 L608.297 327.61 L604.015 327.61 L604.015 291.823 L608.297 291.823 L608.297 295.758 Q609.64 293.443 611.677 292.332 Q613.737 291.198 616.584 291.198 Q621.307 291.198 624.246 294.948 Q627.209 298.698 627.209 304.809 Q627.209 310.92 624.246 314.67 Q621.307 318.42 616.584 318.42 Q613.737 318.42 611.677 317.309 Q609.64 316.175 608.297 313.86 M622.788 304.809 Q622.788 300.11 620.844 297.448 Q618.922 294.763 615.543 294.763 Q612.163 294.763 610.219 297.448 Q608.297 300.11 608.297 304.809 Q608.297 309.508 610.219 312.193 Q612.163 314.855 615.543 314.855 Q618.922 314.855 620.844 312.193 Q622.788 309.508 622.788 304.809 Z" fill="#000000" fill-rule="nonzero" fill-opacity="1" /><path clip-path="url(#clip840)" d="M644.316 294.809 Q640.89 294.809 638.899 297.494 Q636.908 300.156 636.908 304.809 Q636.908 309.462 638.876 312.147 Q640.867 314.809 644.316 314.809 Q647.719 314.809 649.709 312.124 Q651.7 309.438 651.7 304.809 Q651.7 300.202 649.709 297.517 Q647.719 294.809 644.316 294.809 M644.316 291.198 Q649.871 291.198 653.043 294.809 Q656.214 298.42 656.214 304.809 Q656.214 311.175 653.043 314.809 Q649.871 318.42 644.316 318.42 Q638.737 318.42 635.566 314.809 Q632.418 311.175 632.418 304.809 Q632.418 298.42 635.566 294.809 Q638.737 291.198 644.316 291.198 Z" fill="#000000" fill-rule="nonzero" fill-opacity="1" /><path clip-path="url(#clip840)" d="M662.834 307.517 L662.834 291.823 L667.093 291.823 L667.093 307.355 Q667.093 311.036 668.529 312.888 Q669.964 314.716 672.834 314.716 Q676.283 314.716 678.274 312.517 Q680.288 310.318 680.288 306.522 L680.288 291.823 L684.547 291.823 L684.547 317.749 L680.288 317.749 L680.288 313.767 Q678.737 316.128 676.677 317.286 Q674.64 318.42 671.931 318.42 Q667.464 318.42 665.149 315.642 Q662.834 312.864 662.834 307.517 M673.552 291.198 L673.552 291.198 Z" fill="#000000" fill-rule="nonzero" fill-opacity="1" /><path clip-path="url(#clip840)" d="M714.871 302.101 L714.871 317.749 L710.612 317.749 L710.612 302.239 Q710.612 298.559 709.177 296.73 Q707.741 294.902 704.871 294.902 Q701.422 294.902 699.431 297.101 Q697.441 299.3 697.441 303.096 L697.441 317.749 L693.158 317.749 L693.158 291.823 L697.441 291.823 L697.441 295.851 Q698.968 293.513 701.028 292.355 Q703.112 291.198 705.82 291.198 Q710.288 291.198 712.579 293.976 Q714.871 296.73 714.871 302.101 Z" fill="#000000" fill-rule="nonzero" fill-opacity="1" /><path clip-path="url(#clip840)" d="M740.426 295.758 L740.426 281.73 L744.686 281.73 L744.686 317.749 L740.426 317.749 L740.426 313.86 Q739.084 316.175 737.024 317.309 Q734.987 318.42 732.116 318.42 Q727.417 318.42 724.454 314.67 Q721.514 310.92 721.514 304.809 Q721.514 298.698 724.454 294.948 Q727.417 291.198 732.116 291.198 Q734.987 291.198 737.024 292.332 Q739.084 293.443 740.426 295.758 M725.913 304.809 Q725.913 309.508 727.834 312.193 Q729.778 314.855 733.158 314.855 Q736.538 314.855 738.482 312.193 Q740.426 309.508 740.426 304.809 Q740.426 300.11 738.482 297.448 Q736.538 294.763 733.158 294.763 Q729.778 294.763 727.834 297.448 Q725.913 300.11 725.913 304.809 Z" fill="#000000" fill-rule="nonzero" fill-opacity="1" /><path clip-path="url(#clip840)" d="M754.547 311.869 L759.431 311.869 L759.431 317.749 L754.547 317.749 L754.547 311.869 M754.547 293.235 L759.431 293.235 L759.431 299.114 L754.547 299.114 L754.547 293.235 Z" fill="#000000" fill-rule="nonzero" fill-opacity="1" /><path clip-path="url(#clip840)" d="M796.236 287.795 L789.894 304.994 L802.602 304.994 L796.236 287.795 M793.597 283.189 L798.898 283.189 L812.07 317.749 L807.208 317.749 L804.06 308.883 L788.482 308.883 L785.334 317.749 L780.403 317.749 L793.597 283.189 Z" fill="#000000" fill-rule="nonzero" fill-opacity="1" /><path clip-path="url(#clip840)" d="M827.162 281.777 Q824.06 287.101 822.556 292.309 Q821.051 297.517 821.051 302.864 Q821.051 308.212 822.556 313.466 Q824.083 318.698 827.162 323.999 L823.458 323.999 Q819.986 318.559 818.25 313.304 Q816.537 308.05 816.537 302.864 Q816.537 297.702 818.25 292.471 Q819.963 287.24 823.458 281.777 L827.162 281.777 Z" fill="#000000" fill-rule="nonzero" fill-opacity="1" /><path clip-path="url(#clip840)" d="M840.055 313.813 L856.375 313.813 L856.375 317.749 L834.431 317.749 L834.431 313.813 Q837.093 311.059 841.676 306.429 Q846.282 301.776 847.463 300.434 Q849.708 297.911 850.588 296.175 Q851.491 294.415 851.491 292.726 Q851.491 289.971 849.546 288.235 Q847.625 286.499 844.523 286.499 Q842.324 286.499 839.87 287.263 Q837.44 288.027 834.662 289.577 L834.662 284.855 Q837.486 283.721 839.94 283.142 Q842.393 282.564 844.43 282.564 Q849.801 282.564 852.995 285.249 Q856.19 287.934 856.19 292.425 Q856.19 294.554 855.379 296.476 Q854.592 298.374 852.486 300.966 Q851.907 301.638 848.805 304.855 Q845.704 308.05 840.055 313.813 Z" fill="#000000" fill-rule="nonzero" fill-opacity="1" /><path clip-path="url(#clip840)" d="M876.19 286.267 Q872.578 286.267 870.75 289.832 Q868.944 293.374 868.944 300.503 Q868.944 307.61 870.75 311.175 Q872.578 314.716 876.19 314.716 Q879.824 314.716 881.629 311.175 Q883.458 307.61 883.458 300.503 Q883.458 293.374 881.629 289.832 Q879.824 286.267 876.19 286.267 M876.19 282.564 Q882 282.564 885.055 287.17 Q888.134 291.753 888.134 300.503 Q888.134 309.23 885.055 313.837 Q882 318.42 876.19 318.42 Q870.379 318.42 867.301 313.837 Q864.245 309.23 864.245 300.503 Q864.245 291.753 867.301 287.17 Q870.379 282.564 876.19 282.564 Z" fill="#000000" fill-rule="nonzero" fill-opacity="1" /><path clip-path="url(#clip840)" d="M895.078 281.777 L898.782 281.777 Q902.254 287.24 903.967 292.471 Q905.703 297.702 905.703 302.864 Q905.703 308.05 903.967 313.304 Q902.254 318.559 898.782 323.999 L895.078 323.999 Q898.157 318.698 899.662 313.466 Q901.189 308.212 901.189 302.864 Q901.189 297.517 899.662 292.309 Q898.157 287.101 895.078 281.777 Z" fill="#000000" fill-rule="nonzero" fill-opacity="1" /><path clip-path="url(#clip840)" d="M929.87 296.221 L959.546 296.221 L959.546 300.11 L929.87 300.11 L929.87 296.221 M929.87 305.665 L959.546 305.665 L959.546 309.601 L929.87 309.601 L929.87 305.665 Z" fill="#000000" fill-rule="nonzero" fill-opacity="1" /><path clip-path="url(#clip840)" d="M988.735 313.813 L1005.05 313.813 L1005.05 317.749 L983.11 317.749 L983.11 313.813 Q985.772 311.059 990.356 306.429 Q994.962 301.776 996.143 300.434 Q998.388 297.911 999.268 296.175 Q1000.17 294.415 1000.17 292.726 Q1000.17 289.971 998.226 288.235 Q996.305 286.499 993.203 286.499 Q991.004 286.499 988.55 287.263 Q986.12 288.027 983.342 289.577 L983.342 284.855 Q986.166 283.721 988.619 283.142 Q991.073 282.564 993.11 282.564 Q998.481 282.564 1001.67 285.249 Q1004.87 287.934 1004.87 292.425 Q1004.87 294.554 1004.06 296.476 Q1003.27 298.374 1001.17 300.966 Q1000.59 301.638 997.485 304.855 Q994.383 308.05 988.735 313.813 Z" fill="#000000" fill-rule="nonzero" fill-opacity="1" /><path clip-path="url(#clip840)" d="M1025.45 298.605 Q1022.3 298.605 1020.45 300.758 Q1018.62 302.911 1018.62 306.661 Q1018.62 310.388 1020.45 312.563 Q1022.3 314.716 1025.45 314.716 Q1028.6 314.716 1030.42 312.563 Q1032.28 310.388 1032.28 306.661 Q1032.28 302.911 1030.42 300.758 Q1028.6 298.605 1025.45 298.605 M1034.73 283.953 L1034.73 288.212 Q1032.97 287.378 1031.17 286.939 Q1029.38 286.499 1027.62 286.499 Q1022.99 286.499 1020.54 289.624 Q1018.11 292.749 1017.76 299.068 Q1019.13 297.054 1021.19 295.989 Q1023.25 294.902 1025.73 294.902 Q1030.93 294.902 1033.94 298.073 Q1036.98 301.221 1036.98 306.661 Q1036.98 311.985 1033.83 315.202 Q1030.68 318.42 1025.45 318.42 Q1019.45 318.42 1016.28 313.837 Q1013.11 309.23 1013.11 300.503 Q1013.11 292.309 1017 287.448 Q1020.89 282.564 1027.44 282.564 Q1029.2 282.564 1030.98 282.911 Q1032.79 283.258 1034.73 283.953 Z" fill="#000000" fill-rule="nonzero" fill-opacity="1" /><path clip-path="url(#clip840)" d="M1045.08 283.189 L1063.43 283.189 L1063.43 287.124 L1049.36 287.124 L1049.36 295.596 Q1050.38 295.249 1051.4 295.087 Q1052.42 294.902 1053.43 294.902 Q1059.22 294.902 1062.6 298.073 Q1065.98 301.244 1065.98 306.661 Q1065.98 312.239 1062.51 315.341 Q1059.04 318.42 1052.72 318.42 Q1050.54 318.42 1048.27 318.05 Q1046.03 317.679 1043.62 316.938 L1043.62 312.239 Q1045.7 313.374 1047.92 313.929 Q1050.15 314.485 1052.62 314.485 Q1056.63 314.485 1058.97 312.378 Q1061.3 310.272 1061.3 306.661 Q1061.3 303.05 1058.97 300.943 Q1056.63 298.837 1052.62 298.837 Q1050.75 298.837 1048.87 299.253 Q1047.02 299.67 1045.08 300.55 L1045.08 283.189 Z" fill="#000000" fill-rule="nonzero" fill-opacity="1" /><path clip-path="url(#clip840)" d="M1075.19 311.869 L1080.08 311.869 L1080.08 317.749 L1075.19 317.749 L1075.19 311.869 Z" fill="#000000" fill-rule="nonzero" fill-opacity="1" /><path clip-path="url(#clip840)" d="M1100.26 286.267 Q1096.65 286.267 1094.82 289.832 Q1093.02 293.374 1093.02 300.503 Q1093.02 307.61 1094.82 311.175 Q1096.65 314.716 1100.26 314.716 Q1103.9 314.716 1105.7 311.175 Q1107.53 307.61 1107.53 300.503 Q1107.53 293.374 1105.7 289.832 Q1103.9 286.267 1100.26 286.267 M1100.26 282.564 Q1106.07 282.564 1109.13 287.17 Q1112.21 291.753 1112.21 300.503 Q1112.21 309.23 1109.13 313.837 Q1106.07 318.42 1100.26 318.42 Q1094.45 318.42 1091.37 313.837 Q1088.32 309.23 1088.32 300.503 Q1088.32 291.753 1091.37 287.17 Q1094.45 282.564 1100.26 282.564 Z" fill="#000000" fill-rule="nonzero" fill-opacity="1" /><path clip-path="url(#clip840)" d="M1134.54 283.189 L1139.24 283.189 L1139.24 304.184 Q1139.24 309.739 1141.26 312.193 Q1143.27 314.624 1147.79 314.624 Q1152.28 314.624 1154.29 312.193 Q1156.3 309.739 1156.3 304.184 L1156.3 283.189 L1161 283.189 L1161 304.763 Q1161 311.522 1157.65 314.971 Q1154.31 318.42 1147.79 318.42 Q1141.23 318.42 1137.88 314.971 Q1134.54 311.522 1134.54 304.763 L1134.54 283.189 Z" fill="#000000" fill-rule="nonzero" fill-opacity="1" /><path clip-path="url(#clip840)" d="M1190.49 284.323 L1190.49 288.883 Q1187.83 287.61 1185.47 286.985 Q1183.11 286.36 1180.91 286.36 Q1177.09 286.36 1175.01 287.841 Q1172.95 289.323 1172.95 292.054 Q1172.95 294.346 1174.31 295.527 Q1175.7 296.684 1179.54 297.402 L1182.37 297.98 Q1187.6 298.976 1190.08 301.499 Q1192.58 303.999 1192.58 308.212 Q1192.58 313.235 1189.2 315.827 Q1185.84 318.42 1179.34 318.42 Q1176.88 318.42 1174.1 317.864 Q1171.35 317.309 1168.39 316.221 L1168.39 311.406 Q1171.23 313.003 1173.97 313.813 Q1176.7 314.624 1179.34 314.624 Q1183.34 314.624 1185.52 313.05 Q1187.69 311.476 1187.69 308.559 Q1187.69 306.013 1186.12 304.577 Q1184.57 303.142 1181 302.425 L1178.16 301.869 Q1172.92 300.827 1170.59 298.605 Q1168.25 296.383 1168.25 292.425 Q1168.25 287.841 1171.47 285.202 Q1174.71 282.564 1180.38 282.564 Q1182.81 282.564 1185.33 283.003 Q1187.85 283.443 1190.49 284.323 Z" fill="#000000" fill-rule="nonzero" fill-opacity="1" /><path clip-path="url(#clip840)" d="M1204.54 287.031 L1204.54 313.906 L1210.19 313.906 Q1217.35 313.906 1220.66 310.665 Q1223.99 307.425 1223.99 300.434 Q1223.99 293.489 1220.66 290.272 Q1217.35 287.031 1210.19 287.031 L1204.54 287.031 M1199.87 283.189 L1209.47 283.189 Q1219.52 283.189 1224.22 287.378 Q1228.92 291.545 1228.92 300.434 Q1228.92 309.369 1224.2 313.559 Q1219.47 317.749 1209.47 317.749 L1199.87 317.749 L1199.87 283.189 Z" fill="#000000" fill-rule="nonzero" fill-opacity="1" /></svg>
