<?xml version="1.0" encoding="utf-8"?>
<svg xmlns="http://www.w3.org/2000/svg" xmlns:xlink="http://www.w3.org/1999/xlink" width="600" height="400" viewBox="0 0 2400 1600">
<defs>
  <clipPath id="clip070">
    <rect x="0" y="0" width="2400" height="1600"/>
  </clipPath>
</defs>
<path clip-path="url(#clip070)" d="M0 1600 L2400 1600 L2400 0 L0 0  Z" fill="#ffffff" fill-rule="evenodd" fill-opacity="1"/>
<defs>
  <clipPath id="clip071">
    <rect x="480" y="0" width="1681" height="1600"/>
  </clipPath>
</defs>
<path clip-path="url(#clip070)" d="M203.964 1423.18 L2352.76 1423.18 L2352.76 47.2441 L203.964 47.2441  Z" fill="#fffaf0" fill-rule="evenodd" fill-opacity="1"/>
<defs>
  <clipPath id="clip072">
    <rect x="203" y="47" width="2150" height="1377"/>
  </clipPath>
</defs>
<polyline clip-path="url(#clip072)" style="stroke:#000000; stroke-linecap:round; stroke-linejoin:round; stroke-width:2; stroke-opacity:0.1; fill:none" points="473.93,1423.18 473.93,47.2441 "/>
<polyline clip-path="url(#clip072)" style="stroke:#000000; stroke-linecap:round; stroke-linejoin:round; stroke-width:2; stroke-opacity:0.1; fill:none" points="777.488,1423.18 777.488,47.2441 "/>
<polyline clip-path="url(#clip072)" style="stroke:#000000; stroke-linecap:round; stroke-linejoin:round; stroke-width:2; stroke-opacity:0.1; fill:none" points="1081.05,1423.18 1081.05,47.2441 "/>
<polyline clip-path="url(#clip072)" style="stroke:#000000; stroke-linecap:round; stroke-linejoin:round; stroke-width:2; stroke-opacity:0.1; fill:none" points="1384.61,1423.18 1384.61,47.2441 "/>
<polyline clip-path="url(#clip072)" style="stroke:#000000; stroke-linecap:round; stroke-linejoin:round; stroke-width:2; stroke-opacity:0.1; fill:none" points="1688.16,1423.18 1688.16,47.2441 "/>
<polyline clip-path="url(#clip072)" style="stroke:#000000; stroke-linecap:round; stroke-linejoin:round; stroke-width:2; stroke-opacity:0.1; fill:none" points="1991.72,1423.18 1991.72,47.2441 "/>
<polyline clip-path="url(#clip072)" style="stroke:#000000; stroke-linecap:round; stroke-linejoin:round; stroke-width:2; stroke-opacity:0.1; fill:none" points="2295.28,1423.18 2295.28,47.2441 "/>
<polyline clip-path="url(#clip070)" style="stroke:#000000; stroke-linecap:round; stroke-linejoin:round; stroke-width:4; stroke-opacity:1; fill:none" points="203.964,1423.18 2352.76,1423.18 "/>
<polyline clip-path="url(#clip070)" style="stroke:#000000; stroke-linecap:round; stroke-linejoin:round; stroke-width:4; stroke-opacity:1; fill:none" points="203.964,47.2441 2352.76,47.2441 "/>
<polyline clip-path="url(#clip070)" style="stroke:#000000; stroke-linecap:round; stroke-linejoin:round; stroke-width:4; stroke-opacity:1; fill:none" points="473.93,1423.18 473.93,1404.28 "/>
<polyline clip-path="url(#clip070)" style="stroke:#000000; stroke-linecap:round; stroke-linejoin:round; stroke-width:4; stroke-opacity:1; fill:none" points="777.488,1423.18 777.488,1404.28 "/>
<polyline clip-path="url(#clip070)" style="stroke:#000000; stroke-linecap:round; stroke-linejoin:round; stroke-width:4; stroke-opacity:1; fill:none" points="1081.05,1423.18 1081.05,1404.28 "/>
<polyline clip-path="url(#clip070)" style="stroke:#000000; stroke-linecap:round; stroke-linejoin:round; stroke-width:4; stroke-opacity:1; fill:none" points="1384.61,1423.18 1384.61,1404.28 "/>
<polyline clip-path="url(#clip070)" style="stroke:#000000; stroke-linecap:round; stroke-linejoin:round; stroke-width:4; stroke-opacity:1; fill:none" points="1688.16,1423.18 1688.16,1404.28 "/>
<polyline clip-path="url(#clip070)" style="stroke:#000000; stroke-linecap:round; stroke-linejoin:round; stroke-width:4; stroke-opacity:1; fill:none" points="1991.72,1423.18 1991.72,1404.28 "/>
<polyline clip-path="url(#clip070)" style="stroke:#000000; stroke-linecap:round; stroke-linejoin:round; stroke-width:4; stroke-opacity:1; fill:none" points="2295.28,1423.18 2295.28,1404.28 "/>
<path clip-path="url(#clip070)" d="M405.875 1468.75 L435.551 1468.75 L435.551 1472.69 L405.875 1472.69 L405.875 1468.75 Z" fill="#000000" fill-rule="nonzero" fill-opacity="1" /><path clip-path="url(#clip070)" d="M455.643 1454.1 Q452.032 1454.1 450.203 1457.66 Q448.398 1461.2 448.398 1468.33 Q448.398 1475.44 450.203 1479.01 Q452.032 1482.55 455.643 1482.55 Q459.277 1482.55 461.083 1479.01 Q462.912 1475.44 462.912 1468.33 Q462.912 1461.2 461.083 1457.66 Q459.277 1454.1 455.643 1454.1 M455.643 1450.39 Q461.453 1450.39 464.509 1455 Q467.588 1459.58 467.588 1468.33 Q467.588 1477.06 464.509 1481.67 Q461.453 1486.25 455.643 1486.25 Q449.833 1486.25 446.754 1481.67 Q443.699 1477.06 443.699 1468.33 Q443.699 1459.58 446.754 1455 Q449.833 1450.39 455.643 1450.39 Z" fill="#000000" fill-rule="nonzero" fill-opacity="1" /><path clip-path="url(#clip070)" d="M475.805 1479.7 L480.689 1479.7 L480.689 1485.58 L475.805 1485.58 L475.805 1479.7 Z" fill="#000000" fill-rule="nonzero" fill-opacity="1" /><path clip-path="url(#clip070)" d="M491.685 1481.64 L499.324 1481.64 L499.324 1455.28 L491.013 1456.95 L491.013 1452.69 L499.277 1451.02 L503.953 1451.02 L503.953 1481.64 L511.592 1481.64 L511.592 1485.58 L491.685 1485.58 L491.685 1481.64 Z" fill="#000000" fill-rule="nonzero" fill-opacity="1" /><path clip-path="url(#clip070)" d="M521.083 1451.02 L539.439 1451.02 L539.439 1454.96 L525.365 1454.96 L525.365 1463.43 Q526.384 1463.08 527.402 1462.92 Q528.421 1462.73 529.439 1462.73 Q535.226 1462.73 538.606 1465.9 Q541.985 1469.08 541.985 1474.49 Q541.985 1480.07 538.513 1483.17 Q535.041 1486.25 528.722 1486.25 Q526.546 1486.25 524.277 1485.88 Q522.032 1485.51 519.624 1484.77 L519.624 1480.07 Q521.708 1481.2 523.93 1481.76 Q526.152 1482.32 528.629 1482.32 Q532.634 1482.32 534.971 1480.21 Q537.309 1478.1 537.309 1474.49 Q537.309 1470.88 534.971 1468.77 Q532.634 1466.67 528.629 1466.67 Q526.754 1466.67 524.879 1467.08 Q523.027 1467.5 521.083 1468.38 L521.083 1451.02 Z" fill="#000000" fill-rule="nonzero" fill-opacity="1" /><path clip-path="url(#clip070)" d="M708.936 1468.75 L738.611 1468.75 L738.611 1472.69 L708.936 1472.69 L708.936 1468.75 Z" fill="#000000" fill-rule="nonzero" fill-opacity="1" /><path clip-path="url(#clip070)" d="M758.704 1454.1 Q755.093 1454.1 753.264 1457.66 Q751.459 1461.2 751.459 1468.33 Q751.459 1475.44 753.264 1479.01 Q755.093 1482.55 758.704 1482.55 Q762.338 1482.55 764.144 1479.01 Q765.972 1475.44 765.972 1468.33 Q765.972 1461.2 764.144 1457.66 Q762.338 1454.1 758.704 1454.1 M758.704 1450.39 Q764.514 1450.39 767.57 1455 Q770.648 1459.58 770.648 1468.33 Q770.648 1477.06 767.57 1481.67 Q764.514 1486.25 758.704 1486.25 Q752.894 1486.25 749.815 1481.67 Q746.759 1477.06 746.759 1468.33 Q746.759 1459.58 749.815 1455 Q752.894 1450.39 758.704 1450.39 Z" fill="#000000" fill-rule="nonzero" fill-opacity="1" /><path clip-path="url(#clip070)" d="M778.866 1479.7 L783.75 1479.7 L783.75 1485.58 L778.866 1485.58 L778.866 1479.7 Z" fill="#000000" fill-rule="nonzero" fill-opacity="1" /><path clip-path="url(#clip070)" d="M794.745 1481.64 L802.384 1481.64 L802.384 1455.28 L794.074 1456.95 L794.074 1452.69 L802.338 1451.02 L807.014 1451.02 L807.014 1481.64 L814.653 1481.64 L814.653 1485.58 L794.745 1485.58 L794.745 1481.64 Z" fill="#000000" fill-rule="nonzero" fill-opacity="1" /><path clip-path="url(#clip070)" d="M834.097 1454.1 Q830.486 1454.1 828.657 1457.66 Q826.852 1461.2 826.852 1468.33 Q826.852 1475.44 828.657 1479.01 Q830.486 1482.55 834.097 1482.55 Q837.731 1482.55 839.537 1479.01 Q841.365 1475.44 841.365 1468.33 Q841.365 1461.2 839.537 1457.66 Q837.731 1454.1 834.097 1454.1 M834.097 1450.39 Q839.907 1450.39 842.963 1455 Q846.041 1459.58 846.041 1468.33 Q846.041 1477.06 842.963 1481.67 Q839.907 1486.25 834.097 1486.25 Q828.287 1486.25 825.208 1481.67 Q822.153 1477.06 822.153 1468.33 Q822.153 1459.58 825.208 1455 Q828.287 1450.39 834.097 1450.39 Z" fill="#000000" fill-rule="nonzero" fill-opacity="1" /><path clip-path="url(#clip070)" d="M1012.99 1468.75 L1042.67 1468.75 L1042.67 1472.69 L1012.99 1472.69 L1012.99 1468.75 Z" fill="#000000" fill-rule="nonzero" fill-opacity="1" /><path clip-path="url(#clip070)" d="M1062.76 1454.1 Q1059.15 1454.1 1057.32 1457.66 Q1055.51 1461.2 1055.51 1468.33 Q1055.51 1475.44 1057.32 1479.01 Q1059.15 1482.55 1062.76 1482.55 Q1066.39 1482.55 1068.2 1479.01 Q1070.03 1475.44 1070.03 1468.33 Q1070.03 1461.2 1068.2 1457.66 Q1066.39 1454.1 1062.76 1454.1 M1062.76 1450.39 Q1068.57 1450.39 1071.63 1455 Q1074.7 1459.58 1074.7 1468.33 Q1074.7 1477.06 1071.63 1481.67 Q1068.57 1486.25 1062.76 1486.25 Q1056.95 1486.25 1053.87 1481.67 Q1050.82 1477.06 1050.82 1468.33 Q1050.82 1459.58 1053.87 1455 Q1056.95 1450.39 1062.76 1450.39 Z" fill="#000000" fill-rule="nonzero" fill-opacity="1" /><path clip-path="url(#clip070)" d="M1082.92 1479.7 L1087.81 1479.7 L1087.81 1485.58 L1082.92 1485.58 L1082.92 1479.7 Z" fill="#000000" fill-rule="nonzero" fill-opacity="1" /><path clip-path="url(#clip070)" d="M1107.99 1454.1 Q1104.38 1454.1 1102.55 1457.66 Q1100.75 1461.2 1100.75 1468.33 Q1100.75 1475.44 1102.55 1479.01 Q1104.38 1482.55 1107.99 1482.55 Q1111.63 1482.55 1113.43 1479.01 Q1115.26 1475.44 1115.26 1468.33 Q1115.26 1461.2 1113.43 1457.66 Q1111.63 1454.1 1107.99 1454.1 M1107.99 1450.39 Q1113.8 1450.39 1116.86 1455 Q1119.94 1459.58 1119.94 1468.33 Q1119.94 1477.06 1116.86 1481.67 Q1113.8 1486.25 1107.99 1486.25 Q1102.18 1486.25 1099.1 1481.67 Q1096.05 1477.06 1096.05 1468.33 Q1096.05 1459.58 1099.1 1455 Q1102.18 1450.39 1107.99 1450.39 Z" fill="#000000" fill-rule="nonzero" fill-opacity="1" /><path clip-path="url(#clip070)" d="M1128.2 1451.02 L1146.56 1451.02 L1146.56 1454.96 L1132.48 1454.96 L1132.48 1463.43 Q1133.5 1463.08 1134.52 1462.92 Q1135.54 1462.73 1136.56 1462.73 Q1142.34 1462.73 1145.72 1465.9 Q1149.1 1469.08 1149.1 1474.49 Q1149.1 1480.07 1145.63 1483.17 Q1142.16 1486.25 1135.84 1486.25 Q1133.66 1486.25 1131.39 1485.88 Q1129.15 1485.51 1126.74 1484.77 L1126.74 1480.07 Q1128.82 1481.2 1131.05 1481.76 Q1133.27 1482.32 1135.75 1482.32 Q1139.75 1482.32 1142.09 1480.21 Q1144.43 1478.1 1144.43 1474.49 Q1144.43 1470.88 1142.09 1468.77 Q1139.75 1466.67 1135.75 1466.67 Q1133.87 1466.67 1132 1467.08 Q1130.14 1467.5 1128.2 1468.38 L1128.2 1451.02 Z" fill="#000000" fill-rule="nonzero" fill-opacity="1" /><path clip-path="url(#clip070)" d="M1346.91 1454.1 Q1343.3 1454.1 1341.47 1457.66 Q1339.66 1461.2 1339.66 1468.33 Q1339.66 1475.44 1341.47 1479.01 Q1343.3 1482.55 1346.91 1482.55 Q1350.54 1482.55 1352.35 1479.01 Q1354.18 1475.44 1354.18 1468.33 Q1354.18 1461.2 1352.35 1457.66 Q1350.54 1454.1 1346.91 1454.1 M1346.91 1450.39 Q1352.72 1450.39 1355.77 1455 Q1358.85 1459.58 1358.85 1468.33 Q1358.85 1477.06 1355.77 1481.67 Q1352.72 1486.25 1346.91 1486.25 Q1341.1 1486.25 1338.02 1481.67 Q1334.96 1477.06 1334.96 1468.33 Q1334.96 1459.58 1338.02 1455 Q1341.1 1450.39 1346.91 1450.39 Z" fill="#000000" fill-rule="nonzero" fill-opacity="1" /><path clip-path="url(#clip070)" d="M1367.07 1479.7 L1371.95 1479.7 L1371.95 1485.58 L1367.07 1485.58 L1367.07 1479.7 Z" fill="#000000" fill-rule="nonzero" fill-opacity="1" /><path clip-path="url(#clip070)" d="M1392.14 1454.1 Q1388.53 1454.1 1386.7 1457.66 Q1384.89 1461.2 1384.89 1468.33 Q1384.89 1475.44 1386.7 1479.01 Q1388.53 1482.55 1392.14 1482.55 Q1395.77 1482.55 1397.58 1479.01 Q1399.41 1475.44 1399.41 1468.33 Q1399.41 1461.2 1397.58 1457.66 Q1395.77 1454.1 1392.14 1454.1 M1392.14 1450.39 Q1397.95 1450.39 1401.01 1455 Q1404.08 1459.58 1404.08 1468.33 Q1404.08 1477.06 1401.01 1481.67 Q1397.95 1486.25 1392.14 1486.25 Q1386.33 1486.25 1383.25 1481.67 Q1380.2 1477.06 1380.2 1468.33 Q1380.2 1459.58 1383.25 1455 Q1386.33 1450.39 1392.14 1450.39 Z" fill="#000000" fill-rule="nonzero" fill-opacity="1" /><path clip-path="url(#clip070)" d="M1422.3 1454.1 Q1418.69 1454.1 1416.86 1457.66 Q1415.06 1461.2 1415.06 1468.33 Q1415.06 1475.44 1416.86 1479.01 Q1418.69 1482.55 1422.3 1482.55 Q1425.94 1482.55 1427.74 1479.01 Q1429.57 1475.44 1429.57 1468.33 Q1429.57 1461.2 1427.74 1457.66 Q1425.94 1454.1 1422.3 1454.1 M1422.3 1450.39 Q1428.11 1450.39 1431.17 1455 Q1434.25 1459.58 1434.25 1468.33 Q1434.25 1477.06 1431.17 1481.67 Q1428.11 1486.25 1422.3 1486.25 Q1416.49 1486.25 1413.41 1481.67 Q1410.36 1477.06 1410.36 1468.33 Q1410.36 1459.58 1413.41 1455 Q1416.49 1450.39 1422.3 1450.39 Z" fill="#000000" fill-rule="nonzero" fill-opacity="1" /><path clip-path="url(#clip070)" d="M1650.96 1454.1 Q1647.35 1454.1 1645.52 1457.66 Q1643.72 1461.2 1643.72 1468.33 Q1643.72 1475.44 1645.52 1479.01 Q1647.35 1482.55 1650.96 1482.55 Q1654.6 1482.55 1656.4 1479.01 Q1658.23 1475.44 1658.23 1468.33 Q1658.23 1461.2 1656.4 1457.66 Q1654.6 1454.1 1650.96 1454.1 M1650.96 1450.39 Q1656.77 1450.39 1659.83 1455 Q1662.91 1459.58 1662.91 1468.33 Q1662.91 1477.06 1659.83 1481.67 Q1656.77 1486.25 1650.96 1486.25 Q1645.15 1486.25 1642.08 1481.67 Q1639.02 1477.06 1639.02 1468.33 Q1639.02 1459.58 1642.08 1455 Q1645.15 1450.39 1650.96 1450.39 Z" fill="#000000" fill-rule="nonzero" fill-opacity="1" /><path clip-path="url(#clip070)" d="M1671.13 1479.7 L1676.01 1479.7 L1676.01 1485.58 L1671.13 1485.58 L1671.13 1479.7 Z" fill="#000000" fill-rule="nonzero" fill-opacity="1" /><path clip-path="url(#clip070)" d="M1696.2 1454.1 Q1692.58 1454.1 1690.76 1457.66 Q1688.95 1461.2 1688.95 1468.33 Q1688.95 1475.44 1690.76 1479.01 Q1692.58 1482.55 1696.2 1482.55 Q1699.83 1482.55 1701.64 1479.01 Q1703.46 1475.44 1703.46 1468.33 Q1703.46 1461.2 1701.64 1457.66 Q1699.83 1454.1 1696.2 1454.1 M1696.2 1450.39 Q1702.01 1450.39 1705.06 1455 Q1708.14 1459.58 1708.14 1468.33 Q1708.14 1477.06 1705.06 1481.67 Q1702.01 1486.25 1696.2 1486.25 Q1690.39 1486.25 1687.31 1481.67 Q1684.25 1477.06 1684.25 1468.33 Q1684.25 1459.58 1687.31 1455 Q1690.39 1450.39 1696.2 1450.39 Z" fill="#000000" fill-rule="nonzero" fill-opacity="1" /><path clip-path="url(#clip070)" d="M1716.4 1451.02 L1734.76 1451.02 L1734.76 1454.96 L1720.69 1454.96 L1720.69 1463.43 Q1721.7 1463.08 1722.72 1462.92 Q1723.74 1462.73 1724.76 1462.73 Q1730.55 1462.73 1733.93 1465.9 Q1737.31 1469.08 1737.31 1474.49 Q1737.31 1480.07 1733.83 1483.17 Q1730.36 1486.25 1724.04 1486.25 Q1721.87 1486.25 1719.6 1485.88 Q1717.35 1485.51 1714.95 1484.77 L1714.95 1480.07 Q1717.03 1481.2 1719.25 1481.76 Q1721.47 1482.32 1723.95 1482.32 Q1727.95 1482.32 1730.29 1480.21 Q1732.63 1478.1 1732.63 1474.49 Q1732.63 1470.88 1730.29 1468.77 Q1727.95 1466.67 1723.95 1466.67 Q1722.08 1466.67 1720.2 1467.08 Q1718.35 1467.5 1716.4 1468.38 L1716.4 1451.02 Z" fill="#000000" fill-rule="nonzero" fill-opacity="1" /><path clip-path="url(#clip070)" d="M1954.03 1454.1 Q1950.41 1454.1 1948.59 1457.66 Q1946.78 1461.2 1946.78 1468.33 Q1946.78 1475.44 1948.59 1479.01 Q1950.41 1482.55 1954.03 1482.55 Q1957.66 1482.55 1959.47 1479.01 Q1961.29 1475.44 1961.29 1468.33 Q1961.29 1461.2 1959.47 1457.66 Q1957.66 1454.1 1954.03 1454.1 M1954.03 1450.39 Q1959.84 1450.39 1962.89 1455 Q1965.97 1459.58 1965.97 1468.33 Q1965.97 1477.06 1962.89 1481.67 Q1959.84 1486.25 1954.03 1486.25 Q1948.22 1486.25 1945.14 1481.67 Q1942.08 1477.06 1942.08 1468.33 Q1942.08 1459.58 1945.14 1455 Q1948.22 1450.39 1954.03 1450.39 Z" fill="#000000" fill-rule="nonzero" fill-opacity="1" /><path clip-path="url(#clip070)" d="M1974.19 1479.7 L1979.07 1479.7 L1979.07 1485.58 L1974.19 1485.58 L1974.19 1479.7 Z" fill="#000000" fill-rule="nonzero" fill-opacity="1" /><path clip-path="url(#clip070)" d="M1990.07 1481.64 L1997.71 1481.64 L1997.71 1455.28 L1989.4 1456.95 L1989.4 1452.69 L1997.66 1451.02 L2002.34 1451.02 L2002.34 1481.64 L2009.97 1481.64 L2009.97 1485.58 L1990.07 1485.58 L1990.07 1481.64 Z" fill="#000000" fill-rule="nonzero" fill-opacity="1" /><path clip-path="url(#clip070)" d="M2029.42 1454.1 Q2025.81 1454.1 2023.98 1457.66 Q2022.17 1461.2 2022.17 1468.33 Q2022.17 1475.44 2023.98 1479.01 Q2025.81 1482.55 2029.42 1482.55 Q2033.05 1482.55 2034.86 1479.01 Q2036.69 1475.44 2036.69 1468.33 Q2036.69 1461.2 2034.86 1457.66 Q2033.05 1454.1 2029.42 1454.1 M2029.42 1450.39 Q2035.23 1450.39 2038.28 1455 Q2041.36 1459.58 2041.36 1468.33 Q2041.36 1477.06 2038.28 1481.67 Q2035.23 1486.25 2029.42 1486.25 Q2023.61 1486.25 2020.53 1481.67 Q2017.47 1477.06 2017.47 1468.33 Q2017.47 1459.58 2020.53 1455 Q2023.61 1450.39 2029.42 1450.39 Z" fill="#000000" fill-rule="nonzero" fill-opacity="1" /><path clip-path="url(#clip070)" d="M2258.08 1454.1 Q2254.47 1454.1 2252.64 1457.66 Q2250.84 1461.2 2250.84 1468.33 Q2250.84 1475.44 2252.64 1479.01 Q2254.47 1482.55 2258.08 1482.55 Q2261.72 1482.55 2263.52 1479.01 Q2265.35 1475.44 2265.35 1468.33 Q2265.35 1461.2 2263.52 1457.66 Q2261.72 1454.1 2258.08 1454.1 M2258.08 1450.39 Q2263.89 1450.39 2266.95 1455 Q2270.03 1459.58 2270.03 1468.33 Q2270.03 1477.06 2266.95 1481.67 Q2263.89 1486.25 2258.08 1486.25 Q2252.27 1486.25 2249.19 1481.67 Q2246.14 1477.06 2246.14 1468.33 Q2246.14 1459.58 2249.19 1455 Q2252.27 1450.39 2258.08 1450.39 Z" fill="#000000" fill-rule="nonzero" fill-opacity="1" /><path clip-path="url(#clip070)" d="M2278.24 1479.7 L2283.13 1479.7 L2283.13 1485.58 L2278.24 1485.58 L2278.24 1479.7 Z" fill="#000000" fill-rule="nonzero" fill-opacity="1" /><path clip-path="url(#clip070)" d="M2294.12 1481.64 L2301.76 1481.64 L2301.76 1455.28 L2293.45 1456.95 L2293.45 1452.69 L2301.72 1451.02 L2306.39 1451.02 L2306.39 1481.64 L2314.03 1481.64 L2314.03 1485.58 L2294.12 1485.58 L2294.12 1481.64 Z" fill="#000000" fill-rule="nonzero" fill-opacity="1" /><path clip-path="url(#clip070)" d="M2323.52 1451.02 L2341.88 1451.02 L2341.88 1454.96 L2327.8 1454.96 L2327.8 1463.43 Q2328.82 1463.08 2329.84 1462.92 Q2330.86 1462.73 2331.88 1462.73 Q2337.66 1462.73 2341.04 1465.9 Q2344.42 1469.08 2344.42 1474.49 Q2344.42 1480.07 2340.95 1483.17 Q2337.48 1486.25 2331.16 1486.25 Q2328.98 1486.25 2326.72 1485.88 Q2324.47 1485.51 2322.06 1484.77 L2322.06 1480.07 Q2324.15 1481.2 2326.37 1481.76 Q2328.59 1482.32 2331.07 1482.32 Q2335.07 1482.32 2337.41 1480.21 Q2339.75 1478.1 2339.75 1474.49 Q2339.75 1470.88 2337.41 1468.77 Q2335.07 1466.67 2331.07 1466.67 Q2329.19 1466.67 2327.32 1467.08 Q2325.47 1467.5 2323.52 1468.38 L2323.52 1451.02 Z" fill="#000000" fill-rule="nonzero" fill-opacity="1" /><path clip-path="url(#clip070)" d="M1004.68 1525.81 L1004.68 1562.76 L1012.45 1562.76 Q1022.28 1562.76 1026.83 1558.3 Q1031.42 1553.85 1031.42 1544.24 Q1031.42 1534.69 1026.83 1530.26 Q1022.28 1525.81 1012.45 1525.81 L1004.68 1525.81 M998.253 1520.52 L1011.46 1520.52 Q1025.28 1520.52 1031.74 1526.28 Q1038.2 1532.01 1038.2 1544.24 Q1038.2 1556.52 1031.7 1562.28 Q1025.21 1568.04 1011.46 1568.04 L998.253 1568.04 L998.253 1520.52 Z" fill="#000000" fill-rule="nonzero" fill-opacity="1" /><path clip-path="url(#clip070)" d="M1064.39 1550.12 Q1057.29 1550.12 1054.56 1551.75 Q1051.82 1553.37 1051.82 1557.29 Q1051.82 1560.4 1053.86 1562.25 Q1055.93 1564.07 1059.46 1564.07 Q1064.33 1564.07 1067.26 1560.63 Q1070.22 1557.16 1070.22 1551.43 L1070.22 1550.12 L1064.39 1550.12 M1076.07 1547.71 L1076.07 1568.04 L1070.22 1568.04 L1070.22 1562.63 Q1068.21 1565.88 1065.22 1567.44 Q1062.23 1568.97 1057.9 1568.97 Q1052.42 1568.97 1049.18 1565.91 Q1045.96 1562.82 1045.96 1557.67 Q1045.96 1551.65 1049.97 1548.6 Q1054.02 1545.54 1062.01 1545.54 L1070.22 1545.54 L1070.22 1544.97 Q1070.22 1540.93 1067.54 1538.73 Q1064.9 1536.5 1060.1 1536.5 Q1057.04 1536.5 1054.14 1537.23 Q1051.25 1537.97 1048.57 1539.43 L1048.57 1534.02 Q1051.79 1532.78 1054.81 1532.17 Q1057.84 1531.54 1060.7 1531.54 Q1068.43 1531.54 1072.25 1535.55 Q1076.07 1539.56 1076.07 1547.71 Z" fill="#000000" fill-rule="nonzero" fill-opacity="1" /><path clip-path="url(#clip070)" d="M1088.14 1532.4 L1093.99 1532.4 L1093.99 1568.04 L1088.14 1568.04 L1088.14 1532.4 M1088.14 1518.52 L1093.99 1518.52 L1093.99 1525.93 L1088.14 1525.93 L1088.14 1518.52 Z" fill="#000000" fill-rule="nonzero" fill-opacity="1" /><path clip-path="url(#clip070)" d="M1106.25 1518.52 L1112.1 1518.52 L1112.1 1568.04 L1106.25 1568.04 L1106.25 1518.52 Z" fill="#000000" fill-rule="nonzero" fill-opacity="1" /><path clip-path="url(#clip070)" d="M1139.19 1571.35 Q1136.71 1577.72 1134.35 1579.66 Q1132 1581.6 1128.05 1581.6 L1123.37 1581.6 L1123.37 1576.7 L1126.81 1576.7 Q1129.23 1576.7 1130.56 1575.56 Q1131.9 1574.41 1133.52 1570.14 L1134.57 1567.47 L1120.16 1532.4 L1126.36 1532.4 L1137.5 1560.28 L1148.64 1532.4 L1154.85 1532.4 L1139.19 1571.35 Z" fill="#000000" fill-rule="nonzero" fill-opacity="1" /><path clip-path="url(#clip070)" d="M1206.44 1545.76 Q1208.51 1546.46 1210.45 1548.76 Q1212.43 1551.05 1214.4 1555.06 L1220.93 1568.04 L1214.02 1568.04 L1207.94 1555.85 Q1205.58 1551.08 1203.36 1549.52 Q1201.16 1547.96 1197.34 1547.96 L1190.34 1547.96 L1190.34 1568.04 L1183.91 1568.04 L1183.91 1520.52 L1198.42 1520.52 Q1206.57 1520.52 1210.58 1523.93 Q1214.59 1527.34 1214.59 1534.21 Q1214.59 1538.7 1212.49 1541.66 Q1210.42 1544.62 1206.44 1545.76 M1190.34 1525.81 L1190.34 1542.68 L1198.42 1542.68 Q1203.07 1542.68 1205.42 1540.54 Q1207.81 1538.38 1207.81 1534.21 Q1207.81 1530.04 1205.42 1527.94 Q1203.07 1525.81 1198.42 1525.81 L1190.34 1525.81 Z" fill="#000000" fill-rule="nonzero" fill-opacity="1" /><path clip-path="url(#clip070)" d="M1256.51 1548.76 L1256.51 1551.62 L1229.58 1551.62 Q1229.96 1557.67 1233.21 1560.85 Q1236.49 1564 1242.31 1564 Q1245.69 1564 1248.84 1563.17 Q1252.02 1562.35 1255.14 1560.69 L1255.14 1566.23 Q1251.99 1567.57 1248.68 1568.27 Q1245.37 1568.97 1241.96 1568.97 Q1233.43 1568.97 1228.44 1564 Q1223.47 1559.04 1223.47 1550.57 Q1223.47 1541.82 1228.18 1536.69 Q1232.92 1531.54 1240.95 1531.54 Q1248.14 1531.54 1252.31 1536.18 Q1256.51 1540.8 1256.51 1548.76 M1250.65 1547.04 Q1250.59 1542.23 1247.95 1539.37 Q1245.34 1536.5 1241.01 1536.5 Q1236.11 1536.5 1233.15 1539.27 Q1230.22 1542.04 1229.77 1547.07 L1250.65 1547.04 Z" fill="#000000" fill-rule="nonzero" fill-opacity="1" /><path clip-path="url(#clip070)" d="M1271.91 1522.27 L1271.91 1532.4 L1283.98 1532.4 L1283.98 1536.95 L1271.91 1536.95 L1271.91 1556.3 Q1271.91 1560.66 1273.09 1561.9 Q1274.3 1563.14 1277.96 1563.14 L1283.98 1563.14 L1283.98 1568.04 L1277.96 1568.04 Q1271.18 1568.04 1268.6 1565.53 Q1266.03 1562.98 1266.03 1556.3 L1266.03 1536.95 L1261.73 1536.95 L1261.73 1532.4 L1266.03 1532.4 L1266.03 1522.27 L1271.91 1522.27 Z" fill="#000000" fill-rule="nonzero" fill-opacity="1" /><path clip-path="url(#clip070)" d="M1291.08 1553.98 L1291.08 1532.4 L1296.93 1532.4 L1296.93 1553.75 Q1296.93 1558.81 1298.91 1561.36 Q1300.88 1563.87 1304.83 1563.87 Q1309.57 1563.87 1312.3 1560.85 Q1315.07 1557.83 1315.07 1552.61 L1315.07 1532.4 L1320.93 1532.4 L1320.93 1568.04 L1315.07 1568.04 L1315.07 1562.57 Q1312.94 1565.82 1310.11 1567.41 Q1307.31 1568.97 1303.58 1568.97 Q1297.44 1568.97 1294.26 1565.15 Q1291.08 1561.33 1291.08 1553.98 M1305.81 1531.54 L1305.81 1531.54 Z" fill="#000000" fill-rule="nonzero" fill-opacity="1" /><path clip-path="url(#clip070)" d="M1353.65 1537.87 Q1352.66 1537.3 1351.49 1537.04 Q1350.34 1536.76 1348.94 1536.76 Q1343.97 1536.76 1341.3 1540 Q1338.66 1543.22 1338.66 1549.27 L1338.66 1568.04 L1332.77 1568.04 L1332.77 1532.4 L1338.66 1532.4 L1338.66 1537.93 Q1340.5 1534.69 1343.47 1533.13 Q1346.43 1531.54 1350.66 1531.54 Q1351.26 1531.54 1352 1531.63 Q1352.73 1531.7 1353.62 1531.85 L1353.65 1537.87 Z" fill="#000000" fill-rule="nonzero" fill-opacity="1" /><path clip-path="url(#clip070)" d="M1388.28 1546.53 L1388.28 1568.04 L1382.42 1568.04 L1382.42 1546.72 Q1382.42 1541.66 1380.45 1539.14 Q1378.48 1536.63 1374.53 1536.63 Q1369.79 1536.63 1367.05 1539.65 Q1364.31 1542.68 1364.31 1547.9 L1364.31 1568.04 L1358.42 1568.04 L1358.42 1532.4 L1364.31 1532.4 L1364.31 1537.93 Q1366.41 1534.72 1369.25 1533.13 Q1372.11 1531.54 1375.83 1531.54 Q1381.98 1531.54 1385.13 1535.36 Q1388.28 1539.14 1388.28 1546.53 Z" fill="#000000" fill-rule="nonzero" fill-opacity="1" /><path clip-path="url(#clip070)" d="M1416.7 1520.52 L1423.2 1520.52 L1433.19 1560.69 L1443.15 1520.52 L1450.38 1520.52 L1460.37 1560.69 L1470.33 1520.52 L1476.86 1520.52 L1464.92 1568.04 L1456.84 1568.04 L1446.81 1526.79 L1436.69 1568.04 L1428.61 1568.04 L1416.7 1520.52 Z" fill="#000000" fill-rule="nonzero" fill-opacity="1" /><path clip-path="url(#clip070)" d="M1485.39 1520.52 L1512.7 1520.52 L1512.7 1525.93 L1491.82 1525.93 L1491.82 1539.94 L1510.66 1539.94 L1510.66 1545.35 L1491.82 1545.35 L1491.82 1568.04 L1485.39 1568.04 L1485.39 1520.52 Z" fill="#000000" fill-rule="nonzero" fill-opacity="1" /><path clip-path="url(#clip070)" d="M1558.47 1524.18 L1558.47 1530.96 Q1555.22 1527.94 1551.53 1526.44 Q1547.87 1524.95 1543.73 1524.95 Q1535.58 1524.95 1531.25 1529.95 Q1526.92 1534.91 1526.92 1544.33 Q1526.92 1553.72 1531.25 1558.72 Q1535.58 1563.68 1543.73 1563.68 Q1547.87 1563.68 1551.53 1562.19 Q1555.22 1560.69 1558.47 1557.67 L1558.47 1564.38 Q1555.09 1566.68 1551.31 1567.82 Q1547.55 1568.97 1543.35 1568.97 Q1532.56 1568.97 1526.35 1562.38 Q1520.15 1555.76 1520.15 1544.33 Q1520.15 1532.87 1526.35 1526.28 Q1532.56 1519.66 1543.35 1519.66 Q1547.61 1519.66 1551.37 1520.81 Q1555.16 1521.92 1558.47 1524.18 Z" fill="#000000" fill-rule="nonzero" fill-opacity="1" /><polyline clip-path="url(#clip072)" style="stroke:#000000; stroke-linecap:round; stroke-linejoin:round; stroke-width:2; stroke-opacity:0.1; fill:none" points="203.964,1384.24 2352.76,1384.24 "/>
<polyline clip-path="url(#clip072)" style="stroke:#000000; stroke-linecap:round; stroke-linejoin:round; stroke-width:2; stroke-opacity:0.1; fill:none" points="203.964,1160.77 2352.76,1160.77 "/>
<polyline clip-path="url(#clip072)" style="stroke:#000000; stroke-linecap:round; stroke-linejoin:round; stroke-width:2; stroke-opacity:0.1; fill:none" points="203.964,937.298 2352.76,937.298 "/>
<polyline clip-path="url(#clip072)" style="stroke:#000000; stroke-linecap:round; stroke-linejoin:round; stroke-width:2; stroke-opacity:0.1; fill:none" points="203.964,713.828 2352.76,713.828 "/>
<polyline clip-path="url(#clip072)" style="stroke:#000000; stroke-linecap:round; stroke-linejoin:round; stroke-width:2; stroke-opacity:0.1; fill:none" points="203.964,490.358 2352.76,490.358 "/>
<polyline clip-path="url(#clip072)" style="stroke:#000000; stroke-linecap:round; stroke-linejoin:round; stroke-width:2; stroke-opacity:0.1; fill:none" points="203.964,266.888 2352.76,266.888 "/>
<polyline clip-path="url(#clip070)" style="stroke:#000000; stroke-linecap:round; stroke-linejoin:round; stroke-width:4; stroke-opacity:1; fill:none" points="203.964,1423.18 203.964,47.2441 "/>
<polyline clip-path="url(#clip070)" style="stroke:#000000; stroke-linecap:round; stroke-linejoin:round; stroke-width:4; stroke-opacity:1; fill:none" points="2352.76,1423.18 2352.76,47.2441 "/>
<polyline clip-path="url(#clip070)" style="stroke:#000000; stroke-linecap:round; stroke-linejoin:round; stroke-width:4; stroke-opacity:1; fill:none" points="203.964,1384.24 222.861,1384.24 "/>
<polyline clip-path="url(#clip070)" style="stroke:#000000; stroke-linecap:round; stroke-linejoin:round; stroke-width:4; stroke-opacity:1; fill:none" points="203.964,1160.77 222.861,1160.77 "/>
<polyline clip-path="url(#clip070)" style="stroke:#000000; stroke-linecap:round; stroke-linejoin:round; stroke-width:4; stroke-opacity:1; fill:none" points="203.964,937.298 222.861,937.298 "/>
<polyline clip-path="url(#clip070)" style="stroke:#000000; stroke-linecap:round; stroke-linejoin:round; stroke-width:4; stroke-opacity:1; fill:none" points="203.964,713.828 222.861,713.828 "/>
<polyline clip-path="url(#clip070)" style="stroke:#000000; stroke-linecap:round; stroke-linejoin:round; stroke-width:4; stroke-opacity:1; fill:none" points="203.964,490.358 222.861,490.358 "/>
<polyline clip-path="url(#clip070)" style="stroke:#000000; stroke-linecap:round; stroke-linejoin:round; stroke-width:4; stroke-opacity:1; fill:none" points="203.964,266.888 222.861,266.888 "/>
<path clip-path="url(#clip070)" d="M156.019 1370.04 Q152.408 1370.04 150.579 1373.6 Q148.774 1377.14 148.774 1384.27 Q148.774 1391.38 150.579 1394.94 Q152.408 1398.49 156.019 1398.49 Q159.653 1398.49 161.459 1394.94 Q163.288 1391.38 163.288 1384.27 Q163.288 1377.14 161.459 1373.6 Q159.653 1370.04 156.019 1370.04 M156.019 1366.33 Q161.829 1366.33 164.885 1370.94 Q167.964 1375.52 167.964 1384.27 Q167.964 1393 164.885 1397.61 Q161.829 1402.19 156.019 1402.19 Q150.209 1402.19 147.13 1397.61 Q144.075 1393 144.075 1384.27 Q144.075 1375.52 147.13 1370.94 Q150.209 1366.33 156.019 1366.33 Z" fill="#000000" fill-rule="nonzero" fill-opacity="1" /><path clip-path="url(#clip070)" d="M147.061 1143.49 L165.417 1143.49 L165.417 1147.42 L151.343 1147.42 L151.343 1155.9 Q152.362 1155.55 153.38 1155.39 Q154.399 1155.2 155.417 1155.2 Q161.204 1155.2 164.584 1158.37 Q167.964 1161.54 167.964 1166.96 Q167.964 1172.54 164.491 1175.64 Q161.019 1178.72 154.7 1178.72 Q152.524 1178.72 150.255 1178.35 Q148.01 1177.98 145.603 1177.24 L145.603 1172.54 Q147.686 1173.67 149.908 1174.23 Q152.13 1174.78 154.607 1174.78 Q158.612 1174.78 160.95 1172.68 Q163.288 1170.57 163.288 1166.96 Q163.288 1163.35 160.95 1161.24 Q158.612 1159.14 154.607 1159.14 Q152.732 1159.14 150.857 1159.55 Q149.005 1159.97 147.061 1160.85 L147.061 1143.49 Z" fill="#000000" fill-rule="nonzero" fill-opacity="1" /><path clip-path="url(#clip070)" d="M116.668 950.643 L124.306 950.643 L124.306 924.277 L115.996 925.944 L115.996 921.685 L124.26 920.018 L128.936 920.018 L128.936 950.643 L136.575 950.643 L136.575 954.578 L116.668 954.578 L116.668 950.643 Z" fill="#000000" fill-rule="nonzero" fill-opacity="1" /><path clip-path="url(#clip070)" d="M156.019 923.097 Q152.408 923.097 150.579 926.662 Q148.774 930.203 148.774 937.333 Q148.774 944.439 150.579 948.004 Q152.408 951.546 156.019 951.546 Q159.653 951.546 161.459 948.004 Q163.288 944.439 163.288 937.333 Q163.288 930.203 161.459 926.662 Q159.653 923.097 156.019 923.097 M156.019 919.393 Q161.829 919.393 164.885 924 Q167.964 928.583 167.964 937.333 Q167.964 946.06 164.885 950.666 Q161.829 955.249 156.019 955.249 Q150.209 955.249 147.13 950.666 Q144.075 946.06 144.075 937.333 Q144.075 928.583 147.13 924 Q150.209 919.393 156.019 919.393 Z" fill="#000000" fill-rule="nonzero" fill-opacity="1" /><path clip-path="url(#clip070)" d="M117.663 727.173 L125.302 727.173 L125.302 700.807 L116.992 702.474 L116.992 698.215 L125.255 696.548 L129.931 696.548 L129.931 727.173 L137.57 727.173 L137.57 731.108 L117.663 731.108 L117.663 727.173 Z" fill="#000000" fill-rule="nonzero" fill-opacity="1" /><path clip-path="url(#clip070)" d="M147.061 696.548 L165.417 696.548 L165.417 700.483 L151.343 700.483 L151.343 708.955 Q152.362 708.608 153.38 708.446 Q154.399 708.261 155.417 708.261 Q161.204 708.261 164.584 711.432 Q167.964 714.604 167.964 720.02 Q167.964 725.599 164.491 728.701 Q161.019 731.779 154.7 731.779 Q152.524 731.779 150.255 731.409 Q148.01 731.039 145.603 730.298 L145.603 725.599 Q147.686 726.733 149.908 727.289 Q152.13 727.844 154.607 727.844 Q158.612 727.844 160.95 725.738 Q163.288 723.631 163.288 720.02 Q163.288 716.409 160.95 714.303 Q158.612 712.196 154.607 712.196 Q152.732 712.196 150.857 712.613 Q149.005 713.029 147.061 713.909 L147.061 696.548 Z" fill="#000000" fill-rule="nonzero" fill-opacity="1" /><path clip-path="url(#clip070)" d="M119.885 503.703 L136.204 503.703 L136.204 507.638 L114.26 507.638 L114.26 503.703 Q116.922 500.948 121.505 496.319 Q126.112 491.666 127.292 490.323 Q129.538 487.8 130.417 486.064 Q131.32 484.305 131.32 482.615 Q131.32 479.86 129.376 478.124 Q127.455 476.388 124.353 476.388 Q122.154 476.388 119.7 477.152 Q117.269 477.916 114.492 479.467 L114.492 474.745 Q117.316 473.61 119.769 473.032 Q122.223 472.453 124.26 472.453 Q129.63 472.453 132.825 475.138 Q136.019 477.823 136.019 482.314 Q136.019 484.444 135.209 486.365 Q134.422 488.263 132.316 490.856 Q131.737 491.527 128.635 494.745 Q125.533 497.939 119.885 503.703 Z" fill="#000000" fill-rule="nonzero" fill-opacity="1" /><path clip-path="url(#clip070)" d="M156.019 476.157 Q152.408 476.157 150.579 479.722 Q148.774 483.263 148.774 490.393 Q148.774 497.499 150.579 501.064 Q152.408 504.606 156.019 504.606 Q159.653 504.606 161.459 501.064 Q163.288 497.499 163.288 490.393 Q163.288 483.263 161.459 479.722 Q159.653 476.157 156.019 476.157 M156.019 472.453 Q161.829 472.453 164.885 477.06 Q167.964 481.643 167.964 490.393 Q167.964 499.12 164.885 503.726 Q161.829 508.309 156.019 508.309 Q150.209 508.309 147.13 503.726 Q144.075 499.12 144.075 490.393 Q144.075 481.643 147.13 477.06 Q150.209 472.453 156.019 472.453 Z" fill="#000000" fill-rule="nonzero" fill-opacity="1" /><path clip-path="url(#clip070)" d="M120.88 280.233 L137.2 280.233 L137.2 284.168 L115.256 284.168 L115.256 280.233 Q117.918 277.478 122.501 272.849 Q127.107 268.196 128.288 266.853 Q130.533 264.33 131.413 262.594 Q132.316 260.835 132.316 259.145 Q132.316 256.39 130.371 254.654 Q128.45 252.918 125.348 252.918 Q123.149 252.918 120.695 253.682 Q118.265 254.446 115.487 255.997 L115.487 251.275 Q118.311 250.14 120.765 249.562 Q123.218 248.983 125.255 248.983 Q130.626 248.983 133.82 251.668 Q137.015 254.353 137.015 258.844 Q137.015 260.974 136.204 262.895 Q135.417 264.793 133.311 267.386 Q132.732 268.057 129.63 271.275 Q126.529 274.469 120.88 280.233 Z" fill="#000000" fill-rule="nonzero" fill-opacity="1" /><path clip-path="url(#clip070)" d="M147.061 249.608 L165.417 249.608 L165.417 253.543 L151.343 253.543 L151.343 262.015 Q152.362 261.668 153.38 261.506 Q154.399 261.321 155.417 261.321 Q161.204 261.321 164.584 264.492 Q167.964 267.663 167.964 273.08 Q167.964 278.659 164.491 281.761 Q161.019 284.839 154.7 284.839 Q152.524 284.839 150.255 284.469 Q148.01 284.099 145.603 283.358 L145.603 278.659 Q147.686 279.793 149.908 280.349 Q152.13 280.904 154.607 280.904 Q158.612 280.904 160.95 278.798 Q163.288 276.691 163.288 273.08 Q163.288 269.469 160.95 267.363 Q158.612 265.256 154.607 265.256 Q152.732 265.256 150.857 265.673 Q149.005 266.089 147.061 266.969 L147.061 249.608 Z" fill="#000000" fill-rule="nonzero" fill-opacity="1" /><path clip-path="url(#clip070)" d="M20.1444 791.071 L26.9239 791.071 Q23.9002 794.318 22.4043 798.01 Q20.9083 801.67 20.9083 805.808 Q20.9083 813.956 25.9054 818.284 Q30.8707 822.613 40.2919 822.613 Q49.6813 822.613 54.6784 818.284 Q59.6436 813.956 59.6436 805.808 Q59.6436 801.67 58.1477 798.01 Q56.6518 794.318 53.6281 791.071 L60.3439 791.071 Q62.6355 794.445 63.7814 798.232 Q64.9272 801.988 64.9272 806.19 Q64.9272 816.979 58.3387 823.186 Q51.7183 829.393 40.2919 829.393 Q28.8336 829.393 22.2451 823.186 Q15.6248 816.979 15.6248 806.19 Q15.6248 801.925 16.7706 798.169 Q17.8846 794.381 20.1444 791.071 Z" fill="#000000" fill-rule="nonzero" fill-opacity="1" /><path clip-path="url(#clip070)" d="M32.4621 767.582 Q32.4621 772.292 36.1542 775.029 Q39.8145 777.767 46.212 777.767 Q52.6095 777.767 56.3017 775.061 Q59.9619 772.324 59.9619 767.582 Q59.9619 762.903 56.2698 760.166 Q52.5777 757.428 46.212 757.428 Q39.8781 757.428 36.186 760.166 Q32.4621 762.903 32.4621 767.582 M27.4968 767.582 Q27.4968 759.943 32.4621 755.582 Q37.4273 751.222 46.212 751.222 Q54.9649 751.222 59.9619 755.582 Q64.9272 759.943 64.9272 767.582 Q64.9272 775.252 59.9619 779.613 Q54.9649 783.941 46.212 783.941 Q37.4273 783.941 32.4621 779.613 Q27.4968 775.252 27.4968 767.582 Z" fill="#000000" fill-rule="nonzero" fill-opacity="1" /><path clip-path="url(#clip070)" d="M49.9359 742.119 L28.3562 742.119 L28.3562 736.262 L49.7131 736.262 Q54.7739 736.262 57.3202 734.289 Q59.8346 732.316 59.8346 728.369 Q59.8346 723.626 56.8109 720.889 Q53.7872 718.12 48.5673 718.12 L28.3562 718.12 L28.3562 712.264 L64.0042 712.264 L64.0042 718.12 L58.5296 718.12 Q61.7762 720.253 63.3676 723.085 Q64.9272 725.886 64.9272 729.61 Q64.9272 735.753 61.1078 738.936 Q57.2883 742.119 49.9359 742.119 M27.4968 727.382 L27.4968 727.382 Z" fill="#000000" fill-rule="nonzero" fill-opacity="1" /><path clip-path="url(#clip070)" d="M42.4881 670.568 L64.0042 670.568 L64.0042 676.425 L42.679 676.425 Q37.6183 676.425 35.1038 678.398 Q32.5894 680.371 32.5894 684.318 Q32.5894 689.061 35.6131 691.798 Q38.6368 694.535 43.8567 694.535 L64.0042 694.535 L64.0042 700.423 L28.3562 700.423 L28.3562 694.535 L33.8944 694.535 Q30.6797 692.434 29.0883 689.602 Q27.4968 686.737 27.4968 683.013 Q27.4968 676.87 31.3163 673.719 Q35.1038 670.568 42.4881 670.568 Z" fill="#000000" fill-rule="nonzero" fill-opacity="1" /><path clip-path="url(#clip070)" d="M18.2347 653.094 L28.3562 653.094 L28.3562 641.031 L32.9077 641.031 L32.9077 653.094 L52.2594 653.094 Q56.6199 653.094 57.8613 651.917 Q59.1026 650.707 59.1026 647.047 L59.1026 641.031 L64.0042 641.031 L64.0042 647.047 Q64.0042 653.826 61.4897 656.405 Q58.9434 658.983 52.2594 658.983 L32.9077 658.983 L32.9077 663.279 L28.3562 663.279 L28.3562 658.983 L18.2347 658.983 L18.2347 653.094 Z" fill="#000000" fill-rule="nonzero" fill-opacity="1" /><path clip-path="url(#clip072)" d="M322.151 1375.35 L322.151 1384.24 L352.507 1384.24 L352.507 1375.35 L322.151 1375.35 L322.151 1375.35  Z" fill="#dddddd" fill-rule="evenodd" fill-opacity="1"/>
<polyline clip-path="url(#clip072)" style="stroke:#000000; stroke-linecap:round; stroke-linejoin:round; stroke-width:4; stroke-opacity:1; fill:none" points="322.151,1375.35 322.151,1384.24 352.507,1384.24 352.507,1375.35 322.151,1375.35 "/>
<path clip-path="url(#clip072)" d="M352.507 1384.24 L352.507 1384.24 L382.863 1384.24 L382.863 1384.24 L352.507 1384.24 L352.507 1384.24  Z" fill="#dddddd" fill-rule="evenodd" fill-opacity="1"/>
<polyline clip-path="url(#clip072)" style="stroke:#000000; stroke-linecap:round; stroke-linejoin:round; stroke-width:4; stroke-opacity:1; fill:none" points="352.507,1384.24 352.507,1384.24 382.863,1384.24 352.507,1384.24 "/>
<path clip-path="url(#clip072)" d="M382.863 1384.24 L382.863 1384.24 L413.218 1384.24 L413.218 1384.24 L382.863 1384.24 L382.863 1384.24  Z" fill="#dddddd" fill-rule="evenodd" fill-opacity="1"/>
<polyline clip-path="url(#clip072)" style="stroke:#000000; stroke-linecap:round; stroke-linejoin:round; stroke-width:4; stroke-opacity:1; fill:none" points="382.863,1384.24 382.863,1384.24 413.218,1384.24 382.863,1384.24 "/>
<path clip-path="url(#clip072)" d="M413.218 1384.24 L413.218 1384.24 L443.574 1384.24 L443.574 1384.24 L413.218 1384.24 L413.218 1384.24  Z" fill="#dddddd" fill-rule="evenodd" fill-opacity="1"/>
<polyline clip-path="url(#clip072)" style="stroke:#000000; stroke-linecap:round; stroke-linejoin:round; stroke-width:4; stroke-opacity:1; fill:none" points="413.218,1384.24 413.218,1384.24 443.574,1384.24 413.218,1384.24 "/>
<path clip-path="url(#clip072)" d="M443.574 1375.35 L443.574 1384.24 L473.93 1384.24 L473.93 1375.35 L443.574 1375.35 L443.574 1375.35  Z" fill="#dddddd" fill-rule="evenodd" fill-opacity="1"/>
<polyline clip-path="url(#clip072)" style="stroke:#000000; stroke-linecap:round; stroke-linejoin:round; stroke-width:4; stroke-opacity:1; fill:none" points="443.574,1375.35 443.574,1384.24 473.93,1384.24 473.93,1375.35 443.574,1375.35 "/>
<path clip-path="url(#clip072)" d="M473.93 1384.24 L473.93 1384.24 L504.286 1384.24 L504.286 1384.24 L473.93 1384.24 L473.93 1384.24  Z" fill="#dddddd" fill-rule="evenodd" fill-opacity="1"/>
<polyline clip-path="url(#clip072)" style="stroke:#000000; stroke-linecap:round; stroke-linejoin:round; stroke-width:4; stroke-opacity:1; fill:none" points="473.93,1384.24 473.93,1384.24 504.286,1384.24 473.93,1384.24 "/>
<path clip-path="url(#clip072)" d="M504.286 1384.24 L504.286 1384.24 L534.642 1384.24 L534.642 1384.24 L504.286 1384.24 L504.286 1384.24  Z" fill="#dddddd" fill-rule="evenodd" fill-opacity="1"/>
<polyline clip-path="url(#clip072)" style="stroke:#000000; stroke-linecap:round; stroke-linejoin:round; stroke-width:4; stroke-opacity:1; fill:none" points="504.286,1384.24 504.286,1384.24 534.642,1384.24 504.286,1384.24 "/>
<path clip-path="url(#clip072)" d="M534.642 1384.24 L534.642 1384.24 L564.998 1384.24 L564.998 1384.24 L534.642 1384.24 L534.642 1384.24  Z" fill="#dddddd" fill-rule="evenodd" fill-opacity="1"/>
<polyline clip-path="url(#clip072)" style="stroke:#000000; stroke-linecap:round; stroke-linejoin:round; stroke-width:4; stroke-opacity:1; fill:none" points="534.642,1384.24 534.642,1384.24 564.998,1384.24 534.642,1384.24 "/>
<path clip-path="url(#clip072)" d="M564.998 1375.35 L564.998 1384.24 L595.353 1384.24 L595.353 1375.35 L564.998 1375.35 L564.998 1375.35  Z" fill="#dddddd" fill-rule="evenodd" fill-opacity="1"/>
<polyline clip-path="url(#clip072)" style="stroke:#000000; stroke-linecap:round; stroke-linejoin:round; stroke-width:4; stroke-opacity:1; fill:none" points="564.998,1375.35 564.998,1384.24 595.353,1384.24 595.353,1375.35 564.998,1375.35 "/>
<path clip-path="url(#clip072)" d="M595.353 1384.24 L595.353 1384.24 L625.709 1384.24 L625.709 1384.24 L595.353 1384.24 L595.353 1384.24  Z" fill="#dddddd" fill-rule="evenodd" fill-opacity="1"/>
<polyline clip-path="url(#clip072)" style="stroke:#000000; stroke-linecap:round; stroke-linejoin:round; stroke-width:4; stroke-opacity:1; fill:none" points="595.353,1384.24 595.353,1384.24 625.709,1384.24 595.353,1384.24 "/>
<path clip-path="url(#clip072)" d="M625.709 1384.24 L625.709 1384.24 L656.065 1384.24 L656.065 1384.24 L625.709 1384.24 L625.709 1384.24  Z" fill="#dddddd" fill-rule="evenodd" fill-opacity="1"/>
<polyline clip-path="url(#clip072)" style="stroke:#000000; stroke-linecap:round; stroke-linejoin:round; stroke-width:4; stroke-opacity:1; fill:none" points="625.709,1384.24 625.709,1384.24 656.065,1384.24 625.709,1384.24 "/>
<path clip-path="url(#clip072)" d="M656.065 1384.24 L656.065 1384.24 L686.421 1384.24 L686.421 1384.24 L656.065 1384.24 L656.065 1384.24  Z" fill="#dddddd" fill-rule="evenodd" fill-opacity="1"/>
<polyline clip-path="url(#clip072)" style="stroke:#000000; stroke-linecap:round; stroke-linejoin:round; stroke-width:4; stroke-opacity:1; fill:none" points="656.065,1384.24 656.065,1384.24 686.421,1384.24 656.065,1384.24 "/>
<path clip-path="url(#clip072)" d="M686.421 1384.24 L686.421 1384.24 L716.777 1384.24 L716.777 1384.24 L686.421 1384.24 L686.421 1384.24  Z" fill="#dddddd" fill-rule="evenodd" fill-opacity="1"/>
<polyline clip-path="url(#clip072)" style="stroke:#000000; stroke-linecap:round; stroke-linejoin:round; stroke-width:4; stroke-opacity:1; fill:none" points="686.421,1384.24 686.421,1384.24 716.777,1384.24 686.421,1384.24 "/>
<path clip-path="url(#clip072)" d="M716.777 1384.24 L716.777 1384.24 L747.133 1384.24 L747.133 1384.24 L716.777 1384.24 L716.777 1384.24  Z" fill="#dddddd" fill-rule="evenodd" fill-opacity="1"/>
<polyline clip-path="url(#clip072)" style="stroke:#000000; stroke-linecap:round; stroke-linejoin:round; stroke-width:4; stroke-opacity:1; fill:none" points="716.777,1384.24 716.777,1384.24 747.133,1384.24 716.777,1384.24 "/>
<path clip-path="url(#clip072)" d="M747.133 1375.35 L747.133 1384.24 L777.488 1384.24 L777.488 1375.35 L747.133 1375.35 L747.133 1375.35  Z" fill="#dddddd" fill-rule="evenodd" fill-opacity="1"/>
<polyline clip-path="url(#clip072)" style="stroke:#000000; stroke-linecap:round; stroke-linejoin:round; stroke-width:4; stroke-opacity:1; fill:none" points="747.133,1375.35 747.133,1384.24 777.488,1384.24 777.488,1375.35 747.133,1375.35 "/>
<path clip-path="url(#clip072)" d="M777.488 1384.24 L777.488 1384.24 L807.844 1384.24 L807.844 1384.24 L777.488 1384.24 L777.488 1384.24  Z" fill="#dddddd" fill-rule="evenodd" fill-opacity="1"/>
<polyline clip-path="url(#clip072)" style="stroke:#000000; stroke-linecap:round; stroke-linejoin:round; stroke-width:4; stroke-opacity:1; fill:none" points="777.488,1384.24 777.488,1384.24 807.844,1384.24 777.488,1384.24 "/>
<path clip-path="url(#clip072)" d="M807.844 1375.35 L807.844 1384.24 L838.2 1384.24 L838.2 1375.35 L807.844 1375.35 L807.844 1375.35  Z" fill="#dddddd" fill-rule="evenodd" fill-opacity="1"/>
<polyline clip-path="url(#clip072)" style="stroke:#000000; stroke-linecap:round; stroke-linejoin:round; stroke-width:4; stroke-opacity:1; fill:none" points="807.844,1375.35 807.844,1384.24 838.2,1384.24 838.2,1375.35 807.844,1375.35 "/>
<path clip-path="url(#clip072)" d="M838.2 1384.24 L838.2 1384.24 L868.556 1384.24 L868.556 1384.24 L838.2 1384.24 L838.2 1384.24  Z" fill="#dddddd" fill-rule="evenodd" fill-opacity="1"/>
<polyline clip-path="url(#clip072)" style="stroke:#000000; stroke-linecap:round; stroke-linejoin:round; stroke-width:4; stroke-opacity:1; fill:none" points="838.2,1384.24 838.2,1384.24 868.556,1384.24 838.2,1384.24 "/>
<path clip-path="url(#clip072)" d="M868.556 1366.47 L868.556 1384.24 L898.912 1384.24 L898.912 1366.47 L868.556 1366.47 L868.556 1366.47  Z" fill="#dddddd" fill-rule="evenodd" fill-opacity="1"/>
<polyline clip-path="url(#clip072)" style="stroke:#000000; stroke-linecap:round; stroke-linejoin:round; stroke-width:4; stroke-opacity:1; fill:none" points="868.556,1366.47 868.556,1384.24 898.912,1384.24 898.912,1366.47 868.556,1366.47 "/>
<path clip-path="url(#clip072)" d="M898.912 1366.47 L898.912 1384.24 L929.268 1384.24 L929.268 1366.47 L898.912 1366.47 L898.912 1366.47  Z" fill="#dddddd" fill-rule="evenodd" fill-opacity="1"/>
<polyline clip-path="url(#clip072)" style="stroke:#000000; stroke-linecap:round; stroke-linejoin:round; stroke-width:4; stroke-opacity:1; fill:none" points="898.912,1366.47 898.912,1384.24 929.268,1384.24 929.268,1366.47 898.912,1366.47 "/>
<path clip-path="url(#clip072)" d="M929.268 1384.24 L929.268 1384.24 L959.623 1384.24 L959.623 1384.24 L929.268 1384.24 L929.268 1384.24  Z" fill="#dddddd" fill-rule="evenodd" fill-opacity="1"/>
<polyline clip-path="url(#clip072)" style="stroke:#000000; stroke-linecap:round; stroke-linejoin:round; stroke-width:4; stroke-opacity:1; fill:none" points="929.268,1384.24 929.268,1384.24 959.623,1384.24 929.268,1384.24 "/>
<path clip-path="url(#clip072)" d="M959.623 1375.35 L959.623 1384.24 L989.979 1384.24 L989.979 1375.35 L959.623 1375.35 L959.623 1375.35  Z" fill="#dddddd" fill-rule="evenodd" fill-opacity="1"/>
<polyline clip-path="url(#clip072)" style="stroke:#000000; stroke-linecap:round; stroke-linejoin:round; stroke-width:4; stroke-opacity:1; fill:none" points="959.623,1375.35 959.623,1384.24 989.979,1384.24 989.979,1375.35 959.623,1375.35 "/>
<path clip-path="url(#clip072)" d="M989.979 1330.93 L989.979 1384.24 L1020.34 1384.24 L1020.34 1330.93 L989.979 1330.93 L989.979 1330.93  Z" fill="#dddddd" fill-rule="evenodd" fill-opacity="1"/>
<polyline clip-path="url(#clip072)" style="stroke:#000000; stroke-linecap:round; stroke-linejoin:round; stroke-width:4; stroke-opacity:1; fill:none" points="989.979,1330.93 989.979,1384.24 1020.34,1384.24 1020.34,1330.93 989.979,1330.93 "/>
<path clip-path="url(#clip072)" d="M1020.34 1322.04 L1020.34 1384.24 L1050.69 1384.24 L1050.69 1322.04 L1020.34 1322.04 L1020.34 1322.04  Z" fill="#dddddd" fill-rule="evenodd" fill-opacity="1"/>
<polyline clip-path="url(#clip072)" style="stroke:#000000; stroke-linecap:round; stroke-linejoin:round; stroke-width:4; stroke-opacity:1; fill:none" points="1020.34,1322.04 1020.34,1384.24 1050.69,1384.24 1050.69,1322.04 1020.34,1322.04 "/>
<path clip-path="url(#clip072)" d="M1050.69 1339.81 L1050.69 1384.24 L1081.05 1384.24 L1081.05 1339.81 L1050.69 1339.81 L1050.69 1339.81  Z" fill="#dddddd" fill-rule="evenodd" fill-opacity="1"/>
<polyline clip-path="url(#clip072)" style="stroke:#000000; stroke-linecap:round; stroke-linejoin:round; stroke-width:4; stroke-opacity:1; fill:none" points="1050.69,1339.81 1050.69,1384.24 1081.05,1384.24 1081.05,1339.81 1050.69,1339.81 "/>
<path clip-path="url(#clip072)" d="M1081.05 1313.15 L1081.05 1384.24 L1111.4 1384.24 L1111.4 1313.15 L1081.05 1313.15 L1081.05 1313.15  Z" fill="#dddddd" fill-rule="evenodd" fill-opacity="1"/>
<polyline clip-path="url(#clip072)" style="stroke:#000000; stroke-linecap:round; stroke-linejoin:round; stroke-width:4; stroke-opacity:1; fill:none" points="1081.05,1313.15 1081.05,1384.24 1111.4,1384.24 1111.4,1313.15 1081.05,1313.15 "/>
<path clip-path="url(#clip072)" d="M1111.4 1295.38 L1111.4 1384.24 L1141.76 1384.24 L1141.76 1295.38 L1111.4 1295.38 L1111.4 1295.38  Z" fill="#dddddd" fill-rule="evenodd" fill-opacity="1"/>
<polyline clip-path="url(#clip072)" style="stroke:#000000; stroke-linecap:round; stroke-linejoin:round; stroke-width:4; stroke-opacity:1; fill:none" points="1111.4,1295.38 1111.4,1384.24 1141.76,1384.24 1141.76,1295.38 1111.4,1295.38 "/>
<path clip-path="url(#clip072)" d="M1141.76 1259.84 L1141.76 1384.24 L1172.11 1384.24 L1172.11 1259.84 L1141.76 1259.84 L1141.76 1259.84  Z" fill="#dddddd" fill-rule="evenodd" fill-opacity="1"/>
<polyline clip-path="url(#clip072)" style="stroke:#000000; stroke-linecap:round; stroke-linejoin:round; stroke-width:4; stroke-opacity:1; fill:none" points="1141.76,1259.84 1141.76,1384.24 1172.11,1384.24 1172.11,1259.84 1141.76,1259.84 "/>
<path clip-path="url(#clip072)" d="M1172.11 1233.18 L1172.11 1384.24 L1202.47 1384.24 L1202.47 1233.18 L1172.11 1233.18 L1172.11 1233.18  Z" fill="#dddddd" fill-rule="evenodd" fill-opacity="1"/>
<polyline clip-path="url(#clip072)" style="stroke:#000000; stroke-linecap:round; stroke-linejoin:round; stroke-width:4; stroke-opacity:1; fill:none" points="1172.11,1233.18 1172.11,1384.24 1202.47,1384.24 1202.47,1233.18 1172.11,1233.18 "/>
<path clip-path="url(#clip072)" d="M1202.47 1028.82 L1202.47 1384.24 L1232.83 1384.24 L1232.83 1028.82 L1202.47 1028.82 L1202.47 1028.82  Z" fill="#dddddd" fill-rule="evenodd" fill-opacity="1"/>
<polyline clip-path="url(#clip072)" style="stroke:#000000; stroke-linecap:round; stroke-linejoin:round; stroke-width:4; stroke-opacity:1; fill:none" points="1202.47,1028.82 1202.47,1384.24 1232.83,1384.24 1232.83,1028.82 1202.47,1028.82 "/>
<path clip-path="url(#clip072)" d="M1232.83 1055.48 L1232.83 1384.24 L1263.18 1384.24 L1263.18 1055.48 L1232.83 1055.48 L1232.83 1055.48  Z" fill="#dddddd" fill-rule="evenodd" fill-opacity="1"/>
<polyline clip-path="url(#clip072)" style="stroke:#000000; stroke-linecap:round; stroke-linejoin:round; stroke-width:4; stroke-opacity:1; fill:none" points="1232.83,1055.48 1232.83,1384.24 1263.18,1384.24 1263.18,1055.48 1232.83,1055.48 "/>
<path clip-path="url(#clip072)" d="M1263.18 922.193 L1263.18 1384.24 L1293.54 1384.24 L1293.54 922.193 L1263.18 922.193 L1263.18 922.193  Z" fill="#dddddd" fill-rule="evenodd" fill-opacity="1"/>
<polyline clip-path="url(#clip072)" style="stroke:#000000; stroke-linecap:round; stroke-linejoin:round; stroke-width:4; stroke-opacity:1; fill:none" points="1263.18,922.193 1263.18,1384.24 1293.54,1384.24 1293.54,922.193 1263.18,922.193 "/>
<path clip-path="url(#clip072)" d="M1293.54 682.285 L1293.54 1384.24 L1323.89 1384.24 L1323.89 682.285 L1293.54 682.285 L1293.54 682.285  Z" fill="#dddddd" fill-rule="evenodd" fill-opacity="1"/>
<polyline clip-path="url(#clip072)" style="stroke:#000000; stroke-linecap:round; stroke-linejoin:round; stroke-width:4; stroke-opacity:1; fill:none" points="1293.54,682.285 1293.54,1384.24 1323.89,1384.24 1323.89,682.285 1293.54,682.285 "/>
<path clip-path="url(#clip072)" d="M1323.89 540.117 L1323.89 1384.24 L1354.25 1384.24 L1354.25 540.117 L1323.89 540.117 L1323.89 540.117  Z" fill="#dddddd" fill-rule="evenodd" fill-opacity="1"/>
<polyline clip-path="url(#clip072)" style="stroke:#000000; stroke-linecap:round; stroke-linejoin:round; stroke-width:4; stroke-opacity:1; fill:none" points="1323.89,540.117 1323.89,1384.24 1354.25,1384.24 1354.25,540.117 1323.89,540.117 "/>
<path clip-path="url(#clip072)" d="M1354.25 282.438 L1354.25 1384.24 L1384.61 1384.24 L1384.61 282.438 L1354.25 282.438 L1354.25 282.438  Z" fill="#dddddd" fill-rule="evenodd" fill-opacity="1"/>
<polyline clip-path="url(#clip072)" style="stroke:#000000; stroke-linecap:round; stroke-linejoin:round; stroke-width:4; stroke-opacity:1; fill:none" points="1354.25,282.438 1354.25,1384.24 1384.61,1384.24 1384.61,282.438 1354.25,282.438 "/>
<path clip-path="url(#clip072)" d="M1384.61 282.438 L1384.61 1384.24 L1414.96 1384.24 L1414.96 282.438 L1384.61 282.438 L1384.61 282.438  Z" fill="#dddddd" fill-rule="evenodd" fill-opacity="1"/>
<polyline clip-path="url(#clip072)" style="stroke:#000000; stroke-linecap:round; stroke-linejoin:round; stroke-width:4; stroke-opacity:1; fill:none" points="1384.61,282.438 1384.61,1384.24 1414.96,1384.24 1414.96,282.438 1384.61,282.438 "/>
<path clip-path="url(#clip072)" d="M1414.96 442.376 L1414.96 1384.24 L1445.32 1384.24 L1445.32 442.376 L1414.96 442.376 L1414.96 442.376  Z" fill="#dddddd" fill-rule="evenodd" fill-opacity="1"/>
<polyline clip-path="url(#clip072)" style="stroke:#000000; stroke-linecap:round; stroke-linejoin:round; stroke-width:4; stroke-opacity:1; fill:none" points="1414.96,442.376 1414.96,1384.24 1445.32,1384.24 1445.32,442.376 1414.96,442.376 "/>
<path clip-path="url(#clip072)" d="M1445.32 771.14 L1445.32 1384.24 L1475.67 1384.24 L1475.67 771.14 L1445.32 771.14 L1445.32 771.14  Z" fill="#dddddd" fill-rule="evenodd" fill-opacity="1"/>
<polyline clip-path="url(#clip072)" style="stroke:#000000; stroke-linecap:round; stroke-linejoin:round; stroke-width:4; stroke-opacity:1; fill:none" points="1445.32,771.14 1445.32,1384.24 1475.67,1384.24 1475.67,771.14 1445.32,771.14 "/>
<path clip-path="url(#clip072)" d="M1475.67 966.62 L1475.67 1384.24 L1506.03 1384.24 L1506.03 966.62 L1475.67 966.62 L1475.67 966.62  Z" fill="#dddddd" fill-rule="evenodd" fill-opacity="1"/>
<polyline clip-path="url(#clip072)" style="stroke:#000000; stroke-linecap:round; stroke-linejoin:round; stroke-width:4; stroke-opacity:1; fill:none" points="1475.67,966.62 1475.67,1384.24 1506.03,1384.24 1506.03,966.62 1475.67,966.62 "/>
<path clip-path="url(#clip072)" d="M1506.03 922.193 L1506.03 1384.24 L1536.38 1384.24 L1536.38 922.193 L1506.03 922.193 L1506.03 922.193  Z" fill="#dddddd" fill-rule="evenodd" fill-opacity="1"/>
<polyline clip-path="url(#clip072)" style="stroke:#000000; stroke-linecap:round; stroke-linejoin:round; stroke-width:4; stroke-opacity:1; fill:none" points="1506.03,922.193 1506.03,1384.24 1536.38,1384.24 1536.38,922.193 1506.03,922.193 "/>
<path clip-path="url(#clip072)" d="M1536.38 1126.56 L1536.38 1384.24 L1566.74 1384.24 L1566.74 1126.56 L1536.38 1126.56 L1536.38 1126.56  Z" fill="#dddddd" fill-rule="evenodd" fill-opacity="1"/>
<polyline clip-path="url(#clip072)" style="stroke:#000000; stroke-linecap:round; stroke-linejoin:round; stroke-width:4; stroke-opacity:1; fill:none" points="1536.38,1126.56 1536.38,1384.24 1566.74,1384.24 1566.74,1126.56 1536.38,1126.56 "/>
<path clip-path="url(#clip072)" d="M1566.74 1242.07 L1566.74 1384.24 L1597.1 1384.24 L1597.1 1242.07 L1566.74 1242.07 L1566.74 1242.07  Z" fill="#dddddd" fill-rule="evenodd" fill-opacity="1"/>
<polyline clip-path="url(#clip072)" style="stroke:#000000; stroke-linecap:round; stroke-linejoin:round; stroke-width:4; stroke-opacity:1; fill:none" points="1566.74,1242.07 1566.74,1384.24 1597.1,1384.24 1597.1,1242.07 1566.74,1242.07 "/>
<path clip-path="url(#clip072)" d="M1597.1 1250.96 L1597.1 1384.24 L1627.45 1384.24 L1627.45 1250.96 L1597.1 1250.96 L1597.1 1250.96  Z" fill="#dddddd" fill-rule="evenodd" fill-opacity="1"/>
<polyline clip-path="url(#clip072)" style="stroke:#000000; stroke-linecap:round; stroke-linejoin:round; stroke-width:4; stroke-opacity:1; fill:none" points="1597.1,1250.96 1597.1,1384.24 1627.45,1384.24 1627.45,1250.96 1597.1,1250.96 "/>
<path clip-path="url(#clip072)" d="M1627.45 1304.27 L1627.45 1384.24 L1657.81 1384.24 L1657.81 1304.27 L1627.45 1304.27 L1627.45 1304.27  Z" fill="#dddddd" fill-rule="evenodd" fill-opacity="1"/>
<polyline clip-path="url(#clip072)" style="stroke:#000000; stroke-linecap:round; stroke-linejoin:round; stroke-width:4; stroke-opacity:1; fill:none" points="1627.45,1304.27 1627.45,1384.24 1657.81,1384.24 1657.81,1304.27 1627.45,1304.27 "/>
<path clip-path="url(#clip072)" d="M1657.81 1330.93 L1657.81 1384.24 L1688.16 1384.24 L1688.16 1330.93 L1657.81 1330.93 L1657.81 1330.93  Z" fill="#dddddd" fill-rule="evenodd" fill-opacity="1"/>
<polyline clip-path="url(#clip072)" style="stroke:#000000; stroke-linecap:round; stroke-linejoin:round; stroke-width:4; stroke-opacity:1; fill:none" points="1657.81,1330.93 1657.81,1384.24 1688.16,1384.24 1688.16,1330.93 1657.81,1330.93 "/>
<path clip-path="url(#clip072)" d="M1688.16 1313.15 L1688.16 1384.24 L1718.52 1384.24 L1718.52 1313.15 L1688.16 1313.15 L1688.16 1313.15  Z" fill="#dddddd" fill-rule="evenodd" fill-opacity="1"/>
<polyline clip-path="url(#clip072)" style="stroke:#000000; stroke-linecap:round; stroke-linejoin:round; stroke-width:4; stroke-opacity:1; fill:none" points="1688.16,1313.15 1688.16,1384.24 1718.52,1384.24 1718.52,1313.15 1688.16,1313.15 "/>
<path clip-path="url(#clip072)" d="M1718.52 1348.7 L1718.52 1384.24 L1748.88 1384.24 L1748.88 1348.7 L1718.52 1348.7 L1718.52 1348.7  Z" fill="#dddddd" fill-rule="evenodd" fill-opacity="1"/>
<polyline clip-path="url(#clip072)" style="stroke:#000000; stroke-linecap:round; stroke-linejoin:round; stroke-width:4; stroke-opacity:1; fill:none" points="1718.52,1348.7 1718.52,1384.24 1748.88,1384.24 1748.88,1348.7 1718.52,1348.7 "/>
<path clip-path="url(#clip072)" d="M1748.88 1357.58 L1748.88 1384.24 L1779.23 1384.24 L1779.23 1357.58 L1748.88 1357.58 L1748.88 1357.58  Z" fill="#dddddd" fill-rule="evenodd" fill-opacity="1"/>
<polyline clip-path="url(#clip072)" style="stroke:#000000; stroke-linecap:round; stroke-linejoin:round; stroke-width:4; stroke-opacity:1; fill:none" points="1748.88,1357.58 1748.88,1384.24 1779.23,1384.24 1779.23,1357.58 1748.88,1357.58 "/>
<path clip-path="url(#clip072)" d="M1779.23 1357.58 L1779.23 1384.24 L1809.59 1384.24 L1809.59 1357.58 L1779.23 1357.58 L1779.23 1357.58  Z" fill="#dddddd" fill-rule="evenodd" fill-opacity="1"/>
<polyline clip-path="url(#clip072)" style="stroke:#000000; stroke-linecap:round; stroke-linejoin:round; stroke-width:4; stroke-opacity:1; fill:none" points="1779.23,1357.58 1779.23,1384.24 1809.59,1384.24 1809.59,1357.58 1779.23,1357.58 "/>
<path clip-path="url(#clip072)" d="M1809.59 1375.35 L1809.59 1384.24 L1839.94 1384.24 L1839.94 1375.35 L1809.59 1375.35 L1809.59 1375.35  Z" fill="#dddddd" fill-rule="evenodd" fill-opacity="1"/>
<polyline clip-path="url(#clip072)" style="stroke:#000000; stroke-linecap:round; stroke-linejoin:round; stroke-width:4; stroke-opacity:1; fill:none" points="1809.59,1375.35 1809.59,1384.24 1839.94,1384.24 1839.94,1375.35 1809.59,1375.35 "/>
<path clip-path="url(#clip072)" d="M1839.94 1375.35 L1839.94 1384.24 L1870.3 1384.24 L1870.3 1375.35 L1839.94 1375.35 L1839.94 1375.35  Z" fill="#dddddd" fill-rule="evenodd" fill-opacity="1"/>
<polyline clip-path="url(#clip072)" style="stroke:#000000; stroke-linecap:round; stroke-linejoin:round; stroke-width:4; stroke-opacity:1; fill:none" points="1839.94,1375.35 1839.94,1384.24 1870.3,1384.24 1870.3,1375.35 1839.94,1375.35 "/>
<path clip-path="url(#clip072)" d="M1870.3 1357.58 L1870.3 1384.24 L1900.65 1384.24 L1900.65 1357.58 L1870.3 1357.58 L1870.3 1357.58  Z" fill="#dddddd" fill-rule="evenodd" fill-opacity="1"/>
<polyline clip-path="url(#clip072)" style="stroke:#000000; stroke-linecap:round; stroke-linejoin:round; stroke-width:4; stroke-opacity:1; fill:none" points="1870.3,1357.58 1870.3,1384.24 1900.65,1384.24 1900.65,1357.58 1870.3,1357.58 "/>
<path clip-path="url(#clip072)" d="M1900.65 1375.35 L1900.65 1384.24 L1931.01 1384.24 L1931.01 1375.35 L1900.65 1375.35 L1900.65 1375.35  Z" fill="#dddddd" fill-rule="evenodd" fill-opacity="1"/>
<polyline clip-path="url(#clip072)" style="stroke:#000000; stroke-linecap:round; stroke-linejoin:round; stroke-width:4; stroke-opacity:1; fill:none" points="1900.65,1375.35 1900.65,1384.24 1931.01,1384.24 1931.01,1375.35 1900.65,1375.35 "/>
<path clip-path="url(#clip072)" d="M1931.01 1375.35 L1931.01 1384.24 L1961.37 1384.24 L1961.37 1375.35 L1931.01 1375.35 L1931.01 1375.35  Z" fill="#dddddd" fill-rule="evenodd" fill-opacity="1"/>
<polyline clip-path="url(#clip072)" style="stroke:#000000; stroke-linecap:round; stroke-linejoin:round; stroke-width:4; stroke-opacity:1; fill:none" points="1931.01,1375.35 1931.01,1384.24 1961.37,1384.24 1961.37,1375.35 1931.01,1375.35 "/>
<path clip-path="url(#clip072)" d="M1961.37 1384.24 L1961.37 1384.24 L1991.72 1384.24 L1991.72 1384.24 L1961.37 1384.24 L1961.37 1384.24  Z" fill="#dddddd" fill-rule="evenodd" fill-opacity="1"/>
<polyline clip-path="url(#clip072)" style="stroke:#000000; stroke-linecap:round; stroke-linejoin:round; stroke-width:4; stroke-opacity:1; fill:none" points="1961.37,1384.24 1961.37,1384.24 1991.72,1384.24 1961.37,1384.24 "/>
<path clip-path="url(#clip072)" d="M1991.72 1375.35 L1991.72 1384.24 L2022.08 1384.24 L2022.08 1375.35 L1991.72 1375.35 L1991.72 1375.35  Z" fill="#dddddd" fill-rule="evenodd" fill-opacity="1"/>
<polyline clip-path="url(#clip072)" style="stroke:#000000; stroke-linecap:round; stroke-linejoin:round; stroke-width:4; stroke-opacity:1; fill:none" points="1991.72,1375.35 1991.72,1384.24 2022.08,1384.24 2022.08,1375.35 1991.72,1375.35 "/>
<path clip-path="url(#clip072)" d="M2022.08 1384.24 L2022.08 1384.24 L2052.43 1384.24 L2052.43 1384.24 L2022.08 1384.24 L2022.08 1384.24  Z" fill="#dddddd" fill-rule="evenodd" fill-opacity="1"/>
<polyline clip-path="url(#clip072)" style="stroke:#000000; stroke-linecap:round; stroke-linejoin:round; stroke-width:4; stroke-opacity:1; fill:none" points="2022.08,1384.24 2022.08,1384.24 2052.43,1384.24 2022.08,1384.24 "/>
<path clip-path="url(#clip072)" d="M2052.43 1375.35 L2052.43 1384.24 L2082.79 1384.24 L2082.79 1375.35 L2052.43 1375.35 L2052.43 1375.35  Z" fill="#dddddd" fill-rule="evenodd" fill-opacity="1"/>
<polyline clip-path="url(#clip072)" style="stroke:#000000; stroke-linecap:round; stroke-linejoin:round; stroke-width:4; stroke-opacity:1; fill:none" points="2052.43,1375.35 2052.43,1384.24 2082.79,1384.24 2082.79,1375.35 2052.43,1375.35 "/>
<path clip-path="url(#clip072)" d="M2082.79 1384.24 L2082.79 1384.24 L2113.15 1384.24 L2113.15 1384.24 L2082.79 1384.24 L2082.79 1384.24  Z" fill="#dddddd" fill-rule="evenodd" fill-opacity="1"/>
<polyline clip-path="url(#clip072)" style="stroke:#000000; stroke-linecap:round; stroke-linejoin:round; stroke-width:4; stroke-opacity:1; fill:none" points="2082.79,1384.24 2082.79,1384.24 2113.15,1384.24 2082.79,1384.24 "/>
<path clip-path="url(#clip072)" d="M2113.15 1384.24 L2113.15 1384.24 L2143.5 1384.24 L2143.5 1384.24 L2113.15 1384.24 L2113.15 1384.24  Z" fill="#dddddd" fill-rule="evenodd" fill-opacity="1"/>
<polyline clip-path="url(#clip072)" style="stroke:#000000; stroke-linecap:round; stroke-linejoin:round; stroke-width:4; stroke-opacity:1; fill:none" points="2113.15,1384.24 2113.15,1384.24 2143.5,1384.24 2113.15,1384.24 "/>
<path clip-path="url(#clip072)" d="M2143.5 1375.35 L2143.5 1384.24 L2173.86 1384.24 L2173.86 1375.35 L2143.5 1375.35 L2143.5 1375.35  Z" fill="#dddddd" fill-rule="evenodd" fill-opacity="1"/>
<polyline clip-path="url(#clip072)" style="stroke:#000000; stroke-linecap:round; stroke-linejoin:round; stroke-width:4; stroke-opacity:1; fill:none" points="2143.5,1375.35 2143.5,1384.24 2173.86,1384.24 2173.86,1375.35 2143.5,1375.35 "/>
<path clip-path="url(#clip072)" d="M2173.86 1384.24 L2173.86 1384.24 L2204.21 1384.24 L2204.21 1384.24 L2173.86 1384.24 L2173.86 1384.24  Z" fill="#dddddd" fill-rule="evenodd" fill-opacity="1"/>
<polyline clip-path="url(#clip072)" style="stroke:#000000; stroke-linecap:round; stroke-linejoin:round; stroke-width:4; stroke-opacity:1; fill:none" points="2173.86,1384.24 2173.86,1384.24 2204.21,1384.24 2173.86,1384.24 "/>
<path clip-path="url(#clip072)" d="M2204.21 1375.35 L2204.21 1384.24 L2234.57 1384.24 L2234.57 1375.35 L2204.21 1375.35 L2204.21 1375.35  Z" fill="#dddddd" fill-rule="evenodd" fill-opacity="1"/>
<polyline clip-path="url(#clip072)" style="stroke:#000000; stroke-linecap:round; stroke-linejoin:round; stroke-width:4; stroke-opacity:1; fill:none" points="2204.21,1375.35 2204.21,1384.24 2234.57,1384.24 2234.57,1375.35 2204.21,1375.35 "/>
<circle clip-path="url(#clip072)" style="fill:#dddddd; stroke:none; fill-opacity:0" cx="337.329" cy="1375.35" r="2"/>
<circle clip-path="url(#clip072)" style="fill:#dddddd; stroke:none; fill-opacity:0" cx="367.685" cy="1384.24" r="2"/>
<circle clip-path="url(#clip072)" style="fill:#dddddd; stroke:none; fill-opacity:0" cx="398.041" cy="1384.24" r="2"/>
<circle clip-path="url(#clip072)" style="fill:#dddddd; stroke:none; fill-opacity:0" cx="428.396" cy="1384.24" r="2"/>
<circle clip-path="url(#clip072)" style="fill:#dddddd; stroke:none; fill-opacity:0" cx="458.752" cy="1375.35" r="2"/>
<circle clip-path="url(#clip072)" style="fill:#dddddd; stroke:none; fill-opacity:0" cx="489.108" cy="1384.24" r="2"/>
<circle clip-path="url(#clip072)" style="fill:#dddddd; stroke:none; fill-opacity:0" cx="519.464" cy="1384.24" r="2"/>
<circle clip-path="url(#clip072)" style="fill:#dddddd; stroke:none; fill-opacity:0" cx="549.82" cy="1384.24" r="2"/>
<circle clip-path="url(#clip072)" style="fill:#dddddd; stroke:none; fill-opacity:0" cx="580.176" cy="1375.35" r="2"/>
<circle clip-path="url(#clip072)" style="fill:#dddddd; stroke:none; fill-opacity:0" cx="610.531" cy="1384.24" r="2"/>
<circle clip-path="url(#clip072)" style="fill:#dddddd; stroke:none; fill-opacity:0" cx="640.887" cy="1384.24" r="2"/>
<circle clip-path="url(#clip072)" style="fill:#dddddd; stroke:none; fill-opacity:0" cx="671.243" cy="1384.24" r="2"/>
<circle clip-path="url(#clip072)" style="fill:#dddddd; stroke:none; fill-opacity:0" cx="701.599" cy="1384.24" r="2"/>
<circle clip-path="url(#clip072)" style="fill:#dddddd; stroke:none; fill-opacity:0" cx="731.955" cy="1384.24" r="2"/>
<circle clip-path="url(#clip072)" style="fill:#dddddd; stroke:none; fill-opacity:0" cx="762.311" cy="1375.35" r="2"/>
<circle clip-path="url(#clip072)" style="fill:#dddddd; stroke:none; fill-opacity:0" cx="792.666" cy="1384.24" r="2"/>
<circle clip-path="url(#clip072)" style="fill:#dddddd; stroke:none; fill-opacity:0" cx="823.022" cy="1375.35" r="2"/>
<circle clip-path="url(#clip072)" style="fill:#dddddd; stroke:none; fill-opacity:0" cx="853.378" cy="1384.24" r="2"/>
<circle clip-path="url(#clip072)" style="fill:#dddddd; stroke:none; fill-opacity:0" cx="883.734" cy="1366.47" r="2"/>
<circle clip-path="url(#clip072)" style="fill:#dddddd; stroke:none; fill-opacity:0" cx="914.09" cy="1366.47" r="2"/>
<circle clip-path="url(#clip072)" style="fill:#dddddd; stroke:none; fill-opacity:0" cx="944.446" cy="1384.24" r="2"/>
<circle clip-path="url(#clip072)" style="fill:#dddddd; stroke:none; fill-opacity:0" cx="974.801" cy="1375.35" r="2"/>
<circle clip-path="url(#clip072)" style="fill:#dddddd; stroke:none; fill-opacity:0" cx="1005.16" cy="1330.93" r="2"/>
<circle clip-path="url(#clip072)" style="fill:#dddddd; stroke:none; fill-opacity:0" cx="1035.51" cy="1322.04" r="2"/>
<circle clip-path="url(#clip072)" style="fill:#dddddd; stroke:none; fill-opacity:0" cx="1065.87" cy="1339.81" r="2"/>
<circle clip-path="url(#clip072)" style="fill:#dddddd; stroke:none; fill-opacity:0" cx="1096.22" cy="1313.15" r="2"/>
<circle clip-path="url(#clip072)" style="fill:#dddddd; stroke:none; fill-opacity:0" cx="1126.58" cy="1295.38" r="2"/>
<circle clip-path="url(#clip072)" style="fill:#dddddd; stroke:none; fill-opacity:0" cx="1156.94" cy="1259.84" r="2"/>
<circle clip-path="url(#clip072)" style="fill:#dddddd; stroke:none; fill-opacity:0" cx="1187.29" cy="1233.18" r="2"/>
<circle clip-path="url(#clip072)" style="fill:#dddddd; stroke:none; fill-opacity:0" cx="1217.65" cy="1028.82" r="2"/>
<circle clip-path="url(#clip072)" style="fill:#dddddd; stroke:none; fill-opacity:0" cx="1248" cy="1055.48" r="2"/>
<circle clip-path="url(#clip072)" style="fill:#dddddd; stroke:none; fill-opacity:0" cx="1278.36" cy="922.193" r="2"/>
<circle clip-path="url(#clip072)" style="fill:#dddddd; stroke:none; fill-opacity:0" cx="1308.72" cy="682.285" r="2"/>
<circle clip-path="url(#clip072)" style="fill:#dddddd; stroke:none; fill-opacity:0" cx="1339.07" cy="540.117" r="2"/>
<circle clip-path="url(#clip072)" style="fill:#dddddd; stroke:none; fill-opacity:0" cx="1369.43" cy="282.438" r="2"/>
<circle clip-path="url(#clip072)" style="fill:#dddddd; stroke:none; fill-opacity:0" cx="1399.78" cy="282.438" r="2"/>
<circle clip-path="url(#clip072)" style="fill:#dddddd; stroke:none; fill-opacity:0" cx="1430.14" cy="442.376" r="2"/>
<circle clip-path="url(#clip072)" style="fill:#dddddd; stroke:none; fill-opacity:0" cx="1460.49" cy="771.14" r="2"/>
<circle clip-path="url(#clip072)" style="fill:#dddddd; stroke:none; fill-opacity:0" cx="1490.85" cy="966.62" r="2"/>
<circle clip-path="url(#clip072)" style="fill:#dddddd; stroke:none; fill-opacity:0" cx="1521.21" cy="922.193" r="2"/>
<circle clip-path="url(#clip072)" style="fill:#dddddd; stroke:none; fill-opacity:0" cx="1551.56" cy="1126.56" r="2"/>
<circle clip-path="url(#clip072)" style="fill:#dddddd; stroke:none; fill-opacity:0" cx="1581.92" cy="1242.07" r="2"/>
<circle clip-path="url(#clip072)" style="fill:#dddddd; stroke:none; fill-opacity:0" cx="1612.27" cy="1250.96" r="2"/>
<circle clip-path="url(#clip072)" style="fill:#dddddd; stroke:none; fill-opacity:0" cx="1642.63" cy="1304.27" r="2"/>
<circle clip-path="url(#clip072)" style="fill:#dddddd; stroke:none; fill-opacity:0" cx="1672.99" cy="1330.93" r="2"/>
<circle clip-path="url(#clip072)" style="fill:#dddddd; stroke:none; fill-opacity:0" cx="1703.34" cy="1313.15" r="2"/>
<circle clip-path="url(#clip072)" style="fill:#dddddd; stroke:none; fill-opacity:0" cx="1733.7" cy="1348.7" r="2"/>
<circle clip-path="url(#clip072)" style="fill:#dddddd; stroke:none; fill-opacity:0" cx="1764.05" cy="1357.58" r="2"/>
<circle clip-path="url(#clip072)" style="fill:#dddddd; stroke:none; fill-opacity:0" cx="1794.41" cy="1357.58" r="2"/>
<circle clip-path="url(#clip072)" style="fill:#dddddd; stroke:none; fill-opacity:0" cx="1824.76" cy="1375.35" r="2"/>
<circle clip-path="url(#clip072)" style="fill:#dddddd; stroke:none; fill-opacity:0" cx="1855.12" cy="1375.35" r="2"/>
<circle clip-path="url(#clip072)" style="fill:#dddddd; stroke:none; fill-opacity:0" cx="1885.48" cy="1357.58" r="2"/>
<circle clip-path="url(#clip072)" style="fill:#dddddd; stroke:none; fill-opacity:0" cx="1915.83" cy="1375.35" r="2"/>
<circle clip-path="url(#clip072)" style="fill:#dddddd; stroke:none; fill-opacity:0" cx="1946.19" cy="1375.35" r="2"/>
<circle clip-path="url(#clip072)" style="fill:#dddddd; stroke:none; fill-opacity:0" cx="1976.54" cy="1384.24" r="2"/>
<circle clip-path="url(#clip072)" style="fill:#dddddd; stroke:none; fill-opacity:0" cx="2006.9" cy="1375.35" r="2"/>
<circle clip-path="url(#clip072)" style="fill:#dddddd; stroke:none; fill-opacity:0" cx="2037.26" cy="1384.24" r="2"/>
<circle clip-path="url(#clip072)" style="fill:#dddddd; stroke:none; fill-opacity:0" cx="2067.61" cy="1375.35" r="2"/>
<circle clip-path="url(#clip072)" style="fill:#dddddd; stroke:none; fill-opacity:0" cx="2097.97" cy="1384.24" r="2"/>
<circle clip-path="url(#clip072)" style="fill:#dddddd; stroke:none; fill-opacity:0" cx="2128.32" cy="1384.24" r="2"/>
<circle clip-path="url(#clip072)" style="fill:#dddddd; stroke:none; fill-opacity:0" cx="2158.68" cy="1375.35" r="2"/>
<circle clip-path="url(#clip072)" style="fill:#dddddd; stroke:none; fill-opacity:0" cx="2189.03" cy="1384.24" r="2"/>
<circle clip-path="url(#clip072)" style="fill:#dddddd; stroke:none; fill-opacity:0" cx="2219.39" cy="1375.35" r="2"/>
<polyline clip-path="url(#clip072)" style="stroke:#cc3311; stroke-linecap:round; stroke-linejoin:round; stroke-width:12; stroke-opacity:1; fill:none" points="494.416,1383.98 505.998,1383.95 613.087,1383.43 677.443,1382.74 731.856,1381.71 790.963,1379.79 845.455,1376.75 874.665,1374.33 903.876,1371.13 937.719,1366.11 971.562,1359.18 1001.64,1350.81 1031.71,1339.66 1044.9,1333.66 1058.09,1326.85 1071.27,1319.13 1084.46,1310.36 1098.84,1299.46 1113.22,1286.94 1127.59,1272.58 1141.97,1256.1 1156.43,1237.07 1170.89,1215.21 1178.13,1203.09 1185.36,1190.1 1192.59,1176.19 1199.82,1161.27 1207.82,1143.53 1215.81,1124.37 1223.81,1103.7 1231.8,1081.38 1239.8,1057.28 1247.79,1031.26 1255.79,1003.18 1263.78,972.86 1271.39,941.775 1279,908.341 1286.6,872.381 1294.21,833.703 1298.01,813.282 1301.82,792.103 1305.62,770.139 1309.42,747.36 1313.23,723.735 1317.03,699.235 1320.84,673.826 1324.64,647.474 1328.59,619.037 1332.55,589.503 1336.5,558.829 1340.46,526.97 1344.41,493.882 1348.37,459.518 1352.32,423.826 1356.28,386.757 1360.23,348.258 1364.19,308.272 1368.14,266.743 1372.1,223.611 1376.05,178.815 1380.01,132.289 1381,120.38 1381.98,108.357 1382.48,102.303 1382.97,96.2203 1383.47,90.1086 1383.96,86.1857 1384.46,92.3159 1384.95,98.4172 1385.45,104.49 1385.94,110.533 1386.93,122.536 1387.92,134.425 1391.25,173.639 1394.58,211.623 1397.9,248.415 1401.23,284.053 1404.56,318.573 1407.89,352.009 1411.22,384.397 1414.55,415.768 1417.88,446.155 1421.21,475.589 1424.54,504.099 1427.87,531.714 1431.2,558.463 1434.53,584.373 1437.85,609.469 1441.18,633.779 1445.25,662.426 1449.31,689.98 1453.38,716.482 1457.44,741.972 1461.51,766.489 1465.57,790.071 1469.63,812.752 1473.7,834.567 1481.83,875.731 1489.96,913.813 1498.09,949.042 1506.22,981.634 1513.66,1009.34 1521.11,1035.14 1528.56,1059.17 1536,1081.54 1543.45,1102.38 1550.9,1121.78 1558.34,1139.84 1565.79,1156.66 1572.67,1171.16 1579.54,1184.75 1586.42,1197.46 1593.3,1209.36 1607.05,1230.95 1620.81,1249.86 1634.74,1266.65 1648.68,1281.34 1662.61,1294.19 1676.54,1305.44 1692.16,1316.38 1707.78,1325.81 1723.39,1333.92 1739.01,1340.91 1767.31,1351.2 1795.61,1359.04 1828.01,1365.76 1860.41,1370.69 1890.41,1374.07 1920.42,1376.61 1979.57,1379.91 2037.01,1381.74 2095.89,1382.82 2160.4,1383.47 2254.11,1383.93 2273.33,1383.98 "/>
<polyline clip-path="url(#clip072)" style="stroke:#0077bb; stroke-linecap:round; stroke-linejoin:round; stroke-width:12; stroke-opacity:1; fill:none" points="809.553,1383.54 813.287,1383.48 817.02,1383.41 851.543,1382.39 886.065,1380.34 906.811,1378.28 927.558,1375.29 945.099,1371.79 962.64,1367.16 972.167,1364.07 981.694,1360.5 991.221,1356.41 1000.75,1351.74 1009.53,1346.88 1018.31,1341.42 1027.1,1335.32 1035.88,1328.54 1045.3,1320.45 1054.71,1311.46 1064.13,1301.51 1073.55,1290.55 1084.46,1276.52 1095.37,1261.02 1106.28,1243.98 1117.19,1225.39 1126.88,1207.55 1136.58,1188.49 1146.27,1168.22 1155.97,1146.8 1164.47,1127.11 1172.97,1106.63 1181.47,1085.44 1189.98,1063.59 1208.52,1014.2 1227.05,963.314 1245.7,912.008 1264.35,862.141 1269.51,848.834 1274.66,835.802 1279.82,823.08 1284.97,810.704 1290.13,798.709 1295.28,787.132 1300.44,776.005 1305.59,765.364 1310.5,755.718 1315.4,746.568 1320.31,737.938 1325.21,729.854 1330.11,722.339 1335.02,715.415 1339.92,709.101 1344.83,703.418 1349.93,698.193 1355.03,693.685 1360.13,689.907 1365.23,686.871 1370.33,684.587 1375.43,683.064 1380.53,682.305 1385.63,682.314 1389.92,682.916 1394.21,684.06 1398.5,685.745 1402.8,687.965 1407.09,690.715 1411.38,693.991 1415.68,697.782 1419.97,702.082 1425.21,708.006 1430.45,714.653 1435.69,722 1440.93,730.023 1446.17,738.694 1451.42,747.986 1456.66,757.868 1461.9,768.309 1471.5,788.776 1481.1,810.791 1485.9,822.309 1490.7,834.129 1495.51,846.223 1500.31,858.561 1518.04,905.775 1535.78,954.473 1553.75,1003.92 1571.71,1052.21 1581.78,1078.36 1591.85,1103.65 1601.92,1127.94 1611.99,1151.13 1621.11,1171.11 1630.23,1190.05 1639.36,1207.94 1648.48,1224.73 1658.92,1242.61 1669.37,1259.07 1679.82,1274.12 1690.26,1287.8 1699.93,1299.3 1709.6,1309.72 1719.28,1319.12 1728.95,1327.55 1738.48,1334.99 1748.02,1341.61 1757.55,1347.49 1767.09,1352.67 1776.35,1357.11 1785.6,1361 1794.86,1364.41 1804.12,1367.38 1823.1,1372.28 1842.08,1375.89 1862.88,1378.7 1883.67,1380.63 1913.88,1382.36 1944.09,1383.3 1950.29,1383.43 1956.48,1383.54 "/>
<path clip-path="url(#clip070)" d="M1890.42 300.469 L2281.13 300.469 L2281.13 93.1086 L1890.42 93.1086  Z" fill="#fffaf0" fill-rule="evenodd" fill-opacity="1"/>
<polyline clip-path="url(#clip070)" style="stroke:#000000; stroke-linecap:round; stroke-linejoin:round; stroke-width:4; stroke-opacity:0; fill:none" points="1890.42,300.469 2281.13,300.469 2281.13,93.1086 1890.42,93.1086 1890.42,300.469 "/>
<path clip-path="url(#clip070)" d="M1914.29 165.685 L2057.55 165.685 L2057.55 124.213 L1914.29 124.213 L1914.29 165.685  Z" fill="#dddddd" fill-rule="evenodd" fill-opacity="1"/>
<polyline clip-path="url(#clip070)" style="stroke:#000000; stroke-linecap:round; stroke-linejoin:round; stroke-width:4; stroke-opacity:1; fill:none" points="1914.29,165.685 2057.55,165.685 2057.55,124.213 1914.29,124.213 1914.29,165.685 "/>
<path clip-path="url(#clip070)" d="M2097.25 132.275 L2090.91 149.474 L2103.62 149.474 L2097.25 132.275 M2094.62 127.669 L2099.92 127.669 L2113.09 162.229 L2108.23 162.229 L2105.08 153.363 L2089.5 153.363 L2086.35 162.229 L2081.42 162.229 L2094.62 127.669 Z" fill="#000000" fill-rule="nonzero" fill-opacity="1" /><path clip-path="url(#clip070)" d="M2135.77 137.298 L2135.77 141.28 Q2133.97 140.284 2132.14 139.798 Q2130.33 139.289 2128.48 139.289 Q2124.34 139.289 2122.05 141.928 Q2119.75 144.544 2119.75 149.289 Q2119.75 154.034 2122.05 156.673 Q2124.34 159.289 2128.48 159.289 Q2130.33 159.289 2132.14 158.803 Q2133.97 158.293 2135.77 157.298 L2135.77 161.233 Q2133.99 162.067 2132.07 162.483 Q2130.17 162.9 2128.02 162.9 Q2122.16 162.9 2118.71 159.219 Q2115.26 155.539 2115.26 149.289 Q2115.26 142.946 2118.74 139.312 Q2122.23 135.678 2128.3 135.678 Q2130.26 135.678 2132.14 136.095 Q2134.01 136.488 2135.77 137.298 Z" fill="#000000" fill-rule="nonzero" fill-opacity="1" /><path clip-path="url(#clip070)" d="M2147.39 128.942 L2147.39 136.303 L2156.17 136.303 L2156.17 139.613 L2147.39 139.613 L2147.39 153.687 Q2147.39 156.858 2148.25 157.761 Q2149.13 158.664 2151.79 158.664 L2156.17 158.664 L2156.17 162.229 L2151.79 162.229 Q2146.86 162.229 2144.99 160.4 Q2143.11 158.548 2143.11 153.687 L2143.11 139.613 L2139.99 139.613 L2139.99 136.303 L2143.11 136.303 L2143.11 128.942 L2147.39 128.942 Z" fill="#000000" fill-rule="nonzero" fill-opacity="1" /><path clip-path="url(#clip070)" d="M2161.33 151.997 L2161.33 136.303 L2165.59 136.303 L2165.59 151.835 Q2165.59 155.516 2167.02 157.368 Q2168.46 159.196 2171.33 159.196 Q2174.78 159.196 2176.77 156.997 Q2178.78 154.798 2178.78 151.002 L2178.78 136.303 L2183.04 136.303 L2183.04 162.229 L2178.78 162.229 L2178.78 158.247 Q2177.23 160.608 2175.17 161.766 Q2173.13 162.9 2170.43 162.9 Q2165.96 162.9 2163.64 160.122 Q2161.33 157.344 2161.33 151.997 M2172.05 135.678 L2172.05 135.678 Z" fill="#000000" fill-rule="nonzero" fill-opacity="1" /><path clip-path="url(#clip070)" d="M2203.6 149.196 Q2198.43 149.196 2196.44 150.377 Q2194.45 151.557 2194.45 154.405 Q2194.45 156.673 2195.93 158.016 Q2197.44 159.335 2200.01 159.335 Q2203.55 159.335 2205.68 156.835 Q2207.83 154.312 2207.83 150.145 L2207.83 149.196 L2203.6 149.196 M2212.09 147.437 L2212.09 162.229 L2207.83 162.229 L2207.83 158.293 Q2206.37 160.655 2204.2 161.789 Q2202.02 162.9 2198.87 162.9 Q2194.89 162.9 2192.53 160.678 Q2190.19 158.432 2190.19 154.682 Q2190.19 150.307 2193.11 148.085 Q2196.05 145.863 2201.86 145.863 L2207.83 145.863 L2207.83 145.446 Q2207.83 142.507 2205.89 140.909 Q2203.97 139.289 2200.47 139.289 Q2198.25 139.289 2196.14 139.821 Q2194.04 140.354 2192.09 141.419 L2192.09 137.483 Q2194.43 136.581 2196.63 136.141 Q2198.83 135.678 2200.91 135.678 Q2206.54 135.678 2209.31 138.594 Q2212.09 141.511 2212.09 147.437 Z" fill="#000000" fill-rule="nonzero" fill-opacity="1" /><path clip-path="url(#clip070)" d="M2220.87 126.21 L2225.12 126.21 L2225.12 162.229 L2220.87 162.229 L2220.87 126.21 Z" fill="#000000" fill-rule="nonzero" fill-opacity="1" /><polyline clip-path="url(#clip070)" style="stroke:#cc3311; stroke-linecap:round; stroke-linejoin:round; stroke-width:12; stroke-opacity:1; fill:none" points="1914.29,196.789 2057.55,196.789 "/>
<path clip-path="url(#clip070)" d="M2081.42 179.509 L2086.1 179.509 L2086.1 210.133 L2102.93 210.133 L2102.93 214.069 L2081.42 214.069 L2081.42 179.509 Z" fill="#000000" fill-rule="nonzero" fill-opacity="1" /><path clip-path="url(#clip070)" d="M2119.43 201.036 Q2114.27 201.036 2112.28 202.217 Q2110.29 203.397 2110.29 206.245 Q2110.29 208.513 2111.77 209.856 Q2113.27 211.175 2115.84 211.175 Q2119.38 211.175 2121.51 208.675 Q2123.67 206.152 2123.67 201.985 L2123.67 201.036 L2119.43 201.036 M2127.93 199.277 L2127.93 214.069 L2123.67 214.069 L2123.67 210.133 Q2122.21 212.495 2120.03 213.629 Q2117.86 214.74 2114.71 214.74 Q2110.73 214.74 2108.37 212.518 Q2106.03 210.272 2106.03 206.522 Q2106.03 202.147 2108.94 199.925 Q2111.88 197.703 2117.69 197.703 L2123.67 197.703 L2123.67 197.286 Q2123.67 194.347 2121.72 192.749 Q2119.8 191.129 2116.31 191.129 Q2114.08 191.129 2111.98 191.661 Q2109.87 192.194 2107.93 193.259 L2107.93 189.323 Q2110.26 188.421 2112.46 187.981 Q2114.66 187.518 2116.75 187.518 Q2122.37 187.518 2125.15 190.434 Q2127.93 193.351 2127.93 199.277 Z" fill="#000000" fill-rule="nonzero" fill-opacity="1" /><path clip-path="url(#clip070)" d="M2140.82 210.18 L2140.82 223.93 L2136.54 223.93 L2136.54 188.143 L2140.82 188.143 L2140.82 192.078 Q2142.16 189.763 2144.2 188.652 Q2146.26 187.518 2149.11 187.518 Q2153.83 187.518 2156.77 191.268 Q2159.73 195.018 2159.73 201.129 Q2159.73 207.24 2156.77 210.99 Q2153.83 214.74 2149.11 214.74 Q2146.26 214.74 2144.2 213.629 Q2142.16 212.495 2140.82 210.18 M2155.31 201.129 Q2155.31 196.43 2153.37 193.768 Q2151.44 191.083 2148.06 191.083 Q2144.69 191.083 2142.74 193.768 Q2140.82 196.43 2140.82 201.129 Q2140.82 205.828 2142.74 208.513 Q2144.69 211.175 2148.06 211.175 Q2151.44 211.175 2153.37 208.513 Q2155.31 205.828 2155.31 201.129 Z" fill="#000000" fill-rule="nonzero" fill-opacity="1" /><path clip-path="url(#clip070)" d="M2166.79 178.05 L2171.05 178.05 L2171.05 214.069 L2166.79 214.069 L2166.79 178.05 Z" fill="#000000" fill-rule="nonzero" fill-opacity="1" /><path clip-path="url(#clip070)" d="M2191.75 201.036 Q2186.58 201.036 2184.59 202.217 Q2182.6 203.397 2182.6 206.245 Q2182.6 208.513 2184.08 209.856 Q2185.59 211.175 2188.16 211.175 Q2191.7 211.175 2193.83 208.675 Q2195.98 206.152 2195.98 201.985 L2195.98 201.036 L2191.75 201.036 M2200.24 199.277 L2200.24 214.069 L2195.98 214.069 L2195.98 210.133 Q2194.52 212.495 2192.35 213.629 Q2190.17 214.74 2187.02 214.74 Q2183.04 214.74 2180.68 212.518 Q2178.34 210.272 2178.34 206.522 Q2178.34 202.147 2181.26 199.925 Q2184.2 197.703 2190.01 197.703 L2195.98 197.703 L2195.98 197.286 Q2195.98 194.347 2194.04 192.749 Q2192.12 191.129 2188.62 191.129 Q2186.4 191.129 2184.29 191.661 Q2182.18 192.194 2180.24 193.259 L2180.24 189.323 Q2182.58 188.421 2184.78 187.981 Q2186.98 187.518 2189.06 187.518 Q2194.68 187.518 2197.46 190.434 Q2200.24 193.351 2200.24 199.277 Z" fill="#000000" fill-rule="nonzero" fill-opacity="1" /><path clip-path="url(#clip070)" d="M2227.67 189.138 L2227.67 193.12 Q2225.87 192.124 2224.04 191.638 Q2222.23 191.129 2220.38 191.129 Q2216.24 191.129 2213.94 193.768 Q2211.65 196.384 2211.65 201.129 Q2211.65 205.874 2213.94 208.513 Q2216.24 211.129 2220.38 211.129 Q2222.23 211.129 2224.04 210.643 Q2225.87 210.133 2227.67 209.138 L2227.67 213.073 Q2225.89 213.907 2223.97 214.323 Q2222.07 214.74 2219.92 214.74 Q2214.06 214.74 2210.61 211.059 Q2207.16 207.379 2207.16 201.129 Q2207.16 194.786 2210.63 191.152 Q2214.13 187.518 2220.19 187.518 Q2222.16 187.518 2224.04 187.935 Q2225.91 188.328 2227.67 189.138 Z" fill="#000000" fill-rule="nonzero" fill-opacity="1" /><path clip-path="url(#clip070)" d="M2257.25 200.041 L2257.25 202.124 L2237.67 202.124 Q2237.95 206.522 2240.31 208.837 Q2242.69 211.129 2246.93 211.129 Q2249.38 211.129 2251.68 210.527 Q2253.99 209.925 2256.26 208.721 L2256.26 212.749 Q2253.97 213.721 2251.56 214.231 Q2249.15 214.74 2246.68 214.74 Q2240.47 214.74 2236.84 211.129 Q2233.23 207.518 2233.23 201.36 Q2233.23 194.995 2236.65 191.268 Q2240.1 187.518 2245.93 187.518 Q2251.17 187.518 2254.2 190.897 Q2257.25 194.254 2257.25 200.041 M2252.99 198.791 Q2252.95 195.296 2251.03 193.212 Q2249.13 191.129 2245.98 191.129 Q2242.42 191.129 2240.26 193.143 Q2238.13 195.157 2237.81 198.814 L2252.99 198.791 Z" fill="#000000" fill-rule="nonzero" fill-opacity="1" /><polyline clip-path="url(#clip070)" style="stroke:#0077bb; stroke-linecap:round; stroke-linejoin:round; stroke-width:12; stroke-opacity:1; fill:none" points="1914.29,248.629 2057.55,248.629 "/>
<path clip-path="url(#clip070)" d="M2081.42 231.349 L2087.72 231.349 L2103.04 260.261 L2103.04 231.349 L2107.58 231.349 L2107.58 265.909 L2101.28 265.909 L2085.96 236.997 L2085.96 265.909 L2081.42 265.909 L2081.42 231.349 Z" fill="#000000" fill-rule="nonzero" fill-opacity="1" /><path clip-path="url(#clip070)" d="M2126.75 242.969 Q2123.32 242.969 2121.33 245.654 Q2119.34 248.316 2119.34 252.969 Q2119.34 257.622 2121.31 260.307 Q2123.3 262.969 2126.75 262.969 Q2130.15 262.969 2132.14 260.284 Q2134.13 257.598 2134.13 252.969 Q2134.13 248.362 2132.14 245.677 Q2130.15 242.969 2126.75 242.969 M2126.75 239.358 Q2132.3 239.358 2135.47 242.969 Q2138.64 246.58 2138.64 252.969 Q2138.64 259.335 2135.47 262.969 Q2132.3 266.58 2126.75 266.58 Q2121.17 266.58 2118 262.969 Q2114.85 259.335 2114.85 252.969 Q2114.85 246.58 2118 242.969 Q2121.17 239.358 2126.75 239.358 Z" fill="#000000" fill-rule="nonzero" fill-opacity="1" /><path clip-path="url(#clip070)" d="M2160.73 243.964 Q2160.01 243.548 2159.15 243.362 Q2158.32 243.154 2157.3 243.154 Q2153.69 243.154 2151.75 245.515 Q2149.82 247.853 2149.82 252.251 L2149.82 265.909 L2145.54 265.909 L2145.54 239.983 L2149.82 239.983 L2149.82 244.011 Q2151.17 241.649 2153.32 240.515 Q2155.47 239.358 2158.55 239.358 Q2158.99 239.358 2159.52 239.427 Q2160.06 239.474 2160.7 239.589 L2160.73 243.964 Z" fill="#000000" fill-rule="nonzero" fill-opacity="1" /><path clip-path="url(#clip070)" d="M2184.55 244.96 Q2186.14 242.089 2188.37 240.724 Q2190.59 239.358 2193.6 239.358 Q2197.65 239.358 2199.85 242.205 Q2202.05 245.029 2202.05 250.261 L2202.05 265.909 L2197.76 265.909 L2197.76 250.399 Q2197.76 246.673 2196.44 244.867 Q2195.12 243.062 2192.42 243.062 Q2189.11 243.062 2187.18 245.261 Q2185.26 247.46 2185.26 251.256 L2185.26 265.909 L2180.98 265.909 L2180.98 250.399 Q2180.98 246.649 2179.66 244.867 Q2178.34 243.062 2175.59 243.062 Q2172.32 243.062 2170.4 245.284 Q2168.48 247.483 2168.48 251.256 L2168.48 265.909 L2164.2 265.909 L2164.2 239.983 L2168.48 239.983 L2168.48 244.011 Q2169.94 241.626 2171.98 240.492 Q2174.01 239.358 2176.81 239.358 Q2179.64 239.358 2181.61 240.793 Q2183.6 242.228 2184.55 244.96 Z" fill="#000000" fill-rule="nonzero" fill-opacity="1" /><path clip-path="url(#clip070)" d="M2222.32 252.876 Q2217.16 252.876 2215.17 254.057 Q2213.18 255.237 2213.18 258.085 Q2213.18 260.353 2214.66 261.696 Q2216.17 263.015 2218.74 263.015 Q2222.28 263.015 2224.41 260.515 Q2226.56 257.992 2226.56 253.825 L2226.56 252.876 L2222.32 252.876 M2230.82 251.117 L2230.82 265.909 L2226.56 265.909 L2226.56 261.973 Q2225.1 264.335 2222.93 265.469 Q2220.75 266.58 2217.6 266.58 Q2213.62 266.58 2211.26 264.358 Q2208.92 262.112 2208.92 258.362 Q2208.92 253.987 2211.84 251.765 Q2214.78 249.543 2220.59 249.543 L2226.56 249.543 L2226.56 249.126 Q2226.56 246.187 2224.62 244.589 Q2222.69 242.969 2219.2 242.969 Q2216.98 242.969 2214.87 243.501 Q2212.76 244.034 2210.82 245.099 L2210.82 241.163 Q2213.16 240.261 2215.36 239.821 Q2217.56 239.358 2219.64 239.358 Q2225.26 239.358 2228.04 242.274 Q2230.82 245.191 2230.82 251.117 Z" fill="#000000" fill-rule="nonzero" fill-opacity="1" /><path clip-path="url(#clip070)" d="M2239.59 229.89 L2243.85 229.89 L2243.85 265.909 L2239.59 265.909 L2239.59 229.89 Z" fill="#000000" fill-rule="nonzero" fill-opacity="1" /></svg>
