<?xml version="1.0" encoding="utf-8"?>
<svg xmlns="http://www.w3.org/2000/svg" xmlns:xlink="http://www.w3.org/1999/xlink" width="600" height="400" viewBox="0 0 2400 1600">
<defs>
  <clipPath id="clip940">
    <rect x="0" y="0" width="2400" height="1600"/>
  </clipPath>
</defs>
<path clip-path="url(#clip940)" d="M0 1600 L2400 1600 L2400 0 L0 0  Z" fill="#ffffff" fill-rule="evenodd" fill-opacity="1"/>
<defs>
  <clipPath id="clip941">
    <rect x="480" y="0" width="1681" height="1600"/>
  </clipPath>
</defs>
<path clip-path="url(#clip940)" d="M257.204 1423.18 L2352.76 1423.18 L2352.76 47.2441 L257.204 47.2441  Z" fill="#eee9e9" fill-rule="evenodd" fill-opacity="1"/>
<defs>
  <clipPath id="clip942">
    <rect x="257" y="47" width="2097" height="1377"/>
  </clipPath>
</defs>
<polyline clip-path="url(#clip942)" style="stroke:#000000; stroke-linecap:round; stroke-linejoin:round; stroke-width:2; stroke-opacity:0.1; fill:none" points="514.206,1423.18 514.206,47.2441 "/>
<polyline clip-path="url(#clip942)" style="stroke:#000000; stroke-linecap:round; stroke-linejoin:round; stroke-width:2; stroke-opacity:0.1; fill:none" points="909.593,1423.18 909.593,47.2441 "/>
<polyline clip-path="url(#clip942)" style="stroke:#000000; stroke-linecap:round; stroke-linejoin:round; stroke-width:2; stroke-opacity:0.1; fill:none" points="1304.98,1423.18 1304.98,47.2441 "/>
<polyline clip-path="url(#clip942)" style="stroke:#000000; stroke-linecap:round; stroke-linejoin:round; stroke-width:2; stroke-opacity:0.1; fill:none" points="1700.37,1423.18 1700.37,47.2441 "/>
<polyline clip-path="url(#clip942)" style="stroke:#000000; stroke-linecap:round; stroke-linejoin:round; stroke-width:2; stroke-opacity:0.1; fill:none" points="2095.75,1423.18 2095.75,47.2441 "/>
<polyline clip-path="url(#clip940)" style="stroke:#000000; stroke-linecap:round; stroke-linejoin:round; stroke-width:4; stroke-opacity:1; fill:none" points="257.204,1423.18 2352.76,1423.18 "/>
<polyline clip-path="url(#clip940)" style="stroke:#000000; stroke-linecap:round; stroke-linejoin:round; stroke-width:4; stroke-opacity:1; fill:none" points="257.204,47.2441 2352.76,47.2441 "/>
<polyline clip-path="url(#clip940)" style="stroke:#000000; stroke-linecap:round; stroke-linejoin:round; stroke-width:4; stroke-opacity:1; fill:none" points="514.206,1423.18 514.206,1404.28 "/>
<polyline clip-path="url(#clip940)" style="stroke:#000000; stroke-linecap:round; stroke-linejoin:round; stroke-width:4; stroke-opacity:1; fill:none" points="909.593,1423.18 909.593,1404.28 "/>
<polyline clip-path="url(#clip940)" style="stroke:#000000; stroke-linecap:round; stroke-linejoin:round; stroke-width:4; stroke-opacity:1; fill:none" points="1304.98,1423.18 1304.98,1404.28 "/>
<polyline clip-path="url(#clip940)" style="stroke:#000000; stroke-linecap:round; stroke-linejoin:round; stroke-width:4; stroke-opacity:1; fill:none" points="1700.37,1423.18 1700.37,1404.28 "/>
<polyline clip-path="url(#clip940)" style="stroke:#000000; stroke-linecap:round; stroke-linejoin:round; stroke-width:4; stroke-opacity:1; fill:none" points="2095.75,1423.18 2095.75,1404.28 "/>
<path clip-path="url(#clip940)" d="M473.812 1481.64 L481.451 1481.64 L481.451 1455.28 L473.141 1456.95 L473.141 1452.69 L481.405 1451.02 L486.081 1451.02 L486.081 1481.64 L493.72 1481.64 L493.72 1485.58 L473.812 1485.58 L473.812 1481.64 Z" fill="#000000" fill-rule="nonzero" fill-opacity="1" /><path clip-path="url(#clip940)" d="M513.164 1454.1 Q509.553 1454.1 507.724 1457.66 Q505.919 1461.2 505.919 1468.33 Q505.919 1475.44 507.724 1479.01 Q509.553 1482.55 513.164 1482.55 Q516.798 1482.55 518.604 1479.01 Q520.432 1475.44 520.432 1468.33 Q520.432 1461.2 518.604 1457.66 Q516.798 1454.1 513.164 1454.1 M513.164 1450.39 Q518.974 1450.39 522.03 1455 Q525.108 1459.58 525.108 1468.33 Q525.108 1477.06 522.03 1481.67 Q518.974 1486.25 513.164 1486.25 Q507.354 1486.25 504.275 1481.67 Q501.22 1477.06 501.22 1468.33 Q501.22 1459.58 504.275 1455 Q507.354 1450.39 513.164 1450.39 Z" fill="#000000" fill-rule="nonzero" fill-opacity="1" /><path clip-path="url(#clip940)" d="M543.326 1454.1 Q539.715 1454.1 537.886 1457.66 Q536.081 1461.2 536.081 1468.33 Q536.081 1475.44 537.886 1479.01 Q539.715 1482.55 543.326 1482.55 Q546.96 1482.55 548.766 1479.01 Q550.594 1475.44 550.594 1468.33 Q550.594 1461.2 548.766 1457.66 Q546.96 1454.1 543.326 1454.1 M543.326 1450.39 Q549.136 1450.39 552.192 1455 Q555.27 1459.58 555.27 1468.33 Q555.27 1477.06 552.192 1481.67 Q549.136 1486.25 543.326 1486.25 Q537.516 1486.25 534.437 1481.67 Q531.382 1477.06 531.382 1468.33 Q531.382 1459.58 534.437 1455 Q537.516 1450.39 543.326 1450.39 Z" fill="#000000" fill-rule="nonzero" fill-opacity="1" /><path clip-path="url(#clip940)" d="M869.2 1481.64 L876.838 1481.64 L876.838 1455.28 L868.528 1456.95 L868.528 1452.69 L876.792 1451.02 L881.468 1451.02 L881.468 1481.64 L889.107 1481.64 L889.107 1485.58 L869.2 1485.58 L869.2 1481.64 Z" fill="#000000" fill-rule="nonzero" fill-opacity="1" /><path clip-path="url(#clip940)" d="M899.361 1481.64 L907 1481.64 L907 1455.28 L898.69 1456.95 L898.69 1452.69 L906.954 1451.02 L911.63 1451.02 L911.63 1481.64 L919.269 1481.64 L919.269 1485.58 L899.361 1485.58 L899.361 1481.64 Z" fill="#000000" fill-rule="nonzero" fill-opacity="1" /><path clip-path="url(#clip940)" d="M938.713 1454.1 Q935.102 1454.1 933.273 1457.66 Q931.468 1461.2 931.468 1468.33 Q931.468 1475.44 933.273 1479.01 Q935.102 1482.55 938.713 1482.55 Q942.347 1482.55 944.153 1479.01 Q945.982 1475.44 945.982 1468.33 Q945.982 1461.2 944.153 1457.66 Q942.347 1454.1 938.713 1454.1 M938.713 1450.39 Q944.523 1450.39 947.579 1455 Q950.657 1459.58 950.657 1468.33 Q950.657 1477.06 947.579 1481.67 Q944.523 1486.25 938.713 1486.25 Q932.903 1486.25 929.824 1481.67 Q926.769 1477.06 926.769 1468.33 Q926.769 1459.58 929.824 1455 Q932.903 1450.39 938.713 1450.39 Z" fill="#000000" fill-rule="nonzero" fill-opacity="1" /><path clip-path="url(#clip940)" d="M1264.59 1481.64 L1272.23 1481.64 L1272.23 1455.28 L1263.92 1456.95 L1263.92 1452.69 L1272.18 1451.02 L1276.86 1451.02 L1276.86 1481.64 L1284.49 1481.64 L1284.49 1485.58 L1264.59 1485.58 L1264.59 1481.64 Z" fill="#000000" fill-rule="nonzero" fill-opacity="1" /><path clip-path="url(#clip940)" d="M1297.97 1481.64 L1314.29 1481.64 L1314.29 1485.58 L1292.34 1485.58 L1292.34 1481.64 Q1295 1478.89 1299.59 1474.26 Q1304.19 1469.61 1305.37 1468.27 Q1307.62 1465.74 1308.5 1464.01 Q1309.4 1462.25 1309.4 1460.56 Q1309.4 1457.8 1307.46 1456.07 Q1305.54 1454.33 1302.43 1454.33 Q1300.23 1454.33 1297.78 1455.09 Q1295.35 1455.86 1292.57 1457.41 L1292.57 1452.69 Q1295.4 1451.55 1297.85 1450.97 Q1300.3 1450.39 1302.34 1450.39 Q1307.71 1450.39 1310.91 1453.08 Q1314.1 1455.77 1314.1 1460.26 Q1314.1 1462.39 1313.29 1464.31 Q1312.5 1466.2 1310.4 1468.8 Q1309.82 1469.47 1306.72 1472.69 Q1303.61 1475.88 1297.97 1481.64 Z" fill="#000000" fill-rule="nonzero" fill-opacity="1" /><path clip-path="url(#clip940)" d="M1334.1 1454.1 Q1330.49 1454.1 1328.66 1457.66 Q1326.85 1461.2 1326.85 1468.33 Q1326.85 1475.44 1328.66 1479.01 Q1330.49 1482.55 1334.1 1482.55 Q1337.73 1482.55 1339.54 1479.01 Q1341.37 1475.44 1341.37 1468.33 Q1341.37 1461.2 1339.54 1457.66 Q1337.73 1454.1 1334.1 1454.1 M1334.1 1450.39 Q1339.91 1450.39 1342.97 1455 Q1346.04 1459.58 1346.04 1468.33 Q1346.04 1477.06 1342.97 1481.67 Q1339.91 1486.25 1334.1 1486.25 Q1328.29 1486.25 1325.21 1481.67 Q1322.16 1477.06 1322.16 1468.33 Q1322.16 1459.58 1325.21 1455 Q1328.29 1450.39 1334.1 1450.39 Z" fill="#000000" fill-rule="nonzero" fill-opacity="1" /><path clip-path="url(#clip940)" d="M1659.97 1481.64 L1667.61 1481.64 L1667.61 1455.28 L1659.3 1456.95 L1659.3 1452.69 L1667.57 1451.02 L1672.24 1451.02 L1672.24 1481.64 L1679.88 1481.64 L1679.88 1485.58 L1659.97 1485.58 L1659.97 1481.64 Z" fill="#000000" fill-rule="nonzero" fill-opacity="1" /><path clip-path="url(#clip940)" d="M1703.49 1466.95 Q1706.85 1467.66 1708.72 1469.93 Q1710.62 1472.2 1710.62 1475.53 Q1710.62 1480.65 1707.1 1483.45 Q1703.58 1486.25 1697.1 1486.25 Q1694.93 1486.25 1692.61 1485.81 Q1690.32 1485.39 1687.87 1484.54 L1687.87 1480.02 Q1689.81 1481.16 1692.13 1481.74 Q1694.44 1482.32 1696.96 1482.32 Q1701.36 1482.32 1703.65 1480.58 Q1705.97 1478.84 1705.97 1475.53 Q1705.97 1472.48 1703.82 1470.77 Q1701.69 1469.03 1697.87 1469.03 L1693.84 1469.03 L1693.84 1465.19 L1698.05 1465.19 Q1701.5 1465.19 1703.33 1463.82 Q1705.16 1462.43 1705.16 1459.84 Q1705.16 1457.18 1703.26 1455.77 Q1701.39 1454.33 1697.87 1454.33 Q1695.95 1454.33 1693.75 1454.75 Q1691.55 1455.16 1688.91 1456.04 L1688.91 1451.88 Q1691.57 1451.14 1693.89 1450.77 Q1696.22 1450.39 1698.28 1450.39 Q1703.61 1450.39 1706.71 1452.83 Q1709.81 1455.23 1709.81 1459.35 Q1709.81 1462.22 1708.17 1464.21 Q1706.52 1466.18 1703.49 1466.95 Z" fill="#000000" fill-rule="nonzero" fill-opacity="1" /><path clip-path="url(#clip940)" d="M1729.49 1454.1 Q1725.88 1454.1 1724.05 1457.66 Q1722.24 1461.2 1722.24 1468.33 Q1722.24 1475.44 1724.05 1479.01 Q1725.88 1482.55 1729.49 1482.55 Q1733.12 1482.55 1734.93 1479.01 Q1736.76 1475.44 1736.76 1468.33 Q1736.76 1461.2 1734.93 1457.66 Q1733.12 1454.1 1729.49 1454.1 M1729.49 1450.39 Q1735.3 1450.39 1738.35 1455 Q1741.43 1459.58 1741.43 1468.33 Q1741.43 1477.06 1738.35 1481.67 Q1735.3 1486.25 1729.49 1486.25 Q1723.68 1486.25 1720.6 1481.67 Q1717.54 1477.06 1717.54 1468.33 Q1717.54 1459.58 1720.6 1455 Q1723.68 1450.39 1729.49 1450.39 Z" fill="#000000" fill-rule="nonzero" fill-opacity="1" /><path clip-path="url(#clip940)" d="M2055.36 1481.64 L2063 1481.64 L2063 1455.28 L2054.69 1456.95 L2054.69 1452.69 L2062.95 1451.02 L2067.63 1451.02 L2067.63 1481.64 L2075.27 1481.64 L2075.27 1485.58 L2055.36 1485.58 L2055.36 1481.64 Z" fill="#000000" fill-rule="nonzero" fill-opacity="1" /><path clip-path="url(#clip940)" d="M2097.56 1455.09 L2085.75 1473.54 L2097.56 1473.54 L2097.56 1455.09 M2096.33 1451.02 L2102.21 1451.02 L2102.21 1473.54 L2107.14 1473.54 L2107.14 1477.43 L2102.21 1477.43 L2102.21 1485.58 L2097.56 1485.58 L2097.56 1477.43 L2081.96 1477.43 L2081.96 1472.92 L2096.33 1451.02 Z" fill="#000000" fill-rule="nonzero" fill-opacity="1" /><path clip-path="url(#clip940)" d="M2124.87 1454.1 Q2121.26 1454.1 2119.43 1457.66 Q2117.63 1461.2 2117.63 1468.33 Q2117.63 1475.44 2119.43 1479.01 Q2121.26 1482.55 2124.87 1482.55 Q2128.51 1482.55 2130.31 1479.01 Q2132.14 1475.44 2132.14 1468.33 Q2132.14 1461.2 2130.31 1457.66 Q2128.51 1454.1 2124.87 1454.1 M2124.87 1450.39 Q2130.68 1450.39 2133.74 1455 Q2136.82 1459.58 2136.82 1468.33 Q2136.82 1477.06 2133.74 1481.67 Q2130.68 1486.25 2124.87 1486.25 Q2119.06 1486.25 2115.99 1481.67 Q2112.93 1477.06 2112.93 1468.33 Q2112.93 1459.58 2115.99 1455 Q2119.06 1450.39 2124.87 1450.39 Z" fill="#000000" fill-rule="nonzero" fill-opacity="1" /><path clip-path="url(#clip940)" d="M730.443 1522.08 L730.443 1528.35 Q726.783 1526.6 723.536 1525.74 Q720.29 1524.88 717.266 1524.88 Q712.014 1524.88 709.15 1526.92 Q706.317 1528.96 706.317 1532.71 Q706.317 1535.87 708.195 1537.49 Q710.105 1539.08 715.388 1540.07 L719.271 1540.86 Q726.465 1542.23 729.87 1545.7 Q733.308 1549.14 733.308 1554.93 Q733.308 1561.84 728.661 1565.4 Q724.046 1568.97 715.102 1568.97 Q711.728 1568.97 707.909 1568.2 Q704.121 1567.44 700.047 1565.94 L700.047 1559.32 Q703.962 1561.52 707.718 1562.63 Q711.473 1563.75 715.102 1563.75 Q720.608 1563.75 723.6 1561.58 Q726.592 1559.42 726.592 1555.41 Q726.592 1551.91 724.428 1549.93 Q722.295 1547.96 717.393 1546.97 L713.479 1546.21 Q706.285 1544.78 703.071 1541.72 Q699.856 1538.67 699.856 1533.22 Q699.856 1526.92 704.28 1523.29 Q708.736 1519.66 716.534 1519.66 Q719.876 1519.66 723.345 1520.27 Q726.815 1520.87 730.443 1522.08 Z" fill="#000000" fill-rule="nonzero" fill-opacity="1" /><path clip-path="url(#clip940)" d="M772.711 1546.53 L772.711 1568.04 L766.855 1568.04 L766.855 1546.72 Q766.855 1541.66 764.882 1539.14 Q762.908 1536.63 758.961 1536.63 Q754.219 1536.63 751.482 1539.65 Q748.745 1542.68 748.745 1547.9 L748.745 1568.04 L742.856 1568.04 L742.856 1518.52 L748.745 1518.52 L748.745 1537.93 Q750.845 1534.72 753.678 1533.13 Q756.543 1531.54 760.266 1531.54 Q766.409 1531.54 769.56 1535.36 Q772.711 1539.14 772.711 1546.53 Z" fill="#000000" fill-rule="nonzero" fill-opacity="1" /><path clip-path="url(#clip940)" d="M800.593 1550.12 Q793.495 1550.12 790.758 1551.75 Q788.021 1553.37 788.021 1557.29 Q788.021 1560.4 790.058 1562.25 Q792.127 1564.07 795.66 1564.07 Q800.53 1564.07 803.458 1560.63 Q806.418 1557.16 806.418 1551.43 L806.418 1550.12 L800.593 1550.12 M812.274 1547.71 L812.274 1568.04 L806.418 1568.04 L806.418 1562.63 Q804.413 1565.88 801.421 1567.44 Q798.429 1568.97 794.1 1568.97 Q788.626 1568.97 785.379 1565.91 Q782.164 1562.82 782.164 1557.67 Q782.164 1551.65 786.175 1548.6 Q790.217 1545.54 798.206 1545.54 L806.418 1545.54 L806.418 1544.97 Q806.418 1540.93 803.744 1538.73 Q801.102 1536.5 796.296 1536.5 Q793.241 1536.5 790.344 1537.23 Q787.448 1537.97 784.774 1539.43 L784.774 1534.02 Q787.989 1532.78 791.013 1532.17 Q794.037 1531.54 796.901 1531.54 Q804.635 1531.54 808.455 1535.55 Q812.274 1539.56 812.274 1547.71 Z" fill="#000000" fill-rule="nonzero" fill-opacity="1" /><path clip-path="url(#clip940)" d="M844.994 1537.87 Q844.007 1537.3 842.83 1537.04 Q841.684 1536.76 840.283 1536.76 Q835.318 1536.76 832.645 1540 Q830.003 1543.22 830.003 1549.27 L830.003 1568.04 L824.114 1568.04 L824.114 1532.4 L830.003 1532.4 L830.003 1537.93 Q831.849 1534.69 834.809 1533.13 Q837.769 1531.54 842.002 1531.54 Q842.607 1531.54 843.339 1531.63 Q844.071 1531.7 844.962 1531.85 L844.994 1537.87 Z" fill="#000000" fill-rule="nonzero" fill-opacity="1" /><path clip-path="url(#clip940)" d="M880.196 1548.76 L880.196 1551.62 L853.269 1551.62 Q853.651 1557.67 856.898 1560.85 Q860.176 1564 866.001 1564 Q869.375 1564 872.526 1563.17 Q875.709 1562.35 878.828 1560.69 L878.828 1566.23 Q875.677 1567.57 872.367 1568.27 Q869.056 1568.97 865.651 1568.97 Q857.121 1568.97 852.124 1564 Q847.158 1559.04 847.158 1550.57 Q847.158 1541.82 851.869 1536.69 Q856.611 1531.54 864.632 1531.54 Q871.825 1531.54 875.995 1536.18 Q880.196 1540.8 880.196 1548.76 M874.34 1547.04 Q874.276 1542.23 871.634 1539.37 Q869.025 1536.5 864.696 1536.5 Q859.794 1536.5 856.834 1539.27 Q853.906 1542.04 853.46 1547.07 L874.34 1547.04 Z" fill="#000000" fill-rule="nonzero" fill-opacity="1" /><path clip-path="url(#clip940)" d="M916.194 1562.7 L916.194 1581.6 L910.306 1581.6 L910.306 1532.4 L916.194 1532.4 L916.194 1537.81 Q918.04 1534.62 920.841 1533.1 Q923.674 1531.54 927.589 1531.54 Q934.082 1531.54 938.124 1536.69 Q942.198 1541.85 942.198 1550.25 Q942.198 1558.65 938.124 1563.81 Q934.082 1568.97 927.589 1568.97 Q923.674 1568.97 920.841 1567.44 Q918.04 1565.88 916.194 1562.7 M936.119 1550.25 Q936.119 1543.79 933.445 1540.13 Q930.804 1536.44 926.157 1536.44 Q921.51 1536.44 918.836 1540.13 Q916.194 1543.79 916.194 1550.25 Q916.194 1556.71 918.836 1560.4 Q921.51 1564.07 926.157 1564.07 Q930.804 1564.07 933.445 1560.4 Q936.119 1556.71 936.119 1550.25 Z" fill="#000000" fill-rule="nonzero" fill-opacity="1" /><path clip-path="url(#clip940)" d="M972.563 1537.87 Q971.576 1537.3 970.398 1537.04 Q969.253 1536.76 967.852 1536.76 Q962.887 1536.76 960.213 1540 Q957.572 1543.22 957.572 1549.27 L957.572 1568.04 L951.683 1568.04 L951.683 1532.4 L957.572 1532.4 L957.572 1537.93 Q959.418 1534.69 962.378 1533.13 Q965.338 1531.54 969.571 1531.54 Q970.176 1531.54 970.908 1531.63 Q971.64 1531.7 972.531 1531.85 L972.563 1537.87 Z" fill="#000000" fill-rule="nonzero" fill-opacity="1" /><path clip-path="url(#clip940)" d="M978.706 1532.4 L984.562 1532.4 L984.562 1568.04 L978.706 1568.04 L978.706 1532.4 M978.706 1518.52 L984.562 1518.52 L984.562 1525.93 L978.706 1525.93 L978.706 1518.52 Z" fill="#000000" fill-rule="nonzero" fill-opacity="1" /><path clip-path="url(#clip940)" d="M1022.47 1533.76 L1022.47 1539.24 Q1019.99 1537.87 1017.47 1537.2 Q1014.99 1536.5 1012.44 1536.5 Q1006.75 1536.5 1003.6 1540.13 Q1000.44 1543.73 1000.44 1550.25 Q1000.44 1556.78 1003.6 1560.4 Q1006.75 1564 1012.44 1564 Q1014.99 1564 1017.47 1563.33 Q1019.99 1562.63 1022.47 1561.26 L1022.47 1566.68 Q1020.02 1567.82 1017.38 1568.39 Q1014.77 1568.97 1011.81 1568.97 Q1003.75 1568.97 999.012 1563.91 Q994.27 1558.85 994.27 1550.25 Q994.27 1541.53 999.044 1536.53 Q1003.85 1531.54 1012.19 1531.54 Q1014.89 1531.54 1017.47 1532.11 Q1020.05 1532.65 1022.47 1533.76 Z" fill="#000000" fill-rule="nonzero" fill-opacity="1" /><path clip-path="url(#clip940)" d="M1063.15 1548.76 L1063.15 1551.62 L1036.22 1551.62 Q1036.6 1557.67 1039.85 1560.85 Q1043.13 1564 1048.95 1564 Q1052.33 1564 1055.48 1563.17 Q1058.66 1562.35 1061.78 1560.69 L1061.78 1566.23 Q1058.63 1567.57 1055.32 1568.27 Q1052.01 1568.97 1048.6 1568.97 Q1040.07 1568.97 1035.07 1564 Q1030.11 1559.04 1030.11 1550.57 Q1030.11 1541.82 1034.82 1536.69 Q1039.56 1531.54 1047.58 1531.54 Q1054.78 1531.54 1058.95 1536.18 Q1063.15 1540.8 1063.15 1548.76 M1057.29 1547.04 Q1057.23 1542.23 1054.58 1539.37 Q1051.97 1536.5 1047.65 1536.5 Q1042.74 1536.5 1039.78 1539.27 Q1036.86 1542.04 1036.41 1547.07 L1057.29 1547.04 Z" fill="#000000" fill-rule="nonzero" fill-opacity="1" /><path clip-path="url(#clip940)" d="M1109.68 1550.12 Q1102.58 1550.12 1099.85 1551.75 Q1097.11 1553.37 1097.11 1557.29 Q1097.11 1560.4 1099.14 1562.25 Q1101.21 1564.07 1104.75 1564.07 Q1109.62 1564.07 1112.54 1560.63 Q1115.5 1557.16 1115.5 1551.43 L1115.5 1550.12 L1109.68 1550.12 M1121.36 1547.71 L1121.36 1568.04 L1115.5 1568.04 L1115.5 1562.63 Q1113.5 1565.88 1110.51 1567.44 Q1107.52 1568.97 1103.19 1568.97 Q1097.71 1568.97 1094.47 1565.91 Q1091.25 1562.82 1091.25 1557.67 Q1091.25 1551.65 1095.26 1548.6 Q1099.3 1545.54 1107.29 1545.54 L1115.5 1545.54 L1115.5 1544.97 Q1115.5 1540.93 1112.83 1538.73 Q1110.19 1536.5 1105.38 1536.5 Q1102.33 1536.5 1099.43 1537.23 Q1096.53 1537.97 1093.86 1539.43 L1093.86 1534.02 Q1097.08 1532.78 1100.1 1532.17 Q1103.12 1531.54 1105.99 1531.54 Q1113.72 1531.54 1117.54 1535.55 Q1121.36 1539.56 1121.36 1547.71 Z" fill="#000000" fill-rule="nonzero" fill-opacity="1" /><path clip-path="url(#clip940)" d="M1139.22 1522.27 L1139.22 1532.4 L1151.28 1532.4 L1151.28 1536.95 L1139.22 1536.95 L1139.22 1556.3 Q1139.22 1560.66 1140.39 1561.9 Q1141.6 1563.14 1145.26 1563.14 L1151.28 1563.14 L1151.28 1568.04 L1145.26 1568.04 Q1138.48 1568.04 1135.91 1565.53 Q1133.33 1562.98 1133.33 1556.3 L1133.33 1536.95 L1129.03 1536.95 L1129.03 1532.4 L1133.33 1532.4 L1133.33 1522.27 L1139.22 1522.27 Z" fill="#000000" fill-rule="nonzero" fill-opacity="1" /><path clip-path="url(#clip940)" d="M1210.19 1548.76 L1210.19 1551.62 L1183.27 1551.62 Q1183.65 1557.67 1186.9 1560.85 Q1190.17 1564 1196 1564 Q1199.37 1564 1202.52 1563.17 Q1205.71 1562.35 1208.83 1560.69 L1208.83 1566.23 Q1205.67 1567.57 1202.36 1568.27 Q1199.05 1568.97 1195.65 1568.97 Q1187.12 1568.97 1182.12 1564 Q1177.16 1559.04 1177.16 1550.57 Q1177.16 1541.82 1181.87 1536.69 Q1186.61 1531.54 1194.63 1531.54 Q1201.82 1531.54 1205.99 1536.18 Q1210.19 1540.8 1210.19 1548.76 M1204.34 1547.04 Q1204.27 1542.23 1201.63 1539.37 Q1199.02 1536.5 1194.69 1536.5 Q1189.79 1536.5 1186.83 1539.27 Q1183.9 1542.04 1183.46 1547.07 L1204.34 1547.04 Z" fill="#000000" fill-rule="nonzero" fill-opacity="1" /><path clip-path="url(#clip940)" d="M1248.29 1532.4 L1235.4 1549.74 L1248.96 1568.04 L1242.05 1568.04 L1231.68 1554.04 L1221.3 1568.04 L1214.4 1568.04 L1228.24 1549.39 L1215.57 1532.4 L1222.48 1532.4 L1231.93 1545.1 L1241.39 1532.4 L1248.29 1532.4 Z" fill="#000000" fill-rule="nonzero" fill-opacity="1" /><path clip-path="url(#clip940)" d="M1262.9 1562.7 L1262.9 1581.6 L1257.01 1581.6 L1257.01 1532.4 L1262.9 1532.4 L1262.9 1537.81 Q1264.75 1534.62 1267.55 1533.1 Q1270.38 1531.54 1274.3 1531.54 Q1280.79 1531.54 1284.83 1536.69 Q1288.91 1541.85 1288.91 1550.25 Q1288.91 1558.65 1284.83 1563.81 Q1280.79 1568.97 1274.3 1568.97 Q1270.38 1568.97 1267.55 1567.44 Q1264.75 1565.88 1262.9 1562.7 M1282.83 1550.25 Q1282.83 1543.79 1280.15 1540.13 Q1277.51 1536.44 1272.86 1536.44 Q1268.22 1536.44 1265.54 1540.13 Q1262.9 1543.79 1262.9 1550.25 Q1262.9 1556.71 1265.54 1560.4 Q1268.22 1564.07 1272.86 1564.07 Q1277.51 1564.07 1280.15 1560.4 Q1282.83 1556.71 1282.83 1550.25 Z" fill="#000000" fill-rule="nonzero" fill-opacity="1" /><path clip-path="url(#clip940)" d="M1298.61 1532.4 L1304.47 1532.4 L1304.47 1568.04 L1298.61 1568.04 L1298.61 1532.4 M1298.61 1518.52 L1304.47 1518.52 L1304.47 1525.93 L1298.61 1525.93 L1298.61 1518.52 Z" fill="#000000" fill-rule="nonzero" fill-opacity="1" /><path clip-path="url(#clip940)" d="M1337.38 1537.87 Q1336.39 1537.3 1335.22 1537.04 Q1334.07 1536.76 1332.67 1536.76 Q1327.71 1536.76 1325.03 1540 Q1322.39 1543.22 1322.39 1549.27 L1322.39 1568.04 L1316.5 1568.04 L1316.5 1532.4 L1322.39 1532.4 L1322.39 1537.93 Q1324.24 1534.69 1327.2 1533.13 Q1330.16 1531.54 1334.39 1531.54 Q1334.99 1531.54 1335.73 1531.63 Q1336.46 1531.7 1337.35 1531.85 L1337.38 1537.87 Z" fill="#000000" fill-rule="nonzero" fill-opacity="1" /><path clip-path="url(#clip940)" d="M1359.73 1550.12 Q1352.63 1550.12 1349.89 1551.75 Q1347.15 1553.37 1347.15 1557.29 Q1347.15 1560.4 1349.19 1562.25 Q1351.26 1564.07 1354.79 1564.07 Q1359.66 1564.07 1362.59 1560.63 Q1365.55 1557.16 1365.55 1551.43 L1365.55 1550.12 L1359.73 1550.12 M1371.41 1547.71 L1371.41 1568.04 L1365.55 1568.04 L1365.55 1562.63 Q1363.54 1565.88 1360.55 1567.44 Q1357.56 1568.97 1353.23 1568.97 Q1347.76 1568.97 1344.51 1565.91 Q1341.3 1562.82 1341.3 1557.67 Q1341.3 1551.65 1345.31 1548.6 Q1349.35 1545.54 1357.34 1545.54 L1365.55 1545.54 L1365.55 1544.97 Q1365.55 1540.93 1362.88 1538.73 Q1360.23 1536.5 1355.43 1536.5 Q1352.37 1536.5 1349.48 1537.23 Q1346.58 1537.97 1343.91 1539.43 L1343.91 1534.02 Q1347.12 1532.78 1350.14 1532.17 Q1353.17 1531.54 1356.03 1531.54 Q1363.77 1531.54 1367.59 1535.55 Q1371.41 1539.56 1371.41 1547.71 Z" fill="#000000" fill-rule="nonzero" fill-opacity="1" /><path clip-path="url(#clip940)" d="M1389.26 1522.27 L1389.26 1532.4 L1401.32 1532.4 L1401.32 1536.95 L1389.26 1536.95 L1389.26 1556.3 Q1389.26 1560.66 1390.44 1561.9 Q1391.65 1563.14 1395.31 1563.14 L1401.32 1563.14 L1401.32 1568.04 L1395.31 1568.04 Q1388.53 1568.04 1385.95 1565.53 Q1383.37 1562.98 1383.37 1556.3 L1383.37 1536.95 L1379.08 1536.95 L1379.08 1532.4 L1383.37 1532.4 L1383.37 1522.27 L1389.26 1522.27 Z" fill="#000000" fill-rule="nonzero" fill-opacity="1" /><path clip-path="url(#clip940)" d="M1409.03 1532.4 L1414.88 1532.4 L1414.88 1568.04 L1409.03 1568.04 L1409.03 1532.4 M1409.03 1518.52 L1414.88 1518.52 L1414.88 1525.93 L1409.03 1525.93 L1409.03 1518.52 Z" fill="#000000" fill-rule="nonzero" fill-opacity="1" /><path clip-path="url(#clip940)" d="M1440.95 1536.5 Q1436.24 1536.5 1433.5 1540.19 Q1430.77 1543.85 1430.77 1550.25 Q1430.77 1556.65 1433.47 1560.34 Q1436.21 1564 1440.95 1564 Q1445.63 1564 1448.37 1560.31 Q1451.1 1556.62 1451.1 1550.25 Q1451.1 1543.92 1448.37 1540.23 Q1445.63 1536.5 1440.95 1536.5 M1440.95 1531.54 Q1448.59 1531.54 1452.95 1536.5 Q1457.31 1541.47 1457.31 1550.25 Q1457.31 1559 1452.95 1564 Q1448.59 1568.97 1440.95 1568.97 Q1433.28 1568.97 1428.92 1564 Q1424.59 1559 1424.59 1550.25 Q1424.59 1541.47 1428.92 1536.5 Q1433.28 1531.54 1440.95 1531.54 Z" fill="#000000" fill-rule="nonzero" fill-opacity="1" /><path clip-path="url(#clip940)" d="M1496.65 1546.53 L1496.65 1568.04 L1490.79 1568.04 L1490.79 1546.72 Q1490.79 1541.66 1488.82 1539.14 Q1486.85 1536.63 1482.9 1536.63 Q1478.16 1536.63 1475.42 1539.65 Q1472.68 1542.68 1472.68 1547.9 L1472.68 1568.04 L1466.8 1568.04 L1466.8 1532.4 L1472.68 1532.4 L1472.68 1537.93 Q1474.79 1534.72 1477.62 1533.13 Q1480.48 1531.54 1484.21 1531.54 Q1490.35 1531.54 1493.5 1535.36 Q1496.65 1539.14 1496.65 1546.53 Z" fill="#000000" fill-rule="nonzero" fill-opacity="1" /><path clip-path="url(#clip940)" d="M1543.12 1518.58 Q1538.86 1525.9 1536.79 1533.06 Q1534.72 1540.23 1534.72 1547.58 Q1534.72 1554.93 1536.79 1562.16 Q1538.89 1569.35 1543.12 1576.64 L1538.03 1576.64 Q1533.25 1569.16 1530.87 1561.93 Q1528.51 1554.71 1528.51 1547.58 Q1528.51 1540.48 1530.87 1533.29 Q1533.22 1526.09 1538.03 1518.58 L1543.12 1518.58 Z" fill="#000000" fill-rule="nonzero" fill-opacity="1" /><path clip-path="url(#clip940)" d="M1554.01 1520.52 L1560.47 1520.52 L1560.47 1549.39 Q1560.47 1557.03 1563.24 1560.4 Q1566.01 1563.75 1572.21 1563.75 Q1578.39 1563.75 1581.16 1560.4 Q1583.93 1557.03 1583.93 1549.39 L1583.93 1520.52 L1590.39 1520.52 L1590.39 1550.19 Q1590.39 1559.48 1585.77 1564.22 Q1581.19 1568.97 1572.21 1568.97 Q1563.2 1568.97 1558.59 1564.22 Q1554.01 1559.48 1554.01 1550.19 L1554.01 1520.52 Z" fill="#000000" fill-rule="nonzero" fill-opacity="1" /><path clip-path="url(#clip940)" d="M1630.94 1522.08 L1630.94 1528.35 Q1627.28 1526.6 1624.03 1525.74 Q1620.78 1524.88 1617.76 1524.88 Q1612.51 1524.88 1609.64 1526.92 Q1606.81 1528.96 1606.81 1532.71 Q1606.81 1535.87 1608.69 1537.49 Q1610.6 1539.08 1615.88 1540.07 L1619.76 1540.86 Q1626.96 1542.23 1630.36 1545.7 Q1633.8 1549.14 1633.8 1554.93 Q1633.8 1561.84 1629.15 1565.4 Q1624.54 1568.97 1615.59 1568.97 Q1612.22 1568.97 1608.4 1568.2 Q1604.61 1567.44 1600.54 1565.94 L1600.54 1559.32 Q1604.45 1561.52 1608.21 1562.63 Q1611.97 1563.75 1615.59 1563.75 Q1621.1 1563.75 1624.09 1561.58 Q1627.08 1559.42 1627.08 1555.41 Q1627.08 1551.91 1624.92 1549.93 Q1622.79 1547.96 1617.89 1546.97 L1613.97 1546.21 Q1606.78 1544.78 1603.56 1541.72 Q1600.35 1538.67 1600.35 1533.22 Q1600.35 1526.92 1604.77 1523.29 Q1609.23 1519.66 1617.03 1519.66 Q1620.37 1519.66 1623.84 1520.27 Q1627.31 1520.87 1630.94 1522.08 Z" fill="#000000" fill-rule="nonzero" fill-opacity="1" /><path clip-path="url(#clip940)" d="M1650.26 1525.81 L1650.26 1562.76 L1658.02 1562.76 Q1667.86 1562.76 1672.41 1558.3 Q1676.99 1553.85 1676.99 1544.24 Q1676.99 1534.69 1672.41 1530.26 Q1667.86 1525.81 1658.02 1525.81 L1650.26 1525.81 M1643.83 1520.52 L1657.04 1520.52 Q1670.85 1520.52 1677.31 1526.28 Q1683.77 1532.01 1683.77 1544.24 Q1683.77 1556.52 1677.28 1562.28 Q1670.79 1568.04 1657.04 1568.04 L1643.83 1568.04 L1643.83 1520.52 Z" fill="#000000" fill-rule="nonzero" fill-opacity="1" /><path clip-path="url(#clip940)" d="M1704.17 1520.52 L1709.58 1520.52 L1693.03 1574.09 L1687.62 1574.09 L1704.17 1520.52 Z" fill="#000000" fill-rule="nonzero" fill-opacity="1" /><path clip-path="url(#clip940)" d="M1738.45 1533.45 L1738.45 1538.98 Q1735.97 1537.71 1733.3 1537.07 Q1730.62 1536.44 1727.76 1536.44 Q1723.4 1536.44 1721.2 1537.77 Q1719.04 1539.11 1719.04 1541.79 Q1719.04 1543.82 1720.6 1545 Q1722.16 1546.15 1726.87 1547.2 L1728.87 1547.64 Q1735.11 1548.98 1737.72 1551.43 Q1740.36 1553.85 1740.36 1558.21 Q1740.36 1563.17 1736.42 1566.07 Q1732.5 1568.97 1725.63 1568.97 Q1722.76 1568.97 1719.64 1568.39 Q1716.55 1567.85 1713.12 1566.74 L1713.12 1560.69 Q1716.36 1562.38 1719.51 1563.24 Q1722.67 1564.07 1725.75 1564.07 Q1729.89 1564.07 1732.12 1562.66 Q1734.35 1561.23 1734.35 1558.65 Q1734.35 1556.27 1732.72 1554.99 Q1731.13 1553.72 1725.69 1552.54 L1723.65 1552.07 Q1718.21 1550.92 1715.79 1548.56 Q1713.37 1546.18 1713.37 1542.04 Q1713.37 1537.01 1716.94 1534.27 Q1720.5 1531.54 1727.06 1531.54 Q1730.3 1531.54 1733.17 1532.01 Q1736.03 1532.49 1738.45 1533.45 Z" fill="#000000" fill-rule="nonzero" fill-opacity="1" /><path clip-path="url(#clip940)" d="M1779.32 1546.53 L1779.32 1568.04 L1773.46 1568.04 L1773.46 1546.72 Q1773.46 1541.66 1771.49 1539.14 Q1769.52 1536.63 1765.57 1536.63 Q1760.83 1536.63 1758.09 1539.65 Q1755.35 1542.68 1755.35 1547.9 L1755.35 1568.04 L1749.47 1568.04 L1749.47 1518.52 L1755.35 1518.52 L1755.35 1537.93 Q1757.45 1534.72 1760.29 1533.13 Q1763.15 1531.54 1766.88 1531.54 Q1773.02 1531.54 1776.17 1535.36 Q1779.32 1539.14 1779.32 1546.53 Z" fill="#000000" fill-rule="nonzero" fill-opacity="1" /><path clip-path="url(#clip940)" d="M1807.2 1550.12 Q1800.1 1550.12 1797.37 1551.75 Q1794.63 1553.37 1794.63 1557.29 Q1794.63 1560.4 1796.67 1562.25 Q1798.74 1564.07 1802.27 1564.07 Q1807.14 1564.07 1810.07 1560.63 Q1813.03 1557.16 1813.03 1551.43 L1813.03 1550.12 L1807.2 1550.12 M1818.88 1547.71 L1818.88 1568.04 L1813.03 1568.04 L1813.03 1562.63 Q1811.02 1565.88 1808.03 1567.44 Q1805.04 1568.97 1800.71 1568.97 Q1795.23 1568.97 1791.99 1565.91 Q1788.77 1562.82 1788.77 1557.67 Q1788.77 1551.65 1792.78 1548.6 Q1796.83 1545.54 1804.82 1545.54 L1813.03 1545.54 L1813.03 1544.97 Q1813.03 1540.93 1810.35 1538.73 Q1807.71 1536.5 1802.91 1536.5 Q1799.85 1536.5 1796.95 1537.23 Q1794.06 1537.97 1791.38 1539.43 L1791.38 1534.02 Q1794.6 1532.78 1797.62 1532.17 Q1800.65 1531.54 1803.51 1531.54 Q1811.24 1531.54 1815.06 1535.55 Q1818.88 1539.56 1818.88 1547.71 Z" fill="#000000" fill-rule="nonzero" fill-opacity="1" /><path clip-path="url(#clip940)" d="M1851.6 1537.87 Q1850.62 1537.3 1849.44 1537.04 Q1848.29 1536.76 1846.89 1536.76 Q1841.93 1536.76 1839.25 1540 Q1836.61 1543.22 1836.61 1549.27 L1836.61 1568.04 L1830.72 1568.04 L1830.72 1532.4 L1836.61 1532.4 L1836.61 1537.93 Q1838.46 1534.69 1841.42 1533.13 Q1844.38 1531.54 1848.61 1531.54 Q1849.22 1531.54 1849.95 1531.63 Q1850.68 1531.7 1851.57 1531.85 L1851.6 1537.87 Z" fill="#000000" fill-rule="nonzero" fill-opacity="1" /><path clip-path="url(#clip940)" d="M1886.81 1548.76 L1886.81 1551.62 L1859.88 1551.62 Q1860.26 1557.67 1863.51 1560.85 Q1866.79 1564 1872.61 1564 Q1875.98 1564 1879.13 1563.17 Q1882.32 1562.35 1885.44 1560.69 L1885.44 1566.23 Q1882.29 1567.57 1878.98 1568.27 Q1875.67 1568.97 1872.26 1568.97 Q1863.73 1568.97 1858.73 1564 Q1853.77 1559.04 1853.77 1550.57 Q1853.77 1541.82 1858.48 1536.69 Q1863.22 1531.54 1871.24 1531.54 Q1878.43 1531.54 1882.6 1536.18 Q1886.81 1540.8 1886.81 1548.76 M1880.95 1547.04 Q1880.89 1542.23 1878.24 1539.37 Q1875.63 1536.5 1871.31 1536.5 Q1866.4 1536.5 1863.44 1539.27 Q1860.52 1542.04 1860.07 1547.07 L1880.95 1547.04 Z" fill="#000000" fill-rule="nonzero" fill-opacity="1" /><path clip-path="url(#clip940)" d="M1895.49 1518.58 L1900.59 1518.58 Q1905.36 1526.09 1907.72 1533.29 Q1910.1 1540.48 1910.1 1547.58 Q1910.1 1554.71 1907.72 1561.93 Q1905.36 1569.16 1900.59 1576.64 L1895.49 1576.64 Q1899.73 1569.35 1901.8 1562.16 Q1903.9 1554.93 1903.9 1547.58 Q1903.9 1540.23 1901.8 1533.06 Q1899.73 1525.9 1895.49 1518.58 Z" fill="#000000" fill-rule="nonzero" fill-opacity="1" /><polyline clip-path="url(#clip942)" style="stroke:#000000; stroke-linecap:round; stroke-linejoin:round; stroke-width:2; stroke-opacity:0.1; fill:none" points="257.204,1325.72 2352.76,1325.72 "/>
<polyline clip-path="url(#clip942)" style="stroke:#000000; stroke-linecap:round; stroke-linejoin:round; stroke-width:2; stroke-opacity:0.1; fill:none" points="257.204,1059.73 2352.76,1059.73 "/>
<polyline clip-path="url(#clip942)" style="stroke:#000000; stroke-linecap:round; stroke-linejoin:round; stroke-width:2; stroke-opacity:0.1; fill:none" points="257.204,793.731 2352.76,793.731 "/>
<polyline clip-path="url(#clip942)" style="stroke:#000000; stroke-linecap:round; stroke-linejoin:round; stroke-width:2; stroke-opacity:0.1; fill:none" points="257.204,527.736 2352.76,527.736 "/>
<polyline clip-path="url(#clip942)" style="stroke:#000000; stroke-linecap:round; stroke-linejoin:round; stroke-width:2; stroke-opacity:0.1; fill:none" points="257.204,261.742 2352.76,261.742 "/>
<polyline clip-path="url(#clip940)" style="stroke:#000000; stroke-linecap:round; stroke-linejoin:round; stroke-width:4; stroke-opacity:1; fill:none" points="257.204,1423.18 257.204,47.2441 "/>
<polyline clip-path="url(#clip940)" style="stroke:#000000; stroke-linecap:round; stroke-linejoin:round; stroke-width:4; stroke-opacity:1; fill:none" points="2352.76,1423.18 2352.76,47.2441 "/>
<polyline clip-path="url(#clip940)" style="stroke:#000000; stroke-linecap:round; stroke-linejoin:round; stroke-width:4; stroke-opacity:1; fill:none" points="257.204,1325.72 276.102,1325.72 "/>
<polyline clip-path="url(#clip940)" style="stroke:#000000; stroke-linecap:round; stroke-linejoin:round; stroke-width:4; stroke-opacity:1; fill:none" points="257.204,1059.73 276.102,1059.73 "/>
<polyline clip-path="url(#clip940)" style="stroke:#000000; stroke-linecap:round; stroke-linejoin:round; stroke-width:4; stroke-opacity:1; fill:none" points="257.204,793.731 276.102,793.731 "/>
<polyline clip-path="url(#clip940)" style="stroke:#000000; stroke-linecap:round; stroke-linejoin:round; stroke-width:4; stroke-opacity:1; fill:none" points="257.204,527.736 276.102,527.736 "/>
<polyline clip-path="url(#clip940)" style="stroke:#000000; stroke-linecap:round; stroke-linejoin:round; stroke-width:4; stroke-opacity:1; fill:none" points="257.204,261.742 276.102,261.742 "/>
<path clip-path="url(#clip940)" d="M115.256 1326.17 L144.931 1326.17 L144.931 1330.11 L115.256 1330.11 L115.256 1326.17 Z" fill="#000000" fill-rule="nonzero" fill-opacity="1" /><path clip-path="url(#clip940)" d="M153.843 1308.44 L176.065 1308.44 L176.065 1310.43 L163.519 1343 L158.635 1343 L170.44 1312.37 L153.843 1312.37 L153.843 1308.44 Z" fill="#000000" fill-rule="nonzero" fill-opacity="1" /><path clip-path="url(#clip940)" d="M185.186 1337.12 L190.07 1337.12 L190.07 1343 L185.186 1343 L185.186 1337.12 Z" fill="#000000" fill-rule="nonzero" fill-opacity="1" /><path clip-path="url(#clip940)" d="M200.301 1308.44 L218.658 1308.44 L218.658 1312.37 L204.584 1312.37 L204.584 1320.85 Q205.602 1320.5 206.621 1320.34 Q207.639 1320.15 208.658 1320.15 Q214.445 1320.15 217.824 1323.32 Q221.204 1326.49 221.204 1331.91 Q221.204 1337.49 217.732 1340.59 Q214.26 1343.67 207.94 1343.67 Q205.764 1343.67 203.496 1343.3 Q201.25 1342.93 198.843 1342.19 L198.843 1337.49 Q200.926 1338.62 203.149 1339.18 Q205.371 1339.74 207.848 1339.74 Q211.852 1339.74 214.19 1337.63 Q216.528 1335.52 216.528 1331.91 Q216.528 1328.3 214.19 1326.19 Q211.852 1324.09 207.848 1324.09 Q205.973 1324.09 204.098 1324.5 Q202.246 1324.92 200.301 1325.8 L200.301 1308.44 Z" fill="#000000" fill-rule="nonzero" fill-opacity="1" /><path clip-path="url(#clip940)" d="M114.26 1060.18 L143.936 1060.18 L143.936 1064.11 L114.26 1064.11 L114.26 1060.18 Z" fill="#000000" fill-rule="nonzero" fill-opacity="1" /><path clip-path="url(#clip940)" d="M154.075 1042.45 L172.431 1042.45 L172.431 1046.38 L158.357 1046.38 L158.357 1054.85 Q159.376 1054.51 160.394 1054.34 Q161.413 1054.16 162.431 1054.16 Q168.218 1054.16 171.598 1057.33 Q174.977 1060.5 174.977 1065.92 Q174.977 1071.5 171.505 1074.6 Q168.033 1077.68 161.714 1077.68 Q159.538 1077.68 157.269 1077.31 Q155.024 1076.94 152.616 1076.19 L152.616 1071.5 Q154.7 1072.63 156.922 1073.19 Q159.144 1073.74 161.621 1073.74 Q165.626 1073.74 167.964 1071.63 Q170.302 1069.53 170.302 1065.92 Q170.302 1062.31 167.964 1060.2 Q165.626 1058.09 161.621 1058.09 Q159.746 1058.09 157.871 1058.51 Q156.019 1058.93 154.075 1059.81 L154.075 1042.45 Z" fill="#000000" fill-rule="nonzero" fill-opacity="1" /><path clip-path="url(#clip940)" d="M184.19 1071.13 L189.075 1071.13 L189.075 1077.01 L184.19 1077.01 L184.19 1071.13 Z" fill="#000000" fill-rule="nonzero" fill-opacity="1" /><path clip-path="url(#clip940)" d="M209.26 1045.52 Q205.649 1045.52 203.82 1049.09 Q202.014 1052.63 202.014 1059.76 Q202.014 1066.87 203.82 1070.43 Q205.649 1073.97 209.26 1073.97 Q212.894 1073.97 214.699 1070.43 Q216.528 1066.87 216.528 1059.76 Q216.528 1052.63 214.699 1049.09 Q212.894 1045.52 209.26 1045.52 M209.26 1041.82 Q215.07 1041.82 218.125 1046.43 Q221.204 1051.01 221.204 1059.76 Q221.204 1068.49 218.125 1073.09 Q215.07 1077.68 209.26 1077.68 Q203.449 1077.68 200.371 1073.09 Q197.315 1068.49 197.315 1059.76 Q197.315 1051.01 200.371 1046.43 Q203.449 1041.82 209.26 1041.82 Z" fill="#000000" fill-rule="nonzero" fill-opacity="1" /><path clip-path="url(#clip940)" d="M115.256 794.182 L144.931 794.182 L144.931 798.117 L115.256 798.117 L115.256 794.182 Z" fill="#000000" fill-rule="nonzero" fill-opacity="1" /><path clip-path="url(#clip940)" d="M159.052 807.076 L175.371 807.076 L175.371 811.011 L153.427 811.011 L153.427 807.076 Q156.089 804.321 160.672 799.691 Q165.278 795.039 166.459 793.696 Q168.704 791.173 169.584 789.437 Q170.487 787.678 170.487 785.988 Q170.487 783.233 168.542 781.497 Q166.621 779.761 163.519 779.761 Q161.32 779.761 158.866 780.525 Q156.436 781.289 153.658 782.84 L153.658 778.117 Q156.482 776.983 158.936 776.404 Q161.39 775.826 163.427 775.826 Q168.797 775.826 171.991 778.511 Q175.186 781.196 175.186 785.687 Q175.186 787.816 174.376 789.738 Q173.589 791.636 171.482 794.228 Q170.903 794.9 167.802 798.117 Q164.7 801.312 159.052 807.076 Z" fill="#000000" fill-rule="nonzero" fill-opacity="1" /><path clip-path="url(#clip940)" d="M185.186 805.131 L190.07 805.131 L190.07 811.011 L185.186 811.011 L185.186 805.131 Z" fill="#000000" fill-rule="nonzero" fill-opacity="1" /><path clip-path="url(#clip940)" d="M200.301 776.451 L218.658 776.451 L218.658 780.386 L204.584 780.386 L204.584 788.858 Q205.602 788.511 206.621 788.349 Q207.639 788.164 208.658 788.164 Q214.445 788.164 217.824 791.335 Q221.204 794.506 221.204 799.923 Q221.204 805.502 217.732 808.603 Q214.26 811.682 207.94 811.682 Q205.764 811.682 203.496 811.312 Q201.25 810.941 198.843 810.201 L198.843 805.502 Q200.926 806.636 203.149 807.191 Q205.371 807.747 207.848 807.747 Q211.852 807.747 214.19 805.64 Q216.528 803.534 216.528 799.923 Q216.528 796.312 214.19 794.205 Q211.852 792.099 207.848 792.099 Q205.973 792.099 204.098 792.515 Q202.246 792.932 200.301 793.812 L200.301 776.451 Z" fill="#000000" fill-rule="nonzero" fill-opacity="1" /><path clip-path="url(#clip940)" d="M164.028 513.535 Q160.417 513.535 158.589 517.1 Q156.783 520.641 156.783 527.771 Q156.783 534.878 158.589 538.442 Q160.417 541.984 164.028 541.984 Q167.663 541.984 169.468 538.442 Q171.297 534.878 171.297 527.771 Q171.297 520.641 169.468 517.1 Q167.663 513.535 164.028 513.535 M164.028 509.831 Q169.839 509.831 172.894 514.438 Q175.973 519.021 175.973 527.771 Q175.973 536.498 172.894 541.104 Q169.839 545.688 164.028 545.688 Q158.218 545.688 155.14 541.104 Q152.084 536.498 152.084 527.771 Q152.084 519.021 155.14 514.438 Q158.218 509.831 164.028 509.831 Z" fill="#000000" fill-rule="nonzero" fill-opacity="1" /><path clip-path="url(#clip940)" d="M184.19 539.137 L189.075 539.137 L189.075 545.016 L184.19 545.016 L184.19 539.137 Z" fill="#000000" fill-rule="nonzero" fill-opacity="1" /><path clip-path="url(#clip940)" d="M209.26 513.535 Q205.649 513.535 203.82 517.1 Q202.014 520.641 202.014 527.771 Q202.014 534.878 203.82 538.442 Q205.649 541.984 209.26 541.984 Q212.894 541.984 214.699 538.442 Q216.528 534.878 216.528 527.771 Q216.528 520.641 214.699 517.1 Q212.894 513.535 209.26 513.535 M209.26 509.831 Q215.07 509.831 218.125 514.438 Q221.204 519.021 221.204 527.771 Q221.204 536.498 218.125 541.104 Q215.07 545.688 209.26 545.688 Q203.449 545.688 200.371 541.104 Q197.315 536.498 197.315 527.771 Q197.315 519.021 200.371 514.438 Q203.449 509.831 209.26 509.831 Z" fill="#000000" fill-rule="nonzero" fill-opacity="1" /><path clip-path="url(#clip940)" d="M159.052 275.087 L175.371 275.087 L175.371 279.022 L153.427 279.022 L153.427 275.087 Q156.089 272.332 160.672 267.703 Q165.278 263.05 166.459 261.707 Q168.704 259.184 169.584 257.448 Q170.487 255.689 170.487 253.999 Q170.487 251.244 168.542 249.508 Q166.621 247.772 163.519 247.772 Q161.32 247.772 158.866 248.536 Q156.436 249.3 153.658 250.851 L153.658 246.129 Q156.482 244.994 158.936 244.416 Q161.39 243.837 163.427 243.837 Q168.797 243.837 171.991 246.522 Q175.186 249.207 175.186 253.698 Q175.186 255.828 174.376 257.749 Q173.589 259.647 171.482 262.24 Q170.903 262.911 167.802 266.129 Q164.7 269.323 159.052 275.087 Z" fill="#000000" fill-rule="nonzero" fill-opacity="1" /><path clip-path="url(#clip940)" d="M185.186 273.142 L190.07 273.142 L190.07 279.022 L185.186 279.022 L185.186 273.142 Z" fill="#000000" fill-rule="nonzero" fill-opacity="1" /><path clip-path="url(#clip940)" d="M200.301 244.462 L218.658 244.462 L218.658 248.397 L204.584 248.397 L204.584 256.869 Q205.602 256.522 206.621 256.36 Q207.639 256.175 208.658 256.175 Q214.445 256.175 217.824 259.346 Q221.204 262.517 221.204 267.934 Q221.204 273.513 217.732 276.615 Q214.26 279.693 207.94 279.693 Q205.764 279.693 203.496 279.323 Q201.25 278.953 198.843 278.212 L198.843 273.513 Q200.926 274.647 203.149 275.203 Q205.371 275.758 207.848 275.758 Q211.852 275.758 214.19 273.652 Q216.528 271.545 216.528 267.934 Q216.528 264.323 214.19 262.217 Q211.852 260.11 207.848 260.11 Q205.973 260.11 204.098 260.527 Q202.246 260.943 200.301 261.823 L200.301 244.462 Z" fill="#000000" fill-rule="nonzero" fill-opacity="1" /><path clip-path="url(#clip940)" d="M21.7677 1014.56 L39.6235 1014.56 L39.6235 1006.47 Q39.6235 1001.98 37.3 999.532 Q34.9765 997.081 30.6797 997.081 Q26.4147 997.081 24.0912 999.532 Q21.7677 1001.98 21.7677 1006.47 L21.7677 1014.56 M16.4842 1020.98 L16.4842 1006.47 Q16.4842 998.482 20.1126 994.408 Q23.7092 990.302 30.6797 990.302 Q37.7138 990.302 41.3104 994.408 Q44.907 998.482 44.907 1006.47 L44.907 1014.56 L64.0042 1014.56 L64.0042 1020.98 L16.4842 1020.98 Z" fill="#000000" fill-rule="nonzero" fill-opacity="1" /><path clip-path="url(#clip940)" d="M33.8307 962.42 Q33.2578 963.407 33.0032 964.584 Q32.7167 965.73 32.7167 967.131 Q32.7167 972.096 35.9632 974.769 Q39.1779 977.411 45.2253 977.411 L64.0042 977.411 L64.0042 983.299 L28.3562 983.299 L28.3562 977.411 L33.8944 977.411 Q30.6479 975.565 29.0883 972.605 Q27.4968 969.645 27.4968 965.412 Q27.4968 964.807 27.5923 964.075 Q27.656 963.343 27.8151 962.452 L33.8307 962.42 Z" fill="#000000" fill-rule="nonzero" fill-opacity="1" /><path clip-path="url(#clip940)" d="M32.4621 943.896 Q32.4621 948.606 36.1542 951.344 Q39.8145 954.081 46.212 954.081 Q52.6095 954.081 56.3017 951.375 Q59.9619 948.638 59.9619 943.896 Q59.9619 939.217 56.2698 936.48 Q52.5777 933.742 46.212 933.742 Q39.8781 933.742 36.186 936.48 Q32.4621 939.217 32.4621 943.896 M27.4968 943.896 Q27.4968 936.257 32.4621 931.896 Q37.4273 927.536 46.212 927.536 Q54.9649 927.536 59.9619 931.896 Q64.9272 936.257 64.9272 943.896 Q64.9272 951.566 59.9619 955.927 Q54.9649 960.256 46.212 960.256 Q37.4273 960.256 32.4621 955.927 Q27.4968 951.566 27.4968 943.896 Z" fill="#000000" fill-rule="nonzero" fill-opacity="1" /><path clip-path="url(#clip940)" d="M14.479 899.781 L19.3487 899.781 L19.3487 905.383 Q19.3487 908.534 20.6219 909.776 Q21.895 910.985 25.2052 910.985 L28.3562 910.985 L28.3562 901.341 L32.9077 901.341 L32.9077 910.985 L64.0042 910.985 L64.0042 916.873 L32.9077 916.873 L32.9077 922.475 L28.3562 922.475 L28.3562 916.873 L25.8736 916.873 Q19.9216 916.873 17.2162 914.104 Q14.479 911.335 14.479 905.32 L14.479 899.781 Z" fill="#000000" fill-rule="nonzero" fill-opacity="1" /><path clip-path="url(#clip940)" d="M28.3562 894.88 L28.3562 889.023 L64.0042 889.023 L64.0042 894.88 L28.3562 894.88 M14.479 894.88 L14.479 889.023 L21.895 889.023 L21.895 894.88 L14.479 894.88 Z" fill="#000000" fill-rule="nonzero" fill-opacity="1" /><path clip-path="url(#clip940)" d="M18.2347 870.977 L28.3562 870.977 L28.3562 858.914 L32.9077 858.914 L32.9077 870.977 L52.2594 870.977 Q56.6199 870.977 57.8613 869.799 Q59.1026 868.589 59.1026 864.929 L59.1026 858.914 L64.0042 858.914 L64.0042 864.929 Q64.0042 871.709 61.4897 874.287 Q58.9434 876.865 52.2594 876.865 L32.9077 876.865 L32.9077 881.162 L28.3562 881.162 L28.3562 876.865 L18.2347 876.865 L18.2347 870.977 Z" fill="#000000" fill-rule="nonzero" fill-opacity="1" /><path clip-path="url(#clip940)" d="M14.5426 816.422 Q21.8632 820.687 29.0246 822.756 Q36.186 824.825 43.5384 824.825 Q50.8908 824.825 58.1159 822.756 Q65.3091 820.656 72.5979 816.422 L72.5979 821.515 Q65.1182 826.289 57.8931 828.676 Q50.668 831.032 43.5384 831.032 Q36.4406 831.032 29.2474 828.676 Q22.0542 826.321 14.5426 821.515 L14.5426 816.422 Z" fill="#000000" fill-rule="nonzero" fill-opacity="1" /><path clip-path="url(#clip940)" d="M16.4842 805.537 L16.4842 799.076 L45.3526 799.076 Q52.9915 799.076 56.3653 796.307 Q59.7073 793.538 59.7073 787.331 Q59.7073 781.156 56.3653 778.387 Q52.9915 775.618 45.3526 775.618 L16.4842 775.618 L16.4842 769.157 L46.1484 769.157 Q55.4423 769.157 60.1847 773.772 Q64.9272 778.356 64.9272 787.331 Q64.9272 796.339 60.1847 800.954 Q55.4423 805.537 46.1484 805.537 L16.4842 805.537 Z" fill="#000000" fill-rule="nonzero" fill-opacity="1" /><path clip-path="url(#clip940)" d="M18.0438 728.608 L24.314 728.608 Q22.5634 732.268 21.704 735.514 Q20.8447 738.761 20.8447 741.785 Q20.8447 747.036 22.8817 749.901 Q24.9187 752.734 28.6745 752.734 Q31.8255 752.734 33.4488 750.856 Q35.0402 748.946 36.0269 743.662 L36.8226 739.779 Q38.1912 732.586 41.6605 729.18 Q45.098 725.743 50.8908 725.743 Q57.7976 725.743 61.3624 730.39 Q64.9272 735.005 64.9272 743.949 Q64.9272 747.323 64.1633 751.142 Q63.3994 754.93 61.9035 759.004 L55.2831 759.004 Q57.4793 755.089 58.5933 751.333 Q59.7073 747.577 59.7073 743.949 Q59.7073 738.443 57.543 735.451 Q55.3786 732.459 51.3682 732.459 Q47.8671 732.459 45.8937 734.623 Q43.9204 736.756 42.9337 741.657 L42.1698 745.572 Q40.7375 752.765 37.682 755.98 Q34.6264 759.195 29.1837 759.195 Q22.8817 759.195 19.2532 754.771 Q15.6248 750.315 15.6248 742.517 Q15.6248 739.175 16.2295 735.705 Q16.8343 732.236 18.0438 728.608 Z" fill="#000000" fill-rule="nonzero" fill-opacity="1" /><path clip-path="url(#clip940)" d="M21.7677 709.288 L58.7206 709.288 L58.7206 701.521 Q58.7206 691.686 54.2646 687.135 Q49.8086 682.552 40.1964 682.552 Q30.6479 682.552 26.2237 687.135 Q21.7677 691.686 21.7677 701.521 L21.7677 709.288 M16.4842 715.717 L16.4842 702.508 Q16.4842 688.695 22.2451 682.233 Q27.9743 675.772 40.1964 675.772 Q52.4822 675.772 58.2432 682.265 Q64.0042 688.758 64.0042 702.508 L64.0042 715.717 L16.4842 715.717 Z" fill="#000000" fill-rule="nonzero" fill-opacity="1" /><path clip-path="url(#clip940)" d="M16.4842 655.37 L16.4842 649.959 L70.0516 666.51 L70.0516 671.921 L16.4842 655.37 Z" fill="#000000" fill-rule="nonzero" fill-opacity="1" /><path clip-path="url(#clip940)" d="M29.4065 621.091 L34.9447 621.091 Q33.6716 623.573 33.035 626.247 Q32.3984 628.921 32.3984 631.785 Q32.3984 636.146 33.7352 638.342 Q35.072 640.506 37.7456 640.506 Q39.7826 640.506 40.9603 638.947 Q42.1061 637.387 43.1565 632.676 L43.6021 630.671 Q44.9389 624.433 47.3897 621.823 Q49.8086 619.181 54.1691 619.181 Q59.1344 619.181 62.0308 623.128 Q64.9272 627.043 64.9272 633.918 Q64.9272 636.782 64.3543 639.901 Q63.8132 642.989 62.6992 646.426 L56.6518 646.426 Q58.3387 643.18 59.198 640.029 Q60.0256 636.878 60.0256 633.79 Q60.0256 629.653 58.6251 627.425 Q57.1929 625.197 54.6147 625.197 Q52.2276 625.197 50.9545 626.82 Q49.6813 628.411 48.5037 633.854 L48.0262 635.891 Q46.8804 641.334 44.5251 643.753 Q42.138 646.172 38.0002 646.172 Q32.9713 646.172 30.2341 642.607 Q27.4968 639.042 27.4968 632.485 Q27.4968 629.239 27.9743 626.374 Q28.4517 623.51 29.4065 621.091 Z" fill="#000000" fill-rule="nonzero" fill-opacity="1" /><path clip-path="url(#clip940)" d="M42.4881 580.223 L64.0042 580.223 L64.0042 586.079 L42.679 586.079 Q37.6183 586.079 35.1038 588.053 Q32.5894 590.026 32.5894 593.973 Q32.5894 598.715 35.6131 601.453 Q38.6368 604.19 43.8567 604.19 L64.0042 604.19 L64.0042 610.078 L14.479 610.078 L14.479 604.19 L33.8944 604.19 Q30.6797 602.089 29.0883 599.256 Q27.4968 596.392 27.4968 592.668 Q27.4968 586.525 31.3163 583.374 Q35.1038 580.223 42.4881 580.223 Z" fill="#000000" fill-rule="nonzero" fill-opacity="1" /><path clip-path="url(#clip940)" d="M46.0847 552.341 Q46.0847 559.439 47.7079 562.176 Q49.3312 564.913 53.2461 564.913 Q56.3653 564.913 58.2114 562.876 Q60.0256 560.808 60.0256 557.275 Q60.0256 552.405 56.5881 549.477 Q53.1188 546.517 47.3897 546.517 L46.0847 546.517 L46.0847 552.341 M43.6657 540.66 L64.0042 540.66 L64.0042 546.517 L58.5933 546.517 Q61.8398 548.522 63.3994 551.514 Q64.9272 554.505 64.9272 558.834 Q64.9272 564.309 61.8716 567.555 Q58.7843 570.77 53.6281 570.77 Q47.6125 570.77 44.5569 566.759 Q41.5014 562.717 41.5014 554.728 L41.5014 546.517 L40.9285 546.517 Q36.8862 546.517 34.6901 549.19 Q32.4621 551.832 32.4621 556.638 Q32.4621 559.694 33.1941 562.59 Q33.9262 565.486 35.3903 568.16 L29.9795 568.16 Q28.7381 564.945 28.1334 561.922 Q27.4968 558.898 27.4968 556.033 Q27.4968 548.299 31.5072 544.479 Q35.5176 540.66 43.6657 540.66 Z" fill="#000000" fill-rule="nonzero" fill-opacity="1" /><path clip-path="url(#clip940)" d="M33.8307 507.94 Q33.2578 508.927 33.0032 510.105 Q32.7167 511.25 32.7167 512.651 Q32.7167 517.616 35.9632 520.29 Q39.1779 522.932 45.2253 522.932 L64.0042 522.932 L64.0042 528.82 L28.3562 528.82 L28.3562 522.932 L33.8944 522.932 Q30.6479 521.086 29.0883 518.125 Q27.4968 515.165 27.4968 510.932 Q27.4968 510.327 27.5923 509.595 Q27.656 508.863 27.8151 507.972 L33.8307 507.94 Z" fill="#000000" fill-rule="nonzero" fill-opacity="1" /><path clip-path="url(#clip940)" d="M44.7161 472.738 L47.5806 472.738 L47.5806 499.665 Q53.6281 499.283 56.8109 496.036 Q59.9619 492.758 59.9619 486.933 Q59.9619 483.56 59.1344 480.409 Q58.3069 477.226 56.6518 474.107 L62.1899 474.107 Q63.5267 477.258 64.227 480.568 Q64.9272 483.878 64.9272 487.284 Q64.9272 495.814 59.9619 500.811 Q54.9967 505.776 46.5303 505.776 Q37.7774 505.776 32.6531 501.065 Q27.4968 496.323 27.4968 488.302 Q27.4968 481.109 32.1438 476.939 Q36.7589 472.738 44.7161 472.738 M42.9973 478.594 Q38.1912 478.658 35.3266 481.3 Q32.4621 483.91 32.4621 488.238 Q32.4621 493.14 35.2312 496.1 Q38.0002 499.028 43.0292 499.474 L42.9973 478.594 Z" fill="#000000" fill-rule="nonzero" fill-opacity="1" /><path clip-path="url(#clip940)" d="M14.5426 464.049 L14.5426 458.956 Q22.0542 454.182 29.2474 451.827 Q36.4406 449.439 43.5384 449.439 Q50.668 449.439 57.8931 451.827 Q65.1182 454.182 72.5979 458.956 L72.5979 464.049 Q65.3091 459.816 58.1159 457.747 Q50.8908 455.646 43.5384 455.646 Q36.186 455.646 29.0246 457.747 Q21.8632 459.816 14.5426 464.049 Z" fill="#000000" fill-rule="nonzero" fill-opacity="1" /><polyline clip-path="url(#clip942)" style="stroke:#000000; stroke-linecap:round; stroke-linejoin:round; stroke-width:16; stroke-opacity:1; fill:none" points="316.512,1150.16 320.466,1139.52 324.42,1128.88 328.374,1118.24 332.328,1107.6 336.281,1096.96 340.235,1086.32 344.189,1075.68 348.143,1065.05 352.097,1054.41 356.051,1043.77 360.005,1033.13 363.959,1022.49 367.912,1011.85 371.866,1001.21 375.82,990.567 379.774,979.927 383.728,969.287 387.682,958.647 391.636,948.007 395.59,937.368 399.543,926.728 403.497,916.088 407.451,905.448 411.405,894.809 415.359,884.169 419.313,873.529 423.267,862.889 427.221,852.249 431.174,841.61 435.128,830.97 439.082,820.33 443.036,809.69 446.99,799.051 450.944,788.411 454.898,777.771 458.851,767.131 462.805,756.492 466.759,745.852 470.713,735.212 474.667,724.572 478.621,713.932 482.575,703.293 486.529,692.653 490.482,682.013 494.436,671.373 498.39,660.734 502.344,650.094 506.298,639.454 510.252,628.814 514.206,618.174 518.16,607.535 522.113,596.895 526.067,586.255 530.021,575.615 533.975,564.976 537.929,554.336 541.883,543.696 545.837,533.056 549.791,522.416 553.744,511.777 557.698,501.137 561.652,490.497 565.606,479.857 569.56,469.218 573.514,458.578 577.468,447.938 581.421,437.298 585.375,426.658 589.329,416.019 593.283,405.379 597.237,394.739 601.191,384.099 605.145,373.46 609.099,362.82 613.052,352.18 617.006,341.54 620.96,330.901 624.914,320.261 628.868,309.621 632.822,298.981 636.776,288.341 640.73,277.702 644.683,267.062 648.637,256.422 652.591,245.782 656.545,235.143 660.499,224.503 664.453,213.863 668.407,203.223 672.361,192.583 676.314,181.944 680.268,171.304 684.222,160.664 688.176,150.024 692.13,139.385 696.084,128.745 700.038,118.105 703.992,107.465 707.945,96.8254 711.899,86.1857 715.853,86.1857 719.807,86.1857 723.761,86.1857 727.715,86.1857 731.669,86.1857 735.622,86.1857 739.576,86.1857 743.53,86.1857 747.484,86.1857 751.438,86.1857 755.392,86.1857 759.346,86.1857 763.3,86.1857 767.253,86.1857 771.207,86.1857 775.161,86.1857 779.115,86.1857 783.069,86.1857 787.023,86.1857 790.977,86.1857 794.931,86.1857 798.884,86.1857 802.838,86.1857 806.792,86.1857 810.746,86.1857 814.7,86.1857 818.654,86.1857 822.608,86.1857 826.562,86.1857 830.515,86.1857 834.469,86.1857 838.423,86.1857 842.377,86.1857 846.331,86.1857 850.285,86.1857 854.239,86.1857 858.192,86.1857 862.146,86.1857 866.1,86.1857 870.054,86.1857 874.008,86.1857 877.962,86.1857 881.916,86.1857 885.87,86.1857 889.823,86.1857 893.777,86.1857 897.731,86.1857 901.685,86.1857 905.639,86.1857 909.593,86.1857 913.547,86.1857 917.501,86.1857 921.454,86.1857 925.408,86.1857 929.362,86.1857 933.316,86.1857 937.27,86.1857 941.224,86.1857 945.178,86.1857 949.132,86.1857 953.085,86.1857 957.039,86.1857 960.993,86.1857 964.947,86.1857 968.901,86.1857 972.855,86.1857 976.809,86.1857 980.763,86.1857 984.716,86.1857 988.67,86.1857 992.624,86.1857 996.578,86.1857 1000.53,86.1857 1004.49,86.1857 1008.44,86.1857 1012.39,86.1857 1016.35,86.1857 1020.3,86.1857 1024.26,86.1857 1028.21,86.1857 1032.16,86.1857 1036.12,86.1857 1040.07,86.1857 1044.02,86.1857 1047.98,86.1857 1051.93,86.1857 1055.89,86.1857 1059.84,86.1857 1063.79,86.1857 1067.75,86.1857 1071.7,86.1857 1075.66,86.1857 1079.61,86.1857 1083.56,86.1857 1087.52,86.1857 1091.47,86.1857 1095.42,86.1857 1099.38,86.1857 1103.33,86.1857 1107.29,86.1857 1111.24,86.1857 1115.19,86.1857 1119.15,86.1857 1123.1,86.1857 1127.06,86.1857 1131.01,86.1857 1134.96,86.1857 1138.92,86.1857 1142.87,86.1857 1146.83,86.1857 1150.78,86.1857 1154.73,86.1857 1158.69,86.1857 1162.64,86.1857 1166.59,86.1857 1170.55,86.1857 1174.5,86.1857 1178.46,86.1857 1182.41,86.1857 1186.36,86.1857 1190.32,86.1857 1194.27,86.1857 1198.23,86.1857 1202.18,86.1857 1206.13,86.1857 1210.09,86.1857 1214.04,86.1857 1217.99,86.1857 1221.95,86.1857 1225.9,86.1857 1229.86,86.1857 1233.81,86.1857 1237.76,86.1857 1241.72,86.1857 1245.67,86.1857 1249.63,86.1857 1253.58,86.1857 1257.53,86.1857 1261.49,86.1857 1265.44,86.1857 1269.4,86.1857 1273.35,86.1857 1277.3,86.1857 1281.26,86.1857 1285.21,86.1857 1289.16,86.1857 1293.12,86.1857 1297.07,86.1857 1301.03,86.1857 1304.98,86.1857 1308.93,86.1857 1312.89,86.1857 1316.84,86.1857 1320.8,86.1857 1324.75,86.1857 1328.7,86.1857 1332.66,86.1857 1336.61,86.1857 1340.56,86.1857 1344.52,86.1857 1348.47,86.1857 1352.43,86.1857 1356.38,86.1857 1360.33,86.1857 1364.29,86.1857 1368.24,86.1857 1372.2,86.1857 1376.15,86.1857 1380.1,86.1857 1384.06,86.1857 1388.01,86.1857 1391.97,86.1857 1395.92,86.1857 1399.87,86.1857 1403.83,86.1857 1407.78,86.1857 1411.73,86.1857 1415.69,86.1857 1419.64,86.1857 1423.6,86.1857 1427.55,86.1857 1431.5,86.1857 1435.46,86.1857 1439.41,86.1857 1443.37,86.1857 1447.32,86.1857 1451.27,86.1857 1455.23,86.1857 1459.18,86.1857 1463.13,86.1857 1467.09,86.1857 1471.04,86.1857 1475,86.1857 1478.95,86.1857 1482.9,86.1857 1486.86,86.1857 1490.81,86.1857 1494.77,86.1857 1498.72,86.1857 1502.67,86.1857 1506.63,86.1857 1510.58,86.1857 1514.54,86.1857 1518.49,86.1857 1522.44,86.1857 1526.4,86.1857 1530.35,86.1857 1534.3,86.1857 1538.26,86.1857 1542.21,86.1857 1546.17,86.1857 1550.12,86.1857 1554.07,86.1857 1558.03,86.1857 1561.98,86.1857 1565.94,86.1857 1569.89,86.1857 1573.84,86.1857 1577.8,86.1857 1581.75,86.1857 1585.7,86.1857 1589.66,86.1857 1593.61,86.1857 1597.57,86.1857 1601.52,86.1857 1605.47,86.1857 1609.43,86.1857 1613.38,86.1857 1617.34,86.1857 1621.29,86.1857 1625.24,86.1857 1629.2,86.1857 1633.15,86.1857 1637.11,86.1857 1641.06,86.1857 1645.01,86.1857 1648.97,86.1857 1652.92,86.1857 1656.87,86.1857 1660.83,86.1857 1664.78,86.1857 1668.74,86.1857 1672.69,86.1857 1676.64,86.1857 1680.6,86.1857 1684.55,86.1857 1688.51,86.1857 1692.46,86.1857 1696.41,86.1857 1700.37,86.1857 1704.32,86.1857 1708.27,86.1857 1712.23,86.1857 1716.18,86.1857 1720.14,86.1857 1724.09,86.1857 1728.04,86.1857 1732,86.1857 1735.95,86.1857 1739.91,86.1857 1743.86,86.1857 1747.81,86.1857 1751.77,86.1857 1755.72,86.1857 1759.68,86.1857 1763.63,86.1857 1767.58,86.1857 1771.54,86.1857 1775.49,86.1857 1779.44,86.1857 1783.4,86.1857 1787.35,86.1857 1791.31,86.1857 1795.26,86.1857 1799.21,86.1857 1803.17,86.1857 1807.12,86.1857 1811.08,86.1857 1815.03,86.1857 1818.98,86.1857 1822.94,86.1857 1826.89,86.1857 1830.84,86.1857 1834.8,86.1857 1838.75,86.1857 1842.71,86.1857 1846.66,86.1857 1850.61,86.1857 1854.57,86.1857 1858.52,86.1857 1862.48,86.1857 1866.43,86.1857 1870.38,86.1857 1874.34,86.1857 1878.29,86.1857 1882.25,86.1857 1886.2,86.1857 1890.15,86.1857 1894.11,86.1857 1898.06,86.1857 1902.01,96.8254 1905.97,107.465 1909.92,118.105 1913.88,128.745 1917.83,139.385 1921.78,150.024 1925.74,160.664 1929.69,171.304 1933.65,181.944 1937.6,192.583 1941.55,203.223 1945.51,213.863 1949.46,224.503 1953.41,235.143 1957.37,245.782 1961.32,256.422 1965.28,267.062 1969.23,277.702 1973.18,288.341 1977.14,298.981 1981.09,309.621 1985.05,320.261 1989,330.901 1992.95,341.54 1996.91,352.18 2000.86,362.82 2004.82,373.46 2008.77,384.099 2012.72,394.739 2016.68,405.379 2020.63,416.019 2024.58,426.658 2028.54,437.298 2032.49,447.938 2036.45,458.578 2040.4,469.218 2044.35,479.857 2048.31,490.497 2052.26,501.137 2056.22,511.777 2060.17,522.416 2064.12,533.056 2068.08,543.696 2072.03,554.336 2075.98,564.976 2079.94,575.615 2083.89,586.255 2087.85,596.895 2091.8,607.535 2095.75,618.174 2099.71,628.814 2103.66,639.454 2107.62,650.094 2111.57,660.734 2115.52,671.373 2119.48,682.013 2123.43,692.653 2127.39,703.293 2131.34,713.932 2135.29,724.572 2139.25,735.212 2143.2,745.852 2147.15,756.492 2151.11,767.131 2155.06,777.771 2159.02,788.411 2162.97,799.051 2166.92,809.69 2170.88,820.33 2174.83,830.97 2178.79,841.61 2182.74,852.249 2186.69,862.889 2190.65,873.529 2194.6,884.169 2198.55,894.809 2202.51,905.448 2206.46,916.088 2210.42,926.728 2214.37,937.368 2218.32,948.007 2222.28,958.647 2226.23,969.287 2230.19,979.927 2234.14,990.567 2238.09,1001.21 2242.05,1011.85 2246,1022.49 2249.96,1033.13 2253.91,1043.77 2257.86,1054.41 2261.82,1065.05 2265.77,1075.68 2269.72,1086.32 2273.68,1096.96 2277.63,1107.6 2281.59,1118.24 2285.54,1128.88 2289.49,1139.52 2293.45,1150.16 "/>
<polyline clip-path="url(#clip942)" style="stroke:#ff0000; stroke-linecap:round; stroke-linejoin:round; stroke-width:4; stroke-opacity:1; fill:none" stroke-dasharray="16, 10" points="316.512,1384.24 320.466,1373.6 324.42,1362.96 328.374,1352.32 332.328,1341.68 336.281,1331.04 340.235,1320.4 344.189,1309.76 348.143,1299.12 352.097,1288.48 356.051,1277.84 360.005,1267.2 363.959,1256.56 367.912,1245.92 371.866,1235.28 375.82,1224.64 379.774,1214 383.728,1203.36 387.682,1192.72 391.636,1182.08 395.59,1171.44 399.543,1160.8 403.497,1150.16 407.451,1139.52 411.405,1128.88 415.359,1118.24 419.313,1107.6 423.267,1096.96 427.221,1086.32 431.174,1075.68 435.128,1065.05 439.082,1054.41 443.036,1043.77 446.99,1033.13 450.944,1022.49 454.898,1011.85 458.851,1001.21 462.805,990.567 466.759,979.927 470.713,969.287 474.667,958.647 478.621,948.007 482.575,937.368 486.529,926.728 490.482,916.088 494.436,905.448 498.39,894.809 502.344,884.169 506.298,873.529 510.252,862.889 514.206,852.249 518.16,841.61 522.113,830.97 526.067,820.33 530.021,809.69 533.975,799.051 537.929,788.411 541.883,777.771 545.837,767.131 549.791,756.492 553.744,745.852 557.698,735.212 561.652,724.572 565.606,713.932 569.56,703.293 573.514,692.653 577.468,682.013 581.421,671.373 585.375,660.734 589.329,650.094 593.283,639.454 597.237,628.814 601.191,618.174 605.145,607.535 609.099,596.895 613.052,586.255 617.006,575.615 620.96,564.976 624.914,554.336 628.868,543.696 632.822,533.056 636.776,522.416 640.73,511.777 644.683,501.137 648.637,490.497 652.591,479.857 656.545,469.218 660.499,458.578 664.453,447.938 668.407,437.298 672.361,426.658 676.314,416.019 680.268,405.379 684.222,394.739 688.176,384.099 692.13,373.46 696.084,362.82 700.038,352.18 703.992,341.54 707.945,330.901 711.899,320.261 715.853,320.261 719.807,320.261 723.761,320.261 727.715,320.261 731.669,320.261 735.622,320.261 739.576,320.261 743.53,320.261 747.484,320.261 751.438,320.261 755.392,320.261 759.346,320.261 763.3,320.261 767.253,320.261 771.207,320.261 775.161,320.261 779.115,320.261 783.069,320.261 787.023,320.261 790.977,320.261 794.931,320.261 798.884,320.261 802.838,320.261 806.792,320.261 810.746,320.261 814.7,320.261 818.654,320.261 822.608,320.261 826.562,320.261 830.515,320.261 834.469,320.261 838.423,320.261 842.377,320.261 846.331,320.261 850.285,320.261 854.239,320.261 858.192,320.261 862.146,320.261 866.1,320.261 870.054,320.261 874.008,320.261 877.962,320.261 881.916,320.261 885.87,320.261 889.823,320.261 893.777,320.261 897.731,320.261 901.685,320.261 905.639,320.261 909.593,320.261 913.547,320.261 917.501,320.261 921.454,320.261 925.408,320.261 929.362,320.261 933.316,320.261 937.27,320.261 941.224,320.261 945.178,320.261 949.132,320.261 953.085,320.261 957.039,320.261 960.993,320.261 964.947,320.261 968.901,320.261 972.855,320.261 976.809,320.261 980.763,320.261 984.716,320.261 988.67,320.261 992.624,320.261 996.578,320.261 1000.53,320.261 1004.49,320.261 1008.44,320.261 1012.39,320.261 1016.35,320.261 1020.3,320.261 1024.26,320.261 1028.21,320.261 1032.16,320.261 1036.12,320.261 1040.07,320.261 1044.02,320.261 1047.98,320.261 1051.93,320.261 1055.89,320.261 1059.84,320.261 1063.79,320.261 1067.75,320.261 1071.7,320.261 1075.66,320.261 1079.61,320.261 1083.56,320.261 1087.52,320.261 1091.47,320.261 1095.42,320.261 1099.38,320.261 1103.33,320.261 1107.29,320.261 1111.24,320.261 1115.19,320.261 1119.15,320.261 1123.1,320.261 1127.06,320.261 1131.01,320.261 1134.96,320.261 1138.92,320.261 1142.87,320.261 1146.83,320.261 1150.78,320.261 1154.73,320.261 1158.69,320.261 1162.64,320.261 1166.59,320.261 1170.55,320.261 1174.5,320.261 1178.46,320.261 1182.41,320.261 1186.36,320.261 1190.32,320.261 1194.27,320.261 1198.23,320.261 1202.18,320.261 1206.13,320.261 1210.09,320.261 1214.04,320.261 1217.99,320.261 1221.95,320.261 1225.9,320.261 1229.86,320.261 1233.81,320.261 1237.76,320.261 1241.72,320.261 1245.67,320.261 1249.63,320.261 1253.58,320.261 1257.53,320.261 1261.49,320.261 1265.44,320.261 1269.4,320.261 1273.35,320.261 1277.3,320.261 1281.26,320.261 1285.21,320.261 1289.16,320.261 1293.12,320.261 1297.07,320.261 1301.03,320.261 1304.98,320.261 1308.93,320.261 1312.89,320.261 1316.84,320.261 1320.8,320.261 1324.75,320.261 1328.7,320.261 1332.66,320.261 1336.61,320.261 1340.56,320.261 1344.52,320.261 1348.47,320.261 1352.43,320.261 1356.38,320.261 1360.33,320.261 1364.29,320.261 1368.24,320.261 1372.2,320.261 1376.15,320.261 1380.1,320.261 1384.06,320.261 1388.01,320.261 1391.97,320.261 1395.92,320.261 1399.87,320.261 1403.83,320.261 1407.78,320.261 1411.73,320.261 1415.69,320.261 1419.64,320.261 1423.6,320.261 1427.55,320.261 1431.5,320.261 1435.46,320.261 1439.41,320.261 1443.37,320.261 1447.32,320.261 1451.27,320.261 1455.23,320.261 1459.18,320.261 1463.13,320.261 1467.09,320.261 1471.04,320.261 1475,320.261 1478.95,320.261 1482.9,320.261 1486.86,320.261 1490.81,320.261 1494.77,320.261 1498.72,320.261 1502.67,320.261 1506.63,320.261 1510.58,320.261 1514.54,320.261 1518.49,320.261 1522.44,320.261 1526.4,320.261 1530.35,320.261 1534.3,320.261 1538.26,320.261 1542.21,320.261 1546.17,320.261 1550.12,320.261 1554.07,320.261 1558.03,320.261 1561.98,320.261 1565.94,320.261 1569.89,320.261 1573.84,320.261 1577.8,320.261 1581.75,320.261 1585.7,320.261 1589.66,320.261 1593.61,320.261 1597.57,320.261 1601.52,320.261 1605.47,320.261 1609.43,320.261 1613.38,320.261 1617.34,320.261 1621.29,320.261 1625.24,320.261 1629.2,320.261 1633.15,320.261 1637.11,320.261 1641.06,320.261 1645.01,320.261 1648.97,320.261 1652.92,320.261 1656.87,320.261 1660.83,320.261 1664.78,320.261 1668.74,320.261 1672.69,320.261 1676.64,320.261 1680.6,320.261 1684.55,320.261 1688.51,320.261 1692.46,320.261 1696.41,320.261 1700.37,320.261 1704.32,320.261 1708.27,320.261 1712.23,320.261 1716.18,320.261 1720.14,320.261 1724.09,320.261 1728.04,320.261 1732,320.261 1735.95,320.261 1739.91,320.261 1743.86,320.261 1747.81,320.261 1751.77,320.261 1755.72,320.261 1759.68,320.261 1763.63,320.261 1767.58,320.261 1771.54,320.261 1775.49,320.261 1779.44,320.261 1783.4,320.261 1787.35,320.261 1791.31,320.261 1795.26,320.261 1799.21,320.261 1803.17,320.261 1807.12,320.261 1811.08,320.261 1815.03,320.261 1818.98,320.261 1822.94,320.261 1826.89,320.261 1830.84,320.261 1834.8,320.261 1838.75,320.261 1842.71,320.261 1846.66,320.261 1850.61,320.261 1854.57,320.261 1858.52,320.261 1862.48,320.261 1866.43,320.261 1870.38,320.261 1874.34,320.261 1878.29,320.261 1882.25,320.261 1886.2,320.261 1890.15,320.261 1894.11,320.261 1898.06,320.261 1902.01,320.261 1905.97,320.261 1909.92,320.261 1913.88,320.261 1917.83,320.261 1921.78,320.261 1925.74,320.261 1929.69,320.261 1933.65,320.261 1937.6,320.261 1941.55,320.261 1945.51,320.261 1949.46,320.261 1953.41,320.261 1957.37,320.261 1961.32,320.261 1965.28,320.261 1969.23,320.261 1973.18,320.261 1977.14,320.261 1981.09,320.261 1985.05,320.261 1989,320.261 1992.95,320.261 1996.91,320.261 2000.86,320.261 2004.82,320.261 2008.77,320.261 2012.72,320.261 2016.68,320.261 2020.63,320.261 2024.58,320.261 2028.54,320.261 2032.49,320.261 2036.45,320.261 2040.4,320.261 2044.35,320.261 2048.31,320.261 2052.26,320.261 2056.22,320.261 2060.17,320.261 2064.12,320.261 2068.08,320.261 2072.03,320.261 2075.98,320.261 2079.94,320.261 2083.89,320.261 2087.85,320.261 2091.8,320.261 2095.75,320.261 2099.71,320.261 2103.66,320.261 2107.62,320.261 2111.57,320.261 2115.52,320.261 2119.48,320.261 2123.43,320.261 2127.39,320.261 2131.34,320.261 2135.29,320.261 2139.25,320.261 2143.2,320.261 2147.15,320.261 2151.11,320.261 2155.06,320.261 2159.02,320.261 2162.97,320.261 2166.92,320.261 2170.88,320.261 2174.83,320.261 2178.79,320.261 2182.74,320.261 2186.69,320.261 2190.65,320.261 2194.6,320.261 2198.55,320.261 2202.51,320.261 2206.46,320.261 2210.42,320.261 2214.37,320.261 2218.32,320.261 2222.28,320.261 2226.23,320.261 2230.19,320.261 2234.14,320.261 2238.09,320.261 2242.05,320.261 2246,320.261 2249.96,320.261 2253.91,320.261 2257.86,320.261 2261.82,320.261 2265.77,320.261 2269.72,320.261 2273.68,320.261 2277.63,320.261 2281.59,320.261 2285.54,320.261 2289.49,320.261 2293.45,320.261 "/>
<polyline clip-path="url(#clip942)" style="stroke:#0000ff; stroke-linecap:round; stroke-linejoin:round; stroke-width:4; stroke-opacity:1; fill:none" stroke-dasharray="16, 10" points="316.512,293.661 320.466,293.661 324.42,293.661 328.374,293.661 332.328,293.661 336.281,293.661 340.235,293.661 344.189,293.661 348.143,293.661 352.097,293.661 356.051,293.661 360.005,293.661 363.959,293.661 367.912,293.661 371.866,293.661 375.82,293.661 379.774,293.661 383.728,293.661 387.682,293.661 391.636,293.661 395.59,293.661 399.543,293.661 403.497,293.661 407.451,293.661 411.405,293.661 415.359,293.661 419.313,293.661 423.267,293.661 427.221,293.661 431.174,293.661 435.128,293.661 439.082,293.661 443.036,293.661 446.99,293.661 450.944,293.661 454.898,293.661 458.851,293.661 462.805,293.661 466.759,293.661 470.713,293.661 474.667,293.661 478.621,293.661 482.575,293.661 486.529,293.661 490.482,293.661 494.436,293.661 498.39,293.661 502.344,293.661 506.298,293.661 510.252,293.661 514.206,293.661 518.16,293.661 522.113,293.661 526.067,293.661 530.021,293.661 533.975,293.661 537.929,293.661 541.883,293.661 545.837,293.661 549.791,293.661 553.744,293.661 557.698,293.661 561.652,293.661 565.606,293.661 569.56,293.661 573.514,293.661 577.468,293.661 581.421,293.661 585.375,293.661 589.329,293.661 593.283,293.661 597.237,293.661 601.191,293.661 605.145,293.661 609.099,293.661 613.052,293.661 617.006,293.661 620.96,293.661 624.914,293.661 628.868,293.661 632.822,293.661 636.776,293.661 640.73,293.661 644.683,293.661 648.637,293.661 652.591,293.661 656.545,293.661 660.499,293.661 664.453,293.661 668.407,293.661 672.361,293.661 676.314,293.661 680.268,293.661 684.222,293.661 688.176,293.661 692.13,293.661 696.084,293.661 700.038,293.661 703.992,293.661 707.945,293.661 711.899,293.661 715.853,293.661 719.807,293.661 723.761,293.661 727.715,293.661 731.669,293.661 735.622,293.661 739.576,293.661 743.53,293.661 747.484,293.661 751.438,293.661 755.392,293.661 759.346,293.661 763.3,293.661 767.253,293.661 771.207,293.661 775.161,293.661 779.115,293.661 783.069,293.661 787.023,293.661 790.977,293.661 794.931,293.661 798.884,293.661 802.838,293.661 806.792,293.661 810.746,293.661 814.7,293.661 818.654,293.661 822.608,293.661 826.562,293.661 830.515,293.661 834.469,293.661 838.423,293.661 842.377,293.661 846.331,293.661 850.285,293.661 854.239,293.661 858.192,293.661 862.146,293.661 866.1,293.661 870.054,293.661 874.008,293.661 877.962,293.661 881.916,293.661 885.87,293.661 889.823,293.661 893.777,293.661 897.731,293.661 901.685,293.661 905.639,293.661 909.593,293.661 913.547,293.661 917.501,293.661 921.454,293.661 925.408,293.661 929.362,293.661 933.316,293.661 937.27,293.661 941.224,293.661 945.178,293.661 949.132,293.661 953.085,293.661 957.039,293.661 960.993,293.661 964.947,293.661 968.901,293.661 972.855,293.661 976.809,293.661 980.763,293.661 984.716,293.661 988.67,293.661 992.624,293.661 996.578,293.661 1000.53,293.661 1004.49,293.661 1008.44,293.661 1012.39,293.661 1016.35,293.661 1020.3,293.661 1024.26,293.661 1028.21,293.661 1032.16,293.661 1036.12,293.661 1040.07,293.661 1044.02,293.661 1047.98,293.661 1051.93,293.661 1055.89,293.661 1059.84,293.661 1063.79,293.661 1067.75,293.661 1071.7,293.661 1075.66,293.661 1079.61,293.661 1083.56,293.661 1087.52,293.661 1091.47,293.661 1095.42,293.661 1099.38,293.661 1103.33,293.661 1107.29,293.661 1111.24,293.661 1115.19,293.661 1119.15,293.661 1123.1,293.661 1127.06,293.661 1131.01,293.661 1134.96,293.661 1138.92,293.661 1142.87,293.661 1146.83,293.661 1150.78,293.661 1154.73,293.661 1158.69,293.661 1162.64,293.661 1166.59,293.661 1170.55,293.661 1174.5,293.661 1178.46,293.661 1182.41,293.661 1186.36,293.661 1190.32,293.661 1194.27,293.661 1198.23,293.661 1202.18,293.661 1206.13,293.661 1210.09,293.661 1214.04,293.661 1217.99,293.661 1221.95,293.661 1225.9,293.661 1229.86,293.661 1233.81,293.661 1237.76,293.661 1241.72,293.661 1245.67,293.661 1249.63,293.661 1253.58,293.661 1257.53,293.661 1261.49,293.661 1265.44,293.661 1269.4,293.661 1273.35,293.661 1277.3,293.661 1281.26,293.661 1285.21,293.661 1289.16,293.661 1293.12,293.661 1297.07,293.661 1301.03,293.661 1304.98,293.661 1308.93,293.661 1312.89,293.661 1316.84,293.661 1320.8,293.661 1324.75,293.661 1328.7,293.661 1332.66,293.661 1336.61,293.661 1340.56,293.661 1344.52,293.661 1348.47,293.661 1352.43,293.661 1356.38,293.661 1360.33,293.661 1364.29,293.661 1368.24,293.661 1372.2,293.661 1376.15,293.661 1380.1,293.661 1384.06,293.661 1388.01,293.661 1391.97,293.661 1395.92,293.661 1399.87,293.661 1403.83,293.661 1407.78,293.661 1411.73,293.661 1415.69,293.661 1419.64,293.661 1423.6,293.661 1427.55,293.661 1431.5,293.661 1435.46,293.661 1439.41,293.661 1443.37,293.661 1447.32,293.661 1451.27,293.661 1455.23,293.661 1459.18,293.661 1463.13,293.661 1467.09,293.661 1471.04,293.661 1475,293.661 1478.95,293.661 1482.9,293.661 1486.86,293.661 1490.81,293.661 1494.77,293.661 1498.72,293.661 1502.67,293.661 1506.63,293.661 1510.58,293.661 1514.54,293.661 1518.49,293.661 1522.44,293.661 1526.4,293.661 1530.35,293.661 1534.3,293.661 1538.26,293.661 1542.21,293.661 1546.17,293.661 1550.12,293.661 1554.07,293.661 1558.03,293.661 1561.98,293.661 1565.94,293.661 1569.89,293.661 1573.84,293.661 1577.8,293.661 1581.75,293.661 1585.7,293.661 1589.66,293.661 1593.61,293.661 1597.57,293.661 1601.52,293.661 1605.47,293.661 1609.43,293.661 1613.38,293.661 1617.34,293.661 1621.29,293.661 1625.24,293.661 1629.2,293.661 1633.15,293.661 1637.11,293.661 1641.06,293.661 1645.01,293.661 1648.97,293.661 1652.92,293.661 1656.87,293.661 1660.83,293.661 1664.78,293.661 1668.74,293.661 1672.69,293.661 1676.64,293.661 1680.6,293.661 1684.55,293.661 1688.51,293.661 1692.46,293.661 1696.41,293.661 1700.37,293.661 1704.32,293.661 1708.27,293.661 1712.23,293.661 1716.18,293.661 1720.14,293.661 1724.09,293.661 1728.04,293.661 1732,293.661 1735.95,293.661 1739.91,293.661 1743.86,293.661 1747.81,293.661 1751.77,293.661 1755.72,293.661 1759.68,293.661 1763.63,293.661 1767.58,293.661 1771.54,293.661 1775.49,293.661 1779.44,293.661 1783.4,293.661 1787.35,293.661 1791.31,293.661 1795.26,293.661 1799.21,293.661 1803.17,293.661 1807.12,293.661 1811.08,293.661 1815.03,293.661 1818.98,293.661 1822.94,293.661 1826.89,293.661 1830.84,293.661 1834.8,293.661 1838.75,293.661 1842.71,293.661 1846.66,293.661 1850.61,293.661 1854.57,293.661 1858.52,293.661 1862.48,293.661 1866.43,293.661 1870.38,293.661 1874.34,293.661 1878.29,293.661 1882.25,293.661 1886.2,293.661 1890.15,293.661 1894.11,293.661 1898.06,293.661 1902.01,304.301 1905.97,314.941 1909.92,325.581 1913.88,336.22 1917.83,346.86 1921.78,357.5 1925.74,368.14 1929.69,378.779 1933.65,389.419 1937.6,400.059 1941.55,410.699 1945.51,421.339 1949.46,431.978 1953.41,442.618 1957.37,453.258 1961.32,463.898 1965.28,474.537 1969.23,485.177 1973.18,495.817 1977.14,506.457 1981.09,517.097 1985.05,527.736 1989,538.376 1992.95,549.016 1996.91,559.656 2000.86,570.295 2004.82,580.935 2008.77,591.575 2012.72,602.215 2016.68,612.855 2020.63,623.494 2024.58,634.134 2028.54,644.774 2032.49,655.414 2036.45,666.053 2040.4,676.693 2044.35,687.333 2048.31,697.973 2052.26,708.613 2056.22,719.252 2060.17,729.892 2064.12,740.532 2068.08,751.172 2072.03,761.811 2075.98,772.451 2079.94,783.091 2083.89,793.731 2087.85,804.371 2091.8,815.01 2095.75,825.65 2099.71,836.29 2103.66,846.93 2107.62,857.569 2111.57,868.209 2115.52,878.849 2119.48,889.489 2123.43,900.128 2127.39,910.768 2131.34,921.408 2135.29,932.048 2139.25,942.688 2143.2,953.327 2147.15,963.967 2151.11,974.607 2155.06,985.247 2159.02,995.886 2162.97,1006.53 2166.92,1017.17 2170.88,1027.81 2174.83,1038.45 2178.79,1049.09 2182.74,1059.73 2186.69,1070.36 2190.65,1081 2194.6,1091.64 2198.55,1102.28 2202.51,1112.92 2206.46,1123.56 2210.42,1134.2 2214.37,1144.84 2218.32,1155.48 2222.28,1166.12 2226.23,1176.76 2230.19,1187.4 2234.14,1198.04 2238.09,1208.68 2242.05,1219.32 2246,1229.96 2249.96,1240.6 2253.91,1251.24 2257.86,1261.88 2261.82,1272.52 2265.77,1283.16 2269.72,1293.8 2273.68,1304.44 2277.63,1315.08 2281.59,1325.72 2285.54,1336.36 2289.49,1347 2293.45,1357.64 "/>
<polyline clip-path="url(#clip942)" style="stroke:#b3b3b3; stroke-linecap:round; stroke-linejoin:round; stroke-width:12; stroke-opacity:1; fill:none" points="316.512,527.736 320.466,527.736 324.42,527.736 328.374,527.736 332.328,527.736 336.281,527.736 340.235,527.736 344.189,527.736 348.143,527.736 352.097,527.736 356.051,527.736 360.005,527.736 363.959,527.736 367.912,527.736 371.866,527.736 375.82,527.736 379.774,527.736 383.728,527.736 387.682,527.736 391.636,527.736 395.59,527.736 399.543,527.736 403.497,527.736 407.451,527.736 411.405,527.736 415.359,527.736 419.313,527.736 423.267,527.736 427.221,527.736 431.174,527.736 435.128,527.736 439.082,527.736 443.036,527.736 446.99,527.736 450.944,527.736 454.898,527.736 458.851,527.736 462.805,527.736 466.759,527.736 470.713,527.736 474.667,527.736 478.621,527.736 482.575,527.736 486.529,527.736 490.482,527.736 494.436,527.736 498.39,527.736 502.344,527.736 506.298,527.736 510.252,527.736 514.206,527.736 518.16,527.736 522.113,527.736 526.067,527.736 530.021,527.736 533.975,527.736 537.929,527.736 541.883,527.736 545.837,527.736 549.791,527.736 553.744,527.736 557.698,527.736 561.652,527.736 565.606,527.736 569.56,527.736 573.514,527.736 577.468,527.736 581.421,527.736 585.375,527.736 589.329,527.736 593.283,527.736 597.237,527.736 601.191,527.736 605.145,527.736 609.099,527.736 613.052,527.736 617.006,527.736 620.96,527.736 624.914,527.736 628.868,527.736 632.822,527.736 636.776,527.736 640.73,527.736 644.683,527.736 648.637,527.736 652.591,527.736 656.545,527.736 660.499,527.736 664.453,527.736 668.407,527.736 672.361,527.736 676.314,527.736 680.268,527.736 684.222,527.736 688.176,527.736 692.13,527.736 696.084,527.736 700.038,527.736 703.992,527.736 707.945,527.736 711.899,527.736 715.853,527.736 719.807,527.736 723.761,527.736 727.715,527.736 731.669,527.736 735.622,527.736 739.576,527.736 743.53,527.736 747.484,527.736 751.438,527.736 755.392,527.736 759.346,527.736 763.3,527.736 767.253,527.736 771.207,527.736 775.161,527.736 779.115,527.736 783.069,527.736 787.023,527.736 790.977,527.736 794.931,527.736 798.884,527.736 802.838,527.736 806.792,527.736 810.746,527.736 814.7,527.736 818.654,527.736 822.608,527.736 826.562,527.736 830.515,527.736 834.469,527.736 838.423,527.736 842.377,527.736 846.331,527.736 850.285,527.736 854.239,527.736 858.192,527.736 862.146,527.736 866.1,527.736 870.054,527.736 874.008,527.736 877.962,527.736 881.916,527.736 885.87,527.736 889.823,527.736 893.777,527.736 897.731,527.736 901.685,527.736 905.639,527.736 909.593,527.736 913.547,527.736 917.501,527.736 921.454,527.736 925.408,527.736 929.362,527.736 933.316,527.736 937.27,527.736 941.224,527.736 945.178,527.736 949.132,527.736 953.085,527.736 957.039,527.736 960.993,527.736 964.947,527.736 968.901,527.736 972.855,527.736 976.809,527.736 980.763,527.736 984.716,527.736 988.67,527.736 992.624,527.736 996.578,527.736 1000.53,527.736 1004.49,527.736 1008.44,527.736 1012.39,527.736 1016.35,527.736 1020.3,527.736 1024.26,527.736 1028.21,527.736 1032.16,527.736 1036.12,527.736 1040.07,527.736 1044.02,527.736 1047.98,527.736 1051.93,527.736 1055.89,527.736 1059.84,527.736 1063.79,527.736 1067.75,527.736 1071.7,527.736 1075.66,527.736 1079.61,527.736 1083.56,527.736 1087.52,527.736 1091.47,527.736 1095.42,527.736 1099.38,527.736 1103.33,527.736 1107.29,527.736 1111.24,527.736 1115.19,527.736 1119.15,527.736 1123.1,527.736 1127.06,527.736 1131.01,527.736 1134.96,527.736 1138.92,527.736 1142.87,527.736 1146.83,527.736 1150.78,527.736 1154.73,527.736 1158.69,527.736 1162.64,527.736 1166.59,527.736 1170.55,527.736 1174.5,527.736 1178.46,527.736 1182.41,527.736 1186.36,527.736 1190.32,527.736 1194.27,527.736 1198.23,527.736 1202.18,527.736 1206.13,527.736 1210.09,527.736 1214.04,527.736 1217.99,527.736 1221.95,527.736 1225.9,527.736 1229.86,527.736 1233.81,527.736 1237.76,527.736 1241.72,527.736 1245.67,527.736 1249.63,527.736 1253.58,527.736 1257.53,527.736 1261.49,527.736 1265.44,527.736 1269.4,527.736 1273.35,527.736 1277.3,527.736 1281.26,527.736 1285.21,527.736 1289.16,527.736 1293.12,527.736 1297.07,527.736 1301.03,527.736 1304.98,527.736 1308.93,527.736 1312.89,527.736 1316.84,527.736 1320.8,527.736 1324.75,527.736 1328.7,527.736 1332.66,527.736 1336.61,527.736 1340.56,527.736 1344.52,527.736 1348.47,527.736 1352.43,527.736 1356.38,527.736 1360.33,527.736 1364.29,527.736 1368.24,527.736 1372.2,527.736 1376.15,527.736 1380.1,527.736 1384.06,527.736 1388.01,527.736 1391.97,527.736 1395.92,527.736 1399.87,527.736 1403.83,527.736 1407.78,527.736 1411.73,527.736 1415.69,527.736 1419.64,527.736 1423.6,527.736 1427.55,527.736 1431.5,527.736 1435.46,527.736 1439.41,527.736 1443.37,527.736 1447.32,527.736 1451.27,527.736 1455.23,527.736 1459.18,527.736 1463.13,527.736 1467.09,527.736 1471.04,527.736 1475,527.736 1478.95,527.736 1482.9,527.736 1486.86,527.736 1490.81,527.736 1494.77,527.736 1498.72,527.736 1502.67,527.736 1506.63,527.736 1510.58,527.736 1514.54,527.736 1518.49,527.736 1522.44,527.736 1526.4,527.736 1530.35,527.736 1534.3,527.736 1538.26,527.736 1542.21,527.736 1546.17,527.736 1550.12,527.736 1554.07,527.736 1558.03,527.736 1561.98,527.736 1565.94,527.736 1569.89,527.736 1573.84,527.736 1577.8,527.736 1581.75,527.736 1585.7,527.736 1589.66,527.736 1593.61,527.736 1597.57,527.736 1601.52,527.736 1605.47,527.736 1609.43,527.736 1613.38,527.736 1617.34,527.736 1621.29,527.736 1625.24,527.736 1629.2,527.736 1633.15,527.736 1637.11,527.736 1641.06,527.736 1645.01,527.736 1648.97,527.736 1652.92,527.736 1656.87,527.736 1660.83,527.736 1664.78,527.736 1668.74,527.736 1672.69,527.736 1676.64,527.736 1680.6,527.736 1684.55,527.736 1688.51,527.736 1692.46,527.736 1696.41,527.736 1700.37,527.736 1704.32,527.736 1708.27,527.736 1712.23,527.736 1716.18,527.736 1720.14,527.736 1724.09,527.736 1728.04,527.736 1732,527.736 1735.95,527.736 1739.91,527.736 1743.86,527.736 1747.81,527.736 1751.77,527.736 1755.72,527.736 1759.68,527.736 1763.63,527.736 1767.58,527.736 1771.54,527.736 1775.49,527.736 1779.44,527.736 1783.4,527.736 1787.35,527.736 1791.31,527.736 1795.26,527.736 1799.21,527.736 1803.17,527.736 1807.12,527.736 1811.08,527.736 1815.03,527.736 1818.98,527.736 1822.94,527.736 1826.89,527.736 1830.84,527.736 1834.8,527.736 1838.75,527.736 1842.71,527.736 1846.66,527.736 1850.61,527.736 1854.57,527.736 1858.52,527.736 1862.48,527.736 1866.43,527.736 1870.38,527.736 1874.34,527.736 1878.29,527.736 1882.25,527.736 1886.2,527.736 1890.15,527.736 1894.11,527.736 1898.06,527.736 1902.01,527.736 1905.97,527.736 1909.92,527.736 1913.88,527.736 1917.83,527.736 1921.78,527.736 1925.74,527.736 1929.69,527.736 1933.65,527.736 1937.6,527.736 1941.55,527.736 1945.51,527.736 1949.46,527.736 1953.41,527.736 1957.37,527.736 1961.32,527.736 1965.28,527.736 1969.23,527.736 1973.18,527.736 1977.14,527.736 1981.09,527.736 1985.05,527.736 1989,527.736 1992.95,527.736 1996.91,527.736 2000.86,527.736 2004.82,527.736 2008.77,527.736 2012.72,527.736 2016.68,527.736 2020.63,527.736 2024.58,527.736 2028.54,527.736 2032.49,527.736 2036.45,527.736 2040.4,527.736 2044.35,527.736 2048.31,527.736 2052.26,527.736 2056.22,527.736 2060.17,527.736 2064.12,527.736 2068.08,527.736 2072.03,527.736 2075.98,527.736 2079.94,527.736 2083.89,527.736 2087.85,527.736 2091.8,527.736 2095.75,527.736 2099.71,527.736 2103.66,527.736 2107.62,527.736 2111.57,527.736 2115.52,527.736 2119.48,527.736 2123.43,527.736 2127.39,527.736 2131.34,527.736 2135.29,527.736 2139.25,527.736 2143.2,527.736 2147.15,527.736 2151.11,527.736 2155.06,527.736 2159.02,527.736 2162.97,527.736 2166.92,527.736 2170.88,527.736 2174.83,527.736 2178.79,527.736 2182.74,527.736 2186.69,527.736 2190.65,527.736 2194.6,527.736 2198.55,527.736 2202.51,527.736 2206.46,527.736 2210.42,527.736 2214.37,527.736 2218.32,527.736 2222.28,527.736 2226.23,527.736 2230.19,527.736 2234.14,527.736 2238.09,527.736 2242.05,527.736 2246,527.736 2249.96,527.736 2253.91,527.736 2257.86,527.736 2261.82,527.736 2265.77,527.736 2269.72,527.736 2273.68,527.736 2277.63,527.736 2281.59,527.736 2285.54,527.736 2289.49,527.736 2293.45,527.736 "/>
<circle clip-path="url(#clip942)" cx="2062.15" cy="527.736" r="18" fill="#ffffff" fill-rule="evenodd" fill-opacity="1" stroke="#000000" stroke-opacity="1" stroke-width="3.2"/>
<circle clip-path="url(#clip942)" cx="547.814" cy="527.736" r="18" fill="#ffffff" fill-rule="evenodd" fill-opacity="1" stroke="#000000" stroke-opacity="1" stroke-width="3.2"/>
<path clip-path="url(#clip940)" d="M1078.85 1377.32 L1531.11 1377.32 L1531.11 1118.12 L1078.85 1118.12  Z" fill="#eee9e9" fill-rule="evenodd" fill-opacity="1"/>
<polyline clip-path="url(#clip940)" style="stroke:#000000; stroke-linecap:round; stroke-linejoin:round; stroke-width:4; stroke-opacity:0; fill:none" points="1078.85,1377.32 1531.11,1377.32 1531.11,1118.12 1078.85,1118.12 1078.85,1377.32 "/>
<polyline clip-path="url(#clip940)" style="stroke:#000000; stroke-linecap:round; stroke-linejoin:round; stroke-width:16; stroke-opacity:1; fill:none" points="1102.13,1169.96 1241.84,1169.96 "/>
<path clip-path="url(#clip940)" d="M1269.8 1156.52 L1269.8 1169.5 L1275.68 1169.5 Q1278.94 1169.5 1280.72 1167.81 Q1282.5 1166.12 1282.5 1163 Q1282.5 1159.9 1280.72 1158.21 Q1278.94 1156.52 1275.68 1156.52 L1269.8 1156.52 M1265.12 1152.68 L1275.68 1152.68 Q1281.49 1152.68 1284.45 1155.31 Q1287.43 1157.93 1287.43 1163 Q1287.43 1168.12 1284.45 1170.73 Q1281.49 1173.35 1275.68 1173.35 L1269.8 1173.35 L1269.8 1187.24 L1265.12 1187.24 L1265.12 1152.68 Z" fill="#000000" fill-rule="nonzero" fill-opacity="1" /><path clip-path="url(#clip940)" d="M1307.71 1165.29 Q1306.99 1164.87 1306.14 1164.69 Q1305.31 1164.48 1304.29 1164.48 Q1300.68 1164.48 1298.73 1166.84 Q1296.81 1169.18 1296.81 1173.58 L1296.81 1187.24 L1292.53 1187.24 L1292.53 1161.31 L1296.81 1161.31 L1296.81 1165.34 Q1298.15 1162.98 1300.31 1161.84 Q1302.46 1160.68 1305.54 1160.68 Q1305.98 1160.68 1306.51 1160.75 Q1307.04 1160.8 1307.69 1160.92 L1307.71 1165.29 Z" fill="#000000" fill-rule="nonzero" fill-opacity="1" /><path clip-path="url(#clip940)" d="M1321.18 1164.3 Q1317.76 1164.3 1315.77 1166.98 Q1313.78 1169.64 1313.78 1174.3 Q1313.78 1178.95 1315.74 1181.63 Q1317.74 1184.3 1321.18 1184.3 Q1324.59 1184.3 1326.58 1181.61 Q1328.57 1178.93 1328.57 1174.3 Q1328.57 1169.69 1326.58 1167 Q1324.59 1164.3 1321.18 1164.3 M1321.18 1160.68 Q1326.74 1160.68 1329.91 1164.3 Q1333.08 1167.91 1333.08 1174.3 Q1333.08 1180.66 1329.91 1184.3 Q1326.74 1187.91 1321.18 1187.91 Q1315.61 1187.91 1312.43 1184.3 Q1309.29 1180.66 1309.29 1174.3 Q1309.29 1167.91 1312.43 1164.3 Q1315.61 1160.68 1321.18 1160.68 Z" fill="#000000" fill-rule="nonzero" fill-opacity="1" /><path clip-path="url(#clip940)" d="M1353.27 1151.22 L1353.27 1154.76 L1349.19 1154.76 Q1346.9 1154.76 1346 1155.68 Q1345.12 1156.61 1345.12 1159.02 L1345.12 1161.31 L1352.13 1161.31 L1352.13 1164.62 L1345.12 1164.62 L1345.12 1187.24 L1340.84 1187.24 L1340.84 1164.62 L1336.76 1164.62 L1336.76 1161.31 L1340.84 1161.31 L1340.84 1159.5 Q1340.84 1155.18 1342.85 1153.21 Q1344.87 1151.22 1349.24 1151.22 L1353.27 1151.22 Z" fill="#000000" fill-rule="nonzero" fill-opacity="1" /><path clip-path="url(#clip940)" d="M1356.83 1161.31 L1361.09 1161.31 L1361.09 1187.24 L1356.83 1187.24 L1356.83 1161.31 M1356.83 1151.22 L1361.09 1151.22 L1361.09 1156.61 L1356.83 1156.61 L1356.83 1151.22 Z" fill="#000000" fill-rule="nonzero" fill-opacity="1" /><path clip-path="url(#clip940)" d="M1374.22 1153.95 L1374.22 1161.31 L1382.99 1161.31 L1382.99 1164.62 L1374.22 1164.62 L1374.22 1178.69 Q1374.22 1181.86 1375.07 1182.77 Q1375.95 1183.67 1378.61 1183.67 L1382.99 1183.67 L1382.99 1187.24 L1378.61 1187.24 Q1373.68 1187.24 1371.81 1185.41 Q1369.93 1183.55 1369.93 1178.69 L1369.93 1164.62 L1366.81 1164.62 L1366.81 1161.31 L1369.93 1161.31 L1369.93 1153.95 L1374.22 1153.95 Z" fill="#000000" fill-rule="nonzero" fill-opacity="1" /><polyline clip-path="url(#clip940)" style="stroke:#ff0000; stroke-linecap:round; stroke-linejoin:round; stroke-width:4; stroke-opacity:1; fill:none" stroke-dasharray="16, 10" points="1102.13,1221.8 1241.84,1221.8 "/>
<path clip-path="url(#clip940)" d="M1269.8 1208.36 L1269.8 1221.34 L1275.68 1221.34 Q1278.94 1221.34 1280.72 1219.65 Q1282.5 1217.96 1282.5 1214.84 Q1282.5 1211.74 1280.72 1210.05 Q1278.94 1208.36 1275.68 1208.36 L1269.8 1208.36 M1265.12 1204.52 L1275.68 1204.52 Q1281.49 1204.52 1284.45 1207.15 Q1287.43 1209.77 1287.43 1214.84 Q1287.43 1219.96 1284.45 1222.57 Q1281.49 1225.19 1275.68 1225.19 L1269.8 1225.19 L1269.8 1239.08 L1265.12 1239.08 L1265.12 1204.52 Z" fill="#000000" fill-rule="nonzero" fill-opacity="1" /><path clip-path="url(#clip940)" d="M1292.25 1228.84 L1292.25 1213.15 L1296.51 1213.15 L1296.51 1228.68 Q1296.51 1232.36 1297.94 1234.21 Q1299.38 1236.04 1302.25 1236.04 Q1305.7 1236.04 1307.69 1233.84 Q1309.7 1231.64 1309.7 1227.85 L1309.7 1213.15 L1313.96 1213.15 L1313.96 1239.08 L1309.7 1239.08 L1309.7 1235.09 Q1308.15 1237.45 1306.09 1238.61 Q1304.06 1239.75 1301.35 1239.75 Q1296.88 1239.75 1294.56 1236.97 Q1292.25 1234.19 1292.25 1228.84 M1302.97 1212.52 L1302.97 1212.52 Z" fill="#000000" fill-rule="nonzero" fill-opacity="1" /><path clip-path="url(#clip940)" d="M1326.95 1205.79 L1326.95 1213.15 L1335.72 1213.15 L1335.72 1216.46 L1326.95 1216.46 L1326.95 1230.53 Q1326.95 1233.7 1327.8 1234.61 Q1328.68 1235.51 1331.35 1235.51 L1335.72 1235.51 L1335.72 1239.08 L1331.35 1239.08 Q1326.42 1239.08 1324.54 1237.25 Q1322.67 1235.39 1322.67 1230.53 L1322.67 1216.46 L1319.54 1216.46 L1319.54 1213.15 L1322.67 1213.15 L1322.67 1205.79 L1326.95 1205.79 Z" fill="#000000" fill-rule="nonzero" fill-opacity="1" /><polyline clip-path="url(#clip940)" style="stroke:#0000ff; stroke-linecap:round; stroke-linejoin:round; stroke-width:4; stroke-opacity:1; fill:none" stroke-dasharray="16, 10" points="1102.13,1273.64 1241.84,1273.64 "/>
<path clip-path="url(#clip940)" d="M1292.99 1259.02 L1292.99 1263.95 Q1290.63 1261.75 1287.94 1260.66 Q1285.28 1259.57 1282.27 1259.57 Q1276.35 1259.57 1273.2 1263.21 Q1270.05 1266.82 1270.05 1273.67 Q1270.05 1280.5 1273.2 1284.13 Q1276.35 1287.74 1282.27 1287.74 Q1285.28 1287.74 1287.94 1286.66 Q1290.63 1285.57 1292.99 1283.37 L1292.99 1288.25 Q1290.54 1289.92 1287.78 1290.75 Q1285.05 1291.59 1282 1291.59 Q1274.15 1291.59 1269.63 1286.79 Q1265.12 1281.98 1265.12 1273.67 Q1265.12 1265.34 1269.63 1260.55 Q1274.15 1255.73 1282 1255.73 Q1285.1 1255.73 1287.83 1256.56 Q1290.58 1257.37 1292.99 1259.02 Z" fill="#000000" fill-rule="nonzero" fill-opacity="1" /><path clip-path="url(#clip940)" d="M1311.81 1277.88 Q1306.65 1277.88 1304.66 1279.06 Q1302.67 1280.24 1302.67 1283.09 Q1302.67 1285.36 1304.15 1286.7 Q1305.65 1288.02 1308.22 1288.02 Q1311.76 1288.02 1313.89 1285.52 Q1316.05 1283 1316.05 1278.83 L1316.05 1277.88 L1311.81 1277.88 M1320.31 1276.12 L1320.31 1290.92 L1316.05 1290.92 L1316.05 1286.98 Q1314.59 1289.34 1312.41 1290.48 Q1310.24 1291.59 1307.09 1291.59 Q1303.11 1291.59 1300.74 1289.36 Q1298.41 1287.12 1298.41 1283.37 Q1298.41 1278.99 1301.32 1276.77 Q1304.26 1274.55 1310.07 1274.55 L1316.05 1274.55 L1316.05 1274.13 Q1316.05 1271.19 1314.1 1269.6 Q1312.18 1267.98 1308.68 1267.98 Q1306.46 1267.98 1304.36 1268.51 Q1302.25 1269.04 1300.31 1270.11 L1300.31 1266.17 Q1302.64 1265.27 1304.84 1264.83 Q1307.04 1264.36 1309.12 1264.36 Q1314.75 1264.36 1317.53 1267.28 Q1320.31 1270.2 1320.31 1276.12 Z" fill="#000000" fill-rule="nonzero" fill-opacity="1" /><path clip-path="url(#clip940)" d="M1329.08 1254.9 L1333.34 1254.9 L1333.34 1290.92 L1329.08 1290.92 L1329.08 1254.9 Z" fill="#000000" fill-rule="nonzero" fill-opacity="1" /><path clip-path="url(#clip940)" d="M1342.25 1254.9 L1346.51 1254.9 L1346.51 1290.92 L1342.25 1290.92 L1342.25 1254.9 Z" fill="#000000" fill-rule="nonzero" fill-opacity="1" /><circle clip-path="url(#clip940)" cx="1171.98" cy="1325.48" r="20.9455" fill="#ffffff" fill-rule="evenodd" fill-opacity="1" stroke="#000000" stroke-opacity="1" stroke-width="3.72364"/>
<path clip-path="url(#clip940)" d="M1269.8 1326.25 L1269.8 1338.91 L1277.3 1338.91 Q1281.07 1338.91 1282.87 1337.36 Q1284.7 1335.79 1284.7 1332.57 Q1284.7 1329.33 1282.87 1327.8 Q1281.07 1326.25 1277.3 1326.25 L1269.8 1326.25 M1269.8 1312.04 L1269.8 1322.45 L1276.72 1322.45 Q1280.14 1322.45 1281.81 1321.18 Q1283.5 1319.89 1283.5 1317.25 Q1283.5 1314.63 1281.81 1313.33 Q1280.14 1312.04 1276.72 1312.04 L1269.8 1312.04 M1265.12 1308.2 L1277.06 1308.2 Q1282.41 1308.2 1285.31 1310.42 Q1288.2 1312.64 1288.2 1316.74 Q1288.2 1319.91 1286.72 1321.78 Q1285.24 1323.66 1282.37 1324.12 Q1285.81 1324.86 1287.71 1327.22 Q1289.63 1329.56 1289.63 1333.08 Q1289.63 1337.71 1286.49 1340.23 Q1283.34 1342.76 1277.53 1342.76 L1265.12 1342.76 L1265.12 1308.2 Z" fill="#000000" fill-rule="nonzero" fill-opacity="1" /><path clip-path="url(#clip940)" d="M1312.48 1320.81 Q1311.76 1320.39 1310.91 1320.21 Q1310.07 1320 1309.06 1320 Q1305.44 1320 1303.5 1322.36 Q1301.58 1324.7 1301.58 1329.1 L1301.58 1342.76 L1297.3 1342.76 L1297.3 1316.83 L1301.58 1316.83 L1301.58 1320.86 Q1302.92 1318.5 1305.07 1317.36 Q1307.23 1316.2 1310.31 1316.2 Q1310.74 1316.2 1311.28 1316.27 Q1311.81 1316.32 1312.46 1316.44 L1312.48 1320.81 Z" fill="#000000" fill-rule="nonzero" fill-opacity="1" /><path clip-path="url(#clip940)" d="M1338.08 1328.73 L1338.08 1330.81 L1318.5 1330.81 Q1318.78 1335.21 1321.14 1337.52 Q1323.52 1339.82 1327.76 1339.82 Q1330.21 1339.82 1332.5 1339.21 Q1334.82 1338.61 1337.09 1337.41 L1337.09 1341.44 Q1334.8 1342.41 1332.39 1342.92 Q1329.98 1343.43 1327.5 1343.43 Q1321.3 1343.43 1317.67 1339.82 Q1314.06 1336.2 1314.06 1330.05 Q1314.06 1323.68 1317.48 1319.95 Q1320.93 1316.2 1326.76 1316.2 Q1331.99 1316.2 1335.03 1319.58 Q1338.08 1322.94 1338.08 1328.73 M1333.82 1327.48 Q1333.78 1323.98 1331.86 1321.9 Q1329.96 1319.82 1326.81 1319.82 Q1323.24 1319.82 1321.09 1321.83 Q1318.96 1323.84 1318.64 1327.5 L1333.82 1327.48 Z" fill="#000000" fill-rule="nonzero" fill-opacity="1" /><path clip-path="url(#clip940)" d="M1356.86 1329.72 Q1351.69 1329.72 1349.7 1330.9 Q1347.71 1332.08 1347.71 1334.93 Q1347.71 1337.2 1349.19 1338.54 Q1350.7 1339.86 1353.27 1339.86 Q1356.81 1339.86 1358.94 1337.36 Q1361.09 1334.84 1361.09 1330.67 L1361.09 1329.72 L1356.86 1329.72 M1365.35 1327.96 L1365.35 1342.76 L1361.09 1342.76 L1361.09 1338.82 Q1359.63 1341.18 1357.46 1342.32 Q1355.28 1343.43 1352.13 1343.43 Q1348.15 1343.43 1345.79 1341.2 Q1343.45 1338.96 1343.45 1335.21 Q1343.45 1330.83 1346.37 1328.61 Q1349.31 1326.39 1355.12 1326.39 L1361.09 1326.39 L1361.09 1325.97 Q1361.09 1323.03 1359.15 1321.44 Q1357.23 1319.82 1353.73 1319.82 Q1351.51 1319.82 1349.4 1320.35 Q1347.3 1320.88 1345.35 1321.95 L1345.35 1318.01 Q1347.69 1317.11 1349.89 1316.67 Q1352.09 1316.2 1354.17 1316.2 Q1359.8 1316.2 1362.57 1319.12 Q1365.35 1322.04 1365.35 1327.96 Z" fill="#000000" fill-rule="nonzero" fill-opacity="1" /><path clip-path="url(#clip940)" d="M1373.96 1306.74 L1378.24 1306.74 L1378.24 1328.01 L1390.95 1316.83 L1396.39 1316.83 L1382.64 1328.96 L1396.97 1342.76 L1391.42 1342.76 L1378.24 1330.09 L1378.24 1342.76 L1373.96 1342.76 L1373.96 1306.74 Z" fill="#000000" fill-rule="nonzero" fill-opacity="1" /><path clip-path="url(#clip940)" d="M1422.06 1328.73 L1422.06 1330.81 L1402.48 1330.81 Q1402.76 1335.21 1405.12 1337.52 Q1407.5 1339.82 1411.74 1339.82 Q1414.19 1339.82 1416.49 1339.21 Q1418.8 1338.61 1421.07 1337.41 L1421.07 1341.44 Q1418.78 1342.41 1416.37 1342.92 Q1413.96 1343.43 1411.49 1343.43 Q1405.28 1343.43 1401.65 1339.82 Q1398.04 1336.2 1398.04 1330.05 Q1398.04 1323.68 1401.46 1319.95 Q1404.91 1316.2 1410.74 1316.2 Q1415.98 1316.2 1419.01 1319.58 Q1422.06 1322.94 1422.06 1328.73 M1417.8 1327.48 Q1417.76 1323.98 1415.84 1321.9 Q1413.94 1319.82 1410.79 1319.82 Q1407.23 1319.82 1405.07 1321.83 Q1402.94 1323.84 1402.62 1327.5 L1417.8 1327.48 Z" fill="#000000" fill-rule="nonzero" fill-opacity="1" /><path clip-path="url(#clip940)" d="M1426 1316.83 L1430.51 1316.83 L1438.61 1338.59 L1446.72 1316.83 L1451.23 1316.83 L1441.51 1342.76 L1435.72 1342.76 L1426 1316.83 Z" fill="#000000" fill-rule="nonzero" fill-opacity="1" /><path clip-path="url(#clip940)" d="M1479.29 1328.73 L1479.29 1330.81 L1459.7 1330.81 Q1459.98 1335.21 1462.34 1337.52 Q1464.73 1339.82 1468.96 1339.82 Q1471.42 1339.82 1473.71 1339.21 Q1476.02 1338.61 1478.29 1337.41 L1478.29 1341.44 Q1476 1342.41 1473.59 1342.92 Q1471.18 1343.43 1468.71 1343.43 Q1462.5 1343.43 1458.87 1339.82 Q1455.26 1336.2 1455.26 1330.05 Q1455.26 1323.68 1458.68 1319.95 Q1462.13 1316.2 1467.97 1316.2 Q1473.2 1316.2 1476.23 1319.58 Q1479.29 1322.94 1479.29 1328.73 M1475.03 1327.48 Q1474.98 1323.98 1473.06 1321.9 Q1471.16 1319.82 1468.01 1319.82 Q1464.45 1319.82 1462.3 1321.83 Q1460.17 1323.84 1459.84 1327.5 L1475.03 1327.48 Z" fill="#000000" fill-rule="nonzero" fill-opacity="1" /><path clip-path="url(#clip940)" d="M1507.83 1327.11 L1507.83 1342.76 L1503.57 1342.76 L1503.57 1327.25 Q1503.57 1323.57 1502.13 1321.74 Q1500.7 1319.91 1497.83 1319.91 Q1494.38 1319.91 1492.39 1322.11 Q1490.4 1324.31 1490.4 1328.1 L1490.4 1342.76 L1486.11 1342.76 L1486.11 1316.83 L1490.4 1316.83 L1490.4 1320.86 Q1491.92 1318.52 1493.98 1317.36 Q1496.07 1316.2 1498.78 1316.2 Q1503.24 1316.2 1505.54 1318.98 Q1507.83 1321.74 1507.83 1327.11 Z" fill="#000000" fill-rule="nonzero" fill-opacity="1" /></svg>
