<?xml version="1.0" encoding="utf-8"?>
<svg xmlns="http://www.w3.org/2000/svg" xmlns:xlink="http://www.w3.org/1999/xlink" width="600" height="400" viewBox="0 0 2400 1600">
<defs>
  <clipPath id="clip040">
    <rect x="0" y="0" width="2400" height="1600"/>
  </clipPath>
</defs>
<path clip-path="url(#clip040)" d="M0 1600 L2400 1600 L2400 0 L0 0  Z" fill="#ffffff" fill-rule="evenodd" fill-opacity="1"/>
<defs>
  <clipPath id="clip041">
    <rect x="480" y="0" width="1681" height="1600"/>
  </clipPath>
</defs>
<path clip-path="url(#clip040)" d="M287.366 1423.18 L2352.76 1423.18 L2352.76 47.2441 L287.366 47.2441  Z" fill="#fffaf0" fill-rule="evenodd" fill-opacity="1"/>
<defs>
  <clipPath id="clip042">
    <rect x="287" y="47" width="2066" height="1377"/>
  </clipPath>
</defs>
<polyline clip-path="url(#clip042)" style="stroke:#000000; stroke-linecap:round; stroke-linejoin:round; stroke-width:2; stroke-opacity:0.1; fill:none" points="343.882,1423.18 343.882,47.2441 "/>
<polyline clip-path="url(#clip042)" style="stroke:#000000; stroke-linecap:round; stroke-linejoin:round; stroke-width:2; stroke-opacity:0.1; fill:none" points="828.578,1423.18 828.578,47.2441 "/>
<polyline clip-path="url(#clip042)" style="stroke:#000000; stroke-linecap:round; stroke-linejoin:round; stroke-width:2; stroke-opacity:0.1; fill:none" points="1313.28,1423.18 1313.28,47.2441 "/>
<polyline clip-path="url(#clip042)" style="stroke:#000000; stroke-linecap:round; stroke-linejoin:round; stroke-width:2; stroke-opacity:0.1; fill:none" points="1797.97,1423.18 1797.97,47.2441 "/>
<polyline clip-path="url(#clip042)" style="stroke:#000000; stroke-linecap:round; stroke-linejoin:round; stroke-width:2; stroke-opacity:0.1; fill:none" points="2282.67,1423.18 2282.67,47.2441 "/>
<polyline clip-path="url(#clip040)" style="stroke:#000000; stroke-linecap:round; stroke-linejoin:round; stroke-width:4; stroke-opacity:1; fill:none" points="287.366,1423.18 2352.76,1423.18 "/>
<polyline clip-path="url(#clip040)" style="stroke:#000000; stroke-linecap:round; stroke-linejoin:round; stroke-width:4; stroke-opacity:1; fill:none" points="287.366,47.2441 2352.76,47.2441 "/>
<polyline clip-path="url(#clip040)" style="stroke:#000000; stroke-linecap:round; stroke-linejoin:round; stroke-width:4; stroke-opacity:1; fill:none" points="343.882,1423.18 343.882,1404.28 "/>
<polyline clip-path="url(#clip040)" style="stroke:#000000; stroke-linecap:round; stroke-linejoin:round; stroke-width:4; stroke-opacity:1; fill:none" points="828.578,1423.18 828.578,1404.28 "/>
<polyline clip-path="url(#clip040)" style="stroke:#000000; stroke-linecap:round; stroke-linejoin:round; stroke-width:4; stroke-opacity:1; fill:none" points="1313.28,1423.18 1313.28,1404.28 "/>
<polyline clip-path="url(#clip040)" style="stroke:#000000; stroke-linecap:round; stroke-linejoin:round; stroke-width:4; stroke-opacity:1; fill:none" points="1797.97,1423.18 1797.97,1404.28 "/>
<polyline clip-path="url(#clip040)" style="stroke:#000000; stroke-linecap:round; stroke-linejoin:round; stroke-width:4; stroke-opacity:1; fill:none" points="2282.67,1423.18 2282.67,1404.28 "/>
<path clip-path="url(#clip040)" d="M343.882 1454.1 Q340.27 1454.1 338.442 1457.66 Q336.636 1461.2 336.636 1468.33 Q336.636 1475.44 338.442 1479.01 Q340.27 1482.55 343.882 1482.55 Q347.516 1482.55 349.321 1479.01 Q351.15 1475.44 351.15 1468.33 Q351.15 1461.2 349.321 1457.66 Q347.516 1454.1 343.882 1454.1 M343.882 1450.39 Q349.692 1450.39 352.747 1455 Q355.826 1459.58 355.826 1468.33 Q355.826 1477.06 352.747 1481.67 Q349.692 1486.25 343.882 1486.25 Q338.071 1486.25 334.993 1481.67 Q331.937 1477.06 331.937 1468.33 Q331.937 1459.58 334.993 1455 Q338.071 1450.39 343.882 1450.39 Z" fill="#000000" fill-rule="nonzero" fill-opacity="1" /><path clip-path="url(#clip040)" d="M792.271 1481.64 L808.59 1481.64 L808.59 1485.58 L786.646 1485.58 L786.646 1481.64 Q789.308 1478.89 793.891 1474.26 Q798.497 1469.61 799.678 1468.27 Q801.923 1465.74 802.803 1464.01 Q803.706 1462.25 803.706 1460.56 Q803.706 1457.8 801.761 1456.07 Q799.84 1454.33 796.738 1454.33 Q794.539 1454.33 792.085 1455.09 Q789.655 1455.86 786.877 1457.41 L786.877 1452.69 Q789.701 1451.55 792.155 1450.97 Q794.609 1450.39 796.646 1450.39 Q802.016 1450.39 805.21 1453.08 Q808.405 1455.77 808.405 1460.26 Q808.405 1462.39 807.595 1464.31 Q806.808 1466.2 804.701 1468.8 Q804.122 1469.47 801.021 1472.69 Q797.919 1475.88 792.271 1481.64 Z" fill="#000000" fill-rule="nonzero" fill-opacity="1" /><path clip-path="url(#clip040)" d="M818.451 1451.02 L836.807 1451.02 L836.807 1454.96 L822.733 1454.96 L822.733 1463.43 Q823.752 1463.08 824.771 1462.92 Q825.789 1462.73 826.808 1462.73 Q832.595 1462.73 835.974 1465.9 Q839.354 1469.08 839.354 1474.49 Q839.354 1480.07 835.882 1483.17 Q832.409 1486.25 826.09 1486.25 Q823.914 1486.25 821.646 1485.88 Q819.4 1485.51 816.993 1484.77 L816.993 1480.07 Q819.076 1481.2 821.298 1481.76 Q823.521 1482.32 825.997 1482.32 Q830.002 1482.32 832.34 1480.21 Q834.678 1478.1 834.678 1474.49 Q834.678 1470.88 832.34 1468.77 Q830.002 1466.67 825.997 1466.67 Q824.122 1466.67 822.247 1467.08 Q820.396 1467.5 818.451 1468.38 L818.451 1451.02 Z" fill="#000000" fill-rule="nonzero" fill-opacity="1" /><path clip-path="url(#clip040)" d="M858.567 1454.1 Q854.956 1454.1 853.127 1457.66 Q851.321 1461.2 851.321 1468.33 Q851.321 1475.44 853.127 1479.01 Q854.956 1482.55 858.567 1482.55 Q862.201 1482.55 864.006 1479.01 Q865.835 1475.44 865.835 1468.33 Q865.835 1461.2 864.006 1457.66 Q862.201 1454.1 858.567 1454.1 M858.567 1450.39 Q864.377 1450.39 867.432 1455 Q870.511 1459.58 870.511 1468.33 Q870.511 1477.06 867.432 1481.67 Q864.377 1486.25 858.567 1486.25 Q852.756 1486.25 849.678 1481.67 Q846.622 1477.06 846.622 1468.33 Q846.622 1459.58 849.678 1455 Q852.756 1450.39 858.567 1450.39 Z" fill="#000000" fill-rule="nonzero" fill-opacity="1" /><path clip-path="url(#clip040)" d="M1272.89 1451.02 L1291.25 1451.02 L1291.25 1454.96 L1277.18 1454.96 L1277.18 1463.43 Q1278.19 1463.08 1279.21 1462.92 Q1280.23 1462.73 1281.25 1462.73 Q1287.04 1462.73 1290.42 1465.9 Q1293.8 1469.08 1293.8 1474.49 Q1293.8 1480.07 1290.32 1483.17 Q1286.85 1486.25 1280.53 1486.25 Q1278.36 1486.25 1276.09 1485.88 Q1273.84 1485.51 1271.44 1484.77 L1271.44 1480.07 Q1273.52 1481.2 1275.74 1481.76 Q1277.96 1482.32 1280.44 1482.32 Q1284.44 1482.32 1286.78 1480.21 Q1289.12 1478.1 1289.12 1474.49 Q1289.12 1470.88 1286.78 1468.77 Q1284.44 1466.67 1280.44 1466.67 Q1278.56 1466.67 1276.69 1467.08 Q1274.84 1467.5 1272.89 1468.38 L1272.89 1451.02 Z" fill="#000000" fill-rule="nonzero" fill-opacity="1" /><path clip-path="url(#clip040)" d="M1313.01 1454.1 Q1309.4 1454.1 1307.57 1457.66 Q1305.76 1461.2 1305.76 1468.33 Q1305.76 1475.44 1307.57 1479.01 Q1309.4 1482.55 1313.01 1482.55 Q1316.64 1482.55 1318.45 1479.01 Q1320.28 1475.44 1320.28 1468.33 Q1320.28 1461.2 1318.45 1457.66 Q1316.64 1454.1 1313.01 1454.1 M1313.01 1450.39 Q1318.82 1450.39 1321.87 1455 Q1324.95 1459.58 1324.95 1468.33 Q1324.95 1477.06 1321.87 1481.67 Q1318.82 1486.25 1313.01 1486.25 Q1307.2 1486.25 1304.12 1481.67 Q1301.06 1477.06 1301.06 1468.33 Q1301.06 1459.58 1304.12 1455 Q1307.2 1450.39 1313.01 1450.39 Z" fill="#000000" fill-rule="nonzero" fill-opacity="1" /><path clip-path="url(#clip040)" d="M1343.17 1454.1 Q1339.56 1454.1 1337.73 1457.66 Q1335.93 1461.2 1335.93 1468.33 Q1335.93 1475.44 1337.73 1479.01 Q1339.56 1482.55 1343.17 1482.55 Q1346.81 1482.55 1348.61 1479.01 Q1350.44 1475.44 1350.44 1468.33 Q1350.44 1461.2 1348.61 1457.66 Q1346.81 1454.1 1343.17 1454.1 M1343.17 1450.39 Q1348.98 1450.39 1352.04 1455 Q1355.12 1459.58 1355.12 1468.33 Q1355.12 1477.06 1352.04 1481.67 Q1348.98 1486.25 1343.17 1486.25 Q1337.36 1486.25 1334.28 1481.67 Q1331.23 1477.06 1331.23 1468.33 Q1331.23 1459.58 1334.28 1455 Q1337.36 1450.39 1343.17 1450.39 Z" fill="#000000" fill-rule="nonzero" fill-opacity="1" /><path clip-path="url(#clip040)" d="M1756.25 1451.02 L1778.47 1451.02 L1778.47 1453.01 L1765.92 1485.58 L1761.04 1485.58 L1772.84 1454.96 L1756.25 1454.96 L1756.25 1451.02 Z" fill="#000000" fill-rule="nonzero" fill-opacity="1" /><path clip-path="url(#clip040)" d="M1787.64 1451.02 L1805.99 1451.02 L1805.99 1454.96 L1791.92 1454.96 L1791.92 1463.43 Q1792.94 1463.08 1793.96 1462.92 Q1794.97 1462.73 1795.99 1462.73 Q1801.78 1462.73 1805.16 1465.9 Q1808.54 1469.08 1808.54 1474.49 Q1808.54 1480.07 1805.07 1483.17 Q1801.59 1486.25 1795.28 1486.25 Q1793.1 1486.25 1790.83 1485.88 Q1788.59 1485.51 1786.18 1484.77 L1786.18 1480.07 Q1788.26 1481.2 1790.48 1481.76 Q1792.71 1482.32 1795.18 1482.32 Q1799.19 1482.32 1801.53 1480.21 Q1803.86 1478.1 1803.86 1474.49 Q1803.86 1470.88 1801.53 1468.77 Q1799.19 1466.67 1795.18 1466.67 Q1793.31 1466.67 1791.43 1467.08 Q1789.58 1467.5 1787.64 1468.38 L1787.64 1451.02 Z" fill="#000000" fill-rule="nonzero" fill-opacity="1" /><path clip-path="url(#clip040)" d="M1827.75 1454.1 Q1824.14 1454.1 1822.31 1457.66 Q1820.51 1461.2 1820.51 1468.33 Q1820.51 1475.44 1822.31 1479.01 Q1824.14 1482.55 1827.75 1482.55 Q1831.39 1482.55 1833.19 1479.01 Q1835.02 1475.44 1835.02 1468.33 Q1835.02 1461.2 1833.19 1457.66 Q1831.39 1454.1 1827.75 1454.1 M1827.75 1450.39 Q1833.56 1450.39 1836.62 1455 Q1839.7 1459.58 1839.7 1468.33 Q1839.7 1477.06 1836.62 1481.67 Q1833.56 1486.25 1827.75 1486.25 Q1821.94 1486.25 1818.86 1481.67 Q1815.81 1477.06 1815.81 1468.33 Q1815.81 1459.58 1818.86 1455 Q1821.94 1450.39 1827.75 1450.39 Z" fill="#000000" fill-rule="nonzero" fill-opacity="1" /><path clip-path="url(#clip040)" d="M2227.19 1481.64 L2234.83 1481.64 L2234.83 1455.28 L2226.52 1456.95 L2226.52 1452.69 L2234.79 1451.02 L2239.46 1451.02 L2239.46 1481.64 L2247.1 1481.64 L2247.1 1485.58 L2227.19 1485.58 L2227.19 1481.64 Z" fill="#000000" fill-rule="nonzero" fill-opacity="1" /><path clip-path="url(#clip040)" d="M2266.55 1454.1 Q2262.94 1454.1 2261.11 1457.66 Q2259.3 1461.2 2259.3 1468.33 Q2259.3 1475.44 2261.11 1479.01 Q2262.94 1482.55 2266.55 1482.55 Q2270.18 1482.55 2271.99 1479.01 Q2273.81 1475.44 2273.81 1468.33 Q2273.81 1461.2 2271.99 1457.66 Q2270.18 1454.1 2266.55 1454.1 M2266.55 1450.39 Q2272.36 1450.39 2275.41 1455 Q2278.49 1459.58 2278.49 1468.33 Q2278.49 1477.06 2275.41 1481.67 Q2272.36 1486.25 2266.55 1486.25 Q2260.74 1486.25 2257.66 1481.67 Q2254.6 1477.06 2254.6 1468.33 Q2254.6 1459.58 2257.66 1455 Q2260.74 1450.39 2266.55 1450.39 Z" fill="#000000" fill-rule="nonzero" fill-opacity="1" /><path clip-path="url(#clip040)" d="M2296.71 1454.1 Q2293.1 1454.1 2291.27 1457.66 Q2289.46 1461.2 2289.46 1468.33 Q2289.46 1475.44 2291.27 1479.01 Q2293.1 1482.55 2296.71 1482.55 Q2300.34 1482.55 2302.15 1479.01 Q2303.98 1475.44 2303.98 1468.33 Q2303.98 1461.2 2302.15 1457.66 Q2300.34 1454.1 2296.71 1454.1 M2296.71 1450.39 Q2302.52 1450.39 2305.57 1455 Q2308.65 1459.58 2308.65 1468.33 Q2308.65 1477.06 2305.57 1481.67 Q2302.52 1486.25 2296.71 1486.25 Q2290.9 1486.25 2287.82 1481.67 Q2284.76 1477.06 2284.76 1468.33 Q2284.76 1459.58 2287.82 1455 Q2290.9 1450.39 2296.71 1450.39 Z" fill="#000000" fill-rule="nonzero" fill-opacity="1" /><path clip-path="url(#clip040)" d="M2326.87 1454.1 Q2323.26 1454.1 2321.43 1457.66 Q2319.62 1461.2 2319.62 1468.33 Q2319.62 1475.44 2321.43 1479.01 Q2323.26 1482.55 2326.87 1482.55 Q2330.5 1482.55 2332.31 1479.01 Q2334.14 1475.44 2334.14 1468.33 Q2334.14 1461.2 2332.31 1457.66 Q2330.5 1454.1 2326.87 1454.1 M2326.87 1450.39 Q2332.68 1450.39 2335.74 1455 Q2338.81 1459.58 2338.81 1468.33 Q2338.81 1477.06 2335.74 1481.67 Q2332.68 1486.25 2326.87 1486.25 Q2321.06 1486.25 2317.98 1481.67 Q2314.93 1477.06 2314.93 1468.33 Q2314.93 1459.58 2317.98 1455 Q2321.06 1450.39 2326.87 1450.39 Z" fill="#000000" fill-rule="nonzero" fill-opacity="1" /><path clip-path="url(#clip040)" d="M1147.26 1520.52 L1187.46 1520.52 L1187.46 1525.93 L1170.59 1525.93 L1170.59 1568.04 L1164.13 1568.04 L1164.13 1525.93 L1147.26 1525.93 L1147.26 1520.52 Z" fill="#000000" fill-rule="nonzero" fill-opacity="1" /><path clip-path="url(#clip040)" d="M1191.41 1532.4 L1197.27 1532.4 L1197.27 1568.04 L1191.41 1568.04 L1191.41 1532.4 M1191.41 1518.52 L1197.27 1518.52 L1197.27 1525.93 L1191.41 1525.93 L1191.41 1518.52 Z" fill="#000000" fill-rule="nonzero" fill-opacity="1" /><path clip-path="url(#clip040)" d="M1237.27 1539.24 Q1239.47 1535.29 1242.53 1533.41 Q1245.58 1531.54 1249.72 1531.54 Q1255.29 1531.54 1258.31 1535.45 Q1261.34 1539.33 1261.34 1546.53 L1261.34 1568.04 L1255.45 1568.04 L1255.45 1546.72 Q1255.45 1541.59 1253.63 1539.11 Q1251.82 1536.63 1248.1 1536.63 Q1243.55 1536.63 1240.9 1539.65 Q1238.26 1542.68 1238.26 1547.9 L1238.26 1568.04 L1232.37 1568.04 L1232.37 1546.72 Q1232.37 1541.56 1230.56 1539.11 Q1228.74 1536.63 1224.96 1536.63 Q1220.47 1536.63 1217.83 1539.68 Q1215.19 1542.71 1215.19 1547.9 L1215.19 1568.04 L1209.3 1568.04 L1209.3 1532.4 L1215.19 1532.4 L1215.19 1537.93 Q1217.19 1534.66 1219.99 1533.1 Q1222.79 1531.54 1226.64 1531.54 Q1230.53 1531.54 1233.23 1533.51 Q1235.97 1535.48 1237.27 1539.24 Z" fill="#000000" fill-rule="nonzero" fill-opacity="1" /><path clip-path="url(#clip040)" d="M1303.51 1548.76 L1303.51 1551.62 L1276.58 1551.62 Q1276.97 1557.67 1280.21 1560.85 Q1283.49 1564 1289.31 1564 Q1292.69 1564 1295.84 1563.17 Q1299.02 1562.35 1302.14 1560.69 L1302.14 1566.23 Q1298.99 1567.57 1295.68 1568.27 Q1292.37 1568.97 1288.96 1568.97 Q1280.43 1568.97 1275.44 1564 Q1270.47 1559.04 1270.47 1550.57 Q1270.47 1541.82 1275.18 1536.69 Q1279.93 1531.54 1287.95 1531.54 Q1295.14 1531.54 1299.31 1536.18 Q1303.51 1540.8 1303.51 1548.76 M1297.65 1547.04 Q1297.59 1542.23 1294.95 1539.37 Q1292.34 1536.5 1288.01 1536.5 Q1283.11 1536.5 1280.15 1539.27 Q1277.22 1542.04 1276.77 1547.07 L1297.65 1547.04 Z" fill="#000000" fill-rule="nonzero" fill-opacity="1" /><path clip-path="url(#clip040)" d="M1347.91 1518.58 Q1343.65 1525.9 1341.58 1533.06 Q1339.51 1540.23 1339.51 1547.58 Q1339.51 1554.93 1341.58 1562.16 Q1343.68 1569.35 1347.91 1576.64 L1342.82 1576.64 Q1338.04 1569.16 1335.66 1561.93 Q1333.3 1554.71 1333.3 1547.58 Q1333.3 1540.48 1335.66 1533.29 Q1338.01 1526.09 1342.82 1518.58 L1347.91 1518.58 Z" fill="#000000" fill-rule="nonzero" fill-opacity="1" /><path clip-path="url(#clip040)" d="M1382.73 1537.81 L1382.73 1518.52 L1388.59 1518.52 L1388.59 1568.04 L1382.73 1568.04 L1382.73 1562.7 Q1380.89 1565.88 1378.05 1567.44 Q1375.25 1568.97 1371.3 1568.97 Q1364.84 1568.97 1360.77 1563.81 Q1356.73 1558.65 1356.73 1550.25 Q1356.73 1541.85 1360.77 1536.69 Q1364.84 1531.54 1371.3 1531.54 Q1375.25 1531.54 1378.05 1533.1 Q1380.89 1534.62 1382.73 1537.81 M1362.77 1550.25 Q1362.77 1556.71 1365.42 1560.4 Q1368.09 1564.07 1372.74 1564.07 Q1377.38 1564.07 1380.06 1560.4 Q1382.73 1556.71 1382.73 1550.25 Q1382.73 1543.79 1380.06 1540.13 Q1377.38 1536.44 1372.74 1536.44 Q1368.09 1536.44 1365.42 1540.13 Q1362.77 1543.79 1362.77 1550.25 Z" fill="#000000" fill-rule="nonzero" fill-opacity="1" /><path clip-path="url(#clip040)" d="M1416.85 1550.12 Q1409.75 1550.12 1407.02 1551.75 Q1404.28 1553.37 1404.28 1557.29 Q1404.28 1560.4 1406.32 1562.25 Q1408.39 1564.07 1411.92 1564.07 Q1416.79 1564.07 1419.72 1560.63 Q1422.68 1557.16 1422.68 1551.43 L1422.68 1550.12 L1416.85 1550.12 M1428.53 1547.71 L1428.53 1568.04 L1422.68 1568.04 L1422.68 1562.63 Q1420.67 1565.88 1417.68 1567.44 Q1414.69 1568.97 1410.36 1568.97 Q1404.88 1568.97 1401.64 1565.91 Q1398.42 1562.82 1398.42 1557.67 Q1398.42 1551.65 1402.43 1548.6 Q1406.48 1545.54 1414.46 1545.54 L1422.68 1545.54 L1422.68 1544.97 Q1422.68 1540.93 1420 1538.73 Q1417.36 1536.5 1412.55 1536.5 Q1409.5 1536.5 1406.6 1537.23 Q1403.71 1537.97 1401.03 1539.43 L1401.03 1534.02 Q1404.25 1532.78 1407.27 1532.17 Q1410.29 1531.54 1413.16 1531.54 Q1420.89 1531.54 1424.71 1535.55 Q1428.53 1539.56 1428.53 1547.71 Z" fill="#000000" fill-rule="nonzero" fill-opacity="1" /><path clip-path="url(#clip040)" d="M1455.43 1571.35 Q1452.95 1577.72 1450.59 1579.66 Q1448.23 1581.6 1444.29 1581.6 L1439.61 1581.6 L1439.61 1576.7 L1443.05 1576.7 Q1445.47 1576.7 1446.8 1575.56 Q1448.14 1574.41 1449.76 1570.14 L1450.81 1567.47 L1436.39 1532.4 L1442.6 1532.4 L1453.74 1560.28 L1464.88 1532.4 L1471.09 1532.4 L1455.43 1571.35 Z" fill="#000000" fill-rule="nonzero" fill-opacity="1" /><path clip-path="url(#clip040)" d="M1478.25 1518.58 L1483.34 1518.58 Q1488.12 1526.09 1490.47 1533.29 Q1492.86 1540.48 1492.86 1547.58 Q1492.86 1554.71 1490.47 1561.93 Q1488.12 1569.16 1483.34 1576.64 L1478.25 1576.64 Q1482.48 1569.35 1484.55 1562.16 Q1486.65 1554.93 1486.65 1547.58 Q1486.65 1540.23 1484.55 1533.06 Q1482.48 1525.9 1478.25 1518.58 Z" fill="#000000" fill-rule="nonzero" fill-opacity="1" /><polyline clip-path="url(#clip042)" style="stroke:#000000; stroke-linecap:round; stroke-linejoin:round; stroke-width:2; stroke-opacity:0.1; fill:none" points="287.366,1287.88 2352.76,1287.88 "/>
<polyline clip-path="url(#clip042)" style="stroke:#000000; stroke-linecap:round; stroke-linejoin:round; stroke-width:2; stroke-opacity:0.1; fill:none" points="287.366,1077.49 2352.76,1077.49 "/>
<polyline clip-path="url(#clip042)" style="stroke:#000000; stroke-linecap:round; stroke-linejoin:round; stroke-width:2; stroke-opacity:0.1; fill:none" points="287.366,867.101 2352.76,867.101 "/>
<polyline clip-path="url(#clip042)" style="stroke:#000000; stroke-linecap:round; stroke-linejoin:round; stroke-width:2; stroke-opacity:0.1; fill:none" points="287.366,656.71 2352.76,656.71 "/>
<polyline clip-path="url(#clip042)" style="stroke:#000000; stroke-linecap:round; stroke-linejoin:round; stroke-width:2; stroke-opacity:0.1; fill:none" points="287.366,446.319 2352.76,446.319 "/>
<polyline clip-path="url(#clip042)" style="stroke:#000000; stroke-linecap:round; stroke-linejoin:round; stroke-width:2; stroke-opacity:0.1; fill:none" points="287.366,235.928 2352.76,235.928 "/>
<polyline clip-path="url(#clip040)" style="stroke:#000000; stroke-linecap:round; stroke-linejoin:round; stroke-width:4; stroke-opacity:1; fill:none" points="287.366,1423.18 287.366,47.2441 "/>
<polyline clip-path="url(#clip040)" style="stroke:#000000; stroke-linecap:round; stroke-linejoin:round; stroke-width:4; stroke-opacity:1; fill:none" points="2352.76,1423.18 2352.76,47.2441 "/>
<polyline clip-path="url(#clip040)" style="stroke:#000000; stroke-linecap:round; stroke-linejoin:round; stroke-width:4; stroke-opacity:1; fill:none" points="287.366,1287.88 306.264,1287.88 "/>
<polyline clip-path="url(#clip040)" style="stroke:#000000; stroke-linecap:round; stroke-linejoin:round; stroke-width:4; stroke-opacity:1; fill:none" points="287.366,1077.49 306.264,1077.49 "/>
<polyline clip-path="url(#clip040)" style="stroke:#000000; stroke-linecap:round; stroke-linejoin:round; stroke-width:4; stroke-opacity:1; fill:none" points="287.366,867.101 306.264,867.101 "/>
<polyline clip-path="url(#clip040)" style="stroke:#000000; stroke-linecap:round; stroke-linejoin:round; stroke-width:4; stroke-opacity:1; fill:none" points="287.366,656.71 306.264,656.71 "/>
<polyline clip-path="url(#clip040)" style="stroke:#000000; stroke-linecap:round; stroke-linejoin:round; stroke-width:4; stroke-opacity:1; fill:none" points="287.366,446.319 306.264,446.319 "/>
<polyline clip-path="url(#clip040)" style="stroke:#000000; stroke-linecap:round; stroke-linejoin:round; stroke-width:4; stroke-opacity:1; fill:none" points="287.366,235.928 306.264,235.928 "/>
<path clip-path="url(#clip040)" d="M115.256 1288.33 L144.931 1288.33 L144.931 1292.27 L115.256 1292.27 L115.256 1288.33 Z" fill="#000000" fill-rule="nonzero" fill-opacity="1" /><path clip-path="url(#clip040)" d="M165.024 1273.68 Q161.413 1273.68 159.584 1277.25 Q157.778 1280.79 157.778 1287.92 Q157.778 1295.02 159.584 1298.59 Q161.413 1302.13 165.024 1302.13 Q168.658 1302.13 170.464 1298.59 Q172.292 1295.02 172.292 1287.92 Q172.292 1280.79 170.464 1277.25 Q168.658 1273.68 165.024 1273.68 M165.024 1269.98 Q170.834 1269.98 173.889 1274.58 Q176.968 1279.17 176.968 1287.92 Q176.968 1296.64 173.889 1301.25 Q170.834 1305.83 165.024 1305.83 Q159.214 1305.83 156.135 1301.25 Q153.079 1296.64 153.079 1287.92 Q153.079 1279.17 156.135 1274.58 Q159.214 1269.98 165.024 1269.98 Z" fill="#000000" fill-rule="nonzero" fill-opacity="1" /><path clip-path="url(#clip040)" d="M185.186 1299.28 L190.07 1299.28 L190.07 1305.16 L185.186 1305.16 L185.186 1299.28 Z" fill="#000000" fill-rule="nonzero" fill-opacity="1" /><path clip-path="url(#clip040)" d="M201.065 1301.23 L208.704 1301.23 L208.704 1274.86 L200.394 1276.53 L200.394 1272.27 L208.658 1270.6 L213.334 1270.6 L213.334 1301.23 L220.973 1301.23 L220.973 1305.16 L201.065 1305.16 L201.065 1301.23 Z" fill="#000000" fill-rule="nonzero" fill-opacity="1" /><path clip-path="url(#clip040)" d="M230.463 1270.6 L248.82 1270.6 L248.82 1274.54 L234.746 1274.54 L234.746 1283.01 Q235.764 1282.66 236.783 1282.5 Q237.801 1282.32 238.82 1282.32 Q244.607 1282.32 247.986 1285.49 Q251.366 1288.66 251.366 1294.07 Q251.366 1299.65 247.894 1302.76 Q244.421 1305.83 238.102 1305.83 Q235.926 1305.83 233.658 1305.46 Q231.412 1305.09 229.005 1304.35 L229.005 1299.65 Q231.088 1300.79 233.31 1301.34 Q235.533 1301.9 238.009 1301.9 Q242.014 1301.9 244.352 1299.79 Q246.69 1297.69 246.69 1294.07 Q246.69 1290.46 244.352 1288.36 Q242.014 1286.25 238.009 1286.25 Q236.135 1286.25 234.26 1286.67 Q232.408 1287.08 230.463 1287.96 L230.463 1270.6 Z" fill="#000000" fill-rule="nonzero" fill-opacity="1" /><path clip-path="url(#clip040)" d="M114.26 1077.94 L143.936 1077.94 L143.936 1081.88 L114.26 1081.88 L114.26 1077.94 Z" fill="#000000" fill-rule="nonzero" fill-opacity="1" /><path clip-path="url(#clip040)" d="M164.028 1063.29 Q160.417 1063.29 158.589 1066.86 Q156.783 1070.4 156.783 1077.53 Q156.783 1084.63 158.589 1088.2 Q160.417 1091.74 164.028 1091.74 Q167.663 1091.74 169.468 1088.2 Q171.297 1084.63 171.297 1077.53 Q171.297 1070.4 169.468 1066.86 Q167.663 1063.29 164.028 1063.29 M164.028 1059.59 Q169.839 1059.59 172.894 1064.19 Q175.973 1068.78 175.973 1077.53 Q175.973 1086.25 172.894 1090.86 Q169.839 1095.44 164.028 1095.44 Q158.218 1095.44 155.14 1090.86 Q152.084 1086.25 152.084 1077.53 Q152.084 1068.78 155.14 1064.19 Q158.218 1059.59 164.028 1059.59 Z" fill="#000000" fill-rule="nonzero" fill-opacity="1" /><path clip-path="url(#clip040)" d="M184.19 1088.89 L189.075 1088.89 L189.075 1094.77 L184.19 1094.77 L184.19 1088.89 Z" fill="#000000" fill-rule="nonzero" fill-opacity="1" /><path clip-path="url(#clip040)" d="M200.07 1090.84 L207.709 1090.84 L207.709 1064.47 L199.399 1066.14 L199.399 1061.88 L207.662 1060.21 L212.338 1060.21 L212.338 1090.84 L219.977 1090.84 L219.977 1094.77 L200.07 1094.77 L200.07 1090.84 Z" fill="#000000" fill-rule="nonzero" fill-opacity="1" /><path clip-path="url(#clip040)" d="M239.422 1063.29 Q235.81 1063.29 233.982 1066.86 Q232.176 1070.4 232.176 1077.53 Q232.176 1084.63 233.982 1088.2 Q235.81 1091.74 239.422 1091.74 Q243.056 1091.74 244.861 1088.2 Q246.69 1084.63 246.69 1077.53 Q246.69 1070.4 244.861 1066.86 Q243.056 1063.29 239.422 1063.29 M239.422 1059.59 Q245.232 1059.59 248.287 1064.19 Q251.366 1068.78 251.366 1077.53 Q251.366 1086.25 248.287 1090.86 Q245.232 1095.44 239.422 1095.44 Q233.611 1095.44 230.533 1090.86 Q227.477 1086.25 227.477 1077.53 Q227.477 1068.78 230.533 1064.19 Q233.611 1059.59 239.422 1059.59 Z" fill="#000000" fill-rule="nonzero" fill-opacity="1" /><path clip-path="url(#clip040)" d="M115.256 867.552 L144.931 867.552 L144.931 871.487 L115.256 871.487 L115.256 867.552 Z" fill="#000000" fill-rule="nonzero" fill-opacity="1" /><path clip-path="url(#clip040)" d="M165.024 852.899 Q161.413 852.899 159.584 856.464 Q157.778 860.006 157.778 867.135 Q157.778 874.242 159.584 877.807 Q161.413 881.348 165.024 881.348 Q168.658 881.348 170.464 877.807 Q172.292 874.242 172.292 867.135 Q172.292 860.006 170.464 856.464 Q168.658 852.899 165.024 852.899 M165.024 849.196 Q170.834 849.196 173.889 853.802 Q176.968 858.385 176.968 867.135 Q176.968 875.862 173.889 880.469 Q170.834 885.052 165.024 885.052 Q159.214 885.052 156.135 880.469 Q153.079 875.862 153.079 867.135 Q153.079 858.385 156.135 853.802 Q159.214 849.196 165.024 849.196 Z" fill="#000000" fill-rule="nonzero" fill-opacity="1" /><path clip-path="url(#clip040)" d="M185.186 878.501 L190.07 878.501 L190.07 884.381 L185.186 884.381 L185.186 878.501 Z" fill="#000000" fill-rule="nonzero" fill-opacity="1" /><path clip-path="url(#clip040)" d="M210.255 852.899 Q206.644 852.899 204.815 856.464 Q203.01 860.006 203.01 867.135 Q203.01 874.242 204.815 877.807 Q206.644 881.348 210.255 881.348 Q213.889 881.348 215.695 877.807 Q217.523 874.242 217.523 867.135 Q217.523 860.006 215.695 856.464 Q213.889 852.899 210.255 852.899 M210.255 849.196 Q216.065 849.196 219.121 853.802 Q222.199 858.385 222.199 867.135 Q222.199 875.862 219.121 880.469 Q216.065 885.052 210.255 885.052 Q204.445 885.052 201.366 880.469 Q198.311 875.862 198.311 867.135 Q198.311 858.385 201.366 853.802 Q204.445 849.196 210.255 849.196 Z" fill="#000000" fill-rule="nonzero" fill-opacity="1" /><path clip-path="url(#clip040)" d="M230.463 849.821 L248.82 849.821 L248.82 853.756 L234.746 853.756 L234.746 862.228 Q235.764 861.881 236.783 861.719 Q237.801 861.534 238.82 861.534 Q244.607 861.534 247.986 864.705 Q251.366 867.876 251.366 873.293 Q251.366 878.871 247.894 881.973 Q244.421 885.052 238.102 885.052 Q235.926 885.052 233.658 884.682 Q231.412 884.311 229.005 883.57 L229.005 878.871 Q231.088 880.006 233.31 880.561 Q235.533 881.117 238.009 881.117 Q242.014 881.117 244.352 879.01 Q246.69 876.904 246.69 873.293 Q246.69 869.682 244.352 867.575 Q242.014 865.469 238.009 865.469 Q236.135 865.469 234.26 865.885 Q232.408 866.302 230.463 867.182 L230.463 849.821 Z" fill="#000000" fill-rule="nonzero" fill-opacity="1" /><path clip-path="url(#clip040)" d="M164.028 642.508 Q160.417 642.508 158.589 646.073 Q156.783 649.615 156.783 656.744 Q156.783 663.851 158.589 667.416 Q160.417 670.957 164.028 670.957 Q167.663 670.957 169.468 667.416 Q171.297 663.851 171.297 656.744 Q171.297 649.615 169.468 646.073 Q167.663 642.508 164.028 642.508 M164.028 638.805 Q169.839 638.805 172.894 643.411 Q175.973 647.994 175.973 656.744 Q175.973 665.471 172.894 670.078 Q169.839 674.661 164.028 674.661 Q158.218 674.661 155.14 670.078 Q152.084 665.471 152.084 656.744 Q152.084 647.994 155.14 643.411 Q158.218 638.805 164.028 638.805 Z" fill="#000000" fill-rule="nonzero" fill-opacity="1" /><path clip-path="url(#clip040)" d="M184.19 668.11 L189.075 668.11 L189.075 673.99 L184.19 673.99 L184.19 668.11 Z" fill="#000000" fill-rule="nonzero" fill-opacity="1" /><path clip-path="url(#clip040)" d="M209.26 642.508 Q205.649 642.508 203.82 646.073 Q202.014 649.615 202.014 656.744 Q202.014 663.851 203.82 667.416 Q205.649 670.957 209.26 670.957 Q212.894 670.957 214.699 667.416 Q216.528 663.851 216.528 656.744 Q216.528 649.615 214.699 646.073 Q212.894 642.508 209.26 642.508 M209.26 638.805 Q215.07 638.805 218.125 643.411 Q221.204 647.994 221.204 656.744 Q221.204 665.471 218.125 670.078 Q215.07 674.661 209.26 674.661 Q203.449 674.661 200.371 670.078 Q197.315 665.471 197.315 656.744 Q197.315 647.994 200.371 643.411 Q203.449 638.805 209.26 638.805 Z" fill="#000000" fill-rule="nonzero" fill-opacity="1" /><path clip-path="url(#clip040)" d="M239.422 642.508 Q235.81 642.508 233.982 646.073 Q232.176 649.615 232.176 656.744 Q232.176 663.851 233.982 667.416 Q235.81 670.957 239.422 670.957 Q243.056 670.957 244.861 667.416 Q246.69 663.851 246.69 656.744 Q246.69 649.615 244.861 646.073 Q243.056 642.508 239.422 642.508 M239.422 638.805 Q245.232 638.805 248.287 643.411 Q251.366 647.994 251.366 656.744 Q251.366 665.471 248.287 670.078 Q245.232 674.661 239.422 674.661 Q233.611 674.661 230.533 670.078 Q227.477 665.471 227.477 656.744 Q227.477 647.994 230.533 643.411 Q233.611 638.805 239.422 638.805 Z" fill="#000000" fill-rule="nonzero" fill-opacity="1" /><path clip-path="url(#clip040)" d="M165.024 432.117 Q161.413 432.117 159.584 435.682 Q157.778 439.224 157.778 446.353 Q157.778 453.46 159.584 457.025 Q161.413 460.566 165.024 460.566 Q168.658 460.566 170.464 457.025 Q172.292 453.46 172.292 446.353 Q172.292 439.224 170.464 435.682 Q168.658 432.117 165.024 432.117 M165.024 428.414 Q170.834 428.414 173.889 433.02 Q176.968 437.604 176.968 446.353 Q176.968 455.08 173.889 459.687 Q170.834 464.27 165.024 464.27 Q159.214 464.27 156.135 459.687 Q153.079 455.08 153.079 446.353 Q153.079 437.604 156.135 433.02 Q159.214 428.414 165.024 428.414 Z" fill="#000000" fill-rule="nonzero" fill-opacity="1" /><path clip-path="url(#clip040)" d="M185.186 457.719 L190.07 457.719 L190.07 463.599 L185.186 463.599 L185.186 457.719 Z" fill="#000000" fill-rule="nonzero" fill-opacity="1" /><path clip-path="url(#clip040)" d="M210.255 432.117 Q206.644 432.117 204.815 435.682 Q203.01 439.224 203.01 446.353 Q203.01 453.46 204.815 457.025 Q206.644 460.566 210.255 460.566 Q213.889 460.566 215.695 457.025 Q217.523 453.46 217.523 446.353 Q217.523 439.224 215.695 435.682 Q213.889 432.117 210.255 432.117 M210.255 428.414 Q216.065 428.414 219.121 433.02 Q222.199 437.604 222.199 446.353 Q222.199 455.08 219.121 459.687 Q216.065 464.27 210.255 464.27 Q204.445 464.27 201.366 459.687 Q198.311 455.08 198.311 446.353 Q198.311 437.604 201.366 433.02 Q204.445 428.414 210.255 428.414 Z" fill="#000000" fill-rule="nonzero" fill-opacity="1" /><path clip-path="url(#clip040)" d="M230.463 429.039 L248.82 429.039 L248.82 432.974 L234.746 432.974 L234.746 441.446 Q235.764 441.099 236.783 440.937 Q237.801 440.752 238.82 440.752 Q244.607 440.752 247.986 443.923 Q251.366 447.094 251.366 452.511 Q251.366 458.09 247.894 461.191 Q244.421 464.27 238.102 464.27 Q235.926 464.27 233.658 463.9 Q231.412 463.529 229.005 462.789 L229.005 458.09 Q231.088 459.224 233.31 459.779 Q235.533 460.335 238.009 460.335 Q242.014 460.335 244.352 458.228 Q246.69 456.122 246.69 452.511 Q246.69 448.9 244.352 446.793 Q242.014 444.687 238.009 444.687 Q236.135 444.687 234.26 445.103 Q232.408 445.52 230.463 446.4 L230.463 429.039 Z" fill="#000000" fill-rule="nonzero" fill-opacity="1" /><path clip-path="url(#clip040)" d="M164.028 221.726 Q160.417 221.726 158.589 225.291 Q156.783 228.833 156.783 235.963 Q156.783 243.069 158.589 246.634 Q160.417 250.175 164.028 250.175 Q167.663 250.175 169.468 246.634 Q171.297 243.069 171.297 235.963 Q171.297 228.833 169.468 225.291 Q167.663 221.726 164.028 221.726 M164.028 218.023 Q169.839 218.023 172.894 222.629 Q175.973 227.213 175.973 235.963 Q175.973 244.689 172.894 249.296 Q169.839 253.879 164.028 253.879 Q158.218 253.879 155.14 249.296 Q152.084 244.689 152.084 235.963 Q152.084 227.213 155.14 222.629 Q158.218 218.023 164.028 218.023 Z" fill="#000000" fill-rule="nonzero" fill-opacity="1" /><path clip-path="url(#clip040)" d="M184.19 247.328 L189.075 247.328 L189.075 253.208 L184.19 253.208 L184.19 247.328 Z" fill="#000000" fill-rule="nonzero" fill-opacity="1" /><path clip-path="url(#clip040)" d="M200.07 249.273 L207.709 249.273 L207.709 222.907 L199.399 224.574 L199.399 220.314 L207.662 218.648 L212.338 218.648 L212.338 249.273 L219.977 249.273 L219.977 253.208 L200.07 253.208 L200.07 249.273 Z" fill="#000000" fill-rule="nonzero" fill-opacity="1" /><path clip-path="url(#clip040)" d="M239.422 221.726 Q235.81 221.726 233.982 225.291 Q232.176 228.833 232.176 235.963 Q232.176 243.069 233.982 246.634 Q235.81 250.175 239.422 250.175 Q243.056 250.175 244.861 246.634 Q246.69 243.069 246.69 235.963 Q246.69 228.833 244.861 225.291 Q243.056 221.726 239.422 221.726 M239.422 218.023 Q245.232 218.023 248.287 222.629 Q251.366 227.213 251.366 235.963 Q251.366 244.689 248.287 249.296 Q245.232 253.879 239.422 253.879 Q233.611 253.879 230.533 249.296 Q227.477 244.689 227.477 235.963 Q227.477 227.213 230.533 222.629 Q233.611 218.023 239.422 218.023 Z" fill="#000000" fill-rule="nonzero" fill-opacity="1" /><path clip-path="url(#clip040)" d="M14.479 1032.16 L14.479 1026.3 L64.0042 1026.3 L64.0042 1032.16 L14.479 1032.16 Z" fill="#000000" fill-rule="nonzero" fill-opacity="1" /><path clip-path="url(#clip040)" d="M32.4621 1000.23 Q32.4621 1004.94 36.1542 1007.68 Q39.8145 1010.42 46.212 1010.42 Q52.6095 1010.42 56.3017 1007.71 Q59.9619 1004.97 59.9619 1000.23 Q59.9619 995.553 56.2698 992.816 Q52.5777 990.079 46.212 990.079 Q39.8781 990.079 36.186 992.816 Q32.4621 995.553 32.4621 1000.23 M27.4968 1000.23 Q27.4968 992.593 32.4621 988.233 Q37.4273 983.872 46.212 983.872 Q54.9649 983.872 59.9619 988.233 Q64.9272 992.593 64.9272 1000.23 Q64.9272 1007.9 59.9619 1012.26 Q54.9649 1016.59 46.212 1016.59 Q37.4273 1016.59 32.4621 1012.26 Q27.4968 1007.9 27.4968 1000.23 Z" fill="#000000" fill-rule="nonzero" fill-opacity="1" /><path clip-path="url(#clip040)" d="M45.7664 950.707 Q39.4007 950.707 35.8996 953.349 Q32.3984 955.959 32.3984 960.701 Q32.3984 965.412 35.8996 968.054 Q39.4007 970.664 45.7664 970.664 Q52.1003 970.664 55.6014 968.054 Q59.1026 965.412 59.1026 960.701 Q59.1026 955.959 55.6014 953.349 Q52.1003 950.707 45.7664 950.707 M59.58 944.851 Q68.683 944.851 73.1071 948.893 Q77.5631 952.935 77.5631 961.274 Q77.5631 964.361 77.0857 967.099 Q76.6401 969.836 75.6852 972.414 L69.9879 972.414 Q71.3884 969.836 72.0568 967.322 Q72.7252 964.807 72.7252 962.197 Q72.7252 956.436 69.7015 953.572 Q66.7096 950.707 60.6303 950.707 L57.7339 950.707 Q60.885 952.521 62.4446 955.354 Q64.0042 958.187 64.0042 962.133 Q64.0042 968.69 59.0071 972.701 Q54.01 976.711 45.7664 976.711 Q37.491 976.711 32.4939 972.701 Q27.4968 968.69 27.4968 962.133 Q27.4968 958.187 29.0564 955.354 Q30.616 952.521 33.7671 950.707 L28.3562 950.707 L28.3562 944.851 L59.58 944.851 Z" fill="#000000" fill-rule="nonzero" fill-opacity="1" /><path clip-path="url(#clip040)" d="M46.0847 916.587 Q46.0847 923.685 47.7079 926.422 Q49.3312 929.159 53.2461 929.159 Q56.3653 929.159 58.2114 927.122 Q60.0256 925.053 60.0256 921.52 Q60.0256 916.651 56.5881 913.722 Q53.1188 910.762 47.3897 910.762 L46.0847 910.762 L46.0847 916.587 M43.6657 904.906 L64.0042 904.906 L64.0042 910.762 L58.5933 910.762 Q61.8398 912.767 63.3994 915.759 Q64.9272 918.751 64.9272 923.08 Q64.9272 928.554 61.8716 931.801 Q58.7843 935.016 53.6281 935.016 Q47.6125 935.016 44.5569 931.005 Q41.5014 926.963 41.5014 918.974 L41.5014 910.762 L40.9285 910.762 Q36.8862 910.762 34.6901 913.436 Q32.4621 916.078 32.4621 920.884 Q32.4621 923.939 33.1941 926.836 Q33.9262 929.732 35.3903 932.406 L29.9795 932.406 Q28.7381 929.191 28.1334 926.167 Q27.4968 923.144 27.4968 920.279 Q27.4968 912.545 31.5072 908.725 Q35.5176 904.906 43.6657 904.906 Z" fill="#000000" fill-rule="nonzero" fill-opacity="1" /><path clip-path="url(#clip040)" d="M33.8307 872.186 Q33.2578 873.173 33.0032 874.35 Q32.7167 875.496 32.7167 876.897 Q32.7167 881.862 35.9632 884.536 Q39.1779 887.177 45.2253 887.177 L64.0042 887.177 L64.0042 893.066 L28.3562 893.066 L28.3562 887.177 L33.8944 887.177 Q30.6479 885.331 29.0883 882.371 Q27.4968 879.411 27.4968 875.178 Q27.4968 874.573 27.5923 873.841 Q27.656 873.109 27.8151 872.218 L33.8307 872.186 Z" fill="#000000" fill-rule="nonzero" fill-opacity="1" /><path clip-path="url(#clip040)" d="M28.3562 866.043 L28.3562 860.187 L64.0042 860.187 L64.0042 866.043 L28.3562 866.043 M14.479 866.043 L14.479 860.187 L21.895 860.187 L21.895 866.043 L14.479 866.043 Z" fill="#000000" fill-rule="nonzero" fill-opacity="1" /><path clip-path="url(#clip040)" d="M18.2347 842.14 L28.3562 842.14 L28.3562 830.077 L32.9077 830.077 L32.9077 842.14 L52.2594 842.14 Q56.6199 842.14 57.8613 840.962 Q59.1026 839.753 59.1026 836.093 L59.1026 830.077 L64.0042 830.077 L64.0042 836.093 Q64.0042 842.872 61.4897 845.45 Q58.9434 848.028 52.2594 848.028 L32.9077 848.028 L32.9077 852.325 L28.3562 852.325 L28.3562 848.028 L18.2347 848.028 L18.2347 842.14 Z" fill="#000000" fill-rule="nonzero" fill-opacity="1" /><path clip-path="url(#clip040)" d="M42.4881 792.742 L64.0042 792.742 L64.0042 798.598 L42.679 798.598 Q37.6183 798.598 35.1038 800.572 Q32.5894 802.545 32.5894 806.492 Q32.5894 811.234 35.6131 813.972 Q38.6368 816.709 43.8567 816.709 L64.0042 816.709 L64.0042 822.597 L14.479 822.597 L14.479 816.709 L33.8944 816.709 Q30.6797 814.608 29.0883 811.776 Q27.4968 808.911 27.4968 805.187 Q27.4968 799.044 31.3163 795.893 Q35.1038 792.742 42.4881 792.742 Z" fill="#000000" fill-rule="nonzero" fill-opacity="1" /><path clip-path="url(#clip040)" d="M35.1993 753.306 Q31.2526 751.11 29.3747 748.055 Q27.4968 744.999 27.4968 740.862 Q27.4968 735.292 31.4117 732.268 Q35.2948 729.244 42.4881 729.244 L64.0042 729.244 L64.0042 735.132 L42.679 735.132 Q37.5546 735.132 35.072 736.947 Q32.5894 738.761 32.5894 742.485 Q32.5894 747.036 35.6131 749.678 Q38.6368 752.32 43.8567 752.32 L64.0042 752.32 L64.0042 758.208 L42.679 758.208 Q37.5228 758.208 35.072 760.022 Q32.5894 761.837 32.5894 765.624 Q32.5894 770.112 35.6449 772.754 Q38.6686 775.395 43.8567 775.395 L64.0042 775.395 L64.0042 781.284 L28.3562 781.284 L28.3562 775.395 L33.8944 775.395 Q30.616 773.39 29.0564 770.589 Q27.4968 767.788 27.4968 763.937 Q27.4968 760.054 29.4702 757.349 Q31.4436 754.611 35.1993 753.306 Z" fill="#000000" fill-rule="nonzero" fill-opacity="1" /><path clip-path="url(#clip040)" d="M28.3562 717.563 L28.3562 711.707 L64.0042 711.707 L64.0042 717.563 L28.3562 717.563 M14.479 717.563 L14.479 711.707 L21.895 711.707 L21.895 717.563 L14.479 717.563 Z" fill="#000000" fill-rule="nonzero" fill-opacity="1" /><path clip-path="url(#clip040)" d="M29.7248 673.799 L35.1993 673.799 Q33.8307 676.281 33.1623 678.796 Q32.4621 681.279 32.4621 683.825 Q32.4621 689.522 36.0905 692.673 Q39.6872 695.824 46.212 695.824 Q52.7369 695.824 56.3653 692.673 Q59.9619 689.522 59.9619 683.825 Q59.9619 681.279 59.2935 678.796 Q58.5933 676.281 57.2247 673.799 L62.6355 673.799 Q63.7814 676.25 64.3543 678.891 Q64.9272 681.501 64.9272 684.461 Q64.9272 692.514 59.8664 697.256 Q54.8057 701.999 46.212 701.999 Q37.491 701.999 32.4939 697.225 Q27.4968 692.419 27.4968 684.079 Q27.4968 681.374 28.0697 678.796 Q28.6108 676.218 29.7248 673.799 Z" fill="#000000" fill-rule="nonzero" fill-opacity="1" /><path clip-path="url(#clip040)" d="M41.7242 620.104 Q42.4244 618.035 44.7161 616.094 Q47.0077 614.12 51.0181 612.147 L64.0042 605.622 L64.0042 612.529 L51.8138 618.608 Q47.0395 620.963 45.48 623.191 Q43.9204 625.388 43.9204 629.207 L43.9204 636.209 L64.0042 636.209 L64.0042 642.639 L16.4842 642.639 L16.4842 628.125 Q16.4842 619.977 19.8898 615.966 Q23.2955 611.956 30.1704 611.956 Q34.6582 611.956 37.6183 614.057 Q40.5784 616.126 41.7242 620.104 M21.7677 636.209 L38.6368 636.209 L38.6368 628.125 Q38.6368 623.478 36.5043 621.123 Q34.34 618.735 30.1704 618.735 Q26.0009 618.735 23.9002 621.123 Q21.7677 623.478 21.7677 628.125 L21.7677 636.209 Z" fill="#000000" fill-rule="nonzero" fill-opacity="1" /><path clip-path="url(#clip040)" d="M44.7161 570.038 L47.5806 570.038 L47.5806 596.965 Q53.6281 596.583 56.8109 593.336 Q59.9619 590.058 59.9619 584.233 Q59.9619 580.859 59.1344 577.708 Q58.3069 574.526 56.6518 571.406 L62.1899 571.406 Q63.5267 574.557 64.227 577.868 Q64.9272 581.178 64.9272 584.583 Q64.9272 593.113 59.9619 598.111 Q54.9967 603.076 46.5303 603.076 Q37.7774 603.076 32.6531 598.365 Q27.4968 593.623 27.4968 585.602 Q27.4968 578.409 32.1438 574.239 Q36.7589 570.038 44.7161 570.038 M42.9973 575.894 Q38.1912 575.958 35.3266 578.6 Q32.4621 581.21 32.4621 585.538 Q32.4621 590.44 35.2312 593.4 Q38.0002 596.328 43.0292 596.774 L42.9973 575.894 Z" fill="#000000" fill-rule="nonzero" fill-opacity="1" /><path clip-path="url(#clip040)" d="M18.2347 554.633 L28.3562 554.633 L28.3562 542.57 L32.9077 542.57 L32.9077 554.633 L52.2594 554.633 Q56.6199 554.633 57.8613 553.455 Q59.1026 552.246 59.1026 548.585 L59.1026 542.57 L64.0042 542.57 L64.0042 548.585 Q64.0042 555.365 61.4897 557.943 Q58.9434 560.521 52.2594 560.521 L32.9077 560.521 L32.9077 564.818 L28.3562 564.818 L28.3562 560.521 L18.2347 560.521 L18.2347 554.633 Z" fill="#000000" fill-rule="nonzero" fill-opacity="1" /><path clip-path="url(#clip040)" d="M49.9359 535.472 L28.3562 535.472 L28.3562 529.616 L49.7131 529.616 Q54.7739 529.616 57.3202 527.642 Q59.8346 525.669 59.8346 521.722 Q59.8346 516.98 56.8109 514.242 Q53.7872 511.473 48.5673 511.473 L28.3562 511.473 L28.3562 505.617 L64.0042 505.617 L64.0042 511.473 L58.5296 511.473 Q61.7762 513.606 63.3676 516.439 Q64.9272 519.239 64.9272 522.963 Q64.9272 529.106 61.1078 532.289 Q57.2883 535.472 49.9359 535.472 M27.4968 520.735 L27.4968 520.735 Z" fill="#000000" fill-rule="nonzero" fill-opacity="1" /><path clip-path="url(#clip040)" d="M33.8307 472.897 Q33.2578 473.884 33.0032 475.061 Q32.7167 476.207 32.7167 477.608 Q32.7167 482.573 35.9632 485.247 Q39.1779 487.888 45.2253 487.888 L64.0042 487.888 L64.0042 493.777 L28.3562 493.777 L28.3562 487.888 L33.8944 487.888 Q30.6479 486.042 29.0883 483.082 Q27.4968 480.122 27.4968 475.889 Q27.4968 475.284 27.5923 474.552 Q27.656 473.82 27.8151 472.929 L33.8307 472.897 Z" fill="#000000" fill-rule="nonzero" fill-opacity="1" /><path clip-path="url(#clip040)" d="M42.4881 438.268 L64.0042 438.268 L64.0042 444.124 L42.679 444.124 Q37.6183 444.124 35.1038 446.097 Q32.5894 448.071 32.5894 452.018 Q32.5894 456.76 35.6131 459.497 Q38.6368 462.235 43.8567 462.235 L64.0042 462.235 L64.0042 468.123 L28.3562 468.123 L28.3562 462.235 L33.8944 462.235 Q30.6797 460.134 29.0883 457.301 Q27.4968 454.437 27.4968 450.713 Q27.4968 444.57 31.3163 441.419 Q35.1038 438.268 42.4881 438.268 Z" fill="#000000" fill-rule="nonzero" fill-opacity="1" /><polyline clip-path="url(#clip042)" style="stroke:#0077bb; stroke-linecap:round; stroke-linejoin:round; stroke-width:12; stroke-opacity:1; fill:none" points="345.82,681.286 347.759,638.571 349.698,660.319 351.637,852.522 353.575,713.666 355.514,726.138 357.453,781.26 359.392,747.861 361.331,658.98 363.269,720.267 365.208,701.288 367.147,650.893 369.086,665.35 371.025,734.812 372.963,623.264 374.902,742.152 376.841,801.413 378.78,469.417 380.719,662.759 382.657,634.176 384.596,629.733 386.535,579.41 388.474,690.516 390.412,534.339 392.351,684.509 394.29,666.059 396.229,634.267 398.168,661.621 400.106,646.656 402.045,609.147 403.984,722.904 405.923,546.582 407.862,632.357 409.8,591.071 411.739,669.857 413.678,635.332 415.617,668.987 417.555,644.608 419.494,683.319 421.433,654.684 423.372,637.007 425.311,757.53 427.249,657.217 429.188,644.332 431.127,639.244 433.066,661.489 435.005,755.822 436.943,695.019 438.882,657.217 440.821,535.369 442.76,659.792 444.698,700.357 446.637,596.945 448.576,643.561 450.515,620.734 452.454,678.39 454.392,703.317 456.331,602.636 458.27,663.153 460.209,630.995 462.148,658.06 464.086,645.426 466.025,650.494 467.964,675.732 469.903,663.125 471.842,669.058 473.78,647.066 475.719,660.598 477.658,666.529 479.597,634.397 481.535,621.127 483.474,631.389 485.413,569.269 487.352,683.327 489.291,740.707 491.229,702.544 493.168,790.102 495.107,677.298 497.046,576.603 498.985,677.873 500.923,629.698 502.862,723.742 504.801,614.762 506.74,709.263 508.678,600.864 510.617,630.604 512.556,690.725 514.495,648.6 516.434,721.407 518.372,687.922 520.311,661.622 522.25,768.861 524.189,631.95 526.128,578.781 528.066,666.057 530.005,654.563 531.944,685.612 533.883,649.212 535.821,645.68 537.76,654.559 539.699,617.55 541.638,630.107 543.577,645.031 545.515,672.892 547.454,651.114 549.393,626.836 551.332,676.288 553.271,768.141 555.209,672.409 557.148,680.559 559.087,620.467 561.026,731.04 562.965,642.711 564.903,716.464 566.842,651.713 568.781,675.592 570.72,680.299 572.658,576.524 574.597,678.158 576.536,706.797 578.475,601.253 580.414,710.412 582.352,667.382 584.291,697.19 586.23,721.216 588.169,643.016 590.108,548.983 592.046,640.669 593.985,651.716 595.924,683.875 597.863,598.609 599.801,658.127 601.74,781.841 603.679,621.763 605.618,629.437 607.557,686.856 609.495,580.768 611.434,698.493 613.373,637.905 615.312,563.757 617.251,713.226 619.189,669.056 621.128,688.339 623.067,612.438 625.006,564.615 626.944,624.444 628.883,698.001 630.822,619.081 632.761,647.517 634.7,678.411 636.638,630.742 638.577,717.469 640.516,658.11 642.455,637.625 644.394,715.368 646.332,786.192 648.271,665.585 650.21,600.822 652.149,637.976 654.088,616.28 656.026,592.535 657.965,547.231 659.904,688.599 661.843,552.654 663.781,745.189 665.72,633.751 667.659,669.368 669.598,776.227 671.537,623.376 673.475,774.134 675.414,585.782 677.353,758.856 679.292,603.369 681.231,666.296 683.169,727.784 685.108,617.664 687.047,843.471 688.986,714.061 690.924,560.371 692.863,576.476 694.802,710.558 696.741,627.188 698.68,599.639 700.618,769.382 702.557,604.501 704.496,678.789 706.435,590.055 708.374,591.11 710.312,622.742 712.251,700.812 714.19,619.951 716.129,557.069 718.067,698.954 720.006,546.247 721.945,665.918 723.884,610.444 725.823,674.48 727.761,633.929 729.7,652.059 731.639,676.16 733.578,642.572 735.517,658.937 737.455,681.375 739.394,628.76 741.333,683.944 743.272,604.785 745.211,690.664 747.149,501.699 749.088,679.681 751.027,773.944 752.966,708.128 754.904,656.349 756.843,594.329 758.782,691.56 760.721,743.441 762.66,628.279 764.598,613.748 766.537,609.058 768.476,652.09 770.415,586.083 772.354,701.111 774.292,655.52 776.231,626.793 778.17,616.157 780.109,643.896 782.047,631.527 783.986,643.195 785.925,618.692 787.864,650.695 789.803,615.066 791.741,668.524 793.68,689.691 795.619,612.63 797.558,613.895 799.497,611.178 801.435,617.928 803.374,641.604 805.313,649.432 807.252,661.108 809.19,644.003 811.129,730.017 813.068,641.455 815.007,632.901 816.946,641.604 818.884,654.88 820.823,695.552 822.762,655.646 824.701,601.029 826.64,662.647 828.578,688.381 830.517,615.975 832.456,647.935 834.395,722.625 836.333,739.633 838.272,604.728 840.211,658.008 842.15,568.052 844.089,692.189 846.027,675.204 847.966,698.169 849.905,564.08 851.844,701.572 853.783,623.713 855.721,647.915 857.66,709.421 859.599,660.354 861.538,680.821 863.477,619.514 865.415,656.435 867.354,631.495 869.293,675.128 871.232,682.264 873.17,641.546 875.109,661.13 877.048,683.131 878.987,682.499 880.926,692.229 882.864,644.452 884.803,664.393 886.742,675.611 888.681,688.592 890.62,890.468 892.558,741.704 894.497,577 896.436,663.202 898.375,677.802 900.313,690.017 902.252,686.782 904.191,714.324 906.13,698.998 908.069,633.165 910.007,666.109 911.946,600.629 913.885,743.284 915.824,641.112 917.763,644.734 919.701,564.753 921.64,686.059 923.579,669.513 925.518,663.379 927.456,637.883 929.395,674.79 931.334,628.261 933.273,648.482 935.212,765.943 937.15,648.272 939.089,634.937 941.028,625.34 942.967,774.394 944.906,774.019 946.844,749.618 948.783,819.506 950.722,820.864 952.661,514.428 954.6,833.098 956.538,567.85 958.477,919.308 960.416,857.706 962.355,1215.69 964.293,333.187 966.232,1000.72 968.171,1384.24 970.11,121.917 972.049,1302.22 973.987,187.445 975.926,877.313 977.865,631.855 979.804,932.256 981.743,860.533 983.681,86.1857 985.62,649.949 987.559,385.832 989.498,742.504 991.436,707.544 993.375,832.389 995.314,981.7 997.253,555.517 999.192,813.109 1001.13,288.817 1003.07,636.691 1005.01,441.969 1006.95,269.835 1008.89,887.751 1010.82,827.985 1012.76,907.089 1014.7,893.032 1016.64,430.289 1018.58,762.305 1020.52,786.889 1022.46,663.493 1024.4,699.824 1026.33,595.811 1028.27,430.535 1030.21,589.632 1032.15,495.661 1034.09,792.62 1036.03,874.194 1037.97,693.98 1039.91,818.744 1041.84,772.285 1043.78,720.12 1045.72,623.993 1047.66,766.169 1049.6,784.789 1051.54,930.184 1053.48,380.751 1055.42,781.455 1057.36,303.265 1059.29,906.213 1061.23,558.246 1063.17,667.526 1065.11,707.404 1067.05,308.243 1068.99,394.774 1070.93,768.578 1072.87,774.784 1074.8,559.795 1076.74,609.339 1078.68,443.151 1080.62,459.082 1082.56,460.014 1084.5,443.511 1086.44,745.269 1088.38,1051.69 1090.31,1092.54 1092.25,475.844 1094.19,621.265 1096.13,611.23 1098.07,818.122 1100.01,641.916 1101.95,649.587 1103.89,695.505 1105.82,675.72 1107.76,832.338 1109.7,460.518 1111.64,981.486 1113.58,597.858 1115.52,673.622 1117.46,741.891 1119.4,615.497 1121.34,632.382 1123.27,830.777 1125.21,641.763 1127.15,745.551 1129.09,414.08 1131.03,667.141 1132.97,853.832 1134.91,470.549 1136.85,638.998 1138.78,742.361 1140.72,721.797 1142.66,386.935 1144.6,647.592 1146.54,642.82 1148.48,671.614 1150.42,782.445 1152.36,650.619 1154.29,616.213 1156.23,845.82 1158.17,724.323 1160.11,652.017 1162.05,669.361 1163.99,626.061 1165.93,684.9 1167.87,515.549 1169.8,719.782 1171.74,552.9 1173.68,678.877 1175.62,685.711 1177.56,610.389 1179.5,797.575 1181.44,731.817 1183.38,651.969 1185.32,713.533 1187.25,676.751 1189.19,508.577 1191.13,636.649 1193.07,755.822 1195.01,562.033 1196.95,640.14 1198.89,750.269 1200.83,674.677 1202.76,567.207 1204.7,665.789 1206.64,611.136 1208.58,798.757 1210.52,680.1 1212.46,637.847 1214.4,601.368 1216.34,564.621 1218.27,645.362 1220.21,519.134 1222.15,756.58 1224.09,653.867 1226.03,843.805 1227.97,726.04 1229.91,805.701 1231.85,567.86 1233.78,599.869 1235.72,625.299 1237.66,757.323 1239.6,612.233 1241.54,648.278 1243.48,581.112 1245.42,577.297 1247.36,703.942 1249.3,548.988 1251.23,574.922 1253.17,657.217 1255.11,594.487 1257.05,814.131 1258.99,918.591 1260.93,711.865 1262.87,673.751 1264.81,716.535 1266.74,607.112 1268.68,677.558 1270.62,556.481 1272.56,651.791 1274.5,763.379 1276.44,823.586 1278.38,782.482 1280.32,665.171 1282.25,595.961 1284.19,569.854 1286.13,620.868 1288.07,697.41 1290.01,571.554 1291.95,737.115 1293.89,235.444 1295.83,662.432 1297.76,657.217 1299.7,723.842 1301.64,611.518 1303.58,514.566 1305.52,633.625 1307.46,653.858 1309.4,476.455 1311.34,768.041 1313.28,523.934 1315.21,302.972 1317.15,660.16 1319.09,676.394 1321.03,824.617 1322.97,549.377 1324.91,537.471 1326.85,615.16 1328.79,601.313 1330.72,687.227 1332.66,714.978 1334.6,641.254 1336.54,593.962 1338.48,716.129 1340.42,721.371 1342.36,500.045 1344.3,668.555 1346.23,682.84 1348.17,723.415 1350.11,579.612 1352.05,742.081 1353.99,459.951 1355.93,728.526 1357.87,644.545 1359.81,678.358 1361.74,661.458 1363.68,596.834 1365.62,724.679 1367.56,541.238 1369.5,369.573 1371.44,563.027 1373.38,687.535 1375.32,650.883 1377.26,569.525 1379.19,674.61 1381.13,540.582 1383.07,998.869 1385.01,580.437 1386.95,679.197 1388.89,717.274 1390.83,670.387 1392.77,612.606 1394.7,770.985 1396.64,822.68 1398.58,568.89 1400.52,786.187 1402.46,641.755 1404.4,551.912 1406.34,529.187 1408.28,531.679 1410.21,670.121 1412.15,550.038 1414.09,674.892 1416.03,664.815 1417.97,718.497 1419.91,554.319 1421.85,501.993 1423.79,444.954 1425.72,614.881 1427.66,559.317 1429.6,721.101 1431.54,670.791 1433.48,528.903 1435.42,738.214 1437.36,815.892 1439.3,551.528 1441.24,651.549 1443.17,595.361 1445.11,716.808 1447.05,626.754 1448.99,520.078 1450.93,716.391 1452.87,500.171 1454.81,732.301 1456.75,540.874 1458.68,685.738 1460.62,694.478 1462.56,605.143 1464.5,555.995 1466.44,780.678 1468.38,727.884 1470.32,736.787 1472.26,670.442 1474.19,528.94 1476.13,608.251 1478.07,799.285 1480.01,554.49 1481.95,691.541 1483.89,597.334 1485.83,673.174 1487.77,617.966 1489.7,642.46 1491.64,653.01 1493.58,608.1 1495.52,629.258 1497.46,759.597 1499.4,430.77 1501.34,632.239 1503.28,500.775 1505.22,653.38 1507.15,787.718 1509.09,588.541 1511.03,710.097 1512.97,544.432 1514.91,630.44 1516.85,567.615 1518.79,658.15 1520.73,550.311 1522.66,766.924 1524.6,617.244 1526.54,633.23 1528.48,638.858 1530.42,594.487 1532.36,665.346 1534.3,651.796 1536.24,737.438 1538.17,664.586 1540.11,587.725 1542.05,606.737 1543.99,573.821 1545.93,749.583 1547.87,719.637 1549.81,697.51 1551.75,643.438 1553.68,624.329 1555.62,670.889 1557.56,629.01 1559.5,624.696 1561.44,660.818 1563.38,608.861 1565.32,697.475 1567.26,688.797 1569.2,612.175 1571.13,643.798 1573.07,702.115 1575.01,719.974 1576.95,733.969 1578.89,602.515 1580.83,706.324 1582.77,628.425 1584.71,647.048 1586.64,922.079 1588.58,760.75 1590.52,505.773 1592.46,632.015 1594.4,616.822 1596.34,542.031 1598.28,546.914 1600.22,711.088 1602.15,750.129 1604.09,610.505 1606.03,646.083 1607.97,688.841 1609.91,807.377 1611.85,665.934 1613.79,763.253 1615.73,502.023 1617.66,633.328 1619.6,746.779 1621.54,493.045 1623.48,652.539 1625.42,725.087 1627.36,775.755 1629.3,485.797 1631.24,568.081 1633.18,728.561 1635.11,698.535 1637.05,617.769 1638.99,645.081 1640.93,622.867 1642.87,566.664 1644.81,708.2 1646.75,670.979 1648.69,562.717 1650.62,718.765 1652.56,581.317 1654.5,500.768 1656.44,667.583 1658.38,573.298 1660.32,570.784 1662.26,616.713 1664.2,721.878 1666.13,738.188 1668.07,717.256 1670.01,721.633 1671.95,720.853 1673.89,642.105 1675.83,640.391 1677.77,591.448 1679.71,577.066 1681.64,677.756 1683.58,592.519 1685.52,777.179 1687.46,899.622 1689.4,869.659 1691.34,550.128 1693.28,695.151 1695.22,643.901 1697.16,704.008 1699.09,605.681 1701.03,660.064 1702.97,523.624 1704.91,630.635 1706.85,603.648 1708.79,689.822 1710.73,639.978 1712.67,717.408 1714.6,653.545 1716.54,545.823 1718.48,593.354 1720.42,646.667 1722.36,688.948 1724.3,804.875 1726.24,556.714 1728.18,713.058 1730.11,602.271 1732.05,657.217 1733.99,573.926 1735.93,665.121 1737.87,666.897 1739.81,636.125 1741.75,720.813 1743.69,713.663 1745.62,711.688 1747.56,725.384 1749.5,381.358 1751.44,566.871 1753.38,580.456 1755.32,672.29 1757.26,642.98 1759.2,629.718 1761.13,660.541 1763.07,656.386 1765.01,705.699 1766.95,548.499 1768.89,673.635 1770.83,612.222 1772.77,690.713 1774.71,600.189 1776.65,770.395 1778.58,672.206 1780.52,621.498 1782.46,739.071 1784.4,617.762 1786.34,638.043 1788.28,626.554 1790.22,647.32 1792.16,716.115 1794.09,701.727 1796.03,652.155 1797.97,749.288 1799.91,528.206 1801.85,569.534 1803.79,664.591 1805.73,900.287 1807.67,594.265 1809.6,777.027 1811.54,707.717 1813.48,508.361 1815.42,758.217 1817.36,564.83 1819.3,534.873 1821.24,728.151 1823.18,633.439 1825.11,614.25 1827.05,796.979 1828.99,628.719 1830.93,652.916 1832.87,541.881 1834.81,858.546 1836.75,754.871 1838.69,571.867 1840.63,637.899 1842.56,628.405 1844.5,621.693 1846.44,687.524 1848.38,654.611 1850.32,687.725 1852.26,667.728 1854.2,422.702 1856.14,492.917 1858.07,694.072 1860.01,550.745 1861.95,568.71 1863.89,612.892 1865.83,603.585 1867.77,631.774 1869.71,687.166 1871.65,505.209 1873.58,757.696 1875.52,741.181 1877.46,700.601 1879.4,760.22 1881.34,684.748 1883.28,635.964 1885.22,614.252 1887.16,686.855 1889.09,623.695 1891.03,687.61 1892.97,518.739 1894.91,632.317 1896.85,714.787 1898.79,569.661 1900.73,583.173 1902.67,554.264 1904.61,635.073 1906.54,657.93 1908.48,710.282 1910.42,690.544 1912.36,618.842 1914.3,674.551 1916.24,803.764 1918.18,696.367 1920.12,683.775 1922.05,759.692 1923.99,755.059 1925.93,546.914 1927.87,715.16 1929.81,907.341 1931.75,498.754 1933.69,736.935 1935.63,863.38 1937.56,922.406 1939.5,597.932 1941.44,419.524 1943.38,670.076 1945.32,703.837 1947.26,538.245 1949.2,636.172 1951.14,533.924 1953.07,667.014 1955.01,662.124 1956.95,680.193 1958.89,476.043 1960.83,840.037 1962.77,639.967 1964.71,557.576 1966.65,717.693 1968.59,674.307 1970.52,780.511 1972.46,798.103 1974.4,635.565 1976.34,678.869 1978.28,686.844 1980.22,677.378 1982.16,670.417 1984.1,570.851 1986.03,605.724 1987.97,735.564 1989.91,646.802 1991.85,851.479 1993.79,583.425 1995.73,598.75 1997.67,585.689 1999.61,733.146 2001.54,785.983 2003.48,703.783 2005.42,773.578 2007.36,657.217 2009.3,601.893 2011.24,803.179 2013.18,653.361 2015.12,610.266 2017.05,487.275 2018.99,770.372 2020.93,677.005 2022.87,713.316 2024.81,742.305 2026.75,707.328 2028.69,733.018 2030.63,574.503 2032.57,699.866 2034.5,510.281 2036.44,814.134 2038.38,668.223 2040.32,690.409 2042.26,445.526 2044.2,708.421 2046.14,577.304 2048.08,518.382 2050.01,630.542 2051.95,668.235 2053.89,713.674 2055.83,641.407 2057.77,704.827 2059.71,629.146 2061.65,624.703 2063.59,735.678 2065.52,846.191 2067.46,920.705 2069.4,773.236 2071.34,829.034 2073.28,574.839 2075.22,714.935 2077.16,565.463 2079.1,601.815 2081.03,699.518 2082.97,734.225 2084.91,351.098 2086.85,711.244 2088.79,663.496 2090.73,706.728 2092.67,714.83 2094.61,577.41 2096.55,638.287 2098.48,720.653 2100.42,591.683 2102.36,650.929 2104.3,698.259 2106.24,677.358 2108.18,713.914 2110.12,692.909 2112.06,405.316 2113.99,651.083 2115.93,486.059 2117.87,674.909 2119.81,602.417 2121.75,667.925 2123.69,625.174 2125.63,715.66 2127.57,578.51 2129.5,694.93 2131.44,604.13 2133.38,688.989 2135.32,721.49 2137.26,559.255 2139.2,765.988 2141.14,560.929 2143.08,712.387 2145.01,636.807 2146.95,568.002 2148.89,570.784 2150.83,593.538 2152.77,674.656 2154.71,628.801 2156.65,649.915 2158.59,657.217 2160.53,729.887 2162.46,745.352 2164.4,661.009 2166.34,631.689 2168.28,587.109 2170.22,790.959 2172.16,662.005 2174.1,636.192 2176.04,698.41 2177.97,658.18 2179.91,688.143 2181.85,705.998 2183.79,564.051 2185.73,525.875 2187.67,647.924 2189.61,638.693 2191.55,876.31 2193.48,651.38 2195.42,574.425 2197.36,676.326 2199.3,620.984 2201.24,744.513 2203.18,769.197 2205.12,732.547 2207.06,771.24 2208.99,699.076 2210.93,655.114 2212.87,576.015 2214.81,689.303 2216.75,686.409 2218.69,517.287 2220.63,463.402 2222.57,679.504 2224.51,762.48 2226.44,702.285 2228.38,691.592 2230.32,782.925 2232.26,628.032 2234.2,467.328 2236.14,579.502 2238.08,580.911 2240.02,589.799 2241.95,757.306 2243.89,654.324 2245.83,544.977 2247.77,622.631 2249.71,641.421 2251.65,626.722 2253.59,661.823 2255.53,593.184 2257.46,690.027 2259.4,570.287 2261.34,663.495 2263.28,779.244 2265.22,547.775 2267.16,627.613 2269.1,647.395 2271.04,766.541 2272.97,479.774 2274.91,692.466 2276.85,717.826 2278.79,671.606 2280.73,702.502 2282.67,677.298 2284.61,610.812 2286.55,626.562 2288.49,633.032 2290.42,637.613 2292.36,647.449 2294.3,680.788 "/>
<polyline clip-path="url(#clip042)" style="stroke:#0077bb; stroke-linecap:round; stroke-linejoin:round; stroke-width:12; stroke-opacity:1; fill:none" points="345.82,681.286 347.759,638.571 349.698,660.319 351.637,852.522 353.575,713.666 355.514,726.138 357.453,781.26 359.392,747.861 361.331,658.98 363.269,720.267 365.208,701.288 367.147,650.893 369.086,665.35 371.025,734.812 372.963,623.264 374.902,742.152 376.841,801.413 378.78,469.417 380.719,662.759 382.657,634.176 384.596,629.733 386.535,579.41 388.474,690.516 390.412,534.339 392.351,684.509 394.29,666.059 396.229,634.267 398.168,661.621 400.106,646.656 402.045,609.147 403.984,722.904 405.923,546.582 407.862,632.357 409.8,591.071 411.739,669.857 413.678,635.332 415.617,668.987 417.555,644.608 419.494,683.319 421.433,654.684 423.372,637.007 425.311,757.53 427.249,657.217 429.188,644.332 431.127,639.244 433.066,661.489 435.005,755.822 436.943,695.019 438.882,657.217 440.821,535.369 442.76,659.792 444.698,700.357 446.637,596.945 448.576,643.561 450.515,620.734 452.454,678.39 454.392,703.317 456.331,602.636 458.27,663.153 460.209,630.995 462.148,658.06 464.086,645.426 466.025,650.494 467.964,675.732 469.903,663.125 471.842,669.058 473.78,647.066 475.719,660.598 477.658,666.529 479.597,634.397 481.535,621.127 483.474,631.389 485.413,569.269 487.352,683.327 489.291,740.707 491.229,702.544 493.168,790.102 495.107,677.298 497.046,576.603 498.985,677.873 500.923,629.698 502.862,723.742 504.801,614.762 506.74,709.263 508.678,600.864 510.617,630.604 512.556,690.725 514.495,648.6 516.434,721.407 518.372,687.922 520.311,661.622 522.25,768.861 524.189,631.95 526.128,578.781 528.066,666.057 530.005,654.563 531.944,685.612 533.883,649.212 535.821,645.68 537.76,654.559 539.699,617.55 541.638,630.107 543.577,645.031 545.515,672.892 547.454,651.114 549.393,626.836 551.332,676.288 553.271,768.141 555.209,672.409 557.148,680.559 559.087,620.467 561.026,731.04 562.965,642.711 564.903,716.464 566.842,651.713 568.781,675.592 570.72,680.299 572.658,576.524 574.597,678.158 576.536,706.797 578.475,601.253 580.414,710.412 582.352,667.382 584.291,697.19 586.23,721.216 588.169,643.016 590.108,548.983 592.046,640.669 593.985,651.716 595.924,683.875 597.863,598.609 599.801,658.127 601.74,781.841 603.679,621.763 605.618,629.437 607.557,686.856 609.495,580.768 611.434,698.493 613.373,637.905 615.312,563.757 617.251,713.226 619.189,669.056 621.128,688.339 623.067,612.438 625.006,564.615 626.944,624.444 628.883,698.001 630.822,619.081 632.761,647.517 634.7,678.411 636.638,630.742 638.577,717.469 640.516,658.11 642.455,637.625 644.394,715.368 646.332,786.192 648.271,665.585 650.21,600.822 652.149,637.976 654.088,616.28 656.026,592.535 657.965,547.231 659.904,688.599 661.843,552.654 663.781,745.189 665.72,633.751 667.659,669.368 669.598,776.227 671.537,623.376 673.475,774.134 675.414,585.782 677.353,758.856 679.292,603.369 681.231,666.296 683.169,727.784 685.108,617.664 687.047,843.471 688.986,714.061 690.924,560.371 692.863,576.476 694.802,710.558 696.741,627.188 698.68,599.639 700.618,769.382 702.557,604.501 704.496,678.789 706.435,590.055 708.374,591.11 710.312,622.742 712.251,700.812 714.19,619.951 716.129,557.069 718.067,698.954 720.006,546.247 721.945,665.918 723.884,610.444 725.823,674.48 727.761,633.929 729.7,652.059 731.639,676.16 733.578,642.572 735.517,658.937 737.455,681.375 739.394,628.76 741.333,683.944 743.272,604.785 745.211,690.664 747.149,501.699 749.088,679.681 751.027,773.944 752.966,708.128 754.904,656.349 756.843,594.329 758.782,691.56 760.721,743.441 762.66,628.279 764.598,613.748 766.537,609.058 768.476,652.09 770.415,586.083 772.354,701.111 774.292,655.52 776.231,626.793 778.17,616.157 780.109,643.896 782.047,631.527 783.986,643.195 785.925,618.692 787.864,650.695 789.803,615.066 791.741,668.524 793.68,689.691 795.619,612.63 797.558,613.895 799.497,611.178 801.435,617.928 803.374,641.604 805.313,649.432 807.252,661.108 809.19,644.003 811.129,730.017 813.068,641.455 815.007,632.901 816.946,641.604 818.884,654.88 820.823,695.552 822.762,655.646 824.701,601.029 826.64,662.647 828.578,688.381 830.517,615.975 832.456,647.935 834.395,722.625 836.333,739.633 838.272,604.728 840.211,658.008 842.15,568.052 844.089,692.189 846.027,675.204 847.966,698.169 849.905,564.08 851.844,701.572 853.783,623.713 855.721,647.915 857.66,709.421 859.599,660.354 861.538,680.821 863.477,619.514 865.415,656.435 867.354,631.495 869.293,675.128 871.232,682.264 873.17,641.546 875.109,661.13 877.048,683.131 878.987,682.499 880.926,692.229 882.864,644.452 884.803,664.393 886.742,675.611 888.681,688.592 890.62,890.468 892.558,741.704 894.497,577 896.436,663.202 898.375,677.802 900.313,690.017 902.252,686.782 904.191,714.324 906.13,698.998 908.069,633.165 910.007,666.109 911.946,600.629 913.885,743.284 915.824,641.112 917.763,644.734 919.701,564.753 921.64,686.059 923.579,669.513 925.518,663.379 927.456,637.883 929.395,674.79 931.334,628.261 933.273,648.482 935.212,765.943 937.15,648.272 939.089,634.937 941.028,625.34 942.967,774.394 944.906,774.019 946.844,749.618 948.783,819.506 950.722,820.864 952.661,514.428 954.6,833.098 956.538,567.85 958.477,919.308 960.416,857.706 962.355,1215.69 964.293,333.187 966.232,1000.72 968.171,1384.24 970.11,121.917 972.049,1302.22 973.987,187.445 975.926,877.313 977.865,631.855 979.804,932.256 981.743,860.533 983.681,86.1857 985.62,649.949 987.559,385.832 989.498,742.504 991.436,707.544 993.375,832.389 995.314,981.7 997.253,555.517 999.192,813.109 1001.13,288.817 1003.07,636.691 1005.01,441.969 1006.95,269.835 1008.89,887.751 1010.82,827.985 1012.76,907.089 1014.7,893.032 1016.64,430.289 1018.58,762.305 1020.52,786.889 1022.46,663.493 1024.4,699.824 1026.33,595.811 1028.27,430.535 1030.21,589.632 1032.15,495.661 1034.09,792.62 1036.03,874.194 1037.97,693.98 1039.91,818.744 1041.84,772.285 1043.78,720.12 1045.72,623.993 1047.66,766.169 1049.6,784.789 1051.54,930.184 1053.48,380.751 1055.42,781.455 1057.36,303.265 1059.29,906.213 1061.23,558.246 1063.17,667.526 1065.11,707.404 1067.05,308.243 1068.99,394.774 1070.93,768.578 1072.87,774.784 1074.8,559.795 1076.74,609.339 1078.68,443.151 1080.62,459.082 1082.56,460.014 1084.5,443.511 1086.44,745.269 1088.38,1051.69 1090.31,1092.54 1092.25,475.844 1094.19,621.265 1096.13,611.23 1098.07,818.122 1100.01,641.916 1101.95,649.587 1103.89,695.505 1105.82,675.72 1107.76,832.338 1109.7,460.518 1111.64,981.486 1113.58,597.858 1115.52,673.622 1117.46,741.891 1119.4,615.497 1121.34,632.382 1123.27,830.777 1125.21,641.763 1127.15,745.551 1129.09,414.08 1131.03,667.141 1132.97,853.832 1134.91,470.549 1136.85,638.998 1138.78,742.361 1140.72,721.797 1142.66,386.935 1144.6,647.592 1146.54,642.82 1148.48,671.614 1150.42,782.445 1152.36,650.619 1154.29,616.213 1156.23,845.82 1158.17,724.323 1160.11,652.017 1162.05,669.361 1163.99,626.061 1165.93,684.9 1167.87,515.549 1169.8,719.782 1171.74,552.9 1173.68,678.877 1175.62,685.711 1177.56,610.389 1179.5,797.575 1181.44,731.817 1183.38,651.969 1185.32,713.533 1187.25,676.751 1189.19,508.577 1191.13,636.649 1193.07,755.822 1195.01,562.033 1196.95,640.14 1198.89,750.269 1200.83,674.677 1202.76,567.207 1204.7,665.789 1206.64,611.136 1208.58,798.757 1210.52,680.1 1212.46,637.847 1214.4,601.368 1216.34,564.621 1218.27,645.362 1220.21,519.134 1222.15,756.58 1224.09,653.867 1226.03,843.805 1227.97,726.04 1229.91,805.701 1231.85,567.86 1233.78,599.869 1235.72,625.299 1237.66,757.323 1239.6,612.233 1241.54,648.278 1243.48,581.112 1245.42,577.297 1247.36,703.942 1249.3,548.988 1251.23,574.922 1253.17,657.217 1255.11,594.487 1257.05,814.131 1258.99,918.591 1260.93,711.865 1262.87,673.751 1264.81,716.535 1266.74,607.112 1268.68,677.558 1270.62,556.481 1272.56,651.791 1274.5,763.379 1276.44,823.586 1278.38,782.482 1280.32,665.171 1282.25,595.961 1284.19,569.854 1286.13,620.868 1288.07,697.41 1290.01,571.554 1291.95,737.115 1293.89,235.444 1295.83,662.432 1297.76,657.217 1299.7,723.842 1301.64,611.518 1303.58,514.566 1305.52,633.625 1307.46,653.858 1309.4,476.455 1311.34,768.041 1313.28,523.934 1315.21,302.972 1317.15,660.16 1319.09,676.394 1321.03,824.617 1322.97,549.377 1324.91,537.471 1326.85,615.16 1328.79,601.313 1330.72,687.227 1332.66,714.978 1334.6,641.254 1336.54,593.962 1338.48,716.129 1340.42,721.371 1342.36,500.045 1344.3,668.555 1346.23,682.84 1348.17,723.415 1350.11,579.612 1352.05,742.081 1353.99,459.951 1355.93,728.526 1357.87,644.545 1359.81,678.358 1361.74,661.458 1363.68,596.834 1365.62,724.679 1367.56,541.238 1369.5,369.573 1371.44,563.027 1373.38,687.535 1375.32,650.883 1377.26,569.525 1379.19,674.61 1381.13,540.582 1383.07,998.869 1385.01,580.437 1386.95,679.197 1388.89,717.274 1390.83,670.387 1392.77,612.606 1394.7,770.985 1396.64,822.68 1398.58,568.89 1400.52,786.187 1402.46,641.755 1404.4,551.912 1406.34,529.187 1408.28,531.679 1410.21,670.121 1412.15,550.038 1414.09,674.892 1416.03,664.815 1417.97,718.497 1419.91,554.319 1421.85,501.993 1423.79,444.954 1425.72,614.881 1427.66,559.317 1429.6,721.101 1431.54,670.791 1433.48,528.903 1435.42,738.214 1437.36,815.892 1439.3,551.528 1441.24,651.549 1443.17,595.361 1445.11,716.808 1447.05,626.754 1448.99,520.078 1450.93,716.391 1452.87,500.171 1454.81,732.301 1456.75,540.874 1458.68,685.738 1460.62,694.478 1462.56,605.143 1464.5,555.995 1466.44,780.678 1468.38,727.884 1470.32,736.787 1472.26,670.442 1474.19,528.94 1476.13,608.251 1478.07,799.285 1480.01,554.49 1481.95,691.541 1483.89,597.334 1485.83,673.174 1487.77,617.966 1489.7,642.46 1491.64,653.01 1493.58,608.1 1495.52,629.258 1497.46,759.597 1499.4,430.77 1501.34,632.239 1503.28,500.775 1505.22,653.38 1507.15,787.718 1509.09,588.541 1511.03,710.097 1512.97,544.432 1514.91,630.44 1516.85,567.615 1518.79,658.15 1520.73,550.311 1522.66,766.924 1524.6,617.244 1526.54,633.23 1528.48,638.858 1530.42,594.487 1532.36,665.346 1534.3,651.796 1536.24,737.438 1538.17,664.586 1540.11,587.725 1542.05,606.737 1543.99,573.821 1545.93,749.583 1547.87,719.637 1549.81,697.51 1551.75,643.438 1553.68,624.329 1555.62,670.889 1557.56,629.01 1559.5,624.696 1561.44,660.818 1563.38,608.861 1565.32,697.475 1567.26,688.797 1569.2,612.175 1571.13,643.798 1573.07,702.115 1575.01,719.974 1576.95,733.969 1578.89,602.515 1580.83,706.324 1582.77,628.425 1584.71,647.048 1586.64,922.079 1588.58,760.75 1590.52,505.773 1592.46,632.015 1594.4,616.822 1596.34,542.031 1598.28,546.914 1600.22,711.088 1602.15,750.129 1604.09,610.505 1606.03,646.083 1607.97,688.841 1609.91,807.377 1611.85,665.934 1613.79,763.253 1615.73,502.023 1617.66,633.328 1619.6,746.779 1621.54,493.045 1623.48,652.539 1625.42,725.087 1627.36,775.755 1629.3,485.797 1631.24,568.081 1633.18,728.561 1635.11,698.535 1637.05,617.769 1638.99,645.081 1640.93,622.867 1642.87,566.664 1644.81,708.2 1646.75,670.979 1648.69,562.717 1650.62,718.765 1652.56,581.317 1654.5,500.768 1656.44,667.583 1658.38,573.298 1660.32,570.784 1662.26,616.713 1664.2,721.878 1666.13,738.188 1668.07,717.256 1670.01,721.633 1671.95,720.853 1673.89,642.105 1675.83,640.391 1677.77,591.448 1679.71,577.066 1681.64,677.756 1683.58,592.519 1685.52,777.179 1687.46,899.622 1689.4,869.659 1691.34,550.128 1693.28,695.151 1695.22,643.901 1697.16,704.008 1699.09,605.681 1701.03,660.064 1702.97,523.624 1704.91,630.635 1706.85,603.648 1708.79,689.822 1710.73,639.978 1712.67,717.408 1714.6,653.545 1716.54,545.823 1718.48,593.354 1720.42,646.667 1722.36,688.948 1724.3,804.875 1726.24,556.714 1728.18,713.058 1730.11,602.271 1732.05,657.217 1733.99,573.926 1735.93,665.121 1737.87,666.897 1739.81,636.125 1741.75,720.813 1743.69,713.663 1745.62,711.688 1747.56,725.384 1749.5,381.358 1751.44,566.871 1753.38,580.456 1755.32,672.29 1757.26,642.98 1759.2,629.718 1761.13,660.541 1763.07,656.386 1765.01,705.699 1766.95,548.499 1768.89,673.635 1770.83,612.222 1772.77,690.713 1774.71,600.189 1776.65,770.395 1778.58,672.206 1780.52,621.498 1782.46,739.071 1784.4,617.762 1786.34,638.043 1788.28,626.554 1790.22,647.32 1792.16,716.115 1794.09,701.727 1796.03,652.155 1797.97,749.288 1799.91,528.206 1801.85,569.534 1803.79,664.591 1805.73,900.287 1807.67,594.265 1809.6,777.027 1811.54,707.717 1813.48,508.361 1815.42,758.217 1817.36,564.83 1819.3,534.873 1821.24,728.151 1823.18,633.439 1825.11,614.25 1827.05,796.979 1828.99,628.719 1830.93,652.916 1832.87,541.881 1834.81,858.546 1836.75,754.871 1838.69,571.867 1840.63,637.899 1842.56,628.405 1844.5,621.693 1846.44,687.524 1848.38,654.611 1850.32,687.725 1852.26,667.728 1854.2,422.702 1856.14,492.917 1858.07,694.072 1860.01,550.745 1861.95,568.71 1863.89,612.892 1865.83,603.585 1867.77,631.774 1869.71,687.166 1871.65,505.209 1873.58,757.696 1875.52,741.181 1877.46,700.601 1879.4,760.22 1881.34,684.748 1883.28,635.964 1885.22,614.252 1887.16,686.855 1889.09,623.695 1891.03,687.61 1892.97,518.739 1894.91,632.317 1896.85,714.787 1898.79,569.661 1900.73,583.173 1902.67,554.264 1904.61,635.073 1906.54,657.93 1908.48,710.282 1910.42,690.544 1912.36,618.842 1914.3,674.551 1916.24,803.764 1918.18,696.367 1920.12,683.775 1922.05,759.692 1923.99,755.059 1925.93,546.914 1927.87,715.16 1929.81,907.341 1931.75,498.754 1933.69,736.935 1935.63,863.38 1937.56,922.406 1939.5,597.932 1941.44,419.524 1943.38,670.076 1945.32,703.837 1947.26,538.245 1949.2,636.172 1951.14,533.924 1953.07,667.014 1955.01,662.124 1956.95,680.193 1958.89,476.043 1960.83,840.037 1962.77,639.967 1964.71,557.576 1966.65,717.693 1968.59,674.307 1970.52,780.511 1972.46,798.103 1974.4,635.565 1976.34,678.869 1978.28,686.844 1980.22,677.378 1982.16,670.417 1984.1,570.851 1986.03,605.724 1987.97,735.564 1989.91,646.802 1991.85,851.479 1993.79,583.425 1995.73,598.75 1997.67,585.689 1999.61,733.146 2001.54,785.983 2003.48,703.783 2005.42,773.578 2007.36,657.217 2009.3,601.893 2011.24,803.179 2013.18,653.361 2015.12,610.266 2017.05,487.275 2018.99,770.372 2020.93,677.005 2022.87,713.316 2024.81,742.305 2026.75,707.328 2028.69,733.018 2030.63,574.503 2032.57,699.866 2034.5,510.281 2036.44,814.134 2038.38,668.223 2040.32,690.409 2042.26,445.526 2044.2,708.421 2046.14,577.304 2048.08,518.382 2050.01,630.542 2051.95,668.235 2053.89,713.674 2055.83,641.407 2057.77,704.827 2059.71,629.146 2061.65,624.703 2063.59,735.678 2065.52,846.191 2067.46,920.705 2069.4,773.236 2071.34,829.034 2073.28,574.839 2075.22,714.935 2077.16,565.463 2079.1,601.815 2081.03,699.518 2082.97,734.225 2084.91,351.098 2086.85,711.244 2088.79,663.496 2090.73,706.728 2092.67,714.83 2094.61,577.41 2096.55,638.287 2098.48,720.653 2100.42,591.683 2102.36,650.929 2104.3,698.259 2106.24,677.358 2108.18,713.914 2110.12,692.909 2112.06,405.316 2113.99,651.083 2115.93,486.059 2117.87,674.909 2119.81,602.417 2121.75,667.925 2123.69,625.174 2125.63,715.66 2127.57,578.51 2129.5,694.93 2131.44,604.13 2133.38,688.989 2135.32,721.49 2137.26,559.255 2139.2,765.988 2141.14,560.929 2143.08,712.387 2145.01,636.807 2146.95,568.002 2148.89,570.784 2150.83,593.538 2152.77,674.656 2154.71,628.801 2156.65,649.915 2158.59,657.217 2160.53,729.887 2162.46,745.352 2164.4,661.009 2166.34,631.689 2168.28,587.109 2170.22,790.959 2172.16,662.005 2174.1,636.192 2176.04,698.41 2177.97,658.18 2179.91,688.143 2181.85,705.998 2183.79,564.051 2185.73,525.875 2187.67,647.924 2189.61,638.693 2191.55,876.31 2193.48,651.38 2195.42,574.425 2197.36,676.326 2199.3,620.984 2201.24,744.513 2203.18,769.197 2205.12,732.547 2207.06,771.24 2208.99,699.076 2210.93,655.114 2212.87,576.015 2214.81,689.303 2216.75,686.409 2218.69,517.287 2220.63,463.402 2222.57,679.504 2224.51,762.48 2226.44,702.285 2228.38,691.592 2230.32,782.925 2232.26,628.032 2234.2,467.328 2236.14,579.502 2238.08,580.911 2240.02,589.799 2241.95,757.306 2243.89,654.324 2245.83,544.977 2247.77,622.631 2249.71,641.421 2251.65,626.722 2253.59,661.823 2255.53,593.184 2257.46,690.027 2259.4,570.287 2261.34,663.495 2263.28,779.244 2265.22,547.775 2267.16,627.613 2269.1,647.395 2271.04,766.541 2272.97,479.774 2274.91,692.466 2276.85,717.826 2278.79,671.606 2280.73,702.502 2282.67,677.298 2284.61,610.812 2286.55,626.562 2288.49,633.032 2290.42,637.613 2292.36,647.449 2294.3,680.788 "/>
<path clip-path="url(#clip040)" d="M356.212 248.629 L665.853 248.629 L665.853 93.1086 L356.212 93.1086  Z" fill="#fffaf0" fill-rule="evenodd" fill-opacity="1"/>
<polyline clip-path="url(#clip040)" style="stroke:#000000; stroke-linecap:round; stroke-linejoin:round; stroke-width:4; stroke-opacity:0; fill:none" points="356.212,248.629 665.853,248.629 665.853,93.1086 356.212,93.1086 356.212,248.629 "/>
<polyline clip-path="url(#clip040)" style="stroke:#0077bb; stroke-linecap:round; stroke-linejoin:round; stroke-width:12; stroke-opacity:1; fill:none" points="379.161,144.949 516.854,144.949 "/>
<path clip-path="url(#clip040)" d="M539.802 127.669 L544.525 127.669 L551.793 156.881 L559.038 127.669 L564.293 127.669 L571.562 156.881 L578.807 127.669 L583.552 127.669 L574.872 162.229 L568.992 162.229 L561.7 132.229 L554.339 162.229 L548.46 162.229 L539.802 127.669 Z" fill="#000000" fill-rule="nonzero" fill-opacity="1" /><path clip-path="url(#clip040)" d="M589.756 127.669 L609.617 127.669 L609.617 131.604 L594.432 131.604 L594.432 141.789 L608.135 141.789 L608.135 145.724 L594.432 145.724 L594.432 162.229 L589.756 162.229 L589.756 127.669 Z" fill="#000000" fill-rule="nonzero" fill-opacity="1" /><path clip-path="url(#clip040)" d="M642.904 130.331 L642.904 135.261 Q640.543 133.062 637.857 131.974 Q635.195 130.886 632.186 130.886 Q626.26 130.886 623.112 134.52 Q619.964 138.132 619.964 144.983 Q619.964 151.812 623.112 155.446 Q626.26 159.057 632.186 159.057 Q635.195 159.057 637.857 157.969 Q640.543 156.881 642.904 154.682 L642.904 159.567 Q640.45 161.233 637.695 162.067 Q634.964 162.9 631.908 162.9 Q624.061 162.9 619.547 158.108 Q615.034 153.293 615.034 144.983 Q615.034 136.65 619.547 131.858 Q624.061 127.044 631.908 127.044 Q635.01 127.044 637.742 127.877 Q640.496 128.687 642.904 130.331 Z" fill="#000000" fill-rule="nonzero" fill-opacity="1" /><polyline clip-path="url(#clip040)" style="stroke:#0077bb; stroke-linecap:round; stroke-linejoin:round; stroke-width:12; stroke-opacity:1; fill:none" points="379.161,196.789 516.854,196.789 "/>
<path clip-path="url(#clip040)" d="M539.802 179.509 L544.525 179.509 L551.793 208.721 L559.038 179.509 L564.293 179.509 L571.562 208.721 L578.807 179.509 L583.552 179.509 L574.872 214.069 L568.992 214.069 L561.7 184.069 L554.339 214.069 L548.46 214.069 L539.802 179.509 Z" fill="#000000" fill-rule="nonzero" fill-opacity="1" /><path clip-path="url(#clip040)" d="M589.756 179.509 L609.617 179.509 L609.617 183.444 L594.432 183.444 L594.432 193.629 L608.135 193.629 L608.135 197.564 L594.432 197.564 L594.432 214.069 L589.756 214.069 L589.756 179.509 Z" fill="#000000" fill-rule="nonzero" fill-opacity="1" /><path clip-path="url(#clip040)" d="M642.904 182.171 L642.904 187.101 Q640.543 184.902 637.857 183.814 Q635.195 182.726 632.186 182.726 Q626.26 182.726 623.112 186.36 Q619.964 189.972 619.964 196.823 Q619.964 203.652 623.112 207.286 Q626.26 210.897 632.186 210.897 Q635.195 210.897 637.857 209.809 Q640.543 208.721 642.904 206.522 L642.904 211.407 Q640.45 213.073 637.695 213.907 Q634.964 214.74 631.908 214.74 Q624.061 214.74 619.547 209.948 Q615.034 205.133 615.034 196.823 Q615.034 188.49 619.547 183.698 Q624.061 178.884 631.908 178.884 Q635.01 178.884 637.742 179.717 Q640.496 180.527 642.904 182.171 Z" fill="#000000" fill-rule="nonzero" fill-opacity="1" /></svg>
