<?xml version="1.0" encoding="utf-8"?>
<svg xmlns="http://www.w3.org/2000/svg" xmlns:xlink="http://www.w3.org/1999/xlink" width="600" height="400" viewBox="0 0 2400 1600">
<defs>
  <clipPath id="clip970">
    <rect x="0" y="0" width="2400" height="1600"/>
  </clipPath>
</defs>
<path clip-path="url(#clip970)" d="M0 1600 L2400 1600 L2400 0 L0 0  Z" fill="#ffffff" fill-rule="evenodd" fill-opacity="1"/>
<defs>
  <clipPath id="clip971">
    <rect x="480" y="0" width="1681" height="1600"/>
  </clipPath>
</defs>
<path clip-path="url(#clip970)" d="M256.209 1423.18 L2352.76 1423.18 L2352.76 47.2441 L256.209 47.2441  Z" fill="#eee9e9" fill-rule="evenodd" fill-opacity="1"/>
<defs>
  <clipPath id="clip972">
    <rect x="256" y="47" width="2098" height="1377"/>
  </clipPath>
</defs>
<polyline clip-path="url(#clip972)" style="stroke:#000000; stroke-linecap:round; stroke-linejoin:round; stroke-width:2; stroke-opacity:0.1; fill:none" points="513.332,1423.18 513.332,47.2441 "/>
<polyline clip-path="url(#clip972)" style="stroke:#000000; stroke-linecap:round; stroke-linejoin:round; stroke-width:2; stroke-opacity:0.1; fill:none" points="908.907,1423.18 908.907,47.2441 "/>
<polyline clip-path="url(#clip972)" style="stroke:#000000; stroke-linecap:round; stroke-linejoin:round; stroke-width:2; stroke-opacity:0.1; fill:none" points="1304.48,1423.18 1304.48,47.2441 "/>
<polyline clip-path="url(#clip972)" style="stroke:#000000; stroke-linecap:round; stroke-linejoin:round; stroke-width:2; stroke-opacity:0.1; fill:none" points="1700.06,1423.18 1700.06,47.2441 "/>
<polyline clip-path="url(#clip972)" style="stroke:#000000; stroke-linecap:round; stroke-linejoin:round; stroke-width:2; stroke-opacity:0.1; fill:none" points="2095.63,1423.18 2095.63,47.2441 "/>
<polyline clip-path="url(#clip970)" style="stroke:#000000; stroke-linecap:round; stroke-linejoin:round; stroke-width:4; stroke-opacity:1; fill:none" points="256.209,1423.18 2352.76,1423.18 "/>
<polyline clip-path="url(#clip970)" style="stroke:#000000; stroke-linecap:round; stroke-linejoin:round; stroke-width:4; stroke-opacity:1; fill:none" points="256.209,47.2441 2352.76,47.2441 "/>
<polyline clip-path="url(#clip970)" style="stroke:#000000; stroke-linecap:round; stroke-linejoin:round; stroke-width:4; stroke-opacity:1; fill:none" points="513.332,1423.18 513.332,1404.28 "/>
<polyline clip-path="url(#clip970)" style="stroke:#000000; stroke-linecap:round; stroke-linejoin:round; stroke-width:4; stroke-opacity:1; fill:none" points="908.907,1423.18 908.907,1404.28 "/>
<polyline clip-path="url(#clip970)" style="stroke:#000000; stroke-linecap:round; stroke-linejoin:round; stroke-width:4; stroke-opacity:1; fill:none" points="1304.48,1423.18 1304.48,1404.28 "/>
<polyline clip-path="url(#clip970)" style="stroke:#000000; stroke-linecap:round; stroke-linejoin:round; stroke-width:4; stroke-opacity:1; fill:none" points="1700.06,1423.18 1700.06,1404.28 "/>
<polyline clip-path="url(#clip970)" style="stroke:#000000; stroke-linecap:round; stroke-linejoin:round; stroke-width:4; stroke-opacity:1; fill:none" points="2095.63,1423.18 2095.63,1404.28 "/>
<path clip-path="url(#clip970)" d="M472.939 1481.64 L480.578 1481.64 L480.578 1455.28 L472.268 1456.95 L472.268 1452.69 L480.532 1451.02 L485.208 1451.02 L485.208 1481.64 L492.846 1481.64 L492.846 1485.58 L472.939 1485.58 L472.939 1481.64 Z" fill="#000000" fill-rule="nonzero" fill-opacity="1" /><path clip-path="url(#clip970)" d="M512.291 1454.1 Q508.68 1454.1 506.851 1457.66 Q505.045 1461.2 505.045 1468.33 Q505.045 1475.44 506.851 1479.01 Q508.68 1482.55 512.291 1482.55 Q515.925 1482.55 517.731 1479.01 Q519.559 1475.44 519.559 1468.33 Q519.559 1461.2 517.731 1457.66 Q515.925 1454.1 512.291 1454.1 M512.291 1450.39 Q518.101 1450.39 521.156 1455 Q524.235 1459.58 524.235 1468.33 Q524.235 1477.06 521.156 1481.67 Q518.101 1486.25 512.291 1486.25 Q506.481 1486.25 503.402 1481.67 Q500.346 1477.06 500.346 1468.33 Q500.346 1459.58 503.402 1455 Q506.481 1450.39 512.291 1450.39 Z" fill="#000000" fill-rule="nonzero" fill-opacity="1" /><path clip-path="url(#clip970)" d="M542.453 1454.1 Q538.842 1454.1 537.013 1457.66 Q535.207 1461.2 535.207 1468.33 Q535.207 1475.44 537.013 1479.01 Q538.842 1482.55 542.453 1482.55 Q546.087 1482.55 547.892 1479.01 Q549.721 1475.44 549.721 1468.33 Q549.721 1461.2 547.892 1457.66 Q546.087 1454.1 542.453 1454.1 M542.453 1450.39 Q548.263 1450.39 551.318 1455 Q554.397 1459.58 554.397 1468.33 Q554.397 1477.06 551.318 1481.67 Q548.263 1486.25 542.453 1486.25 Q536.642 1486.25 533.564 1481.67 Q530.508 1477.06 530.508 1468.33 Q530.508 1459.58 533.564 1455 Q536.642 1450.39 542.453 1450.39 Z" fill="#000000" fill-rule="nonzero" fill-opacity="1" /><path clip-path="url(#clip970)" d="M868.514 1481.64 L876.153 1481.64 L876.153 1455.28 L867.843 1456.95 L867.843 1452.69 L876.107 1451.02 L880.782 1451.02 L880.782 1481.64 L888.421 1481.64 L888.421 1485.58 L868.514 1485.58 L868.514 1481.64 Z" fill="#000000" fill-rule="nonzero" fill-opacity="1" /><path clip-path="url(#clip970)" d="M898.676 1481.64 L906.315 1481.64 L906.315 1455.28 L898.005 1456.95 L898.005 1452.69 L906.268 1451.02 L910.944 1451.02 L910.944 1481.64 L918.583 1481.64 L918.583 1485.58 L898.676 1485.58 L898.676 1481.64 Z" fill="#000000" fill-rule="nonzero" fill-opacity="1" /><path clip-path="url(#clip970)" d="M938.028 1454.1 Q934.416 1454.1 932.588 1457.66 Q930.782 1461.2 930.782 1468.33 Q930.782 1475.44 932.588 1479.01 Q934.416 1482.55 938.028 1482.55 Q941.662 1482.55 943.467 1479.01 Q945.296 1475.44 945.296 1468.33 Q945.296 1461.2 943.467 1457.66 Q941.662 1454.1 938.028 1454.1 M938.028 1450.39 Q943.838 1450.39 946.893 1455 Q949.972 1459.58 949.972 1468.33 Q949.972 1477.06 946.893 1481.67 Q943.838 1486.25 938.028 1486.25 Q932.217 1486.25 929.139 1481.67 Q926.083 1477.06 926.083 1468.33 Q926.083 1459.58 929.139 1455 Q932.217 1450.39 938.028 1450.39 Z" fill="#000000" fill-rule="nonzero" fill-opacity="1" /><path clip-path="url(#clip970)" d="M1264.09 1481.64 L1271.73 1481.64 L1271.73 1455.28 L1263.42 1456.95 L1263.42 1452.69 L1271.68 1451.02 L1276.36 1451.02 L1276.36 1481.64 L1284 1481.64 L1284 1485.58 L1264.09 1485.58 L1264.09 1481.64 Z" fill="#000000" fill-rule="nonzero" fill-opacity="1" /><path clip-path="url(#clip970)" d="M1297.47 1481.64 L1313.79 1481.64 L1313.79 1485.58 L1291.84 1485.58 L1291.84 1481.64 Q1294.51 1478.89 1299.09 1474.26 Q1303.7 1469.61 1304.88 1468.27 Q1307.12 1465.74 1308 1464.01 Q1308.9 1462.25 1308.9 1460.56 Q1308.9 1457.8 1306.96 1456.07 Q1305.04 1454.33 1301.94 1454.33 Q1299.74 1454.33 1297.28 1455.09 Q1294.85 1455.86 1292.07 1457.41 L1292.07 1452.69 Q1294.9 1451.55 1297.35 1450.97 Q1299.81 1450.39 1301.84 1450.39 Q1307.21 1450.39 1310.41 1453.08 Q1313.6 1455.77 1313.6 1460.26 Q1313.6 1462.39 1312.79 1464.31 Q1312.01 1466.2 1309.9 1468.8 Q1309.32 1469.47 1306.22 1472.69 Q1303.12 1475.88 1297.47 1481.64 Z" fill="#000000" fill-rule="nonzero" fill-opacity="1" /><path clip-path="url(#clip970)" d="M1333.6 1454.1 Q1329.99 1454.1 1328.16 1457.66 Q1326.36 1461.2 1326.36 1468.33 Q1326.36 1475.44 1328.16 1479.01 Q1329.99 1482.55 1333.6 1482.55 Q1337.24 1482.55 1339.04 1479.01 Q1340.87 1475.44 1340.87 1468.33 Q1340.87 1461.2 1339.04 1457.66 Q1337.24 1454.1 1333.6 1454.1 M1333.6 1450.39 Q1339.41 1450.39 1342.47 1455 Q1345.55 1459.58 1345.55 1468.33 Q1345.55 1477.06 1342.47 1481.67 Q1339.41 1486.25 1333.6 1486.25 Q1327.79 1486.25 1324.71 1481.67 Q1321.66 1477.06 1321.66 1468.33 Q1321.66 1459.58 1324.71 1455 Q1327.79 1450.39 1333.6 1450.39 Z" fill="#000000" fill-rule="nonzero" fill-opacity="1" /><path clip-path="url(#clip970)" d="M1659.66 1481.64 L1667.3 1481.64 L1667.3 1455.28 L1658.99 1456.95 L1658.99 1452.69 L1667.26 1451.02 L1671.93 1451.02 L1671.93 1481.64 L1679.57 1481.64 L1679.57 1485.58 L1659.66 1485.58 L1659.66 1481.64 Z" fill="#000000" fill-rule="nonzero" fill-opacity="1" /><path clip-path="url(#clip970)" d="M1703.18 1466.95 Q1706.54 1467.66 1708.41 1469.93 Q1710.31 1472.2 1710.31 1475.53 Q1710.31 1480.65 1706.79 1483.45 Q1703.27 1486.25 1696.79 1486.25 Q1694.62 1486.25 1692.3 1485.81 Q1690.01 1485.39 1687.56 1484.54 L1687.56 1480.02 Q1689.5 1481.16 1691.82 1481.74 Q1694.13 1482.32 1696.65 1482.32 Q1701.05 1482.32 1703.34 1480.58 Q1705.66 1478.84 1705.66 1475.53 Q1705.66 1472.48 1703.51 1470.77 Q1701.38 1469.03 1697.56 1469.03 L1693.53 1469.03 L1693.53 1465.19 L1697.74 1465.19 Q1701.19 1465.19 1703.02 1463.82 Q1704.85 1462.43 1704.85 1459.84 Q1704.85 1457.18 1702.95 1455.77 Q1701.08 1454.33 1697.56 1454.33 Q1695.64 1454.33 1693.44 1454.75 Q1691.24 1455.16 1688.6 1456.04 L1688.6 1451.88 Q1691.26 1451.14 1693.58 1450.77 Q1695.91 1450.39 1697.97 1450.39 Q1703.3 1450.39 1706.4 1452.83 Q1709.5 1455.23 1709.5 1459.35 Q1709.5 1462.22 1707.86 1464.21 Q1706.21 1466.18 1703.18 1466.95 Z" fill="#000000" fill-rule="nonzero" fill-opacity="1" /><path clip-path="url(#clip970)" d="M1729.18 1454.1 Q1725.57 1454.1 1723.74 1457.66 Q1721.93 1461.2 1721.93 1468.33 Q1721.93 1475.44 1723.74 1479.01 Q1725.57 1482.55 1729.18 1482.55 Q1732.81 1482.55 1734.62 1479.01 Q1736.45 1475.44 1736.45 1468.33 Q1736.45 1461.2 1734.62 1457.66 Q1732.81 1454.1 1729.18 1454.1 M1729.18 1450.39 Q1734.99 1450.39 1738.04 1455 Q1741.12 1459.58 1741.12 1468.33 Q1741.12 1477.06 1738.04 1481.67 Q1734.99 1486.25 1729.18 1486.25 Q1723.37 1486.25 1720.29 1481.67 Q1717.23 1477.06 1717.23 1468.33 Q1717.23 1459.58 1720.29 1455 Q1723.37 1450.39 1729.18 1450.39 Z" fill="#000000" fill-rule="nonzero" fill-opacity="1" /><path clip-path="url(#clip970)" d="M2055.24 1481.64 L2062.88 1481.64 L2062.88 1455.28 L2054.57 1456.95 L2054.57 1452.69 L2062.83 1451.02 L2067.51 1451.02 L2067.51 1481.64 L2075.15 1481.64 L2075.15 1485.58 L2055.24 1485.58 L2055.24 1481.64 Z" fill="#000000" fill-rule="nonzero" fill-opacity="1" /><path clip-path="url(#clip970)" d="M2097.44 1455.09 L2085.63 1473.54 L2097.44 1473.54 L2097.44 1455.09 M2096.21 1451.02 L2102.09 1451.02 L2102.09 1473.54 L2107.02 1473.54 L2107.02 1477.43 L2102.09 1477.43 L2102.09 1485.58 L2097.44 1485.58 L2097.44 1477.43 L2081.84 1477.43 L2081.84 1472.92 L2096.21 1451.02 Z" fill="#000000" fill-rule="nonzero" fill-opacity="1" /><path clip-path="url(#clip970)" d="M2124.75 1454.1 Q2121.14 1454.1 2119.31 1457.66 Q2117.51 1461.2 2117.51 1468.33 Q2117.51 1475.44 2119.31 1479.01 Q2121.14 1482.55 2124.75 1482.55 Q2128.39 1482.55 2130.19 1479.01 Q2132.02 1475.44 2132.02 1468.33 Q2132.02 1461.2 2130.19 1457.66 Q2128.39 1454.1 2124.75 1454.1 M2124.75 1450.39 Q2130.56 1450.39 2133.62 1455 Q2136.7 1459.58 2136.7 1468.33 Q2136.7 1477.06 2133.62 1481.67 Q2130.56 1486.25 2124.75 1486.25 Q2118.94 1486.25 2115.86 1481.67 Q2112.81 1477.06 2112.81 1468.33 Q2112.81 1459.58 2115.86 1455 Q2118.94 1450.39 2124.75 1450.39 Z" fill="#000000" fill-rule="nonzero" fill-opacity="1" /><path clip-path="url(#clip970)" d="M729.945 1522.08 L729.945 1528.35 Q726.285 1526.6 723.039 1525.74 Q719.792 1524.88 716.768 1524.88 Q711.517 1524.88 708.652 1526.92 Q705.819 1528.96 705.819 1532.71 Q705.819 1535.87 707.697 1537.49 Q709.607 1539.08 714.891 1540.07 L718.774 1540.86 Q725.967 1542.23 729.373 1545.7 Q732.81 1549.14 732.81 1554.93 Q732.81 1561.84 728.163 1565.4 Q723.548 1568.97 714.604 1568.97 Q711.23 1568.97 707.411 1568.2 Q703.623 1567.44 699.549 1565.94 L699.549 1559.32 Q703.464 1561.52 707.22 1562.63 Q710.976 1563.75 714.604 1563.75 Q720.11 1563.75 723.102 1561.58 Q726.094 1559.42 726.094 1555.41 Q726.094 1551.91 723.93 1549.93 Q721.797 1547.96 716.896 1546.97 L712.981 1546.21 Q705.788 1544.78 702.573 1541.72 Q699.358 1538.67 699.358 1533.22 Q699.358 1526.92 703.782 1523.29 Q708.238 1519.66 716.036 1519.66 Q719.378 1519.66 722.848 1520.27 Q726.317 1520.87 729.945 1522.08 Z" fill="#000000" fill-rule="nonzero" fill-opacity="1" /><path clip-path="url(#clip970)" d="M772.214 1546.53 L772.214 1568.04 L766.357 1568.04 L766.357 1546.72 Q766.357 1541.66 764.384 1539.14 Q762.411 1536.63 758.464 1536.63 Q753.721 1536.63 750.984 1539.65 Q748.247 1542.68 748.247 1547.9 L748.247 1568.04 L742.359 1568.04 L742.359 1518.52 L748.247 1518.52 L748.247 1537.93 Q750.348 1534.72 753.18 1533.13 Q756.045 1531.54 759.769 1531.54 Q765.912 1531.54 769.063 1535.36 Q772.214 1539.14 772.214 1546.53 Z" fill="#000000" fill-rule="nonzero" fill-opacity="1" /><path clip-path="url(#clip970)" d="M800.096 1550.12 Q792.998 1550.12 790.261 1551.75 Q787.523 1553.37 787.523 1557.29 Q787.523 1560.4 789.56 1562.25 Q791.629 1564.07 795.162 1564.07 Q800.032 1564.07 802.96 1560.63 Q805.92 1557.16 805.92 1551.43 L805.92 1550.12 L800.096 1550.12 M811.777 1547.71 L811.777 1568.04 L805.92 1568.04 L805.92 1562.63 Q803.915 1565.88 800.923 1567.44 Q797.931 1568.97 793.602 1568.97 Q788.128 1568.97 784.881 1565.91 Q781.667 1562.82 781.667 1557.67 Q781.667 1551.65 785.677 1548.6 Q789.719 1545.54 797.708 1545.54 L805.92 1545.54 L805.92 1544.97 Q805.92 1540.93 803.247 1538.73 Q800.605 1536.5 795.799 1536.5 Q792.743 1536.5 789.847 1537.23 Q786.95 1537.97 784.277 1539.43 L784.277 1534.02 Q787.491 1532.78 790.515 1532.17 Q793.539 1531.54 796.403 1531.54 Q804.138 1531.54 807.957 1535.55 Q811.777 1539.56 811.777 1547.71 Z" fill="#000000" fill-rule="nonzero" fill-opacity="1" /><path clip-path="url(#clip970)" d="M844.496 1537.87 Q843.51 1537.3 842.332 1537.04 Q841.186 1536.76 839.786 1536.76 Q834.82 1536.76 832.147 1540 Q829.505 1543.22 829.505 1549.27 L829.505 1568.04 L823.617 1568.04 L823.617 1532.4 L829.505 1532.4 L829.505 1537.93 Q831.351 1534.69 834.311 1533.13 Q837.271 1531.54 841.504 1531.54 Q842.109 1531.54 842.841 1531.63 Q843.573 1531.7 844.464 1531.85 L844.496 1537.87 Z" fill="#000000" fill-rule="nonzero" fill-opacity="1" /><path clip-path="url(#clip970)" d="M879.699 1548.76 L879.699 1551.62 L852.772 1551.62 Q853.154 1557.67 856.4 1560.85 Q859.679 1564 865.503 1564 Q868.877 1564 872.028 1563.17 Q875.211 1562.35 878.33 1560.69 L878.33 1566.23 Q875.179 1567.57 871.869 1568.27 Q868.559 1568.97 865.153 1568.97 Q856.623 1568.97 851.626 1564 Q846.661 1559.04 846.661 1550.57 Q846.661 1541.82 851.371 1536.69 Q856.114 1531.54 864.135 1531.54 Q871.328 1531.54 875.497 1536.18 Q879.699 1540.8 879.699 1548.76 M873.842 1547.04 Q873.779 1542.23 871.137 1539.37 Q868.527 1536.5 864.198 1536.5 Q859.297 1536.5 856.337 1539.27 Q853.408 1542.04 852.963 1547.07 L873.842 1547.04 Z" fill="#000000" fill-rule="nonzero" fill-opacity="1" /><path clip-path="url(#clip970)" d="M915.697 1562.7 L915.697 1581.6 L909.808 1581.6 L909.808 1532.4 L915.697 1532.4 L915.697 1537.81 Q917.543 1534.62 920.344 1533.1 Q923.176 1531.54 927.091 1531.54 Q933.584 1531.54 937.627 1536.69 Q941.701 1541.85 941.701 1550.25 Q941.701 1558.65 937.627 1563.81 Q933.584 1568.97 927.091 1568.97 Q923.176 1568.97 920.344 1567.44 Q917.543 1565.88 915.697 1562.7 M935.621 1550.25 Q935.621 1543.79 932.948 1540.13 Q930.306 1536.44 925.659 1536.44 Q921.012 1536.44 918.339 1540.13 Q915.697 1543.79 915.697 1550.25 Q915.697 1556.71 918.339 1560.4 Q921.012 1564.07 925.659 1564.07 Q930.306 1564.07 932.948 1560.4 Q935.621 1556.71 935.621 1550.25 Z" fill="#000000" fill-rule="nonzero" fill-opacity="1" /><path clip-path="url(#clip970)" d="M972.065 1537.87 Q971.078 1537.3 969.901 1537.04 Q968.755 1536.76 967.354 1536.76 Q962.389 1536.76 959.716 1540 Q957.074 1543.22 957.074 1549.27 L957.074 1568.04 L951.186 1568.04 L951.186 1532.4 L957.074 1532.4 L957.074 1537.93 Q958.92 1534.69 961.88 1533.13 Q964.84 1531.54 969.073 1531.54 Q969.678 1531.54 970.41 1531.63 Q971.142 1531.7 972.033 1531.85 L972.065 1537.87 Z" fill="#000000" fill-rule="nonzero" fill-opacity="1" /><path clip-path="url(#clip970)" d="M978.208 1532.4 L984.064 1532.4 L984.064 1568.04 L978.208 1568.04 L978.208 1532.4 M978.208 1518.52 L984.064 1518.52 L984.064 1525.93 L978.208 1525.93 L978.208 1518.52 Z" fill="#000000" fill-rule="nonzero" fill-opacity="1" /><path clip-path="url(#clip970)" d="M1021.97 1533.76 L1021.97 1539.24 Q1019.49 1537.87 1016.98 1537.2 Q1014.49 1536.5 1011.95 1536.5 Q1006.25 1536.5 1003.1 1540.13 Q999.947 1543.73 999.947 1550.25 Q999.947 1556.78 1003.1 1560.4 Q1006.25 1564 1011.95 1564 Q1014.49 1564 1016.98 1563.33 Q1019.49 1562.63 1021.97 1561.26 L1021.97 1566.68 Q1019.52 1567.82 1016.88 1568.39 Q1014.27 1568.97 1011.31 1568.97 Q1003.26 1568.97 998.515 1563.91 Q993.772 1558.85 993.772 1550.25 Q993.772 1541.53 998.546 1536.53 Q1003.35 1531.54 1011.69 1531.54 Q1014.4 1531.54 1016.98 1532.11 Q1019.55 1532.65 1021.97 1533.76 Z" fill="#000000" fill-rule="nonzero" fill-opacity="1" /><path clip-path="url(#clip970)" d="M1062.65 1548.76 L1062.65 1551.62 L1035.72 1551.62 Q1036.1 1557.67 1039.35 1560.85 Q1042.63 1564 1048.45 1564 Q1051.83 1564 1054.98 1563.17 Q1058.16 1562.35 1061.28 1560.69 L1061.28 1566.23 Q1058.13 1567.57 1054.82 1568.27 Q1051.51 1568.97 1048.1 1568.97 Q1039.57 1568.97 1034.58 1564 Q1029.61 1559.04 1029.61 1550.57 Q1029.61 1541.82 1034.32 1536.69 Q1039.06 1531.54 1047.08 1531.54 Q1054.28 1531.54 1058.45 1536.18 Q1062.65 1540.8 1062.65 1548.76 M1056.79 1547.04 Q1056.73 1542.23 1054.09 1539.37 Q1051.48 1536.5 1047.15 1536.5 Q1042.25 1536.5 1039.29 1539.27 Q1036.36 1542.04 1035.91 1547.07 L1056.79 1547.04 Z" fill="#000000" fill-rule="nonzero" fill-opacity="1" /><path clip-path="url(#clip970)" d="M1109.18 1550.12 Q1102.08 1550.12 1099.35 1551.75 Q1096.61 1553.37 1096.61 1557.29 Q1096.61 1560.4 1098.65 1562.25 Q1100.72 1564.07 1104.25 1564.07 Q1109.12 1564.07 1112.05 1560.63 Q1115.01 1557.16 1115.01 1551.43 L1115.01 1550.12 L1109.18 1550.12 M1120.86 1547.71 L1120.86 1568.04 L1115.01 1568.04 L1115.01 1562.63 Q1113 1565.88 1110.01 1567.44 Q1107.02 1568.97 1102.69 1568.97 Q1097.21 1568.97 1093.97 1565.91 Q1090.75 1562.82 1090.75 1557.67 Q1090.75 1551.65 1094.76 1548.6 Q1098.81 1545.54 1106.8 1545.54 L1115.01 1545.54 L1115.01 1544.97 Q1115.01 1540.93 1112.33 1538.73 Q1109.69 1536.5 1104.89 1536.5 Q1101.83 1536.5 1098.93 1537.23 Q1096.04 1537.97 1093.36 1539.43 L1093.36 1534.02 Q1096.58 1532.78 1099.6 1532.17 Q1102.63 1531.54 1105.49 1531.54 Q1113.22 1531.54 1117.04 1535.55 Q1120.86 1539.56 1120.86 1547.71 Z" fill="#000000" fill-rule="nonzero" fill-opacity="1" /><path clip-path="url(#clip970)" d="M1138.72 1522.27 L1138.72 1532.4 L1150.78 1532.4 L1150.78 1536.95 L1138.72 1536.95 L1138.72 1556.3 Q1138.72 1560.66 1139.9 1561.9 Q1141.11 1563.14 1144.77 1563.14 L1150.78 1563.14 L1150.78 1568.04 L1144.77 1568.04 Q1137.99 1568.04 1135.41 1565.53 Q1132.83 1562.98 1132.83 1556.3 L1132.83 1536.95 L1128.53 1536.95 L1128.53 1532.4 L1132.83 1532.4 L1132.83 1522.27 L1138.72 1522.27 Z" fill="#000000" fill-rule="nonzero" fill-opacity="1" /><path clip-path="url(#clip970)" d="M1209.7 1548.76 L1209.7 1551.62 L1182.77 1551.62 Q1183.15 1557.67 1186.4 1560.85 Q1189.68 1564 1195.5 1564 Q1198.88 1564 1202.03 1563.17 Q1205.21 1562.35 1208.33 1560.69 L1208.33 1566.23 Q1205.18 1567.57 1201.87 1568.27 Q1198.56 1568.97 1195.15 1568.97 Q1186.62 1568.97 1181.62 1564 Q1176.66 1559.04 1176.66 1550.57 Q1176.66 1541.82 1181.37 1536.69 Q1186.11 1531.54 1194.13 1531.54 Q1201.33 1531.54 1205.5 1536.18 Q1209.7 1540.8 1209.7 1548.76 M1203.84 1547.04 Q1203.78 1542.23 1201.14 1539.37 Q1198.53 1536.5 1194.2 1536.5 Q1189.29 1536.5 1186.33 1539.27 Q1183.41 1542.04 1182.96 1547.07 L1203.84 1547.04 Z" fill="#000000" fill-rule="nonzero" fill-opacity="1" /><path clip-path="url(#clip970)" d="M1247.8 1532.4 L1234.91 1549.74 L1248.46 1568.04 L1241.56 1568.04 L1231.18 1554.04 L1220.81 1568.04 L1213.9 1568.04 L1227.74 1549.39 L1215.08 1532.4 L1221.98 1532.4 L1231.44 1545.1 L1240.89 1532.4 L1247.8 1532.4 Z" fill="#000000" fill-rule="nonzero" fill-opacity="1" /><path clip-path="url(#clip970)" d="M1262.4 1562.7 L1262.4 1581.6 L1256.52 1581.6 L1256.52 1532.4 L1262.4 1532.4 L1262.4 1537.81 Q1264.25 1534.62 1267.05 1533.1 Q1269.88 1531.54 1273.8 1531.54 Q1280.29 1531.54 1284.33 1536.69 Q1288.41 1541.85 1288.41 1550.25 Q1288.41 1558.65 1284.33 1563.81 Q1280.29 1568.97 1273.8 1568.97 Q1269.88 1568.97 1267.05 1567.44 Q1264.25 1565.88 1262.4 1562.7 M1282.33 1550.25 Q1282.33 1543.79 1279.66 1540.13 Q1277.01 1536.44 1272.37 1536.44 Q1267.72 1536.44 1265.05 1540.13 Q1262.4 1543.79 1262.4 1550.25 Q1262.4 1556.71 1265.05 1560.4 Q1267.72 1564.07 1272.37 1564.07 Q1277.01 1564.07 1279.66 1560.4 Q1282.33 1556.71 1282.33 1550.25 Z" fill="#000000" fill-rule="nonzero" fill-opacity="1" /><path clip-path="url(#clip970)" d="M1298.12 1532.4 L1303.97 1532.4 L1303.97 1568.04 L1298.12 1568.04 L1298.12 1532.4 M1298.12 1518.52 L1303.97 1518.52 L1303.97 1525.93 L1298.12 1525.93 L1298.12 1518.52 Z" fill="#000000" fill-rule="nonzero" fill-opacity="1" /><path clip-path="url(#clip970)" d="M1336.88 1537.87 Q1335.9 1537.3 1334.72 1537.04 Q1333.57 1536.76 1332.17 1536.76 Q1327.21 1536.76 1324.53 1540 Q1321.89 1543.22 1321.89 1549.27 L1321.89 1568.04 L1316 1568.04 L1316 1532.4 L1321.89 1532.4 L1321.89 1537.93 Q1323.74 1534.69 1326.7 1533.13 Q1329.66 1531.54 1333.89 1531.54 Q1334.5 1531.54 1335.23 1531.63 Q1335.96 1531.7 1336.85 1531.85 L1336.88 1537.87 Z" fill="#000000" fill-rule="nonzero" fill-opacity="1" /><path clip-path="url(#clip970)" d="M1359.23 1550.12 Q1352.13 1550.12 1349.39 1551.75 Q1346.66 1553.37 1346.66 1557.29 Q1346.66 1560.4 1348.69 1562.25 Q1350.76 1564.07 1354.29 1564.07 Q1359.16 1564.07 1362.09 1560.63 Q1365.05 1557.16 1365.05 1551.43 L1365.05 1550.12 L1359.23 1550.12 M1370.91 1547.71 L1370.91 1568.04 L1365.05 1568.04 L1365.05 1562.63 Q1363.05 1565.88 1360.05 1567.44 Q1357.06 1568.97 1352.73 1568.97 Q1347.26 1568.97 1344.01 1565.91 Q1340.8 1562.82 1340.8 1557.67 Q1340.8 1551.65 1344.81 1548.6 Q1348.85 1545.54 1356.84 1545.54 L1365.05 1545.54 L1365.05 1544.97 Q1365.05 1540.93 1362.38 1538.73 Q1359.74 1536.5 1354.93 1536.5 Q1351.87 1536.5 1348.98 1537.23 Q1346.08 1537.97 1343.41 1539.43 L1343.41 1534.02 Q1346.62 1532.78 1349.65 1532.17 Q1352.67 1531.54 1355.54 1531.54 Q1363.27 1531.54 1367.09 1535.55 Q1370.91 1539.56 1370.91 1547.71 Z" fill="#000000" fill-rule="nonzero" fill-opacity="1" /><path clip-path="url(#clip970)" d="M1388.76 1522.27 L1388.76 1532.4 L1400.83 1532.4 L1400.83 1536.95 L1388.76 1536.95 L1388.76 1556.3 Q1388.76 1560.66 1389.94 1561.9 Q1391.15 1563.14 1394.81 1563.14 L1400.83 1563.14 L1400.83 1568.04 L1394.81 1568.04 Q1388.03 1568.04 1385.45 1565.53 Q1382.88 1562.98 1382.88 1556.3 L1382.88 1536.95 L1378.58 1536.95 L1378.58 1532.4 L1382.88 1532.4 L1382.88 1522.27 L1388.76 1522.27 Z" fill="#000000" fill-rule="nonzero" fill-opacity="1" /><path clip-path="url(#clip970)" d="M1408.53 1532.4 L1414.39 1532.4 L1414.39 1568.04 L1408.53 1568.04 L1408.53 1532.4 M1408.53 1518.52 L1414.39 1518.52 L1414.39 1525.93 L1408.53 1525.93 L1408.53 1518.52 Z" fill="#000000" fill-rule="nonzero" fill-opacity="1" /><path clip-path="url(#clip970)" d="M1440.45 1536.5 Q1435.74 1536.5 1433.01 1540.19 Q1430.27 1543.85 1430.27 1550.25 Q1430.27 1556.65 1432.97 1560.34 Q1435.71 1564 1440.45 1564 Q1445.13 1564 1447.87 1560.31 Q1450.61 1556.62 1450.61 1550.25 Q1450.61 1543.92 1447.87 1540.23 Q1445.13 1536.5 1440.45 1536.5 M1440.45 1531.54 Q1448.09 1531.54 1452.45 1536.5 Q1456.81 1541.47 1456.81 1550.25 Q1456.81 1559 1452.45 1564 Q1448.09 1568.97 1440.45 1568.97 Q1432.78 1568.97 1428.42 1564 Q1424.09 1559 1424.09 1550.25 Q1424.09 1541.47 1428.42 1536.5 Q1432.78 1531.54 1440.45 1531.54 Z" fill="#000000" fill-rule="nonzero" fill-opacity="1" /><path clip-path="url(#clip970)" d="M1496.15 1546.53 L1496.15 1568.04 L1490.3 1568.04 L1490.3 1546.72 Q1490.3 1541.66 1488.32 1539.14 Q1486.35 1536.63 1482.4 1536.63 Q1477.66 1536.63 1474.92 1539.65 Q1472.19 1542.68 1472.19 1547.9 L1472.19 1568.04 L1466.3 1568.04 L1466.3 1532.4 L1472.19 1532.4 L1472.19 1537.93 Q1474.29 1534.72 1477.12 1533.13 Q1479.98 1531.54 1483.71 1531.54 Q1489.85 1531.54 1493 1535.36 Q1496.15 1539.14 1496.15 1546.53 Z" fill="#000000" fill-rule="nonzero" fill-opacity="1" /><path clip-path="url(#clip970)" d="M1542.62 1518.58 Q1538.36 1525.9 1536.29 1533.06 Q1534.22 1540.23 1534.22 1547.58 Q1534.22 1554.93 1536.29 1562.16 Q1538.39 1569.35 1542.62 1576.64 L1537.53 1576.64 Q1532.76 1569.16 1530.37 1561.93 Q1528.01 1554.71 1528.01 1547.58 Q1528.01 1540.48 1530.37 1533.29 Q1532.72 1526.09 1537.53 1518.58 L1542.62 1518.58 Z" fill="#000000" fill-rule="nonzero" fill-opacity="1" /><path clip-path="url(#clip970)" d="M1553.51 1520.52 L1559.97 1520.52 L1559.97 1549.39 Q1559.97 1557.03 1562.74 1560.4 Q1565.51 1563.75 1571.71 1563.75 Q1577.89 1563.75 1580.66 1560.4 Q1583.43 1557.03 1583.43 1549.39 L1583.43 1520.52 L1589.89 1520.52 L1589.89 1550.19 Q1589.89 1559.48 1585.27 1564.22 Q1580.69 1568.97 1571.71 1568.97 Q1562.71 1568.97 1558.09 1564.22 Q1553.51 1559.48 1553.51 1550.19 L1553.51 1520.52 Z" fill="#000000" fill-rule="nonzero" fill-opacity="1" /><path clip-path="url(#clip970)" d="M1630.44 1522.08 L1630.44 1528.35 Q1626.78 1526.6 1623.53 1525.74 Q1620.28 1524.88 1617.26 1524.88 Q1612.01 1524.88 1609.15 1526.92 Q1606.31 1528.96 1606.31 1532.71 Q1606.31 1535.87 1608.19 1537.49 Q1610.1 1539.08 1615.38 1540.07 L1619.27 1540.86 Q1626.46 1542.23 1629.87 1545.7 Q1633.3 1549.14 1633.3 1554.93 Q1633.3 1561.84 1628.66 1565.4 Q1624.04 1568.97 1615.1 1568.97 Q1611.72 1568.97 1607.9 1568.2 Q1604.12 1567.44 1600.04 1565.94 L1600.04 1559.32 Q1603.96 1561.52 1607.71 1562.63 Q1611.47 1563.75 1615.1 1563.75 Q1620.6 1563.75 1623.6 1561.58 Q1626.59 1559.42 1626.59 1555.41 Q1626.59 1551.91 1624.42 1549.93 Q1622.29 1547.96 1617.39 1546.97 L1613.47 1546.21 Q1606.28 1544.78 1603.07 1541.72 Q1599.85 1538.67 1599.85 1533.22 Q1599.85 1526.92 1604.28 1523.29 Q1608.73 1519.66 1616.53 1519.66 Q1619.87 1519.66 1623.34 1520.27 Q1626.81 1520.87 1630.44 1522.08 Z" fill="#000000" fill-rule="nonzero" fill-opacity="1" /><path clip-path="url(#clip970)" d="M1649.76 1525.81 L1649.76 1562.76 L1657.52 1562.76 Q1667.36 1562.76 1671.91 1558.3 Q1676.49 1553.85 1676.49 1544.24 Q1676.49 1534.69 1671.91 1530.26 Q1667.36 1525.81 1657.52 1525.81 L1649.76 1525.81 M1643.33 1520.52 L1656.54 1520.52 Q1670.35 1520.52 1676.81 1526.28 Q1683.27 1532.01 1683.27 1544.24 Q1683.27 1556.52 1676.78 1562.28 Q1670.29 1568.04 1656.54 1568.04 L1643.33 1568.04 L1643.33 1520.52 Z" fill="#000000" fill-rule="nonzero" fill-opacity="1" /><path clip-path="url(#clip970)" d="M1703.68 1520.52 L1709.09 1520.52 L1692.54 1574.09 L1687.12 1574.09 L1703.68 1520.52 Z" fill="#000000" fill-rule="nonzero" fill-opacity="1" /><path clip-path="url(#clip970)" d="M1737.96 1533.45 L1737.96 1538.98 Q1735.47 1537.71 1732.8 1537.07 Q1730.13 1536.44 1727.26 1536.44 Q1722.9 1536.44 1720.7 1537.77 Q1718.54 1539.11 1718.54 1541.79 Q1718.54 1543.82 1720.1 1545 Q1721.66 1546.15 1726.37 1547.2 L1728.37 1547.64 Q1734.61 1548.98 1737.22 1551.43 Q1739.86 1553.85 1739.86 1558.21 Q1739.86 1563.17 1735.92 1566.07 Q1732 1568.97 1725.13 1568.97 Q1722.26 1568.97 1719.14 1568.39 Q1716.06 1567.85 1712.62 1566.74 L1712.62 1560.69 Q1715.87 1562.38 1719.02 1563.24 Q1722.17 1564.07 1725.26 1564.07 Q1729.39 1564.07 1731.62 1562.66 Q1733.85 1561.23 1733.85 1558.65 Q1733.85 1556.27 1732.23 1554.99 Q1730.63 1553.72 1725.19 1552.54 L1723.15 1552.07 Q1717.71 1550.92 1715.29 1548.56 Q1712.87 1546.18 1712.87 1542.04 Q1712.87 1537.01 1716.44 1534.27 Q1720 1531.54 1726.56 1531.54 Q1729.81 1531.54 1732.67 1532.01 Q1735.54 1532.49 1737.96 1533.45 Z" fill="#000000" fill-rule="nonzero" fill-opacity="1" /><path clip-path="url(#clip970)" d="M1778.82 1546.53 L1778.82 1568.04 L1772.97 1568.04 L1772.97 1546.72 Q1772.97 1541.66 1770.99 1539.14 Q1769.02 1536.63 1765.07 1536.63 Q1760.33 1536.63 1757.59 1539.65 Q1754.86 1542.68 1754.86 1547.9 L1754.86 1568.04 L1748.97 1568.04 L1748.97 1518.52 L1754.86 1518.52 L1754.86 1537.93 Q1756.96 1534.72 1759.79 1533.13 Q1762.65 1531.54 1766.38 1531.54 Q1772.52 1531.54 1775.67 1535.36 Q1778.82 1539.14 1778.82 1546.53 Z" fill="#000000" fill-rule="nonzero" fill-opacity="1" /><path clip-path="url(#clip970)" d="M1806.7 1550.12 Q1799.61 1550.12 1796.87 1551.75 Q1794.13 1553.37 1794.13 1557.29 Q1794.13 1560.4 1796.17 1562.25 Q1798.24 1564.07 1801.77 1564.07 Q1806.64 1564.07 1809.57 1560.63 Q1812.53 1557.16 1812.53 1551.43 L1812.53 1550.12 L1806.7 1550.12 M1818.39 1547.71 L1818.39 1568.04 L1812.53 1568.04 L1812.53 1562.63 Q1810.52 1565.88 1807.53 1567.44 Q1804.54 1568.97 1800.21 1568.97 Q1794.74 1568.97 1791.49 1565.91 Q1788.28 1562.82 1788.28 1557.67 Q1788.28 1551.65 1792.29 1548.6 Q1796.33 1545.54 1804.32 1545.54 L1812.53 1545.54 L1812.53 1544.97 Q1812.53 1540.93 1809.86 1538.73 Q1807.21 1536.5 1802.41 1536.5 Q1799.35 1536.5 1796.46 1537.23 Q1793.56 1537.97 1790.89 1539.43 L1790.89 1534.02 Q1794.1 1532.78 1797.12 1532.17 Q1800.15 1531.54 1803.01 1531.54 Q1810.75 1531.54 1814.57 1535.55 Q1818.39 1539.56 1818.39 1547.71 Z" fill="#000000" fill-rule="nonzero" fill-opacity="1" /><path clip-path="url(#clip970)" d="M1851.11 1537.87 Q1850.12 1537.3 1848.94 1537.04 Q1847.8 1536.76 1846.39 1536.76 Q1841.43 1536.76 1838.76 1540 Q1836.11 1543.22 1836.11 1549.27 L1836.11 1568.04 L1830.23 1568.04 L1830.23 1532.4 L1836.11 1532.4 L1836.11 1537.93 Q1837.96 1534.69 1840.92 1533.13 Q1843.88 1531.54 1848.11 1531.54 Q1848.72 1531.54 1849.45 1531.63 Q1850.18 1531.7 1851.07 1531.85 L1851.11 1537.87 Z" fill="#000000" fill-rule="nonzero" fill-opacity="1" /><path clip-path="url(#clip970)" d="M1886.31 1548.76 L1886.31 1551.62 L1859.38 1551.62 Q1859.76 1557.67 1863.01 1560.85 Q1866.29 1564 1872.11 1564 Q1875.49 1564 1878.64 1563.17 Q1881.82 1562.35 1884.94 1560.69 L1884.94 1566.23 Q1881.79 1567.57 1878.48 1568.27 Q1875.17 1568.97 1871.76 1568.97 Q1863.23 1568.97 1858.24 1564 Q1853.27 1559.04 1853.27 1550.57 Q1853.27 1541.82 1857.98 1536.69 Q1862.72 1531.54 1870.74 1531.54 Q1877.94 1531.54 1882.11 1536.18 Q1886.31 1540.8 1886.31 1548.76 M1880.45 1547.04 Q1880.39 1542.23 1877.75 1539.37 Q1875.14 1536.5 1870.81 1536.5 Q1865.91 1536.5 1862.95 1539.27 Q1860.02 1542.04 1859.57 1547.07 L1880.45 1547.04 Z" fill="#000000" fill-rule="nonzero" fill-opacity="1" /><path clip-path="url(#clip970)" d="M1895 1518.58 L1900.09 1518.58 Q1904.86 1526.09 1907.22 1533.29 Q1909.61 1540.48 1909.61 1547.58 Q1909.61 1554.71 1907.22 1561.93 Q1904.86 1569.16 1900.09 1576.64 L1895 1576.64 Q1899.23 1569.35 1901.3 1562.16 Q1903.4 1554.93 1903.4 1547.58 Q1903.4 1540.23 1901.3 1533.06 Q1899.23 1525.9 1895 1518.58 Z" fill="#000000" fill-rule="nonzero" fill-opacity="1" /><polyline clip-path="url(#clip972)" style="stroke:#000000; stroke-linecap:round; stroke-linejoin:round; stroke-width:2; stroke-opacity:0.1; fill:none" points="256.209,1208.68 2352.76,1208.68 "/>
<polyline clip-path="url(#clip972)" style="stroke:#000000; stroke-linecap:round; stroke-linejoin:round; stroke-width:2; stroke-opacity:0.1; fill:none" points="256.209,942.688 2352.76,942.688 "/>
<polyline clip-path="url(#clip972)" style="stroke:#000000; stroke-linecap:round; stroke-linejoin:round; stroke-width:2; stroke-opacity:0.1; fill:none" points="256.209,676.693 2352.76,676.693 "/>
<polyline clip-path="url(#clip972)" style="stroke:#000000; stroke-linecap:round; stroke-linejoin:round; stroke-width:2; stroke-opacity:0.1; fill:none" points="256.209,410.699 2352.76,410.699 "/>
<polyline clip-path="url(#clip972)" style="stroke:#000000; stroke-linecap:round; stroke-linejoin:round; stroke-width:2; stroke-opacity:0.1; fill:none" points="256.209,144.704 2352.76,144.704 "/>
<polyline clip-path="url(#clip970)" style="stroke:#000000; stroke-linecap:round; stroke-linejoin:round; stroke-width:4; stroke-opacity:1; fill:none" points="256.209,1423.18 256.209,47.2441 "/>
<polyline clip-path="url(#clip970)" style="stroke:#000000; stroke-linecap:round; stroke-linejoin:round; stroke-width:4; stroke-opacity:1; fill:none" points="2352.76,1423.18 2352.76,47.2441 "/>
<polyline clip-path="url(#clip970)" style="stroke:#000000; stroke-linecap:round; stroke-linejoin:round; stroke-width:4; stroke-opacity:1; fill:none" points="256.209,1208.68 275.106,1208.68 "/>
<polyline clip-path="url(#clip970)" style="stroke:#000000; stroke-linecap:round; stroke-linejoin:round; stroke-width:4; stroke-opacity:1; fill:none" points="256.209,942.688 275.106,942.688 "/>
<polyline clip-path="url(#clip970)" style="stroke:#000000; stroke-linecap:round; stroke-linejoin:round; stroke-width:4; stroke-opacity:1; fill:none" points="256.209,676.693 275.106,676.693 "/>
<polyline clip-path="url(#clip970)" style="stroke:#000000; stroke-linecap:round; stroke-linejoin:round; stroke-width:4; stroke-opacity:1; fill:none" points="256.209,410.699 275.106,410.699 "/>
<polyline clip-path="url(#clip970)" style="stroke:#000000; stroke-linecap:round; stroke-linejoin:round; stroke-width:4; stroke-opacity:1; fill:none" points="256.209,144.704 275.106,144.704 "/>
<path clip-path="url(#clip970)" d="M114.26 1209.13 L143.936 1209.13 L143.936 1213.07 L114.26 1213.07 L114.26 1209.13 Z" fill="#000000" fill-rule="nonzero" fill-opacity="1" /><path clip-path="url(#clip970)" d="M158.056 1222.03 L174.376 1222.03 L174.376 1225.96 L152.431 1225.96 L152.431 1222.03 Q155.093 1219.27 159.677 1214.64 Q164.283 1209.99 165.464 1208.65 Q167.709 1206.12 168.589 1204.39 Q169.491 1202.63 169.491 1200.94 Q169.491 1198.18 167.547 1196.45 Q165.626 1194.71 162.524 1194.71 Q160.325 1194.71 157.871 1195.48 Q155.44 1196.24 152.663 1197.79 L152.663 1193.07 Q155.487 1191.93 157.94 1191.36 Q160.394 1190.78 162.431 1190.78 Q167.802 1190.78 170.996 1193.46 Q174.19 1196.15 174.19 1200.64 Q174.19 1202.77 173.38 1204.69 Q172.593 1206.59 170.487 1209.18 Q169.908 1209.85 166.806 1213.07 Q163.704 1216.26 158.056 1222.03 Z" fill="#000000" fill-rule="nonzero" fill-opacity="1" /><path clip-path="url(#clip970)" d="M184.19 1220.08 L189.075 1220.08 L189.075 1225.96 L184.19 1225.96 L184.19 1220.08 Z" fill="#000000" fill-rule="nonzero" fill-opacity="1" /><path clip-path="url(#clip970)" d="M199.306 1191.4 L217.662 1191.4 L217.662 1195.34 L203.588 1195.34 L203.588 1203.81 Q204.607 1203.46 205.625 1203.3 Q206.644 1203.11 207.662 1203.11 Q213.449 1203.11 216.829 1206.29 Q220.209 1209.46 220.209 1214.87 Q220.209 1220.45 216.736 1223.55 Q213.264 1226.63 206.945 1226.63 Q204.769 1226.63 202.5 1226.26 Q200.255 1225.89 197.848 1225.15 L197.848 1220.45 Q199.931 1221.59 202.153 1222.14 Q204.375 1222.7 206.852 1222.7 Q210.857 1222.7 213.195 1220.59 Q215.533 1218.49 215.533 1214.87 Q215.533 1211.26 213.195 1209.16 Q210.857 1207.05 206.852 1207.05 Q204.977 1207.05 203.102 1207.47 Q201.25 1207.88 199.306 1208.76 L199.306 1191.4 Z" fill="#000000" fill-rule="nonzero" fill-opacity="1" /><path clip-path="url(#clip970)" d="M163.033 928.486 Q159.422 928.486 157.593 932.051 Q155.788 935.593 155.788 942.722 Q155.788 949.829 157.593 953.394 Q159.422 956.935 163.033 956.935 Q166.667 956.935 168.473 953.394 Q170.302 949.829 170.302 942.722 Q170.302 935.593 168.473 932.051 Q166.667 928.486 163.033 928.486 M163.033 924.783 Q168.843 924.783 171.899 929.389 Q174.977 933.972 174.977 942.722 Q174.977 951.449 171.899 956.056 Q168.843 960.639 163.033 960.639 Q157.223 960.639 154.144 956.056 Q151.089 951.449 151.089 942.722 Q151.089 933.972 154.144 929.389 Q157.223 924.783 163.033 924.783 Z" fill="#000000" fill-rule="nonzero" fill-opacity="1" /><path clip-path="url(#clip970)" d="M183.195 954.088 L188.079 954.088 L188.079 959.968 L183.195 959.968 L183.195 954.088 Z" fill="#000000" fill-rule="nonzero" fill-opacity="1" /><path clip-path="url(#clip970)" d="M208.264 928.486 Q204.653 928.486 202.824 932.051 Q201.019 935.593 201.019 942.722 Q201.019 949.829 202.824 953.394 Q204.653 956.935 208.264 956.935 Q211.899 956.935 213.704 953.394 Q215.533 949.829 215.533 942.722 Q215.533 935.593 213.704 932.051 Q211.899 928.486 208.264 928.486 M208.264 924.783 Q214.074 924.783 217.13 929.389 Q220.209 933.972 220.209 942.722 Q220.209 951.449 217.13 956.056 Q214.074 960.639 208.264 960.639 Q202.454 960.639 199.375 956.056 Q196.32 951.449 196.32 942.722 Q196.32 933.972 199.375 929.389 Q202.454 924.783 208.264 924.783 Z" fill="#000000" fill-rule="nonzero" fill-opacity="1" /><path clip-path="url(#clip970)" d="M158.056 690.038 L174.376 690.038 L174.376 693.973 L152.431 693.973 L152.431 690.038 Q155.093 687.283 159.677 682.654 Q164.283 678.001 165.464 676.658 Q167.709 674.135 168.589 672.399 Q169.491 670.64 169.491 668.95 Q169.491 666.196 167.547 664.459 Q165.626 662.723 162.524 662.723 Q160.325 662.723 157.871 663.487 Q155.44 664.251 152.663 665.802 L152.663 661.08 Q155.487 659.946 157.94 659.367 Q160.394 658.788 162.431 658.788 Q167.802 658.788 170.996 661.473 Q174.19 664.159 174.19 668.649 Q174.19 670.779 173.38 672.7 Q172.593 674.598 170.487 677.191 Q169.908 677.862 166.806 681.08 Q163.704 684.274 158.056 690.038 Z" fill="#000000" fill-rule="nonzero" fill-opacity="1" /><path clip-path="url(#clip970)" d="M184.19 688.094 L189.075 688.094 L189.075 693.973 L184.19 693.973 L184.19 688.094 Z" fill="#000000" fill-rule="nonzero" fill-opacity="1" /><path clip-path="url(#clip970)" d="M199.306 659.413 L217.662 659.413 L217.662 663.348 L203.588 663.348 L203.588 671.821 Q204.607 671.473 205.625 671.311 Q206.644 671.126 207.662 671.126 Q213.449 671.126 216.829 674.297 Q220.209 677.469 220.209 682.885 Q220.209 688.464 216.736 691.566 Q213.264 694.644 206.945 694.644 Q204.769 694.644 202.5 694.274 Q200.255 693.904 197.848 693.163 L197.848 688.464 Q199.931 689.598 202.153 690.154 Q204.375 690.709 206.852 690.709 Q210.857 690.709 213.195 688.603 Q215.533 686.496 215.533 682.885 Q215.533 679.274 213.195 677.168 Q210.857 675.061 206.852 675.061 Q204.977 675.061 203.102 675.478 Q201.25 675.895 199.306 676.774 L199.306 659.413 Z" fill="#000000" fill-rule="nonzero" fill-opacity="1" /><path clip-path="url(#clip970)" d="M153.079 393.419 L171.436 393.419 L171.436 397.354 L157.362 397.354 L157.362 405.826 Q158.38 405.479 159.399 405.317 Q160.417 405.132 161.436 405.132 Q167.223 405.132 170.602 408.303 Q173.982 411.474 173.982 416.891 Q173.982 422.47 170.51 425.571 Q167.038 428.65 160.718 428.65 Q158.542 428.65 156.274 428.28 Q154.028 427.909 151.621 427.169 L151.621 422.47 Q153.704 423.604 155.927 424.159 Q158.149 424.715 160.626 424.715 Q164.63 424.715 166.968 422.608 Q169.306 420.502 169.306 416.891 Q169.306 413.28 166.968 411.173 Q164.63 409.067 160.626 409.067 Q158.751 409.067 156.876 409.484 Q155.024 409.9 153.079 410.78 L153.079 393.419 Z" fill="#000000" fill-rule="nonzero" fill-opacity="1" /><path clip-path="url(#clip970)" d="M183.195 422.099 L188.079 422.099 L188.079 427.979 L183.195 427.979 L183.195 422.099 Z" fill="#000000" fill-rule="nonzero" fill-opacity="1" /><path clip-path="url(#clip970)" d="M208.264 396.498 Q204.653 396.498 202.824 400.062 Q201.019 403.604 201.019 410.734 Q201.019 417.84 202.824 421.405 Q204.653 424.946 208.264 424.946 Q211.899 424.946 213.704 421.405 Q215.533 417.84 215.533 410.734 Q215.533 403.604 213.704 400.062 Q211.899 396.498 208.264 396.498 M208.264 392.794 Q214.074 392.794 217.13 397.4 Q220.209 401.984 220.209 410.734 Q220.209 419.46 217.13 424.067 Q214.074 428.65 208.264 428.65 Q202.454 428.65 199.375 424.067 Q196.32 419.46 196.32 410.734 Q196.32 401.984 199.375 397.4 Q202.454 392.794 208.264 392.794 Z" fill="#000000" fill-rule="nonzero" fill-opacity="1" /><path clip-path="url(#clip970)" d="M152.848 127.424 L175.07 127.424 L175.07 129.415 L162.524 161.984 L157.64 161.984 L169.445 131.36 L152.848 131.36 L152.848 127.424 Z" fill="#000000" fill-rule="nonzero" fill-opacity="1" /><path clip-path="url(#clip970)" d="M184.19 156.105 L189.075 156.105 L189.075 161.984 L184.19 161.984 L184.19 156.105 Z" fill="#000000" fill-rule="nonzero" fill-opacity="1" /><path clip-path="url(#clip970)" d="M199.306 127.424 L217.662 127.424 L217.662 131.36 L203.588 131.36 L203.588 139.832 Q204.607 139.485 205.625 139.323 Q206.644 139.137 207.662 139.137 Q213.449 139.137 216.829 142.309 Q220.209 145.48 220.209 150.897 Q220.209 156.475 216.736 159.577 Q213.264 162.656 206.945 162.656 Q204.769 162.656 202.5 162.285 Q200.255 161.915 197.848 161.174 L197.848 156.475 Q199.931 157.609 202.153 158.165 Q204.375 158.721 206.852 158.721 Q210.857 158.721 213.195 156.614 Q215.533 154.508 215.533 150.897 Q215.533 147.285 213.195 145.179 Q210.857 143.073 206.852 143.073 Q204.977 143.073 203.102 143.489 Q201.25 143.906 199.306 144.785 L199.306 127.424 Z" fill="#000000" fill-rule="nonzero" fill-opacity="1" /><path clip-path="url(#clip970)" d="M21.7677 1014.56 L39.6235 1014.56 L39.6235 1006.47 Q39.6235 1001.98 37.3 999.532 Q34.9765 997.081 30.6797 997.081 Q26.4147 997.081 24.0912 999.532 Q21.7677 1001.98 21.7677 1006.47 L21.7677 1014.56 M16.4842 1020.98 L16.4842 1006.47 Q16.4842 998.482 20.1126 994.408 Q23.7092 990.302 30.6797 990.302 Q37.7138 990.302 41.3104 994.408 Q44.907 998.482 44.907 1006.47 L44.907 1014.56 L64.0042 1014.56 L64.0042 1020.98 L16.4842 1020.98 Z" fill="#000000" fill-rule="nonzero" fill-opacity="1" /><path clip-path="url(#clip970)" d="M33.8307 962.42 Q33.2578 963.407 33.0032 964.584 Q32.7167 965.73 32.7167 967.131 Q32.7167 972.096 35.9632 974.769 Q39.1779 977.411 45.2253 977.411 L64.0042 977.411 L64.0042 983.299 L28.3562 983.299 L28.3562 977.411 L33.8944 977.411 Q30.6479 975.565 29.0883 972.605 Q27.4968 969.645 27.4968 965.412 Q27.4968 964.807 27.5923 964.075 Q27.656 963.343 27.8151 962.452 L33.8307 962.42 Z" fill="#000000" fill-rule="nonzero" fill-opacity="1" /><path clip-path="url(#clip970)" d="M32.4621 943.896 Q32.4621 948.606 36.1542 951.344 Q39.8145 954.081 46.212 954.081 Q52.6095 954.081 56.3017 951.375 Q59.9619 948.638 59.9619 943.896 Q59.9619 939.217 56.2698 936.48 Q52.5777 933.742 46.212 933.742 Q39.8781 933.742 36.186 936.48 Q32.4621 939.217 32.4621 943.896 M27.4968 943.896 Q27.4968 936.257 32.4621 931.896 Q37.4273 927.536 46.212 927.536 Q54.9649 927.536 59.9619 931.896 Q64.9272 936.257 64.9272 943.896 Q64.9272 951.566 59.9619 955.927 Q54.9649 960.256 46.212 960.256 Q37.4273 960.256 32.4621 955.927 Q27.4968 951.566 27.4968 943.896 Z" fill="#000000" fill-rule="nonzero" fill-opacity="1" /><path clip-path="url(#clip970)" d="M14.479 899.781 L19.3487 899.781 L19.3487 905.383 Q19.3487 908.534 20.6219 909.776 Q21.895 910.985 25.2052 910.985 L28.3562 910.985 L28.3562 901.341 L32.9077 901.341 L32.9077 910.985 L64.0042 910.985 L64.0042 916.873 L32.9077 916.873 L32.9077 922.475 L28.3562 922.475 L28.3562 916.873 L25.8736 916.873 Q19.9216 916.873 17.2162 914.104 Q14.479 911.335 14.479 905.32 L14.479 899.781 Z" fill="#000000" fill-rule="nonzero" fill-opacity="1" /><path clip-path="url(#clip970)" d="M28.3562 894.88 L28.3562 889.023 L64.0042 889.023 L64.0042 894.88 L28.3562 894.88 M14.479 894.88 L14.479 889.023 L21.895 889.023 L21.895 894.88 L14.479 894.88 Z" fill="#000000" fill-rule="nonzero" fill-opacity="1" /><path clip-path="url(#clip970)" d="M18.2347 870.977 L28.3562 870.977 L28.3562 858.914 L32.9077 858.914 L32.9077 870.977 L52.2594 870.977 Q56.6199 870.977 57.8613 869.799 Q59.1026 868.589 59.1026 864.929 L59.1026 858.914 L64.0042 858.914 L64.0042 864.929 Q64.0042 871.709 61.4897 874.287 Q58.9434 876.865 52.2594 876.865 L32.9077 876.865 L32.9077 881.162 L28.3562 881.162 L28.3562 876.865 L18.2347 876.865 L18.2347 870.977 Z" fill="#000000" fill-rule="nonzero" fill-opacity="1" /><path clip-path="url(#clip970)" d="M14.5426 816.422 Q21.8632 820.687 29.0246 822.756 Q36.186 824.825 43.5384 824.825 Q50.8908 824.825 58.1159 822.756 Q65.3091 820.656 72.5979 816.422 L72.5979 821.515 Q65.1182 826.289 57.8931 828.676 Q50.668 831.032 43.5384 831.032 Q36.4406 831.032 29.2474 828.676 Q22.0542 826.321 14.5426 821.515 L14.5426 816.422 Z" fill="#000000" fill-rule="nonzero" fill-opacity="1" /><path clip-path="url(#clip970)" d="M16.4842 805.537 L16.4842 799.076 L45.3526 799.076 Q52.9915 799.076 56.3653 796.307 Q59.7073 793.538 59.7073 787.331 Q59.7073 781.156 56.3653 778.387 Q52.9915 775.618 45.3526 775.618 L16.4842 775.618 L16.4842 769.157 L46.1484 769.157 Q55.4423 769.157 60.1847 773.772 Q64.9272 778.356 64.9272 787.331 Q64.9272 796.339 60.1847 800.954 Q55.4423 805.537 46.1484 805.537 L16.4842 805.537 Z" fill="#000000" fill-rule="nonzero" fill-opacity="1" /><path clip-path="url(#clip970)" d="M18.0438 728.608 L24.314 728.608 Q22.5634 732.268 21.704 735.514 Q20.8447 738.761 20.8447 741.785 Q20.8447 747.036 22.8817 749.901 Q24.9187 752.734 28.6745 752.734 Q31.8255 752.734 33.4488 750.856 Q35.0402 748.946 36.0269 743.662 L36.8226 739.779 Q38.1912 732.586 41.6605 729.18 Q45.098 725.743 50.8908 725.743 Q57.7976 725.743 61.3624 730.39 Q64.9272 735.005 64.9272 743.949 Q64.9272 747.323 64.1633 751.142 Q63.3994 754.93 61.9035 759.004 L55.2831 759.004 Q57.4793 755.089 58.5933 751.333 Q59.7073 747.577 59.7073 743.949 Q59.7073 738.443 57.543 735.451 Q55.3786 732.459 51.3682 732.459 Q47.8671 732.459 45.8937 734.623 Q43.9204 736.756 42.9337 741.657 L42.1698 745.572 Q40.7375 752.765 37.682 755.98 Q34.6264 759.195 29.1837 759.195 Q22.8817 759.195 19.2532 754.771 Q15.6248 750.315 15.6248 742.517 Q15.6248 739.175 16.2295 735.705 Q16.8343 732.236 18.0438 728.608 Z" fill="#000000" fill-rule="nonzero" fill-opacity="1" /><path clip-path="url(#clip970)" d="M21.7677 709.288 L58.7206 709.288 L58.7206 701.521 Q58.7206 691.686 54.2646 687.135 Q49.8086 682.552 40.1964 682.552 Q30.6479 682.552 26.2237 687.135 Q21.7677 691.686 21.7677 701.521 L21.7677 709.288 M16.4842 715.717 L16.4842 702.508 Q16.4842 688.695 22.2451 682.233 Q27.9743 675.772 40.1964 675.772 Q52.4822 675.772 58.2432 682.265 Q64.0042 688.758 64.0042 702.508 L64.0042 715.717 L16.4842 715.717 Z" fill="#000000" fill-rule="nonzero" fill-opacity="1" /><path clip-path="url(#clip970)" d="M16.4842 655.37 L16.4842 649.959 L70.0516 666.51 L70.0516 671.921 L16.4842 655.37 Z" fill="#000000" fill-rule="nonzero" fill-opacity="1" /><path clip-path="url(#clip970)" d="M29.4065 621.091 L34.9447 621.091 Q33.6716 623.573 33.035 626.247 Q32.3984 628.921 32.3984 631.785 Q32.3984 636.146 33.7352 638.342 Q35.072 640.506 37.7456 640.506 Q39.7826 640.506 40.9603 638.947 Q42.1061 637.387 43.1565 632.676 L43.6021 630.671 Q44.9389 624.433 47.3897 621.823 Q49.8086 619.181 54.1691 619.181 Q59.1344 619.181 62.0308 623.128 Q64.9272 627.043 64.9272 633.918 Q64.9272 636.782 64.3543 639.901 Q63.8132 642.989 62.6992 646.426 L56.6518 646.426 Q58.3387 643.18 59.198 640.029 Q60.0256 636.878 60.0256 633.79 Q60.0256 629.653 58.6251 627.425 Q57.1929 625.197 54.6147 625.197 Q52.2276 625.197 50.9545 626.82 Q49.6813 628.411 48.5037 633.854 L48.0262 635.891 Q46.8804 641.334 44.5251 643.753 Q42.138 646.172 38.0002 646.172 Q32.9713 646.172 30.2341 642.607 Q27.4968 639.042 27.4968 632.485 Q27.4968 629.239 27.9743 626.374 Q28.4517 623.51 29.4065 621.091 Z" fill="#000000" fill-rule="nonzero" fill-opacity="1" /><path clip-path="url(#clip970)" d="M42.4881 580.223 L64.0042 580.223 L64.0042 586.079 L42.679 586.079 Q37.6183 586.079 35.1038 588.053 Q32.5894 590.026 32.5894 593.973 Q32.5894 598.715 35.6131 601.453 Q38.6368 604.19 43.8567 604.19 L64.0042 604.19 L64.0042 610.078 L14.479 610.078 L14.479 604.19 L33.8944 604.19 Q30.6797 602.089 29.0883 599.256 Q27.4968 596.392 27.4968 592.668 Q27.4968 586.525 31.3163 583.374 Q35.1038 580.223 42.4881 580.223 Z" fill="#000000" fill-rule="nonzero" fill-opacity="1" /><path clip-path="url(#clip970)" d="M46.0847 552.341 Q46.0847 559.439 47.7079 562.176 Q49.3312 564.913 53.2461 564.913 Q56.3653 564.913 58.2114 562.876 Q60.0256 560.808 60.0256 557.275 Q60.0256 552.405 56.5881 549.477 Q53.1188 546.517 47.3897 546.517 L46.0847 546.517 L46.0847 552.341 M43.6657 540.66 L64.0042 540.66 L64.0042 546.517 L58.5933 546.517 Q61.8398 548.522 63.3994 551.514 Q64.9272 554.505 64.9272 558.834 Q64.9272 564.309 61.8716 567.555 Q58.7843 570.77 53.6281 570.77 Q47.6125 570.77 44.5569 566.759 Q41.5014 562.717 41.5014 554.728 L41.5014 546.517 L40.9285 546.517 Q36.8862 546.517 34.6901 549.19 Q32.4621 551.832 32.4621 556.638 Q32.4621 559.694 33.1941 562.59 Q33.9262 565.486 35.3903 568.16 L29.9795 568.16 Q28.7381 564.945 28.1334 561.922 Q27.4968 558.898 27.4968 556.033 Q27.4968 548.299 31.5072 544.479 Q35.5176 540.66 43.6657 540.66 Z" fill="#000000" fill-rule="nonzero" fill-opacity="1" /><path clip-path="url(#clip970)" d="M33.8307 507.94 Q33.2578 508.927 33.0032 510.105 Q32.7167 511.25 32.7167 512.651 Q32.7167 517.616 35.9632 520.29 Q39.1779 522.932 45.2253 522.932 L64.0042 522.932 L64.0042 528.82 L28.3562 528.82 L28.3562 522.932 L33.8944 522.932 Q30.6479 521.086 29.0883 518.125 Q27.4968 515.165 27.4968 510.932 Q27.4968 510.327 27.5923 509.595 Q27.656 508.863 27.8151 507.972 L33.8307 507.94 Z" fill="#000000" fill-rule="nonzero" fill-opacity="1" /><path clip-path="url(#clip970)" d="M44.7161 472.738 L47.5806 472.738 L47.5806 499.665 Q53.6281 499.283 56.8109 496.036 Q59.9619 492.758 59.9619 486.933 Q59.9619 483.56 59.1344 480.409 Q58.3069 477.226 56.6518 474.107 L62.1899 474.107 Q63.5267 477.258 64.227 480.568 Q64.9272 483.878 64.9272 487.284 Q64.9272 495.814 59.9619 500.811 Q54.9967 505.776 46.5303 505.776 Q37.7774 505.776 32.6531 501.065 Q27.4968 496.323 27.4968 488.302 Q27.4968 481.109 32.1438 476.939 Q36.7589 472.738 44.7161 472.738 M42.9973 478.594 Q38.1912 478.658 35.3266 481.3 Q32.4621 483.91 32.4621 488.238 Q32.4621 493.14 35.2312 496.1 Q38.0002 499.028 43.0292 499.474 L42.9973 478.594 Z" fill="#000000" fill-rule="nonzero" fill-opacity="1" /><path clip-path="url(#clip970)" d="M14.5426 464.049 L14.5426 458.956 Q22.0542 454.182 29.2474 451.827 Q36.4406 449.439 43.5384 449.439 Q50.668 449.439 57.8931 451.827 Q65.1182 454.182 72.5979 458.956 L72.5979 464.049 Q65.3091 459.816 58.1159 457.747 Q50.8908 455.646 43.5384 455.646 Q36.186 455.646 29.0246 457.747 Q21.8632 459.816 14.5426 464.049 Z" fill="#000000" fill-rule="nonzero" fill-opacity="1" /><polyline clip-path="url(#clip972)" style="stroke:#000000; stroke-linecap:round; stroke-linejoin:round; stroke-width:16; stroke-opacity:1; fill:none" points="315.545,320.261 319.501,330.901 323.456,341.54 327.412,352.18 331.368,362.82 335.324,373.46 339.279,384.099 343.235,394.739 347.191,405.379 351.147,416.019 355.102,426.658 359.058,437.298 363.014,447.938 366.97,458.578 370.925,469.218 374.881,479.857 378.837,490.497 382.793,501.137 386.748,511.777 390.704,522.416 394.66,533.056 398.616,543.696 402.571,554.336 406.527,564.976 410.483,575.615 414.439,586.255 418.394,596.895 422.35,607.535 426.306,618.174 430.262,628.814 434.217,639.454 438.173,650.094 442.129,660.734 446.085,671.373 450.04,682.013 453.996,692.653 457.952,703.293 461.908,713.932 465.863,724.572 469.819,735.212 473.775,745.852 477.731,756.492 481.686,767.131 485.642,777.771 489.598,788.411 493.554,799.051 497.509,809.69 501.465,820.33 505.421,830.97 509.377,841.61 513.332,852.249 517.288,862.889 521.244,873.529 525.2,884.169 529.155,894.809 533.111,905.448 537.067,916.088 541.023,926.728 544.978,937.368 548.934,948.007 552.89,958.647 556.846,969.287 560.801,979.927 564.757,990.567 568.713,1001.21 572.669,1011.85 576.624,1022.49 580.58,1033.13 584.536,1043.77 588.492,1054.41 592.447,1065.05 596.403,1075.68 600.359,1086.32 604.315,1096.96 608.27,1107.6 612.226,1118.24 616.182,1128.88 620.138,1139.52 624.093,1150.16 628.049,1160.8 632.005,1171.44 635.961,1182.08 639.916,1192.72 643.872,1203.36 647.828,1214 651.784,1224.64 655.739,1235.28 659.695,1245.92 663.651,1256.56 667.607,1267.2 671.562,1277.84 675.518,1288.48 679.474,1299.12 683.43,1309.76 687.385,1320.4 691.341,1331.04 695.297,1341.68 699.253,1352.32 703.208,1362.96 707.164,1373.6 711.12,1384.24 715.076,1384.24 719.031,1384.24 722.987,1384.24 726.943,1384.24 730.899,1384.24 734.854,1384.24 738.81,1384.24 742.766,1384.24 746.722,1384.24 750.677,1384.24 754.633,1384.24 758.589,1384.24 762.545,1384.24 766.5,1384.24 770.456,1384.24 774.412,1384.24 778.368,1384.24 782.323,1384.24 786.279,1384.24 790.235,1384.24 794.191,1384.24 798.146,1384.24 802.102,1384.24 806.058,1384.24 810.014,1384.24 813.969,1384.24 817.925,1384.24 821.881,1384.24 825.837,1384.24 829.792,1384.24 833.748,1384.24 837.704,1384.24 841.66,1384.24 845.615,1384.24 849.571,1384.24 853.527,1384.24 857.483,1384.24 861.438,1384.24 865.394,1384.24 869.35,1384.24 873.306,1384.24 877.261,1384.24 881.217,1384.24 885.173,1384.24 889.129,1384.24 893.084,1384.24 897.04,1384.24 900.996,1384.24 904.952,1384.24 908.907,1384.24 912.863,1384.24 916.819,1384.24 920.775,1384.24 924.73,1384.24 928.686,1384.24 932.642,1384.24 936.598,1384.24 940.553,1384.24 944.509,1384.24 948.465,1384.24 952.421,1384.24 956.376,1384.24 960.332,1384.24 964.288,1384.24 968.244,1384.24 972.199,1384.24 976.155,1384.24 980.111,1384.24 984.067,1384.24 988.022,1384.24 991.978,1384.24 995.934,1384.24 999.89,1384.24 1003.85,1384.24 1007.8,1384.24 1011.76,1384.24 1015.71,1384.24 1019.67,1384.24 1023.62,1384.24 1027.58,1384.24 1031.54,1384.24 1035.49,1384.24 1039.45,1384.24 1043.4,1384.24 1047.36,1384.24 1051.31,1384.24 1055.27,1384.24 1059.23,1384.24 1063.18,1384.24 1067.14,1384.24 1071.09,1384.24 1075.05,1384.24 1079,1384.24 1082.96,1384.24 1086.92,1384.24 1090.87,1384.24 1094.83,1384.24 1098.78,1384.24 1102.74,1384.24 1106.69,1384.24 1110.65,1384.24 1114.61,1384.24 1118.56,1384.24 1122.52,1384.24 1126.47,1384.24 1130.43,1384.24 1134.39,1384.24 1138.34,1384.24 1142.3,1384.24 1146.25,1384.24 1150.21,1384.24 1154.16,1384.24 1158.12,1384.24 1162.08,1384.24 1166.03,1384.24 1169.99,1384.24 1173.94,1384.24 1177.9,1384.24 1181.85,1384.24 1185.81,1384.24 1189.77,1384.24 1193.72,1384.24 1197.68,1384.24 1201.63,1384.24 1205.59,1384.24 1209.54,1384.24 1213.5,1384.24 1217.46,1384.24 1221.41,1384.24 1225.37,1384.24 1229.32,1384.24 1233.28,1384.24 1237.23,1384.24 1241.19,1384.24 1245.15,1384.24 1249.1,1384.24 1253.06,1384.24 1257.01,1384.24 1260.97,1384.24 1264.92,1384.24 1268.88,1384.24 1272.84,1384.24 1276.79,1384.24 1280.75,1384.24 1284.7,1384.24 1288.66,1384.24 1292.62,1384.24 1296.57,1384.24 1300.53,1384.24 1304.48,1384.24 1308.44,1384.24 1312.39,1384.24 1316.35,1384.24 1320.31,1384.24 1324.26,1384.24 1328.22,1384.24 1332.17,1384.24 1336.13,1384.24 1340.08,1384.24 1344.04,1384.24 1348,1384.24 1351.95,1384.24 1355.91,1384.24 1359.86,1384.24 1363.82,1384.24 1367.77,1384.24 1371.73,1384.24 1375.69,1384.24 1379.64,1384.24 1383.6,1384.24 1387.55,1384.24 1391.51,1384.24 1395.46,1384.24 1399.42,1384.24 1403.38,1384.24 1407.33,1384.24 1411.29,1384.24 1415.24,1384.24 1419.2,1384.24 1423.15,1384.24 1427.11,1384.24 1431.07,1384.24 1435.02,1384.24 1438.98,1384.24 1442.93,1384.24 1446.89,1384.24 1450.85,1384.24 1454.8,1384.24 1458.76,1384.24 1462.71,1384.24 1466.67,1384.24 1470.62,1384.24 1474.58,1384.24 1478.54,1384.24 1482.49,1384.24 1486.45,1384.24 1490.4,1384.24 1494.36,1384.24 1498.31,1384.24 1502.27,1384.24 1506.23,1384.24 1510.18,1384.24 1514.14,1384.24 1518.09,1384.24 1522.05,1384.24 1526,1384.24 1529.96,1384.24 1533.92,1384.24 1537.87,1384.24 1541.83,1384.24 1545.78,1384.24 1549.74,1384.24 1553.69,1384.24 1557.65,1384.24 1561.61,1384.24 1565.56,1384.24 1569.52,1384.24 1573.47,1384.24 1577.43,1384.24 1581.38,1384.24 1585.34,1384.24 1589.3,1384.24 1593.25,1384.24 1597.21,1384.24 1601.16,1384.24 1605.12,1384.24 1609.07,1384.24 1613.03,1384.24 1616.99,1384.24 1620.94,1384.24 1624.9,1384.24 1628.85,1384.24 1632.81,1384.24 1636.77,1384.24 1640.72,1384.24 1644.68,1384.24 1648.63,1384.24 1652.59,1384.24 1656.54,1384.24 1660.5,1384.24 1664.46,1384.24 1668.41,1384.24 1672.37,1384.24 1676.32,1384.24 1680.28,1384.24 1684.23,1384.24 1688.19,1384.24 1692.15,1384.24 1696.1,1384.24 1700.06,1384.24 1704.01,1384.24 1707.97,1384.24 1711.92,1384.24 1715.88,1384.24 1719.84,1384.24 1723.79,1384.24 1727.75,1384.24 1731.7,1384.24 1735.66,1384.24 1739.61,1384.24 1743.57,1384.24 1747.53,1384.24 1751.48,1384.24 1755.44,1384.24 1759.39,1384.24 1763.35,1384.24 1767.3,1384.24 1771.26,1384.24 1775.22,1384.24 1779.17,1384.24 1783.13,1384.24 1787.08,1384.24 1791.04,1384.24 1795,1384.24 1798.95,1384.24 1802.91,1384.24 1806.86,1384.24 1810.82,1384.24 1814.77,1384.24 1818.73,1384.24 1822.69,1384.24 1826.64,1384.24 1830.6,1384.24 1834.55,1384.24 1838.51,1384.24 1842.46,1384.24 1846.42,1384.24 1850.38,1384.24 1854.33,1384.24 1858.29,1384.24 1862.24,1384.24 1866.2,1384.24 1870.15,1384.24 1874.11,1384.24 1878.07,1384.24 1882.02,1384.24 1885.98,1384.24 1889.93,1384.24 1893.89,1384.24 1897.84,1384.24 1901.8,1373.6 1905.76,1362.96 1909.71,1352.32 1913.67,1341.68 1917.62,1331.04 1921.58,1320.4 1925.53,1309.76 1929.49,1299.12 1933.45,1288.48 1937.4,1277.84 1941.36,1267.2 1945.31,1256.56 1949.27,1245.92 1953.23,1235.28 1957.18,1224.64 1961.14,1214 1965.09,1203.36 1969.05,1192.72 1973,1182.08 1976.96,1171.44 1980.92,1160.8 1984.87,1150.16 1988.83,1139.52 1992.78,1128.88 1996.74,1118.24 2000.69,1107.6 2004.65,1096.96 2008.61,1086.32 2012.56,1075.68 2016.52,1065.05 2020.47,1054.41 2024.43,1043.77 2028.38,1033.13 2032.34,1022.49 2036.3,1011.85 2040.25,1001.21 2044.21,990.567 2048.16,979.927 2052.12,969.287 2056.07,958.647 2060.03,948.007 2063.99,937.368 2067.94,926.728 2071.9,916.088 2075.85,905.448 2079.81,894.809 2083.76,884.169 2087.72,873.529 2091.68,862.889 2095.63,852.249 2099.59,841.61 2103.54,830.97 2107.5,820.33 2111.46,809.69 2115.41,799.051 2119.37,788.411 2123.32,777.771 2127.28,767.131 2131.23,756.492 2135.19,745.852 2139.15,735.212 2143.1,724.572 2147.06,713.932 2151.01,703.293 2154.97,692.653 2158.92,682.013 2162.88,671.373 2166.84,660.734 2170.79,650.094 2174.75,639.454 2178.7,628.814 2182.66,618.174 2186.61,607.535 2190.57,596.895 2194.53,586.255 2198.48,575.615 2202.44,564.976 2206.39,554.336 2210.35,543.696 2214.3,533.056 2218.26,522.416 2222.22,511.777 2226.17,501.137 2230.13,490.497 2234.08,479.857 2238.04,469.218 2241.99,458.578 2245.95,447.938 2249.91,437.298 2253.86,426.658 2257.82,416.019 2261.77,405.379 2265.73,394.739 2269.69,384.099 2273.64,373.46 2277.6,362.82 2281.55,352.18 2285.51,341.54 2289.46,330.901 2293.42,320.261 "/>
<polyline clip-path="url(#clip972)" style="stroke:#ff0000; stroke-linecap:round; stroke-linejoin:round; stroke-width:4; stroke-opacity:1; fill:none" stroke-dasharray="16, 10" points="315.545,86.1857 319.501,96.8254 323.456,107.465 327.412,118.105 331.368,128.745 335.324,139.385 339.279,150.024 343.235,160.664 347.191,171.304 351.147,181.944 355.102,192.583 359.058,203.223 363.014,213.863 366.97,224.503 370.925,235.143 374.881,245.782 378.837,256.422 382.793,267.062 386.748,277.702 390.704,288.341 394.66,298.981 398.616,309.621 402.571,320.261 406.527,330.901 410.483,341.54 414.439,352.18 418.394,362.82 422.35,373.46 426.306,384.099 430.262,394.739 434.217,405.379 438.173,416.019 442.129,426.658 446.085,437.298 450.04,447.938 453.996,458.578 457.952,469.218 461.908,479.857 465.863,490.497 469.819,501.137 473.775,511.777 477.731,522.416 481.686,533.056 485.642,543.696 489.598,554.336 493.554,564.976 497.509,575.615 501.465,586.255 505.421,596.895 509.377,607.535 513.332,618.174 517.288,628.814 521.244,639.454 525.2,650.094 529.155,660.734 533.111,671.373 537.067,682.013 541.023,692.653 544.978,703.293 548.934,713.932 552.89,724.572 556.846,735.212 560.801,745.852 564.757,756.492 568.713,767.131 572.669,777.771 576.624,788.411 580.58,799.051 584.536,809.69 588.492,820.33 592.447,830.97 596.403,841.61 600.359,852.249 604.315,862.889 608.27,873.529 612.226,884.169 616.182,894.809 620.138,905.448 624.093,916.088 628.049,926.728 632.005,937.368 635.961,948.007 639.916,958.647 643.872,969.287 647.828,979.927 651.784,990.567 655.739,1001.21 659.695,1011.85 663.651,1022.49 667.607,1033.13 671.562,1043.77 675.518,1054.41 679.474,1065.05 683.43,1075.68 687.385,1086.32 691.341,1096.96 695.297,1107.6 699.253,1118.24 703.208,1128.88 707.164,1139.52 711.12,1150.16 715.076,1150.16 719.031,1150.16 722.987,1150.16 726.943,1150.16 730.899,1150.16 734.854,1150.16 738.81,1150.16 742.766,1150.16 746.722,1150.16 750.677,1150.16 754.633,1150.16 758.589,1150.16 762.545,1150.16 766.5,1150.16 770.456,1150.16 774.412,1150.16 778.368,1150.16 782.323,1150.16 786.279,1150.16 790.235,1150.16 794.191,1150.16 798.146,1150.16 802.102,1150.16 806.058,1150.16 810.014,1150.16 813.969,1150.16 817.925,1150.16 821.881,1150.16 825.837,1150.16 829.792,1150.16 833.748,1150.16 837.704,1150.16 841.66,1150.16 845.615,1150.16 849.571,1150.16 853.527,1150.16 857.483,1150.16 861.438,1150.16 865.394,1150.16 869.35,1150.16 873.306,1150.16 877.261,1150.16 881.217,1150.16 885.173,1150.16 889.129,1150.16 893.084,1150.16 897.04,1150.16 900.996,1150.16 904.952,1150.16 908.907,1150.16 912.863,1150.16 916.819,1150.16 920.775,1150.16 924.73,1150.16 928.686,1150.16 932.642,1150.16 936.598,1150.16 940.553,1150.16 944.509,1150.16 948.465,1150.16 952.421,1150.16 956.376,1150.16 960.332,1150.16 964.288,1150.16 968.244,1150.16 972.199,1150.16 976.155,1150.16 980.111,1150.16 984.067,1150.16 988.022,1150.16 991.978,1150.16 995.934,1150.16 999.89,1150.16 1003.85,1150.16 1007.8,1150.16 1011.76,1150.16 1015.71,1150.16 1019.67,1150.16 1023.62,1150.16 1027.58,1150.16 1031.54,1150.16 1035.49,1150.16 1039.45,1150.16 1043.4,1150.16 1047.36,1150.16 1051.31,1150.16 1055.27,1150.16 1059.23,1150.16 1063.18,1150.16 1067.14,1150.16 1071.09,1150.16 1075.05,1150.16 1079,1150.16 1082.96,1150.16 1086.92,1150.16 1090.87,1150.16 1094.83,1150.16 1098.78,1150.16 1102.74,1150.16 1106.69,1150.16 1110.65,1150.16 1114.61,1150.16 1118.56,1150.16 1122.52,1150.16 1126.47,1150.16 1130.43,1150.16 1134.39,1150.16 1138.34,1150.16 1142.3,1150.16 1146.25,1150.16 1150.21,1150.16 1154.16,1150.16 1158.12,1150.16 1162.08,1150.16 1166.03,1150.16 1169.99,1150.16 1173.94,1150.16 1177.9,1150.16 1181.85,1150.16 1185.81,1150.16 1189.77,1150.16 1193.72,1150.16 1197.68,1150.16 1201.63,1150.16 1205.59,1150.16 1209.54,1150.16 1213.5,1150.16 1217.46,1150.16 1221.41,1150.16 1225.37,1150.16 1229.32,1150.16 1233.28,1150.16 1237.23,1150.16 1241.19,1150.16 1245.15,1150.16 1249.1,1150.16 1253.06,1150.16 1257.01,1150.16 1260.97,1150.16 1264.92,1150.16 1268.88,1150.16 1272.84,1150.16 1276.79,1150.16 1280.75,1150.16 1284.7,1150.16 1288.66,1150.16 1292.62,1150.16 1296.57,1150.16 1300.53,1150.16 1304.48,1150.16 1308.44,1150.16 1312.39,1150.16 1316.35,1150.16 1320.31,1150.16 1324.26,1150.16 1328.22,1150.16 1332.17,1150.16 1336.13,1150.16 1340.08,1150.16 1344.04,1150.16 1348,1150.16 1351.95,1150.16 1355.91,1150.16 1359.86,1150.16 1363.82,1150.16 1367.77,1150.16 1371.73,1150.16 1375.69,1150.16 1379.64,1150.16 1383.6,1150.16 1387.55,1150.16 1391.51,1150.16 1395.46,1150.16 1399.42,1150.16 1403.38,1150.16 1407.33,1150.16 1411.29,1150.16 1415.24,1150.16 1419.2,1150.16 1423.15,1150.16 1427.11,1150.16 1431.07,1150.16 1435.02,1150.16 1438.98,1150.16 1442.93,1150.16 1446.89,1150.16 1450.85,1150.16 1454.8,1150.16 1458.76,1150.16 1462.71,1150.16 1466.67,1150.16 1470.62,1150.16 1474.58,1150.16 1478.54,1150.16 1482.49,1150.16 1486.45,1150.16 1490.4,1150.16 1494.36,1150.16 1498.31,1150.16 1502.27,1150.16 1506.23,1150.16 1510.18,1150.16 1514.14,1150.16 1518.09,1150.16 1522.05,1150.16 1526,1150.16 1529.96,1150.16 1533.92,1150.16 1537.87,1150.16 1541.83,1150.16 1545.78,1150.16 1549.74,1150.16 1553.69,1150.16 1557.65,1150.16 1561.61,1150.16 1565.56,1150.16 1569.52,1150.16 1573.47,1150.16 1577.43,1150.16 1581.38,1150.16 1585.34,1150.16 1589.3,1150.16 1593.25,1150.16 1597.21,1150.16 1601.16,1150.16 1605.12,1150.16 1609.07,1150.16 1613.03,1150.16 1616.99,1150.16 1620.94,1150.16 1624.9,1150.16 1628.85,1150.16 1632.81,1150.16 1636.77,1150.16 1640.72,1150.16 1644.68,1150.16 1648.63,1150.16 1652.59,1150.16 1656.54,1150.16 1660.5,1150.16 1664.46,1150.16 1668.41,1150.16 1672.37,1150.16 1676.32,1150.16 1680.28,1150.16 1684.23,1150.16 1688.19,1150.16 1692.15,1150.16 1696.1,1150.16 1700.06,1150.16 1704.01,1150.16 1707.97,1150.16 1711.92,1150.16 1715.88,1150.16 1719.84,1150.16 1723.79,1150.16 1727.75,1150.16 1731.7,1150.16 1735.66,1150.16 1739.61,1150.16 1743.57,1150.16 1747.53,1150.16 1751.48,1150.16 1755.44,1150.16 1759.39,1150.16 1763.35,1150.16 1767.3,1150.16 1771.26,1150.16 1775.22,1150.16 1779.17,1150.16 1783.13,1150.16 1787.08,1150.16 1791.04,1150.16 1795,1150.16 1798.95,1150.16 1802.91,1150.16 1806.86,1150.16 1810.82,1150.16 1814.77,1150.16 1818.73,1150.16 1822.69,1150.16 1826.64,1150.16 1830.6,1150.16 1834.55,1150.16 1838.51,1150.16 1842.46,1150.16 1846.42,1150.16 1850.38,1150.16 1854.33,1150.16 1858.29,1150.16 1862.24,1150.16 1866.2,1150.16 1870.15,1150.16 1874.11,1150.16 1878.07,1150.16 1882.02,1150.16 1885.98,1150.16 1889.93,1150.16 1893.89,1150.16 1897.84,1150.16 1901.8,1150.16 1905.76,1150.16 1909.71,1150.16 1913.67,1150.16 1917.62,1150.16 1921.58,1150.16 1925.53,1150.16 1929.49,1150.16 1933.45,1150.16 1937.4,1150.16 1941.36,1150.16 1945.31,1150.16 1949.27,1150.16 1953.23,1150.16 1957.18,1150.16 1961.14,1150.16 1965.09,1150.16 1969.05,1150.16 1973,1150.16 1976.96,1150.16 1980.92,1150.16 1984.87,1150.16 1988.83,1150.16 1992.78,1150.16 1996.74,1150.16 2000.69,1150.16 2004.65,1150.16 2008.61,1150.16 2012.56,1150.16 2016.52,1150.16 2020.47,1150.16 2024.43,1150.16 2028.38,1150.16 2032.34,1150.16 2036.3,1150.16 2040.25,1150.16 2044.21,1150.16 2048.16,1150.16 2052.12,1150.16 2056.07,1150.16 2060.03,1150.16 2063.99,1150.16 2067.94,1150.16 2071.9,1150.16 2075.85,1150.16 2079.81,1150.16 2083.76,1150.16 2087.72,1150.16 2091.68,1150.16 2095.63,1150.16 2099.59,1150.16 2103.54,1150.16 2107.5,1150.16 2111.46,1150.16 2115.41,1150.16 2119.37,1150.16 2123.32,1150.16 2127.28,1150.16 2131.23,1150.16 2135.19,1150.16 2139.15,1150.16 2143.1,1150.16 2147.06,1150.16 2151.01,1150.16 2154.97,1150.16 2158.92,1150.16 2162.88,1150.16 2166.84,1150.16 2170.79,1150.16 2174.75,1150.16 2178.7,1150.16 2182.66,1150.16 2186.61,1150.16 2190.57,1150.16 2194.53,1150.16 2198.48,1150.16 2202.44,1150.16 2206.39,1150.16 2210.35,1150.16 2214.3,1150.16 2218.26,1150.16 2222.22,1150.16 2226.17,1150.16 2230.13,1150.16 2234.08,1150.16 2238.04,1150.16 2241.99,1150.16 2245.95,1150.16 2249.91,1150.16 2253.86,1150.16 2257.82,1150.16 2261.77,1150.16 2265.73,1150.16 2269.69,1150.16 2273.64,1150.16 2277.6,1150.16 2281.55,1150.16 2285.51,1150.16 2289.46,1150.16 2293.42,1150.16 "/>
<polyline clip-path="url(#clip972)" style="stroke:#0000ff; stroke-linecap:round; stroke-linejoin:round; stroke-width:4; stroke-opacity:1; fill:none" stroke-dasharray="16, 10" points="315.545,1176.76 319.501,1176.76 323.456,1176.76 327.412,1176.76 331.368,1176.76 335.324,1176.76 339.279,1176.76 343.235,1176.76 347.191,1176.76 351.147,1176.76 355.102,1176.76 359.058,1176.76 363.014,1176.76 366.97,1176.76 370.925,1176.76 374.881,1176.76 378.837,1176.76 382.793,1176.76 386.748,1176.76 390.704,1176.76 394.66,1176.76 398.616,1176.76 402.571,1176.76 406.527,1176.76 410.483,1176.76 414.439,1176.76 418.394,1176.76 422.35,1176.76 426.306,1176.76 430.262,1176.76 434.217,1176.76 438.173,1176.76 442.129,1176.76 446.085,1176.76 450.04,1176.76 453.996,1176.76 457.952,1176.76 461.908,1176.76 465.863,1176.76 469.819,1176.76 473.775,1176.76 477.731,1176.76 481.686,1176.76 485.642,1176.76 489.598,1176.76 493.554,1176.76 497.509,1176.76 501.465,1176.76 505.421,1176.76 509.377,1176.76 513.332,1176.76 517.288,1176.76 521.244,1176.76 525.2,1176.76 529.155,1176.76 533.111,1176.76 537.067,1176.76 541.023,1176.76 544.978,1176.76 548.934,1176.76 552.89,1176.76 556.846,1176.76 560.801,1176.76 564.757,1176.76 568.713,1176.76 572.669,1176.76 576.624,1176.76 580.58,1176.76 584.536,1176.76 588.492,1176.76 592.447,1176.76 596.403,1176.76 600.359,1176.76 604.315,1176.76 608.27,1176.76 612.226,1176.76 616.182,1176.76 620.138,1176.76 624.093,1176.76 628.049,1176.76 632.005,1176.76 635.961,1176.76 639.916,1176.76 643.872,1176.76 647.828,1176.76 651.784,1176.76 655.739,1176.76 659.695,1176.76 663.651,1176.76 667.607,1176.76 671.562,1176.76 675.518,1176.76 679.474,1176.76 683.43,1176.76 687.385,1176.76 691.341,1176.76 695.297,1176.76 699.253,1176.76 703.208,1176.76 707.164,1176.76 711.12,1176.76 715.076,1176.76 719.031,1176.76 722.987,1176.76 726.943,1176.76 730.899,1176.76 734.854,1176.76 738.81,1176.76 742.766,1176.76 746.722,1176.76 750.677,1176.76 754.633,1176.76 758.589,1176.76 762.545,1176.76 766.5,1176.76 770.456,1176.76 774.412,1176.76 778.368,1176.76 782.323,1176.76 786.279,1176.76 790.235,1176.76 794.191,1176.76 798.146,1176.76 802.102,1176.76 806.058,1176.76 810.014,1176.76 813.969,1176.76 817.925,1176.76 821.881,1176.76 825.837,1176.76 829.792,1176.76 833.748,1176.76 837.704,1176.76 841.66,1176.76 845.615,1176.76 849.571,1176.76 853.527,1176.76 857.483,1176.76 861.438,1176.76 865.394,1176.76 869.35,1176.76 873.306,1176.76 877.261,1176.76 881.217,1176.76 885.173,1176.76 889.129,1176.76 893.084,1176.76 897.04,1176.76 900.996,1176.76 904.952,1176.76 908.907,1176.76 912.863,1176.76 916.819,1176.76 920.775,1176.76 924.73,1176.76 928.686,1176.76 932.642,1176.76 936.598,1176.76 940.553,1176.76 944.509,1176.76 948.465,1176.76 952.421,1176.76 956.376,1176.76 960.332,1176.76 964.288,1176.76 968.244,1176.76 972.199,1176.76 976.155,1176.76 980.111,1176.76 984.067,1176.76 988.022,1176.76 991.978,1176.76 995.934,1176.76 999.89,1176.76 1003.85,1176.76 1007.8,1176.76 1011.76,1176.76 1015.71,1176.76 1019.67,1176.76 1023.62,1176.76 1027.58,1176.76 1031.54,1176.76 1035.49,1176.76 1039.45,1176.76 1043.4,1176.76 1047.36,1176.76 1051.31,1176.76 1055.27,1176.76 1059.23,1176.76 1063.18,1176.76 1067.14,1176.76 1071.09,1176.76 1075.05,1176.76 1079,1176.76 1082.96,1176.76 1086.92,1176.76 1090.87,1176.76 1094.83,1176.76 1098.78,1176.76 1102.74,1176.76 1106.69,1176.76 1110.65,1176.76 1114.61,1176.76 1118.56,1176.76 1122.52,1176.76 1126.47,1176.76 1130.43,1176.76 1134.39,1176.76 1138.34,1176.76 1142.3,1176.76 1146.25,1176.76 1150.21,1176.76 1154.16,1176.76 1158.12,1176.76 1162.08,1176.76 1166.03,1176.76 1169.99,1176.76 1173.94,1176.76 1177.9,1176.76 1181.85,1176.76 1185.81,1176.76 1189.77,1176.76 1193.72,1176.76 1197.68,1176.76 1201.63,1176.76 1205.59,1176.76 1209.54,1176.76 1213.5,1176.76 1217.46,1176.76 1221.41,1176.76 1225.37,1176.76 1229.32,1176.76 1233.28,1176.76 1237.23,1176.76 1241.19,1176.76 1245.15,1176.76 1249.1,1176.76 1253.06,1176.76 1257.01,1176.76 1260.97,1176.76 1264.92,1176.76 1268.88,1176.76 1272.84,1176.76 1276.79,1176.76 1280.75,1176.76 1284.7,1176.76 1288.66,1176.76 1292.62,1176.76 1296.57,1176.76 1300.53,1176.76 1304.48,1176.76 1308.44,1176.76 1312.39,1176.76 1316.35,1176.76 1320.31,1176.76 1324.26,1176.76 1328.22,1176.76 1332.17,1176.76 1336.13,1176.76 1340.08,1176.76 1344.04,1176.76 1348,1176.76 1351.95,1176.76 1355.91,1176.76 1359.86,1176.76 1363.82,1176.76 1367.77,1176.76 1371.73,1176.76 1375.69,1176.76 1379.64,1176.76 1383.6,1176.76 1387.55,1176.76 1391.51,1176.76 1395.46,1176.76 1399.42,1176.76 1403.38,1176.76 1407.33,1176.76 1411.29,1176.76 1415.24,1176.76 1419.2,1176.76 1423.15,1176.76 1427.11,1176.76 1431.07,1176.76 1435.02,1176.76 1438.98,1176.76 1442.93,1176.76 1446.89,1176.76 1450.85,1176.76 1454.8,1176.76 1458.76,1176.76 1462.71,1176.76 1466.67,1176.76 1470.62,1176.76 1474.58,1176.76 1478.54,1176.76 1482.49,1176.76 1486.45,1176.76 1490.4,1176.76 1494.36,1176.76 1498.31,1176.76 1502.27,1176.76 1506.23,1176.76 1510.18,1176.76 1514.14,1176.76 1518.09,1176.76 1522.05,1176.76 1526,1176.76 1529.96,1176.76 1533.92,1176.76 1537.87,1176.76 1541.83,1176.76 1545.78,1176.76 1549.74,1176.76 1553.69,1176.76 1557.65,1176.76 1561.61,1176.76 1565.56,1176.76 1569.52,1176.76 1573.47,1176.76 1577.43,1176.76 1581.38,1176.76 1585.34,1176.76 1589.3,1176.76 1593.25,1176.76 1597.21,1176.76 1601.16,1176.76 1605.12,1176.76 1609.07,1176.76 1613.03,1176.76 1616.99,1176.76 1620.94,1176.76 1624.9,1176.76 1628.85,1176.76 1632.81,1176.76 1636.77,1176.76 1640.72,1176.76 1644.68,1176.76 1648.63,1176.76 1652.59,1176.76 1656.54,1176.76 1660.5,1176.76 1664.46,1176.76 1668.41,1176.76 1672.37,1176.76 1676.32,1176.76 1680.28,1176.76 1684.23,1176.76 1688.19,1176.76 1692.15,1176.76 1696.1,1176.76 1700.06,1176.76 1704.01,1176.76 1707.97,1176.76 1711.92,1176.76 1715.88,1176.76 1719.84,1176.76 1723.79,1176.76 1727.75,1176.76 1731.7,1176.76 1735.66,1176.76 1739.61,1176.76 1743.57,1176.76 1747.53,1176.76 1751.48,1176.76 1755.44,1176.76 1759.39,1176.76 1763.35,1176.76 1767.3,1176.76 1771.26,1176.76 1775.22,1176.76 1779.17,1176.76 1783.13,1176.76 1787.08,1176.76 1791.04,1176.76 1795,1176.76 1798.95,1176.76 1802.91,1176.76 1806.86,1176.76 1810.82,1176.76 1814.77,1176.76 1818.73,1176.76 1822.69,1176.76 1826.64,1176.76 1830.6,1176.76 1834.55,1176.76 1838.51,1176.76 1842.46,1176.76 1846.42,1176.76 1850.38,1176.76 1854.33,1176.76 1858.29,1176.76 1862.24,1176.76 1866.2,1176.76 1870.15,1176.76 1874.11,1176.76 1878.07,1176.76 1882.02,1176.76 1885.98,1176.76 1889.93,1176.76 1893.89,1176.76 1897.84,1176.76 1901.8,1166.12 1905.76,1155.48 1909.71,1144.84 1913.67,1134.2 1917.62,1123.56 1921.58,1112.92 1925.53,1102.28 1929.49,1091.64 1933.45,1081 1937.4,1070.36 1941.36,1059.73 1945.31,1049.09 1949.27,1038.45 1953.23,1027.81 1957.18,1017.17 1961.14,1006.53 1965.09,995.886 1969.05,985.247 1973,974.607 1976.96,963.967 1980.92,953.327 1984.87,942.688 1988.83,932.048 1992.78,921.408 1996.74,910.768 2000.69,900.128 2004.65,889.489 2008.61,878.849 2012.56,868.209 2016.52,857.569 2020.47,846.93 2024.43,836.29 2028.38,825.65 2032.34,815.01 2036.3,804.371 2040.25,793.731 2044.21,783.091 2048.16,772.451 2052.12,761.811 2056.07,751.172 2060.03,740.532 2063.99,729.892 2067.94,719.252 2071.9,708.613 2075.85,697.973 2079.81,687.333 2083.76,676.693 2087.72,666.053 2091.68,655.414 2095.63,644.774 2099.59,634.134 2103.54,623.494 2107.5,612.855 2111.46,602.215 2115.41,591.575 2119.37,580.935 2123.32,570.295 2127.28,559.656 2131.23,549.016 2135.19,538.376 2139.15,527.736 2143.1,517.097 2147.06,506.457 2151.01,495.817 2154.97,485.177 2158.92,474.537 2162.88,463.898 2166.84,453.258 2170.79,442.618 2174.75,431.978 2178.7,421.339 2182.66,410.699 2186.61,400.059 2190.57,389.419 2194.53,378.779 2198.48,368.14 2202.44,357.5 2206.39,346.86 2210.35,336.22 2214.3,325.581 2218.26,314.941 2222.22,304.301 2226.17,293.661 2230.13,283.022 2234.08,272.382 2238.04,261.742 2241.99,251.102 2245.95,240.462 2249.91,229.823 2253.86,219.183 2257.82,208.543 2261.77,197.903 2265.73,187.264 2269.69,176.624 2273.64,165.984 2277.6,155.344 2281.55,144.704 2285.51,134.065 2289.46,123.425 2293.42,112.785 "/>
<polyline clip-path="url(#clip972)" style="stroke:#b3b3b3; stroke-linecap:round; stroke-linejoin:round; stroke-width:12; stroke-opacity:1; fill:none" points="315.545,942.688 319.501,942.688 323.456,942.688 327.412,942.688 331.368,942.688 335.324,942.688 339.279,942.688 343.235,942.688 347.191,942.688 351.147,942.688 355.102,942.688 359.058,942.688 363.014,942.688 366.97,942.688 370.925,942.688 374.881,942.688 378.837,942.688 382.793,942.688 386.748,942.688 390.704,942.688 394.66,942.688 398.616,942.688 402.571,942.688 406.527,942.688 410.483,942.688 414.439,942.688 418.394,942.688 422.35,942.688 426.306,942.688 430.262,942.688 434.217,942.688 438.173,942.688 442.129,942.688 446.085,942.688 450.04,942.688 453.996,942.688 457.952,942.688 461.908,942.688 465.863,942.688 469.819,942.688 473.775,942.688 477.731,942.688 481.686,942.688 485.642,942.688 489.598,942.688 493.554,942.688 497.509,942.688 501.465,942.688 505.421,942.688 509.377,942.688 513.332,942.688 517.288,942.688 521.244,942.688 525.2,942.688 529.155,942.688 533.111,942.688 537.067,942.688 541.023,942.688 544.978,942.688 548.934,942.688 552.89,942.688 556.846,942.688 560.801,942.688 564.757,942.688 568.713,942.688 572.669,942.688 576.624,942.688 580.58,942.688 584.536,942.688 588.492,942.688 592.447,942.688 596.403,942.688 600.359,942.688 604.315,942.688 608.27,942.688 612.226,942.688 616.182,942.688 620.138,942.688 624.093,942.688 628.049,942.688 632.005,942.688 635.961,942.688 639.916,942.688 643.872,942.688 647.828,942.688 651.784,942.688 655.739,942.688 659.695,942.688 663.651,942.688 667.607,942.688 671.562,942.688 675.518,942.688 679.474,942.688 683.43,942.688 687.385,942.688 691.341,942.688 695.297,942.688 699.253,942.688 703.208,942.688 707.164,942.688 711.12,942.688 715.076,942.688 719.031,942.688 722.987,942.688 726.943,942.688 730.899,942.688 734.854,942.688 738.81,942.688 742.766,942.688 746.722,942.688 750.677,942.688 754.633,942.688 758.589,942.688 762.545,942.688 766.5,942.688 770.456,942.688 774.412,942.688 778.368,942.688 782.323,942.688 786.279,942.688 790.235,942.688 794.191,942.688 798.146,942.688 802.102,942.688 806.058,942.688 810.014,942.688 813.969,942.688 817.925,942.688 821.881,942.688 825.837,942.688 829.792,942.688 833.748,942.688 837.704,942.688 841.66,942.688 845.615,942.688 849.571,942.688 853.527,942.688 857.483,942.688 861.438,942.688 865.394,942.688 869.35,942.688 873.306,942.688 877.261,942.688 881.217,942.688 885.173,942.688 889.129,942.688 893.084,942.688 897.04,942.688 900.996,942.688 904.952,942.688 908.907,942.688 912.863,942.688 916.819,942.688 920.775,942.688 924.73,942.688 928.686,942.688 932.642,942.688 936.598,942.688 940.553,942.688 944.509,942.688 948.465,942.688 952.421,942.688 956.376,942.688 960.332,942.688 964.288,942.688 968.244,942.688 972.199,942.688 976.155,942.688 980.111,942.688 984.067,942.688 988.022,942.688 991.978,942.688 995.934,942.688 999.89,942.688 1003.85,942.688 1007.8,942.688 1011.76,942.688 1015.71,942.688 1019.67,942.688 1023.62,942.688 1027.58,942.688 1031.54,942.688 1035.49,942.688 1039.45,942.688 1043.4,942.688 1047.36,942.688 1051.31,942.688 1055.27,942.688 1059.23,942.688 1063.18,942.688 1067.14,942.688 1071.09,942.688 1075.05,942.688 1079,942.688 1082.96,942.688 1086.92,942.688 1090.87,942.688 1094.83,942.688 1098.78,942.688 1102.74,942.688 1106.69,942.688 1110.65,942.688 1114.61,942.688 1118.56,942.688 1122.52,942.688 1126.47,942.688 1130.43,942.688 1134.39,942.688 1138.34,942.688 1142.3,942.688 1146.25,942.688 1150.21,942.688 1154.16,942.688 1158.12,942.688 1162.08,942.688 1166.03,942.688 1169.99,942.688 1173.94,942.688 1177.9,942.688 1181.85,942.688 1185.81,942.688 1189.77,942.688 1193.72,942.688 1197.68,942.688 1201.63,942.688 1205.59,942.688 1209.54,942.688 1213.5,942.688 1217.46,942.688 1221.41,942.688 1225.37,942.688 1229.32,942.688 1233.28,942.688 1237.23,942.688 1241.19,942.688 1245.15,942.688 1249.1,942.688 1253.06,942.688 1257.01,942.688 1260.97,942.688 1264.92,942.688 1268.88,942.688 1272.84,942.688 1276.79,942.688 1280.75,942.688 1284.7,942.688 1288.66,942.688 1292.62,942.688 1296.57,942.688 1300.53,942.688 1304.48,942.688 1308.44,942.688 1312.39,942.688 1316.35,942.688 1320.31,942.688 1324.26,942.688 1328.22,942.688 1332.17,942.688 1336.13,942.688 1340.08,942.688 1344.04,942.688 1348,942.688 1351.95,942.688 1355.91,942.688 1359.86,942.688 1363.82,942.688 1367.77,942.688 1371.73,942.688 1375.69,942.688 1379.64,942.688 1383.6,942.688 1387.55,942.688 1391.51,942.688 1395.46,942.688 1399.42,942.688 1403.38,942.688 1407.33,942.688 1411.29,942.688 1415.24,942.688 1419.2,942.688 1423.15,942.688 1427.11,942.688 1431.07,942.688 1435.02,942.688 1438.98,942.688 1442.93,942.688 1446.89,942.688 1450.85,942.688 1454.8,942.688 1458.76,942.688 1462.71,942.688 1466.67,942.688 1470.62,942.688 1474.58,942.688 1478.54,942.688 1482.49,942.688 1486.45,942.688 1490.4,942.688 1494.36,942.688 1498.31,942.688 1502.27,942.688 1506.23,942.688 1510.18,942.688 1514.14,942.688 1518.09,942.688 1522.05,942.688 1526,942.688 1529.96,942.688 1533.92,942.688 1537.87,942.688 1541.83,942.688 1545.78,942.688 1549.74,942.688 1553.69,942.688 1557.65,942.688 1561.61,942.688 1565.56,942.688 1569.52,942.688 1573.47,942.688 1577.43,942.688 1581.38,942.688 1585.34,942.688 1589.3,942.688 1593.25,942.688 1597.21,942.688 1601.16,942.688 1605.12,942.688 1609.07,942.688 1613.03,942.688 1616.99,942.688 1620.94,942.688 1624.9,942.688 1628.85,942.688 1632.81,942.688 1636.77,942.688 1640.72,942.688 1644.68,942.688 1648.63,942.688 1652.59,942.688 1656.54,942.688 1660.5,942.688 1664.46,942.688 1668.41,942.688 1672.37,942.688 1676.32,942.688 1680.28,942.688 1684.23,942.688 1688.19,942.688 1692.15,942.688 1696.1,942.688 1700.06,942.688 1704.01,942.688 1707.97,942.688 1711.92,942.688 1715.88,942.688 1719.84,942.688 1723.79,942.688 1727.75,942.688 1731.7,942.688 1735.66,942.688 1739.61,942.688 1743.57,942.688 1747.53,942.688 1751.48,942.688 1755.44,942.688 1759.39,942.688 1763.35,942.688 1767.3,942.688 1771.26,942.688 1775.22,942.688 1779.17,942.688 1783.13,942.688 1787.08,942.688 1791.04,942.688 1795,942.688 1798.95,942.688 1802.91,942.688 1806.86,942.688 1810.82,942.688 1814.77,942.688 1818.73,942.688 1822.69,942.688 1826.64,942.688 1830.6,942.688 1834.55,942.688 1838.51,942.688 1842.46,942.688 1846.42,942.688 1850.38,942.688 1854.33,942.688 1858.29,942.688 1862.24,942.688 1866.2,942.688 1870.15,942.688 1874.11,942.688 1878.07,942.688 1882.02,942.688 1885.98,942.688 1889.93,942.688 1893.89,942.688 1897.84,942.688 1901.8,942.688 1905.76,942.688 1909.71,942.688 1913.67,942.688 1917.62,942.688 1921.58,942.688 1925.53,942.688 1929.49,942.688 1933.45,942.688 1937.4,942.688 1941.36,942.688 1945.31,942.688 1949.27,942.688 1953.23,942.688 1957.18,942.688 1961.14,942.688 1965.09,942.688 1969.05,942.688 1973,942.688 1976.96,942.688 1980.92,942.688 1984.87,942.688 1988.83,942.688 1992.78,942.688 1996.74,942.688 2000.69,942.688 2004.65,942.688 2008.61,942.688 2012.56,942.688 2016.52,942.688 2020.47,942.688 2024.43,942.688 2028.38,942.688 2032.34,942.688 2036.3,942.688 2040.25,942.688 2044.21,942.688 2048.16,942.688 2052.12,942.688 2056.07,942.688 2060.03,942.688 2063.99,942.688 2067.94,942.688 2071.9,942.688 2075.85,942.688 2079.81,942.688 2083.76,942.688 2087.72,942.688 2091.68,942.688 2095.63,942.688 2099.59,942.688 2103.54,942.688 2107.5,942.688 2111.46,942.688 2115.41,942.688 2119.37,942.688 2123.32,942.688 2127.28,942.688 2131.23,942.688 2135.19,942.688 2139.15,942.688 2143.1,942.688 2147.06,942.688 2151.01,942.688 2154.97,942.688 2158.92,942.688 2162.88,942.688 2166.84,942.688 2170.79,942.688 2174.75,942.688 2178.7,942.688 2182.66,942.688 2186.61,942.688 2190.57,942.688 2194.53,942.688 2198.48,942.688 2202.44,942.688 2206.39,942.688 2210.35,942.688 2214.3,942.688 2218.26,942.688 2222.22,942.688 2226.17,942.688 2230.13,942.688 2234.08,942.688 2238.04,942.688 2241.99,942.688 2245.95,942.688 2249.91,942.688 2253.86,942.688 2257.82,942.688 2261.77,942.688 2265.73,942.688 2269.69,942.688 2273.64,942.688 2277.6,942.688 2281.55,942.688 2285.51,942.688 2289.46,942.688 2293.42,942.688 "/>
<circle clip-path="url(#clip972)" cx="2062.01" cy="942.688" r="18" fill="#ffffff" fill-rule="evenodd" fill-opacity="1" stroke="#000000" stroke-opacity="1" stroke-width="3.2"/>
<circle clip-path="url(#clip972)" cx="546.956" cy="942.688" r="18" fill="#ffffff" fill-rule="evenodd" fill-opacity="1" stroke="#000000" stroke-opacity="1" stroke-width="3.2"/>
<path clip-path="url(#clip970)" d="M1078.3 352.309 L1530.66 352.309 L1530.66 93.1086 L1078.3 93.1086  Z" fill="#eee9e9" fill-rule="evenodd" fill-opacity="1"/>
<polyline clip-path="url(#clip970)" style="stroke:#000000; stroke-linecap:round; stroke-linejoin:round; stroke-width:4; stroke-opacity:0; fill:none" points="1078.3,352.309 1530.66,352.309 1530.66,93.1086 1078.3,93.1086 1078.3,352.309 "/>
<polyline clip-path="url(#clip970)" style="stroke:#000000; stroke-linecap:round; stroke-linejoin:round; stroke-width:16; stroke-opacity:1; fill:none" points="1101.6,144.949 1241.37,144.949 "/>
<path clip-path="url(#clip970)" d="M1269.34 131.511 L1269.34 144.497 L1275.22 144.497 Q1278.48 144.497 1280.26 142.807 Q1282.05 141.118 1282.05 137.993 Q1282.05 134.891 1280.26 133.201 Q1278.48 131.511 1275.22 131.511 L1269.34 131.511 M1264.66 127.669 L1275.22 127.669 Q1281.03 127.669 1283.99 130.307 Q1286.98 132.923 1286.98 137.993 Q1286.98 143.108 1283.99 145.724 Q1281.03 148.34 1275.22 148.34 L1269.34 148.34 L1269.34 162.229 L1264.66 162.229 L1264.66 127.669 Z" fill="#000000" fill-rule="nonzero" fill-opacity="1" /><path clip-path="url(#clip970)" d="M1307.25 140.284 Q1306.54 139.868 1305.68 139.682 Q1304.85 139.474 1303.83 139.474 Q1300.22 139.474 1298.27 141.835 Q1296.35 144.173 1296.35 148.571 L1296.35 162.229 L1292.07 162.229 L1292.07 136.303 L1296.35 136.303 L1296.35 140.331 Q1297.69 137.969 1299.85 136.835 Q1302 135.678 1305.08 135.678 Q1305.52 135.678 1306.05 135.747 Q1306.58 135.794 1307.23 135.909 L1307.25 140.284 Z" fill="#000000" fill-rule="nonzero" fill-opacity="1" /><path clip-path="url(#clip970)" d="M1320.73 139.289 Q1317.3 139.289 1315.31 141.974 Q1313.32 144.636 1313.32 149.289 Q1313.32 153.942 1315.29 156.627 Q1317.28 159.289 1320.73 159.289 Q1324.13 159.289 1326.12 156.604 Q1328.11 153.918 1328.11 149.289 Q1328.11 144.682 1326.12 141.997 Q1324.13 139.289 1320.73 139.289 M1320.73 135.678 Q1326.28 135.678 1329.45 139.289 Q1332.62 142.9 1332.62 149.289 Q1332.62 155.655 1329.45 159.289 Q1326.28 162.9 1320.73 162.9 Q1315.15 162.9 1311.98 159.289 Q1308.83 155.655 1308.83 149.289 Q1308.83 142.9 1311.98 139.289 Q1315.15 135.678 1320.73 135.678 Z" fill="#000000" fill-rule="nonzero" fill-opacity="1" /><path clip-path="url(#clip970)" d="M1352.81 126.21 L1352.81 129.752 L1348.73 129.752 Q1346.44 129.752 1345.54 130.678 Q1344.66 131.604 1344.66 134.011 L1344.66 136.303 L1351.67 136.303 L1351.67 139.613 L1344.66 139.613 L1344.66 162.229 L1340.38 162.229 L1340.38 139.613 L1336.3 139.613 L1336.3 136.303 L1340.38 136.303 L1340.38 134.497 Q1340.38 130.169 1342.39 128.201 Q1344.41 126.21 1348.78 126.21 L1352.81 126.21 Z" fill="#000000" fill-rule="nonzero" fill-opacity="1" /><path clip-path="url(#clip970)" d="M1356.37 136.303 L1360.63 136.303 L1360.63 162.229 L1356.37 162.229 L1356.37 136.303 M1356.37 126.21 L1360.63 126.21 L1360.63 131.604 L1356.37 131.604 L1356.37 126.21 Z" fill="#000000" fill-rule="nonzero" fill-opacity="1" /><path clip-path="url(#clip970)" d="M1373.76 128.942 L1373.76 136.303 L1382.53 136.303 L1382.53 139.613 L1373.76 139.613 L1373.76 153.687 Q1373.76 156.858 1374.61 157.761 Q1375.49 158.664 1378.16 158.664 L1382.53 158.664 L1382.53 162.229 L1378.16 162.229 Q1373.23 162.229 1371.35 160.4 Q1369.48 158.548 1369.48 153.687 L1369.48 139.613 L1366.35 139.613 L1366.35 136.303 L1369.48 136.303 L1369.48 128.942 L1373.76 128.942 Z" fill="#000000" fill-rule="nonzero" fill-opacity="1" /><polyline clip-path="url(#clip970)" style="stroke:#ff0000; stroke-linecap:round; stroke-linejoin:round; stroke-width:4; stroke-opacity:1; fill:none" stroke-dasharray="16, 10" points="1101.6,196.789 1241.37,196.789 "/>
<path clip-path="url(#clip970)" d="M1269.34 183.351 L1269.34 196.337 L1275.22 196.337 Q1278.48 196.337 1280.26 194.647 Q1282.05 192.958 1282.05 189.833 Q1282.05 186.731 1280.26 185.041 Q1278.48 183.351 1275.22 183.351 L1269.34 183.351 M1264.66 179.509 L1275.22 179.509 Q1281.03 179.509 1283.99 182.147 Q1286.98 184.763 1286.98 189.833 Q1286.98 194.948 1283.99 197.564 Q1281.03 200.18 1275.22 200.18 L1269.34 200.18 L1269.34 214.069 L1264.66 214.069 L1264.66 179.509 Z" fill="#000000" fill-rule="nonzero" fill-opacity="1" /><path clip-path="url(#clip970)" d="M1291.79 203.837 L1291.79 188.143 L1296.05 188.143 L1296.05 203.675 Q1296.05 207.356 1297.49 209.208 Q1298.92 211.036 1301.79 211.036 Q1305.24 211.036 1307.23 208.837 Q1309.24 206.638 1309.24 202.842 L1309.24 188.143 L1313.5 188.143 L1313.5 214.069 L1309.24 214.069 L1309.24 210.087 Q1307.69 212.448 1305.63 213.606 Q1303.6 214.74 1300.89 214.74 Q1296.42 214.74 1294.11 211.962 Q1291.79 209.184 1291.79 203.837 M1302.51 187.518 L1302.51 187.518 Z" fill="#000000" fill-rule="nonzero" fill-opacity="1" /><path clip-path="url(#clip970)" d="M1326.49 180.782 L1326.49 188.143 L1335.26 188.143 L1335.26 191.453 L1326.49 191.453 L1326.49 205.527 Q1326.49 208.698 1327.35 209.601 Q1328.23 210.504 1330.89 210.504 L1335.26 210.504 L1335.26 214.069 L1330.89 214.069 Q1325.96 214.069 1324.08 212.24 Q1322.21 210.388 1322.21 205.527 L1322.21 191.453 L1319.08 191.453 L1319.08 188.143 L1322.21 188.143 L1322.21 180.782 L1326.49 180.782 Z" fill="#000000" fill-rule="nonzero" fill-opacity="1" /><polyline clip-path="url(#clip970)" style="stroke:#0000ff; stroke-linecap:round; stroke-linejoin:round; stroke-width:4; stroke-opacity:1; fill:none" stroke-dasharray="16, 10" points="1101.6,248.629 1241.37,248.629 "/>
<path clip-path="url(#clip970)" d="M1292.53 234.011 L1292.53 238.941 Q1290.17 236.742 1287.49 235.654 Q1284.82 234.566 1281.81 234.566 Q1275.89 234.566 1272.74 238.2 Q1269.59 241.812 1269.59 248.663 Q1269.59 255.492 1272.74 259.126 Q1275.89 262.737 1281.81 262.737 Q1284.82 262.737 1287.49 261.649 Q1290.17 260.561 1292.53 258.362 L1292.53 263.247 Q1290.08 264.913 1287.32 265.747 Q1284.59 266.58 1281.54 266.58 Q1273.69 266.58 1269.18 261.788 Q1264.66 256.973 1264.66 248.663 Q1264.66 240.33 1269.18 235.538 Q1273.69 230.724 1281.54 230.724 Q1284.64 230.724 1287.37 231.557 Q1290.12 232.367 1292.53 234.011 Z" fill="#000000" fill-rule="nonzero" fill-opacity="1" /><path clip-path="url(#clip970)" d="M1311.35 252.876 Q1306.19 252.876 1304.2 254.057 Q1302.21 255.237 1302.21 258.085 Q1302.21 260.353 1303.69 261.696 Q1305.19 263.015 1307.76 263.015 Q1311.3 263.015 1313.43 260.515 Q1315.59 257.992 1315.59 253.825 L1315.59 252.876 L1311.35 252.876 M1319.85 251.117 L1319.85 265.909 L1315.59 265.909 L1315.59 261.973 Q1314.13 264.335 1311.95 265.469 Q1309.78 266.58 1306.63 266.58 Q1302.65 266.58 1300.29 264.358 Q1297.95 262.112 1297.95 258.362 Q1297.95 253.987 1300.86 251.765 Q1303.8 249.543 1309.61 249.543 L1315.59 249.543 L1315.59 249.126 Q1315.59 246.187 1313.64 244.589 Q1311.72 242.969 1308.23 242.969 Q1306 242.969 1303.9 243.501 Q1301.79 244.034 1299.85 245.099 L1299.85 241.163 Q1302.18 240.261 1304.38 239.821 Q1306.58 239.358 1308.67 239.358 Q1314.29 239.358 1317.07 242.274 Q1319.85 245.191 1319.85 251.117 Z" fill="#000000" fill-rule="nonzero" fill-opacity="1" /><path clip-path="url(#clip970)" d="M1328.62 229.89 L1332.88 229.89 L1332.88 265.909 L1328.62 265.909 L1328.62 229.89 Z" fill="#000000" fill-rule="nonzero" fill-opacity="1" /><path clip-path="url(#clip970)" d="M1341.79 229.89 L1346.05 229.89 L1346.05 265.909 L1341.79 265.909 L1341.79 229.89 Z" fill="#000000" fill-rule="nonzero" fill-opacity="1" /><circle clip-path="url(#clip970)" cx="1171.48" cy="300.469" r="20.9455" fill="#ffffff" fill-rule="evenodd" fill-opacity="1" stroke="#000000" stroke-opacity="1" stroke-width="3.72364"/>
<path clip-path="url(#clip970)" d="M1269.34 301.244 L1269.34 313.906 L1276.84 313.906 Q1280.61 313.906 1282.42 312.355 Q1284.24 310.781 1284.24 307.563 Q1284.24 304.323 1282.42 302.795 Q1280.61 301.244 1276.84 301.244 L1269.34 301.244 M1269.34 287.031 L1269.34 297.448 L1276.26 297.448 Q1279.68 297.448 1281.35 296.175 Q1283.04 294.878 1283.04 292.239 Q1283.04 289.624 1281.35 288.327 Q1279.68 287.031 1276.26 287.031 L1269.34 287.031 M1264.66 283.189 L1276.61 283.189 Q1281.95 283.189 1284.85 285.411 Q1287.74 287.633 1287.74 291.73 Q1287.74 294.902 1286.26 296.777 Q1284.78 298.651 1281.91 299.114 Q1285.36 299.855 1287.25 302.216 Q1289.17 304.554 1289.17 308.073 Q1289.17 312.702 1286.03 315.225 Q1282.88 317.749 1277.07 317.749 L1264.66 317.749 L1264.66 283.189 Z" fill="#000000" fill-rule="nonzero" fill-opacity="1" /><path clip-path="url(#clip970)" d="M1312.02 295.804 Q1311.3 295.388 1310.45 295.202 Q1309.61 294.994 1308.6 294.994 Q1304.99 294.994 1303.04 297.355 Q1301.12 299.693 1301.12 304.091 L1301.12 317.749 L1296.84 317.749 L1296.84 291.823 L1301.12 291.823 L1301.12 295.851 Q1302.46 293.489 1304.61 292.355 Q1306.77 291.198 1309.85 291.198 Q1310.29 291.198 1310.82 291.267 Q1311.35 291.314 1312 291.429 L1312.02 295.804 Z" fill="#000000" fill-rule="nonzero" fill-opacity="1" /><path clip-path="url(#clip970)" d="M1337.62 303.721 L1337.62 305.804 L1318.04 305.804 Q1318.32 310.202 1320.68 312.517 Q1323.06 314.809 1327.3 314.809 Q1329.75 314.809 1332.05 314.207 Q1334.36 313.605 1336.63 312.401 L1336.63 316.429 Q1334.34 317.401 1331.93 317.911 Q1329.52 318.42 1327.05 318.42 Q1320.84 318.42 1317.21 314.809 Q1313.6 311.198 1313.6 305.04 Q1313.6 298.675 1317.02 294.948 Q1320.47 291.198 1326.3 291.198 Q1331.54 291.198 1334.57 294.577 Q1337.62 297.934 1337.62 303.721 M1333.36 302.471 Q1333.32 298.976 1331.4 296.892 Q1329.5 294.809 1326.35 294.809 Q1322.79 294.809 1320.63 296.823 Q1318.5 298.837 1318.18 302.494 L1333.36 302.471 Z" fill="#000000" fill-rule="nonzero" fill-opacity="1" /><path clip-path="url(#clip970)" d="M1356.4 304.716 Q1351.23 304.716 1349.24 305.897 Q1347.25 307.077 1347.25 309.925 Q1347.25 312.193 1348.73 313.536 Q1350.24 314.855 1352.81 314.855 Q1356.35 314.855 1358.48 312.355 Q1360.63 309.832 1360.63 305.665 L1360.63 304.716 L1356.4 304.716 M1364.89 302.957 L1364.89 317.749 L1360.63 317.749 L1360.63 313.813 Q1359.17 316.175 1357 317.309 Q1354.82 318.42 1351.67 318.42 Q1347.69 318.42 1345.33 316.198 Q1342.99 313.952 1342.99 310.202 Q1342.99 305.827 1345.91 303.605 Q1348.85 301.383 1354.66 301.383 L1360.63 301.383 L1360.63 300.966 Q1360.63 298.027 1358.69 296.429 Q1356.77 294.809 1353.27 294.809 Q1351.05 294.809 1348.94 295.341 Q1346.84 295.874 1344.89 296.939 L1344.89 293.003 Q1347.23 292.101 1349.43 291.661 Q1351.63 291.198 1353.71 291.198 Q1359.34 291.198 1362.11 294.114 Q1364.89 297.031 1364.89 302.957 Z" fill="#000000" fill-rule="nonzero" fill-opacity="1" /><path clip-path="url(#clip970)" d="M1373.5 281.73 L1377.79 281.73 L1377.79 303.003 L1390.49 291.823 L1395.93 291.823 L1382.18 303.952 L1396.51 317.749 L1390.96 317.749 L1377.79 305.087 L1377.79 317.749 L1373.5 317.749 L1373.5 281.73 Z" fill="#000000" fill-rule="nonzero" fill-opacity="1" /><path clip-path="url(#clip970)" d="M1421.6 303.721 L1421.6 305.804 L1402.02 305.804 Q1402.3 310.202 1404.66 312.517 Q1407.04 314.809 1411.28 314.809 Q1413.73 314.809 1416.03 314.207 Q1418.34 313.605 1420.61 312.401 L1420.61 316.429 Q1418.32 317.401 1415.91 317.911 Q1413.5 318.42 1411.03 318.42 Q1404.82 318.42 1401.19 314.809 Q1397.58 311.198 1397.58 305.04 Q1397.58 298.675 1401 294.948 Q1404.45 291.198 1410.29 291.198 Q1415.52 291.198 1418.55 294.577 Q1421.6 297.934 1421.6 303.721 M1417.35 302.471 Q1417.3 298.976 1415.38 296.892 Q1413.48 294.809 1410.33 294.809 Q1406.77 294.809 1404.61 296.823 Q1402.48 298.837 1402.16 302.494 L1417.35 302.471 Z" fill="#000000" fill-rule="nonzero" fill-opacity="1" /><path clip-path="url(#clip970)" d="M1425.54 291.823 L1430.05 291.823 L1438.16 313.582 L1446.26 291.823 L1450.77 291.823 L1441.05 317.749 L1435.26 317.749 L1425.54 291.823 Z" fill="#000000" fill-rule="nonzero" fill-opacity="1" /><path clip-path="url(#clip970)" d="M1478.83 303.721 L1478.83 305.804 L1459.24 305.804 Q1459.52 310.202 1461.88 312.517 Q1464.27 314.809 1468.5 314.809 Q1470.96 314.809 1473.25 314.207 Q1475.56 313.605 1477.83 312.401 L1477.83 316.429 Q1475.54 317.401 1473.13 317.911 Q1470.72 318.42 1468.25 318.42 Q1462.04 318.42 1458.41 314.809 Q1454.8 311.198 1454.8 305.04 Q1454.8 298.675 1458.22 294.948 Q1461.67 291.198 1467.51 291.198 Q1472.74 291.198 1475.77 294.577 Q1478.83 297.934 1478.83 303.721 M1474.57 302.471 Q1474.52 298.976 1472.6 296.892 Q1470.7 294.809 1467.55 294.809 Q1463.99 294.809 1461.84 296.823 Q1459.71 298.837 1459.38 302.494 L1474.57 302.471 Z" fill="#000000" fill-rule="nonzero" fill-opacity="1" /><path clip-path="url(#clip970)" d="M1507.37 302.101 L1507.37 317.749 L1503.11 317.749 L1503.11 302.239 Q1503.11 298.559 1501.67 296.73 Q1500.24 294.902 1497.37 294.902 Q1493.92 294.902 1491.93 297.101 Q1489.94 299.3 1489.94 303.096 L1489.94 317.749 L1485.66 317.749 L1485.66 291.823 L1489.94 291.823 L1489.94 295.851 Q1491.47 293.513 1493.53 292.355 Q1495.61 291.198 1498.32 291.198 Q1502.78 291.198 1505.08 293.976 Q1507.37 296.73 1507.37 302.101 Z" fill="#000000" fill-rule="nonzero" fill-opacity="1" /></svg>
