<?xml version="1.0" encoding="UTF-8"?>
<svg width="164px" height="164px" viewBox="0 0 164 164" version="1.1" xmlns="http://www.w3.org/2000/svg" xmlns:xlink="http://www.w3.org/1999/xlink">
    <title>cornell_seal_simple_black</title>
    <g id="Page-1" stroke="none" stroke-width="1" fill="none" fill-rule="evenodd">
        <g id="cornell_seal_simple_black" fill="#000000" fill-rule="nonzero">
            <path d="M62.738255,125.614094 C72.0939597,132.90604 81.3120805,136.895973 81.7248322,137.033557 L82.4127517,137.308725 L83.1006711,137.033557 C83.5134228,136.895973 92.5939597,132.90604 101.949664,125.614094 C114.469799,115.845638 121.073826,104.701342 121.073826,93.2818792 L121.073826,41.5503356 L43.4765101,41.5503356 L43.4765101,92.4563758 C43.4765101,104.151007 50.0805369,115.708054 62.738255,125.614094 Z M80.4865772,109.654362 C80.0738255,109.516779 79.6610738,109.379195 79.1107383,109.379195 C79.1107383,109.379195 79.1107383,109.379195 78.9731544,109.379195 C77.0469799,109.379195 75.6711409,109.516779 74.1577181,109.654362 C72.6442953,109.791946 71.1308725,109.92953 68.9295302,109.92953 C67.966443,109.92953 67.0033557,109.92953 66.3154362,109.92953 L66.3154362,85.7147651 C66.4530201,85.7147651 66.590604,85.7147651 66.590604,85.7147651 C67.5536913,85.7147651 68.6543624,85.7147651 70.1677852,85.7147651 C71.4060403,85.7147651 72.7818792,85.5771812 74.295302,85.4395973 C75.1208054,85.3020134 76.0838926,85.3020134 77.0469799,85.1644295 C78.6979866,85.0268456 80.0738255,85.3020134 80.0738255,85.3020134 C80.2114094,85.3020134 80.3489933,85.4395973 80.4865772,85.4395973 C80.4865772,85.3020134 80.4865772,109.654362 80.4865772,109.654362 Z M117.35906,93.2818792 C117.35906,114.469799 91.3557047,128.778523 83.6510067,132.630872 L83.6510067,113.369128 C83.7885906,113.231544 83.9261745,113.09396 84.0637584,112.956376 C84.4765101,112.543624 84.7516779,112.268456 85.4395973,112.268456 C87.2281879,112.268456 88.6040268,112.40604 90.1174497,112.543624 C91.6308725,112.681208 93.1442953,112.818792 95.4832215,112.818792 C97.8221477,112.818792 99.6107383,112.818792 99.6107383,112.818792 L100.848993,112.818792 L100.848993,105.66443 L103.875839,105.66443 L103.875839,101.812081 L100.848993,101.812081 L100.848993,94.795302 L103.875839,94.795302 L103.875839,90.942953 L100.848993,90.942953 L100.848993,83.1006711 L99.4731544,83.1006711 C98.9228188,83.1006711 98.3724832,83.1006711 97.6845638,83.1006711 C96.7214765,83.1006711 95.6208054,83.1006711 94.2449664,83.1006711 C93.1442953,83.1006711 91.9060403,82.9630872 90.3926174,82.8255034 C89.5671141,82.6879195 88.6040268,82.6879195 87.6409396,82.5503356 C85.5771812,82.2751678 83.7885906,82.6879195 83.6510067,82.6879195 C83.6510067,82.6879195 83.6510067,82.6879195 83.5134228,82.6879195 L83.5134228,75.1208054 L117.221477,75.1208054 L117.35906,93.2818792 Z M83.6510067,109.791946 L83.6510067,85.4395973 C83.7885906,85.3020134 84.0637584,85.3020134 84.3389262,85.1644295 C84.3389262,85.1644295 85.852349,84.8892617 87.5033557,85.0268456 C88.466443,85.1644295 89.4295302,85.1644295 90.2550336,85.3020134 C91.7684564,85.4395973 93.1442953,85.5771812 94.3825503,85.5771812 C95.6208054,85.5771812 96.5838926,85.5771812 97.5469799,85.5771812 C97.8221477,85.5771812 98.0973154,85.5771812 98.2348993,85.5771812 L98.2348993,109.92953 C97.5469799,109.92953 96.5838926,109.92953 95.6208054,109.92953 C93.4194631,109.92953 91.9060403,109.791946 90.3926174,109.654362 C88.8791946,109.516779 87.5033557,109.379195 85.5771812,109.379195 C84.7516779,109.516779 84.2013423,109.654362 83.6510067,109.791946 Z M47.1912752,45.2651007 L117.35906,45.2651007 L117.35906,71.5436242 L47.1912752,71.5436242 L47.1912752,45.2651007 Z M47.1912752,75.1208054 L80.6241611,75.1208054 L80.6241611,82.4127517 C80.0738255,82.2751678 78.5604027,82.1375839 76.909396,82.2751678 C75.9463087,82.4127517 74.9832215,82.4127517 74.1577181,82.5503356 C72.6442953,82.6879195 71.4060403,82.8255034 70.3053691,82.8255034 C68.9295302,82.8255034 67.8288591,82.8255034 66.8657718,82.8255034 C66.1778523,82.8255034 65.6275168,82.8255034 65.0771812,82.8255034 L63.7013423,82.8255034 L63.7013423,89.8422819 L60.3993289,89.8422819 L60.3993289,93.6946309 L63.7013423,93.6946309 L63.7013423,100.711409 L60.3993289,100.711409 L60.3993289,104.563758 L63.7013423,104.563758 L63.7013423,112.40604 L64.9395973,112.40604 C65.0771812,112.40604 66.8657718,112.543624 69.0671141,112.40604 C71.4060403,112.40604 73.057047,112.268456 74.4328859,112.130872 C75.9463087,111.993289 77.1845638,111.855705 78.9731544,111.855705 C79.6610738,111.855705 79.9362416,112.130872 80.2114094,112.543624 C80.2114094,112.543624 80.3489933,112.681208 80.3489933,112.681208 L80.3489933,132.080537 C72.5067114,128.503356 47.1912752,114.332215 47.1912752,92.4563758 L47.1912752,75.1208054 Z" id="Shape"></path>
            <path d="M76.4966443,47.8791946 L56.8221477,47.8791946 L56.8221477,49.2550336 C56.8221477,53.5201342 56.8221477,60.8120805 56.8221477,61.0872483 C56.9597315,62.6006711 57.9228188,63.9765101 59.8489933,65.2147651 C62.1879195,66.8657718 65.7651007,68.9295302 65.9026846,68.9295302 L66.590604,69.3422819 L67.2785235,68.9295302 C67.4161074,68.7919463 71.2684564,66.7281879 73.6073826,65.2147651 C76.3590604,63.4261745 76.4966443,61.6375839 76.4966443,61.0872483 C76.4966443,60.8120805 76.4966443,54.4832215 76.4966443,49.2550336 L76.4966443,47.8791946 L76.4966443,47.8791946 Z M59.5738255,50.6308725 L73.6073826,50.6308725 C73.6073826,51.7315436 73.6073826,52.9697987 73.6073826,54.2080537 L59.5738255,54.2080537 C59.5738255,52.9697987 59.5738255,51.7315436 59.5738255,50.6308725 Z M73.7449664,60.9496644 C73.7449664,61.6375839 72.7818792,62.3255034 72.0939597,62.8758389 C70.442953,63.9765101 67.8288591,65.4899329 66.590604,66.1778523 C65.4899329,65.4899329 63.0134228,64.114094 61.3624161,62.8758389 C60.261745,62.1879195 59.5738255,61.3624161 59.5738255,60.8120805 C59.5738255,60.6744966 59.5738255,59.0234899 59.5738255,56.8221477 L73.6073826,56.8221477 C73.7449664,59.0234899 73.7449664,60.6744966 73.7449664,60.9496644 Z" id="Shape"></path>
            <path d="M109.791946,47.3288591 L89.8422819,47.3288591 L89.8422819,48.704698 C89.8422819,54.0704698 89.8422819,60.5369128 89.8422819,60.9496644 C89.9798658,62.4630872 90.942953,63.8389262 92.8691275,65.0771812 C95.3456376,66.7281879 98.9228188,68.7919463 99.0604027,68.9295302 L99.7483221,69.3422819 L100.436242,68.9295302 C100.573826,68.7919463 104.563758,66.7281879 106.902685,65.0771812 C109.791946,63.1510067 109.791946,61.5 109.791946,60.9496644 C109.791946,60.6744966 109.791946,54.2080537 109.791946,48.8422819 L109.791946,47.3288591 Z M107.040268,60.6744966 C107.040268,61.3624161 106.077181,62.1879195 105.389262,62.6006711 C103.600671,63.7013423 100.986577,65.2147651 99.7483221,65.9026846 C98.5100671,65.2147651 96.1711409,63.7013423 94.3825503,62.6006711 C93.8322148,62.1879195 92.5939597,61.3624161 92.5939597,60.5369128 C92.5939597,60.3993289 92.5939597,60.261745 92.5939597,59.8489933 L99.4731544,54.8959732 L107.040268,59.9865772 C107.040268,60.3993289 107.040268,60.6744966 107.040268,60.6744966 Z M99.4731544,51.4563758 L92.5939597,56.409396 C92.5939597,54.4832215 92.5939597,52.0067114 92.5939597,49.942953 L107.177852,49.942953 C107.177852,52.1442953 107.177852,54.4832215 107.177852,56.5469799 L99.4731544,51.4563758 Z" id="Shape"></path>
            <path d="M87.2281879,90.942953 L88.6040268,91.0805369 C89.4295302,91.2181208 90.2550336,91.2181208 90.942953,91.2181208 L94.9328859,91.3557047 L94.9328859,88.6040268 L90.942953,88.466443 C90.3926174,88.466443 89.704698,88.3288591 88.8791946,88.3288591 L87.5033557,88.1912752 C87.090604,88.1912752 86.8154362,88.1912752 86.5402685,88.1912752 L86.6778523,90.942953 C86.8154362,90.8053691 87.090604,90.8053691 87.2281879,90.942953 Z" id="Path"></path>
            <path d="M90.942953,96.033557 C90.3926174,96.033557 89.704698,95.8959732 88.8791946,95.8959732 C88.466443,95.8959732 87.9161074,95.7583893 87.5033557,95.7583893 C87.090604,95.7583893 86.8154362,95.7583893 86.5402685,95.7583893 L86.5402685,98.5100671 C86.6778523,98.5100671 86.9530201,98.5100671 87.2281879,98.5100671 C87.7785235,98.5100671 88.1912752,98.647651 88.6040268,98.647651 C89.4295302,98.7852349 90.1174497,98.7852349 90.8053691,98.7852349 C91.6308725,98.7852349 92.8691275,98.7852349 93.8322148,98.7852349 L94.9328859,98.7852349 L94.9328859,96.033557 L93.8322148,96.033557 C93.0067114,96.1711409 91.7684564,96.033557 90.942953,96.033557 Z" id="Path"></path>
            <path d="M90.942953,103.738255 C90.3926174,103.738255 89.704698,103.600671 88.8791946,103.600671 C88.466443,103.600671 87.9161074,103.463087 87.5033557,103.463087 C87.090604,103.463087 86.8154362,103.463087 86.5402685,103.463087 L86.6778523,106.214765 C86.8154362,106.214765 87.090604,106.214765 87.3657718,106.214765 C87.9161074,106.214765 88.3288591,106.352349 88.7416107,106.352349 C89.5671141,106.489933 90.3926174,106.489933 90.942953,106.489933 L92.0436242,106.489933 C93.1442953,106.489933 94.5201342,106.489933 94.9328859,106.627517 L94.9328859,103.875839 C94.5201342,103.875839 93.1442953,103.875839 92.0436242,103.738255 L90.942953,103.738255 Z" id="Path"></path>
            <path d="M73.6073826,91.2181208 C74.295302,91.2181208 74.9832215,91.0805369 75.9463087,91.0805369 C76.3590604,91.0805369 76.7718121,90.942953 77.3221477,90.942953 C77.5973154,90.942953 77.7348993,90.942953 78.0100671,90.942953 L78.0100671,88.1912752 C77.7348993,88.1912752 77.4597315,88.1912752 77.0469799,88.1912752 C76.4966443,88.1912752 76.0838926,88.3288591 75.6711409,88.3288591 C74.8456376,88.466443 74.1577181,88.466443 73.6073826,88.466443 L69.6174497,88.6040268 L69.6174497,91.3557047 L73.6073826,91.2181208 Z" id="Path"></path>
            <path d="M75.6711409,95.8959732 C74.8456376,96.033557 74.1577181,96.033557 73.6073826,96.033557 L69.6174497,96.1711409 L69.6174497,98.9228188 L73.6073826,98.7852349 C74.295302,98.7852349 74.9832215,98.647651 75.9463087,98.647651 L77.1845638,98.5100671 C77.4597315,98.5100671 77.5973154,98.5100671 77.7348993,98.5100671 L77.8724832,95.7583893 C77.5973154,95.7583893 77.3221477,95.7583893 76.909396,95.7583893 L75.6711409,95.8959732 Z" id="Path"></path>
            <path d="M75.6711409,103.463087 C74.8456376,103.600671 74.1577181,103.600671 73.4697987,103.600671 C72.2315436,103.600671 70.1677852,103.738255 69.6174497,103.738255 L69.6174497,106.489933 C70.1677852,106.489933 72.2315436,106.352349 73.6073826,106.352349 C74.295302,106.352349 74.9832215,106.214765 75.9463087,106.214765 L77.3221477,106.077181 C77.4597315,106.077181 77.7348993,106.077181 77.8724832,106.077181 L77.8724832,103.325503 C77.5973154,103.325503 77.3221477,103.325503 76.909396,103.325503 L75.6711409,103.463087 Z" id="Path"></path>
            <path d="M12.3825503,82.4127517 C15.8221477,82.4127517 17.885906,80.2114094 18.1610738,76.3590604 C18.1610738,75.6711409 18.1610738,74.7080537 18.0234899,73.7449664 L18.0234899,73.4697987 L15.1342282,73.4697987 L15.409396,74.0201342 C15.5469799,74.4328859 15.6845638,75.3959732 15.6845638,76.2214765 C15.5469799,78.147651 14.033557,79.385906 11.9697987,79.2483221 C9.76845638,79.1107383 8.53020134,77.7348993 8.53020134,75.8087248 C8.53020134,75.1208054 8.66778523,74.4328859 9.21812081,73.7449664 L9.63087248,73.1946309 L6.87919463,72.7818792 L6.74161074,73.057047 C6.32885906,73.8825503 6.19127517,74.8456376 6.05369128,75.6711409 C5.77852349,79.6610738 7.97986577,82.2751678 11.9697987,82.4127517 C12.1073826,82.4127517 12.2449664,82.4127517 12.3825503,82.4127517 Z" id="Path"></path>
            <path d="M12.9328859,68.9295302 C13.7583893,69.204698 14.4463087,69.204698 15.1342282,69.204698 C17.7483221,69.204698 19.6744966,67.6912752 20.5,65.0771812 C20.9127517,63.4261745 20.7751678,62.0503356 20.0872483,60.6744966 C19.261745,59.2986577 17.885906,58.3355705 16.0973154,57.7852349 C15.409396,57.5100671 14.5838926,57.5100671 14.033557,57.5100671 C11.4194631,57.5100671 9.49328859,59.0234899 8.66778523,61.6375839 C7.56711409,65.0771812 9.21812081,67.8288591 12.9328859,68.9295302 Z M11.0067114,62.4630872 C11.4194631,60.9496644 12.6577181,60.6744966 13.6208054,60.6744966 C14.033557,60.6744966 14.5838926,60.8120805 15.1342282,60.9496644 C16.3724832,61.3624161 17.3355705,61.9127517 17.7483221,62.738255 C18.0234899,63.2885906 18.1610738,63.8389262 17.885906,64.5268456 C17.4731544,66.0402685 16.2348993,66.3154362 15.2718121,66.3154362 C14.7214765,66.3154362 14.3087248,66.1778523 13.7583893,66.0402685 C12.1073826,65.4899329 10.4563758,64.2516779 11.0067114,62.4630872 Z" id="Shape"></path>
            <path d="M24.7651007,53.5201342 L20.7751678,51.3187919 L20.9127517,51.0436242 C21.3255034,50.3557047 21.6006711,50.3557047 22.1510067,50.4932886 L26.1409396,51.0436242 L27.6543624,48.1543624 L22.4261745,47.6040268 C22.0134228,47.6040268 21.738255,47.6040268 21.4630872,47.6040268 C21.4630872,46.5033557 20.9127517,45.4026846 19.8120805,44.852349 C19.261745,44.5771812 18.7114094,44.4395973 18.1610738,44.4395973 C16.2348993,44.4395973 15.2718121,46.3657718 14.3087248,48.1543624 L12.9328859,50.7684564 L23.3892617,56.409396 L24.7651007,53.5201342 Z M18.5738255,49.8053691 L18.4362416,50.0805369 L16.5100671,49.1174497 L16.647651,48.8422819 C17.0604027,48.0167785 17.6107383,47.1912752 18.4362416,47.6040268 C18.7114094,47.7416107 18.8489933,47.8791946 18.9865772,48.1543624 C19.1241611,48.704698 18.8489933,49.3926174 18.5738255,49.8053691 Z" id="Shape"></path>
            <polygon id="Path" points="31.2315436 43.0637584 25.8657718 38.6610738 33.5704698 40.4496644 35.6342282 37.8355705 26.5536913 30.2684564 24.6275168 32.4697987 30.1308725 37.0100671 22.4261745 35.2214765 20.2248322 37.8355705 29.442953 45.4026846"></polygon>
            <polygon id="Path" points="44.5771812 30.2684564 42.9261745 28.3422819 39.6241611 30.9563758 38.1107383 29.1677852 41.1375839 26.6912752 39.4865772 24.7651007 36.4597315 27.2416107 35.3590604 25.7281879 38.6610738 23.114094 37.0100671 21.0503356 31.3691275 25.590604 38.7986577 34.8087248"></polygon>
            <polygon id="Path" points="54.3456376 24.352349 53.1073826 22.1510067 49.3926174 24.2147651 44.852349 16.0973154 42.238255 17.6107383 48.0167785 27.9295302"></polygon>
            <polygon id="Path" points="64.3892617 20.5 63.4261745 18.1610738 59.5738255 19.5369128 56.409396 10.8691275 53.5201342 11.8322148 57.5100671 22.9765101"></polygon>
            <path d="M76.3590604,18.5738255 C76.6342282,18.5738255 76.7718121,18.5738255 77.0469799,18.5738255 C78.6979866,18.4362416 79.9362416,17.885906 80.6241611,17.0604027 C81.3120805,16.2348993 81.5872483,14.9966443 81.4496644,13.6208054 L80.8993289,6.19127517 L77.8724832,6.32885906 L78.4228188,13.0704698 C78.5604027,15.409396 77.5973154,15.8221477 76.7718121,15.9597315 C76.6342282,15.9597315 76.6342282,15.9597315 76.4966443,15.9597315 C75.8087248,15.9597315 74.8456376,15.6845638 74.5704698,13.3456376 L74.0201342,6.60402685 L70.9932886,6.87919463 L71.5436242,14.3087248 C72.0939597,17.0604027 73.6073826,18.5738255 76.3590604,18.5738255 Z" id="Path"></path>
            <polygon id="Path" points="89.9798658 11.557047 92.4563758 18.8489933 95.8959732 19.3993289 97.409396 7.56711409 94.5201342 7.15436242 93.557047 14.1711409 91.0805369 6.74161074 87.7785235 6.32885906 86.1275168 18.0234899 89.0167785 18.4362416"></polygon>
            <polygon id="Path" points="106.352349 10.1812081 103.463087 9.21812081 99.885906 20.5 102.775168 21.4630872"></polygon>
            <polygon id="Path" points="121.211409 16.7852349 118.597315 15.409396 112.818792 21.3255034 114.057047 13.2080537 111.167785 11.6946309 109.379195 24.2147651 112.40604 25.590604"></polygon>
            <polygon id="Path" points="124.238255 33.8456376 125.751678 31.7818792 122.449664 29.1677852 123.825503 27.3791946 126.852349 29.7181208 128.503356 27.6543624 125.47651 25.3154362 126.577181 23.8020134 129.879195 26.4161074 131.530201 24.352349 125.751678 19.9496644 118.459732 29.3053691"></polygon>
            <path d="M129.191275,38.7986577 L132.630872,35.7718121 L132.768456,36.0469799 C133.181208,36.5973154 133.181208,36.7348993 132.90604,37.4228188 L130.979866,41 L133.181208,43.4765101 L135.520134,38.7986577 C135.657718,38.6610738 135.795302,38.2483221 135.795302,37.8355705 C136.758389,38.2483221 137.996644,38.1107383 138.959732,37.2852349 C141.573826,35.0838926 139.510067,32.7449664 137.996644,30.9563758 L136.07047,28.7550336 L127.127517,36.5973154 L129.191275,38.7986577 Z M136.208054,32.6073826 L136.345638,32.8825503 C136.758389,33.4328859 137.171141,33.9832215 137.171141,34.3959732 C137.171141,34.6711409 137.033557,34.8087248 136.758389,34.9463087 C136.620805,35.2214765 136.345638,35.2214765 136.208054,35.2214765 C135.657718,35.2214765 135.107383,34.6711409 134.832215,34.2583893 L134.694631,33.9832215 L136.208054,32.6073826 Z" id="Shape"></path>
            <path d="M140.197987,48.2919463 C139.647651,48.704698 138.822148,48.0167785 138.54698,47.466443 C138.134228,46.7785235 137.996644,46.090604 137.996644,45.1275168 L137.996644,44.4395973 L135.244966,45.6778523 L135.38255,46.2281879 C135.657718,47.1912752 135.795302,47.7416107 136.345638,48.704698 C137.308725,50.3557047 138.54698,51.1812081 139.922819,51.1812081 C140.610738,51.1812081 141.161074,51.0436242 141.848993,50.6308725 C143.912752,49.3926174 143.637584,47.466443 143.362416,45.9530201 C143.224832,44.9899329 143.087248,44.3020134 143.5,44.0268456 C143.775168,43.8892617 143.912752,43.8892617 144.050336,43.8892617 C144.600671,43.8892617 145.013423,44.4395973 145.151007,44.5771812 C145.563758,45.1275168 145.701342,45.8154362 145.838926,46.5033557 L145.97651,47.0536913 L148.45302,45.9530201 L148.45302,45.6778523 C148.315436,44.852349 147.902685,44.0268456 147.352349,43.0637584 C146.114094,40.8624161 143.912752,40.1744966 141.986577,41.4127517 C139.922819,42.6510067 140.197987,44.5771812 140.473154,45.9530201 C140.610738,47.3288591 140.748322,48.0167785 140.197987,48.2919463 Z" id="Path"></path>
            <polygon id="Rectangle" transform="translate(146.530437, 55.449845) rotate(-22.191894) translate(-146.530437, -55.449845) " points="140.614483 53.9364611 152.44639 53.9364611 152.44639 56.9632282 140.614483 56.9632282"></polygon>
            <polygon id="Path" points="152.580537 63.0134228 143.637584 65.2147651 144.325503 68.1040268 153.40604 65.9026846 154.09396 68.9295302 156.57047 68.3791946 154.369128 59.2986577 151.892617 59.9865772"></polygon>
            <polygon id="Path" points="145.701342 77.3221477 145.838926 80.3489933 150.516779 80.0738255 157.946309 83.9261745 157.808725 80.6241611 153.40604 78.5604027 157.533557 75.9463087 157.258389 72.3691275 150.379195 77.1845638"></polygon>
            <polygon id="Path" points="14.7214765 104.563758 17.1979866 103.875839 16.2348993 100.298658 18.0234899 99.7483221 19.1241611 103.600671 21.6006711 102.775168 19.6744966 96.1711409 8.25503356 99.4731544 9.08053691 102.362416 13.7583893 100.986577"></polygon>
            <path d="M25.3154362,114.469799 C25.7281879,113.09396 25.590604,111.580537 24.9026846,110.067114 C23.8020134,107.865772 22.1510067,106.765101 19.9496644,106.765101 C18.9865772,106.765101 17.885906,107.040268 16.7852349,107.590604 C14.9966443,108.416107 13.8959732,109.654362 13.3456376,111.167785 C12.9328859,112.543624 13.0704698,114.057047 13.7583893,115.57047 C14.8590604,117.634228 16.5100671,118.872483 18.7114094,118.872483 C19.6744966,118.872483 20.7751678,118.597315 21.8758389,118.04698 C23.6644295,117.083893 24.9026846,115.983221 25.3154362,114.469799 Z M20.6375839,115.157718 C19.9496644,115.57047 19.1241611,115.708054 18.4362416,115.708054 C17.3355705,115.708054 16.647651,115.295302 16.2348993,114.332215 C15.9597315,113.644295 15.8221477,113.09396 16.0973154,112.543624 C16.3724832,111.718121 17.1979866,110.892617 18.2986577,110.342282 C18.9865772,110.067114 19.6744966,109.791946 20.3624161,109.791946 C21.4630872,109.791946 22.1510067,110.204698 22.5637584,111.167785 C22.8389262,111.855705 22.9765101,112.40604 22.7013423,112.956376 C22.4261745,113.781879 21.738255,114.607383 20.6375839,115.157718 Z" id="Shape"></path>
            <path d="M33.5704698,123.687919 L28.204698,127.95302 C26.8288591,129.053691 25.7281879,129.191275 24.9026846,128.228188 C24.6275168,127.815436 24.4899329,127.402685 24.4899329,126.989933 C24.6275168,126.439597 25.0402685,125.751678 25.8657718,125.063758 L31.2315436,120.798658 L29.3053691,118.459732 L23.3892617,123.137584 C22.1510067,124.100671 21.4630872,125.201342 21.4630872,126.439597 C21.4630872,127.540268 21.8758389,128.64094 22.8389262,129.879195 C23.9395973,131.392617 25.1778523,132.080537 26.5536913,132.080537 C27.5167785,132.080537 28.4798658,131.667785 29.442953,130.842282 L35.3590604,126.026846 L33.5704698,123.687919 Z" id="Path"></path>
            <polygon id="Path" points="43.614094 133.318792 39.2114094 138.822148 40.8624161 131.11745 38.2483221 128.916107 30.6812081 138.134228 33.0201342 140.060403 37.4228188 134.557047 35.7718121 142.261745 38.385906 144.463087 45.9530201 135.244966"></polygon>
            <path d="M52.4194631,138.959732 L49.3926174,137.446309 L44.0268456,148.040268 L47.0536913,149.553691 C48.5671141,150.241611 49.8053691,150.654362 51.0436242,150.654362 C53.1073826,150.654362 54.7583893,149.553691 55.8590604,147.352349 C57.647651,143.775168 56.409396,141.02349 52.4194631,138.959732 Z M52.9697987,145.97651 C52.4194631,147.214765 51.3187919,147.902685 50.0805369,147.902685 C49.5302013,147.902685 49.1174497,147.765101 48.5671141,147.489933 L47.8791946,147.077181 L50.9060403,141.02349 L51.5939597,141.436242 C52.4194631,141.848993 52.9697987,142.536913 53.2449664,143.224832 C53.5201342,144.187919 53.3825503,145.013423 52.9697987,145.97651 Z" id="Shape"></path>
            <polygon id="Path" points="59.0234899 154.644295 66.0402685 156.57047 66.7281879 154.09396 62.6006711 152.993289 63.1510067 150.791946 67.0033557 151.755034 67.6912752 149.278523 63.8389262 148.315436 64.2516779 146.389262 68.5167785 147.489933 69.0671141 145.013423 62.0503356 143.224832"></polygon>
            <path d="M76.4966443,145.97651 L73.057047,145.838926 L72.3691275,157.671141 L75.8087248,157.808725 C76.0838926,157.808725 76.3590604,157.808725 76.6342282,157.808725 C80.6241611,157.808725 82.6879195,155.88255 82.9630872,152.167785 C83.1006711,150.379195 82.6879195,148.865772 81.7248322,147.765101 C80.6241611,146.802013 78.9731544,146.114094 76.4966443,145.97651 Z M76.3590604,155.332215 L75.533557,155.332215 L75.9463087,148.590604 L76.7718121,148.590604 C78.4228188,148.728188 79.9362416,149.966443 79.7986577,152.167785 C79.6610738,154.369128 78.0100671,155.332215 76.3590604,155.332215 Z" id="Shape"></path>
            <path d="M93.4194631,145.013423 L91.3557047,157.533557 L94.5201342,156.845638 L94.9328859,154.231544 L98.7852349,153.40604 L100.298658,155.744966 L103.600671,155.057047 L96.5838926,144.463087 L93.4194631,145.013423 Z M95.3456376,151.61745 L95.7583893,148.45302 L97.409396,151.067114 L95.3456376,151.61745 Z" id="Shape"></path>
            <polygon id="Path" points="104.701342 151.204698 105.802013 154.09396 108.553691 152.993289 107.590604 150.241611"></polygon>
            <path d="M110.479866,139.234899 L107.45302,140.885906 L113.09396,151.342282 L116.120805,149.691275 C120.110738,147.489933 121.073826,144.738255 119.285235,141.298658 C117.496644,137.721477 114.469799,137.033557 110.479866,139.234899 Z M115.295302,147.214765 L114.607383,147.627517 L111.442953,141.711409 L112.130872,141.298658 C112.543624,141.02349 113.09396,140.885906 113.644295,140.885906 C114.88255,140.885906 115.845638,141.573826 116.533557,142.674497 C117.634228,144.600671 116.671141,146.389262 115.295302,147.214765 Z" id="Shape"></path>
            <polygon id="Path" points="121.624161 142.949664 123.275168 145.426174 125.751678 143.637584 124.100671 141.161074"></polygon>
            <polygon id="Path" points="126.302013 127.677852 125.751678 132.355705 128.365772 132.768456 128.64094 130.842282 134.281879 136.483221 136.483221 134.419463 128.090604 125.889262"></polygon>
            <path d="M142.399329,121.486577 C141.436242,120.798658 140.33557,120.661074 139.097315,121.073826 C139.097315,119.973154 138.54698,118.872483 137.721477,118.322148 C136.208054,117.221477 134.281879,117.909396 132.768456,119.83557 C131.392617,121.761745 131.530201,123.687919 133.181208,124.926174 C134.006711,125.47651 135.107383,125.614094 136.07047,125.338926 C135.932886,126.577181 136.345638,127.540268 137.308725,128.228188 C137.996644,128.778523 138.684564,128.916107 139.372483,128.916107 C140.610738,128.916107 141.711409,128.228188 142.812081,126.852349 C143.637584,125.751678 144.050336,124.651007 143.912752,123.550336 C143.775168,122.862416 143.224832,122.174497 142.399329,121.486577 Z M136.758389,122.312081 C136.345638,122.587248 135.932886,122.862416 135.520134,122.862416 C135.38255,122.862416 135.107383,122.862416 134.969799,122.724832 C134.419463,122.312081 134.694631,121.624161 134.969799,121.211409 C135.107383,120.936242 135.38255,120.798658 135.657718,120.798658 C135.795302,120.798658 136.07047,120.936242 136.345638,121.073826 C136.758389,121.348993 136.895973,121.899329 136.758389,122.312081 Z M140.885906,125.614094 C140.473154,126.16443 139.785235,126.302013 139.234899,125.889262 C138.822148,125.47651 138.54698,125.063758 138.684564,124.238255 C139.510067,123.687919 140.197987,123.550336 140.748322,123.963087 C141.02349,124.100671 141.161074,124.375839 141.161074,124.651007 C141.161074,124.926174 141.02349,125.338926 140.885906,125.614094 Z" id="Shape"></path>
            <path d="M147.765101,109.92953 C145.701342,108.966443 143.775168,109.516779 142.812081,111.442953 C142.536913,111.993289 142.399329,112.543624 142.536913,113.09396 C141.848993,112.543624 141.161074,111.580537 141.711409,110.342282 C141.986577,109.791946 142.399329,109.379195 142.812081,108.966443 L143.224832,108.691275 L141.02349,107.177852 L140.748322,107.45302 C140.197987,108.003356 139.647651,108.691275 139.234899,109.516779 C138.684564,110.755034 138.54698,111.855705 138.959732,112.956376 C139.647651,114.88255 141.573826,116.258389 143.087248,116.946309 C144.463087,117.634228 145.563758,117.909396 146.526846,117.909396 C148.040268,117.909396 149.14094,117.221477 149.966443,115.708054 C151.067114,113.231544 150.241611,111.167785 147.765101,109.92953 Z M147.765101,114.332215 C147.627517,114.744966 147.214765,114.88255 146.802013,114.88255 C146.526846,114.88255 146.114094,114.744966 145.838926,114.607383 C145.288591,114.332215 144.875839,113.919463 144.738255,113.644295 C144.600671,113.369128 144.738255,113.231544 144.738255,112.956376 C144.875839,112.543624 145.151007,112.40604 145.701342,112.40604 C145.97651,112.40604 146.389262,112.543624 146.802013,112.681208 C147.352349,112.956376 147.627517,113.231544 147.765101,113.644295 C147.902685,113.919463 147.765101,114.194631 147.765101,114.332215 Z" id="Shape"></path>
            <path d="M152.030201,97.8221477 C149.691275,97.1342282 147.765101,98.2348993 147.077181,100.436242 C147.077181,100.711409 146.939597,100.848993 146.939597,100.986577 L145.563758,100.573826 L146.802013,96.4463087 L144.463087,95.7583893 L142.399329,102.637584 L149.003356,104.701342 L149.003356,104.151007 C149.003356,103.463087 149.14094,102.912752 149.278523,102.224832 C149.416107,101.674497 150.104027,100.298658 151.342282,100.573826 C152.718121,100.986577 152.442953,102.5 152.305369,102.912752 C152.030201,103.738255 151.61745,104.288591 151.204698,104.838926 L150.791946,105.251678 L153.543624,106.214765 L153.681208,105.939597 C154.09396,105.114094 154.506711,104.151007 154.781879,103.463087 C155.194631,102.087248 155.194631,100.848993 154.644295,99.7483221 C154.09396,98.9228188 153.130872,98.2348993 152.030201,97.8221477 Z" id="Path"></path>
            <path d="M22.0134228,82 C22.0134228,115.020134 48.8422819,141.986577 81.8624161,141.986577 C114.88255,141.986577 141.711409,115.157718 141.711409,82 C141.711409,48.9798658 114.88255,22.1504826 81.8624161,22.1504826 C48.9798658,22.0134228 22.0134228,48.9798658 22.0134228,82 Z M82,24.0771812 C113.919463,24.0771812 139.785235,50.0805369 139.785235,81.8624161 C139.785235,113.781879 113.781879,139.647651 82,139.647651 C50.0805369,139.647651 24.2142216,113.644295 24.2142216,81.8624161 C24.0771812,50.0805369 50.0805369,24.0771812 82,24.0771812 Z" id="Shape"></path>
            <path d="M82,0 C36.7348993,0 0,36.7348993 0,82 C0,127.127517 36.7348993,164 82,164 C127.127517,164 164,127.265101 164,82 C163.862416,36.7348993 127.127517,0 82,0 Z M82,161.798658 C37.9731544,161.798658 2.20134228,126.026846 2.20134228,82 C2.20134228,37.9731544 37.9731544,2.20134228 82,2.20134228 C126.026846,2.20134228 161.798658,37.9731544 161.798658,82 C161.798658,126.026846 126.026846,161.798658 82,161.798658 Z" id="Shape"></path>
        </g>
    </g>
</svg>